<svg width="325" height="25" viewBox="0 0 325 25" fill="none" xmlns="http://www.w3.org/2000/svg">
<path d="M300.1 0.1H324.9V24.25C324.9 24.2654 324.893 24.2918 324.854 24.3296C324.815 24.3676 324.752 24.4091 324.663 24.4515C324.484 24.5362 324.218 24.6151 323.882 24.6823C323.212 24.8164 322.281 24.9 321.25 24.9H303.75C302.719 24.9 301.788 24.8164 301.118 24.6823C300.782 24.6151 300.516 24.5362 300.337 24.4515C300.248 24.4091 300.185 24.3676 300.146 24.3296C300.107 24.2918 300.1 24.2654 300.1 24.25V0.1Z" fill="url(#paint0_linear_1176_107)" stroke="black" stroke-width="0.2"/>
<path d="M250.1 0.1H274.9V24.25C274.9 24.2654 274.893 24.2918 274.854 24.3296C274.815 24.3676 274.752 24.4091 274.663 24.4515C274.484 24.5362 274.218 24.6151 273.882 24.6823C273.212 24.8164 272.281 24.9 271.25 24.9H253.75C252.719 24.9 251.788 24.8164 251.118 24.6823C250.782 24.6151 250.516 24.5362 250.337 24.4515C250.248 24.4091 250.185 24.3676 250.146 24.3296C250.107 24.2918 250.1 24.2654 250.1 24.25V0.1Z" fill="url(#paint1_linear_1176_107)" stroke="black" stroke-width="0.2"/>
<path d="M275.1 0.1H299.9V24.25C299.9 24.2654 299.893 24.2918 299.854 24.3296C299.815 24.3676 299.752 24.4091 299.663 24.4515C299.484 24.5362 299.218 24.6151 298.882 24.6823C298.212 24.8164 297.281 24.9 296.25 24.9H278.75C277.719 24.9 276.788 24.8164 276.118 24.6823C275.782 24.6151 275.516 24.5362 275.337 24.4515C275.248 24.4091 275.185 24.3676 275.146 24.3296C275.107 24.2918 275.1 24.2654 275.1 24.25V0.1Z" fill="url(#paint2_linear_1176_107)" stroke="black" stroke-width="0.2"/>
<path d="M225.1 0.1H249.9V24.25C249.9 24.2654 249.893 24.2918 249.854 24.3296C249.815 24.3676 249.752 24.4091 249.663 24.4515C249.484 24.5362 249.218 24.6151 248.882 24.6823C248.212 24.8164 247.281 24.9 246.25 24.9H228.75C227.719 24.9 226.788 24.8164 226.118 24.6823C225.782 24.6151 225.516 24.5362 225.337 24.4515C225.248 24.4091 225.185 24.3676 225.146 24.3296C225.107 24.2918 225.1 24.2654 225.1 24.25V0.1Z" fill="url(#paint3_linear_1176_107)" stroke="black" stroke-width="0.2"/>
<path d="M200.1 0.1H224.9V24.25C224.9 24.2654 224.893 24.2918 224.854 24.3296C224.815 24.3676 224.752 24.4091 224.663 24.4515C224.484 24.5362 224.218 24.6151 223.882 24.6823C223.212 24.8164 222.281 24.9 221.25 24.9H203.75C202.719 24.9 201.788 24.8164 201.118 24.6823C200.782 24.6151 200.516 24.5362 200.337 24.4515C200.248 24.4091 200.185 24.3676 200.146 24.3296C200.107 24.2918 200.1 24.2654 200.1 24.25V0.1Z" fill="url(#paint4_linear_1176_107)" stroke="black" stroke-width="0.2"/>
<path d="M150.1 0.1H174.9V24.25C174.9 24.2654 174.893 24.2918 174.854 24.3296C174.815 24.3676 174.752 24.4091 174.663 24.4515C174.484 24.5362 174.218 24.6151 173.882 24.6823C173.212 24.8164 172.281 24.9 171.25 24.9H153.75C152.719 24.9 151.788 24.8164 151.118 24.6823C150.782 24.6151 150.516 24.5362 150.337 24.4515C150.248 24.4091 150.185 24.3676 150.146 24.3296C150.107 24.2918 150.1 24.2654 150.1 24.25V0.1Z" fill="url(#paint5_linear_1176_107)" stroke="black" stroke-width="0.2"/>
<path d="M175.1 0.1H199.9V24.25C199.9 24.2654 199.893 24.2918 199.854 24.3296C199.815 24.3676 199.752 24.4091 199.663 24.4515C199.484 24.5362 199.218 24.6151 198.882 24.6823C198.212 24.8164 197.281 24.9 196.25 24.9H178.75C177.719 24.9 176.788 24.8164 176.118 24.6823C175.782 24.6151 175.516 24.5362 175.337 24.4515C175.248 24.4091 175.185 24.3676 175.146 24.3296C175.107 24.2918 175.1 24.2654 175.1 24.25V0.1Z" fill="url(#paint6_linear_1176_107)" stroke="black" stroke-width="0.2"/>
<path d="M125.1 0.1H149.9V24.25C149.9 24.2654 149.893 24.2918 149.854 24.3296C149.815 24.3676 149.752 24.4091 149.663 24.4515C149.484 24.5362 149.218 24.6151 148.882 24.6823C148.212 24.8164 147.281 24.9 146.25 24.9H128.75C127.719 24.9 126.788 24.8164 126.118 24.6823C125.782 24.6151 125.516 24.5362 125.337 24.4515C125.248 24.4091 125.185 24.3676 125.146 24.3296C125.107 24.2918 125.1 24.2654 125.1 24.25V0.1Z" fill="url(#paint7_linear_1176_107)" stroke="black" stroke-width="0.2"/>
<path d="M100.1 0.1H124.9V24.25C124.9 24.2654 124.893 24.2918 124.854 24.3296C124.815 24.3676 124.752 24.4091 124.663 24.4515C124.484 24.5362 124.218 24.6151 123.882 24.6823C123.212 24.8164 122.281 24.9 121.25 24.9H103.75C102.719 24.9 101.788 24.8164 101.118 24.6823C100.782 24.6151 100.516 24.5362 100.337 24.4515C100.248 24.4091 100.185 24.3676 100.146 24.3296C100.107 24.2918 100.1 24.2654 100.1 24.25V0.1Z" fill="url(#paint8_linear_1176_107)" stroke="black" stroke-width="0.2"/>
<path d="M50.1 0.1H74.9V24.25C74.9 24.2654 74.8926 24.2918 74.8539 24.3296C74.815 24.3676 74.7523 24.4091 74.6626 24.4515C74.4835 24.5362 74.2181 24.6151 73.882 24.6823C73.2116 24.8164 72.281 24.9 71.25 24.9H53.75C52.719 24.9 51.7884 24.8164 51.118 24.6823C50.7819 24.6151 50.5165 24.5362 50.3374 24.4515C50.2477 24.4091 50.185 24.3676 50.1461 24.3296C50.1074 24.2918 50.1 24.2654 50.1 24.25V0.1Z" fill="url(#paint9_linear_1176_107)" stroke="black" stroke-width="0.2"/>
<path d="M75.1 0.1H99.9V24.25C99.9 24.2654 99.8926 24.2918 99.8539 24.3296C99.815 24.3676 99.7523 24.4091 99.6626 24.4515C99.4835 24.5362 99.2181 24.6151 98.882 24.6823C98.2116 24.8164 97.281 24.9 96.25 24.9H78.75C77.719 24.9 76.7884 24.8164 76.118 24.6823C75.7819 24.6151 75.5165 24.5362 75.3374 24.4515C75.2477 24.4091 75.185 24.3676 75.1461 24.3296C75.1074 24.2918 75.1 24.2654 75.1 24.25V0.1Z" fill="url(#paint10_linear_1176_107)" stroke="black" stroke-width="0.2"/>
<path d="M25.1 0.1H49.9V24.25C49.9 24.2654 49.8926 24.2918 49.8539 24.3296C49.815 24.3676 49.7523 24.4091 49.6626 24.4515C49.4835 24.5362 49.2181 24.6151 48.882 24.6823C48.2116 24.8164 47.281 24.9 46.25 24.9H28.75C27.719 24.9 26.7884 24.8164 26.118 24.6823C25.7819 24.6151 25.5165 24.5362 25.3374 24.4515C25.2477 24.4091 25.185 24.3676 25.1461 24.3296C25.1074 24.2918 25.1 24.2654 25.1 24.25V0.1Z" fill="url(#paint11_linear_1176_107)" stroke="black" stroke-width="0.2"/>
<path d="M0.1 0.1H24.9V24.25C24.9 24.2654 24.8926 24.2918 24.8539 24.3296C24.815 24.3676 24.7523 24.4091 24.6626 24.4515C24.4835 24.5362 24.2181 24.6151 23.882 24.6823C23.2116 24.8164 22.281 24.9 21.25 24.9H3.75C2.719 24.9 1.78838 24.8164 1.11796 24.6823C0.781929 24.6151 0.516476 24.5362 0.337441 24.4515C0.247669 24.4091 0.184964 24.3676 0.146084 24.3296C0.107371 24.2918 0.1 24.2654 0.1 24.25V0.1Z" fill="url(#paint12_linear_1176_107)" stroke="black" stroke-width="0.2"/>
<path d="M12.125 16.0994C11.59 16.0994 11.1342 15.9538 10.7578 15.6626C10.3814 15.3691 10.0938 14.9441 9.89489 14.3878C9.69602 13.8291 9.59659 13.1544 9.59659 12.3636C9.59659 11.5777 9.69602 10.9065 9.89489 10.3501C10.0961 9.79143 10.3849 9.36529 10.7614 9.07173C11.1402 8.7758 11.5947 8.62784 12.125 8.62784C12.6553 8.62784 13.1087 8.7758 13.4851 9.07173C13.8639 9.36529 14.1527 9.79143 14.3516 10.3501C14.5528 10.9065 14.6534 11.5777 14.6534 12.3636C14.6534 13.1544 14.554 13.8291 14.3551 14.3878C14.1562 14.9441 13.8686 15.3691 13.4922 15.6626C13.1158 15.9538 12.66 16.0994 12.125 16.0994ZM12.125 15.3182C12.6553 15.3182 13.0672 15.0625 13.3608 14.5511C13.6544 14.0398 13.8011 13.3106 13.8011 12.3636C13.8011 11.7339 13.7337 11.1977 13.5987 10.755C13.4661 10.3123 13.2744 9.97491 13.0234 9.7429C12.7749 9.51089 12.4754 9.39489 12.125 9.39489C11.5994 9.39489 11.1887 9.65412 10.8928 10.1726C10.5968 10.6887 10.4489 11.419 10.4489 12.3636C10.4489 12.9934 10.5152 13.5284 10.6477 13.9688C10.7803 14.4091 10.9709 14.7441 11.2195 14.9737C11.4704 15.2034 11.7723 15.3182 12.125 15.3182Z" fill="black"/>
<path d="M37.3097 8.72727V16H36.429V9.65057H36.3864L34.6108 10.8295V9.93466L36.429 8.72727H37.3097Z" fill="black"/>
<path d="M59.7528 16V15.3608L62.1534 12.733C62.4351 12.4252 62.6671 12.1577 62.8494 11.9304C63.0317 11.7008 63.1667 11.4853 63.2543 11.2841C63.3442 11.0805 63.3892 10.8674 63.3892 10.6449C63.3892 10.3892 63.3277 10.1679 63.2045 9.98082C63.0838 9.7938 62.9181 9.64938 62.7074 9.54759C62.4967 9.44579 62.2599 9.39489 61.9972 9.39489C61.7178 9.39489 61.474 9.45289 61.2656 9.56889C61.0597 9.68253 60.8999 9.84233 60.7862 10.0483C60.675 10.2543 60.6193 10.4957 60.6193 10.7727H59.7812C59.7812 10.3466 59.8795 9.97254 60.076 9.65057C60.2725 9.3286 60.54 9.07765 60.8786 8.89773C61.2195 8.7178 61.6018 8.62784 62.0256 8.62784C62.4517 8.62784 62.8293 8.7178 63.1584 8.89773C63.4875 9.07765 63.7455 9.32031 63.9325 9.62571C64.1196 9.93111 64.2131 10.2708 64.2131 10.6449C64.2131 10.9124 64.1645 11.174 64.0675 11.4297C63.9728 11.683 63.8071 11.9659 63.5703 12.2784C63.3359 12.5885 63.0104 12.9673 62.5938 13.4148L60.9602 15.1619V15.2188H64.3409V16H59.7528Z" fill="black"/>
<path d="M87.2102 16.0994C86.7415 16.0994 86.3236 16.0189 85.9567 15.858C85.5921 15.697 85.3021 15.4732 85.0866 15.1868C84.8736 14.898 84.7576 14.563 84.7386 14.1818H85.6335C85.6525 14.4162 85.733 14.6186 85.875 14.7891C86.017 14.9571 86.2029 15.0874 86.4325 15.1797C86.6622 15.272 86.9167 15.3182 87.196 15.3182C87.5085 15.3182 87.7855 15.2637 88.027 15.1548C88.2685 15.0459 88.4579 14.8944 88.5952 14.7003C88.7325 14.5062 88.8011 14.2812 88.8011 14.0256C88.8011 13.758 88.7348 13.5225 88.6023 13.3189C88.4697 13.1129 88.2756 12.9519 88.0199 12.8359C87.7642 12.7199 87.4517 12.6619 87.0824 12.6619H86.5V11.8807H87.0824C87.3712 11.8807 87.6245 11.8286 87.8423 11.7244C88.0625 11.6203 88.2341 11.4735 88.3572 11.2841C88.4827 11.0947 88.5455 10.8722 88.5455 10.6165C88.5455 10.3703 88.491 10.156 88.3821 9.97372C88.2732 9.79143 88.1193 9.64938 87.9205 9.54759C87.724 9.44579 87.492 9.39489 87.2244 9.39489C86.9735 9.39489 86.7367 9.44105 86.5142 9.53338C86.294 9.62334 86.1141 9.75473 85.9744 9.92756C85.8348 10.098 85.759 10.304 85.7472 10.5455H84.8949C84.9091 10.1643 85.0239 9.83049 85.2393 9.54403C85.4548 9.25521 85.7365 9.0303 86.0845 8.86932C86.4349 8.70833 86.8196 8.62784 87.2386 8.62784C87.6884 8.62784 88.0743 8.71899 88.3963 8.90128C88.7183 9.0812 88.9657 9.31913 89.1385 9.61506C89.3113 9.91098 89.3977 10.2306 89.3977 10.5739C89.3977 10.9834 89.29 11.3326 89.0746 11.6214C88.8615 11.9103 88.5715 12.1103 88.2045 12.2216V12.2784C88.6638 12.3542 89.0225 12.5495 89.2805 12.8643C89.5386 13.1768 89.6676 13.5639 89.6676 14.0256C89.6676 14.4209 89.5599 14.776 89.3445 15.0909C89.1314 15.4034 88.8402 15.6496 88.4709 15.8295C88.1016 16.0095 87.6813 16.0994 87.2102 16.0994Z" fill="black"/>
<path d="M109.582 14.5085V13.7841L112.778 8.72727H113.304V9.84943H112.949L110.534 13.6705V13.7273H114.838V14.5085H109.582ZM113.006 16V14.2884V13.951V8.72727H113.844V16H113.006Z" fill="black"/>
<path d="M137.026 16.0994C136.609 16.0994 136.234 16.0166 135.9 15.8509C135.566 15.6851 135.299 15.4579 135.097 15.169C134.896 14.8802 134.786 14.5511 134.767 14.1818H135.619C135.652 14.5109 135.802 14.7831 136.067 14.9986C136.334 15.2116 136.654 15.3182 137.026 15.3182C137.324 15.3182 137.589 15.2483 137.821 15.1087C138.055 14.969 138.239 14.7772 138.371 14.5334C138.506 14.2872 138.574 14.009 138.574 13.6989C138.574 13.3816 138.504 13.0987 138.364 12.8501C138.227 12.5992 138.038 12.4015 137.796 12.2571C137.555 12.1127 137.279 12.0393 136.969 12.0369C136.746 12.0346 136.518 12.0689 136.283 12.1399C136.049 12.2086 135.856 12.2973 135.705 12.4062L134.881 12.3068L135.321 8.72727H139.099V9.50852H136.06L135.804 11.6534H135.847C135.996 11.535 136.183 11.4368 136.408 11.3587C136.633 11.2805 136.867 11.2415 137.111 11.2415C137.556 11.2415 137.952 11.348 138.3 11.5611C138.651 11.7718 138.925 12.0606 139.124 12.4276C139.326 12.7945 139.426 13.2135 139.426 13.6847C139.426 14.1487 139.322 14.563 139.114 14.9276C138.908 15.2898 138.624 15.5762 138.261 15.7869C137.899 15.9953 137.487 16.0994 137.026 16.0994Z" fill="black"/>
<path d="M162.168 16.0994C161.869 16.0947 161.571 16.0379 161.273 15.929C160.974 15.8201 160.702 15.6366 160.456 15.3786C160.21 15.1181 160.012 14.7666 159.863 14.3239C159.714 13.8788 159.639 13.3201 159.639 12.6477C159.639 12.0038 159.7 11.4332 159.82 10.9361C159.941 10.4366 160.116 10.0163 160.346 9.67543C160.576 9.33215 160.853 9.07173 161.177 8.89418C161.504 8.71662 161.872 8.62784 162.281 8.62784C162.688 8.62784 163.051 8.70952 163.368 8.87287C163.688 9.03385 163.948 9.25876 164.149 9.54759C164.35 9.83641 164.481 10.169 164.54 10.5455H163.673C163.593 10.2187 163.437 9.94768 163.205 9.73224C162.973 9.51681 162.665 9.40909 162.281 9.40909C161.718 9.40909 161.274 9.65412 160.95 10.1442C160.628 10.6342 160.465 11.322 160.463 12.2074H160.52C160.652 12.0062 160.81 11.8345 160.992 11.6925C161.177 11.5481 161.38 11.4368 161.603 11.3587C161.826 11.2805 162.061 11.2415 162.31 11.2415C162.726 11.2415 163.107 11.3456 163.453 11.554C163.799 11.7599 164.076 12.0452 164.284 12.4098C164.492 12.772 164.597 13.1875 164.597 13.6562C164.597 14.1061 164.496 14.518 164.295 14.892C164.094 15.2637 163.811 15.5597 163.446 15.7798C163.084 15.9976 162.658 16.1042 162.168 16.0994ZM162.168 15.3182C162.466 15.3182 162.733 15.2436 162.97 15.0945C163.209 14.9453 163.397 14.7453 163.535 14.4943C163.674 14.2434 163.744 13.964 163.744 13.6562C163.744 13.3556 163.677 13.0821 163.542 12.8359C163.409 12.5874 163.226 12.3897 162.991 12.2429C162.759 12.0961 162.494 12.0227 162.196 12.0227C161.971 12.0227 161.762 12.0677 161.567 12.1577C161.373 12.2453 161.203 12.366 161.056 12.5199C160.912 12.6738 160.798 12.8501 160.715 13.049C160.632 13.2455 160.591 13.4527 160.591 13.6705C160.591 13.9593 160.658 14.2292 160.793 14.4801C160.931 14.7311 161.118 14.9335 161.354 15.0874C161.594 15.2412 161.865 15.3182 162.168 15.3182Z" fill="black"/>
<path d="M184.98 16L188.233 9.56534V9.50852H184.483V8.72727H189.142V9.55114L185.903 16H184.98Z" fill="black"/>
<path d="M212.082 16.0994C211.595 16.0994 211.164 16.013 210.79 15.8402C210.418 15.665 210.128 15.4247 209.92 15.1193C209.711 14.8116 209.608 14.4612 209.611 14.0682C209.608 13.7604 209.669 13.4763 209.792 13.2159C209.915 12.9531 210.083 12.7341 210.296 12.5589C210.512 12.3814 210.752 12.2689 211.017 12.2216V12.179C210.669 12.089 210.392 11.8937 210.186 11.593C209.98 11.29 209.878 10.9455 209.881 10.5597C209.878 10.1903 209.972 9.86009 210.161 9.56889C210.351 9.2777 210.611 9.04806 210.942 8.87997C211.276 8.71188 211.656 8.62784 212.082 8.62784C212.504 8.62784 212.88 8.71188 213.212 8.87997C213.543 9.04806 213.804 9.2777 213.993 9.56889C214.185 9.86009 214.282 10.1903 214.284 10.5597C214.282 10.9455 214.176 11.29 213.968 11.593C213.762 11.8937 213.489 12.089 213.148 12.179V12.2216C213.411 12.2689 213.647 12.3814 213.858 12.5589C214.069 12.7341 214.237 12.9531 214.362 13.2159C214.488 13.4763 214.552 13.7604 214.554 14.0682C214.552 14.4612 214.445 14.8116 214.234 15.1193C214.026 15.4247 213.736 15.665 213.364 15.8402C212.995 16.013 212.568 16.0994 212.082 16.0994ZM212.082 15.3182C212.411 15.3182 212.696 15.2649 212.935 15.1584C213.174 15.0518 213.358 14.9015 213.489 14.7074C213.619 14.5133 213.685 14.286 213.688 14.0256C213.685 13.7509 213.614 13.5083 213.474 13.2976C213.335 13.0869 213.144 12.9212 212.903 12.8004C212.664 12.6797 212.39 12.6193 212.082 12.6193C211.772 12.6193 211.495 12.6797 211.251 12.8004C211.01 12.9212 210.819 13.0869 210.68 13.2976C210.542 13.5083 210.475 13.7509 210.477 14.0256C210.475 14.286 210.538 14.5133 210.665 14.7074C210.796 14.9015 210.982 15.0518 211.223 15.1584C211.464 15.2649 211.751 15.3182 212.082 15.3182ZM212.082 11.8665C212.343 11.8665 212.574 11.8144 212.775 11.7102C212.978 11.6061 213.138 11.4605 213.254 11.2734C213.37 11.0864 213.429 10.8674 213.432 10.6165C213.429 10.3703 213.371 10.156 213.258 9.97372C213.144 9.78906 212.987 9.64702 212.786 9.54759C212.584 9.44579 212.35 9.39489 212.082 9.39489C211.81 9.39489 211.572 9.44579 211.369 9.54759C211.165 9.64702 211.008 9.78906 210.896 9.97372C210.785 10.156 210.731 10.3703 210.733 10.6165C210.731 10.8674 210.786 11.0864 210.9 11.2734C211.016 11.4605 211.176 11.6061 211.379 11.7102C211.583 11.8144 211.817 11.8665 212.082 11.8665Z" fill="black"/>
<path d="M237.068 8.62784C237.366 8.63021 237.665 8.68703 237.963 8.7983C238.261 8.90956 238.534 9.09422 238.78 9.35227C239.026 9.60795 239.224 9.95715 239.373 10.3999C239.522 10.8426 239.597 11.3977 239.597 12.0653C239.597 12.7116 239.535 13.2857 239.412 13.7876C239.291 14.2872 239.116 14.7086 238.886 15.0518C238.659 15.3951 238.382 15.6555 238.055 15.8331C237.731 16.0107 237.364 16.0994 236.955 16.0994C236.547 16.0994 236.184 16.0189 235.864 15.858C235.547 15.6946 235.287 15.4685 235.083 15.1797C234.882 14.8885 234.753 14.5511 234.696 14.1676H235.562C235.641 14.5014 235.796 14.7772 236.028 14.995C236.262 15.2105 236.571 15.3182 236.955 15.3182C237.516 15.3182 237.958 15.0732 238.283 14.5831C238.609 14.093 238.773 13.4006 238.773 12.5057H238.716C238.583 12.7045 238.426 12.8762 238.244 13.0206C238.061 13.165 237.859 13.2763 237.636 13.3544C237.414 13.4325 237.177 13.4716 236.926 13.4716C236.509 13.4716 236.127 13.3686 235.779 13.1626C235.433 12.9543 235.156 12.669 234.948 12.3068C234.742 11.9422 234.639 11.5256 234.639 11.0568C234.639 10.6117 234.739 10.2045 234.938 9.83523C235.139 9.46354 235.42 9.16761 235.783 8.94744C236.147 8.72727 236.576 8.62074 237.068 8.62784ZM237.068 9.40909C236.77 9.40909 236.501 9.48366 236.262 9.63281C236.025 9.77959 235.837 9.97846 235.697 10.2294C235.56 10.478 235.491 10.7538 235.491 11.0568C235.491 11.3598 235.558 11.6357 235.69 11.8842C235.825 12.1304 236.009 12.3269 236.241 12.4737C236.475 12.6181 236.741 12.6903 237.04 12.6903C237.265 12.6903 237.474 12.6465 237.668 12.5589C237.862 12.469 238.032 12.3471 238.176 12.1932C238.323 12.0369 238.438 11.8606 238.521 11.6641C238.603 11.4652 238.645 11.258 238.645 11.0426C238.645 10.7585 238.576 10.4922 238.439 10.2436C238.304 9.99503 238.117 9.7938 237.878 9.63991C237.641 9.48603 237.371 9.40909 237.068 9.40909Z" fill="black"/>
<path d="M260.31 8.72727V16H259.429V9.65057H259.386L257.611 10.8295V9.93466L259.429 8.72727H260.31ZM264.773 16.0994C264.238 16.0994 263.783 15.9538 263.406 15.6626C263.03 15.3691 262.742 14.9441 262.543 14.3878C262.344 13.8291 262.245 13.1544 262.245 12.3636C262.245 11.5777 262.344 10.9065 262.543 10.3501C262.745 9.79143 263.033 9.36529 263.41 9.07173C263.789 8.7758 264.243 8.62784 264.773 8.62784C265.304 8.62784 265.757 8.7758 266.134 9.07173C266.512 9.36529 266.801 9.79143 267 10.3501C267.201 10.9065 267.302 11.5777 267.302 12.3636C267.302 13.1544 267.202 13.8291 267.004 14.3878C266.805 14.9441 266.517 15.3691 266.141 15.6626C265.764 15.9538 265.308 16.0994 264.773 16.0994ZM264.773 15.3182C265.304 15.3182 265.716 15.0625 266.009 14.5511C266.303 14.0398 266.45 13.3106 266.45 12.3636C266.45 11.7339 266.382 11.1977 266.247 10.755C266.115 10.3123 265.923 9.97491 265.672 9.7429C265.423 9.51089 265.124 9.39489 264.773 9.39489C264.248 9.39489 263.837 9.65412 263.541 10.1726C263.245 10.6887 263.097 11.419 263.097 12.3636C263.097 12.9934 263.164 13.5284 263.296 13.9688C263.429 14.4091 263.619 14.7441 263.868 14.9737C264.119 15.2034 264.421 15.3182 264.773 15.3182Z" fill="black"/>
<path d="M286.31 8.72727V16H285.429V9.65057H285.386L283.611 10.8295V9.93466L285.429 8.72727H286.31ZM290.958 8.72727V16H290.077V9.65057H290.035L288.259 10.8295V9.93466L290.077 8.72727H290.958Z" fill="black"/>
<path d="M310.31 8.72727V16H309.429V9.65057H309.386L307.611 10.8295V9.93466L309.429 8.72727H310.31ZM312.401 16V15.3608L314.802 12.733C315.084 12.4252 315.316 12.1577 315.498 11.9304C315.68 11.7008 315.815 11.4853 315.903 11.2841C315.993 11.0805 316.038 10.8674 316.038 10.6449C316.038 10.3892 315.976 10.1679 315.853 9.98082C315.732 9.7938 315.567 9.64938 315.356 9.54759C315.145 9.44579 314.908 9.39489 314.646 9.39489C314.366 9.39489 314.122 9.45289 313.914 9.56889C313.708 9.68253 313.548 9.84233 313.435 10.0483C313.323 10.2543 313.268 10.4957 313.268 10.7727H312.43C312.43 10.3466 312.528 9.97254 312.724 9.65057C312.921 9.3286 313.188 9.07765 313.527 8.89773C313.868 8.7178 314.25 8.62784 314.674 8.62784C315.1 8.62784 315.478 8.7178 315.807 8.89773C316.136 9.07765 316.394 9.32031 316.581 9.62571C316.768 9.93111 316.862 10.2708 316.862 10.6449C316.862 10.9124 316.813 11.174 316.716 11.4297C316.621 11.683 316.455 11.9659 316.219 12.2784C315.984 12.5885 315.659 12.9673 315.242 13.4148L313.609 15.1619V15.2188H316.989V16H312.401Z" fill="black"/>
<defs>
<linearGradient id="paint0_linear_1176_107" x1="312.5" y1="0" x2="312.5" y2="25" gradientUnits="userSpaceOnUse">
<stop offset="0.255208" stop-color="#DDB078"/>
<stop offset="0.598958" stop-color="#F4D6B1"/>
</linearGradient>
<linearGradient id="paint1_linear_1176_107" x1="262.5" y1="0" x2="262.5" y2="25" gradientUnits="userSpaceOnUse">
<stop offset="0.255208" stop-color="#DDB078"/>
<stop offset="0.598958" stop-color="#F4D6B1"/>
</linearGradient>
<linearGradient id="paint2_linear_1176_107" x1="287.5" y1="0" x2="287.5" y2="25" gradientUnits="userSpaceOnUse">
<stop offset="0.255208" stop-color="#DDB078"/>
<stop offset="0.598958" stop-color="#F4D6B1"/>
</linearGradient>
<linearGradient id="paint3_linear_1176_107" x1="237.5" y1="0" x2="237.5" y2="25" gradientUnits="userSpaceOnUse">
<stop offset="0.255208" stop-color="#DDB078"/>
<stop offset="0.598958" stop-color="#F4D6B1"/>
</linearGradient>
<linearGradient id="paint4_linear_1176_107" x1="212.5" y1="0" x2="212.5" y2="25" gradientUnits="userSpaceOnUse">
<stop offset="0.255208" stop-color="#DDB078"/>
<stop offset="0.598958" stop-color="#F4D6B1"/>
</linearGradient>
<linearGradient id="paint5_linear_1176_107" x1="162.5" y1="0" x2="162.5" y2="25" gradientUnits="userSpaceOnUse">
<stop offset="0.255208" stop-color="#DDB078"/>
<stop offset="0.598958" stop-color="#F4D6B1"/>
</linearGradient>
<linearGradient id="paint6_linear_1176_107" x1="187.5" y1="0" x2="187.5" y2="25" gradientUnits="userSpaceOnUse">
<stop offset="0.255208" stop-color="#DDB078"/>
<stop offset="0.598958" stop-color="#F4D6B1"/>
</linearGradient>
<linearGradient id="paint7_linear_1176_107" x1="137.5" y1="0" x2="137.5" y2="25" gradientUnits="userSpaceOnUse">
<stop offset="0.255208" stop-color="#DDB078"/>
<stop offset="0.598958" stop-color="#F4D6B1"/>
</linearGradient>
<linearGradient id="paint8_linear_1176_107" x1="112.5" y1="0" x2="112.5" y2="25" gradientUnits="userSpaceOnUse">
<stop offset="0.255208" stop-color="#DDB078"/>
<stop offset="0.598958" stop-color="#F4D6B1"/>
</linearGradient>
<linearGradient id="paint9_linear_1176_107" x1="62.5" y1="0" x2="62.5" y2="25" gradientUnits="userSpaceOnUse">
<stop offset="0.255208" stop-color="#DDB078"/>
<stop offset="0.598958" stop-color="#F4D6B1"/>
</linearGradient>
<linearGradient id="paint10_linear_1176_107" x1="87.5" y1="0" x2="87.5" y2="25" gradientUnits="userSpaceOnUse">
<stop offset="0.255208" stop-color="#DDB078"/>
<stop offset="0.598958" stop-color="#F4D6B1"/>
</linearGradient>
<linearGradient id="paint11_linear_1176_107" x1="37.5" y1="0" x2="37.5" y2="25" gradientUnits="userSpaceOnUse">
<stop offset="0.255208" stop-color="#DDB078"/>
<stop offset="0.598958" stop-color="#F4D6B1"/>
</linearGradient>
<linearGradient id="paint12_linear_1176_107" x1="12.5" y1="0" x2="12.5" y2="25" gradientUnits="userSpaceOnUse">
<stop offset="0.255208" stop-color="#DDB078"/>
<stop offset="0.598958" stop-color="#F4D6B1"/>
</linearGradient>
</defs>
</svg>
