<svg width="325" height="25" viewBox="0 0 325 25" fill="none" xmlns="http://www.w3.org/2000/svg">
<path d="M300.1 0.1H324.9V24.25C324.9 24.2654 324.893 24.2918 324.854 24.3296C324.815 24.3676 324.752 24.4091 324.663 24.4515C324.484 24.5362 324.218 24.6151 323.882 24.6823C323.212 24.8164 322.281 24.9 321.25 24.9H303.75C302.719 24.9 301.788 24.8164 301.118 24.6823C300.782 24.6151 300.516 24.5362 300.337 24.4515C300.248 24.4091 300.185 24.3676 300.146 24.3296C300.107 24.2918 300.1 24.2654 300.1 24.25V0.1Z" fill="url(#paint0_linear_1174_300)" stroke="black" stroke-width="0.2"/>
<path d="M250.1 0.1H274.9V24.25C274.9 24.2654 274.893 24.2918 274.854 24.3296C274.815 24.3676 274.752 24.4091 274.663 24.4515C274.484 24.5362 274.218 24.6151 273.882 24.6823C273.212 24.8164 272.281 24.9 271.25 24.9H253.75C252.719 24.9 251.788 24.8164 251.118 24.6823C250.782 24.6151 250.516 24.5362 250.337 24.4515C250.248 24.4091 250.185 24.3676 250.146 24.3296C250.107 24.2918 250.1 24.2654 250.1 24.25V0.1Z" fill="url(#paint1_linear_1174_300)" stroke="black" stroke-width="0.2"/>
<path d="M275.1 0.1H299.9V24.25C299.9 24.2654 299.893 24.2918 299.854 24.3296C299.815 24.3676 299.752 24.4091 299.663 24.4515C299.484 24.5362 299.218 24.6151 298.882 24.6823C298.212 24.8164 297.281 24.9 296.25 24.9H278.75C277.719 24.9 276.788 24.8164 276.118 24.6823C275.782 24.6151 275.516 24.5362 275.337 24.4515C275.248 24.4091 275.185 24.3676 275.146 24.3296C275.107 24.2918 275.1 24.2654 275.1 24.25V0.1Z" fill="url(#paint2_linear_1174_300)" stroke="black" stroke-width="0.2"/>
<path d="M225.1 0.1H249.9V24.25C249.9 24.2654 249.893 24.2918 249.854 24.3296C249.815 24.3676 249.752 24.4091 249.663 24.4515C249.484 24.5362 249.218 24.6151 248.882 24.6823C248.212 24.8164 247.281 24.9 246.25 24.9H228.75C227.719 24.9 226.788 24.8164 226.118 24.6823C225.782 24.6151 225.516 24.5362 225.337 24.4515C225.248 24.4091 225.185 24.3676 225.146 24.3296C225.107 24.2918 225.1 24.2654 225.1 24.25V0.1Z" fill="url(#paint3_linear_1174_300)" stroke="black" stroke-width="0.2"/>
<path d="M200.1 0.1H224.9V24.25C224.9 24.2654 224.893 24.2918 224.854 24.3296C224.815 24.3676 224.752 24.4091 224.663 24.4515C224.484 24.5362 224.218 24.6151 223.882 24.6823C223.212 24.8164 222.281 24.9 221.25 24.9H203.75C202.719 24.9 201.788 24.8164 201.118 24.6823C200.782 24.6151 200.516 24.5362 200.337 24.4515C200.248 24.4091 200.185 24.3676 200.146 24.3296C200.107 24.2918 200.1 24.2654 200.1 24.25V0.1Z" fill="url(#paint4_linear_1174_300)" stroke="black" stroke-width="0.2"/>
<path d="M150.1 0.1H174.9V24.25C174.9 24.2654 174.893 24.2918 174.854 24.3296C174.815 24.3676 174.752 24.4091 174.663 24.4515C174.484 24.5362 174.218 24.6151 173.882 24.6823C173.212 24.8164 172.281 24.9 171.25 24.9H153.75C152.719 24.9 151.788 24.8164 151.118 24.6823C150.782 24.6151 150.516 24.5362 150.337 24.4515C150.248 24.4091 150.185 24.3676 150.146 24.3296C150.107 24.2918 150.1 24.2654 150.1 24.25V0.1Z" fill="url(#paint5_linear_1174_300)" stroke="black" stroke-width="0.2"/>
<path d="M175.1 0.1H199.9V24.25C199.9 24.2654 199.893 24.2918 199.854 24.3296C199.815 24.3676 199.752 24.4091 199.663 24.4515C199.484 24.5362 199.218 24.6151 198.882 24.6823C198.212 24.8164 197.281 24.9 196.25 24.9H178.75C177.719 24.9 176.788 24.8164 176.118 24.6823C175.782 24.6151 175.516 24.5362 175.337 24.4515C175.248 24.4091 175.185 24.3676 175.146 24.3296C175.107 24.2918 175.1 24.2654 175.1 24.25V0.1Z" fill="url(#paint6_linear_1174_300)" stroke="black" stroke-width="0.2"/>
<path d="M125.1 0.1H149.9V24.25C149.9 24.2654 149.893 24.2918 149.854 24.3296C149.815 24.3676 149.752 24.4091 149.663 24.4515C149.484 24.5362 149.218 24.6151 148.882 24.6823C148.212 24.8164 147.281 24.9 146.25 24.9H128.75C127.719 24.9 126.788 24.8164 126.118 24.6823C125.782 24.6151 125.516 24.5362 125.337 24.4515C125.248 24.4091 125.185 24.3676 125.146 24.3296C125.107 24.2918 125.1 24.2654 125.1 24.25V0.1Z" fill="url(#paint7_linear_1174_300)" stroke="black" stroke-width="0.2"/>
<path d="M100.1 0.1H124.9V24.25C124.9 24.2654 124.893 24.2918 124.854 24.3296C124.815 24.3676 124.752 24.4091 124.663 24.4515C124.484 24.5362 124.218 24.6151 123.882 24.6823C123.212 24.8164 122.281 24.9 121.25 24.9H103.75C102.719 24.9 101.788 24.8164 101.118 24.6823C100.782 24.6151 100.516 24.5362 100.337 24.4515C100.248 24.4091 100.185 24.3676 100.146 24.3296C100.107 24.2918 100.1 24.2654 100.1 24.25V0.1Z" fill="url(#paint8_linear_1174_300)" stroke="black" stroke-width="0.2"/>
<path d="M50.1 0.1H74.9V24.25C74.9 24.2654 74.8926 24.2918 74.8539 24.3296C74.815 24.3676 74.7523 24.4091 74.6626 24.4515C74.4835 24.5362 74.2181 24.6151 73.882 24.6823C73.2116 24.8164 72.281 24.9 71.25 24.9H53.75C52.719 24.9 51.7884 24.8164 51.118 24.6823C50.7819 24.6151 50.5165 24.5362 50.3374 24.4515C50.2477 24.4091 50.185 24.3676 50.1461 24.3296C50.1074 24.2918 50.1 24.2654 50.1 24.25V0.1Z" fill="url(#paint9_linear_1174_300)" stroke="black" stroke-width="0.2"/>
<path d="M75.1 0.1H99.9V24.25C99.9 24.2654 99.8926 24.2918 99.8539 24.3296C99.815 24.3676 99.7523 24.4091 99.6626 24.4515C99.4835 24.5362 99.2181 24.6151 98.882 24.6823C98.2116 24.8164 97.281 24.9 96.25 24.9H78.75C77.719 24.9 76.7884 24.8164 76.118 24.6823C75.7819 24.6151 75.5165 24.5362 75.3374 24.4515C75.2477 24.4091 75.185 24.3676 75.1461 24.3296C75.1074 24.2918 75.1 24.2654 75.1 24.25V0.1Z" fill="url(#paint10_linear_1174_300)" stroke="black" stroke-width="0.2"/>
<path d="M25.1 0.1H49.9V24.25C49.9 24.2654 49.8926 24.2918 49.8539 24.3296C49.815 24.3676 49.7523 24.4091 49.6626 24.4515C49.4835 24.5362 49.2181 24.6151 48.882 24.6823C48.2116 24.8164 47.281 24.9 46.25 24.9H28.75C27.719 24.9 26.7884 24.8164 26.118 24.6823C25.7819 24.6151 25.5165 24.5362 25.3374 24.4515C25.2477 24.4091 25.185 24.3676 25.1461 24.3296C25.1074 24.2918 25.1 24.2654 25.1 24.25V0.1Z" fill="url(#paint11_linear_1174_300)" stroke="black" stroke-width="0.2"/>
<path d="M0.1 0.1H24.9V24.25C24.9 24.2654 24.8926 24.2918 24.8539 24.3296C24.815 24.3676 24.7523 24.4091 24.6626 24.4515C24.4835 24.5362 24.2181 24.6151 23.882 24.6823C23.2116 24.8164 22.281 24.9 21.25 24.9H3.75C2.719 24.9 1.78838 24.8164 1.11796 24.6823C0.781929 24.6151 0.516476 24.5362 0.337441 24.4515C0.247669 24.4091 0.184964 24.3676 0.146084 24.3296C0.107371 24.2918 0.1 24.2654 0.1 24.25V0.1Z" fill="url(#paint12_linear_1174_300)" stroke="black" stroke-width="0.2"/>
<path d="M12.3097 8.72727V16H11.429V9.65057H11.3864L9.6108 10.8295V9.93466L11.429 8.72727H12.3097Z" fill="black"/>
<path d="M33.7528 16V15.3608L36.1534 12.733C36.4351 12.4252 36.6671 12.1577 36.8494 11.9304C37.0317 11.7008 37.1667 11.4853 37.2543 11.2841C37.3442 11.0805 37.3892 10.8674 37.3892 10.6449C37.3892 10.3892 37.3277 10.1679 37.2045 9.98082C37.0838 9.7938 36.9181 9.64938 36.7074 9.54759C36.4967 9.44579 36.2599 9.39489 35.9972 9.39489C35.7178 9.39489 35.474 9.45289 35.2656 9.56889C35.0597 9.68253 34.8999 9.84233 34.7862 10.0483C34.675 10.2543 34.6193 10.4957 34.6193 10.7727H33.7812C33.7812 10.3466 33.8795 9.97254 34.076 9.65057C34.2725 9.3286 34.54 9.07765 34.8786 8.89773C35.2195 8.7178 35.6018 8.62784 36.0256 8.62784C36.4517 8.62784 36.8293 8.7178 37.1584 8.89773C37.4875 9.07765 37.7455 9.32031 37.9325 9.62571C38.1196 9.93111 38.2131 10.2708 38.2131 10.6449C38.2131 10.9124 38.1645 11.174 38.0675 11.4297C37.9728 11.683 37.8071 11.9659 37.5703 12.2784C37.3359 12.5885 37.0104 12.9673 36.5938 13.4148L34.9602 15.1619V15.2188H38.3409V16H33.7528Z" fill="black"/>
<path d="M61.2102 16.0994C60.7415 16.0994 60.3236 16.0189 59.9567 15.858C59.5921 15.697 59.3021 15.4732 59.0866 15.1868C58.8736 14.898 58.7576 14.563 58.7386 14.1818H59.6335C59.6525 14.4162 59.733 14.6186 59.875 14.7891C60.017 14.9571 60.2029 15.0874 60.4325 15.1797C60.6622 15.272 60.9167 15.3182 61.196 15.3182C61.5085 15.3182 61.7855 15.2637 62.027 15.1548C62.2685 15.0459 62.4579 14.8944 62.5952 14.7003C62.7325 14.5062 62.8011 14.2812 62.8011 14.0256C62.8011 13.758 62.7348 13.5225 62.6023 13.3189C62.4697 13.1129 62.2756 12.9519 62.0199 12.8359C61.7642 12.7199 61.4517 12.6619 61.0824 12.6619H60.5V11.8807H61.0824C61.3712 11.8807 61.6245 11.8286 61.8423 11.7244C62.0625 11.6203 62.2341 11.4735 62.3572 11.2841C62.4827 11.0947 62.5455 10.8722 62.5455 10.6165C62.5455 10.3703 62.491 10.156 62.3821 9.97372C62.2732 9.79143 62.1193 9.64938 61.9205 9.54759C61.724 9.44579 61.492 9.39489 61.2244 9.39489C60.9735 9.39489 60.7367 9.44105 60.5142 9.53338C60.294 9.62334 60.1141 9.75473 59.9744 9.92756C59.8348 10.098 59.759 10.304 59.7472 10.5455H58.8949C58.9091 10.1643 59.0239 9.83049 59.2393 9.54403C59.4548 9.25521 59.7365 9.0303 60.0845 8.86932C60.4349 8.70833 60.8196 8.62784 61.2386 8.62784C61.6884 8.62784 62.0743 8.71899 62.3963 8.90128C62.7183 9.0812 62.9657 9.31913 63.1385 9.61506C63.3113 9.91098 63.3977 10.2306 63.3977 10.5739C63.3977 10.9834 63.29 11.3326 63.0746 11.6214C62.8615 11.9103 62.5715 12.1103 62.2045 12.2216V12.2784C62.6638 12.3542 63.0225 12.5495 63.2805 12.8643C63.5386 13.1768 63.6676 13.5639 63.6676 14.0256C63.6676 14.4209 63.5599 14.776 63.3445 15.0909C63.1314 15.4034 62.8402 15.6496 62.4709 15.8295C62.1016 16.0095 61.6813 16.0994 61.2102 16.0994Z" fill="black"/>
<path d="M83.5824 14.5085V13.7841L86.7784 8.72727H87.304V9.84943H86.9489L84.5341 13.6705V13.7273H88.8381V14.5085H83.5824ZM87.0057 16V14.2884V13.951V8.72727H87.8438V16H87.0057Z" fill="black"/>
<path d="M112.026 16.0994C111.609 16.0994 111.234 16.0166 110.9 15.8509C110.566 15.6851 110.299 15.4579 110.097 15.169C109.896 14.8802 109.786 14.5511 109.767 14.1818H110.619C110.652 14.5109 110.802 14.7831 111.067 14.9986C111.334 15.2116 111.654 15.3182 112.026 15.3182C112.324 15.3182 112.589 15.2483 112.821 15.1087C113.055 14.969 113.239 14.7772 113.371 14.5334C113.506 14.2872 113.574 14.009 113.574 13.6989C113.574 13.3816 113.504 13.0987 113.364 12.8501C113.227 12.5992 113.038 12.4015 112.796 12.2571C112.555 12.1127 112.279 12.0393 111.969 12.0369C111.746 12.0346 111.518 12.0689 111.283 12.1399C111.049 12.2086 110.856 12.2973 110.705 12.4062L109.881 12.3068L110.321 8.72727H114.099V9.50852H111.06L110.804 11.6534H110.847C110.996 11.535 111.183 11.4368 111.408 11.3587C111.633 11.2805 111.867 11.2415 112.111 11.2415C112.556 11.2415 112.952 11.348 113.3 11.5611C113.651 11.7718 113.925 12.0606 114.124 12.4276C114.326 12.7945 114.426 13.2135 114.426 13.6847C114.426 14.1487 114.322 14.563 114.114 14.9276C113.908 15.2898 113.624 15.5762 113.261 15.7869C112.899 15.9953 112.487 16.0994 112.026 16.0994Z" fill="black"/>
<path d="M137.168 16.0994C136.869 16.0947 136.571 16.0379 136.273 15.929C135.974 15.8201 135.702 15.6366 135.456 15.3786C135.21 15.1181 135.012 14.7666 134.863 14.3239C134.714 13.8788 134.639 13.3201 134.639 12.6477C134.639 12.0038 134.7 11.4332 134.82 10.9361C134.941 10.4366 135.116 10.0163 135.346 9.67543C135.576 9.33215 135.853 9.07173 136.177 8.89418C136.504 8.71662 136.872 8.62784 137.281 8.62784C137.688 8.62784 138.051 8.70952 138.368 8.87287C138.688 9.03385 138.948 9.25876 139.149 9.54759C139.35 9.83641 139.481 10.169 139.54 10.5455H138.673C138.593 10.2187 138.437 9.94768 138.205 9.73224C137.973 9.51681 137.665 9.40909 137.281 9.40909C136.718 9.40909 136.274 9.65412 135.95 10.1442C135.628 10.6342 135.465 11.322 135.463 12.2074H135.52C135.652 12.0062 135.81 11.8345 135.992 11.6925C136.177 11.5481 136.38 11.4368 136.603 11.3587C136.826 11.2805 137.061 11.2415 137.31 11.2415C137.726 11.2415 138.107 11.3456 138.453 11.554C138.799 11.7599 139.076 12.0452 139.284 12.4098C139.492 12.772 139.597 13.1875 139.597 13.6562C139.597 14.1061 139.496 14.518 139.295 14.892C139.094 15.2637 138.811 15.5597 138.446 15.7798C138.084 15.9976 137.658 16.1042 137.168 16.0994ZM137.168 15.3182C137.466 15.3182 137.733 15.2436 137.97 15.0945C138.209 14.9453 138.397 14.7453 138.535 14.4943C138.674 14.2434 138.744 13.964 138.744 13.6562C138.744 13.3556 138.677 13.0821 138.542 12.8359C138.409 12.5874 138.226 12.3897 137.991 12.2429C137.759 12.0961 137.494 12.0227 137.196 12.0227C136.971 12.0227 136.762 12.0677 136.567 12.1577C136.373 12.2453 136.203 12.366 136.056 12.5199C135.912 12.6738 135.798 12.8501 135.715 13.049C135.632 13.2455 135.591 13.4527 135.591 13.6705C135.591 13.9593 135.658 14.2292 135.793 14.4801C135.931 14.7311 136.118 14.9335 136.354 15.0874C136.594 15.2412 136.865 15.3182 137.168 15.3182Z" fill="black"/>
<path d="M159.98 16L163.233 9.56534V9.50852H159.483V8.72727H164.142V9.55114L160.903 16H159.98Z" fill="black"/>
<path d="M187.082 16.0994C186.595 16.0994 186.164 16.013 185.79 15.8402C185.418 15.665 185.128 15.4247 184.92 15.1193C184.711 14.8116 184.608 14.4612 184.611 14.0682C184.608 13.7604 184.669 13.4763 184.792 13.2159C184.915 12.9531 185.083 12.7341 185.296 12.5589C185.512 12.3814 185.752 12.2689 186.017 12.2216V12.179C185.669 12.089 185.392 11.8937 185.186 11.593C184.98 11.29 184.878 10.9455 184.881 10.5597C184.878 10.1903 184.972 9.86009 185.161 9.56889C185.351 9.2777 185.611 9.04806 185.942 8.87997C186.276 8.71188 186.656 8.62784 187.082 8.62784C187.504 8.62784 187.88 8.71188 188.212 8.87997C188.543 9.04806 188.804 9.2777 188.993 9.56889C189.185 9.86009 189.282 10.1903 189.284 10.5597C189.282 10.9455 189.176 11.29 188.968 11.593C188.762 11.8937 188.489 12.089 188.148 12.179V12.2216C188.411 12.2689 188.647 12.3814 188.858 12.5589C189.069 12.7341 189.237 12.9531 189.362 13.2159C189.488 13.4763 189.552 13.7604 189.554 14.0682C189.552 14.4612 189.445 14.8116 189.234 15.1193C189.026 15.4247 188.736 15.665 188.364 15.8402C187.995 16.013 187.568 16.0994 187.082 16.0994ZM187.082 15.3182C187.411 15.3182 187.696 15.2649 187.935 15.1584C188.174 15.0518 188.358 14.9015 188.489 14.7074C188.619 14.5133 188.685 14.286 188.688 14.0256C188.685 13.7509 188.614 13.5083 188.474 13.2976C188.335 13.0869 188.144 12.9212 187.903 12.8004C187.664 12.6797 187.39 12.6193 187.082 12.6193C186.772 12.6193 186.495 12.6797 186.251 12.8004C186.01 12.9212 185.819 13.0869 185.68 13.2976C185.542 13.5083 185.475 13.7509 185.477 14.0256C185.475 14.286 185.538 14.5133 185.665 14.7074C185.796 14.9015 185.982 15.0518 186.223 15.1584C186.464 15.2649 186.751 15.3182 187.082 15.3182ZM187.082 11.8665C187.343 11.8665 187.574 11.8144 187.775 11.7102C187.978 11.6061 188.138 11.4605 188.254 11.2734C188.37 11.0864 188.429 10.8674 188.432 10.6165C188.429 10.3703 188.371 10.156 188.258 9.97372C188.144 9.78906 187.987 9.64702 187.786 9.54759C187.584 9.44579 187.35 9.39489 187.082 9.39489C186.81 9.39489 186.572 9.44579 186.369 9.54759C186.165 9.64702 186.008 9.78906 185.896 9.97372C185.785 10.156 185.731 10.3703 185.733 10.6165C185.731 10.8674 185.786 11.0864 185.9 11.2734C186.016 11.4605 186.176 11.6061 186.379 11.7102C186.583 11.8144 186.817 11.8665 187.082 11.8665Z" fill="black"/>
<path d="M211.068 8.62784C211.366 8.63021 211.665 8.68703 211.963 8.7983C212.261 8.90956 212.534 9.09422 212.78 9.35227C213.026 9.60795 213.224 9.95715 213.373 10.3999C213.522 10.8426 213.597 11.3977 213.597 12.0653C213.597 12.7116 213.535 13.2857 213.412 13.7876C213.291 14.2872 213.116 14.7086 212.886 15.0518C212.659 15.3951 212.382 15.6555 212.055 15.8331C211.731 16.0107 211.364 16.0994 210.955 16.0994C210.547 16.0994 210.184 16.0189 209.864 15.858C209.547 15.6946 209.287 15.4685 209.083 15.1797C208.882 14.8885 208.753 14.5511 208.696 14.1676H209.562C209.641 14.5014 209.796 14.7772 210.028 14.995C210.262 15.2105 210.571 15.3182 210.955 15.3182C211.516 15.3182 211.958 15.0732 212.283 14.5831C212.609 14.093 212.773 13.4006 212.773 12.5057H212.716C212.583 12.7045 212.426 12.8762 212.244 13.0206C212.061 13.165 211.859 13.2763 211.636 13.3544C211.414 13.4325 211.177 13.4716 210.926 13.4716C210.509 13.4716 210.127 13.3686 209.779 13.1626C209.433 12.9543 209.156 12.669 208.948 12.3068C208.742 11.9422 208.639 11.5256 208.639 11.0568C208.639 10.6117 208.739 10.2045 208.938 9.83523C209.139 9.46354 209.42 9.16761 209.783 8.94744C210.147 8.72727 210.576 8.62074 211.068 8.62784ZM211.068 9.40909C210.77 9.40909 210.501 9.48366 210.262 9.63281C210.025 9.77959 209.837 9.97846 209.697 10.2294C209.56 10.478 209.491 10.7538 209.491 11.0568C209.491 11.3598 209.558 11.6357 209.69 11.8842C209.825 12.1304 210.009 12.3269 210.241 12.4737C210.475 12.6181 210.741 12.6903 211.04 12.6903C211.265 12.6903 211.474 12.6465 211.668 12.5589C211.862 12.469 212.032 12.3471 212.176 12.1932C212.323 12.0369 212.438 11.8606 212.521 11.6641C212.603 11.4652 212.645 11.258 212.645 11.0426C212.645 10.7585 212.576 10.4922 212.439 10.2436C212.304 9.99503 212.117 9.7938 211.878 9.63991C211.641 9.48603 211.371 9.40909 211.068 9.40909Z" fill="black"/>
<path d="M234.31 8.72727V16H233.429V9.65057H233.386L231.611 10.8295V9.93466L233.429 8.72727H234.31ZM238.773 16.0994C238.238 16.0994 237.783 15.9538 237.406 15.6626C237.03 15.3691 236.742 14.9441 236.543 14.3878C236.344 13.8291 236.245 13.1544 236.245 12.3636C236.245 11.5777 236.344 10.9065 236.543 10.3501C236.745 9.79143 237.033 9.36529 237.41 9.07173C237.789 8.7758 238.243 8.62784 238.773 8.62784C239.304 8.62784 239.757 8.7758 240.134 9.07173C240.512 9.36529 240.801 9.79143 241 10.3501C241.201 10.9065 241.302 11.5777 241.302 12.3636C241.302 13.1544 241.202 13.8291 241.004 14.3878C240.805 14.9441 240.517 15.3691 240.141 15.6626C239.764 15.9538 239.308 16.0994 238.773 16.0994ZM238.773 15.3182C239.304 15.3182 239.716 15.0625 240.009 14.5511C240.303 14.0398 240.45 13.3106 240.45 12.3636C240.45 11.7339 240.382 11.1977 240.247 10.755C240.115 10.3123 239.923 9.97491 239.672 9.7429C239.423 9.51089 239.124 9.39489 238.773 9.39489C238.248 9.39489 237.837 9.65412 237.541 10.1726C237.245 10.6887 237.097 11.419 237.097 12.3636C237.097 12.9934 237.164 13.5284 237.296 13.9688C237.429 14.4091 237.619 14.7441 237.868 14.9737C238.119 15.2034 238.421 15.3182 238.773 15.3182Z" fill="black"/>
<path d="M260.31 8.72727V16H259.429V9.65057H259.386L257.611 10.8295V9.93466L259.429 8.72727H260.31ZM264.958 8.72727V16H264.077V9.65057H264.035L262.259 10.8295V9.93466L264.077 8.72727H264.958Z" fill="black"/>
<path d="M284.31 8.72727V16H283.429V9.65057H283.386L281.611 10.8295V9.93466L283.429 8.72727H284.31ZM286.401 16V15.3608L288.802 12.733C289.084 12.4252 289.316 12.1577 289.498 11.9304C289.68 11.7008 289.815 11.4853 289.903 11.2841C289.993 11.0805 290.038 10.8674 290.038 10.6449C290.038 10.3892 289.976 10.1679 289.853 9.98082C289.732 9.7938 289.567 9.64938 289.356 9.54759C289.145 9.44579 288.908 9.39489 288.646 9.39489C288.366 9.39489 288.122 9.45289 287.914 9.56889C287.708 9.68253 287.548 9.84233 287.435 10.0483C287.323 10.2543 287.268 10.4957 287.268 10.7727H286.43C286.43 10.3466 286.528 9.97254 286.724 9.65057C286.921 9.3286 287.188 9.07765 287.527 8.89773C287.868 8.7178 288.25 8.62784 288.674 8.62784C289.1 8.62784 289.478 8.7178 289.807 8.89773C290.136 9.07765 290.394 9.32031 290.581 9.62571C290.768 9.93111 290.862 10.2708 290.862 10.6449C290.862 10.9124 290.813 11.174 290.716 11.4297C290.621 11.683 290.455 11.9659 290.219 12.2784C289.984 12.5885 289.659 12.9673 289.242 13.4148L287.609 15.1619V15.2188H290.989V16H286.401Z" fill="black"/>
<path d="M309.31 8.72727V16H308.429V9.65057H308.386L306.611 10.8295V9.93466L308.429 8.72727H309.31ZM313.859 16.0994C313.39 16.0994 312.972 16.0189 312.605 15.858C312.241 15.697 311.951 15.4732 311.735 15.1868C311.522 14.898 311.406 14.563 311.387 14.1818H312.282C312.301 14.4162 312.381 14.6186 312.523 14.7891C312.665 14.9571 312.851 15.0874 313.081 15.1797C313.311 15.272 313.565 15.3182 313.844 15.3182C314.157 15.3182 314.434 15.2637 314.675 15.1548C314.917 15.0459 315.106 14.8944 315.244 14.7003C315.381 14.5062 315.45 14.2812 315.45 14.0256C315.45 13.758 315.383 13.5225 315.251 13.3189C315.118 13.1129 314.924 12.9519 314.668 12.8359C314.413 12.7199 314.1 12.6619 313.731 12.6619H313.148V11.8807H313.731C314.02 11.8807 314.273 11.8286 314.491 11.7244C314.711 11.6203 314.883 11.4735 315.006 11.2841C315.131 11.0947 315.194 10.8722 315.194 10.6165C315.194 10.3703 315.139 10.156 315.031 9.97372C314.922 9.79143 314.768 9.64938 314.569 9.54759C314.372 9.44579 314.14 9.39489 313.873 9.39489C313.622 9.39489 313.385 9.44105 313.163 9.53338C312.942 9.62334 312.763 9.75473 312.623 9.92756C312.483 10.098 312.407 10.304 312.396 10.5455H311.543C311.558 10.1643 311.672 9.83049 311.888 9.54403C312.103 9.25521 312.385 9.0303 312.733 8.86932C313.083 8.70833 313.468 8.62784 313.887 8.62784C314.337 8.62784 314.723 8.71899 315.045 8.90128C315.367 9.0812 315.614 9.31913 315.787 9.61506C315.96 9.91098 316.046 10.2306 316.046 10.5739C316.046 10.9834 315.938 11.3326 315.723 11.6214C315.51 11.9103 315.22 12.1103 314.853 12.2216V12.2784C315.312 12.3542 315.671 12.5495 315.929 12.8643C316.187 13.1768 316.316 13.5639 316.316 14.0256C316.316 14.4209 316.208 14.776 315.993 15.0909C315.78 15.4034 315.489 15.6496 315.119 15.8295C314.75 16.0095 314.33 16.0994 313.859 16.0994Z" fill="black"/>
<defs>
<linearGradient id="paint0_linear_1174_300" x1="312.5" y1="0" x2="312.5" y2="25" gradientUnits="userSpaceOnUse">
<stop offset="0.255208" stop-color="#DDB078"/>
<stop offset="0.598958" stop-color="#F4D6B1"/>
</linearGradient>
<linearGradient id="paint1_linear_1174_300" x1="262.5" y1="0" x2="262.5" y2="25" gradientUnits="userSpaceOnUse">
<stop offset="0.255208" stop-color="#DDB078"/>
<stop offset="0.598958" stop-color="#F4D6B1"/>
</linearGradient>
<linearGradient id="paint2_linear_1174_300" x1="287.5" y1="0" x2="287.5" y2="25" gradientUnits="userSpaceOnUse">
<stop offset="0.255208" stop-color="#DDB078"/>
<stop offset="0.598958" stop-color="#F4D6B1"/>
</linearGradient>
<linearGradient id="paint3_linear_1174_300" x1="237.5" y1="0" x2="237.5" y2="25" gradientUnits="userSpaceOnUse">
<stop offset="0.255208" stop-color="#DDB078"/>
<stop offset="0.598958" stop-color="#F4D6B1"/>
</linearGradient>
<linearGradient id="paint4_linear_1174_300" x1="212.5" y1="0" x2="212.5" y2="25" gradientUnits="userSpaceOnUse">
<stop offset="0.255208" stop-color="#DDB078"/>
<stop offset="0.598958" stop-color="#F4D6B1"/>
</linearGradient>
<linearGradient id="paint5_linear_1174_300" x1="162.5" y1="0" x2="162.5" y2="25" gradientUnits="userSpaceOnUse">
<stop offset="0.255208" stop-color="#DDB078"/>
<stop offset="0.598958" stop-color="#F4D6B1"/>
</linearGradient>
<linearGradient id="paint6_linear_1174_300" x1="187.5" y1="0" x2="187.5" y2="25" gradientUnits="userSpaceOnUse">
<stop offset="0.255208" stop-color="#DDB078"/>
<stop offset="0.598958" stop-color="#F4D6B1"/>
</linearGradient>
<linearGradient id="paint7_linear_1174_300" x1="137.5" y1="0" x2="137.5" y2="25" gradientUnits="userSpaceOnUse">
<stop offset="0.255208" stop-color="#DDB078"/>
<stop offset="0.598958" stop-color="#F4D6B1"/>
</linearGradient>
<linearGradient id="paint8_linear_1174_300" x1="112.5" y1="0" x2="112.5" y2="25" gradientUnits="userSpaceOnUse">
<stop offset="0.255208" stop-color="#DDB078"/>
<stop offset="0.598958" stop-color="#F4D6B1"/>
</linearGradient>
<linearGradient id="paint9_linear_1174_300" x1="62.5" y1="0" x2="62.5" y2="25" gradientUnits="userSpaceOnUse">
<stop offset="0.255208" stop-color="#DDB078"/>
<stop offset="0.598958" stop-color="#F4D6B1"/>
</linearGradient>
<linearGradient id="paint10_linear_1174_300" x1="87.5" y1="0" x2="87.5" y2="25" gradientUnits="userSpaceOnUse">
<stop offset="0.255208" stop-color="#DDB078"/>
<stop offset="0.598958" stop-color="#F4D6B1"/>
</linearGradient>
<linearGradient id="paint11_linear_1174_300" x1="37.5" y1="0" x2="37.5" y2="25" gradientUnits="userSpaceOnUse">
<stop offset="0.255208" stop-color="#DDB078"/>
<stop offset="0.598958" stop-color="#F4D6B1"/>
</linearGradient>
<linearGradient id="paint12_linear_1174_300" x1="12.5" y1="0" x2="12.5" y2="25" gradientUnits="userSpaceOnUse">
<stop offset="0.255208" stop-color="#DDB078"/>
<stop offset="0.598958" stop-color="#F4D6B1"/>
</linearGradient>
</defs>
</svg>
