<svg width="325" height="25" viewBox="0 0 325 25" fill="none" xmlns="http://www.w3.org/2000/svg">
<path d="M300.1 0.1H324.9V24.25C324.9 24.2654 324.893 24.2918 324.854 24.3296C324.815 24.3676 324.752 24.4091 324.663 24.4515C324.484 24.5362 324.218 24.6151 323.882 24.6823C323.212 24.8164 322.281 24.9 321.25 24.9H303.75C302.719 24.9 301.788 24.8164 301.118 24.6823C300.782 24.6151 300.516 24.5362 300.337 24.4515C300.248 24.4091 300.185 24.3676 300.146 24.3296C300.107 24.2918 300.1 24.2654 300.1 24.25V0.1Z" fill="#D6A86F" stroke="black" stroke-width="0.2"/>
<path d="M250.1 0.1H274.9V24.25C274.9 24.2654 274.893 24.2918 274.854 24.3296C274.815 24.3676 274.752 24.4091 274.663 24.4515C274.484 24.5362 274.218 24.6151 273.882 24.6823C273.212 24.8164 272.281 24.9 271.25 24.9H253.75C252.719 24.9 251.788 24.8164 251.118 24.6823C250.782 24.6151 250.516 24.5362 250.337 24.4515C250.248 24.4091 250.185 24.3676 250.146 24.3296C250.107 24.2918 250.1 24.2654 250.1 24.25V0.1Z" fill="#D6A86F" stroke="black" stroke-width="0.2"/>
<path d="M275.1 0.1H299.9V24.25C299.9 24.2654 299.893 24.2918 299.854 24.3296C299.815 24.3676 299.752 24.4091 299.663 24.4515C299.484 24.5362 299.218 24.6151 298.882 24.6823C298.212 24.8164 297.281 24.9 296.25 24.9H278.75C277.719 24.9 276.788 24.8164 276.118 24.6823C275.782 24.6151 275.516 24.5362 275.337 24.4515C275.248 24.4091 275.185 24.3676 275.146 24.3296C275.107 24.2918 275.1 24.2654 275.1 24.25V0.1Z" fill="#D6A86F" stroke="black" stroke-width="0.2"/>
<path d="M225.1 0.1H249.9V24.25C249.9 24.2654 249.893 24.2918 249.854 24.3296C249.815 24.3676 249.752 24.4091 249.663 24.4515C249.484 24.5362 249.218 24.6151 248.882 24.6823C248.212 24.8164 247.281 24.9 246.25 24.9H228.75C227.719 24.9 226.788 24.8164 226.118 24.6823C225.782 24.6151 225.516 24.5362 225.337 24.4515C225.248 24.4091 225.185 24.3676 225.146 24.3296C225.107 24.2918 225.1 24.2654 225.1 24.25V0.1Z" fill="#D6A86F" stroke="black" stroke-width="0.2"/>
<path d="M200.1 0.1H224.9V24.25C224.9 24.2654 224.893 24.2918 224.854 24.3296C224.815 24.3676 224.752 24.4091 224.663 24.4515C224.484 24.5362 224.218 24.6151 223.882 24.6823C223.212 24.8164 222.281 24.9 221.25 24.9H203.75C202.719 24.9 201.788 24.8164 201.118 24.6823C200.782 24.6151 200.516 24.5362 200.337 24.4515C200.248 24.4091 200.185 24.3676 200.146 24.3296C200.107 24.2918 200.1 24.2654 200.1 24.25V0.1Z" fill="#D6A86F" stroke="black" stroke-width="0.2"/>
<path d="M150.1 0.1H174.9V24.25C174.9 24.2654 174.893 24.2918 174.854 24.3296C174.815 24.3676 174.752 24.4091 174.663 24.4515C174.484 24.5362 174.218 24.6151 173.882 24.6823C173.212 24.8164 172.281 24.9 171.25 24.9H153.75C152.719 24.9 151.788 24.8164 151.118 24.6823C150.782 24.6151 150.516 24.5362 150.337 24.4515C150.248 24.4091 150.185 24.3676 150.146 24.3296C150.107 24.2918 150.1 24.2654 150.1 24.25V0.1Z" fill="#D6A86F" stroke="black" stroke-width="0.2"/>
<path d="M175.1 0.1H199.9V24.25C199.9 24.2654 199.893 24.2918 199.854 24.3296C199.815 24.3676 199.752 24.4091 199.663 24.4515C199.484 24.5362 199.218 24.6151 198.882 24.6823C198.212 24.8164 197.281 24.9 196.25 24.9H178.75C177.719 24.9 176.788 24.8164 176.118 24.6823C175.782 24.6151 175.516 24.5362 175.337 24.4515C175.248 24.4091 175.185 24.3676 175.146 24.3296C175.107 24.2918 175.1 24.2654 175.1 24.25V0.1Z" fill="#D6A86F" stroke="black" stroke-width="0.2"/>
<path d="M125.1 0.1H149.9V24.25C149.9 24.2654 149.893 24.2918 149.854 24.3296C149.815 24.3676 149.752 24.4091 149.663 24.4515C149.484 24.5362 149.218 24.6151 148.882 24.6823C148.212 24.8164 147.281 24.9 146.25 24.9H128.75C127.719 24.9 126.788 24.8164 126.118 24.6823C125.782 24.6151 125.516 24.5362 125.337 24.4515C125.248 24.4091 125.185 24.3676 125.146 24.3296C125.107 24.2918 125.1 24.2654 125.1 24.25V0.1Z" fill="#D6A86F" stroke="black" stroke-width="0.2"/>
<path d="M100.1 0.1H124.9V24.25C124.9 24.2654 124.893 24.2918 124.854 24.3296C124.815 24.3676 124.752 24.4091 124.663 24.4515C124.484 24.5362 124.218 24.6151 123.882 24.6823C123.212 24.8164 122.281 24.9 121.25 24.9H103.75C102.719 24.9 101.788 24.8164 101.118 24.6823C100.782 24.6151 100.516 24.5362 100.337 24.4515C100.248 24.4091 100.185 24.3676 100.146 24.3296C100.107 24.2918 100.1 24.2654 100.1 24.25V0.1Z" fill="#D6A86F" stroke="black" stroke-width="0.2"/>
<path d="M50.1 0.1H74.9V24.25C74.9 24.2654 74.8926 24.2918 74.8539 24.3296C74.815 24.3676 74.7523 24.4091 74.6626 24.4515C74.4835 24.5362 74.2181 24.6151 73.882 24.6823C73.2116 24.8164 72.281 24.9 71.25 24.9H53.75C52.719 24.9 51.7884 24.8164 51.118 24.6823C50.7819 24.6151 50.5165 24.5362 50.3374 24.4515C50.2477 24.4091 50.185 24.3676 50.1461 24.3296C50.1074 24.2918 50.1 24.2654 50.1 24.25V0.1Z" fill="#D6A86F" stroke="black" stroke-width="0.2"/>
<path d="M75.1 0.1H99.9V24.25C99.9 24.2654 99.8926 24.2918 99.8539 24.3296C99.815 24.3676 99.7523 24.4091 99.6626 24.4515C99.4835 24.5362 99.2181 24.6151 98.882 24.6823C98.2116 24.8164 97.281 24.9 96.25 24.9H78.75C77.719 24.9 76.7884 24.8164 76.118 24.6823C75.7819 24.6151 75.5165 24.5362 75.3374 24.4515C75.2477 24.4091 75.185 24.3676 75.1461 24.3296C75.1074 24.2918 75.1 24.2654 75.1 24.25V0.1Z" fill="#D6A86F" stroke="black" stroke-width="0.2"/>
<path d="M25.1 0.1H49.9V24.25C49.9 24.2654 49.8926 24.2918 49.8539 24.3296C49.815 24.3676 49.7523 24.4091 49.6626 24.4515C49.4835 24.5362 49.2181 24.6151 48.882 24.6823C48.2116 24.8164 47.281 24.9 46.25 24.9H28.75C27.719 24.9 26.7884 24.8164 26.118 24.6823C25.7819 24.6151 25.5165 24.5362 25.3374 24.4515C25.2477 24.4091 25.185 24.3676 25.1461 24.3296C25.1074 24.2918 25.1 24.2654 25.1 24.25V0.1Z" fill="#D6A86F" stroke="black" stroke-width="0.2"/>
<path d="M0.1 0.1H24.9V24.25C24.9 24.2654 24.8926 24.2918 24.8539 24.3296C24.815 24.3676 24.7523 24.4091 24.6626 24.4515C24.4835 24.5362 24.2181 24.6151 23.882 24.6823C23.2116 24.8164 22.281 24.9 21.25 24.9H3.75C2.719 24.9 1.78838 24.8164 1.11796 24.6823C0.781929 24.6151 0.516476 24.5362 0.337441 24.4515C0.247669 24.4091 0.184964 24.3676 0.146084 24.3296C0.107371 24.2918 0.1 24.2654 0.1 24.25V0.1Z" fill="#D6A86F" stroke="black" stroke-width="0.2"/>
<path d="M10.6705 9.45455L12.2386 12.1307L13.8068 9.45455H14.9659L12.8523 12.7273L14.9659 16H13.8068L12.2386 13.4602L10.6705 16H9.51136L11.5909 12.7273L9.51136 9.45455H10.6705Z" fill="black"/>
<path d="M34.9205 18.4545V9.45455H35.892V10.4943H36.0114C36.0852 10.3807 36.1875 10.2358 36.3182 10.0597C36.4517 9.88068 36.642 9.72159 36.8892 9.58239C37.1392 9.44034 37.4773 9.36932 37.9034 9.36932C38.4545 9.36932 38.9403 9.5071 39.3608 9.78267C39.7813 10.0582 40.1094 10.4489 40.3452 10.9545C40.581 11.4602 40.6989 12.0568 40.6989 12.7443C40.6989 13.4375 40.581 14.0384 40.3452 14.5469C40.1094 15.0526 39.7827 15.4446 39.3651 15.723C38.9474 15.9986 38.4659 16.1364 37.9205 16.1364C37.5 16.1364 37.1634 16.0668 36.9105 15.9276C36.6577 15.7855 36.4631 15.625 36.3267 15.446C36.1903 15.2642 36.0852 15.1136 36.0114 14.9943H35.9261V18.4545H34.9205ZM35.9091 12.7273C35.9091 13.2216 35.9815 13.6577 36.1264 14.0355C36.2713 14.4105 36.483 14.7045 36.7614 14.9176C37.0398 15.1278 37.3807 15.233 37.7841 15.233C38.2045 15.233 38.5554 15.1222 38.8366 14.9006C39.1207 14.6761 39.3338 14.375 39.4759 13.9972C39.6207 13.6165 39.6932 13.1932 39.6932 12.7273C39.6932 12.267 39.6222 11.8523 39.4801 11.483C39.3409 11.1108 39.1293 10.8168 38.8452 10.6009C38.5639 10.3821 38.2102 10.2727 37.7841 10.2727C37.375 10.2727 37.0313 10.3764 36.7528 10.5838C36.4744 10.7884 36.2642 11.0753 36.1222 11.4446C35.9801 11.8111 35.9091 12.2386 35.9091 12.7273Z" fill="black"/>
<path d="M62.5795 16.1364C61.9886 16.1364 61.4702 15.9957 61.0241 15.7145C60.581 15.4332 60.2344 15.0398 59.9844 14.5341C59.7372 14.0284 59.6136 13.4375 59.6136 12.7614C59.6136 12.0795 59.7372 11.4844 59.9844 10.9759C60.2344 10.4673 60.581 10.0724 61.0241 9.79119C61.4702 9.50994 61.9886 9.36932 62.5795 9.36932C63.1705 9.36932 63.6875 9.50994 64.1307 9.79119C64.5767 10.0724 64.9233 10.4673 65.1705 10.9759C65.4205 11.4844 65.5455 12.0795 65.5455 12.7614C65.5455 13.4375 65.4205 14.0284 65.1705 14.5341C64.9233 15.0398 64.5767 15.4332 64.1307 15.7145C63.6875 15.9957 63.1705 16.1364 62.5795 16.1364ZM62.5795 15.233C63.0284 15.233 63.3977 15.1179 63.6875 14.8878C63.9773 14.6577 64.1918 14.3551 64.331 13.9801C64.4702 13.6051 64.5398 13.1989 64.5398 12.7614C64.5398 12.3239 64.4702 11.9162 64.331 11.5384C64.1918 11.1605 63.9773 10.8551 63.6875 10.6222C63.3977 10.3892 63.0284 10.2727 62.5795 10.2727C62.1307 10.2727 61.7614 10.3892 61.4716 10.6222C61.1818 10.8551 60.9673 11.1605 60.8281 11.5384C60.6889 11.9162 60.6193 12.3239 60.6193 12.7614C60.6193 13.1989 60.6889 13.6051 60.8281 13.9801C60.9673 14.3551 61.1818 14.6577 61.4716 14.8878C61.7614 15.1179 62.1307 15.233 62.5795 15.233Z" fill="black"/>
<path d="M87.5 14.6364L89.7841 9.45455H90.7386L87.9091 16H87.0909L84.3125 9.45455H85.25L87.5 14.6364ZM84.9261 9.45455V16H83.9205V9.45455H84.9261ZM90.0739 16V9.45455H91.0795V16H90.0739Z" fill="black"/>
<path d="M110.847 16.1534C110.432 16.1534 110.055 16.0753 109.717 15.919C109.379 15.7599 109.111 15.5312 108.912 15.233C108.713 14.9318 108.614 14.5682 108.614 14.142C108.614 13.767 108.688 13.4631 108.835 13.2301C108.983 12.9943 109.18 12.8097 109.428 12.6761C109.675 12.5426 109.947 12.4432 110.246 12.3778C110.547 12.3097 110.849 12.2557 111.153 12.2159C111.551 12.1648 111.874 12.1264 112.121 12.1009C112.371 12.0724 112.553 12.0256 112.666 11.9602C112.783 11.8949 112.841 11.7812 112.841 11.6193V11.5852C112.841 11.1648 112.726 10.8381 112.496 10.6051C112.268 10.3722 111.923 10.2557 111.46 10.2557C110.98 10.2557 110.604 10.3608 110.331 10.571C110.058 10.7812 109.866 11.0057 109.756 11.2443L108.801 10.9034C108.972 10.5057 109.199 10.196 109.483 9.97443C109.77 9.75 110.082 9.59375 110.42 9.50568C110.761 9.41477 111.097 9.36932 111.426 9.36932C111.636 9.36932 111.878 9.39489 112.151 9.44602C112.426 9.49432 112.692 9.59517 112.947 9.74858C113.206 9.90199 113.42 10.1335 113.591 10.4432C113.761 10.7528 113.847 11.1676 113.847 11.6875V16H112.841V15.1136H112.79C112.722 15.2557 112.608 15.4077 112.449 15.5696C112.29 15.7315 112.078 15.8693 111.814 15.983C111.55 16.0966 111.227 16.1534 110.847 16.1534ZM111 15.25C111.398 15.25 111.733 15.1719 112.006 15.0156C112.281 14.8594 112.489 14.6577 112.628 14.4105C112.77 14.1634 112.841 13.9034 112.841 13.6307V12.7102C112.798 12.7614 112.705 12.8082 112.56 12.8509C112.418 12.8906 112.253 12.9261 112.065 12.9574C111.881 12.9858 111.7 13.0114 111.524 13.0341C111.351 13.054 111.21 13.071 111.102 13.0852C110.841 13.1193 110.597 13.1747 110.369 13.2514C110.145 13.3253 109.963 13.4375 109.824 13.5881C109.688 13.7358 109.619 13.9375 109.619 14.1932C109.619 14.5426 109.749 14.8068 110.007 14.9858C110.268 15.1619 110.599 15.25 111 15.25Z" fill="black"/>
<path d="M134.545 10.392V9.45455H139.864V10.392H137.716V16H136.71V10.392H134.545Z" fill="black"/>
<path d="M160.926 14.517L164.08 9.45455H165.239V16H164.233V10.9375L161.097 16H159.92V9.45455H160.926V14.517Z" fill="black"/>
<path d="M189.966 9.45455V16H188.96V9.45455H189.966ZM189.574 12.5739V13.5114C189.347 13.5966 189.121 13.6719 188.896 13.7372C188.672 13.7997 188.436 13.8494 188.189 13.8864C187.942 13.9205 187.67 13.9375 187.375 13.9375C186.634 13.9375 186.038 13.7372 185.589 13.3366C185.143 12.9361 184.92 12.3352 184.92 11.5341V9.4375H185.926V11.5341C185.926 11.8693 185.99 12.1449 186.118 12.3608C186.246 12.5767 186.419 12.7372 186.638 12.8423C186.857 12.9474 187.102 13 187.375 13C187.801 13 188.186 12.9616 188.53 12.8849C188.876 12.8054 189.224 12.7017 189.574 12.5739Z" fill="black"/>
<path d="M212.665 16.1364C212.034 16.1364 211.49 15.9972 211.033 15.7188C210.578 15.4375 210.227 15.0455 209.98 14.5426C209.736 14.0369 209.614 13.4489 209.614 12.7784C209.614 12.108 209.736 11.517 209.98 11.0057C210.227 10.4915 210.571 10.0909 211.011 9.80398C211.455 9.5142 211.972 9.36932 212.562 9.36932C212.903 9.36932 213.24 9.42614 213.572 9.53977C213.905 9.65341 214.207 9.83807 214.48 10.0938C214.753 10.3466 214.97 10.6818 215.132 11.0994C215.294 11.517 215.375 12.0312 215.375 12.642V13.0682H210.33V12.1989H214.352C214.352 11.8295 214.278 11.5 214.131 11.2102C213.986 10.9205 213.778 10.6918 213.509 10.5241C213.241 10.3565 212.926 10.2727 212.562 10.2727C212.162 10.2727 211.815 10.3722 211.523 10.571C211.233 10.767 211.01 11.0227 210.854 11.3381C210.697 11.6534 210.619 11.9915 210.619 12.3523V12.9318C210.619 13.4261 210.705 13.8452 210.875 14.1889C211.048 14.5298 211.288 14.7898 211.595 14.9688C211.902 15.1449 212.259 15.233 212.665 15.233C212.929 15.233 213.168 15.196 213.381 15.1222C213.597 15.0455 213.783 14.9318 213.939 14.7812C214.095 14.6278 214.216 14.4375 214.301 14.2102L215.273 14.483C215.17 14.8125 214.999 15.1023 214.757 15.3523C214.516 15.5994 214.217 15.7926 213.862 15.9318C213.507 16.0682 213.108 16.1364 212.665 16.1364Z" fill="black"/>
<path d="M237.58 16.1364C236.966 16.1364 236.438 15.9915 235.994 15.7017C235.551 15.4119 235.21 15.0128 234.972 14.5043C234.733 13.9957 234.614 13.4148 234.614 12.7614C234.614 12.0966 234.736 11.5099 234.98 11.0014C235.227 10.4901 235.571 10.0909 236.011 9.80398C236.455 9.5142 236.972 9.36932 237.562 9.36932C238.023 9.36932 238.438 9.45455 238.807 9.625C239.176 9.79545 239.479 10.0341 239.714 10.3409C239.95 10.6477 240.097 11.0057 240.153 11.4148H239.148C239.071 11.1165 238.901 10.8523 238.636 10.6222C238.375 10.3892 238.023 10.2727 237.58 10.2727C237.188 10.2727 236.844 10.375 236.548 10.5795C236.256 10.7812 236.027 11.0668 235.862 11.4361C235.7 11.8026 235.619 12.233 235.619 12.7273C235.619 13.233 235.699 13.6733 235.858 14.0483C236.02 14.4233 236.247 14.7145 236.54 14.9219C236.835 15.1293 237.182 15.233 237.58 15.233C237.841 15.233 238.078 15.1875 238.291 15.0966C238.504 15.0057 238.685 14.875 238.832 14.7045C238.98 14.5341 239.085 14.3295 239.148 14.0909H240.153C240.097 14.4773 239.956 14.8253 239.732 15.1349C239.51 15.4418 239.216 15.6861 238.849 15.8679C238.486 16.0469 238.063 16.1364 237.58 16.1364Z" fill="black"/>
<path d="M259.92 16V9.45455H260.926V12.3011H261.591L263.943 9.45455H265.239L262.597 12.608L265.273 16H263.977L261.83 13.2386H260.926V16H259.92Z" fill="black"/>
<path d="M286.847 16.1534C286.432 16.1534 286.055 16.0753 285.717 15.919C285.379 15.7599 285.111 15.5312 284.912 15.233C284.713 14.9318 284.614 14.5682 284.614 14.142C284.614 13.767 284.688 13.4631 284.835 13.2301C284.983 12.9943 285.18 12.8097 285.428 12.6761C285.675 12.5426 285.947 12.4432 286.246 12.3778C286.547 12.3097 286.849 12.2557 287.153 12.2159C287.551 12.1648 287.874 12.1264 288.121 12.1009C288.371 12.0724 288.553 12.0256 288.666 11.9602C288.783 11.8949 288.841 11.7812 288.841 11.6193V11.5852C288.841 11.1648 288.726 10.8381 288.496 10.6051C288.268 10.3722 287.923 10.2557 287.46 10.2557C286.98 10.2557 286.604 10.3608 286.331 10.571C286.058 10.7812 285.866 11.0057 285.756 11.2443L284.801 10.9034C284.972 10.5057 285.199 10.196 285.483 9.97443C285.77 9.75 286.082 9.59375 286.42 9.50568C286.761 9.41477 287.097 9.36932 287.426 9.36932C287.636 9.36932 287.878 9.39489 288.151 9.44602C288.426 9.49432 288.692 9.59517 288.947 9.74858C289.206 9.90199 289.42 10.1335 289.591 10.4432C289.761 10.7528 289.847 11.1676 289.847 11.6875V16H288.841V15.1136H288.79C288.722 15.2557 288.608 15.4077 288.449 15.5696C288.29 15.7315 288.078 15.8693 287.814 15.983C287.55 16.0966 287.227 16.1534 286.847 16.1534ZM287 15.25C287.398 15.25 287.733 15.1719 288.006 15.0156C288.281 14.8594 288.489 14.6577 288.628 14.4105C288.77 14.1634 288.841 13.9034 288.841 13.6307V12.7102C288.798 12.7614 288.705 12.8082 288.56 12.8509C288.418 12.8906 288.253 12.9261 288.065 12.9574C287.881 12.9858 287.7 13.0114 287.524 13.0341C287.351 13.054 287.21 13.071 287.102 13.0852C286.841 13.1193 286.597 13.1747 286.369 13.2514C286.145 13.3253 285.963 13.4375 285.824 13.5881C285.688 13.7358 285.619 13.9375 285.619 14.1932C285.619 14.5426 285.749 14.8068 286.007 14.9858C286.268 15.1619 286.599 15.25 287 15.25Z" fill="black"/>
<path d="M313.858 16V10.375H312.119C311.727 10.375 311.419 10.4659 311.195 10.6477C310.97 10.8295 310.858 11.0795 310.858 11.3977C310.858 11.7102 310.959 11.956 311.161 12.1349C311.365 12.3139 311.645 12.4034 312 12.4034H314.114V13.3409H312C311.557 13.3409 311.175 13.2628 310.854 13.1065C310.533 12.9503 310.286 12.7273 310.112 12.4375C309.939 12.1449 309.852 11.7983 309.852 11.3977C309.852 10.9943 309.943 10.6477 310.125 10.358C310.307 10.0682 310.567 9.84517 310.905 9.68892C311.246 9.53267 311.651 9.45455 312.119 9.45455H314.812V16H313.858ZM309.494 16L311.352 12.7443H312.443L310.585 16H309.494Z" fill="black"/>
</svg>
