<svg width="325" height="25" viewBox="0 0 325 25" fill="none" xmlns="http://www.w3.org/2000/svg">
<path d="M300.1 0.1H324.9V24.25C324.9 24.2654 324.893 24.2918 324.854 24.3296C324.815 24.3676 324.752 24.4091 324.663 24.4515C324.484 24.5362 324.218 24.6151 323.882 24.6823C323.212 24.8164 322.281 24.9 321.25 24.9H303.75C302.719 24.9 301.788 24.8164 301.118 24.6823C300.782 24.6151 300.516 24.5362 300.337 24.4515C300.248 24.4091 300.185 24.3676 300.146 24.3296C300.107 24.2918 300.1 24.2654 300.1 24.25V0.1Z" fill="url(#paint0_linear_1174_340)" stroke="black" stroke-width="0.2"/>
<path d="M250.1 0.1H274.9V24.25C274.9 24.2654 274.893 24.2918 274.854 24.3296C274.815 24.3676 274.752 24.4091 274.663 24.4515C274.484 24.5362 274.218 24.6151 273.882 24.6823C273.212 24.8164 272.281 24.9 271.25 24.9H253.75C252.719 24.9 251.788 24.8164 251.118 24.6823C250.782 24.6151 250.516 24.5362 250.337 24.4515C250.248 24.4091 250.185 24.3676 250.146 24.3296C250.107 24.2918 250.1 24.2654 250.1 24.25V0.1Z" fill="url(#paint1_linear_1174_340)" stroke="black" stroke-width="0.2"/>
<path d="M261.98 16L265.233 9.56534V9.50852H261.483V8.72727H266.142V9.55114L262.903 16H261.98Z" fill="black"/>
<path d="M257 15.379L258.833 14.027C259.639 13.442 259.951 12.779 259.977 12.285C259.977 11.557 259.314 11.011 258.534 11.011C257.988 11.011 257.585 11.219 257.325 11.648L257.416 7.553H257V15.379ZM258.209 11.531C258.625 11.531 258.937 11.83 258.937 12.233C258.937 12.909 258.04 14.209 257.364 14.638C257.325 14.417 257.299 13.988 257.299 13.351C257.299 13 257.325 12.571 257.377 12.077C257.572 11.713 257.845 11.531 258.209 11.531Z" fill="black"/>
<path d="M275.1 0.1H299.9V24.25C299.9 24.2654 299.893 24.2918 299.854 24.3296C299.815 24.3676 299.752 24.4091 299.663 24.4515C299.484 24.5362 299.218 24.6151 298.882 24.6823C298.212 24.8164 297.281 24.9 296.25 24.9H278.75C277.719 24.9 276.788 24.8164 276.118 24.6823C275.782 24.6151 275.516 24.5362 275.337 24.4515C275.248 24.4091 275.185 24.3676 275.146 24.3296C275.107 24.2918 275.1 24.2654 275.1 24.25V0.1Z" fill="url(#paint2_linear_1174_340)" stroke="black" stroke-width="0.2"/>
<path d="M284.98 16L288.233 9.56534V9.50852H284.483V8.72727H289.142V9.55114L285.903 16H284.98Z" fill="black"/>
<path d="M312.31 8.72727V16H311.429V9.65057H311.386L309.611 10.8295V9.93466L311.429 8.72727H312.31Z" fill="black"/>
<path d="M225.1 0.1H249.9V24.25C249.9 24.2654 249.893 24.2918 249.854 24.3296C249.815 24.3676 249.752 24.4091 249.663 24.4515C249.484 24.5362 249.218 24.6151 248.882 24.6823C248.212 24.8164 247.281 24.9 246.25 24.9H228.75C227.719 24.9 226.788 24.8164 226.118 24.6823C225.782 24.6151 225.516 24.5362 225.337 24.4515C225.248 24.4091 225.185 24.3676 225.146 24.3296C225.107 24.2918 225.1 24.2654 225.1 24.25V0.1Z" fill="url(#paint3_linear_1174_340)" stroke="black" stroke-width="0.2"/>
<path d="M237.168 16.0994C236.869 16.0947 236.571 16.0379 236.273 15.929C235.974 15.8201 235.702 15.6366 235.456 15.3786C235.21 15.1181 235.012 14.7666 234.863 14.3239C234.714 13.8788 234.639 13.3201 234.639 12.6477C234.639 12.0038 234.7 11.4332 234.82 10.9361C234.941 10.4366 235.116 10.0163 235.346 9.67543C235.576 9.33215 235.853 9.07173 236.177 8.89418C236.504 8.71662 236.872 8.62784 237.281 8.62784C237.688 8.62784 238.051 8.70952 238.368 8.87287C238.688 9.03385 238.948 9.25876 239.149 9.54759C239.35 9.83641 239.481 10.169 239.54 10.5455H238.673C238.593 10.2187 238.437 9.94768 238.205 9.73224C237.973 9.51681 237.665 9.40909 237.281 9.40909C236.718 9.40909 236.274 9.65412 235.95 10.1442C235.628 10.6342 235.465 11.322 235.463 12.2074H235.52C235.652 12.0062 235.81 11.8345 235.992 11.6925C236.177 11.5481 236.38 11.4368 236.603 11.3587C236.826 11.2805 237.061 11.2415 237.31 11.2415C237.726 11.2415 238.107 11.3456 238.453 11.554C238.799 11.7599 239.076 12.0452 239.284 12.4098C239.492 12.772 239.597 13.1875 239.597 13.6562C239.597 14.1061 239.496 14.518 239.295 14.892C239.094 15.2637 238.811 15.5597 238.446 15.7798C238.084 15.9976 237.658 16.1042 237.168 16.0994ZM237.168 15.3182C237.466 15.3182 237.733 15.2436 237.97 15.0945C238.209 14.9453 238.397 14.7453 238.535 14.4943C238.674 14.2434 238.744 13.964 238.744 13.6562C238.744 13.3556 238.677 13.0821 238.542 12.8359C238.409 12.5874 238.226 12.3897 237.991 12.2429C237.759 12.0961 237.494 12.0227 237.196 12.0227C236.971 12.0227 236.762 12.0677 236.567 12.1577C236.373 12.2453 236.203 12.366 236.056 12.5199C235.912 12.6738 235.798 12.8501 235.715 13.049C235.632 13.2455 235.591 13.4527 235.591 13.6705C235.591 13.9593 235.658 14.2292 235.793 14.4801C235.931 14.7311 236.118 14.9335 236.354 15.0874C236.594 15.2412 236.865 15.3182 237.168 15.3182Z" fill="black"/>
<path d="M200.1 0.1H224.9V24.25C224.9 24.2654 224.893 24.2918 224.854 24.3296C224.815 24.3676 224.752 24.4091 224.663 24.4515C224.484 24.5362 224.218 24.6151 223.882 24.6823C223.212 24.8164 222.281 24.9 221.25 24.9H203.75C202.719 24.9 201.788 24.8164 201.118 24.6823C200.782 24.6151 200.516 24.5362 200.337 24.4515C200.248 24.4091 200.185 24.3676 200.146 24.3296C200.107 24.2918 200.1 24.2654 200.1 24.25V0.1Z" fill="url(#paint4_linear_1174_340)" stroke="black" stroke-width="0.2"/>
<path d="M214.168 16.0994C213.869 16.0947 213.571 16.0379 213.273 15.929C212.974 15.8201 212.702 15.6366 212.456 15.3786C212.21 15.1181 212.012 14.7666 211.863 14.3239C211.714 13.8788 211.639 13.3201 211.639 12.6477C211.639 12.0038 211.7 11.4332 211.82 10.9361C211.941 10.4366 212.116 10.0163 212.346 9.67543C212.576 9.33215 212.853 9.07173 213.177 8.89418C213.504 8.71662 213.872 8.62784 214.281 8.62784C214.688 8.62784 215.051 8.70952 215.368 8.87287C215.688 9.03385 215.948 9.25876 216.149 9.54759C216.35 9.83641 216.481 10.169 216.54 10.5455H215.673C215.593 10.2187 215.437 9.94768 215.205 9.73224C214.973 9.51681 214.665 9.40909 214.281 9.40909C213.718 9.40909 213.274 9.65412 212.95 10.1442C212.628 10.6342 212.465 11.322 212.463 12.2074H212.52C212.652 12.0062 212.81 11.8345 212.992 11.6925C213.177 11.5481 213.38 11.4368 213.603 11.3587C213.826 11.2805 214.061 11.2415 214.31 11.2415C214.726 11.2415 215.107 11.3456 215.453 11.554C215.799 11.7599 216.076 12.0452 216.284 12.4098C216.492 12.772 216.597 13.1875 216.597 13.6562C216.597 14.1061 216.496 14.518 216.295 14.892C216.094 15.2637 215.811 15.5597 215.446 15.7798C215.084 15.9976 214.658 16.1042 214.168 16.0994ZM214.168 15.3182C214.466 15.3182 214.733 15.2436 214.97 15.0945C215.209 14.9453 215.397 14.7453 215.535 14.4943C215.674 14.2434 215.744 13.964 215.744 13.6562C215.744 13.3556 215.677 13.0821 215.542 12.8359C215.409 12.5874 215.226 12.3897 214.991 12.2429C214.759 12.0961 214.494 12.0227 214.196 12.0227C213.971 12.0227 213.762 12.0677 213.567 12.1577C213.373 12.2453 213.203 12.366 213.056 12.5199C212.912 12.6738 212.798 12.8501 212.715 13.049C212.632 13.2455 212.591 13.4527 212.591 13.6705C212.591 13.9593 212.658 14.2292 212.793 14.4801C212.931 14.7311 213.118 14.9335 213.354 15.0874C213.594 15.2412 213.865 15.3182 214.168 15.3182Z" fill="black"/>
<path d="M207 15.379L208.833 14.027C209.639 13.442 209.951 12.779 209.977 12.285C209.977 11.557 209.314 11.011 208.534 11.011C207.988 11.011 207.585 11.219 207.325 11.648L207.416 7.553H207V15.379ZM208.209 11.531C208.625 11.531 208.937 11.83 208.937 12.233C208.937 12.909 208.04 14.209 207.364 14.638C207.325 14.417 207.299 13.988 207.299 13.351C207.299 13 207.325 12.571 207.377 12.077C207.572 11.713 207.845 11.531 208.209 11.531Z" fill="black"/>
<path d="M150.1 0.1H174.9V24.25C174.9 24.2654 174.893 24.2918 174.854 24.3296C174.815 24.3676 174.752 24.4091 174.663 24.4515C174.484 24.5362 174.218 24.6151 173.882 24.6823C173.212 24.8164 172.281 24.9 171.25 24.9H153.75C152.719 24.9 151.788 24.8164 151.118 24.6823C150.782 24.6151 150.516 24.5362 150.337 24.4515C150.248 24.4091 150.185 24.3676 150.146 24.3296C150.107 24.2918 150.1 24.2654 150.1 24.25V0.1Z" fill="url(#paint5_linear_1174_340)" stroke="black" stroke-width="0.2"/>
<path d="M170.026 20.0994C169.609 20.0994 169.234 20.0166 168.9 19.8509C168.566 19.6851 168.299 19.4579 168.097 19.169C167.896 18.8802 167.786 18.5511 167.767 18.1818H168.619C168.652 18.5109 168.802 18.7831 169.067 18.9986C169.334 19.2116 169.654 19.3182 170.026 19.3182C170.324 19.3182 170.589 19.2483 170.821 19.1087C171.055 18.969 171.239 18.7772 171.371 18.5334C171.506 18.2872 171.574 18.009 171.574 17.6989C171.574 17.3816 171.504 17.0987 171.364 16.8501C171.227 16.5992 171.038 16.4015 170.796 16.2571C170.555 16.1127 170.279 16.0393 169.969 16.0369C169.746 16.0346 169.518 16.0689 169.283 16.1399C169.049 16.2086 168.856 16.2973 168.705 16.4062L167.881 16.3068L168.321 12.7273H172.099V13.5085H169.06L168.804 15.6534H168.847C168.996 15.535 169.183 15.4368 169.408 15.3587C169.633 15.2805 169.867 15.2415 170.111 15.2415C170.556 15.2415 170.952 15.348 171.3 15.5611C171.651 15.7718 171.925 16.0606 172.124 16.4276C172.326 16.7945 172.426 17.2135 172.426 17.6847C172.426 18.1487 172.322 18.563 172.114 18.9276C171.908 19.2898 171.624 19.5762 171.261 19.7869C170.899 19.9953 170.487 20.0994 170.026 20.0994Z" fill="black"/>
<path d="M155.582 11.5085V10.7841L158.778 5.72727H159.304V6.84943H158.949L156.534 10.6705V10.7273H160.838V11.5085H155.582ZM159.006 13V11.2884V10.951V5.72727H159.844V13H159.006Z" fill="black"/>
<path d="M163 20.379L164.833 19.027C165.639 18.442 165.951 17.779 165.977 17.285C165.977 16.557 165.314 16.011 164.534 16.011C163.988 16.011 163.585 16.219 163.325 16.648L163.416 12.553H163V20.379ZM164.209 16.531C164.625 16.531 164.937 16.83 164.937 17.233C164.937 17.909 164.04 19.209 163.364 19.638C163.325 19.417 163.299 18.988 163.299 18.351C163.299 18 163.325 17.571 163.377 17.077C163.572 16.713 163.845 16.531 164.209 16.531Z" fill="black"/>
<path d="M153.249 10.91L152.001 11.326V9.077L153.249 8.661V10.91ZM153.249 5.528V7.478L152.001 7.894V5.944H151.676V7.985L151 8.206V9.389L151.676 9.168V11.417L151 11.638V12.821L151.676 12.6V14.459H152.001V12.509L153.249 12.093V14.043H153.574V12.002L154.25 11.781V10.598L153.574 10.819V8.57L154.25 8.349V7.166L153.574 7.387V5.528H153.249Z" fill="black"/>
<path d="M175.1 0.1H199.9V24.25C199.9 24.2654 199.893 24.2918 199.854 24.3296C199.815 24.3676 199.752 24.4091 199.663 24.4515C199.484 24.5362 199.218 24.6151 198.882 24.6823C198.212 24.8164 197.281 24.9 196.25 24.9H178.75C177.719 24.9 176.788 24.8164 176.118 24.6823C175.782 24.6151 175.516 24.5362 175.337 24.4515C175.248 24.4091 175.185 24.3676 175.146 24.3296C175.107 24.2918 175.1 24.2654 175.1 24.25V0.1Z" fill="url(#paint6_linear_1174_340)" stroke="black" stroke-width="0.2"/>
<path d="M187.026 16.0994C186.609 16.0994 186.234 16.0166 185.9 15.8509C185.566 15.6851 185.299 15.4579 185.097 15.169C184.896 14.8802 184.786 14.5511 184.767 14.1818H185.619C185.652 14.5109 185.802 14.7831 186.067 14.9986C186.334 15.2116 186.654 15.3182 187.026 15.3182C187.324 15.3182 187.589 15.2483 187.821 15.1087C188.055 14.969 188.239 14.7772 188.371 14.5334C188.506 14.2872 188.574 14.009 188.574 13.6989C188.574 13.3816 188.504 13.0987 188.364 12.8501C188.227 12.5992 188.038 12.4015 187.796 12.2571C187.555 12.1127 187.279 12.0393 186.969 12.0369C186.746 12.0346 186.518 12.0689 186.283 12.1399C186.049 12.2086 185.856 12.2973 185.705 12.4062L184.881 12.3068L185.321 8.72727H189.099V9.50852H186.06L185.804 11.6534H185.847C185.996 11.535 186.183 11.4368 186.408 11.3587C186.633 11.2805 186.867 11.2415 187.111 11.2415C187.556 11.2415 187.952 11.348 188.3 11.5611C188.651 11.7718 188.925 12.0606 189.124 12.4276C189.326 12.7945 189.426 13.2135 189.426 13.6847C189.426 14.1487 189.322 14.563 189.114 14.9276C188.908 15.2898 188.624 15.5762 188.261 15.7869C187.899 15.9953 187.487 16.0994 187.026 16.0994Z" fill="black"/>
<path d="M125.1 0.1H149.9V24.25C149.9 24.2654 149.893 24.2918 149.854 24.3296C149.815 24.3676 149.752 24.4091 149.663 24.4515C149.484 24.5362 149.218 24.6151 148.882 24.6823C148.212 24.8164 147.281 24.9 146.25 24.9H128.75C127.719 24.9 126.788 24.8164 126.118 24.6823C125.782 24.6151 125.516 24.5362 125.337 24.4515C125.248 24.4091 125.185 24.3676 125.146 24.3296C125.107 24.2918 125.1 24.2654 125.1 24.25V0.1Z" fill="url(#paint7_linear_1174_340)" stroke="black" stroke-width="0.2"/>
<path d="M134.582 14.5085V13.7841L137.778 8.72727H138.304V9.84943H137.949L135.534 13.6705V13.7273H139.838V14.5085H134.582ZM138.006 16V14.2884V13.951V8.72727H138.844V16H138.006Z" fill="black"/>
<path d="M100.1 0.1H124.9V24.25C124.9 24.2654 124.893 24.2918 124.854 24.3296C124.815 24.3676 124.752 24.4091 124.663 24.4515C124.484 24.5362 124.218 24.6151 123.882 24.6823C123.212 24.8164 122.281 24.9 121.25 24.9H103.75C102.719 24.9 101.788 24.8164 101.118 24.6823C100.782 24.6151 100.516 24.5362 100.337 24.4515C100.248 24.4091 100.185 24.3676 100.146 24.3296C100.107 24.2918 100.1 24.2654 100.1 24.25V0.1Z" fill="url(#paint8_linear_1174_340)" stroke="black" stroke-width="0.2"/>
<path d="M112.21 16.0994C111.741 16.0994 111.324 16.0189 110.957 15.858C110.592 15.697 110.302 15.4732 110.087 15.1868C109.874 14.898 109.758 14.563 109.739 14.1818H110.634C110.652 14.4162 110.733 14.6186 110.875 14.7891C111.017 14.9571 111.203 15.0874 111.433 15.1797C111.662 15.272 111.917 15.3182 112.196 15.3182C112.509 15.3182 112.786 15.2637 113.027 15.1548C113.268 15.0459 113.458 14.8944 113.595 14.7003C113.732 14.5062 113.801 14.2812 113.801 14.0256C113.801 13.758 113.735 13.5225 113.602 13.3189C113.47 13.1129 113.276 12.9519 113.02 12.8359C112.764 12.7199 112.452 12.6619 112.082 12.6619H111.5V11.8807H112.082C112.371 11.8807 112.625 11.8286 112.842 11.7244C113.063 11.6203 113.234 11.4735 113.357 11.2841C113.483 11.0947 113.545 10.8722 113.545 10.6165C113.545 10.3703 113.491 10.156 113.382 9.97372C113.273 9.79143 113.119 9.64938 112.92 9.54759C112.724 9.44579 112.492 9.39489 112.224 9.39489C111.973 9.39489 111.737 9.44105 111.514 9.53338C111.294 9.62334 111.114 9.75473 110.974 9.92756C110.835 10.098 110.759 10.304 110.747 10.5455H109.895C109.909 10.1643 110.024 9.83049 110.239 9.54403C110.455 9.25521 110.737 9.0303 111.085 8.86932C111.435 8.70833 111.82 8.62784 112.239 8.62784C112.688 8.62784 113.074 8.71899 113.396 8.90128C113.718 9.0812 113.966 9.31913 114.138 9.61506C114.311 9.91098 114.398 10.2306 114.398 10.5739C114.398 10.9834 114.29 11.3326 114.075 11.6214C113.862 11.9103 113.571 12.1103 113.205 12.2216V12.2784C113.664 12.3542 114.022 12.5495 114.281 12.8643C114.539 13.1768 114.668 13.5639 114.668 14.0256C114.668 14.4209 114.56 14.776 114.344 15.0909C114.131 15.4034 113.84 15.6496 113.471 15.8295C113.102 16.0095 112.681 16.0994 112.21 16.0994Z" fill="black"/>
<path d="M50.1 0.1H74.9V24.25C74.9 24.2654 74.8926 24.2918 74.8539 24.3296C74.815 24.3676 74.7523 24.4091 74.6626 24.4515C74.4835 24.5362 74.2181 24.6151 73.882 24.6823C73.2116 24.8164 72.281 24.9 71.25 24.9H53.75C52.719 24.9 51.7884 24.8164 51.118 24.6823C50.7819 24.6151 50.5165 24.5362 50.3374 24.4515C50.2477 24.4091 50.185 24.3676 50.1461 24.3296C50.1074 24.2918 50.1 24.2654 50.1 24.25V0.1Z" fill="url(#paint9_linear_1174_340)" stroke="black" stroke-width="0.2"/>
<path d="M60.7528 16V15.3608L63.1534 12.733C63.4351 12.4252 63.6671 12.1577 63.8494 11.9304C64.0317 11.7008 64.1667 11.4853 64.2543 11.2841C64.3442 11.0805 64.3892 10.8674 64.3892 10.6449C64.3892 10.3892 64.3277 10.1679 64.2045 9.98082C64.0838 9.7938 63.9181 9.64938 63.7074 9.54759C63.4967 9.44579 63.2599 9.39489 62.9972 9.39489C62.7178 9.39489 62.474 9.45289 62.2656 9.56889C62.0597 9.68253 61.8999 9.84233 61.7862 10.0483C61.675 10.2543 61.6193 10.4957 61.6193 10.7727H60.7812C60.7812 10.3466 60.8795 9.97254 61.076 9.65057C61.2725 9.3286 61.54 9.07765 61.8786 8.89773C62.2195 8.7178 62.6018 8.62784 63.0256 8.62784C63.4517 8.62784 63.8293 8.7178 64.1584 8.89773C64.4875 9.07765 64.7455 9.32031 64.9325 9.62571C65.1196 9.93111 65.2131 10.2708 65.2131 10.6449C65.2131 10.9124 65.1645 11.174 65.0675 11.4297C64.9728 11.683 64.8071 11.9659 64.5703 12.2784C64.3359 12.5885 64.0104 12.9673 63.5938 13.4148L61.9602 15.1619V15.2188H65.3409V16H60.7528Z" fill="black"/>
<path d="M75.1 0.1H99.9V24.25C99.9 24.2654 99.8926 24.2918 99.8539 24.3296C99.815 24.3676 99.7523 24.4091 99.6626 24.4515C99.4835 24.5362 99.2181 24.6151 98.882 24.6823C98.2116 24.8164 97.281 24.9 96.25 24.9H78.75C77.719 24.9 76.7884 24.8164 76.118 24.6823C75.7819 24.6151 75.5165 24.5362 75.3374 24.4515C75.2477 24.4091 75.185 24.3676 75.1461 24.3296C75.1074 24.2918 75.1 24.2654 75.1 24.25V0.1Z" fill="url(#paint10_linear_1174_340)" stroke="black" stroke-width="0.2"/>
<path d="M89.2102 16.0994C88.7415 16.0994 88.3236 16.0189 87.9567 15.858C87.5921 15.697 87.3021 15.4732 87.0866 15.1868C86.8736 14.898 86.7576 14.563 86.7386 14.1818H87.6335C87.6525 14.4162 87.733 14.6186 87.875 14.7891C88.017 14.9571 88.2029 15.0874 88.4325 15.1797C88.6622 15.272 88.9167 15.3182 89.196 15.3182C89.5085 15.3182 89.7855 15.2637 90.027 15.1548C90.2685 15.0459 90.4579 14.8944 90.5952 14.7003C90.7325 14.5062 90.8011 14.2812 90.8011 14.0256C90.8011 13.758 90.7348 13.5225 90.6023 13.3189C90.4697 13.1129 90.2756 12.9519 90.0199 12.8359C89.7642 12.7199 89.4517 12.6619 89.0824 12.6619H88.5V11.8807H89.0824C89.3712 11.8807 89.6245 11.8286 89.8423 11.7244C90.0625 11.6203 90.2341 11.4735 90.3572 11.2841C90.4827 11.0947 90.5455 10.8722 90.5455 10.6165C90.5455 10.3703 90.491 10.156 90.3821 9.97372C90.2732 9.79143 90.1193 9.64938 89.9205 9.54759C89.724 9.44579 89.492 9.39489 89.2244 9.39489C88.9735 9.39489 88.7367 9.44105 88.5142 9.53338C88.294 9.62334 88.1141 9.75473 87.9744 9.92756C87.8348 10.098 87.759 10.304 87.7472 10.5455H86.8949C86.9091 10.1643 87.0239 9.83049 87.2393 9.54403C87.4548 9.25521 87.7365 9.0303 88.0845 8.86932C88.4349 8.70833 88.8196 8.62784 89.2386 8.62784C89.6884 8.62784 90.0743 8.71899 90.3963 8.90128C90.7183 9.0812 90.9657 9.31913 91.1385 9.61506C91.3113 9.91098 91.3977 10.2306 91.3977 10.5739C91.3977 10.9834 91.29 11.3326 91.0746 11.6214C90.8615 11.9103 90.5715 12.1103 90.2045 12.2216V12.2784C90.6638 12.3542 91.0225 12.5495 91.2805 12.8643C91.5386 13.1768 91.6676 13.5639 91.6676 14.0256C91.6676 14.4209 91.5599 14.776 91.3445 15.0909C91.1314 15.4034 90.8402 15.6496 90.4709 15.8295C90.1016 16.0095 89.6813 16.0994 89.2102 16.0994Z" fill="black"/>
<path d="M82 15.379L83.833 14.027C84.639 13.442 84.951 12.779 84.977 12.285C84.977 11.557 84.314 11.011 83.534 11.011C82.988 11.011 82.585 11.219 82.325 11.648L82.416 7.553H82V15.379ZM83.209 11.531C83.625 11.531 83.937 11.83 83.937 12.233C83.937 12.909 83.04 14.209 82.364 14.638C82.325 14.417 82.299 13.988 82.299 13.351C82.299 13 82.325 12.571 82.377 12.077C82.572 11.713 82.845 11.531 83.209 11.531Z" fill="black"/>
<path d="M25.1 0.1H49.9V24.25C49.9 24.2654 49.8926 24.2918 49.8539 24.3296C49.815 24.3676 49.7523 24.4091 49.6626 24.4515C49.4835 24.5362 49.2181 24.6151 48.882 24.6823C48.2116 24.8164 47.281 24.9 46.25 24.9H28.75C27.719 24.9 26.7884 24.8164 26.118 24.6823C25.7819 24.6151 25.5165 24.5362 25.3374 24.4515C25.2477 24.4091 25.185 24.3676 25.1461 24.3296C25.1074 24.2918 25.1 24.2654 25.1 24.25V0.1Z" fill="url(#paint11_linear_1174_340)" stroke="black" stroke-width="0.2"/>
<path d="M36.7528 16V15.3608L39.1534 12.733C39.4351 12.4252 39.6671 12.1577 39.8494 11.9304C40.0317 11.7008 40.1667 11.4853 40.2543 11.2841C40.3442 11.0805 40.3892 10.8674 40.3892 10.6449C40.3892 10.3892 40.3277 10.1679 40.2045 9.98082C40.0838 9.7938 39.9181 9.64938 39.7074 9.54759C39.4967 9.44579 39.2599 9.39489 38.9972 9.39489C38.7178 9.39489 38.474 9.45289 38.2656 9.56889C38.0597 9.68253 37.8999 9.84233 37.7862 10.0483C37.675 10.2543 37.6193 10.4957 37.6193 10.7727H36.7812C36.7812 10.3466 36.8795 9.97254 37.076 9.65057C37.2725 9.3286 37.54 9.07765 37.8786 8.89773C38.2195 8.7178 38.6018 8.62784 39.0256 8.62784C39.4517 8.62784 39.8293 8.7178 40.1584 8.89773C40.4875 9.07765 40.7455 9.32031 40.9325 9.62571C41.1196 9.93111 41.2131 10.2708 41.2131 10.6449C41.2131 10.9124 41.1645 11.174 41.0675 11.4297C40.9728 11.683 40.8071 11.9659 40.5703 12.2784C40.3359 12.5885 40.0104 12.9673 39.5938 13.4148L37.9602 15.1619V15.2188H41.3409V16H36.7528Z" fill="black"/>
<path d="M32 15.379L33.833 14.027C34.639 13.442 34.951 12.779 34.977 12.285C34.977 11.557 34.314 11.011 33.534 11.011C32.988 11.011 32.585 11.219 32.325 11.648L32.416 7.553H32V15.379ZM33.209 11.531C33.625 11.531 33.937 11.83 33.937 12.233C33.937 12.909 33.04 14.209 32.364 14.638C32.325 14.417 32.299 13.988 32.299 13.351C32.299 13 32.325 12.571 32.377 12.077C32.572 11.713 32.845 11.531 33.209 11.531Z" fill="black"/>
<path d="M0.1 0.1H24.9V24.25C24.9 24.2654 24.8926 24.2918 24.8539 24.3296C24.815 24.3676 24.7523 24.4091 24.6626 24.4515C24.4835 24.5362 24.2181 24.6151 23.882 24.6823C23.2116 24.8164 22.281 24.9 21.25 24.9H3.75C2.719 24.9 1.78838 24.8164 1.11796 24.6823C0.781929 24.6151 0.516476 24.5362 0.337441 24.4515C0.247669 24.4091 0.184964 24.3676 0.146084 24.3296C0.107371 24.2918 0.1 24.2654 0.1 24.25V0.1Z" fill="url(#paint12_linear_1174_340)" stroke="black" stroke-width="0.2"/>
<path d="M13.3097 8.72727V16H12.429V9.65057H12.3864L10.6108 10.8295V9.93466L12.429 8.72727H13.3097Z" fill="black"/>
<defs>
<linearGradient id="paint0_linear_1174_340" x1="312.5" y1="0" x2="312.5" y2="25" gradientUnits="userSpaceOnUse">
<stop offset="0.255208" stop-color="#DDB078"/>
<stop offset="0.598958" stop-color="#F4D6B1"/>
</linearGradient>
<linearGradient id="paint1_linear_1174_340" x1="262.5" y1="0" x2="262.5" y2="25" gradientUnits="userSpaceOnUse">
<stop offset="0.255208" stop-color="#DDB078"/>
<stop offset="0.598958" stop-color="#F4D6B1"/>
</linearGradient>
<linearGradient id="paint2_linear_1174_340" x1="287.5" y1="0" x2="287.5" y2="25" gradientUnits="userSpaceOnUse">
<stop offset="0.255208" stop-color="#DDB078"/>
<stop offset="0.598958" stop-color="#F4D6B1"/>
</linearGradient>
<linearGradient id="paint3_linear_1174_340" x1="237.5" y1="0" x2="237.5" y2="25" gradientUnits="userSpaceOnUse">
<stop offset="0.255208" stop-color="#DDB078"/>
<stop offset="0.598958" stop-color="#F4D6B1"/>
</linearGradient>
<linearGradient id="paint4_linear_1174_340" x1="212.5" y1="0" x2="212.5" y2="25" gradientUnits="userSpaceOnUse">
<stop offset="0.255208" stop-color="#DDB078"/>
<stop offset="0.598958" stop-color="#F4D6B1"/>
</linearGradient>
<linearGradient id="paint5_linear_1174_340" x1="162.5" y1="0" x2="162.5" y2="25" gradientUnits="userSpaceOnUse">
<stop offset="0.255208" stop-color="#DDB078"/>
<stop offset="0.598958" stop-color="#F4D6B1"/>
</linearGradient>
<linearGradient id="paint6_linear_1174_340" x1="187.5" y1="0" x2="187.5" y2="25" gradientUnits="userSpaceOnUse">
<stop offset="0.255208" stop-color="#DDB078"/>
<stop offset="0.598958" stop-color="#F4D6B1"/>
</linearGradient>
<linearGradient id="paint7_linear_1174_340" x1="137.5" y1="0" x2="137.5" y2="25" gradientUnits="userSpaceOnUse">
<stop offset="0.255208" stop-color="#DDB078"/>
<stop offset="0.598958" stop-color="#F4D6B1"/>
</linearGradient>
<linearGradient id="paint8_linear_1174_340" x1="112.5" y1="0" x2="112.5" y2="25" gradientUnits="userSpaceOnUse">
<stop offset="0.255208" stop-color="#DDB078"/>
<stop offset="0.598958" stop-color="#F4D6B1"/>
</linearGradient>
<linearGradient id="paint9_linear_1174_340" x1="62.5" y1="0" x2="62.5" y2="25" gradientUnits="userSpaceOnUse">
<stop offset="0.255208" stop-color="#DDB078"/>
<stop offset="0.598958" stop-color="#F4D6B1"/>
</linearGradient>
<linearGradient id="paint10_linear_1174_340" x1="87.5" y1="0" x2="87.5" y2="25" gradientUnits="userSpaceOnUse">
<stop offset="0.255208" stop-color="#DDB078"/>
<stop offset="0.598958" stop-color="#F4D6B1"/>
</linearGradient>
<linearGradient id="paint11_linear_1174_340" x1="37.5" y1="0" x2="37.5" y2="25" gradientUnits="userSpaceOnUse">
<stop offset="0.255208" stop-color="#DDB078"/>
<stop offset="0.598958" stop-color="#F4D6B1"/>
</linearGradient>
<linearGradient id="paint12_linear_1174_340" x1="12.5" y1="0" x2="12.5" y2="25" gradientUnits="userSpaceOnUse">
<stop offset="0.255208" stop-color="#DDB078"/>
<stop offset="0.598958" stop-color="#F4D6B1"/>
</linearGradient>
</defs>
</svg>
