<svg width="325" height="25" viewBox="0 0 325 25" fill="none" xmlns="http://www.w3.org/2000/svg">
<path d="M300.1 0.1H324.9V24.25C324.9 24.2654 324.893 24.2918 324.854 24.3296C324.815 24.3676 324.752 24.4091 324.663 24.4515C324.484 24.5362 324.218 24.6151 323.882 24.6823C323.212 24.8164 322.281 24.9 321.25 24.9H303.75C302.719 24.9 301.788 24.8164 301.118 24.6823C300.782 24.6151 300.516 24.5362 300.337 24.4515C300.248 24.4091 300.185 24.3676 300.146 24.3296C300.107 24.2918 300.1 24.2654 300.1 24.25V0.1Z" fill="#D6A86F" stroke="black" stroke-width="0.2"/>
<path d="M250.1 0.1H274.9V24.25C274.9 24.2654 274.893 24.2918 274.854 24.3296C274.815 24.3676 274.752 24.4091 274.663 24.4515C274.484 24.5362 274.218 24.6151 273.882 24.6823C273.212 24.8164 272.281 24.9 271.25 24.9H253.75C252.719 24.9 251.788 24.8164 251.118 24.6823C250.782 24.6151 250.516 24.5362 250.337 24.4515C250.248 24.4091 250.185 24.3676 250.146 24.3296C250.107 24.2918 250.1 24.2654 250.1 24.25V0.1Z" fill="#D6A86F" stroke="black" stroke-width="0.2"/>
<path d="M275.1 0.1H299.9V24.25C299.9 24.2654 299.893 24.2918 299.854 24.3296C299.815 24.3676 299.752 24.4091 299.663 24.4515C299.484 24.5362 299.218 24.6151 298.882 24.6823C298.212 24.8164 297.281 24.9 296.25 24.9H278.75C277.719 24.9 276.788 24.8164 276.118 24.6823C275.782 24.6151 275.516 24.5362 275.337 24.4515C275.248 24.4091 275.185 24.3676 275.146 24.3296C275.107 24.2918 275.1 24.2654 275.1 24.25V0.1Z" fill="#D6A86F" stroke="black" stroke-width="0.2"/>
<path d="M225.1 0.1H249.9V24.25C249.9 24.2654 249.893 24.2918 249.854 24.3296C249.815 24.3676 249.752 24.4091 249.663 24.4515C249.484 24.5362 249.218 24.6151 248.882 24.6823C248.212 24.8164 247.281 24.9 246.25 24.9H228.75C227.719 24.9 226.788 24.8164 226.118 24.6823C225.782 24.6151 225.516 24.5362 225.337 24.4515C225.248 24.4091 225.185 24.3676 225.146 24.3296C225.107 24.2918 225.1 24.2654 225.1 24.25V0.1Z" fill="#D6A86F" stroke="black" stroke-width="0.2"/>
<path d="M200.1 0.1H224.9V24.25C224.9 24.2654 224.893 24.2918 224.854 24.3296C224.815 24.3676 224.752 24.4091 224.663 24.4515C224.484 24.5362 224.218 24.6151 223.882 24.6823C223.212 24.8164 222.281 24.9 221.25 24.9H203.75C202.719 24.9 201.788 24.8164 201.118 24.6823C200.782 24.6151 200.516 24.5362 200.337 24.4515C200.248 24.4091 200.185 24.3676 200.146 24.3296C200.107 24.2918 200.1 24.2654 200.1 24.25V0.1Z" fill="#D6A86F" stroke="black" stroke-width="0.2"/>
<path d="M150.1 0.1H174.9V24.25C174.9 24.2654 174.893 24.2918 174.854 24.3296C174.815 24.3676 174.752 24.4091 174.663 24.4515C174.484 24.5362 174.218 24.6151 173.882 24.6823C173.212 24.8164 172.281 24.9 171.25 24.9H153.75C152.719 24.9 151.788 24.8164 151.118 24.6823C150.782 24.6151 150.516 24.5362 150.337 24.4515C150.248 24.4091 150.185 24.3676 150.146 24.3296C150.107 24.2918 150.1 24.2654 150.1 24.25V0.1Z" fill="#D6A86F" stroke="black" stroke-width="0.2"/>
<path d="M175.1 0.1H199.9V24.25C199.9 24.2654 199.893 24.2918 199.854 24.3296C199.815 24.3676 199.752 24.4091 199.663 24.4515C199.484 24.5362 199.218 24.6151 198.882 24.6823C198.212 24.8164 197.281 24.9 196.25 24.9H178.75C177.719 24.9 176.788 24.8164 176.118 24.6823C175.782 24.6151 175.516 24.5362 175.337 24.4515C175.248 24.4091 175.185 24.3676 175.146 24.3296C175.107 24.2918 175.1 24.2654 175.1 24.25V0.1Z" fill="#D6A86F" stroke="black" stroke-width="0.2"/>
<path d="M125.1 0.1H149.9V24.25C149.9 24.2654 149.893 24.2918 149.854 24.3296C149.815 24.3676 149.752 24.4091 149.663 24.4515C149.484 24.5362 149.218 24.6151 148.882 24.6823C148.212 24.8164 147.281 24.9 146.25 24.9H128.75C127.719 24.9 126.788 24.8164 126.118 24.6823C125.782 24.6151 125.516 24.5362 125.337 24.4515C125.248 24.4091 125.185 24.3676 125.146 24.3296C125.107 24.2918 125.1 24.2654 125.1 24.25V0.1Z" fill="#D6A86F" stroke="black" stroke-width="0.2"/>
<path d="M100.1 0.1H124.9V24.25C124.9 24.2654 124.893 24.2918 124.854 24.3296C124.815 24.3676 124.752 24.4091 124.663 24.4515C124.484 24.5362 124.218 24.6151 123.882 24.6823C123.212 24.8164 122.281 24.9 121.25 24.9H103.75C102.719 24.9 101.788 24.8164 101.118 24.6823C100.782 24.6151 100.516 24.5362 100.337 24.4515C100.248 24.4091 100.185 24.3676 100.146 24.3296C100.107 24.2918 100.1 24.2654 100.1 24.25V0.1Z" fill="#D6A86F" stroke="black" stroke-width="0.2"/>
<path d="M50.1 0.1H74.9V24.25C74.9 24.2654 74.8926 24.2918 74.8539 24.3296C74.815 24.3676 74.7523 24.4091 74.6626 24.4515C74.4835 24.5362 74.2181 24.6151 73.882 24.6823C73.2116 24.8164 72.281 24.9 71.25 24.9H53.75C52.719 24.9 51.7884 24.8164 51.118 24.6823C50.7819 24.6151 50.5165 24.5362 50.3374 24.4515C50.2477 24.4091 50.185 24.3676 50.1461 24.3296C50.1074 24.2918 50.1 24.2654 50.1 24.25V0.1Z" fill="#D6A86F" stroke="black" stroke-width="0.2"/>
<path d="M75.1 0.1H99.9V24.25C99.9 24.2654 99.8926 24.2918 99.8539 24.3296C99.815 24.3676 99.7523 24.4091 99.6626 24.4515C99.4835 24.5362 99.2181 24.6151 98.882 24.6823C98.2116 24.8164 97.281 24.9 96.25 24.9H78.75C77.719 24.9 76.7884 24.8164 76.118 24.6823C75.7819 24.6151 75.5165 24.5362 75.3374 24.4515C75.2477 24.4091 75.185 24.3676 75.1461 24.3296C75.1074 24.2918 75.1 24.2654 75.1 24.25V0.1Z" fill="#D6A86F" stroke="black" stroke-width="0.2"/>
<path d="M25.1 0.1H49.9V24.25C49.9 24.2654 49.8926 24.2918 49.8539 24.3296C49.815 24.3676 49.7523 24.4091 49.6626 24.4515C49.4835 24.5362 49.2181 24.6151 48.882 24.6823C48.2116 24.8164 47.281 24.9 46.25 24.9H28.75C27.719 24.9 26.7884 24.8164 26.118 24.6823C25.7819 24.6151 25.5165 24.5362 25.3374 24.4515C25.2477 24.4091 25.185 24.3676 25.1461 24.3296C25.1074 24.2918 25.1 24.2654 25.1 24.25V0.1Z" fill="#D6A86F" stroke="black" stroke-width="0.2"/>
<path d="M0.1 0.1H24.9V24.25C24.9 24.2654 24.8926 24.2918 24.8539 24.3296C24.815 24.3676 24.7523 24.4091 24.6626 24.4515C24.4835 24.5362 24.2181 24.6151 23.882 24.6823C23.2116 24.8164 22.281 24.9 21.25 24.9H3.75C2.719 24.9 1.78838 24.8164 1.11796 24.6823C0.781929 24.6151 0.516476 24.5362 0.337441 24.4515C0.247669 24.4091 0.184964 24.3676 0.146084 24.3296C0.107371 24.2918 0.1 24.2654 0.1 24.25V0.1Z" fill="#D6A86F" stroke="black" stroke-width="0.2"/>
<path d="M12.9716 8.27273V17H11.9148V9.38068H11.8636L9.73295 10.7955V9.72159L11.9148 8.27273H12.9716Z" fill="black"/>
<path d="M33.9034 17V16.233L36.7841 13.0795C37.1222 12.7102 37.4006 12.3892 37.6193 12.1165C37.8381 11.8409 38 11.5824 38.1051 11.3409C38.2131 11.0966 38.267 10.8409 38.267 10.5739C38.267 10.267 38.1932 10.0014 38.0455 9.77699C37.9006 9.55256 37.7017 9.37926 37.4489 9.2571C37.196 9.13494 36.9119 9.07386 36.5966 9.07386C36.2614 9.07386 35.9688 9.14347 35.7188 9.28267C35.4716 9.41903 35.2798 9.6108 35.1435 9.85795C35.0099 10.1051 34.9432 10.3949 34.9432 10.7273H33.9375C33.9375 10.2159 34.0554 9.76705 34.2912 9.38068C34.527 8.99432 34.848 8.69318 35.2543 8.47727C35.6634 8.26136 36.1222 8.15341 36.6307 8.15341C37.142 8.15341 37.5952 8.26136 37.9901 8.47727C38.3849 8.69318 38.6946 8.98437 38.919 9.35085C39.1435 9.71733 39.2557 10.125 39.2557 10.5739C39.2557 10.8949 39.1974 11.2088 39.081 11.5156C38.9673 11.8196 38.7685 12.1591 38.4844 12.5341C38.2031 12.9062 37.8125 13.3608 37.3125 13.8977L35.3523 15.9943V16.0625H39.4091V17H33.9034Z" fill="black"/>
<path d="M61.8523 17.1193C61.2898 17.1193 60.7884 17.0227 60.348 16.8295C59.9105 16.6364 59.5625 16.3679 59.304 16.0241C59.0483 15.6776 58.9091 15.2756 58.8864 14.8182H59.9602C59.983 15.0994 60.0795 15.3423 60.25 15.5469C60.4205 15.7486 60.6435 15.9048 60.919 16.0156C61.1946 16.1264 61.5 16.1818 61.8352 16.1818C62.2102 16.1818 62.5426 16.1165 62.8324 15.9858C63.1222 15.8551 63.3494 15.6733 63.5142 15.4403C63.679 15.2074 63.7614 14.9375 63.7614 14.6307C63.7614 14.3097 63.6818 14.027 63.5227 13.7827C63.3636 13.5355 63.1307 13.3423 62.8239 13.2031C62.517 13.0639 62.142 12.9943 61.6989 12.9943H61V12.0568H61.6989C62.0455 12.0568 62.3494 11.9943 62.6108 11.8693C62.875 11.7443 63.081 11.5682 63.2287 11.3409C63.3793 11.1136 63.4545 10.8466 63.4545 10.5398C63.4545 10.2443 63.3892 9.98722 63.2585 9.76847C63.1278 9.54972 62.9432 9.37926 62.7045 9.2571C62.4688 9.13494 62.1903 9.07386 61.8693 9.07386C61.5682 9.07386 61.2841 9.12926 61.017 9.24006C60.7528 9.34801 60.5369 9.50568 60.3693 9.71307C60.2017 9.91761 60.1108 10.1648 60.0966 10.4545H59.0739C59.0909 9.99716 59.2287 9.59659 59.4872 9.25284C59.7457 8.90625 60.0838 8.63636 60.5014 8.44318C60.9219 8.25 61.3835 8.15341 61.8864 8.15341C62.4261 8.15341 62.8892 8.26278 63.2756 8.48153C63.6619 8.69744 63.9588 8.98295 64.1662 9.33807C64.3736 9.69318 64.4773 10.0767 64.4773 10.4886C64.4773 10.9801 64.348 11.3991 64.0895 11.7457C63.8338 12.0923 63.4858 12.3324 63.0455 12.4659V12.5341C63.5966 12.625 64.027 12.8594 64.3366 13.2372C64.6463 13.6122 64.8011 14.0767 64.8011 14.6307C64.8011 15.1051 64.6719 15.5312 64.4134 15.9091C64.1577 16.2841 63.8082 16.5795 63.3651 16.7955C62.9219 17.0114 62.4176 17.1193 61.8523 17.1193Z" fill="black"/>
<path d="M83.6989 15.2102V14.3409L87.5341 8.27273H88.1648V9.61932H87.7386L84.8409 14.2045V14.2727H90.0057V15.2102H83.6989ZM87.8068 17V14.946V14.5412V8.27273H88.8125V17H87.8068Z" fill="black"/>
<path d="M112.631 17.1193C112.131 17.1193 111.68 17.0199 111.28 16.821C110.879 16.6222 110.558 16.3494 110.317 16.0028C110.075 15.6562 109.943 15.2614 109.92 14.8182H110.943C110.983 15.2131 111.162 15.5398 111.48 15.7983C111.801 16.054 112.185 16.1818 112.631 16.1818C112.989 16.1818 113.307 16.098 113.585 15.9304C113.866 15.7628 114.087 15.5327 114.246 15.2401C114.408 14.9446 114.489 14.6108 114.489 14.2386C114.489 13.858 114.405 13.5185 114.237 13.2202C114.072 12.919 113.845 12.6818 113.555 12.5085C113.266 12.3352 112.935 12.2472 112.562 12.2443C112.295 12.2415 112.021 12.2827 111.74 12.3679C111.459 12.4503 111.227 12.5568 111.045 12.6875L110.057 12.5682L110.585 8.27273H115.119V9.21023H111.472L111.165 11.7841H111.216C111.395 11.642 111.619 11.5241 111.889 11.4304C112.159 11.3366 112.44 11.2898 112.733 11.2898C113.267 11.2898 113.743 11.4176 114.161 11.6733C114.581 11.9261 114.911 12.2727 115.149 12.7131C115.391 13.1534 115.511 13.6562 115.511 14.2216C115.511 14.7784 115.386 15.2756 115.136 15.7131C114.889 16.1477 114.548 16.4915 114.114 16.7443C113.679 16.9943 113.185 17.1193 112.631 17.1193Z" fill="black"/>
<path d="M137.801 17.1193C137.443 17.1136 137.085 17.0455 136.727 16.9148C136.369 16.7841 136.043 16.5639 135.747 16.2543C135.452 15.9418 135.214 15.5199 135.036 14.9886C134.857 14.4545 134.767 13.7841 134.767 12.9773C134.767 12.2045 134.839 11.5199 134.984 10.9233C135.129 10.3239 135.339 9.8196 135.615 9.41051C135.891 8.99858 136.223 8.68608 136.612 8.47301C137.004 8.25994 137.446 8.15341 137.938 8.15341C138.426 8.15341 138.861 8.25142 139.241 8.44744C139.625 8.64062 139.938 8.91051 140.179 9.2571C140.42 9.60369 140.577 10.0028 140.648 10.4545H139.608C139.511 10.0625 139.324 9.73722 139.045 9.47869C138.767 9.22017 138.398 9.09091 137.938 9.09091C137.261 9.09091 136.729 9.38494 136.339 9.97301C135.953 10.5611 135.759 11.3864 135.756 12.4489H135.824C135.983 12.2074 136.172 12.0014 136.391 11.831C136.612 11.6577 136.857 11.5241 137.124 11.4304C137.391 11.3366 137.673 11.2898 137.972 11.2898C138.472 11.2898 138.929 11.4148 139.344 11.6648C139.759 11.9119 140.091 12.2543 140.341 12.6918C140.591 13.1264 140.716 13.625 140.716 14.1875C140.716 14.7273 140.595 15.2216 140.354 15.6705C140.112 16.1165 139.773 16.4716 139.335 16.7358C138.901 16.9972 138.389 17.125 137.801 17.1193ZM137.801 16.1818C138.159 16.1818 138.48 16.0923 138.764 15.9134C139.051 15.7344 139.277 15.4943 139.442 15.1932C139.609 14.892 139.693 14.5568 139.693 14.1875C139.693 13.8267 139.612 13.4986 139.45 13.2031C139.291 12.9048 139.071 12.6676 138.79 12.4915C138.511 12.3153 138.193 12.2273 137.835 12.2273C137.565 12.2273 137.314 12.2812 137.081 12.3892C136.848 12.4943 136.643 12.6392 136.467 12.8239C136.294 13.0085 136.158 13.2202 136.058 13.4588C135.959 13.6946 135.909 13.9432 135.909 14.2045C135.909 14.5511 135.99 14.875 136.152 15.1761C136.317 15.4773 136.541 15.7202 136.825 15.9048C137.112 16.0895 137.438 16.1818 137.801 16.1818Z" fill="black"/>
<path d="M160.176 17L164.08 9.27841V9.21023H159.58V8.27273H165.17V9.26136L161.284 17H160.176Z" fill="black"/>
<path d="M187.699 17.1193C187.114 17.1193 186.597 17.0156 186.148 16.8082C185.702 16.598 185.354 16.3097 185.104 15.9432C184.854 15.5739 184.73 15.1534 184.733 14.6818C184.73 14.3125 184.803 13.9716 184.95 13.6591C185.098 13.3437 185.3 13.081 185.555 12.8707C185.814 12.6577 186.102 12.5227 186.42 12.4659V12.4148C186.003 12.3068 185.67 12.0724 185.423 11.7116C185.176 11.348 185.054 10.9347 185.057 10.4716C185.054 10.0284 185.166 9.6321 185.393 9.28267C185.621 8.93324 185.933 8.65767 186.331 8.45597C186.732 8.25426 187.188 8.15341 187.699 8.15341C188.205 8.15341 188.656 8.25426 189.054 8.45597C189.452 8.65767 189.764 8.93324 189.991 9.28267C190.222 9.6321 190.338 10.0284 190.341 10.4716C190.338 10.9347 190.212 11.348 189.962 11.7116C189.714 12.0724 189.386 12.3068 188.977 12.4148V12.4659C189.293 12.5227 189.577 12.6577 189.83 12.8707C190.082 13.081 190.284 13.3437 190.435 13.6591C190.585 13.9716 190.662 14.3125 190.665 14.6818C190.662 15.1534 190.534 15.5739 190.281 15.9432C190.031 16.3097 189.683 16.598 189.237 16.8082C188.794 17.0156 188.281 17.1193 187.699 17.1193ZM187.699 16.1818C188.094 16.1818 188.435 16.1179 188.722 15.9901C189.009 15.8622 189.23 15.6818 189.386 15.4489C189.543 15.2159 189.622 14.9432 189.625 14.6307C189.622 14.3011 189.537 14.0099 189.369 13.7571C189.202 13.5043 188.973 13.3054 188.683 13.1605C188.396 13.0156 188.068 12.9432 187.699 12.9432C187.327 12.9432 186.994 13.0156 186.702 13.1605C186.412 13.3054 186.183 13.5043 186.016 13.7571C185.851 14.0099 185.77 14.3011 185.773 14.6307C185.77 14.9432 185.845 15.2159 185.999 15.4489C186.155 15.6818 186.378 15.8622 186.668 15.9901C186.957 16.1179 187.301 16.1818 187.699 16.1818ZM187.699 12.0398C188.011 12.0398 188.288 11.9773 188.53 11.8523C188.774 11.7273 188.966 11.5526 189.105 11.3281C189.244 11.1037 189.315 10.8409 189.318 10.5398C189.315 10.2443 189.246 9.98722 189.109 9.76847C188.973 9.54687 188.784 9.37642 188.543 9.2571C188.301 9.13494 188.02 9.07386 187.699 9.07386C187.372 9.07386 187.087 9.13494 186.842 9.2571C186.598 9.37642 186.409 9.54687 186.276 9.76847C186.142 9.98722 186.077 10.2443 186.08 10.5398C186.077 10.8409 186.143 11.1037 186.28 11.3281C186.419 11.5526 186.611 11.7273 186.855 11.8523C187.099 11.9773 187.381 12.0398 187.699 12.0398Z" fill="black"/>
<path d="M211.682 8.15341C212.04 8.15625 212.398 8.22443 212.756 8.35795C213.114 8.49148 213.44 8.71307 213.736 9.02273C214.031 9.32955 214.268 9.74858 214.447 10.2798C214.626 10.8111 214.716 11.4773 214.716 12.2784C214.716 13.054 214.642 13.7429 214.494 14.3452C214.349 14.9446 214.139 15.4503 213.864 15.8622C213.591 16.2741 213.259 16.5866 212.866 16.7997C212.477 17.0128 212.037 17.1193 211.545 17.1193C211.057 17.1193 210.621 17.0227 210.237 16.8295C209.857 16.6335 209.544 16.3622 209.3 16.0156C209.058 15.6662 208.903 15.2614 208.835 14.8011H209.875C209.969 15.2017 210.155 15.5327 210.433 15.794C210.714 16.0526 211.085 16.1818 211.545 16.1818C212.219 16.1818 212.75 15.8878 213.139 15.2997C213.531 14.7116 213.727 13.8807 213.727 12.8068H213.659C213.5 13.0455 213.311 13.2514 213.092 13.4247C212.874 13.598 212.631 13.7315 212.364 13.8253C212.097 13.919 211.813 13.9659 211.511 13.9659C211.011 13.9659 210.553 13.8423 210.135 13.5952C209.72 13.3452 209.388 13.0028 209.138 12.5682C208.891 12.1307 208.767 11.6307 208.767 11.0682C208.767 10.5341 208.886 10.0455 209.125 9.60227C209.366 9.15625 209.705 8.80114 210.139 8.53693C210.577 8.27273 211.091 8.14489 211.682 8.15341ZM211.682 9.09091C211.324 9.09091 211.001 9.1804 210.714 9.35938C210.43 9.53551 210.205 9.77415 210.037 10.0753C209.872 10.3736 209.79 10.7045 209.79 11.0682C209.79 11.4318 209.869 11.7628 210.028 12.0611C210.19 12.3565 210.411 12.5923 210.689 12.7685C210.97 12.9418 211.29 13.0284 211.648 13.0284C211.918 13.0284 212.169 12.9759 212.402 12.8707C212.635 12.7628 212.838 12.6165 213.011 12.4318C213.188 12.2443 213.325 12.0327 213.425 11.7969C213.524 11.5582 213.574 11.3097 213.574 11.0511C213.574 10.7102 213.491 10.3906 213.327 10.0923C213.165 9.79403 212.94 9.55256 212.653 9.3679C212.369 9.18324 212.045 9.09091 211.682 9.09091Z" fill="black"/>
<path d="M234.972 8.27273V17H233.915V9.38068H233.864L231.733 10.7955V9.72159L233.915 8.27273H234.972ZM240.328 17.1193C239.686 17.1193 239.139 16.9446 238.688 16.5952C238.236 16.2429 237.891 15.733 237.652 15.0653C237.413 14.3949 237.294 13.5852 237.294 12.6364C237.294 11.6932 237.413 10.8878 237.652 10.2202C237.893 9.54972 238.24 9.03835 238.692 8.68608C239.146 8.33097 239.692 8.15341 240.328 8.15341C240.964 8.15341 241.509 8.33097 241.96 8.68608C242.415 9.03835 242.761 9.54972 243 10.2202C243.241 10.8878 243.362 11.6932 243.362 12.6364C243.362 13.5852 243.243 14.3949 243.004 15.0653C242.766 15.733 242.42 16.2429 241.969 16.5952C241.517 16.9446 240.97 17.1193 240.328 17.1193ZM240.328 16.1818C240.964 16.1818 241.459 15.875 241.811 15.2614C242.163 14.6477 242.339 13.7727 242.339 12.6364C242.339 11.8807 242.259 11.2372 242.097 10.706C241.938 10.1747 241.707 9.76989 241.406 9.49148C241.108 9.21307 240.749 9.07386 240.328 9.07386C239.697 9.07386 239.205 9.38494 238.849 10.0071C238.494 10.6264 238.317 11.5028 238.317 12.6364C238.317 13.392 238.396 14.0341 238.555 14.5625C238.714 15.0909 238.943 15.4929 239.241 15.7685C239.543 16.044 239.905 16.1818 240.328 16.1818Z" fill="black"/>
<path d="M260.972 8.27273V17H259.915V9.38068H259.864L257.733 10.7955V9.72159L259.915 8.27273H260.972ZM266.55 8.27273V17H265.493V9.38068H265.442L263.311 10.7955V9.72159L265.493 8.27273H266.55Z" fill="black"/>
<path d="M284.972 8.27273V17H283.915V9.38068H283.864L281.733 10.7955V9.72159L283.915 8.27273H284.972ZM287.482 17V16.233L290.362 13.0795C290.7 12.7102 290.979 12.3892 291.197 12.1165C291.416 11.8409 291.578 11.5824 291.683 11.3409C291.791 11.0966 291.845 10.8409 291.845 10.5739C291.845 10.267 291.771 10.0014 291.624 9.77699C291.479 9.55256 291.28 9.37926 291.027 9.2571C290.774 9.13494 290.49 9.07386 290.175 9.07386C289.839 9.07386 289.547 9.14347 289.297 9.28267C289.05 9.41903 288.858 9.6108 288.722 9.85795C288.588 10.1051 288.521 10.3949 288.521 10.7273H287.516C287.516 10.2159 287.634 9.76705 287.869 9.38068C288.105 8.99432 288.426 8.69318 288.832 8.47727C289.241 8.26136 289.7 8.15341 290.209 8.15341C290.72 8.15341 291.173 8.26136 291.568 8.47727C291.963 8.69318 292.273 8.98437 292.497 9.35085C292.722 9.71733 292.834 10.125 292.834 10.5739C292.834 10.8949 292.776 11.2088 292.659 11.5156C292.545 11.8196 292.347 12.1591 292.062 12.5341C291.781 12.9062 291.391 13.3608 290.891 13.8977L288.93 15.9943V16.0625H292.987V17H287.482Z" fill="black"/>
<path d="M309.972 8.27273V17H308.915V9.38068H308.864L306.733 10.7955V9.72159L308.915 8.27273H309.972ZM315.43 17.1193C314.868 17.1193 314.366 17.0227 313.926 16.8295C313.489 16.6364 313.141 16.3679 312.882 16.0241C312.626 15.6776 312.487 15.2756 312.464 14.8182H313.538C313.561 15.0994 313.658 15.3423 313.828 15.5469C313.999 15.7486 314.222 15.9048 314.497 16.0156C314.773 16.1264 315.078 16.1818 315.413 16.1818C315.788 16.1818 316.121 16.1165 316.411 15.9858C316.7 15.8551 316.928 15.6733 317.092 15.4403C317.257 15.2074 317.339 14.9375 317.339 14.6307C317.339 14.3097 317.26 14.027 317.101 13.7827C316.942 13.5355 316.709 13.3423 316.402 13.2031C316.095 13.0639 315.72 12.9943 315.277 12.9943H314.578V12.0568H315.277C315.624 12.0568 315.928 11.9943 316.189 11.8693C316.453 11.7443 316.659 11.5682 316.807 11.3409C316.957 11.1136 317.033 10.8466 317.033 10.5398C317.033 10.2443 316.967 9.98722 316.837 9.76847C316.706 9.54972 316.521 9.37926 316.283 9.2571C316.047 9.13494 315.768 9.07386 315.447 9.07386C315.146 9.07386 314.862 9.12926 314.595 9.24006C314.331 9.34801 314.115 9.50568 313.947 9.71307C313.78 9.91761 313.689 10.1648 313.675 10.4545H312.652C312.669 9.99716 312.807 9.59659 313.065 9.25284C313.324 8.90625 313.662 8.63636 314.08 8.44318C314.5 8.25 314.962 8.15341 315.464 8.15341C316.004 8.15341 316.467 8.26278 316.854 8.48153C317.24 8.69744 317.537 8.98295 317.744 9.33807C317.952 9.69318 318.055 10.0767 318.055 10.4886C318.055 10.9801 317.926 11.3991 317.668 11.7457C317.412 12.0923 317.064 12.3324 316.624 12.4659V12.5341C317.175 12.625 317.605 12.8594 317.915 13.2372C318.224 13.6122 318.379 14.0767 318.379 14.6307C318.379 15.1051 318.25 15.5312 317.991 15.9091C317.736 16.2841 317.386 16.5795 316.943 16.7955C316.5 17.0114 315.996 17.1193 315.43 17.1193Z" fill="black"/>
</svg>
