<svg width="325" height="26" viewBox="0 0 325 26" fill="none" xmlns="http://www.w3.org/2000/svg">
<path d="M300.1 0.1H324.9V24.25C324.9 24.2654 324.893 24.2918 324.854 24.3296C324.815 24.3676 324.752 24.4091 324.663 24.4515C324.484 24.5362 324.218 24.6151 323.882 24.6823C323.212 24.8164 322.281 24.9 321.25 24.9H303.75C302.719 24.9 301.788 24.8164 301.118 24.6823C300.782 24.6151 300.516 24.5362 300.337 24.4515C300.248 24.4091 300.185 24.3676 300.146 24.3296C300.107 24.2918 300.1 24.2654 300.1 24.25V0.1Z" fill="#D6A86F" stroke="black" stroke-width="0.2"/>
<path d="M250.1 0.1H274.9V24.25C274.9 24.2654 274.893 24.2918 274.854 24.3296C274.815 24.3676 274.752 24.4091 274.663 24.4515C274.484 24.5362 274.218 24.6151 273.882 24.6823C273.212 24.8164 272.281 24.9 271.25 24.9H253.75C252.719 24.9 251.788 24.8164 251.118 24.6823C250.782 24.6151 250.516 24.5362 250.337 24.4515C250.248 24.4091 250.185 24.3676 250.146 24.3296C250.107 24.2918 250.1 24.2654 250.1 24.25V0.1Z" fill="#D6A86F" stroke="black" stroke-width="0.2"/>
<path d="M275.1 0.1H299.9V24.25C299.9 24.2654 299.893 24.2918 299.854 24.3296C299.815 24.3676 299.752 24.4091 299.663 24.4515C299.484 24.5362 299.218 24.6151 298.882 24.6823C298.212 24.8164 297.281 24.9 296.25 24.9H278.75C277.719 24.9 276.788 24.8164 276.118 24.6823C275.782 24.6151 275.516 24.5362 275.337 24.4515C275.248 24.4091 275.185 24.3676 275.146 24.3296C275.107 24.2918 275.1 24.2654 275.1 24.25V0.1Z" fill="#D6A86F" stroke="black" stroke-width="0.2"/>
<path d="M225.1 0.1H249.9V24.25C249.9 24.2654 249.893 24.2918 249.854 24.3296C249.815 24.3676 249.752 24.4091 249.663 24.4515C249.484 24.5362 249.218 24.6151 248.882 24.6823C248.212 24.8164 247.281 24.9 246.25 24.9H228.75C227.719 24.9 226.788 24.8164 226.118 24.6823C225.782 24.6151 225.516 24.5362 225.337 24.4515C225.248 24.4091 225.185 24.3676 225.146 24.3296C225.107 24.2918 225.1 24.2654 225.1 24.25V0.1Z" fill="#D6A86F" stroke="black" stroke-width="0.2"/>
<path d="M200.1 0.1H224.9V24.25C224.9 24.2654 224.893 24.2918 224.854 24.3296C224.815 24.3676 224.752 24.4091 224.663 24.4515C224.484 24.5362 224.218 24.6151 223.882 24.6823C223.212 24.8164 222.281 24.9 221.25 24.9H203.75C202.719 24.9 201.788 24.8164 201.118 24.6823C200.782 24.6151 200.516 24.5362 200.337 24.4515C200.248 24.4091 200.185 24.3676 200.146 24.3296C200.107 24.2918 200.1 24.2654 200.1 24.25V0.1Z" fill="#D6A86F" stroke="black" stroke-width="0.2"/>
<path d="M150.1 0.1H174.9V24.25C174.9 24.2654 174.893 24.2918 174.854 24.3296C174.815 24.3676 174.752 24.4091 174.663 24.4515C174.484 24.5362 174.218 24.6151 173.882 24.6823C173.212 24.8164 172.281 24.9 171.25 24.9H153.75C152.719 24.9 151.788 24.8164 151.118 24.6823C150.782 24.6151 150.516 24.5362 150.337 24.4515C150.248 24.4091 150.185 24.3676 150.146 24.3296C150.107 24.2918 150.1 24.2654 150.1 24.25V0.1Z" fill="#D6A86F" stroke="black" stroke-width="0.2"/>
<path d="M175.1 0.1H199.9V24.25C199.9 24.2654 199.893 24.2918 199.854 24.3296C199.815 24.3676 199.752 24.4091 199.663 24.4515C199.484 24.5362 199.218 24.6151 198.882 24.6823C198.212 24.8164 197.281 24.9 196.25 24.9H178.75C177.719 24.9 176.788 24.8164 176.118 24.6823C175.782 24.6151 175.516 24.5362 175.337 24.4515C175.248 24.4091 175.185 24.3676 175.146 24.3296C175.107 24.2918 175.1 24.2654 175.1 24.25V0.1Z" fill="#D6A86F" stroke="black" stroke-width="0.2"/>
<path d="M125.1 0.1H149.9V24.25C149.9 24.2654 149.893 24.2918 149.854 24.3296C149.815 24.3676 149.752 24.4091 149.663 24.4515C149.484 24.5362 149.218 24.6151 148.882 24.6823C148.212 24.8164 147.281 24.9 146.25 24.9H128.75C127.719 24.9 126.788 24.8164 126.118 24.6823C125.782 24.6151 125.516 24.5362 125.337 24.4515C125.248 24.4091 125.185 24.3676 125.146 24.3296C125.107 24.2918 125.1 24.2654 125.1 24.25V0.1Z" fill="#D6A86F" stroke="black" stroke-width="0.2"/>
<path d="M100.1 0.1H124.9V24.25C124.9 24.2654 124.893 24.2918 124.854 24.3296C124.815 24.3676 124.752 24.4091 124.663 24.4515C124.484 24.5362 124.218 24.6151 123.882 24.6823C123.212 24.8164 122.281 24.9 121.25 24.9H103.75C102.719 24.9 101.788 24.8164 101.118 24.6823C100.782 24.6151 100.516 24.5362 100.337 24.4515C100.248 24.4091 100.185 24.3676 100.146 24.3296C100.107 24.2918 100.1 24.2654 100.1 24.25V0.1Z" fill="#D6A86F" stroke="black" stroke-width="0.2"/>
<path d="M50.1 0.1H74.9V24.25C74.9 24.2654 74.8926 24.2918 74.8539 24.3296C74.815 24.3676 74.7523 24.4091 74.6626 24.4515C74.4835 24.5362 74.2181 24.6151 73.882 24.6823C73.2116 24.8164 72.281 24.9 71.25 24.9H53.75C52.719 24.9 51.7884 24.8164 51.118 24.6823C50.7819 24.6151 50.5165 24.5362 50.3374 24.4515C50.2477 24.4091 50.185 24.3676 50.1461 24.3296C50.1074 24.2918 50.1 24.2654 50.1 24.25V0.1Z" fill="#D6A86F" stroke="black" stroke-width="0.2"/>
<path d="M75.1 0.1H99.9V24.25C99.9 24.2654 99.8926 24.2918 99.8539 24.3296C99.815 24.3676 99.7523 24.4091 99.6626 24.4515C99.4835 24.5362 99.2181 24.6151 98.882 24.6823C98.2116 24.8164 97.281 24.9 96.25 24.9H78.75C77.719 24.9 76.7884 24.8164 76.118 24.6823C75.7819 24.6151 75.5165 24.5362 75.3374 24.4515C75.2477 24.4091 75.185 24.3676 75.1461 24.3296C75.1074 24.2918 75.1 24.2654 75.1 24.25V0.1Z" fill="#D6A86F" stroke="black" stroke-width="0.2"/>
<path d="M25.1 0.1H49.9V24.25C49.9 24.2654 49.8926 24.2918 49.8539 24.3296C49.815 24.3676 49.7523 24.4091 49.6626 24.4515C49.4835 24.5362 49.2181 24.6151 48.882 24.6823C48.2116 24.8164 47.281 24.9 46.25 24.9H28.75C27.719 24.9 26.7884 24.8164 26.118 24.6823C25.7819 24.6151 25.5165 24.5362 25.3374 24.4515C25.2477 24.4091 25.185 24.3676 25.1461 24.3296C25.1074 24.2918 25.1 24.2654 25.1 24.25V0.1Z" fill="#D6A86F" stroke="black" stroke-width="0.2"/>
<path d="M0.1 0.1H24.9V24.25C24.9 24.2654 24.8926 24.2918 24.8539 24.3296C24.815 24.3676 24.7523 24.4091 24.6626 24.4515C24.4835 24.5362 24.2181 24.6151 23.882 24.6823C23.2116 24.8164 22.281 24.9 21.25 24.9H3.75C2.719 24.9 1.78838 24.8164 1.11796 24.6823C0.781929 24.6151 0.516476 24.5362 0.337441 24.4515C0.247669 24.4091 0.184964 24.3676 0.146084 24.3296C0.107371 24.2918 0.1 24.2654 0.1 24.25V0.1Z" fill="#D6A86F" stroke="black" stroke-width="0.2"/>
<path d="M14.9716 13.2727V22H13.9148V14.3807H13.8636L11.733 15.7955V14.7216L13.9148 13.2727H14.9716ZM17.4815 22V21.233L20.3622 18.0795C20.7003 17.7102 20.9787 17.3892 21.1974 17.1165C21.4162 16.8409 21.5781 16.5824 21.6832 16.3409C21.7912 16.0966 21.8452 15.8409 21.8452 15.5739C21.8452 15.267 21.7713 15.0014 21.6236 14.777C21.4787 14.5526 21.2798 14.3793 21.027 14.2571C20.7741 14.1349 20.4901 14.0739 20.1747 14.0739C19.8395 14.0739 19.5469 14.1435 19.2969 14.2827C19.0497 14.419 18.858 14.6108 18.7216 14.858C18.5881 15.1051 18.5213 15.3949 18.5213 15.7273H17.5156C17.5156 15.2159 17.6335 14.767 17.8693 14.3807C18.1051 13.9943 18.4261 13.6932 18.8324 13.4773C19.2415 13.2614 19.7003 13.1534 20.2088 13.1534C20.7202 13.1534 21.1733 13.2614 21.5682 13.4773C21.9631 13.6932 22.2727 13.9844 22.4972 14.3509C22.7216 14.7173 22.8338 15.125 22.8338 15.5739C22.8338 15.8949 22.7756 16.2088 22.6591 16.5156C22.5455 16.8196 22.3466 17.1591 22.0625 17.5341C21.7812 17.9062 21.3906 18.3608 20.8906 18.8977L18.9304 20.9943V21.0625H22.9872V22H17.4815Z" fill="black"/>
<path d="M4.75 12.1193C4.10795 12.1193 3.56108 11.9446 3.10938 11.5952C2.65767 11.2429 2.3125 10.733 2.07386 10.0653C1.83523 9.39489 1.71591 8.58523 1.71591 7.63636C1.71591 6.69318 1.83523 5.88778 2.07386 5.22017C2.31534 4.54972 2.66193 4.03835 3.11364 3.68608C3.56818 3.33097 4.11364 3.15341 4.75 3.15341C5.38636 3.15341 5.9304 3.33097 6.3821 3.68608C6.83665 4.03835 7.18324 4.54972 7.42188 5.22017C7.66335 5.88778 7.78409 6.69318 7.78409 7.63636C7.78409 8.58523 7.66477 9.39489 7.42614 10.0653C7.1875 10.733 6.84233 11.2429 6.39062 11.5952C5.93892 11.9446 5.39205 12.1193 4.75 12.1193ZM4.75 11.1818C5.38636 11.1818 5.88068 10.875 6.23295 10.2614C6.58523 9.64773 6.76136 8.77273 6.76136 7.63636C6.76136 6.88068 6.6804 6.23722 6.51847 5.70597C6.35938 5.17472 6.12926 4.76989 5.82812 4.49148C5.52983 4.21307 5.17045 4.07386 4.75 4.07386C4.11932 4.07386 3.62642 4.38494 3.27131 5.0071C2.91619 5.62642 2.73864 6.50284 2.73864 7.63636C2.73864 8.39205 2.81818 9.03409 2.97727 9.5625C3.13636 10.0909 3.36506 10.4929 3.66335 10.7685C3.96449 11.044 4.3267 11.1818 4.75 11.1818Z" fill="black"/>
<path d="M319.75 22.1193C319.108 22.1193 318.561 21.9446 318.109 21.5952C317.658 21.2429 317.313 20.733 317.074 20.0653C316.835 19.3949 316.716 18.5852 316.716 17.6364C316.716 16.6932 316.835 15.8878 317.074 15.2202C317.315 14.5497 317.662 14.0384 318.114 13.6861C318.568 13.331 319.114 13.1534 319.75 13.1534C320.386 13.1534 320.93 13.331 321.382 13.6861C321.837 14.0384 322.183 14.5497 322.422 15.2202C322.663 15.8878 322.784 16.6932 322.784 17.6364C322.784 18.5852 322.665 19.3949 322.426 20.0653C322.188 20.733 321.842 21.2429 321.391 21.5952C320.939 21.9446 320.392 22.1193 319.75 22.1193ZM319.75 21.1818C320.386 21.1818 320.881 20.875 321.233 20.2614C321.585 19.6477 321.761 18.7727 321.761 17.6364C321.761 16.8807 321.68 16.2372 321.518 15.706C321.359 15.1747 321.129 14.7699 320.828 14.4915C320.53 14.2131 320.17 14.0739 319.75 14.0739C319.119 14.0739 318.626 14.3849 318.271 15.0071C317.916 15.6264 317.739 16.5028 317.739 17.6364C317.739 18.392 317.818 19.0341 317.977 19.5625C318.136 20.0909 318.365 20.4929 318.663 20.7685C318.964 21.044 319.327 21.1818 319.75 21.1818Z" fill="black"/>
<path d="M304.972 3.27273V12H303.915V4.38068H303.864L301.733 5.79545V4.72159L303.915 3.27273H304.972ZM307.482 12V11.233L310.362 8.07955C310.7 7.71023 310.979 7.3892 311.197 7.11648C311.416 6.84091 311.578 6.58239 311.683 6.34091C311.791 6.09659 311.845 5.84091 311.845 5.57386C311.845 5.26705 311.771 5.00142 311.624 4.77699C311.479 4.55256 311.28 4.37926 311.027 4.2571C310.774 4.13494 310.49 4.07386 310.175 4.07386C309.839 4.07386 309.547 4.14347 309.297 4.28267C309.05 4.41903 308.858 4.6108 308.722 4.85795C308.588 5.10511 308.521 5.39489 308.521 5.72727H307.516C307.516 5.21591 307.634 4.76705 307.869 4.38068C308.105 3.99432 308.426 3.69318 308.832 3.47727C309.241 3.26136 309.7 3.15341 310.209 3.15341C310.72 3.15341 311.173 3.26136 311.568 3.47727C311.963 3.69318 312.273 3.98437 312.497 4.35085C312.722 4.71733 312.834 5.125 312.834 5.57386C312.834 5.89489 312.776 6.20881 312.659 6.51562C312.545 6.8196 312.347 7.15909 312.062 7.53409C311.781 7.90625 311.391 8.3608 310.891 8.89773L308.93 10.9943V11.0625H312.987V12H307.482Z" fill="black"/>
<path d="M154.801 12.1193C154.443 12.1136 154.085 12.0455 153.727 11.9148C153.369 11.7841 153.043 11.5639 152.747 11.2543C152.452 10.9418 152.214 10.5199 152.036 9.98864C151.857 9.45455 151.767 8.78409 151.767 7.97727C151.767 7.20455 151.839 6.51989 151.984 5.9233C152.129 5.32386 152.339 4.8196 152.615 4.41051C152.891 3.99858 153.223 3.68608 153.612 3.47301C154.004 3.25994 154.446 3.15341 154.938 3.15341C155.426 3.15341 155.861 3.25142 156.241 3.44744C156.625 3.64062 156.938 3.91051 157.179 4.2571C157.42 4.60369 157.577 5.00284 157.648 5.45455H156.608C156.511 5.0625 156.324 4.73722 156.045 4.47869C155.767 4.22017 155.398 4.09091 154.938 4.09091C154.261 4.09091 153.729 4.38494 153.339 4.97301C152.953 5.56108 152.759 6.38636 152.756 7.44886H152.824C152.983 7.20739 153.172 7.00142 153.391 6.83097C153.612 6.65767 153.857 6.52415 154.124 6.4304C154.391 6.33665 154.673 6.28977 154.972 6.28977C155.472 6.28977 155.929 6.41477 156.344 6.66477C156.759 6.91193 157.091 7.25426 157.341 7.69176C157.591 8.12642 157.716 8.625 157.716 9.1875C157.716 9.72727 157.595 10.2216 157.354 10.6705C157.112 11.1165 156.773 11.4716 156.335 11.7358C155.901 11.9972 155.389 12.125 154.801 12.1193ZM154.801 11.1818C155.159 11.1818 155.48 11.0923 155.764 10.9134C156.051 10.7344 156.277 10.4943 156.442 10.1932C156.609 9.89205 156.693 9.55682 156.693 9.1875C156.693 8.8267 156.612 8.49858 156.45 8.20312C156.291 7.90483 156.071 7.66761 155.79 7.49148C155.511 7.31534 155.193 7.22727 154.835 7.22727C154.565 7.22727 154.314 7.28125 154.081 7.3892C153.848 7.49432 153.643 7.6392 153.467 7.82386C153.294 8.00852 153.158 8.22017 153.058 8.45881C152.959 8.6946 152.909 8.94318 152.909 9.20455C152.909 9.55114 152.99 9.875 153.152 10.1761C153.317 10.4773 153.541 10.7202 153.825 10.9048C154.112 11.0895 154.438 11.1818 154.801 11.1818Z" fill="black"/>
<path d="M169.801 22.1193C169.443 22.1136 169.085 22.0455 168.727 21.9148C168.369 21.7841 168.043 21.5639 167.747 21.2543C167.452 20.9418 167.214 20.5199 167.036 19.9886C166.857 19.4545 166.767 18.7841 166.767 17.9773C166.767 17.2045 166.839 16.5199 166.984 15.9233C167.129 15.3239 167.339 14.8196 167.615 14.4105C167.891 13.9986 168.223 13.6861 168.612 13.473C169.004 13.2599 169.446 13.1534 169.938 13.1534C170.426 13.1534 170.861 13.2514 171.241 13.4474C171.625 13.6406 171.938 13.9105 172.179 14.2571C172.42 14.6037 172.577 15.0028 172.648 15.4545H171.608C171.511 15.0625 171.324 14.7372 171.045 14.4787C170.767 14.2202 170.398 14.0909 169.938 14.0909C169.261 14.0909 168.729 14.3849 168.339 14.973C167.953 15.5611 167.759 16.3864 167.756 17.4489H167.824C167.983 17.2074 168.172 17.0014 168.391 16.831C168.612 16.6577 168.857 16.5241 169.124 16.4304C169.391 16.3366 169.673 16.2898 169.972 16.2898C170.472 16.2898 170.929 16.4148 171.344 16.6648C171.759 16.9119 172.091 17.2543 172.341 17.6918C172.591 18.1264 172.716 18.625 172.716 19.1875C172.716 19.7273 172.595 20.2216 172.354 20.6705C172.112 21.1165 171.773 21.4716 171.335 21.7358C170.901 21.9972 170.389 22.125 169.801 22.1193ZM169.801 21.1818C170.159 21.1818 170.48 21.0923 170.764 20.9134C171.051 20.7344 171.277 20.4943 171.442 20.1932C171.609 19.892 171.693 19.5568 171.693 19.1875C171.693 18.8267 171.612 18.4986 171.45 18.2031C171.291 17.9048 171.071 17.6676 170.79 17.4915C170.511 17.3153 170.193 17.2273 169.835 17.2273C169.565 17.2273 169.314 17.2812 169.081 17.3892C168.848 17.4943 168.643 17.6392 168.467 17.8239C168.294 18.0085 168.158 18.2202 168.058 18.4588C167.959 18.6946 167.909 18.9432 167.909 19.2045C167.909 19.5511 167.99 19.875 168.152 20.1761C168.317 20.4773 168.541 20.7202 168.825 20.9048C169.112 21.0895 169.438 21.1818 169.801 21.1818Z" fill="black"/>
<path d="M119.699 22.1193C119.114 22.1193 118.597 22.0156 118.148 21.8082C117.702 21.598 117.354 21.3097 117.104 20.9432C116.854 20.5739 116.73 20.1534 116.733 19.6818C116.73 19.3125 116.803 18.9716 116.95 18.6591C117.098 18.3437 117.3 18.081 117.555 17.8707C117.814 17.6577 118.102 17.5227 118.42 17.4659V17.4148C118.003 17.3068 117.67 17.0724 117.423 16.7116C117.176 16.348 117.054 15.9347 117.057 15.4716C117.054 15.0284 117.166 14.6321 117.393 14.2827C117.621 13.9332 117.933 13.6577 118.331 13.456C118.732 13.2543 119.188 13.1534 119.699 13.1534C120.205 13.1534 120.656 13.2543 121.054 13.456C121.452 13.6577 121.764 13.9332 121.991 14.2827C122.222 14.6321 122.338 15.0284 122.341 15.4716C122.338 15.9347 122.212 16.348 121.962 16.7116C121.714 17.0724 121.386 17.3068 120.977 17.4148V17.4659C121.293 17.5227 121.577 17.6577 121.83 17.8707C122.082 18.081 122.284 18.3437 122.435 18.6591C122.585 18.9716 122.662 19.3125 122.665 19.6818C122.662 20.1534 122.534 20.5739 122.281 20.9432C122.031 21.3097 121.683 21.598 121.237 21.8082C120.794 22.0156 120.281 22.1193 119.699 22.1193ZM119.699 21.1818C120.094 21.1818 120.435 21.1179 120.722 20.9901C121.009 20.8622 121.23 20.6818 121.386 20.4489C121.543 20.2159 121.622 19.9432 121.625 19.6307C121.622 19.3011 121.537 19.0099 121.369 18.7571C121.202 18.5043 120.973 18.3054 120.683 18.1605C120.396 18.0156 120.068 17.9432 119.699 17.9432C119.327 17.9432 118.994 18.0156 118.702 18.1605C118.412 18.3054 118.183 18.5043 118.016 18.7571C117.851 19.0099 117.77 19.3011 117.773 19.6307C117.77 19.9432 117.845 20.2159 117.999 20.4489C118.155 20.6818 118.378 20.8622 118.668 20.9901C118.957 21.1179 119.301 21.1818 119.699 21.1818ZM119.699 17.0398C120.011 17.0398 120.288 16.9773 120.53 16.8523C120.774 16.7273 120.966 16.5526 121.105 16.3281C121.244 16.1037 121.315 15.8409 121.318 15.5398C121.315 15.2443 121.246 14.9872 121.109 14.7685C120.973 14.5469 120.784 14.3764 120.543 14.2571C120.301 14.1349 120.02 14.0739 119.699 14.0739C119.372 14.0739 119.087 14.1349 118.842 14.2571C118.598 14.3764 118.409 14.5469 118.276 14.7685C118.142 14.9872 118.077 15.2443 118.08 15.5398C118.077 15.8409 118.143 16.1037 118.28 16.3281C118.419 16.5526 118.611 16.7273 118.855 16.8523C119.099 16.9773 119.381 17.0398 119.699 17.0398Z" fill="black"/>
<path d="M101.699 10.2102V9.34091L105.534 3.27273H106.165V4.61932H105.739L102.841 9.20455V9.27273H108.006V10.2102H101.699ZM105.807 12V9.94602V9.54119V3.27273H106.812V12H105.807Z" fill="black"/>
<path d="M64.9716 14.2727V23H63.9148V15.3807H63.8636L61.733 16.7955V15.7216L63.9148 14.2727H64.9716ZM70.3281 23.1193C69.6861 23.1193 69.1392 22.9446 68.6875 22.5952C68.2358 22.2429 67.8906 21.733 67.652 21.0653C67.4134 20.3949 67.294 19.5852 67.294 18.6364C67.294 17.6932 67.4134 16.8878 67.652 16.2202C67.8935 15.5497 68.2401 15.0384 68.6918 14.6861C69.1463 14.331 69.6918 14.1534 70.3281 14.1534C70.9645 14.1534 71.5085 14.331 71.9602 14.6861C72.4148 15.0384 72.7614 15.5497 73 16.2202C73.2415 16.8878 73.3622 17.6932 73.3622 18.6364C73.3622 19.5852 73.2429 20.3949 73.0043 21.0653C72.7656 21.733 72.4205 22.2429 71.9688 22.5952C71.517 22.9446 70.9702 23.1193 70.3281 23.1193ZM70.3281 22.1818C70.9645 22.1818 71.4588 21.875 71.8111 21.2614C72.1634 20.6477 72.3395 19.7727 72.3395 18.6364C72.3395 17.8807 72.2585 17.2372 72.0966 16.706C71.9375 16.1747 71.7074 15.7699 71.4062 15.4915C71.108 15.2131 70.7486 15.0739 70.3281 15.0739C69.6974 15.0739 69.2045 15.3849 68.8494 16.0071C68.4943 16.6264 68.3168 17.5028 68.3168 18.6364C68.3168 19.392 68.3963 20.0341 68.5554 20.5625C68.7145 21.0909 68.9432 21.4929 69.2415 21.7685C69.5426 22.044 69.9048 22.1818 70.3281 22.1818Z" fill="black"/>
<path d="M51.9034 12V11.233L54.7841 8.07955C55.1222 7.71023 55.4006 7.3892 55.6193 7.11648C55.8381 6.84091 56 6.58239 56.1051 6.34091C56.2131 6.09659 56.267 5.84091 56.267 5.57386C56.267 5.26705 56.1932 5.00142 56.0455 4.77699C55.9006 4.55256 55.7017 4.37926 55.4489 4.2571C55.196 4.13494 54.9119 4.07386 54.5966 4.07386C54.2614 4.07386 53.9688 4.14347 53.7188 4.28267C53.4716 4.41903 53.2798 4.6108 53.1435 4.85795C53.0099 5.10511 52.9432 5.39489 52.9432 5.72727H51.9375C51.9375 5.21591 52.0554 4.76705 52.2912 4.38068C52.527 3.99432 52.848 3.69318 53.2543 3.47727C53.6634 3.26136 54.1222 3.15341 54.6307 3.15341C55.142 3.15341 55.5952 3.26136 55.9901 3.47727C56.3849 3.69318 56.6946 3.98437 56.919 4.35085C57.1435 4.71733 57.2557 5.125 57.2557 5.57386C57.2557 5.89489 57.1974 6.20881 57.081 6.51562C56.9673 6.8196 56.7685 7.15909 56.4844 7.53409C56.2031 7.90625 55.8125 8.3608 55.3125 8.89773L53.3523 10.9943V11.0625H57.4091V12H51.9034Z" fill="black"/>
<path d="M266.903 22V21.233L269.784 18.0795C270.122 17.7102 270.401 17.3892 270.619 17.1165C270.838 16.8409 271 16.5824 271.105 16.3409C271.213 16.0966 271.267 15.8409 271.267 15.5739C271.267 15.267 271.193 15.0014 271.045 14.777C270.901 14.5526 270.702 14.3793 270.449 14.2571C270.196 14.1349 269.912 14.0739 269.597 14.0739C269.261 14.0739 268.969 14.1435 268.719 14.2827C268.472 14.419 268.28 14.6108 268.143 14.858C268.01 15.1051 267.943 15.3949 267.943 15.7273H266.938C266.938 15.2159 267.055 14.767 267.291 14.3807C267.527 13.9943 267.848 13.6932 268.254 13.4773C268.663 13.2614 269.122 13.1534 269.631 13.1534C270.142 13.1534 270.595 13.2614 270.99 13.4773C271.385 13.6932 271.695 13.9844 271.919 14.3509C272.143 14.7173 272.256 15.125 272.256 15.5739C272.256 15.8949 272.197 16.2088 272.081 16.5156C271.967 16.8196 271.768 17.1591 271.484 17.5341C271.203 17.9062 270.812 18.3608 270.312 18.8977L268.352 20.9943V21.0625H272.409V22H266.903Z" fill="black"/>
<path d="M254.972 3.27273V12H253.915V4.38068H253.864L251.733 5.79545V4.72159L253.915 3.27273H254.972ZM260.328 12.1193C259.686 12.1193 259.139 11.9446 258.688 11.5952C258.236 11.2429 257.891 10.733 257.652 10.0653C257.413 9.39489 257.294 8.58523 257.294 7.63636C257.294 6.69318 257.413 5.88778 257.652 5.22017C257.893 4.54972 258.24 4.03835 258.692 3.68608C259.146 3.33097 259.692 3.15341 260.328 3.15341C260.964 3.15341 261.509 3.33097 261.96 3.68608C262.415 4.03835 262.761 4.54972 263 5.22017C263.241 5.88778 263.362 6.69318 263.362 7.63636C263.362 8.58523 263.243 9.39489 263.004 10.0653C262.766 10.733 262.42 11.2429 261.969 11.5952C261.517 11.9446 260.97 12.1193 260.328 12.1193ZM260.328 11.1818C260.964 11.1818 261.459 10.875 261.811 10.2614C262.163 9.64773 262.339 8.77273 262.339 7.63636C262.339 6.88068 262.259 6.23722 262.097 5.70597C261.938 5.17472 261.707 4.76989 261.406 4.49148C261.108 4.21307 260.749 4.07386 260.328 4.07386C259.697 4.07386 259.205 4.38494 258.849 5.0071C258.494 5.62642 258.317 6.50284 258.317 7.63636C258.317 8.39205 258.396 9.03409 258.555 9.5625C258.714 10.0909 258.943 10.4929 259.241 10.7685C259.543 11.044 259.905 11.1818 260.328 11.1818Z" fill="black"/>
<path d="M216.699 20.2102V19.3409L220.534 13.2727H221.165V14.6193H220.739L217.841 19.2045V19.2727H223.006V20.2102H216.699ZM220.807 22V19.946V19.5412V13.2727H221.812V22H220.807Z" fill="black"/>
<path d="M204.699 12.1193C204.114 12.1193 203.597 12.0156 203.148 11.8082C202.702 11.598 202.354 11.3097 202.104 10.9432C201.854 10.5739 201.73 10.1534 201.733 9.68182C201.73 9.3125 201.803 8.97159 201.95 8.65909C202.098 8.34375 202.3 8.08097 202.555 7.87074C202.814 7.65767 203.102 7.52273 203.42 7.46591V7.41477C203.003 7.30682 202.67 7.07244 202.423 6.71165C202.176 6.34801 202.054 5.93466 202.057 5.47159C202.054 5.02841 202.166 4.6321 202.393 4.28267C202.621 3.93324 202.933 3.65767 203.331 3.45597C203.732 3.25426 204.188 3.15341 204.699 3.15341C205.205 3.15341 205.656 3.25426 206.054 3.45597C206.452 3.65767 206.764 3.93324 206.991 4.28267C207.222 4.6321 207.338 5.02841 207.341 5.47159C207.338 5.93466 207.212 6.34801 206.962 6.71165C206.714 7.07244 206.386 7.30682 205.977 7.41477V7.46591C206.293 7.52273 206.577 7.65767 206.83 7.87074C207.082 8.08097 207.284 8.34375 207.435 8.65909C207.585 8.97159 207.662 9.3125 207.665 9.68182C207.662 10.1534 207.534 10.5739 207.281 10.9432C207.031 11.3097 206.683 11.598 206.237 11.8082C205.794 12.0156 205.281 12.1193 204.699 12.1193ZM204.699 11.1818C205.094 11.1818 205.435 11.1179 205.722 10.9901C206.009 10.8622 206.23 10.6818 206.386 10.4489C206.543 10.2159 206.622 9.94318 206.625 9.63068C206.622 9.30114 206.537 9.00994 206.369 8.7571C206.202 8.50426 205.973 8.3054 205.683 8.16051C205.396 8.01562 205.068 7.94318 204.699 7.94318C204.327 7.94318 203.994 8.01562 203.702 8.16051C203.412 8.3054 203.183 8.50426 203.016 8.7571C202.851 9.00994 202.77 9.30114 202.773 9.63068C202.77 9.94318 202.845 10.2159 202.999 10.4489C203.155 10.6818 203.378 10.8622 203.668 10.9901C203.957 11.1179 204.301 11.1818 204.699 11.1818ZM204.699 7.03977C205.011 7.03977 205.288 6.97727 205.53 6.85227C205.774 6.72727 205.966 6.55256 206.105 6.32812C206.244 6.10369 206.315 5.84091 206.318 5.53977C206.315 5.24432 206.246 4.98722 206.109 4.76847C205.973 4.54687 205.784 4.37642 205.543 4.2571C205.301 4.13494 205.02 4.07386 204.699 4.07386C204.372 4.07386 204.087 4.13494 203.842 4.2571C203.598 4.37642 203.409 4.54687 203.276 4.76847C203.142 4.98722 203.077 5.24432 203.08 5.53977C203.077 5.84091 203.143 6.10369 203.28 6.32812C203.419 6.55256 203.611 6.72727 203.855 6.85227C204.099 6.97727 204.381 7.03977 204.699 7.03977Z" fill="black"/>
</svg>
