<svg width="325" height="26" viewBox="0 0 325 26" fill="none" xmlns="http://www.w3.org/2000/svg">
<path d="M300.1 1.1H324.9V25.25C324.9 25.2654 324.893 25.2918 324.854 25.3296C324.815 25.3676 324.752 25.4091 324.663 25.4515C324.484 25.5362 324.218 25.6151 323.882 25.6823C323.212 25.8164 322.281 25.9 321.25 25.9H303.75C302.719 25.9 301.788 25.8164 301.118 25.6823C300.782 25.6151 300.516 25.5362 300.337 25.4515C300.248 25.4091 300.185 25.3676 300.146 25.3296C300.107 25.2918 300.1 25.2654 300.1 25.25V1.1Z" fill="url(#paint0_radial_571_597)" stroke="black" stroke-width="0.2"/>
<path d="M275.1 1.1H299.9V25.25C299.9 25.2654 299.893 25.2918 299.854 25.3296C299.815 25.3676 299.752 25.4091 299.663 25.4515C299.484 25.5362 299.218 25.6151 298.882 25.6823C298.212 25.8164 297.281 25.9 296.25 25.9H278.75C277.719 25.9 276.788 25.8164 276.118 25.6823C275.782 25.6151 275.516 25.5362 275.337 25.4515C275.248 25.4091 275.185 25.3676 275.146 25.3296C275.107 25.2918 275.1 25.2654 275.1 25.25V1.1Z" fill="url(#paint1_radial_571_597)" stroke="black" stroke-width="0.2"/>
<path d="M250.1 1.1H274.9V25.25C274.9 25.2654 274.893 25.2918 274.854 25.3296C274.815 25.3676 274.752 25.4091 274.663 25.4515C274.484 25.5362 274.218 25.6151 273.882 25.6823C273.212 25.8164 272.281 25.9 271.25 25.9H253.75C252.719 25.9 251.788 25.8164 251.118 25.6823C250.782 25.6151 250.516 25.5362 250.337 25.4515C250.248 25.4091 250.185 25.3676 250.146 25.3296C250.107 25.2918 250.1 25.2654 250.1 25.25V1.1Z" fill="url(#paint2_radial_571_597)" stroke="black" stroke-width="0.2"/>
<path d="M225.1 1.1H249.9V25.25C249.9 25.2654 249.893 25.2918 249.854 25.3296C249.815 25.3676 249.752 25.4091 249.663 25.4515C249.484 25.5362 249.218 25.6151 248.882 25.6823C248.212 25.8164 247.281 25.9 246.25 25.9H228.75C227.719 25.9 226.788 25.8164 226.118 25.6823C225.782 25.6151 225.516 25.5362 225.337 25.4515C225.248 25.4091 225.185 25.3676 225.146 25.3296C225.107 25.2918 225.1 25.2654 225.1 25.25V1.1Z" fill="url(#paint3_radial_571_597)" stroke="black" stroke-width="0.2"/>
<path d="M175.1 1.1H199.9V25.25C199.9 25.2654 199.893 25.2918 199.854 25.3296C199.815 25.3676 199.752 25.4091 199.663 25.4515C199.484 25.5362 199.218 25.6151 198.882 25.6823C198.212 25.8164 197.281 25.9 196.25 25.9H178.75C177.719 25.9 176.788 25.8164 176.118 25.6823C175.782 25.6151 175.516 25.5362 175.337 25.4515C175.248 25.4091 175.185 25.3676 175.146 25.3296C175.107 25.2918 175.1 25.2654 175.1 25.25V1.1Z" fill="url(#paint4_radial_571_597)" stroke="black" stroke-width="0.2"/>
<path d="M200.1 1.1H224.9V25.25C224.9 25.2654 224.893 25.2918 224.854 25.3296C224.815 25.3676 224.752 25.4091 224.663 25.4515C224.484 25.5362 224.218 25.6151 223.882 25.6823C223.212 25.8164 222.281 25.9 221.25 25.9H203.75C202.719 25.9 201.788 25.8164 201.118 25.6823C200.782 25.6151 200.516 25.5362 200.337 25.4515C200.248 25.4091 200.185 25.3676 200.146 25.3296C200.107 25.2918 200.1 25.2654 200.1 25.25V1.1Z" fill="url(#paint5_linear_571_597)" stroke="black" stroke-width="0.2"/>
<path d="M214 23.379L215.833 22.027C216.639 21.442 216.951 20.779 216.977 20.285C216.977 19.557 216.314 19.011 215.534 19.011C214.988 19.011 214.585 19.219 214.325 19.648L214.416 15.553H214V23.379ZM215.209 19.531C215.625 19.531 215.937 19.83 215.937 20.233C215.937 20.909 215.04 22.209 214.364 22.638C214.325 22.417 214.299 21.988 214.299 21.351C214.299 21 214.325 20.571 214.377 20.077C214.572 19.713 214.845 19.531 215.209 19.531Z" fill="black"/>
<path d="M202 12H209" stroke="black"/>
<path d="M202 15H209" stroke="black"/>
<path d="M213.75 8.86364L215.653 4.54545H216.449L214.091 10H213.409L211.094 4.54545H211.875L213.75 8.86364ZM211.605 4.54545V10H210.767V4.54545H211.605ZM215.895 10V4.54545H216.733V10H215.895ZM220.668 10.0994C220.369 10.0947 220.071 10.0379 219.773 9.92898C219.474 9.82008 219.202 9.6366 218.956 9.37855C218.71 9.11813 218.512 8.76657 218.363 8.32386C218.214 7.87879 218.139 7.32008 218.139 6.64773C218.139 6.00379 218.2 5.43324 218.32 4.93608C218.441 4.43655 218.616 4.01634 218.846 3.67543C219.076 3.33215 219.353 3.07173 219.677 2.89418C220.004 2.71662 220.372 2.62784 220.781 2.62784C221.188 2.62784 221.551 2.70952 221.868 2.87287C222.188 3.03385 222.448 3.25876 222.649 3.54759C222.85 3.83641 222.981 4.16903 223.04 4.54545H222.173C222.093 4.21875 221.937 3.94768 221.705 3.73224C221.473 3.51681 221.165 3.40909 220.781 3.40909C220.218 3.40909 219.774 3.65412 219.45 4.14418C219.128 4.63423 218.965 5.32197 218.963 6.20739H219.02C219.152 6.00616 219.31 5.83452 219.492 5.69247C219.677 5.54806 219.88 5.43679 220.103 5.35866C220.326 5.28054 220.561 5.24148 220.81 5.24148C221.226 5.24148 221.607 5.34564 221.953 5.55398C222.299 5.75994 222.576 6.04522 222.784 6.4098C222.992 6.77202 223.097 7.1875 223.097 7.65625C223.097 8.10606 222.996 8.51799 222.795 8.89205C222.594 9.26373 222.311 9.55966 221.946 9.77983C221.584 9.99763 221.158 10.1042 220.668 10.0994ZM220.668 9.31818C220.966 9.31818 221.233 9.24361 221.47 9.09446C221.709 8.94531 221.897 8.74527 222.035 8.49432C222.174 8.24337 222.244 7.96402 222.244 7.65625C222.244 7.35559 222.177 7.08215 222.042 6.83594C221.909 6.58736 221.726 6.38968 221.491 6.2429C221.259 6.09612 220.994 6.02273 220.696 6.02273C220.471 6.02273 220.262 6.06771 220.067 6.15767C219.873 6.24527 219.703 6.366 219.556 6.51989C219.412 6.67377 219.298 6.85014 219.215 7.04901C219.132 7.2455 219.091 7.45265 219.091 7.67045C219.091 7.95928 219.158 8.22917 219.293 8.48011C219.431 8.73106 219.618 8.93348 219.854 9.08736C220.094 9.24124 220.365 9.31818 220.668 9.31818Z" fill="black"/>
<path d="M220.168 23.0994C219.869 23.0947 219.571 23.0379 219.273 22.929C218.974 22.8201 218.702 22.6366 218.456 22.3786C218.21 22.1181 218.012 21.7666 217.863 21.3239C217.714 20.8788 217.639 20.3201 217.639 19.6477C217.639 19.0038 217.7 18.4332 217.82 17.9361C217.941 17.4366 218.116 17.0163 218.346 16.6754C218.576 16.3321 218.853 16.0717 219.177 15.8942C219.504 15.7166 219.872 15.6278 220.281 15.6278C220.688 15.6278 221.051 15.7095 221.368 15.8729C221.688 16.0339 221.948 16.2588 222.149 16.5476C222.35 16.8364 222.481 17.169 222.54 17.5455H221.673C221.593 17.2187 221.437 16.9477 221.205 16.7322C220.973 16.5168 220.665 16.4091 220.281 16.4091C219.718 16.4091 219.274 16.6541 218.95 17.1442C218.628 17.6342 218.465 18.322 218.463 19.2074H218.52C218.652 19.0062 218.81 18.8345 218.992 18.6925C219.177 18.5481 219.38 18.4368 219.603 18.3587C219.826 18.2805 220.061 18.2415 220.31 18.2415C220.726 18.2415 221.107 18.3456 221.453 18.554C221.799 18.7599 222.076 19.0452 222.284 19.4098C222.492 19.772 222.597 20.1875 222.597 20.6562C222.597 21.1061 222.496 21.518 222.295 21.892C222.094 22.2637 221.811 22.5597 221.446 22.7798C221.084 22.9976 220.658 23.1042 220.168 23.0994ZM220.168 22.3182C220.466 22.3182 220.733 22.2436 220.97 22.0945C221.209 21.9453 221.397 21.7453 221.535 21.4943C221.674 21.2434 221.744 20.964 221.744 20.6562C221.744 20.3556 221.677 20.0821 221.542 19.8359C221.409 19.5874 221.226 19.3897 220.991 19.2429C220.759 19.0961 220.494 19.0227 220.196 19.0227C219.971 19.0227 219.762 19.0677 219.567 19.1577C219.373 19.2453 219.203 19.366 219.056 19.5199C218.912 19.6738 218.798 19.8501 218.715 20.049C218.632 20.2455 218.591 20.4527 218.591 20.6705C218.591 20.9593 218.658 21.2292 218.793 21.4801C218.931 21.7311 219.118 21.9335 219.354 22.0874C219.594 22.2412 219.865 22.3182 220.168 22.3182Z" fill="black"/>
<path d="M150.1 1.1H174.9V25.25C174.9 25.2654 174.893 25.2918 174.854 25.3296C174.815 25.3676 174.752 25.4091 174.663 25.4515C174.484 25.5362 174.218 25.6151 173.882 25.6823C173.212 25.8164 172.281 25.9 171.25 25.9H153.75C152.719 25.9 151.788 25.8164 151.118 25.6823C150.782 25.6151 150.516 25.5362 150.337 25.4515C150.248 25.4091 150.185 25.3676 150.146 25.3296C150.107 25.2918 150.1 25.2654 150.1 25.25V1.1Z" fill="url(#paint6_radial_571_597)" stroke="black" stroke-width="0.2"/>
<path d="M125.1 1.1H149.9V25.25C149.9 25.2654 149.893 25.2918 149.854 25.3296C149.815 25.3676 149.752 25.4091 149.663 25.4515C149.484 25.5362 149.218 25.6151 148.882 25.6823C148.212 25.8164 147.281 25.9 146.25 25.9H128.75C127.719 25.9 126.788 25.8164 126.118 25.6823C125.782 25.6151 125.516 25.5362 125.337 25.4515C125.248 25.4091 125.185 25.3676 125.146 25.3296C125.107 25.2918 125.1 25.2654 125.1 25.25V1.1Z" fill="url(#paint7_radial_571_597)" stroke="black" stroke-width="0.2"/>
<path d="M75.1 1.1H99.9V25.25C99.9 25.2654 99.8926 25.2918 99.8539 25.3296C99.815 25.3676 99.7523 25.4091 99.6626 25.4515C99.4835 25.5362 99.2181 25.6151 98.882 25.6823C98.2116 25.8164 97.281 25.9 96.25 25.9H78.75C77.719 25.9 76.7884 25.8164 76.118 25.6823C75.7819 25.6151 75.5165 25.5362 75.3374 25.4515C75.2477 25.4091 75.185 25.3676 75.1461 25.3296C75.1074 25.2918 75.1 25.2654 75.1 25.25V1.1Z" fill="url(#paint8_radial_571_597)" stroke="black" stroke-width="0.2"/>
<path d="M100.1 1.1H124.9V25.25C124.9 25.2654 124.893 25.2918 124.854 25.3296C124.815 25.3676 124.752 25.4091 124.663 25.4515C124.484 25.5362 124.218 25.6151 123.882 25.6823C123.212 25.8164 122.281 25.9 121.25 25.9H103.75C102.719 25.9 101.788 25.8164 101.118 25.6823C100.782 25.6151 100.516 25.5362 100.337 25.4515C100.248 25.4091 100.185 25.3676 100.146 25.3296C100.107 25.2918 100.1 25.2654 100.1 25.25V1.1Z" fill="url(#paint9_linear_571_597)" stroke="black" stroke-width="0.2"/>
<path d="M113.21 24.0994C112.741 24.0994 112.324 24.0189 111.957 23.858C111.592 23.697 111.302 23.4732 111.087 23.1868C110.874 22.898 110.758 22.563 110.739 22.1818H111.634C111.652 22.4162 111.733 22.6186 111.875 22.7891C112.017 22.9571 112.203 23.0874 112.433 23.1797C112.662 23.272 112.917 23.3182 113.196 23.3182C113.509 23.3182 113.786 23.2637 114.027 23.1548C114.268 23.0459 114.458 22.8944 114.595 22.7003C114.732 22.5062 114.801 22.2812 114.801 22.0256C114.801 21.758 114.735 21.5225 114.602 21.3189C114.47 21.1129 114.276 20.9519 114.02 20.8359C113.764 20.7199 113.452 20.6619 113.082 20.6619H112.5V19.8807H113.082C113.371 19.8807 113.625 19.8286 113.842 19.7244C114.063 19.6203 114.234 19.4735 114.357 19.2841C114.483 19.0947 114.545 18.8722 114.545 18.6165C114.545 18.3703 114.491 18.156 114.382 17.9737C114.273 17.7914 114.119 17.6494 113.92 17.5476C113.724 17.4458 113.492 17.3949 113.224 17.3949C112.973 17.3949 112.737 17.4411 112.514 17.5334C112.294 17.6233 112.114 17.7547 111.974 17.9276C111.835 18.098 111.759 18.304 111.747 18.5455H110.895C110.909 18.1643 111.024 17.8305 111.239 17.544C111.455 17.2552 111.737 17.0303 112.085 16.8693C112.435 16.7083 112.82 16.6278 113.239 16.6278C113.688 16.6278 114.074 16.719 114.396 16.9013C114.718 17.0812 114.966 17.3191 115.138 17.6151C115.311 17.911 115.398 18.2306 115.398 18.5739C115.398 18.9834 115.29 19.3326 115.075 19.6214C114.862 19.9103 114.571 20.1103 114.205 20.2216V20.2784C114.664 20.3542 115.022 20.5495 115.281 20.8643C115.539 21.1768 115.668 21.5639 115.668 22.0256C115.668 22.4209 115.56 22.776 115.344 23.0909C115.131 23.4034 114.84 23.6496 114.471 23.8295C114.102 24.0095 113.681 24.0994 113.21 24.0994Z" fill="black"/>
<path d="M106.881 11V3.72727H111.27V4.50852H107.761V6.78125H109.608C110.129 6.78125 110.568 6.86648 110.925 7.03693C111.285 7.20739 111.558 7.44768 111.742 7.75781C111.929 8.06795 112.023 8.43371 112.023 8.85511C112.023 9.27652 111.929 9.6482 111.742 9.97017C111.558 10.2921 111.285 10.5443 110.925 10.7266C110.568 10.9089 110.129 11 109.608 11H106.881ZM107.761 10.233H109.608C109.939 10.233 110.22 10.1667 110.45 10.0341C110.682 9.89915 110.857 9.72633 110.975 9.51562C111.096 9.30256 111.156 9.07765 111.156 8.84091C111.156 8.4929 111.022 8.19342 110.755 7.94247C110.487 7.68916 110.105 7.5625 109.608 7.5625H107.761V10.233ZM115.802 11.0994C115.333 11.0994 114.915 11.0189 114.548 10.858C114.184 10.697 113.894 10.4732 113.678 10.1868C113.465 9.89796 113.349 9.56297 113.33 9.18182H114.225C114.244 9.41619 114.325 9.61861 114.467 9.78906C114.609 9.95715 114.795 10.0874 115.024 10.1797C115.254 10.272 115.508 10.3182 115.788 10.3182C116.1 10.3182 116.377 10.2637 116.619 10.1548C116.86 10.0459 117.05 9.89441 117.187 9.70028C117.324 9.50616 117.393 9.28125 117.393 9.02557C117.393 8.75805 117.327 8.52249 117.194 8.31889C117.061 8.11293 116.867 7.95194 116.612 7.83594C116.356 7.71993 116.044 7.66193 115.674 7.66193H115.092V6.88068H115.674C115.963 6.88068 116.216 6.8286 116.434 6.72443C116.654 6.62026 116.826 6.47348 116.949 6.28409C117.075 6.0947 117.137 5.87216 117.137 5.61648C117.137 5.37026 117.083 5.15601 116.974 4.97372C116.865 4.79143 116.711 4.64938 116.512 4.54759C116.316 4.44579 116.084 4.39489 115.816 4.39489C115.565 4.39489 115.329 4.44105 115.106 4.53338C114.886 4.62334 114.706 4.75473 114.566 4.92756C114.427 5.09801 114.351 5.30398 114.339 5.54545H113.487C113.501 5.1643 113.616 4.83049 113.831 4.54403C114.047 4.25521 114.328 4.0303 114.676 3.86932C115.027 3.70833 115.411 3.62784 115.83 3.62784C116.28 3.62784 116.666 3.71899 116.988 3.90128C117.31 4.0812 117.557 4.31913 117.73 4.61506C117.903 4.91098 117.99 5.23059 117.99 5.57386C117.99 5.98343 117.882 6.33262 117.666 6.62145C117.453 6.91027 117.163 7.11032 116.796 7.22159V7.27841C117.256 7.35417 117.614 7.54948 117.872 7.86435C118.13 8.17685 118.259 8.56392 118.259 9.02557C118.259 9.42093 118.152 9.77604 117.936 10.0909C117.723 10.4034 117.432 10.6496 117.063 10.8295C116.693 11.0095 116.273 11.0994 115.802 11.0994Z" fill="black"/>
<path d="M123.354 14.3536C123.549 14.1583 123.549 13.8417 123.354 13.6464L120.172 10.4645C119.976 10.2692 119.66 10.2692 119.464 10.4645C119.269 10.6597 119.269 10.9763 119.464 11.1716L122.293 14L119.464 16.8284C119.269 17.0237 119.269 17.3403 119.464 17.5355C119.66 17.7308 119.976 17.7308 120.172 17.5355L123.354 14.3536ZM103 14.5H123V13.5H103V14.5Z" fill="black"/>
<path d="M50.1 1.1H74.9V25.25C74.9 25.2654 74.8926 25.2918 74.8539 25.3296C74.815 25.3676 74.7523 25.4091 74.6626 25.4515C74.4835 25.5362 74.2181 25.6151 73.882 25.6823C73.2116 25.8164 72.281 25.9 71.25 25.9H53.75C52.719 25.9 51.7884 25.8164 51.118 25.6823C50.7819 25.6151 50.5165 25.5362 50.3374 25.4515C50.2477 25.4091 50.185 25.3676 50.1461 25.3296C50.1074 25.2918 50.1 25.2654 50.1 25.25V1.1Z" fill="url(#paint10_radial_571_597)" stroke="black" stroke-width="0.2"/>
<path d="M25.1 1.1H49.9V25.25C49.9 25.2654 49.8926 25.2918 49.8539 25.3296C49.815 25.3676 49.7523 25.4091 49.6626 25.4515C49.4835 25.5362 49.2181 25.6151 48.882 25.6823C48.2116 25.8164 47.281 25.9 46.25 25.9H28.75C27.719 25.9 26.7884 25.8164 26.118 25.6823C25.7819 25.6151 25.5165 25.5362 25.3374 25.4515C25.2477 25.4091 25.185 25.3676 25.1461 25.3296C25.1074 25.2918 25.1 25.2654 25.1 25.25V1.1Z" fill="url(#paint11_radial_571_597)" stroke="black" stroke-width="0.2"/>
<path d="M0.1 1.1H24.9V25.25C24.9 25.2654 24.8926 25.2918 24.8539 25.3296C24.815 25.3676 24.7523 25.4091 24.6626 25.4515C24.4835 25.5362 24.2181 25.6151 23.882 25.6823C23.2116 25.8164 22.281 25.9 21.25 25.9H3.75C2.719 25.9 1.78838 25.8164 1.11796 25.6823C0.781929 25.6151 0.516476 25.5362 0.337441 25.4515C0.247669 25.4091 0.184964 25.3676 0.146084 25.3296C0.107371 25.2918 0.1 25.2654 0.1 25.25V1.1Z" fill="url(#paint12_linear_571_597)" stroke="black" stroke-width="0.2"/>
<path d="M0.1 1.1H24.9V25.25C24.9 25.2654 24.8926 25.2918 24.8539 25.3296C24.815 25.3676 24.7523 25.4091 24.6626 25.4515C24.4835 25.5362 24.2181 25.6151 23.882 25.6823C23.2116 25.8164 22.281 25.9 21.25 25.9H3.75C2.719 25.9 1.78838 25.8164 1.11796 25.6823C0.781929 25.6151 0.516476 25.5362 0.337441 25.4515C0.247669 25.4091 0.184964 25.3676 0.146084 25.3296C0.107371 25.2918 0.1 25.2654 0.1 25.25V1.1Z" fill="url(#paint13_linear_571_597)" stroke="black" stroke-width="0.2"/>
<path d="M13.3097 16.7273V24H12.429V17.6506H12.3864L10.6108 18.8295V17.9347L12.429 16.7273H13.3097Z" fill="black"/>
<path d="M6.88068 11V3.72727H11.2699V4.50852H7.76136V6.78125H9.60795C10.1288 6.78125 10.5679 6.86648 10.9254 7.03693C11.2853 7.20739 11.5575 7.44768 11.7422 7.75781C11.9292 8.06795 12.0227 8.43371 12.0227 8.85511C12.0227 9.27652 11.9292 9.6482 11.7422 9.97017C11.5575 10.2921 11.2853 10.5443 10.9254 10.7266C10.5679 10.9089 10.1288 11 9.60795 11H6.88068ZM7.76136 10.233H9.60795C9.93939 10.233 10.2199 10.1667 10.4496 10.0341C10.6816 9.89915 10.8568 9.72633 10.9751 9.51562C11.0959 9.30256 11.1562 9.07765 11.1562 8.84091C11.1562 8.4929 11.0225 8.19342 10.755 7.94247C10.4875 7.68916 10.1051 7.5625 9.60795 7.5625H7.76136V10.233ZM15.802 11.0994C15.3333 11.0994 14.9154 11.0189 14.5485 10.858C14.1839 10.697 13.8939 10.4732 13.6784 10.1868C13.4654 9.89796 13.3494 9.56297 13.3304 9.18182H14.2253C14.2443 9.41619 14.3248 9.61861 14.4668 9.78906C14.6088 9.95715 14.7947 10.0874 15.0243 10.1797C15.254 10.272 15.5085 10.3182 15.7878 10.3182C16.1003 10.3182 16.3773 10.2637 16.6188 10.1548C16.8603 10.0459 17.0497 9.89441 17.187 9.70028C17.3243 9.50616 17.3929 9.28125 17.3929 9.02557C17.3929 8.75805 17.3266 8.52249 17.1941 8.31889C17.0615 8.11293 16.8674 7.95194 16.6117 7.83594C16.356 7.71993 16.0435 7.66193 15.6742 7.66193H15.0918V6.88068H15.6742C15.963 6.88068 16.2163 6.8286 16.4341 6.72443C16.6543 6.62026 16.8259 6.47348 16.949 6.28409C17.0745 6.0947 17.1373 5.87216 17.1373 5.61648C17.1373 5.37026 17.0828 5.15601 16.9739 4.97372C16.865 4.79143 16.7111 4.64938 16.5123 4.54759C16.3158 4.44579 16.0837 4.39489 15.8162 4.39489C15.5653 4.39489 15.3285 4.44105 15.106 4.53338C14.8858 4.62334 14.7059 4.75473 14.5662 4.92756C14.4266 5.09801 14.3508 5.30398 14.339 5.54545H13.4867C13.5009 5.1643 13.6157 4.83049 13.8311 4.54403C14.0466 4.25521 14.3283 4.0303 14.6763 3.86932C15.0267 3.70833 15.4114 3.62784 15.8304 3.62784C16.2802 3.62784 16.6661 3.71899 16.9881 3.90128C17.3101 4.0812 17.5575 4.31913 17.7303 4.61506C17.9031 4.91098 17.9895 5.23059 17.9895 5.57386C17.9895 5.98343 17.8818 6.33262 17.6664 6.62145C17.4533 6.91027 17.1633 7.11032 16.7963 7.22159V7.27841C17.2556 7.35417 17.6143 7.54948 17.8723 7.86435C18.1304 8.17685 18.2594 8.56392 18.2594 9.02557C18.2594 9.42093 18.1517 9.77604 17.9363 10.0909C17.7232 10.4034 17.432 10.6496 17.0627 10.8295C16.6934 11.0095 16.2731 11.0994 15.802 11.0994Z" fill="black"/>
<path d="M23.3536 14.3536C23.5488 14.1583 23.5488 13.8417 23.3536 13.6464L20.1716 10.4645C19.9763 10.2692 19.6597 10.2692 19.4645 10.4645C19.2692 10.6597 19.2692 10.9763 19.4645 11.1716L22.2929 14L19.4645 16.8284C19.2692 17.0237 19.2692 17.3403 19.4645 17.5355C19.6597 17.7308 19.9763 17.7308 20.1716 17.5355L23.3536 14.3536ZM3 14.5H23V13.5H3V14.5Z" fill="black"/>
<defs>
<radialGradient id="paint0_radial_571_597" cx="0" cy="0" r="1" gradientUnits="userSpaceOnUse" gradientTransform="translate(312.5 13.5) rotate(90) scale(12.5)">
<stop offset="0.171875"/>
<stop offset="0.171975" stop-color="white"/>
</radialGradient>
<radialGradient id="paint1_radial_571_597" cx="0" cy="0" r="1" gradientUnits="userSpaceOnUse" gradientTransform="translate(287.5 13.5) rotate(90) scale(12.5)">
<stop offset="0.171875"/>
<stop offset="0.171975" stop-color="white"/>
</radialGradient>
<radialGradient id="paint2_radial_571_597" cx="0" cy="0" r="1" gradientUnits="userSpaceOnUse" gradientTransform="translate(262.5 13.5) rotate(90) scale(12.5)">
<stop offset="0.171875"/>
<stop offset="0.171975" stop-color="white"/>
</radialGradient>
<radialGradient id="paint3_radial_571_597" cx="0" cy="0" r="1" gradientUnits="userSpaceOnUse" gradientTransform="translate(237.5 13.5) rotate(90) scale(12.5)">
<stop offset="0.171875"/>
<stop offset="0.171975" stop-color="white"/>
</radialGradient>
<radialGradient id="paint4_radial_571_597" cx="0" cy="0" r="1" gradientUnits="userSpaceOnUse" gradientTransform="translate(187.5 13.5) rotate(90) scale(12.5)">
<stop offset="0.171875"/>
<stop offset="0.171975" stop-color="white"/>
</radialGradient>
<linearGradient id="paint5_linear_571_597" x1="212.5" y1="1" x2="212.5" y2="26" gradientUnits="userSpaceOnUse">
<stop offset="0.255208" stop-color="#DDB078"/>
<stop offset="0.598958" stop-color="#F4D6B1"/>
</linearGradient>
<radialGradient id="paint6_radial_571_597" cx="0" cy="0" r="1" gradientUnits="userSpaceOnUse" gradientTransform="translate(162.5 13.5) rotate(90) scale(12.5)">
<stop offset="0.171875"/>
<stop offset="0.171975" stop-color="white"/>
</radialGradient>
<radialGradient id="paint7_radial_571_597" cx="0" cy="0" r="1" gradientUnits="userSpaceOnUse" gradientTransform="translate(137.5 13.5) rotate(90) scale(12.5)">
<stop offset="0.171875"/>
<stop offset="0.171975" stop-color="white"/>
</radialGradient>
<radialGradient id="paint8_radial_571_597" cx="0" cy="0" r="1" gradientUnits="userSpaceOnUse" gradientTransform="translate(87.5 13.5) rotate(90) scale(12.5)">
<stop offset="0.171875"/>
<stop offset="0.171975" stop-color="white"/>
</radialGradient>
<linearGradient id="paint9_linear_571_597" x1="112.5" y1="1" x2="112.5" y2="26" gradientUnits="userSpaceOnUse">
<stop offset="0.255208" stop-color="#DDB078"/>
<stop offset="0.598958" stop-color="#F4D6B1"/>
</linearGradient>
<radialGradient id="paint10_radial_571_597" cx="0" cy="0" r="1" gradientUnits="userSpaceOnUse" gradientTransform="translate(62.5 13.5) rotate(90) scale(12.5)">
<stop offset="0.171875"/>
<stop offset="0.171975" stop-color="white"/>
</radialGradient>
<radialGradient id="paint11_radial_571_597" cx="0" cy="0" r="1" gradientUnits="userSpaceOnUse" gradientTransform="translate(37.5 13.5) rotate(90) scale(12.5)">
<stop offset="0.171875"/>
<stop offset="0.171975" stop-color="white"/>
</radialGradient>
<linearGradient id="paint12_linear_571_597" x1="12.5" y1="1" x2="12.5" y2="26" gradientUnits="userSpaceOnUse">
<stop offset="0.255208" stop-color="#DDB078"/>
<stop offset="0.598958" stop-color="#F4D6B1"/>
</linearGradient>
<linearGradient id="paint13_linear_571_597" x1="12.5" y1="1" x2="12.5" y2="26" gradientUnits="userSpaceOnUse">
<stop offset="0.255208" stop-color="#DDB078"/>
<stop offset="0.598958" stop-color="#F4D6B1"/>
</linearGradient>
</defs>
</svg>
