<svg width="536" height="28" viewBox="0 0 536 28" fill="none" xmlns="http://www.w3.org/2000/svg">
<path d="M406.1 1.1H430.9V25.25C430.9 25.2654 430.893 25.2918 430.854 25.3296C430.815 25.3676 430.752 25.4091 430.663 25.4515C430.484 25.5362 430.218 25.6151 429.882 25.6823C429.212 25.8164 428.281 25.9 427.25 25.9H409.75C408.719 25.9 407.788 25.8164 407.118 25.6823C406.782 25.6151 406.516 25.5362 406.337 25.4515C406.248 25.4091 406.185 25.3676 406.146 25.3296C406.107 25.2918 406.1 25.2654 406.1 25.25V1.1Z" fill="white" stroke="black" stroke-width="0.2"/>
<path d="M419.31 10.7273V18H418.429V11.6506H418.386L416.611 12.8295V11.9347L418.429 10.7273H419.31Z" fill="black"/>
<path d="M356.1 1.1H380.9V25.25C380.9 25.2654 380.893 25.2918 380.854 25.3296C380.815 25.3676 380.752 25.4091 380.663 25.4515C380.484 25.5362 380.218 25.6151 379.882 25.6823C379.212 25.8164 378.281 25.9 377.25 25.9H359.75C358.719 25.9 357.788 25.8164 357.118 25.6823C356.782 25.6151 356.516 25.5362 356.337 25.4515C356.248 25.4091 356.185 25.3676 356.146 25.3296C356.107 25.2918 356.1 25.2654 356.1 25.25V1.1Z" fill="url(#paint0_radial_1083_245)" stroke="black" stroke-width="0.2"/>
<path d="M381.1 1.1H405.9V25.25C405.9 25.2654 405.893 25.2918 405.854 25.3296C405.815 25.3676 405.752 25.4091 405.663 25.4515C405.484 25.5362 405.218 25.6151 404.882 25.6823C404.212 25.8164 403.281 25.9 402.25 25.9H384.75C383.719 25.9 382.788 25.8164 382.118 25.6823C381.782 25.6151 381.516 25.5362 381.337 25.4515C381.248 25.4091 381.185 25.3676 381.146 25.3296C381.107 25.2918 381.1 25.2654 381.1 25.25V1.1Z" fill="url(#paint1_radial_1083_245)" stroke="black" stroke-width="0.2"/>
<path d="M331.1 1.1H355.9V25.25C355.9 25.2654 355.893 25.2918 355.854 25.3296C355.815 25.3676 355.752 25.4091 355.663 25.4515C355.484 25.5362 355.218 25.6151 354.882 25.6823C354.212 25.8164 353.281 25.9 352.25 25.9H334.75C333.719 25.9 332.788 25.8164 332.118 25.6823C331.782 25.6151 331.516 25.5362 331.337 25.4515C331.248 25.4091 331.185 25.3676 331.146 25.3296C331.107 25.2918 331.1 25.2654 331.1 25.25V1.1Z" fill="url(#paint2_radial_1083_245)" stroke="black" stroke-width="0.2"/>
<path d="M281.1 1.1H305.9V25.25C305.9 25.2654 305.893 25.2918 305.854 25.3296C305.815 25.3676 305.752 25.4091 305.663 25.4515C305.484 25.5362 305.218 25.6151 304.882 25.6823C304.212 25.8164 303.281 25.9 302.25 25.9H284.75C283.719 25.9 282.788 25.8164 282.118 25.6823C281.782 25.6151 281.516 25.5362 281.337 25.4515C281.248 25.4091 281.185 25.3676 281.146 25.3296C281.107 25.2918 281.1 25.2654 281.1 25.25V1.1Z" fill="url(#paint3_radial_1083_245)" stroke="black" stroke-width="0.2"/>
<path d="M256.1 1.1H280.9V25.25C280.9 25.2654 280.893 25.2918 280.854 25.3296C280.815 25.3676 280.752 25.4091 280.663 25.4515C280.484 25.5362 280.218 25.6151 279.882 25.6823C279.212 25.8164 278.281 25.9 277.25 25.9H259.75C258.719 25.9 257.788 25.8164 257.118 25.6823C256.782 25.6151 256.516 25.5362 256.337 25.4515C256.248 25.4091 256.185 25.3676 256.146 25.3296C256.107 25.2918 256.1 25.2654 256.1 25.25V1.1Z" fill="url(#paint4_radial_1083_245)" stroke="black" stroke-width="0.2"/>
<path d="M231.1 1.1H255.9V25.25C255.9 25.2654 255.893 25.2918 255.854 25.3296C255.815 25.3676 255.752 25.4091 255.663 25.4515C255.484 25.5362 255.218 25.6151 254.882 25.6823C254.212 25.8164 253.281 25.9 252.25 25.9H234.75C233.719 25.9 232.788 25.8164 232.118 25.6823C231.782 25.6151 231.516 25.5362 231.337 25.4515C231.248 25.4091 231.185 25.3676 231.146 25.3296C231.107 25.2918 231.1 25.2654 231.1 25.25V1.1Z" fill="url(#paint5_radial_1083_245)" stroke="black" stroke-width="0.2"/>
<path d="M181.1 1.1H205.9V25.25C205.9 25.2654 205.893 25.2918 205.854 25.3296C205.815 25.3676 205.752 25.4091 205.663 25.4515C205.484 25.5362 205.218 25.6151 204.882 25.6823C204.212 25.8164 203.281 25.9 202.25 25.9H184.75C183.719 25.9 182.788 25.8164 182.118 25.6823C181.782 25.6151 181.516 25.5362 181.337 25.4515C181.248 25.4091 181.185 25.3676 181.146 25.3296C181.107 25.2918 181.1 25.2654 181.1 25.25V1.1Z" fill="url(#paint6_radial_1083_245)" stroke="black" stroke-width="0.2"/>
<path d="M206.1 1.1H230.9V25.25C230.9 25.2654 230.893 25.2918 230.854 25.3296C230.815 25.3676 230.752 25.4091 230.663 25.4515C230.484 25.5362 230.218 25.6151 229.882 25.6823C229.212 25.8164 228.281 25.9 227.25 25.9H209.75C208.719 25.9 207.788 25.8164 207.118 25.6823C206.782 25.6151 206.516 25.5362 206.337 25.4515C206.248 25.4091 206.185 25.3676 206.146 25.3296C206.107 25.2918 206.1 25.2654 206.1 25.25V1.1Z" fill="url(#paint7_linear_1083_245)" stroke="black" stroke-width="0.2"/>
<path d="M219.21 18.0994C218.741 18.0994 218.324 18.0189 217.957 17.858C217.592 17.697 217.302 17.4732 217.087 17.1868C216.874 16.898 216.758 16.563 216.739 16.1818H217.634C217.652 16.4162 217.733 16.6186 217.875 16.7891C218.017 16.9571 218.203 17.0874 218.433 17.1797C218.662 17.272 218.917 17.3182 219.196 17.3182C219.509 17.3182 219.786 17.2637 220.027 17.1548C220.268 17.0459 220.458 16.8944 220.595 16.7003C220.732 16.5062 220.801 16.2812 220.801 16.0256C220.801 15.758 220.735 15.5225 220.602 15.3189C220.47 15.1129 220.276 14.9519 220.02 14.8359C219.764 14.7199 219.452 14.6619 219.082 14.6619H218.5V13.8807H219.082C219.371 13.8807 219.625 13.8286 219.842 13.7244C220.063 13.6203 220.234 13.4735 220.357 13.2841C220.483 13.0947 220.545 12.8722 220.545 12.6165C220.545 12.3703 220.491 12.156 220.382 11.9737C220.273 11.7914 220.119 11.6494 219.92 11.5476C219.724 11.4458 219.492 11.3949 219.224 11.3949C218.973 11.3949 218.737 11.4411 218.514 11.5334C218.294 11.6233 218.114 11.7547 217.974 11.9276C217.835 12.098 217.759 12.304 217.747 12.5455H216.895C216.909 12.1643 217.024 11.8305 217.239 11.544C217.455 11.2552 217.737 11.0303 218.085 10.8693C218.435 10.7083 218.82 10.6278 219.239 10.6278C219.688 10.6278 220.074 10.719 220.396 10.9013C220.718 11.0812 220.966 11.3191 221.138 11.6151C221.311 11.911 221.398 12.2306 221.398 12.5739C221.398 12.9834 221.29 13.3326 221.075 13.6214C220.862 13.9103 220.571 14.1103 220.205 14.2216V14.2784C220.664 14.3542 221.022 14.5495 221.281 14.8643C221.539 15.1768 221.668 15.5639 221.668 16.0256C221.668 16.4209 221.56 16.776 221.344 17.0909C221.131 17.4034 220.84 17.6496 220.471 17.8295C220.102 18.0095 219.681 18.0994 219.21 18.0994Z" fill="black"/>
<path d="M156.1 1.1H180.9V25.25C180.9 25.2654 180.893 25.2918 180.854 25.3296C180.815 25.3676 180.752 25.4091 180.663 25.4515C180.484 25.5362 180.218 25.6151 179.882 25.6823C179.212 25.8164 178.281 25.9 177.25 25.9H159.75C158.719 25.9 157.788 25.8164 157.118 25.6823C156.782 25.6151 156.516 25.5362 156.337 25.4515C156.248 25.4091 156.185 25.3676 156.146 25.3296C156.107 25.2918 156.1 25.2654 156.1 25.25V1.1Z" fill="url(#paint8_radial_1083_245)" stroke="black" stroke-width="0.2"/>
<path d="M131.1 1.1H155.9V25.25C155.9 25.2654 155.893 25.2918 155.854 25.3296C155.815 25.3676 155.752 25.4091 155.663 25.4515C155.484 25.5362 155.218 25.6151 154.882 25.6823C154.212 25.8164 153.281 25.9 152.25 25.9H134.75C133.719 25.9 132.788 25.8164 132.118 25.6823C131.782 25.6151 131.516 25.5362 131.337 25.4515C131.248 25.4091 131.185 25.3676 131.146 25.3296C131.107 25.2918 131.1 25.2654 131.1 25.25V1.1Z" fill="url(#paint9_radial_1083_245)" stroke="black" stroke-width="0.2"/>
<path d="M106.1 1.1H130.9V25.25C130.9 25.2654 130.893 25.2918 130.854 25.3296C130.815 25.3676 130.752 25.4091 130.663 25.4515C130.484 25.5362 130.218 25.6151 129.882 25.6823C129.212 25.8164 128.281 25.9 127.25 25.9H109.75C108.719 25.9 107.788 25.8164 107.118 25.6823C106.782 25.6151 106.516 25.5362 106.337 25.4515C106.248 25.4091 106.185 25.3676 106.146 25.3296C106.107 25.2918 106.1 25.2654 106.1 25.25V1.1Z" fill="url(#paint10_linear_1083_245)" stroke="black" stroke-width="0.2"/>
<path d="M106.1 1.1H130.9V25.25C130.9 25.2654 130.893 25.2918 130.854 25.3296C130.815 25.3676 130.752 25.4091 130.663 25.4515C130.484 25.5362 130.218 25.6151 129.882 25.6823C129.212 25.8164 128.281 25.9 127.25 25.9H109.75C108.719 25.9 107.788 25.8164 107.118 25.6823C106.782 25.6151 106.516 25.5362 106.337 25.4515C106.248 25.4091 106.185 25.3676 106.146 25.3296C106.107 25.2918 106.1 25.2654 106.1 25.25V1.1Z" fill="url(#paint11_linear_1083_245)" stroke="black" stroke-width="0.2"/>
<path d="M119.31 10.7273V18H118.429V11.6506H118.386L116.611 12.8295V11.9347L118.429 10.7273H119.31Z" fill="black"/>
<path d="M444.5 1.5H535.5V24.94C535.348 24.9739 535.133 25.0099 534.852 25.046C534.172 25.1334 533.176 25.2134 531.931 25.2811C529.445 25.4162 526.005 25.5 522.2 25.5H457.8C453.995 25.5 450.555 25.4162 448.069 25.2811C446.824 25.2134 445.828 25.1334 445.148 25.046C444.867 25.0099 444.652 24.9739 444.5 24.94V1.5Z" fill="white" stroke="#D6A86F"/>
<path d="M464.881 17V9.72727H469.27V10.5085H465.761V12.7812H467.608C468.129 12.7812 468.568 12.8665 468.925 13.0369C469.285 13.2074 469.558 13.4477 469.742 13.7578C469.929 14.0679 470.023 14.4337 470.023 14.8551C470.023 15.2765 469.929 15.6482 469.742 15.9702C469.558 16.2921 469.285 16.5443 468.925 16.7266C468.568 16.9089 468.129 17 467.608 17H464.881ZM465.761 16.233H467.608C467.939 16.233 468.22 16.1667 468.45 16.0341C468.682 15.8991 468.857 15.7263 468.975 15.5156C469.096 15.3026 469.156 15.0777 469.156 14.8409C469.156 14.4929 469.022 14.1934 468.755 13.9425C468.487 13.6892 468.105 13.5625 467.608 13.5625H465.761V16.233ZM473.802 17.0994C473.333 17.0994 472.915 17.0189 472.548 16.858C472.184 16.697 471.894 16.4732 471.678 16.1868C471.465 15.898 471.349 15.563 471.33 15.1818H472.225C472.244 15.4162 472.325 15.6186 472.467 15.7891C472.609 15.9571 472.795 16.0874 473.024 16.1797C473.254 16.272 473.508 16.3182 473.788 16.3182C474.1 16.3182 474.377 16.2637 474.619 16.1548C474.86 16.0459 475.05 15.8944 475.187 15.7003C475.324 15.5062 475.393 15.2812 475.393 15.0256C475.393 14.758 475.327 14.5225 475.194 14.3189C475.061 14.1129 474.867 13.9519 474.612 13.8359C474.356 13.7199 474.044 13.6619 473.674 13.6619H473.092V12.8807H473.674C473.963 12.8807 474.216 12.8286 474.434 12.7244C474.654 12.6203 474.826 12.4735 474.949 12.2841C475.075 12.0947 475.137 11.8722 475.137 11.6165C475.137 11.3703 475.083 11.156 474.974 10.9737C474.865 10.7914 474.711 10.6494 474.512 10.5476C474.316 10.4458 474.084 10.3949 473.816 10.3949C473.565 10.3949 473.329 10.4411 473.106 10.5334C472.886 10.6233 472.706 10.7547 472.566 10.9276C472.427 11.098 472.351 11.304 472.339 11.5455H471.487C471.501 11.1643 471.616 10.8305 471.831 10.544C472.047 10.2552 472.328 10.0303 472.676 9.86932C473.027 9.70833 473.411 9.62784 473.83 9.62784C474.28 9.62784 474.666 9.71899 474.988 9.90128C475.31 10.0812 475.557 10.3191 475.73 10.6151C475.903 10.911 475.99 11.2306 475.99 11.5739C475.99 11.9834 475.882 12.3326 475.666 12.6214C475.453 12.9103 475.163 13.1103 474.796 13.2216V13.2784C475.256 13.3542 475.614 13.5495 475.872 13.8643C476.13 14.1768 476.259 14.5639 476.259 15.0256C476.259 15.4209 476.152 15.776 475.936 16.0909C475.723 16.4034 475.432 16.6496 475.063 16.8295C474.693 17.0095 474.273 17.0994 473.802 17.0994ZM479.857 15.7216V11.0341H480.652V15.7216H479.857ZM477.911 13.7756V12.9801H482.598V13.7756H477.911ZM484.431 17V9.72727H488.821V10.5085H485.312V12.7812H487.159C487.68 12.7812 488.119 12.8665 488.476 13.0369C488.836 13.2074 489.108 13.4477 489.293 13.7578C489.48 14.0679 489.574 14.4337 489.574 14.8551C489.574 15.2765 489.48 15.6482 489.293 15.9702C489.108 16.2921 488.836 16.5443 488.476 16.7266C488.119 16.9089 487.68 17 487.159 17H484.431ZM485.312 16.233H487.159C487.49 16.233 487.771 16.1667 488 16.0341C488.232 15.8991 488.408 15.7263 488.526 15.5156C488.647 15.3026 488.707 15.0777 488.707 14.8409C488.707 14.4929 488.573 14.1934 488.306 13.9425C488.038 13.6892 487.656 13.5625 487.159 13.5625H485.312V16.233ZM493.353 17.0994C492.884 17.0994 492.466 17.0189 492.099 16.858C491.735 16.697 491.445 16.4732 491.229 16.1868C491.016 15.898 490.9 15.563 490.881 15.1818H491.776C491.795 15.4162 491.876 15.6186 492.018 15.7891C492.16 15.9571 492.345 16.0874 492.575 16.1797C492.805 16.272 493.059 16.3182 493.339 16.3182C493.651 16.3182 493.928 16.2637 494.17 16.1548C494.411 16.0459 494.6 15.8944 494.738 15.7003C494.875 15.5062 494.944 15.2812 494.944 15.0256C494.944 14.758 494.877 14.5225 494.745 14.3189C494.612 14.1129 494.418 13.9519 494.162 13.8359C493.907 13.7199 493.594 13.6619 493.225 13.6619H492.643V12.8807H493.225C493.514 12.8807 493.767 12.8286 493.985 12.7244C494.205 12.6203 494.377 12.4735 494.5 12.2841C494.625 12.0947 494.688 11.8722 494.688 11.6165C494.688 11.3703 494.634 11.156 494.525 10.9737C494.416 10.7914 494.262 10.6494 494.063 10.5476C493.867 10.4458 493.635 10.3949 493.367 10.3949C493.116 10.3949 492.879 10.4411 492.657 10.5334C492.437 10.6233 492.257 10.7547 492.117 10.9276C491.977 11.098 491.902 11.304 491.89 11.5455H491.037C491.052 11.1643 491.166 10.8305 491.382 10.544C491.597 10.2552 491.879 10.0303 492.227 9.86932C492.577 9.70833 492.962 9.62784 493.381 9.62784C493.831 9.62784 494.217 9.71899 494.539 9.90128C494.861 10.0812 495.108 10.3191 495.281 10.6151C495.454 10.911 495.54 11.2306 495.54 11.5739C495.54 11.9834 495.433 12.3326 495.217 12.6214C495.004 12.9103 494.714 13.1103 494.347 13.2216V13.2784C494.806 13.3542 495.165 13.5495 495.423 13.8643C495.681 14.1768 495.81 14.5639 495.81 15.0256C495.81 15.4209 495.702 15.776 495.487 16.0909C495.274 16.4034 494.983 16.6496 494.613 16.8295C494.244 17.0095 493.824 17.0994 493.353 17.0994ZM497.618 13.4915V12.7244H501.993V13.4915H497.618ZM497.618 15.5938V14.8267H501.993V15.5938H497.618ZM506.852 15.8636L508.755 11.5455H509.55L507.192 17H506.511L504.195 11.5455H504.977L506.852 15.8636ZM504.707 11.5455V17H503.869V11.5455H504.707ZM508.996 17V11.5455H509.835V17H508.996ZM513.769 17.0994C513.471 17.0947 513.173 17.0379 512.874 16.929C512.576 16.8201 512.304 16.6366 512.058 16.3786C511.811 16.1181 511.614 15.7666 511.464 15.3239C511.315 14.8788 511.241 14.3201 511.241 13.6477C511.241 13.0038 511.301 12.4332 511.422 11.9361C511.543 11.4366 511.718 11.0163 511.947 10.6754C512.177 10.3321 512.454 10.0717 512.778 9.89418C513.105 9.71662 513.473 9.62784 513.883 9.62784C514.29 9.62784 514.652 9.70952 514.969 9.87287C515.289 10.0339 515.549 10.2588 515.751 10.5476C515.952 10.8364 516.082 11.169 516.141 11.5455H515.275C515.194 11.2187 515.038 10.9477 514.806 10.7322C514.574 10.5168 514.266 10.4091 513.883 10.4091C513.319 10.4091 512.875 10.6541 512.551 11.1442C512.229 11.6342 512.067 12.322 512.065 13.2074H512.121C512.254 13.0062 512.411 12.8345 512.594 12.6925C512.778 12.5481 512.982 12.4368 513.205 12.3587C513.427 12.2805 513.663 12.2415 513.911 12.2415C514.328 12.2415 514.709 12.3456 515.055 12.554C515.4 12.7599 515.677 13.0452 515.886 13.4098C516.094 13.772 516.198 14.1875 516.198 14.6562C516.198 15.1061 516.098 15.518 515.896 15.892C515.695 16.2637 515.412 16.5597 515.048 16.7798C514.685 16.9976 514.259 17.1042 513.769 17.0994ZM513.769 16.3182C514.067 16.3182 514.335 16.2436 514.572 16.0945C514.811 15.9453 514.999 15.7453 515.136 15.4943C515.276 15.2434 515.346 14.964 515.346 14.6562C515.346 14.3556 515.278 14.0821 515.143 13.8359C515.011 13.5874 514.827 13.3897 514.593 13.2429C514.361 13.0961 514.096 13.0227 513.798 13.0227C513.573 13.0227 513.363 13.0677 513.169 13.1577C512.975 13.2453 512.804 13.366 512.658 13.5199C512.513 13.6738 512.4 13.8501 512.317 14.049C512.234 14.2455 512.192 14.4527 512.192 14.6705C512.192 14.9593 512.26 15.2292 512.395 15.4801C512.532 15.7311 512.719 15.9335 512.956 16.0874C513.195 16.2412 513.466 16.3182 513.769 16.3182Z" fill="black"/>
<path d="M1 1H93V25.25C93 25.6642 86.8215 26 79.2 26H14.8C7.17847 26 1 25.6642 1 25.25V1Z" fill="white" stroke="#D6A86F" stroke-miterlimit="16"/>
<path d="M40.9057 19H39.0697L35.6677 13.42L32.2117 19H30.5017L34.7677 12.304L30.7717 6.148H32.5717L35.7217 11.188L38.8897 6.148H40.5997L36.6217 12.268L40.9057 19ZM48.8606 17.668C48.4466 17.956 48.1406 18.1 47.9246 18.1C47.6546 18.1 47.5286 17.866 47.5286 17.38V13.312C47.5286 11.674 46.5746 10.756 44.9366 10.756C43.5506 10.756 41.9486 11.638 41.9486 12.772C41.9486 13.294 42.1826 13.564 42.6686 13.564C43.1006 13.564 43.4966 13.204 43.4966 12.772C43.4966 12.628 43.4246 12.232 43.4246 12.088C43.4246 11.512 44.0546 11.188 44.6846 11.188C45.5666 11.188 46.0166 11.692 46.0166 12.7V13.78C42.6506 14.842 41.5886 15.67 41.5886 17.272C41.5886 18.226 42.2726 19.198 43.2806 19.198C44.0186 19.198 44.9546 18.748 46.0886 17.848C46.1066 18.73 46.4666 19.162 47.1686 19.162C47.7266 19.162 48.2846 18.838 48.8606 18.208V17.668ZM46.0166 17.38C45.3866 17.866 44.8466 18.1 44.3606 18.1C43.5866 18.1 43.1726 17.434 43.1726 16.66C43.1726 15.922 43.4786 15.364 44.1086 15.004C44.3246 14.86 44.9546 14.626 46.0166 14.284V17.38ZM57.4564 18.244V17.92C57.3304 17.938 57.2224 17.938 57.1324 17.938C56.5744 17.938 56.3764 17.704 56.3764 17.02V10.936H53.6764V11.332C54.8824 11.332 54.8644 11.368 54.8644 12.16V17.056C54.4864 17.722 53.8744 18.064 53.0284 18.064C52.0384 18.064 51.6964 17.578 51.6964 16.228V10.936H48.9964V11.332C50.2204 11.332 50.1844 11.386 50.1844 12.268V17.092C50.1844 18.334 51.1384 19.162 52.3804 19.162C53.3344 19.162 54.1624 18.694 54.8644 17.74V19.162L57.4564 18.244ZM61.2046 22.906C63.5806 22.906 65.9206 21.628 65.9206 19.63C65.9206 18.748 65.4166 18.19 64.4086 17.92C63.9946 17.83 63.0586 17.758 61.5646 17.74C60.5566 17.74 60.0526 17.578 60.0526 17.236C60.0526 16.948 60.3226 16.606 60.8806 16.228C61.3846 16.3 61.7986 16.336 62.1406 16.336C63.7066 16.336 64.9846 15.148 64.9846 13.564C64.9846 13.078 64.8946 12.61 64.6966 12.124H66.1006V11.332C65.8126 11.404 65.5066 11.44 65.2006 11.44C64.5526 11.44 62.5726 10.756 61.9246 10.756C60.2686 10.756 58.9366 12.07 58.9366 13.708C58.9366 14.716 59.4946 15.742 60.4126 16.084C59.4226 16.786 58.9366 17.416 58.9366 17.992C58.9366 18.442 59.2426 18.766 59.8726 18.928C58.7206 19.756 58.1446 20.476 58.1446 21.07C58.1446 22.15 59.5846 22.906 61.2046 22.906ZM63.5806 14.14C63.5806 15.094 63.1486 15.868 62.2846 15.868C61.2406 15.868 60.4126 14.392 60.4126 13.024C60.4126 12.07 60.8446 11.296 61.7086 11.296C62.7526 11.296 63.5806 12.772 63.5806 14.14ZM65.3446 20.098C65.3446 21.16 63.8326 21.826 61.7446 21.826C60.1786 21.826 59.4046 21.394 59.4046 20.53C59.4046 20.008 59.6746 19.504 60.2326 19.018C61.7986 19.252 64.8586 19.162 65.1646 19.558C65.2906 19.72 65.3446 19.9 65.3446 20.098Z" fill="black"/>
<path d="M306.1 1.1H330.9V25.25C330.9 25.2654 330.893 25.2918 330.854 25.3296C330.815 25.3676 330.752 25.4091 330.663 25.4515C330.484 25.5362 330.218 25.6151 329.882 25.6823C329.212 25.8164 328.281 25.9 327.25 25.9H309.75C308.719 25.9 307.788 25.8164 307.118 25.6823C306.782 25.6151 306.516 25.5362 306.337 25.4515C306.248 25.4091 306.185 25.3676 306.146 25.3296C306.107 25.2918 306.1 25.2654 306.1 25.25V1.1Z" fill="url(#paint12_linear_1083_245)" stroke="black" stroke-width="0.2"/>
<path d="M320.026 17.0994C319.609 17.0994 319.234 17.0166 318.9 16.8509C318.566 16.6851 318.299 16.4579 318.097 16.169C317.896 15.8802 317.786 15.5511 317.767 15.1818H318.619C318.652 15.5109 318.802 15.7831 319.067 15.9986C319.334 16.2116 319.654 16.3182 320.026 16.3182C320.324 16.3182 320.589 16.2483 320.821 16.1087C321.055 15.969 321.239 15.7772 321.371 15.5334C321.506 15.2872 321.574 15.009 321.574 14.6989C321.574 14.3816 321.504 14.0987 321.364 13.8501C321.227 13.5992 321.038 13.4015 320.796 13.2571C320.555 13.1127 320.279 13.0393 319.969 13.0369C319.746 13.0346 319.518 13.0689 319.283 13.1399C319.049 13.2086 318.856 13.2973 318.705 13.4062L317.881 13.3068L318.321 9.72727H322.099V10.5085H319.06L318.804 12.6534H318.847C318.996 12.535 319.183 12.4368 319.408 12.3587C319.633 12.2805 319.867 12.2415 320.111 12.2415C320.556 12.2415 320.952 12.348 321.3 12.5611C321.651 12.7718 321.925 13.0606 322.124 13.4276C322.326 13.7945 322.426 14.2135 322.426 14.6847C322.426 15.1487 322.322 15.563 322.114 15.9276C321.908 16.2898 321.624 16.5762 321.261 16.7869C320.899 16.9953 320.487 17.0994 320.026 17.0994Z" fill="black"/>
<path d="M316.249 13.91L315.001 14.326V12.077L316.249 11.661V13.91ZM316.249 8.528V10.478L315.001 10.894V8.944H314.676V10.985L314 11.206V12.389L314.676 12.168V14.417L314 14.638V15.821L314.676 15.6V17.459H315.001V15.509L316.249 15.093V17.043H316.574V15.002L317.25 14.781V13.598L316.574 13.819V11.57L317.25 11.349V10.166L316.574 10.387V8.528H316.249Z" fill="black"/>
<defs>
<radialGradient id="paint0_radial_1083_245" cx="0" cy="0" r="1" gradientUnits="userSpaceOnUse" gradientTransform="translate(368.5 13.5) rotate(90) scale(12.5)">
<stop offset="0.171875"/>
<stop offset="0.171975" stop-color="white"/>
</radialGradient>
<radialGradient id="paint1_radial_1083_245" cx="0" cy="0" r="1" gradientUnits="userSpaceOnUse" gradientTransform="translate(393.5 13.5) rotate(90) scale(12.5)">
<stop offset="0.171875"/>
<stop offset="0.171975" stop-color="white"/>
</radialGradient>
<radialGradient id="paint2_radial_1083_245" cx="0" cy="0" r="1" gradientUnits="userSpaceOnUse" gradientTransform="translate(343.5 13.5) rotate(90) scale(12.5)">
<stop offset="0.171875"/>
<stop offset="0.171975" stop-color="white"/>
</radialGradient>
<radialGradient id="paint3_radial_1083_245" cx="0" cy="0" r="1" gradientUnits="userSpaceOnUse" gradientTransform="translate(293.5 13.5) rotate(90) scale(12.5)">
<stop offset="0.171875"/>
<stop offset="0.171975" stop-color="white"/>
</radialGradient>
<radialGradient id="paint4_radial_1083_245" cx="0" cy="0" r="1" gradientUnits="userSpaceOnUse" gradientTransform="translate(268.5 13.5) rotate(90) scale(12.5)">
<stop offset="0.171875"/>
<stop offset="0.171975" stop-color="white"/>
</radialGradient>
<radialGradient id="paint5_radial_1083_245" cx="0" cy="0" r="1" gradientUnits="userSpaceOnUse" gradientTransform="translate(243.5 13.5) rotate(90) scale(12.5)">
<stop offset="0.171875"/>
<stop offset="0.171975" stop-color="white"/>
</radialGradient>
<radialGradient id="paint6_radial_1083_245" cx="0" cy="0" r="1" gradientUnits="userSpaceOnUse" gradientTransform="translate(193.5 13.5) rotate(90) scale(12.5)">
<stop offset="0.171875"/>
<stop offset="0.171975" stop-color="white"/>
</radialGradient>
<linearGradient id="paint7_linear_1083_245" x1="218.5" y1="1" x2="218.5" y2="26" gradientUnits="userSpaceOnUse">
<stop offset="0.255208" stop-color="#DDB078"/>
<stop offset="0.598958" stop-color="#F4D6B1"/>
</linearGradient>
<radialGradient id="paint8_radial_1083_245" cx="0" cy="0" r="1" gradientUnits="userSpaceOnUse" gradientTransform="translate(168.5 13.5) rotate(90) scale(12.5)">
<stop offset="0.171875"/>
<stop offset="0.171975" stop-color="white"/>
</radialGradient>
<radialGradient id="paint9_radial_1083_245" cx="0" cy="0" r="1" gradientUnits="userSpaceOnUse" gradientTransform="translate(143.5 13.5) rotate(90) scale(12.5)">
<stop offset="0.171875"/>
<stop offset="0.171975" stop-color="white"/>
</radialGradient>
<linearGradient id="paint10_linear_1083_245" x1="118.5" y1="1" x2="118.5" y2="26" gradientUnits="userSpaceOnUse">
<stop offset="0.255208" stop-color="#DDB078"/>
<stop offset="0.598958" stop-color="#F4D6B1"/>
</linearGradient>
<linearGradient id="paint11_linear_1083_245" x1="118.5" y1="1" x2="118.5" y2="26" gradientUnits="userSpaceOnUse">
<stop offset="0.255208" stop-color="#DDB078"/>
<stop offset="0.598958" stop-color="#F4D6B1"/>
</linearGradient>
<linearGradient id="paint12_linear_1083_245" x1="318.5" y1="1" x2="318.5" y2="26" gradientUnits="userSpaceOnUse">
<stop offset="0.255208" stop-color="#DDB078"/>
<stop offset="0.598958" stop-color="#F4D6B1"/>
</linearGradient>
</defs>
</svg>
