<svg width="75" height="25" viewBox="0 0 75 25" fill="none" xmlns="http://www.w3.org/2000/svg">
<path d="M0.1 0.1H24.9V24.25C24.9 24.2654 24.8926 24.2918 24.8539 24.3296C24.815 24.3676 24.7523 24.4091 24.6626 24.4515C24.4835 24.5362 24.2181 24.6151 23.882 24.6823C23.2116 24.8164 22.281 24.9 21.25 24.9H3.75C2.719 24.9 1.78838 24.8164 1.11796 24.6823C0.781929 24.6151 0.516476 24.5362 0.337441 24.4515C0.24767 24.4091 0.184964 24.3676 0.146084 24.3296C0.107371 24.2918 0.1 24.2654 0.1 24.25V0.1Z" fill="#D6A86F" stroke="black" stroke-width="0.2"/>
<path d="M6.05682 17V8.27273H11.3239V9.21023H7.11364V11.9375H9.32955C9.95455 11.9375 10.4815 12.0398 10.9105 12.2443C11.3423 12.4489 11.669 12.7372 11.8906 13.1094C12.1151 13.4815 12.2273 13.9205 12.2273 14.4261C12.2273 14.9318 12.1151 15.3778 11.8906 15.7642C11.669 16.1506 11.3423 16.4531 10.9105 16.6719C10.4815 16.8906 9.95455 17 9.32955 17H6.05682ZM7.11364 16.0795H9.32955C9.72727 16.0795 10.0639 16 10.3395 15.8409C10.6179 15.679 10.8281 15.4716 10.9702 15.2188C11.1151 14.9631 11.1875 14.6932 11.1875 14.4091C11.1875 13.9915 11.027 13.6321 10.706 13.331C10.3849 13.027 9.92614 12.875 9.32955 12.875H7.11364V16.0795ZM13.8136 17V16.233L16.6942 13.0795C17.0323 12.7102 17.3107 12.3892 17.5295 12.1165C17.7482 11.8409 17.9102 11.5824 18.0153 11.3409C18.1232 11.0966 18.1772 10.8409 18.1772 10.5739C18.1772 10.267 18.1033 10.0014 17.9556 9.77699C17.8107 9.55256 17.6119 9.37926 17.359 9.2571C17.1062 9.13494 16.8221 9.07386 16.5067 9.07386C16.1715 9.07386 15.8789 9.14347 15.6289 9.28267C15.3817 9.41903 15.19 9.6108 15.0536 9.85795C14.9201 10.1051 14.8533 10.3949 14.8533 10.7273H13.8477C13.8477 10.2159 13.9656 9.76705 14.2013 9.38068C14.4371 8.99432 14.7582 8.69318 15.1644 8.47727C15.5735 8.26136 16.0323 8.15341 16.5408 8.15341C17.0522 8.15341 17.5053 8.26136 17.9002 8.47727C18.2951 8.69318 18.6048 8.98437 18.8292 9.35085C19.0536 9.71733 19.1658 10.125 19.1658 10.5739C19.1658 10.8949 19.1076 11.2088 18.9911 11.5156C18.8775 11.8196 18.6786 12.1591 18.3945 12.5341C18.1133 12.9062 17.7227 13.3608 17.2227 13.8977L15.2624 15.9943V16.0625H19.3192V17H13.8136Z" fill="black"/>
<path d="M25.1 0.1H49.9V24.25C49.9 24.2654 49.8926 24.2918 49.8539 24.3296C49.815 24.3676 49.7523 24.4091 49.6626 24.4515C49.4835 24.5362 49.2181 24.6151 48.882 24.6823C48.2116 24.8164 47.281 24.9 46.25 24.9H28.75C27.719 24.9 26.7884 24.8164 26.118 24.6823C25.7819 24.6151 25.5165 24.5362 25.3374 24.4515C25.2477 24.4091 25.185 24.3676 25.1461 24.3296C25.1074 24.2918 25.1 24.2654 25.1 24.25V0.1Z" fill="#D6A86F" stroke="black" stroke-width="0.2"/>
<path d="M50.1 0.1H74.9V24.25C74.9 24.2654 74.8926 24.2918 74.8539 24.3296C74.815 24.3676 74.7523 24.4091 74.6626 24.4515C74.4835 24.5362 74.2181 24.6151 73.882 24.6823C73.2116 24.8164 72.281 24.9 71.25 24.9H53.75C52.719 24.9 51.7884 24.8164 51.118 24.6823C50.7819 24.6151 50.5165 24.5362 50.3374 24.4515C50.2477 24.4091 50.185 24.3676 50.1461 24.3296C50.1074 24.2918 50.1 24.2654 50.1 24.25V0.1Z" fill="#D6A86F" stroke="black" stroke-width="0.2"/>
</svg>
