<svg width="125" height="25" viewBox="0 0 125 25" fill="none" xmlns="http://www.w3.org/2000/svg">
<path d="M0.1 0.1H24.9V24.25C24.9 24.2654 24.8926 24.2918 24.8539 24.3296C24.815 24.3676 24.7523 24.4091 24.6626 24.4515C24.4835 24.5362 24.2181 24.6151 23.882 24.6823C23.2116 24.8164 22.281 24.9 21.25 24.9H3.75C2.719 24.9 1.78838 24.8164 1.11796 24.6823C0.781929 24.6151 0.516476 24.5362 0.337441 24.4515C0.24767 24.4091 0.184964 24.3676 0.146084 24.3296C0.107371 24.2918 0.1 24.2654 0.1 24.25V0.1Z" fill="#D6A86F" stroke="black" stroke-width="0.2"/>
<path d="M6.05682 17V8.27273H11.3239V9.21023H7.11364V11.9375H9.32955C9.95455 11.9375 10.4815 12.0398 10.9105 12.2443C11.3423 12.4489 11.669 12.7372 11.8906 13.1094C12.1151 13.4815 12.2273 13.9205 12.2273 14.4261C12.2273 14.9318 12.1151 15.3778 11.8906 15.7642C11.669 16.1506 11.3423 16.4531 10.9105 16.6719C10.4815 16.8906 9.95455 17 9.32955 17H6.05682ZM7.11364 16.0795H9.32955C9.72727 16.0795 10.0639 16 10.3395 15.8409C10.6179 15.679 10.8281 15.4716 10.9702 15.2188C11.1151 14.9631 11.1875 14.6932 11.1875 14.4091C11.1875 13.9915 11.027 13.6321 10.706 13.331C10.3849 13.027 9.92614 12.875 9.32955 12.875H7.11364V16.0795ZM16.7624 17.1193C16.1999 17.1193 15.6985 17.0227 15.2582 16.8295C14.8207 16.6364 14.4727 16.3679 14.2141 16.0241C13.9585 15.6776 13.8192 15.2756 13.7965 14.8182H14.8704C14.8931 15.0994 14.9897 15.3423 15.1602 15.5469C15.3306 15.7486 15.5536 15.9048 15.8292 16.0156C16.1048 16.1264 16.4102 16.1818 16.7454 16.1818C17.1204 16.1818 17.4528 16.1165 17.7425 15.9858C18.0323 15.8551 18.2596 15.6733 18.4244 15.4403C18.5891 15.2074 18.6715 14.9375 18.6715 14.6307C18.6715 14.3097 18.592 14.027 18.4329 13.7827C18.2738 13.5355 18.0408 13.3423 17.734 13.2031C17.4272 13.0639 17.0522 12.9943 16.609 12.9943H15.9102V12.0568H16.609C16.9556 12.0568 17.2596 11.9943 17.521 11.8693C17.7852 11.7443 17.9911 11.5682 18.1388 11.3409C18.2894 11.1136 18.3647 10.8466 18.3647 10.5398C18.3647 10.2443 18.2994 9.98722 18.1687 9.76847C18.038 9.54972 17.8533 9.37926 17.6147 9.2571C17.3789 9.13494 17.1005 9.07386 16.7795 9.07386C16.4783 9.07386 16.1942 9.12926 15.9272 9.24006C15.663 9.34801 15.4471 9.50568 15.2795 9.71307C15.1119 9.91761 15.021 10.1648 15.0067 10.4545H13.984C14.0011 9.99716 14.1388 9.59659 14.3974 9.25284C14.6559 8.90625 14.994 8.63636 15.4116 8.44318C15.832 8.25 16.2937 8.15341 16.7965 8.15341C17.3363 8.15341 17.7994 8.26278 18.1857 8.48153C18.5721 8.69744 18.869 8.98295 19.0763 9.33807C19.2837 9.69318 19.3874 10.0767 19.3874 10.4886C19.3874 10.9801 19.2582 11.3991 18.9996 11.7457C18.744 12.0923 18.396 12.3324 17.9556 12.4659V12.5341C18.5067 12.625 18.9371 12.8594 19.2468 13.2372C19.5565 13.6122 19.7113 14.0767 19.7113 14.6307C19.7113 15.1051 19.582 15.5312 19.3235 15.9091C19.0678 16.2841 18.7184 16.5795 18.2752 16.7955C17.832 17.0114 17.3278 17.1193 16.7624 17.1193Z" fill="black"/>
<path d="M25.1 0.1H49.9V24.25C49.9 24.2654 49.8926 24.2918 49.8539 24.3296C49.815 24.3676 49.7523 24.4091 49.6626 24.4515C49.4835 24.5362 49.2181 24.6151 48.882 24.6823C48.2116 24.8164 47.281 24.9 46.25 24.9H28.75C27.719 24.9 26.7884 24.8164 26.118 24.6823C25.7819 24.6151 25.5165 24.5362 25.3374 24.4515C25.2477 24.4091 25.185 24.3676 25.1461 24.3296C25.1074 24.2918 25.1 24.2654 25.1 24.25V0.1Z" fill="url(#paint0_radial_1853_161)" stroke="black" stroke-width="0.2"/>
<path d="M50.1 0.1H74.9V24.25C74.9 24.2654 74.8926 24.2918 74.8539 24.3296C74.815 24.3676 74.7523 24.4091 74.6626 24.4515C74.4835 24.5362 74.2181 24.6151 73.882 24.6823C73.2116 24.8164 72.281 24.9 71.25 24.9H53.75C52.719 24.9 51.7884 24.8164 51.118 24.6823C50.7819 24.6151 50.5165 24.5362 50.3374 24.4515C50.2477 24.4091 50.185 24.3676 50.1461 24.3296C50.1074 24.2918 50.1 24.2654 50.1 24.25V0.1Z" fill="#D6A86F" stroke="black" stroke-width="0.2"/>
<path d="M75.1 0.1H99.9V24.25C99.9 24.2654 99.8926 24.2918 99.8539 24.3296C99.815 24.3676 99.7523 24.4091 99.6626 24.4515C99.4835 24.5362 99.2181 24.6151 98.882 24.6823C98.2116 24.8164 97.281 24.9 96.25 24.9H78.75C77.719 24.9 76.7884 24.8164 76.118 24.6823C75.7819 24.6151 75.5165 24.5362 75.3374 24.4515C75.2477 24.4091 75.185 24.3676 75.1461 24.3296C75.1074 24.2918 75.1 24.2654 75.1 24.25V0.1Z" fill="url(#paint1_radial_1853_161)" stroke="black" stroke-width="0.2"/>
<path d="M100.1 0.1H124.9V24.25C124.9 24.2654 124.893 24.2918 124.854 24.3296C124.815 24.3676 124.752 24.4091 124.663 24.4515C124.484 24.5362 124.218 24.6151 123.882 24.6823C123.212 24.8164 122.281 24.9 121.25 24.9H103.75C102.719 24.9 101.788 24.8164 101.118 24.6823C100.782 24.6151 100.516 24.5362 100.337 24.4515C100.248 24.4091 100.185 24.3676 100.146 24.3296C100.107 24.2918 100.1 24.2654 100.1 24.25V0.1Z" fill="#D6A86F" stroke="black" stroke-width="0.2"/>
<defs>
<radialGradient id="paint0_radial_1853_161" cx="0" cy="0" r="1" gradientUnits="userSpaceOnUse" gradientTransform="translate(37.5 12.5) rotate(90) scale(12.5)">
<stop offset="0.171875"/>
<stop offset="0.171975" stop-color="white"/>
</radialGradient>
<radialGradient id="paint1_radial_1853_161" cx="0" cy="0" r="1" gradientUnits="userSpaceOnUse" gradientTransform="translate(87.5 12.5) rotate(90) scale(12.5)">
<stop offset="0.171875"/>
<stop offset="0.171975" stop-color="white"/>
</radialGradient>
</defs>
</svg>
