<svg width="375" height="25" viewBox="0 0 375 25" fill="none" xmlns="http://www.w3.org/2000/svg">
<path d="M0.1 0.1H24.9V24.25C24.9 24.2654 24.8926 24.2918 24.8539 24.3296C24.815 24.3676 24.7523 24.4091 24.6626 24.4515C24.4835 24.5362 24.2181 24.6151 23.882 24.6823C23.2116 24.8164 22.281 24.9 21.25 24.9H3.75C2.719 24.9 1.78838 24.8164 1.11796 24.6823C0.781929 24.6151 0.516476 24.5362 0.337441 24.4515C0.247669 24.4091 0.184964 24.3676 0.146084 24.3296C0.107371 24.2918 0.1 24.2654 0.1 24.25V0.1Z" fill="#D6A86F" stroke="black" stroke-width="0.2"/>
<path d="M6.05682 17V8.27273H11.3239V9.21023H7.11364V11.9375H9.32955C9.95455 11.9375 10.4815 12.0398 10.9105 12.2443C11.3423 12.4489 11.669 12.7372 11.8906 13.1094C12.1151 13.4815 12.2273 13.9205 12.2273 14.4261C12.2273 14.9318 12.1151 15.3778 11.8906 15.7642C11.669 16.1506 11.3423 16.4531 10.9105 16.6719C10.4815 16.8906 9.95455 17 9.32955 17H6.05682ZM7.11364 16.0795H9.32955C9.72727 16.0795 10.0639 16 10.3395 15.8409C10.6179 15.679 10.8281 15.4716 10.9702 15.2188C11.1151 14.9631 11.1875 14.6932 11.1875 14.4091C11.1875 13.9915 11.027 13.6321 10.706 13.331C10.3849 13.027 9.92614 12.875 9.32955 12.875H7.11364V16.0795ZM16.592 8.15341C16.9499 8.15625 17.3079 8.22443 17.6658 8.35795C18.0238 8.49148 18.3505 8.71307 18.646 9.02273C18.9414 9.32955 19.1786 9.74858 19.3576 10.2798C19.5366 10.8111 19.6261 11.4773 19.6261 12.2784C19.6261 13.054 19.5522 13.7429 19.4045 14.3452C19.2596 14.9446 19.0494 15.4503 18.7738 15.8622C18.5011 16.2741 18.1687 16.5866 17.7766 16.7997C17.3874 17.0128 16.9471 17.1193 16.4556 17.1193C15.967 17.1193 15.5309 17.0227 15.1474 16.8295C14.7667 16.6335 14.4542 16.3622 14.2099 16.0156C13.9684 15.6662 13.8136 15.2614 13.7454 14.8011H14.7852C14.8789 15.2017 15.065 15.5327 15.3434 15.794C15.6246 16.0526 15.9954 16.1818 16.4556 16.1818C17.1289 16.1818 17.6602 15.8878 18.0494 15.2997C18.4414 14.7116 18.6374 13.8807 18.6374 12.8068H18.5692C18.4102 13.0455 18.2212 13.2514 18.0025 13.4247C17.7837 13.598 17.5408 13.7315 17.2738 13.8253C17.0067 13.919 16.7227 13.9659 16.4215 13.9659C15.9215 13.9659 15.4627 13.8423 15.0451 13.5952C14.6303 13.3452 14.2979 13.0028 14.0479 12.5682C13.8008 12.1307 13.6772 11.6307 13.6772 11.0682C13.6772 10.5341 13.7965 10.0455 14.0352 9.60227C14.2766 9.15625 14.6147 8.80114 15.0494 8.53693C15.4869 8.27273 16.0011 8.14489 16.592 8.15341ZM16.592 9.09091C16.234 9.09091 15.9116 9.1804 15.6246 9.35938C15.3406 9.53551 15.1147 9.77415 14.9471 10.0753C14.7823 10.3736 14.6999 10.7045 14.6999 11.0682C14.6999 11.4318 14.7795 11.7628 14.9386 12.0611C15.1005 12.3565 15.3207 12.5923 15.5991 12.7685C15.8803 12.9418 16.1999 13.0284 16.5579 13.0284C16.8278 13.0284 17.0792 12.9759 17.3121 12.8707C17.5451 12.7628 17.7482 12.6165 17.9215 12.4318C18.0977 12.2443 18.2354 12.0327 18.3349 11.7969C18.4343 11.5582 18.484 11.3097 18.484 11.0511C18.484 10.7102 18.4016 10.3906 18.2369 10.0923C18.0749 9.79403 17.8505 9.55256 17.5636 9.3679C17.2795 9.18324 16.9556 9.09091 16.592 9.09091Z" fill="black"/>
<path d="M25.1 0.1H49.9V24.25C49.9 24.2654 49.8926 24.2918 49.8539 24.3296C49.815 24.3676 49.7523 24.4091 49.6626 24.4515C49.4835 24.5362 49.2181 24.6151 48.882 24.6823C48.2116 24.8164 47.281 24.9 46.25 24.9H28.75C27.719 24.9 26.7884 24.8164 26.118 24.6823C25.7819 24.6151 25.5165 24.5362 25.3374 24.4515C25.2477 24.4091 25.185 24.3676 25.1461 24.3296C25.1074 24.2918 25.1 24.2654 25.1 24.25V0.1Z" fill="url(#paint0_radial_1856_107)" stroke="black" stroke-width="0.2"/>
<path d="M50.1 0.1H74.9V24.25C74.9 24.2654 74.8926 24.2918 74.8539 24.3296C74.815 24.3676 74.7523 24.4091 74.6626 24.4515C74.4835 24.5362 74.2181 24.6151 73.882 24.6823C73.2116 24.8164 72.281 24.9 71.25 24.9H53.75C52.719 24.9 51.7884 24.8164 51.118 24.6823C50.7819 24.6151 50.5165 24.5362 50.3374 24.4515C50.2477 24.4091 50.185 24.3676 50.1461 24.3296C50.1074 24.2918 50.1 24.2654 50.1 24.25V0.1Z" fill="url(#paint1_radial_1856_107)" stroke="black" stroke-width="0.2"/>
<path d="M75.1 0.1H99.9V24.25C99.9 24.2654 99.8926 24.2918 99.8539 24.3296C99.815 24.3676 99.7523 24.4091 99.6626 24.4515C99.4835 24.5362 99.2181 24.6151 98.882 24.6823C98.2116 24.8164 97.281 24.9 96.25 24.9H78.75C77.719 24.9 76.7884 24.8164 76.118 24.6823C75.7819 24.6151 75.5165 24.5362 75.3374 24.4515C75.2477 24.4091 75.185 24.3676 75.1461 24.3296C75.1074 24.2918 75.1 24.2654 75.1 24.25V0.1Z" fill="url(#paint2_radial_1856_107)" stroke="black" stroke-width="0.2"/>
<path d="M100.1 0.1H124.9V24.25C124.9 24.2654 124.893 24.2918 124.854 24.3296C124.815 24.3676 124.752 24.4091 124.663 24.4515C124.484 24.5362 124.218 24.6151 123.882 24.6823C123.212 24.8164 122.281 24.9 121.25 24.9H103.75C102.719 24.9 101.788 24.8164 101.118 24.6823C100.782 24.6151 100.516 24.5362 100.337 24.4515C100.248 24.4091 100.185 24.3676 100.146 24.3296C100.107 24.2918 100.1 24.2654 100.1 24.25V0.1Z" fill="url(#paint3_radial_1856_107)" stroke="black" stroke-width="0.2"/>
<path d="M125.1 0.1H149.9V24.25C149.9 24.2654 149.893 24.2918 149.854 24.3296C149.815 24.3676 149.752 24.4091 149.663 24.4515C149.484 24.5362 149.218 24.6151 148.882 24.6823C148.212 24.8164 147.281 24.9 146.25 24.9H128.75C127.719 24.9 126.788 24.8164 126.118 24.6823C125.782 24.6151 125.516 24.5362 125.337 24.4515C125.248 24.4091 125.185 24.3676 125.146 24.3296C125.107 24.2918 125.1 24.2654 125.1 24.25V0.1Z" fill="url(#paint4_radial_1856_107)" stroke="black" stroke-width="0.2"/>
<path d="M150.1 0.1H174.9V24.25C174.9 24.2654 174.893 24.2918 174.854 24.3296C174.815 24.3676 174.752 24.4091 174.663 24.4515C174.484 24.5362 174.218 24.6151 173.882 24.6823C173.212 24.8164 172.281 24.9 171.25 24.9H153.75C152.719 24.9 151.788 24.8164 151.118 24.6823C150.782 24.6151 150.516 24.5362 150.337 24.4515C150.248 24.4091 150.185 24.3676 150.146 24.3296C150.107 24.2918 150.1 24.2654 150.1 24.25V0.1Z" fill="url(#paint5_radial_1856_107)" stroke="black" stroke-width="0.2"/>
<path d="M175.1 0.1H199.9V24.25C199.9 24.2654 199.893 24.2918 199.854 24.3296C199.815 24.3676 199.752 24.4091 199.663 24.4515C199.484 24.5362 199.218 24.6151 198.882 24.6823C198.212 24.8164 197.281 24.9 196.25 24.9H178.75C177.719 24.9 176.788 24.8164 176.118 24.6823C175.782 24.6151 175.516 24.5362 175.337 24.4515C175.248 24.4091 175.185 24.3676 175.146 24.3296C175.107 24.2918 175.1 24.2654 175.1 24.25V0.1Z" fill="#D6A86F" stroke="black" stroke-width="0.2"/>
<path d="M200.1 0.1H224.9V24.25C224.9 24.2654 224.893 24.2918 224.854 24.3296C224.815 24.3676 224.752 24.4091 224.663 24.4515C224.484 24.5362 224.218 24.6151 223.882 24.6823C223.212 24.8164 222.281 24.9 221.25 24.9H203.75C202.719 24.9 201.788 24.8164 201.118 24.6823C200.782 24.6151 200.516 24.5362 200.337 24.4515C200.248 24.4091 200.185 24.3676 200.146 24.3296C200.107 24.2918 200.1 24.2654 200.1 24.25V0.1Z" fill="url(#paint6_radial_1856_107)" stroke="black" stroke-width="0.2"/>
<path d="M225.1 0.1H249.9V24.25C249.9 24.2654 249.893 24.2918 249.854 24.3296C249.815 24.3676 249.752 24.4091 249.663 24.4515C249.484 24.5362 249.218 24.6151 248.882 24.6823C248.212 24.8164 247.281 24.9 246.25 24.9H228.75C227.719 24.9 226.788 24.8164 226.118 24.6823C225.782 24.6151 225.516 24.5362 225.337 24.4515C225.248 24.4091 225.185 24.3676 225.146 24.3296C225.107 24.2918 225.1 24.2654 225.1 24.25V0.1Z" fill="url(#paint7_radial_1856_107)" stroke="black" stroke-width="0.2"/>
<path d="M250.1 0.1H274.9V24.25C274.9 24.2654 274.893 24.2918 274.854 24.3296C274.815 24.3676 274.752 24.4091 274.663 24.4515C274.484 24.5362 274.218 24.6151 273.882 24.6823C273.212 24.8164 272.281 24.9 271.25 24.9H253.75C252.719 24.9 251.788 24.8164 251.118 24.6823C250.782 24.6151 250.516 24.5362 250.337 24.4515C250.248 24.4091 250.185 24.3676 250.146 24.3296C250.107 24.2918 250.1 24.2654 250.1 24.25V0.1Z" fill="url(#paint8_radial_1856_107)" stroke="black" stroke-width="0.2"/>
<path d="M275.1 0.1H299.9V24.25C299.9 24.2654 299.893 24.2918 299.854 24.3296C299.815 24.3676 299.752 24.4091 299.663 24.4515C299.484 24.5362 299.218 24.6151 298.882 24.6823C298.212 24.8164 297.281 24.9 296.25 24.9H278.75C277.719 24.9 276.788 24.8164 276.118 24.6823C275.782 24.6151 275.516 24.5362 275.337 24.4515C275.248 24.4091 275.185 24.3676 275.146 24.3296C275.107 24.2918 275.1 24.2654 275.1 24.25V0.1Z" fill="url(#paint9_radial_1856_107)" stroke="black" stroke-width="0.2"/>
<path d="M300.1 0.1H324.9V24.25C324.9 24.2654 324.893 24.2918 324.854 24.3296C324.815 24.3676 324.752 24.4091 324.663 24.4515C324.484 24.5362 324.218 24.6151 323.882 24.6823C323.212 24.8164 322.281 24.9 321.25 24.9H303.75C302.719 24.9 301.788 24.8164 301.118 24.6823C300.782 24.6151 300.516 24.5362 300.337 24.4515C300.248 24.4091 300.185 24.3676 300.146 24.3296C300.107 24.2918 300.1 24.2654 300.1 24.25V0.1Z" fill="url(#paint10_radial_1856_107)" stroke="black" stroke-width="0.2"/>
<path d="M325.1 0.1H349.9V24.25C349.9 24.2654 349.893 24.2918 349.854 24.3296C349.815 24.3676 349.752 24.4091 349.663 24.4515C349.484 24.5362 349.218 24.6151 348.882 24.6823C348.212 24.8164 347.281 24.9 346.25 24.9H328.75C327.719 24.9 326.788 24.8164 326.118 24.6823C325.782 24.6151 325.516 24.5362 325.337 24.4515C325.248 24.4091 325.185 24.3676 325.146 24.3296C325.107 24.2918 325.1 24.2654 325.1 24.25V0.1Z" fill="url(#paint11_radial_1856_107)" stroke="black" stroke-width="0.2"/>
<path d="M350.1 0.1H374.9V24.25C374.9 24.2654 374.893 24.2918 374.854 24.3296C374.815 24.3676 374.752 24.4091 374.663 24.4515C374.484 24.5362 374.218 24.6151 373.882 24.6823C373.212 24.8164 372.281 24.9 371.25 24.9H353.75C352.719 24.9 351.788 24.8164 351.118 24.6823C350.782 24.6151 350.516 24.5362 350.337 24.4515C350.248 24.4091 350.185 24.3676 350.146 24.3296C350.107 24.2918 350.1 24.2654 350.1 24.25V0.1Z" fill="#D6A86F" stroke="black" stroke-width="0.2"/>
<defs>
<radialGradient id="paint0_radial_1856_107" cx="0" cy="0" r="1" gradientUnits="userSpaceOnUse" gradientTransform="translate(37.5 12.5) rotate(90) scale(12.5)">
<stop offset="0.171875"/>
<stop offset="0.171975" stop-color="white"/>
</radialGradient>
<radialGradient id="paint1_radial_1856_107" cx="0" cy="0" r="1" gradientUnits="userSpaceOnUse" gradientTransform="translate(62.5 12.5) rotate(90) scale(12.5)">
<stop offset="0.171875"/>
<stop offset="0.171975" stop-color="white"/>
</radialGradient>
<radialGradient id="paint2_radial_1856_107" cx="0" cy="0" r="1" gradientUnits="userSpaceOnUse" gradientTransform="translate(87.5 12.5) rotate(90) scale(12.5)">
<stop offset="0.171875"/>
<stop offset="0.171975" stop-color="white"/>
</radialGradient>
<radialGradient id="paint3_radial_1856_107" cx="0" cy="0" r="1" gradientUnits="userSpaceOnUse" gradientTransform="translate(112.5 12.5) rotate(90) scale(12.5)">
<stop offset="0.171875"/>
<stop offset="0.171975" stop-color="white"/>
</radialGradient>
<radialGradient id="paint4_radial_1856_107" cx="0" cy="0" r="1" gradientUnits="userSpaceOnUse" gradientTransform="translate(137.5 12.5) rotate(90) scale(12.5)">
<stop offset="0.171875"/>
<stop offset="0.171975" stop-color="white"/>
</radialGradient>
<radialGradient id="paint5_radial_1856_107" cx="0" cy="0" r="1" gradientUnits="userSpaceOnUse" gradientTransform="translate(162.5 12.5) rotate(90) scale(12.5)">
<stop offset="0.171875"/>
<stop offset="0.171975" stop-color="white"/>
</radialGradient>
<radialGradient id="paint6_radial_1856_107" cx="0" cy="0" r="1" gradientUnits="userSpaceOnUse" gradientTransform="translate(212.5 12.5) rotate(90) scale(12.5)">
<stop offset="0.171875"/>
<stop offset="0.171975" stop-color="white"/>
</radialGradient>
<radialGradient id="paint7_radial_1856_107" cx="0" cy="0" r="1" gradientUnits="userSpaceOnUse" gradientTransform="translate(237.5 12.5) rotate(90) scale(12.5)">
<stop offset="0.171875"/>
<stop offset="0.171975" stop-color="white"/>
</radialGradient>
<radialGradient id="paint8_radial_1856_107" cx="0" cy="0" r="1" gradientUnits="userSpaceOnUse" gradientTransform="translate(262.5 12.5) rotate(90) scale(12.5)">
<stop offset="0.171875"/>
<stop offset="0.171975" stop-color="white"/>
</radialGradient>
<radialGradient id="paint9_radial_1856_107" cx="0" cy="0" r="1" gradientUnits="userSpaceOnUse" gradientTransform="translate(287.5 12.5) rotate(90) scale(12.5)">
<stop offset="0.171875"/>
<stop offset="0.171975" stop-color="white"/>
</radialGradient>
<radialGradient id="paint10_radial_1856_107" cx="0" cy="0" r="1" gradientUnits="userSpaceOnUse" gradientTransform="translate(312.5 12.5) rotate(90) scale(12.5)">
<stop offset="0.171875"/>
<stop offset="0.171975" stop-color="white"/>
</radialGradient>
<radialGradient id="paint11_radial_1856_107" cx="0" cy="0" r="1" gradientUnits="userSpaceOnUse" gradientTransform="translate(337.5 12.5) rotate(90) scale(12.5)">
<stop offset="0.171875"/>
<stop offset="0.171975" stop-color="white"/>
</radialGradient>
</defs>
</svg>
