<svg width="375" height="45" viewBox="0 0 375 45" fill="none" xmlns="http://www.w3.org/2000/svg">
<path d="M13 10V6H186V10" stroke="white" stroke-dasharray="2 2"/>
<rect x="93.5" width="11" height="10" fill="white"/>
<path d="M98.2468 3.63636V8H97.5763V3.63636H98.2468ZM97.9854 5.71591V6.34091C97.8339 6.39773 97.6834 6.44792 97.5337 6.49148C97.3841 6.53314 97.2269 6.56629 97.0621 6.59091C96.8974 6.61364 96.7165 6.625 96.5195 6.625C96.0252 6.625 95.6284 6.49148 95.3292 6.22443C95.0318 5.95739 94.8832 5.55682 94.8832 5.02273V3.625H95.5536V5.02273C95.5536 5.24621 95.5962 5.42992 95.6815 5.57386C95.7667 5.7178 95.8822 5.82481 96.0281 5.89489C96.1739 5.96496 96.3377 6 96.5195 6C96.8036 6 97.0603 5.97443 97.2894 5.9233C97.5205 5.87027 97.7525 5.80114 97.9854 5.71591ZM101.284 8.07955C100.95 8.07955 100.65 8.01326 100.383 7.88068C100.116 7.74811 99.9021 7.56629 99.7411 7.33523C99.5801 7.10417 99.4921 6.84091 99.4769 6.54545H100.159C100.185 6.80871 100.305 7.02652 100.517 7.19886C100.731 7.36932 100.986 7.45455 101.284 7.45455C101.522 7.45455 101.734 7.39867 101.92 7.28693C102.108 7.17519 102.254 7.02178 102.36 6.8267C102.468 6.62973 102.522 6.4072 102.522 6.15909C102.522 5.9053 102.467 5.67898 102.355 5.48011C102.245 5.27936 102.093 5.12121 101.9 5.00568C101.707 4.89015 101.486 4.83144 101.238 4.82955C101.06 4.82765 100.877 4.85511 100.69 4.91193C100.502 4.96686 100.348 5.03788 100.227 5.125L99.5678 5.04545L99.9201 2.18182H102.943V2.80682H100.511L100.306 4.52273H100.341C100.46 4.42803 100.609 4.34943 100.789 4.28693C100.969 4.22443 101.157 4.19318 101.352 4.19318C101.708 4.19318 102.025 4.27841 102.304 4.44886C102.584 4.61742 102.804 4.84848 102.963 5.14205C103.124 5.43561 103.204 5.77083 103.204 6.14773C103.204 6.51894 103.121 6.85038 102.954 7.14205C102.789 7.43182 102.562 7.66098 102.272 7.82955C101.983 7.99621 101.653 8.07955 101.284 8.07955Z" fill="black"/>
<path d="M189 10V6H362V10" stroke="white" stroke-dasharray="2 2"/>
<rect x="269.5" width="11" height="10" fill="white"/>
<path d="M274.247 3.63636V8H273.576V3.63636H274.247ZM273.985 5.71591V6.34091C273.834 6.39773 273.683 6.44792 273.534 6.49148C273.384 6.53314 273.227 6.56629 273.062 6.59091C272.897 6.61364 272.717 6.625 272.52 6.625C272.025 6.625 271.628 6.49148 271.329 6.22443C271.032 5.95739 270.883 5.55682 270.883 5.02273V3.625H271.554V5.02273C271.554 5.24621 271.596 5.42992 271.681 5.57386C271.767 5.7178 271.882 5.82481 272.028 5.89489C272.174 5.96496 272.338 6 272.52 6C272.804 6 273.06 5.97443 273.289 5.9233C273.52 5.87027 273.752 5.80114 273.985 5.71591ZM277.284 8.07955C276.95 8.07955 276.65 8.01326 276.383 7.88068C276.116 7.74811 275.902 7.56629 275.741 7.33523C275.58 7.10417 275.492 6.84091 275.477 6.54545H276.159C276.185 6.80871 276.305 7.02652 276.517 7.19886C276.731 7.36932 276.986 7.45455 277.284 7.45455C277.522 7.45455 277.734 7.39867 277.92 7.28693C278.108 7.17519 278.254 7.02178 278.36 6.8267C278.468 6.62973 278.522 6.4072 278.522 6.15909C278.522 5.9053 278.467 5.67898 278.355 5.48011C278.245 5.27936 278.093 5.12121 277.9 5.00568C277.707 4.89015 277.486 4.83144 277.238 4.82955C277.06 4.82765 276.877 4.85511 276.69 4.91193C276.502 4.96686 276.348 5.03788 276.227 5.125L275.568 5.04545L275.92 2.18182H278.943V2.80682H276.511L276.306 4.52273H276.341C276.46 4.42803 276.609 4.34943 276.789 4.28693C276.969 4.22443 277.157 4.19318 277.352 4.19318C277.708 4.19318 278.025 4.27841 278.304 4.44886C278.584 4.61742 278.804 4.84848 278.963 5.14205C279.124 5.43561 279.204 5.77083 279.204 6.14773C279.204 6.51894 279.121 6.85038 278.954 7.14205C278.789 7.43182 278.562 7.66098 278.272 7.82955C277.983 7.99621 277.653 8.07955 277.284 8.07955Z" fill="black"/>
<path d="M0.1 10.1H24.9V34.25C24.9 34.2654 24.8926 34.2918 24.8539 34.3296C24.815 34.3676 24.7523 34.4091 24.6626 34.4515C24.4835 34.5362 24.2181 34.6151 23.882 34.6823C23.2116 34.8164 22.281 34.9 21.25 34.9H3.75C2.719 34.9 1.78838 34.8164 1.11796 34.6823C0.781929 34.6151 0.516476 34.5362 0.337441 34.4515C0.247669 34.4091 0.184964 34.3676 0.146084 34.3296C0.107371 34.2918 0.1 34.2654 0.1 34.25V10.1Z" fill="#D6A86F" stroke="black" stroke-width="0.2"/>
<path d="M13.9716 18.2727V27H12.9148V19.3807H12.8636L10.733 20.7955V19.7216L12.9148 18.2727H13.9716Z" fill="black"/>
<path d="M25.1 10.1H49.9V34.25C49.9 34.2654 49.8926 34.2918 49.8539 34.3296C49.815 34.3676 49.7523 34.4091 49.6626 34.4515C49.4835 34.5362 49.2181 34.6151 48.882 34.6823C48.2116 34.8164 47.281 34.9 46.25 34.9H28.75C27.719 34.9 26.7884 34.8164 26.118 34.6823C25.7819 34.6151 25.5165 34.5362 25.3374 34.4515C25.2477 34.4091 25.185 34.3676 25.1461 34.3296C25.1074 34.2918 25.1 34.2654 25.1 34.25V10.1Z" fill="url(#paint0_radial_1858_508)" stroke="black" stroke-width="0.2"/>
<path d="M50.1 10.1H74.9V34.25C74.9 34.2654 74.8926 34.2918 74.8539 34.3296C74.815 34.3676 74.7523 34.4091 74.6626 34.4515C74.4835 34.5362 74.2181 34.6151 73.882 34.6823C73.2116 34.8164 72.281 34.9 71.25 34.9H53.75C52.719 34.9 51.7884 34.8164 51.118 34.6823C50.7819 34.6151 50.5165 34.5362 50.3374 34.4515C50.2477 34.4091 50.185 34.3676 50.1461 34.3296C50.1074 34.2918 50.1 34.2654 50.1 34.25V10.1Z" fill="url(#paint1_radial_1858_508)" stroke="black" stroke-width="0.2"/>
<path d="M75.1 10.1H99.9V34.25C99.9 34.2654 99.8926 34.2918 99.8539 34.3296C99.815 34.3676 99.7523 34.4091 99.6626 34.4515C99.4835 34.5362 99.2181 34.6151 98.882 34.6823C98.2116 34.8164 97.281 34.9 96.25 34.9H78.75C77.719 34.9 76.7884 34.8164 76.118 34.6823C75.7819 34.6151 75.5165 34.5362 75.3374 34.4515C75.2477 34.4091 75.185 34.3676 75.1461 34.3296C75.1074 34.2918 75.1 34.2654 75.1 34.25V10.1Z" fill="url(#paint2_radial_1858_508)" stroke="black" stroke-width="0.2"/>
<path d="M100.1 10.1H124.9V34.25C124.9 34.2654 124.893 34.2918 124.854 34.3296C124.815 34.3676 124.752 34.4091 124.663 34.4515C124.484 34.5362 124.218 34.6151 123.882 34.6823C123.212 34.8164 122.281 34.9 121.25 34.9H103.75C102.719 34.9 101.788 34.8164 101.118 34.6823C100.782 34.6151 100.516 34.5362 100.337 34.4515C100.248 34.4091 100.185 34.3676 100.146 34.3296C100.107 34.2918 100.1 34.2654 100.1 34.25V10.1Z" fill="url(#paint3_radial_1858_508)" stroke="black" stroke-width="0.2"/>
<path d="M125.1 10.1H149.9V34.25C149.9 34.2654 149.893 34.2918 149.854 34.3296C149.815 34.3676 149.752 34.4091 149.663 34.4515C149.484 34.5362 149.218 34.6151 148.882 34.6823C148.212 34.8164 147.281 34.9 146.25 34.9H128.75C127.719 34.9 126.788 34.8164 126.118 34.6823C125.782 34.6151 125.516 34.5362 125.337 34.4515C125.248 34.4091 125.185 34.3676 125.146 34.3296C125.107 34.2918 125.1 34.2654 125.1 34.25V10.1Z" fill="url(#paint4_radial_1858_508)" stroke="black" stroke-width="0.2"/>
<path d="M150.1 10.1H174.9V34.25C174.9 34.2654 174.893 34.2918 174.854 34.3296C174.815 34.3676 174.752 34.4091 174.663 34.4515C174.484 34.5362 174.218 34.6151 173.882 34.6823C173.212 34.8164 172.281 34.9 171.25 34.9H153.75C152.719 34.9 151.788 34.8164 151.118 34.6823C150.782 34.6151 150.516 34.5362 150.337 34.4515C150.248 34.4091 150.185 34.3676 150.146 34.3296C150.107 34.2918 150.1 34.2654 150.1 34.25V10.1Z" fill="url(#paint5_radial_1858_508)" stroke="black" stroke-width="0.2"/>
<path d="M175.1 10.1H199.9V34.25C199.9 34.2654 199.893 34.2918 199.854 34.3296C199.815 34.3676 199.752 34.4091 199.663 34.4515C199.484 34.5362 199.218 34.6151 198.882 34.6823C198.212 34.8164 197.281 34.9 196.25 34.9H178.75C177.719 34.9 176.788 34.8164 176.118 34.6823C175.782 34.6151 175.516 34.5362 175.337 34.4515C175.248 34.4091 175.185 34.3676 175.146 34.3296C175.107 34.2918 175.1 34.2654 175.1 34.25V10.1Z" fill="#D6A86F" stroke="black" stroke-width="0.2"/>
<path d="M187.631 27.1193C187.131 27.1193 186.68 27.0199 186.28 26.821C185.879 26.6222 185.558 26.3494 185.317 26.0028C185.075 25.6562 184.943 25.2614 184.92 24.8182H185.943C185.983 25.2131 186.162 25.5398 186.48 25.7983C186.801 26.054 187.185 26.1818 187.631 26.1818C187.989 26.1818 188.307 26.098 188.585 25.9304C188.866 25.7628 189.087 25.5327 189.246 25.2401C189.408 24.9446 189.489 24.6108 189.489 24.2386C189.489 23.858 189.405 23.5185 189.237 23.2202C189.072 22.919 188.845 22.6818 188.555 22.5085C188.266 22.3352 187.935 22.2472 187.562 22.2443C187.295 22.2415 187.021 22.2827 186.74 22.3679C186.459 22.4503 186.227 22.5568 186.045 22.6875L185.057 22.5682L185.585 18.2727H190.119V19.2102H186.472L186.165 21.7841H186.216C186.395 21.642 186.619 21.5241 186.889 21.4304C187.159 21.3366 187.44 21.2898 187.733 21.2898C188.267 21.2898 188.743 21.4176 189.161 21.6733C189.581 21.9261 189.911 22.2727 190.149 22.7131C190.391 23.1534 190.511 23.6562 190.511 24.2216C190.511 24.7784 190.386 25.2756 190.136 25.7131C189.889 26.1477 189.548 26.4915 189.114 26.7443C188.679 26.9943 188.185 27.1193 187.631 27.1193Z" fill="black"/>
<path d="M200.1 10.1H224.9V34.25C224.9 34.2654 224.893 34.2918 224.854 34.3296C224.815 34.3676 224.752 34.4091 224.663 34.4515C224.484 34.5362 224.218 34.6151 223.882 34.6823C223.212 34.8164 222.281 34.9 221.25 34.9H203.75C202.719 34.9 201.788 34.8164 201.118 34.6823C200.782 34.6151 200.516 34.5362 200.337 34.4515C200.248 34.4091 200.185 34.3676 200.146 34.3296C200.107 34.2918 200.1 34.2654 200.1 34.25V10.1Z" fill="url(#paint6_radial_1858_508)" stroke="black" stroke-width="0.2"/>
<path d="M225.1 10.1H249.9V34.25C249.9 34.2654 249.893 34.2918 249.854 34.3296C249.815 34.3676 249.752 34.4091 249.663 34.4515C249.484 34.5362 249.218 34.6151 248.882 34.6823C248.212 34.8164 247.281 34.9 246.25 34.9H228.75C227.719 34.9 226.788 34.8164 226.118 34.6823C225.782 34.6151 225.516 34.5362 225.337 34.4515C225.248 34.4091 225.185 34.3676 225.146 34.3296C225.107 34.2918 225.1 34.2654 225.1 34.25V10.1Z" fill="url(#paint7_radial_1858_508)" stroke="black" stroke-width="0.2"/>
<path d="M250.1 10.1H274.9V34.25C274.9 34.2654 274.893 34.2918 274.854 34.3296C274.815 34.3676 274.752 34.4091 274.663 34.4515C274.484 34.5362 274.218 34.6151 273.882 34.6823C273.212 34.8164 272.281 34.9 271.25 34.9H253.75C252.719 34.9 251.788 34.8164 251.118 34.6823C250.782 34.6151 250.516 34.5362 250.337 34.4515C250.248 34.4091 250.185 34.3676 250.146 34.3296C250.107 34.2918 250.1 34.2654 250.1 34.25V10.1Z" fill="url(#paint8_radial_1858_508)" stroke="black" stroke-width="0.2"/>
<path d="M275.1 10.1H299.9V34.25C299.9 34.2654 299.893 34.2918 299.854 34.3296C299.815 34.3676 299.752 34.4091 299.663 34.4515C299.484 34.5362 299.218 34.6151 298.882 34.6823C298.212 34.8164 297.281 34.9 296.25 34.9H278.75C277.719 34.9 276.788 34.8164 276.118 34.6823C275.782 34.6151 275.516 34.5362 275.337 34.4515C275.248 34.4091 275.185 34.3676 275.146 34.3296C275.107 34.2918 275.1 34.2654 275.1 34.25V10.1Z" fill="url(#paint9_radial_1858_508)" stroke="black" stroke-width="0.2"/>
<path d="M300.1 10.1H324.9V34.25C324.9 34.2654 324.893 34.2918 324.854 34.3296C324.815 34.3676 324.752 34.4091 324.663 34.4515C324.484 34.5362 324.218 34.6151 323.882 34.6823C323.212 34.8164 322.281 34.9 321.25 34.9H303.75C302.719 34.9 301.788 34.8164 301.118 34.6823C300.782 34.6151 300.516 34.5362 300.337 34.4515C300.248 34.4091 300.185 34.3676 300.146 34.3296C300.107 34.2918 300.1 34.2654 300.1 34.25V10.1Z" fill="url(#paint10_radial_1858_508)" stroke="black" stroke-width="0.2"/>
<path d="M325.1 10.1H349.9V34.25C349.9 34.2654 349.893 34.2918 349.854 34.3296C349.815 34.3676 349.752 34.4091 349.663 34.4515C349.484 34.5362 349.218 34.6151 348.882 34.6823C348.212 34.8164 347.281 34.9 346.25 34.9H328.75C327.719 34.9 326.788 34.8164 326.118 34.6823C325.782 34.6151 325.516 34.5362 325.337 34.4515C325.248 34.4091 325.185 34.3676 325.146 34.3296C325.107 34.2918 325.1 34.2654 325.1 34.25V10.1Z" fill="url(#paint11_radial_1858_508)" stroke="black" stroke-width="0.2"/>
<path d="M350.1 10.1H374.9V34.25C374.9 34.2654 374.893 34.2918 374.854 34.3296C374.815 34.3676 374.752 34.4091 374.663 34.4515C374.484 34.5362 374.218 34.6151 373.882 34.6823C373.212 34.8164 372.281 34.9 371.25 34.9H353.75C352.719 34.9 351.788 34.8164 351.118 34.6823C350.782 34.6151 350.516 34.5362 350.337 34.4515C350.248 34.4091 350.185 34.3676 350.146 34.3296C350.107 34.2918 350.1 34.2654 350.1 34.25V10.1Z" fill="#D6A86F" stroke="black" stroke-width="0.2"/>
<path d="M362.682 18.1534C363.04 18.1562 363.398 18.2244 363.756 18.358C364.114 18.4915 364.44 18.7131 364.736 19.0227C365.031 19.3295 365.268 19.7486 365.447 20.2798C365.626 20.8111 365.716 21.4773 365.716 22.2784C365.716 23.054 365.642 23.7429 365.494 24.3452C365.349 24.9446 365.139 25.4503 364.864 25.8622C364.591 26.2741 364.259 26.5866 363.866 26.7997C363.477 27.0128 363.037 27.1193 362.545 27.1193C362.057 27.1193 361.621 27.0227 361.237 26.8295C360.857 26.6335 360.544 26.3622 360.3 26.0156C360.058 25.6662 359.903 25.2614 359.835 24.8011H360.875C360.969 25.2017 361.155 25.5327 361.433 25.794C361.714 26.0526 362.085 26.1818 362.545 26.1818C363.219 26.1818 363.75 25.8878 364.139 25.2997C364.531 24.7116 364.727 23.8807 364.727 22.8068H364.659C364.5 23.0455 364.311 23.2514 364.092 23.4247C363.874 23.598 363.631 23.7315 363.364 23.8253C363.097 23.919 362.813 23.9659 362.511 23.9659C362.011 23.9659 361.553 23.8423 361.135 23.5952C360.72 23.3452 360.388 23.0028 360.138 22.5682C359.891 22.1307 359.767 21.6307 359.767 21.0682C359.767 20.5341 359.886 20.0455 360.125 19.6023C360.366 19.1562 360.705 18.8011 361.139 18.5369C361.577 18.2727 362.091 18.1449 362.682 18.1534ZM362.682 19.0909C362.324 19.0909 362.001 19.1804 361.714 19.3594C361.43 19.5355 361.205 19.7741 361.037 20.0753C360.872 20.3736 360.79 20.7045 360.79 21.0682C360.79 21.4318 360.869 21.7628 361.028 22.0611C361.19 22.3565 361.411 22.5923 361.689 22.7685C361.97 22.9418 362.29 23.0284 362.648 23.0284C362.918 23.0284 363.169 22.9759 363.402 22.8707C363.635 22.7628 363.838 22.6165 364.011 22.4318C364.188 22.2443 364.325 22.0327 364.425 21.7969C364.524 21.5582 364.574 21.3097 364.574 21.0511C364.574 20.7102 364.491 20.3906 364.327 20.0923C364.165 19.794 363.94 19.5526 363.653 19.3679C363.369 19.1832 363.045 19.0909 362.682 19.0909Z" fill="black"/>
<path d="M12.5 35V39H362.5V35" stroke="white" stroke-dasharray="2 2"/>
<rect x="182" y="35" width="11" height="10" fill="white"/>
<path d="M183.072 43V37.1818H186.583V37.8068H183.776V39.625H185.254C185.67 39.625 186.022 39.6932 186.308 39.8295C186.595 39.9659 186.813 40.1581 186.961 40.4062C187.111 40.6544 187.185 40.947 187.185 41.2841C187.185 41.6212 187.111 41.9186 186.961 42.1761C186.813 42.4337 186.595 42.6354 186.308 42.7812C186.022 42.9271 185.67 43 185.254 43H183.072ZM183.776 42.3864H185.254C185.519 42.3864 185.743 42.3333 185.927 42.2273C186.112 42.1193 186.253 41.9811 186.347 41.8125C186.444 41.642 186.492 41.4621 186.492 41.2727C186.492 40.9943 186.385 40.7547 186.171 40.554C185.957 40.3513 185.651 40.25 185.254 40.25H183.776V42.3864ZM190.095 37.1023C190.334 37.1042 190.572 37.1496 190.811 37.2386C191.05 37.3277 191.268 37.4754 191.464 37.6818C191.661 37.8864 191.82 38.1657 191.939 38.5199C192.058 38.8741 192.118 39.3182 192.118 39.8523C192.118 40.3693 192.069 40.8286 191.97 41.2301C191.874 41.6297 191.733 41.9669 191.55 42.2415C191.368 42.5161 191.146 42.7244 190.885 42.8665C190.625 43.0085 190.332 43.0795 190.004 43.0795C189.679 43.0795 189.388 43.0152 189.132 42.8864C188.878 42.7557 188.67 42.5748 188.507 42.3438C188.346 42.1108 188.243 41.8409 188.197 41.5341H188.891C188.953 41.8011 189.077 42.0218 189.263 42.196C189.45 42.3684 189.697 42.4545 190.004 42.4545C190.453 42.4545 190.807 42.2585 191.067 41.8665C191.328 41.4744 191.459 40.9205 191.459 40.2045H191.413C191.307 40.3636 191.181 40.5009 191.036 40.6165C190.89 40.732 190.728 40.821 190.55 40.8835C190.372 40.946 190.182 40.9773 189.982 40.9773C189.648 40.9773 189.342 40.8949 189.064 40.7301C188.787 40.5634 188.566 40.3352 188.399 40.0455C188.234 39.7538 188.152 39.4205 188.152 39.0455C188.152 38.6894 188.232 38.3636 188.391 38.0682C188.552 37.7708 188.777 37.5341 189.067 37.358C189.358 37.1818 189.701 37.0966 190.095 37.1023ZM190.095 37.7273C189.857 37.7273 189.642 37.7869 189.45 37.9062C189.261 38.0237 189.11 38.1828 188.999 38.3835C188.889 38.5824 188.834 38.803 188.834 39.0455C188.834 39.2879 188.887 39.5085 188.993 39.7074C189.101 39.9044 189.248 40.0616 189.433 40.179C189.621 40.2945 189.834 40.3523 190.072 40.3523C190.252 40.3523 190.42 40.3172 190.575 40.2472C190.731 40.1752 190.866 40.0777 190.982 39.9545C191.099 39.8295 191.191 39.6884 191.257 39.5312C191.323 39.3722 191.357 39.2064 191.357 39.0341C191.357 38.8068 191.302 38.5937 191.192 38.3949C191.084 38.196 190.934 38.035 190.743 37.9119C190.554 37.7888 190.338 37.7273 190.095 37.7273Z" fill="black"/>
<defs>
<radialGradient id="paint0_radial_1858_508" cx="0" cy="0" r="1" gradientUnits="userSpaceOnUse" gradientTransform="translate(37.5 22.5) rotate(90) scale(12.5)">
<stop offset="0.171875"/>
<stop offset="0.171975" stop-color="white"/>
</radialGradient>
<radialGradient id="paint1_radial_1858_508" cx="0" cy="0" r="1" gradientUnits="userSpaceOnUse" gradientTransform="translate(62.5 22.5) rotate(90) scale(12.5)">
<stop offset="0.171875"/>
<stop offset="0.171975" stop-color="white"/>
</radialGradient>
<radialGradient id="paint2_radial_1858_508" cx="0" cy="0" r="1" gradientUnits="userSpaceOnUse" gradientTransform="translate(87.5 22.5) rotate(90) scale(12.5)">
<stop offset="0.171875"/>
<stop offset="0.171975" stop-color="white"/>
</radialGradient>
<radialGradient id="paint3_radial_1858_508" cx="0" cy="0" r="1" gradientUnits="userSpaceOnUse" gradientTransform="translate(112.5 22.5) rotate(90) scale(12.5)">
<stop offset="0.171875"/>
<stop offset="0.171975" stop-color="white"/>
</radialGradient>
<radialGradient id="paint4_radial_1858_508" cx="0" cy="0" r="1" gradientUnits="userSpaceOnUse" gradientTransform="translate(137.5 22.5) rotate(90) scale(12.5)">
<stop offset="0.171875"/>
<stop offset="0.171975" stop-color="white"/>
</radialGradient>
<radialGradient id="paint5_radial_1858_508" cx="0" cy="0" r="1" gradientUnits="userSpaceOnUse" gradientTransform="translate(162.5 22.5) rotate(90) scale(12.5)">
<stop offset="0.171875"/>
<stop offset="0.171975" stop-color="white"/>
</radialGradient>
<radialGradient id="paint6_radial_1858_508" cx="0" cy="0" r="1" gradientUnits="userSpaceOnUse" gradientTransform="translate(212.5 22.5) rotate(90) scale(12.5)">
<stop offset="0.171875"/>
<stop offset="0.171975" stop-color="white"/>
</radialGradient>
<radialGradient id="paint7_radial_1858_508" cx="0" cy="0" r="1" gradientUnits="userSpaceOnUse" gradientTransform="translate(237.5 22.5) rotate(90) scale(12.5)">
<stop offset="0.171875"/>
<stop offset="0.171975" stop-color="white"/>
</radialGradient>
<radialGradient id="paint8_radial_1858_508" cx="0" cy="0" r="1" gradientUnits="userSpaceOnUse" gradientTransform="translate(262.5 22.5) rotate(90) scale(12.5)">
<stop offset="0.171875"/>
<stop offset="0.171975" stop-color="white"/>
</radialGradient>
<radialGradient id="paint9_radial_1858_508" cx="0" cy="0" r="1" gradientUnits="userSpaceOnUse" gradientTransform="translate(287.5 22.5) rotate(90) scale(12.5)">
<stop offset="0.171875"/>
<stop offset="0.171975" stop-color="white"/>
</radialGradient>
<radialGradient id="paint10_radial_1858_508" cx="0" cy="0" r="1" gradientUnits="userSpaceOnUse" gradientTransform="translate(312.5 22.5) rotate(90) scale(12.5)">
<stop offset="0.171875"/>
<stop offset="0.171975" stop-color="white"/>
</radialGradient>
<radialGradient id="paint11_radial_1858_508" cx="0" cy="0" r="1" gradientUnits="userSpaceOnUse" gradientTransform="translate(337.5 22.5) rotate(90) scale(12.5)">
<stop offset="0.171875"/>
<stop offset="0.171975" stop-color="white"/>
</radialGradient>
</defs>
</svg>
