<svg width="325" height="45" viewBox="0 0 325 45" fill="none" xmlns="http://www.w3.org/2000/svg">
<path d="M12.5 10V6H160.5V10" stroke="white" stroke-dasharray="2 2"/>
<rect x="81" width="11" height="10" fill="white"/>
<path d="M83.9549 8.07955C83.5799 8.07955 83.2456 8.01515 82.9521 7.88636C82.6604 7.75758 82.4284 7.5786 82.256 7.34943C82.0856 7.11837 81.9928 6.85038 81.9776 6.54545H82.6935C82.7087 6.73295 82.7731 6.89489 82.8867 7.03125C83.0004 7.16572 83.149 7.26989 83.3327 7.34375C83.5165 7.41761 83.7201 7.45455 83.9435 7.45455C84.1935 7.45455 84.4151 7.41098 84.6083 7.32386C84.8015 7.23674 84.953 7.11553 85.0629 6.96023C85.1727 6.80492 85.2276 6.625 85.2276 6.42045C85.2276 6.20644 85.1746 6.01799 85.0685 5.85511C84.9625 5.69034 84.8072 5.56155 84.6026 5.46875C84.3981 5.37595 84.1481 5.32955 83.8526 5.32955H83.3867V4.70455H83.8526C84.0837 4.70455 84.2863 4.66288 84.4606 4.57955C84.6367 4.49621 84.774 4.37879 84.8725 4.22727C84.9729 4.07576 85.0231 3.89773 85.0231 3.69318C85.0231 3.49621 84.9795 3.32481 84.8924 3.17898C84.8053 3.03314 84.6822 2.91951 84.5231 2.83807C84.3659 2.75663 84.1803 2.71591 83.9663 2.71591C83.7655 2.71591 83.5761 2.75284 83.3981 2.8267C83.2219 2.89867 83.078 3.00379 82.9663 3.14205C82.8545 3.27841 82.7939 3.44318 82.7844 3.63636H82.1026C82.114 3.33144 82.2058 3.06439 82.3782 2.83523C82.5505 2.60417 82.7759 2.42424 83.0543 2.29545C83.3346 2.16667 83.6424 2.10227 83.9776 2.10227C84.3375 2.10227 84.6462 2.17519 84.9038 2.32102C85.1613 2.46496 85.3593 2.6553 85.4975 2.89205C85.6358 3.12879 85.7049 3.38447 85.7049 3.65909C85.7049 3.98674 85.6187 4.2661 85.4464 4.49716C85.2759 4.72822 85.0439 4.88826 84.7504 4.97727V5.02273C85.1178 5.08333 85.4047 5.23958 85.6112 5.49148C85.8176 5.74148 85.9208 6.05114 85.9208 6.42045C85.9208 6.73674 85.8346 7.02083 85.6623 7.27273C85.4918 7.52273 85.2589 7.7197 84.9634 7.86364C84.668 8.00758 84.3318 8.07955 83.9549 8.07955ZM86.8668 2.80682V2.18182H91.2305V2.80682H89.4009V8H88.6964V2.80682H86.8668Z" fill="black"/>
<path d="M163.5 10V6H312.5V10" stroke="white" stroke-dasharray="2 2"/>
<rect x="233" width="11" height="10" fill="white"/>
<path d="M235.955 8.07955C235.58 8.07955 235.246 8.01515 234.952 7.88636C234.66 7.75758 234.428 7.5786 234.256 7.34943C234.086 7.11837 233.993 6.85038 233.978 6.54545H234.694C234.709 6.73295 234.773 6.89489 234.887 7.03125C235 7.16572 235.149 7.26989 235.333 7.34375C235.516 7.41761 235.72 7.45455 235.944 7.45455C236.194 7.45455 236.415 7.41098 236.608 7.32386C236.801 7.23674 236.953 7.11553 237.063 6.96023C237.173 6.80492 237.228 6.625 237.228 6.42045C237.228 6.20644 237.175 6.01799 237.069 5.85511C236.962 5.69034 236.807 5.56155 236.603 5.46875C236.398 5.37595 236.148 5.32955 235.853 5.32955H235.387V4.70455H235.853C236.084 4.70455 236.286 4.66288 236.461 4.57955C236.637 4.49621 236.774 4.37879 236.873 4.22727C236.973 4.07576 237.023 3.89773 237.023 3.69318C237.023 3.49621 236.98 3.32481 236.892 3.17898C236.805 3.03314 236.682 2.91951 236.523 2.83807C236.366 2.75663 236.18 2.71591 235.966 2.71591C235.766 2.71591 235.576 2.75284 235.398 2.8267C235.222 2.89867 235.078 3.00379 234.966 3.14205C234.855 3.27841 234.794 3.44318 234.784 3.63636H234.103C234.114 3.33144 234.206 3.06439 234.378 2.83523C234.551 2.60417 234.776 2.42424 235.054 2.29545C235.335 2.16667 235.642 2.10227 235.978 2.10227C236.337 2.10227 236.646 2.17519 236.904 2.32102C237.161 2.46496 237.359 2.6553 237.498 2.89205C237.636 3.12879 237.705 3.38447 237.705 3.65909C237.705 3.98674 237.619 4.2661 237.446 4.49716C237.276 4.72822 237.044 4.88826 236.75 4.97727V5.02273C237.118 5.08333 237.405 5.23958 237.611 5.49148C237.818 5.74148 237.921 6.05114 237.921 6.42045C237.921 6.73674 237.835 7.02083 237.662 7.27273C237.492 7.52273 237.259 7.7197 236.963 7.86364C236.668 8.00758 236.332 8.07955 235.955 8.07955ZM238.867 2.80682V2.18182H243.23V2.80682H241.401V8H240.696V2.80682H238.867Z" fill="black"/>
<path d="M0.1 10.1H24.9V34.25C24.9 34.2654 24.8926 34.2918 24.8539 34.3296C24.815 34.3676 24.7523 34.4091 24.6626 34.4515C24.4835 34.5362 24.2181 34.6151 23.882 34.6823C23.2116 34.8164 22.281 34.9 21.25 34.9H3.75C2.719 34.9 1.78838 34.8164 1.11796 34.6823C0.781929 34.6151 0.516476 34.5362 0.337441 34.4515C0.247669 34.4091 0.184964 34.3676 0.146084 34.3296C0.107371 34.2918 0.1 34.2654 0.1 34.25V10.1Z" fill="#D6A86F" stroke="black" stroke-width="0.2"/>
<path d="M13.9716 18.2727V27H12.9148V19.3807H12.8636L10.733 20.7955V19.7216L12.9148 18.2727H13.9716Z" fill="black"/>
<path d="M25.1 10.1H49.9V34.25C49.9 34.2654 49.8926 34.2918 49.8539 34.3296C49.815 34.3676 49.7523 34.4091 49.6626 34.4515C49.4835 34.5362 49.2181 34.6151 48.882 34.6823C48.2116 34.8164 47.281 34.9 46.25 34.9H28.75C27.719 34.9 26.7884 34.8164 26.118 34.6823C25.7819 34.6151 25.5165 34.5362 25.3374 34.4515C25.2477 34.4091 25.185 34.3676 25.1461 34.3296C25.1074 34.2918 25.1 34.2654 25.1 34.25V10.1Z" fill="url(#paint0_radial_1858_547)" stroke="black" stroke-width="0.2"/>
<path d="M50.1 10.1H74.9V34.25C74.9 34.2654 74.8926 34.2918 74.8539 34.3296C74.815 34.3676 74.7523 34.4091 74.6626 34.4515C74.4835 34.5362 74.2181 34.6151 73.882 34.6823C73.2116 34.8164 72.281 34.9 71.25 34.9H53.75C52.719 34.9 51.7884 34.8164 51.118 34.6823C50.7819 34.6151 50.5165 34.5362 50.3374 34.4515C50.2477 34.4091 50.185 34.3676 50.1461 34.3296C50.1074 34.2918 50.1 34.2654 50.1 34.25V10.1Z" fill="url(#paint1_radial_1858_547)" stroke="black" stroke-width="0.2"/>
<path d="M75.1 10.1H99.9V34.25C99.9 34.2654 99.8926 34.2918 99.8539 34.3296C99.815 34.3676 99.7523 34.4091 99.6626 34.4515C99.4835 34.5362 99.2181 34.6151 98.882 34.6823C98.2116 34.8164 97.281 34.9 96.25 34.9H78.75C77.719 34.9 76.7884 34.8164 76.118 34.6823C75.7819 34.6151 75.5165 34.5362 75.3374 34.4515C75.2477 34.4091 75.185 34.3676 75.1461 34.3296C75.1074 34.2918 75.1 34.2654 75.1 34.25V10.1Z" fill="url(#paint2_radial_1858_547)" stroke="black" stroke-width="0.2"/>
<path d="M100.1 10.1H124.9V34.25C124.9 34.2654 124.893 34.2918 124.854 34.3296C124.815 34.3676 124.752 34.4091 124.663 34.4515C124.484 34.5362 124.218 34.6151 123.882 34.6823C123.212 34.8164 122.281 34.9 121.25 34.9H103.75C102.719 34.9 101.788 34.8164 101.118 34.6823C100.782 34.6151 100.516 34.5362 100.337 34.4515C100.248 34.4091 100.185 34.3676 100.146 34.3296C100.107 34.2918 100.1 34.2654 100.1 34.25V10.1Z" fill="url(#paint3_radial_1858_547)" stroke="black" stroke-width="0.2"/>
<path d="M125.1 10.1H149.9V34.25C149.9 34.2654 149.893 34.2918 149.854 34.3296C149.815 34.3676 149.752 34.4091 149.663 34.4515C149.484 34.5362 149.218 34.6151 148.882 34.6823C148.212 34.8164 147.281 34.9 146.25 34.9H128.75C127.719 34.9 126.788 34.8164 126.118 34.6823C125.782 34.6151 125.516 34.5362 125.337 34.4515C125.248 34.4091 125.185 34.3676 125.146 34.3296C125.107 34.2918 125.1 34.2654 125.1 34.25V10.1Z" fill="url(#paint4_radial_1858_547)" stroke="black" stroke-width="0.2"/>
<path d="M150.1 10.1H174.9V34.25C174.9 34.2654 174.893 34.2918 174.854 34.3296C174.815 34.3676 174.752 34.4091 174.663 34.4515C174.484 34.5362 174.218 34.6151 173.882 34.6823C173.212 34.8164 172.281 34.9 171.25 34.9H153.75C152.719 34.9 151.788 34.8164 151.118 34.6823C150.782 34.6151 150.516 34.5362 150.337 34.4515C150.248 34.4091 150.185 34.3676 150.146 34.3296C150.107 34.2918 150.1 34.2654 150.1 34.25V10.1Z" fill="#D6A86F" stroke="black" stroke-width="0.2"/>
<path d="M156.082 19.5085V18.7841L159.278 13.7273H159.804V14.8494H159.449L157.034 18.6705V18.7273H161.338V19.5085H156.082ZM159.506 21V19.2884V18.951V13.7273H160.344V21H159.506Z" fill="black"/>
<path d="M154.749 17.91V15.661L153.501 16.077V18.326L154.749 17.91ZM154.749 12.528H155.074V14.387L155.75 14.166V15.349L155.074 15.57V17.819L155.75 17.598V18.781L155.074 19.002V21.043H154.749V19.093L153.501 19.509V21.459H153.176V19.6L152.5 19.821V18.638L153.176 18.417V16.168L152.5 16.389V15.206L153.176 14.985V12.944H153.501V14.894L154.749 14.478V12.528Z" fill="black"/>
<path d="M169.526 32.0994C169.109 32.0994 168.734 32.0166 168.4 31.8509C168.066 31.6851 167.799 31.4579 167.597 31.169C167.396 30.8802 167.286 30.5511 167.267 30.1818H168.119C168.152 30.5109 168.302 30.7831 168.567 30.9986C168.834 31.2116 169.154 31.3182 169.526 31.3182C169.824 31.3182 170.089 31.2483 170.321 31.1087C170.555 30.969 170.739 30.7772 170.871 30.5334C171.006 30.2872 171.074 30.009 171.074 29.6989C171.074 29.3816 171.004 29.0987 170.864 28.8501C170.727 28.5992 170.538 28.4015 170.296 28.2571C170.055 28.1127 169.779 28.0393 169.469 28.0369C169.246 28.0346 169.018 28.0689 168.783 28.1399C168.549 28.2086 168.356 28.2973 168.205 28.4062L167.381 28.3068L167.821 24.7273H171.599V25.5085H168.56L168.304 27.6534H168.347C168.496 27.535 168.683 27.4368 168.908 27.3587C169.133 27.2805 169.367 27.2415 169.611 27.2415C170.056 27.2415 170.452 27.348 170.8 27.5611C171.151 27.7718 171.425 28.0606 171.624 28.4276C171.826 28.7945 171.926 29.2135 171.926 29.6847C171.926 30.1487 171.822 30.563 171.614 30.9276C171.408 31.2898 171.124 31.5762 170.761 31.7869C170.399 31.9953 169.987 32.0994 169.526 32.0994Z" fill="black"/>
<path d="M163.5 32.379V24.553H163.916L163.825 28.648C164.085 28.219 164.488 28.011 165.034 28.011C165.814 28.011 166.477 28.557 166.477 29.285C166.451 29.779 166.139 30.442 165.333 31.027L163.5 32.379ZM164.709 28.531C164.345 28.531 164.072 28.713 163.877 29.077C163.825 29.571 163.799 30 163.799 30.351C163.799 30.988 163.825 31.417 163.864 31.638C164.54 31.209 165.437 29.909 165.437 29.233C165.437 28.83 165.125 28.531 164.709 28.531Z" fill="black"/>
<path d="M175.1 10.1H199.9V34.25C199.9 34.2654 199.893 34.2918 199.854 34.3296C199.815 34.3676 199.752 34.4091 199.663 34.4515C199.484 34.5362 199.218 34.6151 198.882 34.6823C198.212 34.8164 197.281 34.9 196.25 34.9H178.75C177.719 34.9 176.788 34.8164 176.118 34.6823C175.782 34.6151 175.516 34.5362 175.337 34.4515C175.248 34.4091 175.185 34.3676 175.146 34.3296C175.107 34.2918 175.1 34.2654 175.1 34.25V10.1Z" fill="url(#paint5_radial_1858_547)" stroke="black" stroke-width="0.2"/>
<path d="M200.1 10.1H224.9V34.25C224.9 34.2654 224.893 34.2918 224.854 34.3296C224.815 34.3676 224.752 34.4091 224.663 34.4515C224.484 34.5362 224.218 34.6151 223.882 34.6823C223.212 34.8164 222.281 34.9 221.25 34.9H203.75C202.719 34.9 201.788 34.8164 201.118 34.6823C200.782 34.6151 200.516 34.5362 200.337 34.4515C200.248 34.4091 200.185 34.3676 200.146 34.3296C200.107 34.2918 200.1 34.2654 200.1 34.25V10.1Z" fill="url(#paint6_radial_1858_547)" stroke="black" stroke-width="0.2"/>
<path d="M225.1 10.1H249.9V34.25C249.9 34.2654 249.893 34.2918 249.854 34.3296C249.815 34.3676 249.752 34.4091 249.663 34.4515C249.484 34.5362 249.218 34.6151 248.882 34.6823C248.212 34.8164 247.281 34.9 246.25 34.9H228.75C227.719 34.9 226.788 34.8164 226.118 34.6823C225.782 34.6151 225.516 34.5362 225.337 34.4515C225.248 34.4091 225.185 34.3676 225.146 34.3296C225.107 34.2918 225.1 34.2654 225.1 34.25V10.1Z" fill="url(#paint7_radial_1858_547)" stroke="black" stroke-width="0.2"/>
<path d="M250.1 10.1H274.9V34.25C274.9 34.2654 274.893 34.2918 274.854 34.3296C274.815 34.3676 274.752 34.4091 274.663 34.4515C274.484 34.5362 274.218 34.6151 273.882 34.6823C273.212 34.8164 272.281 34.9 271.25 34.9H253.75C252.719 34.9 251.788 34.8164 251.118 34.6823C250.782 34.6151 250.516 34.5362 250.337 34.4515C250.248 34.4091 250.185 34.3676 250.146 34.3296C250.107 34.2918 250.1 34.2654 250.1 34.25V10.1Z" fill="url(#paint8_radial_1858_547)" stroke="black" stroke-width="0.2"/>
<path d="M275.1 10.1H299.9V34.25C299.9 34.2654 299.893 34.2918 299.854 34.3296C299.815 34.3676 299.752 34.4091 299.663 34.4515C299.484 34.5362 299.218 34.6151 298.882 34.6823C298.212 34.8164 297.281 34.9 296.25 34.9H278.75C277.719 34.9 276.788 34.8164 276.118 34.6823C275.782 34.6151 275.516 34.5362 275.337 34.4515C275.248 34.4091 275.185 34.3676 275.146 34.3296C275.107 34.2918 275.1 34.2654 275.1 34.25V10.1Z" fill="url(#paint9_radial_1858_547)" stroke="black" stroke-width="0.2"/>
<path d="M300.1 10.1H324.9V34.25C324.9 34.2654 324.893 34.2918 324.854 34.3296C324.815 34.3676 324.752 34.4091 324.663 34.4515C324.484 34.5362 324.218 34.6151 323.882 34.6823C323.212 34.8164 322.281 34.9 321.25 34.9H303.75C302.719 34.9 301.788 34.8164 301.118 34.6823C300.782 34.6151 300.516 34.5362 300.337 34.4515C300.248 34.4091 300.185 34.3676 300.146 34.3296C300.107 34.2918 300.1 34.2654 300.1 34.25V10.1Z" fill="#D6A86F" stroke="black" stroke-width="0.2"/>
<path d="M312.699 27.1193C312.114 27.1193 311.597 27.0156 311.148 26.8082C310.702 26.598 310.354 26.3097 310.104 25.9432C309.854 25.5739 309.73 25.1534 309.733 24.6818C309.73 24.3125 309.803 23.9716 309.95 23.6591C310.098 23.3437 310.3 23.081 310.555 22.8707C310.814 22.6577 311.102 22.5227 311.42 22.4659V22.4148C311.003 22.3068 310.67 22.0724 310.423 21.7116C310.176 21.348 310.054 20.9347 310.057 20.4716C310.054 20.0284 310.166 19.6321 310.393 19.2827C310.621 18.9332 310.933 18.6577 311.331 18.456C311.732 18.2543 312.188 18.1534 312.699 18.1534C313.205 18.1534 313.656 18.2543 314.054 18.456C314.452 18.6577 314.764 18.9332 314.991 19.2827C315.222 19.6321 315.338 20.0284 315.341 20.4716C315.338 20.9347 315.212 21.348 314.962 21.7116C314.714 22.0724 314.386 22.3068 313.977 22.4148V22.4659C314.293 22.5227 314.577 22.6577 314.83 22.8707C315.082 23.081 315.284 23.3437 315.435 23.6591C315.585 23.9716 315.662 24.3125 315.665 24.6818C315.662 25.1534 315.534 25.5739 315.281 25.9432C315.031 26.3097 314.683 26.598 314.237 26.8082C313.794 27.0156 313.281 27.1193 312.699 27.1193ZM312.699 26.1818C313.094 26.1818 313.435 26.1179 313.722 25.9901C314.009 25.8622 314.23 25.6818 314.386 25.4489C314.543 25.2159 314.622 24.9432 314.625 24.6307C314.622 24.3011 314.537 24.0099 314.369 23.7571C314.202 23.5043 313.973 23.3054 313.683 23.1605C313.396 23.0156 313.068 22.9432 312.699 22.9432C312.327 22.9432 311.994 23.0156 311.702 23.1605C311.412 23.3054 311.183 23.5043 311.016 23.7571C310.851 24.0099 310.77 24.3011 310.773 24.6307C310.77 24.9432 310.845 25.2159 310.999 25.4489C311.155 25.6818 311.378 25.8622 311.668 25.9901C311.957 26.1179 312.301 26.1818 312.699 26.1818ZM312.699 22.0398C313.011 22.0398 313.288 21.9773 313.53 21.8523C313.774 21.7273 313.966 21.5526 314.105 21.3281C314.244 21.1037 314.315 20.8409 314.318 20.5398C314.315 20.2443 314.246 19.9872 314.109 19.7685C313.973 19.5469 313.784 19.3764 313.543 19.2571C313.301 19.1349 313.02 19.0739 312.699 19.0739C312.372 19.0739 312.087 19.1349 311.842 19.2571C311.598 19.3764 311.409 19.5469 311.276 19.7685C311.142 19.9872 311.077 20.2443 311.08 20.5398C311.077 20.8409 311.143 21.1037 311.28 21.3281C311.419 21.5526 311.611 21.7273 311.855 21.8523C312.099 21.9773 312.381 22.0398 312.699 22.0398Z" fill="black"/>
<path d="M12 35V39H313V35" stroke="white" stroke-dasharray="2 2"/>
<rect x="157" y="35" width="11" height="10" fill="white"/>
<path d="M161.716 38.6364V43H161.045V38.6364H161.716ZM161.454 40.7159V41.3409C161.303 41.3977 161.152 41.4479 161.002 41.4915C160.853 41.5331 160.696 41.5663 160.531 41.5909C160.366 41.6136 160.185 41.625 159.988 41.625C159.494 41.625 159.097 41.4915 158.798 41.2244C158.501 40.9574 158.352 40.5568 158.352 40.0227V38.625H159.022V40.0227C159.022 40.2462 159.065 40.4299 159.15 40.5739C159.235 40.7178 159.351 40.8248 159.497 40.8949C159.643 40.965 159.806 41 159.988 41C160.272 41 160.529 40.9744 160.758 40.9233C160.989 40.8703 161.221 40.8011 161.454 40.7159ZM164.798 43.0795C164.408 43.0795 164.063 43.0104 163.764 42.8722C163.467 42.732 163.234 42.5398 163.068 42.2955C162.901 42.0492 162.819 41.7689 162.821 41.4545C162.819 41.2083 162.867 40.9811 162.966 40.7727C163.064 40.5625 163.199 40.3873 163.369 40.2472C163.541 40.1051 163.734 40.0152 163.946 39.9773V39.9432C163.667 39.8712 163.446 39.715 163.281 39.4744C163.116 39.232 163.035 38.9564 163.037 38.6477C163.035 38.3523 163.109 38.0881 163.261 37.8551C163.413 37.6222 163.621 37.4384 163.886 37.304C164.153 37.1695 164.457 37.1023 164.798 37.1023C165.135 37.1023 165.436 37.1695 165.701 37.304C165.967 37.4384 166.175 37.6222 166.326 37.8551C166.48 38.0881 166.557 38.3523 166.559 38.6477C166.557 38.9564 166.473 39.232 166.306 39.4744C166.142 39.715 165.923 39.8712 165.65 39.9432V39.9773C165.86 40.0152 166.05 40.1051 166.218 40.2472C166.387 40.3873 166.521 40.5625 166.622 40.7727C166.722 40.9811 166.773 41.2083 166.775 41.4545C166.773 41.7689 166.688 42.0492 166.52 42.2955C166.353 42.5398 166.121 42.732 165.824 42.8722C165.528 43.0104 165.186 43.0795 164.798 43.0795ZM164.798 42.4545C165.061 42.4545 165.288 42.4119 165.48 42.3267C165.671 42.2415 165.819 42.1212 165.923 41.9659C166.027 41.8106 166.08 41.6288 166.082 41.4205C166.08 41.2008 166.023 41.0066 165.912 40.8381C165.8 40.6695 165.647 40.5369 165.454 40.4403C165.263 40.3437 165.044 40.2955 164.798 40.2955C164.55 40.2955 164.328 40.3437 164.133 40.4403C163.94 40.5369 163.788 40.6695 163.676 40.8381C163.566 41.0066 163.512 41.2008 163.514 41.4205C163.512 41.6288 163.562 41.8106 163.664 41.9659C163.769 42.1212 163.917 42.2415 164.11 42.3267C164.304 42.4119 164.533 42.4545 164.798 42.4545ZM164.798 39.6932C165.006 39.6932 165.191 39.6515 165.352 39.5682C165.515 39.4848 165.643 39.3684 165.735 39.2188C165.828 39.0691 165.876 38.8939 165.877 38.6932C165.876 38.4962 165.829 38.3248 165.738 38.179C165.647 38.0312 165.521 37.9176 165.36 37.8381C165.199 37.7566 165.012 37.7159 164.798 37.7159C164.58 37.7159 164.39 37.7566 164.227 37.8381C164.064 37.9176 163.938 38.0312 163.849 38.179C163.76 38.3248 163.717 38.4962 163.718 38.6932C163.717 38.8939 163.761 39.0691 163.852 39.2188C163.945 39.3684 164.073 39.4848 164.235 39.5682C164.398 39.6515 164.586 39.6932 164.798 39.6932Z" fill="black"/>
<defs>
<radialGradient id="paint0_radial_1858_547" cx="0" cy="0" r="1" gradientUnits="userSpaceOnUse" gradientTransform="translate(37.5 22.5) rotate(90) scale(12.5)">
<stop offset="0.171875"/>
<stop offset="0.171975" stop-color="white"/>
</radialGradient>
<radialGradient id="paint1_radial_1858_547" cx="0" cy="0" r="1" gradientUnits="userSpaceOnUse" gradientTransform="translate(62.5 22.5) rotate(90) scale(12.5)">
<stop offset="0.171875"/>
<stop offset="0.171975" stop-color="white"/>
</radialGradient>
<radialGradient id="paint2_radial_1858_547" cx="0" cy="0" r="1" gradientUnits="userSpaceOnUse" gradientTransform="translate(87.5 22.5) rotate(90) scale(12.5)">
<stop offset="0.171875"/>
<stop offset="0.171975" stop-color="white"/>
</radialGradient>
<radialGradient id="paint3_radial_1858_547" cx="0" cy="0" r="1" gradientUnits="userSpaceOnUse" gradientTransform="translate(112.5 22.5) rotate(90) scale(12.5)">
<stop offset="0.171875"/>
<stop offset="0.171975" stop-color="white"/>
</radialGradient>
<radialGradient id="paint4_radial_1858_547" cx="0" cy="0" r="1" gradientUnits="userSpaceOnUse" gradientTransform="translate(137.5 22.5) rotate(90) scale(12.5)">
<stop offset="0.171875"/>
<stop offset="0.171975" stop-color="white"/>
</radialGradient>
<radialGradient id="paint5_radial_1858_547" cx="0" cy="0" r="1" gradientUnits="userSpaceOnUse" gradientTransform="translate(187.5 22.5) rotate(90) scale(12.5)">
<stop offset="0.171875"/>
<stop offset="0.171975" stop-color="white"/>
</radialGradient>
<radialGradient id="paint6_radial_1858_547" cx="0" cy="0" r="1" gradientUnits="userSpaceOnUse" gradientTransform="translate(212.5 22.5) rotate(90) scale(12.5)">
<stop offset="0.171875"/>
<stop offset="0.171975" stop-color="white"/>
</radialGradient>
<radialGradient id="paint7_radial_1858_547" cx="0" cy="0" r="1" gradientUnits="userSpaceOnUse" gradientTransform="translate(237.5 22.5) rotate(90) scale(12.5)">
<stop offset="0.171875"/>
<stop offset="0.171975" stop-color="white"/>
</radialGradient>
<radialGradient id="paint8_radial_1858_547" cx="0" cy="0" r="1" gradientUnits="userSpaceOnUse" gradientTransform="translate(262.5 22.5) rotate(90) scale(12.5)">
<stop offset="0.171875"/>
<stop offset="0.171975" stop-color="white"/>
</radialGradient>
<radialGradient id="paint9_radial_1858_547" cx="0" cy="0" r="1" gradientUnits="userSpaceOnUse" gradientTransform="translate(287.5 22.5) rotate(90) scale(12.5)">
<stop offset="0.171875"/>
<stop offset="0.171975" stop-color="white"/>
</radialGradient>
</defs>
</svg>
