<svg width="38" height="38" viewBox="0 0 38 38" fill="none" xmlns="http://www.w3.org/2000/svg">
<path d="M20.5469 7.72727L20.3196 24.4545H17.6832L17.456 7.72727H20.5469ZM19.0014 31.1818C18.4408 31.1818 17.9598 30.9811 17.5582 30.5795C17.1567 30.178 16.956 29.697 16.956 29.1364C16.956 28.5758 17.1567 28.0947 17.5582 27.6932C17.9598 27.2917 18.4408 27.0909 19.0014 27.0909C19.562 27.0909 20.0431 27.2917 20.4446 27.6932C20.8461 28.0947 21.0469 28.5758 21.0469 29.1364C21.0469 29.5076 20.9522 29.8485 20.7628 30.1591C20.581 30.4697 20.3348 30.7197 20.0241 30.9091C19.7211 31.0909 19.3802 31.1818 19.0014 31.1818Z" fill="#00E117"/>
</svg>
