<svg width="325" height="25" viewBox="0 0 325 25" fill="none" xmlns="http://www.w3.org/2000/svg">
<path d="M300.1 0.1H324.9V24.25C324.9 24.2654 324.893 24.2918 324.854 24.3296C324.815 24.3676 324.752 24.4091 324.663 24.4515C324.484 24.5362 324.218 24.6151 323.882 24.6823C323.212 24.8164 322.281 24.9 321.25 24.9H303.75C302.719 24.9 301.788 24.8164 301.118 24.6823C300.782 24.6151 300.516 24.5362 300.337 24.4515C300.248 24.4091 300.185 24.3676 300.146 24.3296C300.107 24.2918 300.1 24.2654 300.1 24.25V0.1Z" fill="url(#paint0_radial_571_600)" stroke="black" stroke-width="0.2"/>
<path d="M275.1 0.1H299.9V24.25C299.9 24.2654 299.893 24.2918 299.854 24.3296C299.815 24.3676 299.752 24.4091 299.663 24.4515C299.484 24.5362 299.218 24.6151 298.882 24.6823C298.212 24.8164 297.281 24.9 296.25 24.9H278.75C277.719 24.9 276.788 24.8164 276.118 24.6823C275.782 24.6151 275.516 24.5362 275.337 24.4515C275.248 24.4091 275.185 24.3676 275.146 24.3296C275.107 24.2918 275.1 24.2654 275.1 24.25V0.1Z" fill="url(#paint1_radial_571_600)" stroke="black" stroke-width="0.2"/>
<path d="M250.1 0.1H274.9V24.25C274.9 24.2654 274.893 24.2918 274.854 24.3296C274.815 24.3676 274.752 24.4091 274.663 24.4515C274.484 24.5362 274.218 24.6151 273.882 24.6823C273.212 24.8164 272.281 24.9 271.25 24.9H253.75C252.719 24.9 251.788 24.8164 251.118 24.6823C250.782 24.6151 250.516 24.5362 250.337 24.4515C250.248 24.4091 250.185 24.3676 250.146 24.3296C250.107 24.2918 250.1 24.2654 250.1 24.25V0.1Z" fill="url(#paint2_radial_571_600)" stroke="black" stroke-width="0.2"/>
<path d="M225.1 0.1H249.9V24.25C249.9 24.2654 249.893 24.2918 249.854 24.3296C249.815 24.3676 249.752 24.4091 249.663 24.4515C249.484 24.5362 249.218 24.6151 248.882 24.6823C248.212 24.8164 247.281 24.9 246.25 24.9H228.75C227.719 24.9 226.788 24.8164 226.118 24.6823C225.782 24.6151 225.516 24.5362 225.337 24.4515C225.248 24.4091 225.185 24.3676 225.146 24.3296C225.107 24.2918 225.1 24.2654 225.1 24.25V0.1Z" fill="url(#paint3_radial_571_600)" stroke="black" stroke-width="0.2"/>
<path d="M200.1 0.1H224.9V24.25C224.9 24.2654 224.893 24.2918 224.854 24.3296C224.815 24.3676 224.752 24.4091 224.663 24.4515C224.484 24.5362 224.218 24.6151 223.882 24.6823C223.212 24.8164 222.281 24.9 221.25 24.9H203.75C202.719 24.9 201.788 24.8164 201.118 24.6823C200.782 24.6151 200.516 24.5362 200.337 24.4515C200.248 24.4091 200.185 24.3676 200.146 24.3296C200.107 24.2918 200.1 24.2654 200.1 24.25V0.1Z" fill="url(#paint4_radial_571_600)" stroke="black" stroke-width="0.2"/>
<path d="M150.1 0.1H174.9V24.25C174.9 24.2654 174.893 24.2918 174.854 24.3296C174.815 24.3676 174.752 24.4091 174.663 24.4515C174.484 24.5362 174.218 24.6151 173.882 24.6823C173.212 24.8164 172.281 24.9 171.25 24.9H153.75C152.719 24.9 151.788 24.8164 151.118 24.6823C150.782 24.6151 150.516 24.5362 150.337 24.4515C150.248 24.4091 150.185 24.3676 150.146 24.3296C150.107 24.2918 150.1 24.2654 150.1 24.25V0.1Z" fill="url(#paint5_linear_571_600)" stroke="black" stroke-width="0.2"/>
<path d="M170.026 23.0994C169.609 23.0994 169.234 23.0166 168.9 22.8509C168.566 22.6851 168.299 22.4579 168.097 22.169C167.896 21.8802 167.786 21.5511 167.767 21.1818H168.619C168.652 21.5109 168.802 21.7831 169.067 21.9986C169.334 22.2116 169.654 22.3182 170.026 22.3182C170.324 22.3182 170.589 22.2483 170.821 22.1087C171.055 21.969 171.239 21.7772 171.371 21.5334C171.506 21.2872 171.574 21.009 171.574 20.6989C171.574 20.3816 171.504 20.0987 171.364 19.8501C171.227 19.5992 171.038 19.4015 170.796 19.2571C170.555 19.1127 170.279 19.0393 169.969 19.0369C169.746 19.0346 169.518 19.0689 169.283 19.1399C169.049 19.2086 168.856 19.2973 168.705 19.4062L167.881 19.3068L168.321 15.7273H172.099V16.5085H169.06L168.804 18.6534H168.847C168.996 18.535 169.183 18.4368 169.408 18.3587C169.633 18.2805 169.867 18.2415 170.111 18.2415C170.556 18.2415 170.952 18.348 171.3 18.5611C171.651 18.7718 171.925 19.0606 172.124 19.4276C172.326 19.7945 172.426 20.2135 172.426 20.6847C172.426 21.1487 172.322 21.563 172.114 21.9276C171.908 22.2898 171.624 22.5762 171.261 22.7869C170.899 22.9953 170.487 23.0994 170.026 23.0994Z" fill="black"/>
<path d="M152 11H159" stroke="black"/>
<path d="M152 14H159" stroke="black"/>
<path d="M164.21 10.0994C163.741 10.0994 163.324 10.0189 162.957 9.85795C162.592 9.69697 162.302 9.47325 162.087 9.18679C161.874 8.89796 161.758 8.56297 161.739 8.18182H162.634C162.652 8.41619 162.733 8.61861 162.875 8.78906C163.017 8.95715 163.203 9.08736 163.433 9.17969C163.662 9.27202 163.917 9.31818 164.196 9.31818C164.509 9.31818 164.786 9.26373 165.027 9.15483C165.268 9.04593 165.458 8.89441 165.595 8.70028C165.732 8.50616 165.801 8.28125 165.801 8.02557C165.801 7.75805 165.735 7.52249 165.602 7.31889C165.47 7.11293 165.276 6.95194 165.02 6.83594C164.764 6.71993 164.452 6.66193 164.082 6.66193H163.5V5.88068H164.082C164.371 5.88068 164.625 5.8286 164.842 5.72443C165.063 5.62026 165.234 5.47348 165.357 5.28409C165.483 5.0947 165.545 4.87216 165.545 4.61648C165.545 4.37026 165.491 4.15601 165.382 3.97372C165.273 3.79143 165.119 3.64938 164.92 3.54759C164.724 3.44579 164.492 3.39489 164.224 3.39489C163.973 3.39489 163.737 3.44105 163.514 3.53338C163.294 3.62334 163.114 3.75473 162.974 3.92756C162.835 4.09801 162.759 4.30398 162.747 4.54545H161.895C161.909 4.1643 162.024 3.83049 162.239 3.54403C162.455 3.25521 162.737 3.0303 163.085 2.86932C163.435 2.70833 163.82 2.62784 164.239 2.62784C164.688 2.62784 165.074 2.71899 165.396 2.90128C165.718 3.0812 165.966 3.31913 166.138 3.61506C166.311 3.91098 166.398 4.23059 166.398 4.57386C166.398 4.98343 166.29 5.33262 166.075 5.62145C165.862 5.91027 165.571 6.11032 165.205 6.22159V6.27841C165.664 6.35417 166.022 6.54948 166.281 6.86435C166.539 7.17685 166.668 7.56392 166.668 8.02557C166.668 8.42093 166.56 8.77604 166.344 9.09091C166.131 9.40341 165.84 9.64962 165.471 9.82955C165.102 10.0095 164.681 10.0994 164.21 10.0994ZM167.85 3.50852V2.72727H173.305V3.50852H171.018V10H170.137V3.50852H167.85Z" fill="black"/>
<path d="M164 23.379L165.833 22.027C166.639 21.442 166.951 20.779 166.977 20.285C166.977 19.557 166.314 19.011 165.534 19.011C164.988 19.011 164.585 19.219 164.325 19.648L164.416 15.553H164V23.379ZM165.209 19.531C165.625 19.531 165.937 19.83 165.937 20.233C165.937 20.909 165.04 22.209 164.364 22.638C164.325 22.417 164.299 21.988 164.299 21.351C164.299 21 164.325 20.571 164.377 20.077C164.572 19.713 164.845 19.531 165.209 19.531Z" fill="black"/>
<path d="M175.1 0.1H199.9V24.25C199.9 24.2654 199.893 24.2918 199.854 24.3296C199.815 24.3676 199.752 24.4091 199.663 24.4515C199.484 24.5362 199.218 24.6151 198.882 24.6823C198.212 24.8164 197.281 24.9 196.25 24.9H178.75C177.719 24.9 176.788 24.8164 176.118 24.6823C175.782 24.6151 175.516 24.5362 175.337 24.4515C175.248 24.4091 175.185 24.3676 175.146 24.3296C175.107 24.2918 175.1 24.2654 175.1 24.25V0.1Z" fill="url(#paint6_radial_571_600)" stroke="black" stroke-width="0.2"/>
<path d="M125.1 0.1H149.9V24.25C149.9 24.2654 149.893 24.2918 149.854 24.3296C149.815 24.3676 149.752 24.4091 149.663 24.4515C149.484 24.5362 149.218 24.6151 148.882 24.6823C148.212 24.8164 147.281 24.9 146.25 24.9H128.75C127.719 24.9 126.788 24.8164 126.118 24.6823C125.782 24.6151 125.516 24.5362 125.337 24.4515C125.248 24.4091 125.185 24.3676 125.146 24.3296C125.107 24.2918 125.1 24.2654 125.1 24.25V0.1Z" fill="url(#paint7_radial_571_600)" stroke="black" stroke-width="0.2"/>
<path d="M100.1 0.1H124.9V24.25C124.9 24.2654 124.893 24.2918 124.854 24.3296C124.815 24.3676 124.752 24.4091 124.663 24.4515C124.484 24.5362 124.218 24.6151 123.882 24.6823C123.212 24.8164 122.281 24.9 121.25 24.9H103.75C102.719 24.9 101.788 24.8164 101.118 24.6823C100.782 24.6151 100.516 24.5362 100.337 24.4515C100.248 24.4091 100.185 24.3676 100.146 24.3296C100.107 24.2918 100.1 24.2654 100.1 24.25V0.1Z" fill="url(#paint8_radial_571_600)" stroke="black" stroke-width="0.2"/>
<path d="M75.1 0.1H99.9V24.25C99.9 24.2654 99.8926 24.2918 99.8539 24.3296C99.815 24.3676 99.7523 24.4091 99.6626 24.4515C99.4835 24.5362 99.2181 24.6151 98.882 24.6823C98.2116 24.8164 97.281 24.9 96.25 24.9H78.75C77.719 24.9 76.7884 24.8164 76.118 24.6823C75.7819 24.6151 75.5165 24.5362 75.3374 24.4515C75.2477 24.4091 75.185 24.3676 75.1461 24.3296C75.1074 24.2918 75.1 24.2654 75.1 24.25V0.1Z" fill="url(#paint9_linear_571_600)" stroke="black" stroke-width="0.2"/>
<path d="M89.2102 23.0994C88.7415 23.0994 88.3236 23.0189 87.9567 22.858C87.5921 22.697 87.3021 22.4732 87.0866 22.1868C86.8736 21.898 86.7576 21.563 86.7386 21.1818H87.6335C87.6525 21.4162 87.733 21.6186 87.875 21.7891C88.017 21.9571 88.2029 22.0874 88.4325 22.1797C88.6622 22.272 88.9167 22.3182 89.196 22.3182C89.5085 22.3182 89.7855 22.2637 90.027 22.1548C90.2685 22.0459 90.4579 21.8944 90.5952 21.7003C90.7325 21.5062 90.8011 21.2812 90.8011 21.0256C90.8011 20.758 90.7348 20.5225 90.6023 20.3189C90.4697 20.1129 90.2756 19.9519 90.0199 19.8359C89.7642 19.7199 89.4517 19.6619 89.0824 19.6619H88.5V18.8807H89.0824C89.3712 18.8807 89.6245 18.8286 89.8423 18.7244C90.0625 18.6203 90.2341 18.4735 90.3572 18.2841C90.4827 18.0947 90.5455 17.8722 90.5455 17.6165C90.5455 17.3703 90.491 17.156 90.3821 16.9737C90.2732 16.7914 90.1193 16.6494 89.9205 16.5476C89.724 16.4458 89.492 16.3949 89.2244 16.3949C88.9735 16.3949 88.7367 16.4411 88.5142 16.5334C88.294 16.6233 88.1141 16.7547 87.9744 16.9276C87.8348 17.098 87.759 17.304 87.7472 17.5455H86.8949C86.9091 17.1643 87.0239 16.8305 87.2393 16.544C87.4548 16.2552 87.7365 16.0303 88.0845 15.8693C88.4349 15.7083 88.8196 15.6278 89.2386 15.6278C89.6884 15.6278 90.0743 15.719 90.3963 15.9013C90.7183 16.0812 90.9657 16.3191 91.1385 16.6151C91.3113 16.911 91.3977 17.2306 91.3977 17.5739C91.3977 17.9834 91.29 18.3326 91.0746 18.6214C90.8615 18.9103 90.5715 19.1103 90.2045 19.2216V19.2784C90.6638 19.3542 91.0225 19.5495 91.2805 19.8643C91.5386 20.1768 91.6676 20.5639 91.6676 21.0256C91.6676 21.4209 91.5599 21.776 91.3445 22.0909C91.1314 22.4034 90.8402 22.6496 90.4709 22.8295C90.1016 23.0095 89.6813 23.0994 89.2102 23.0994Z" fill="black"/>
<path d="M83 23.379L84.833 22.027C85.639 21.442 85.951 20.779 85.977 20.285C85.977 19.557 85.314 19.011 84.534 19.011C83.988 19.011 83.585 19.219 83.325 19.648L83.416 15.553H83V23.379ZM84.209 19.531C84.625 19.531 84.937 19.83 84.937 20.233C84.937 20.909 84.04 22.209 83.364 22.638C83.325 22.417 83.299 21.988 83.299 21.351C83.299 21 83.325 20.571 83.377 20.077C83.572 19.713 83.845 19.531 84.209 19.531Z" fill="black"/>
<path d="M84.75 8.86364L86.6534 4.54545H87.4489L85.0909 10H84.4091L82.0938 4.54545H82.875L84.75 8.86364ZM82.6051 4.54545V10H81.767V4.54545H82.6051ZM86.8949 10V4.54545H87.733V10H86.8949ZM91.7102 10.0994C91.2415 10.0994 90.8236 10.0189 90.4567 9.85795C90.0921 9.69697 89.8021 9.47325 89.5866 9.18679C89.3736 8.89796 89.2576 8.56297 89.2386 8.18182H90.1335C90.1525 8.41619 90.233 8.61861 90.375 8.78906C90.517 8.95715 90.7029 9.08736 90.9325 9.17969C91.1622 9.27202 91.4167 9.31818 91.696 9.31818C92.0085 9.31818 92.2855 9.26373 92.527 9.15483C92.7685 9.04593 92.9579 8.89441 93.0952 8.70028C93.2325 8.50616 93.3011 8.28125 93.3011 8.02557C93.3011 7.75805 93.2348 7.52249 93.1023 7.31889C92.9697 7.11293 92.7756 6.95194 92.5199 6.83594C92.2642 6.71993 91.9517 6.66193 91.5824 6.66193H91V5.88068H91.5824C91.8712 5.88068 92.1245 5.8286 92.3423 5.72443C92.5625 5.62026 92.7341 5.47348 92.8572 5.28409C92.9827 5.0947 93.0455 4.87216 93.0455 4.61648C93.0455 4.37026 92.991 4.15601 92.8821 3.97372C92.7732 3.79143 92.6193 3.64938 92.4205 3.54759C92.224 3.44579 91.992 3.39489 91.7244 3.39489C91.4735 3.39489 91.2367 3.44105 91.0142 3.53338C90.794 3.62334 90.6141 3.75473 90.4744 3.92756C90.3348 4.09801 90.259 4.30398 90.2472 4.54545H89.3949C89.4091 4.1643 89.5239 3.83049 89.7393 3.54403C89.9548 3.25521 90.2365 3.0303 90.5845 2.86932C90.9349 2.70833 91.3196 2.62784 91.7386 2.62784C92.1884 2.62784 92.5743 2.71899 92.8963 2.90128C93.2183 3.0812 93.4657 3.31913 93.6385 3.61506C93.8113 3.91098 93.8977 4.23059 93.8977 4.57386C93.8977 4.98343 93.79 5.33262 93.5746 5.62145C93.3615 5.91027 93.0715 6.11032 92.7045 6.22159V6.27841C93.1638 6.35417 93.5225 6.54948 93.7805 6.86435C94.0386 7.17685 94.1676 7.56392 94.1676 8.02557C94.1676 8.42093 94.0599 8.77604 93.8445 9.09091C93.6314 9.40341 93.3402 9.64962 92.9709 9.82955C92.6016 10.0095 92.1813 10.0994 91.7102 10.0994Z" fill="black"/>
<path d="M98.3536 13.3536C98.5488 13.1583 98.5488 12.8417 98.3536 12.6464L95.1716 9.46447C94.9763 9.2692 94.6597 9.2692 94.4645 9.46447C94.2692 9.65973 94.2692 9.97631 94.4645 10.1716L97.2929 13L94.4645 15.8284C94.2692 16.0237 94.2692 16.3403 94.4645 16.5355C94.6597 16.7308 94.9763 16.7308 95.1716 16.5355L98.3536 13.3536ZM78 13.5H98V12.5H78V13.5Z" fill="black"/>
<path d="M50.1 0.1H74.9V24.25C74.9 24.2654 74.8926 24.2918 74.8539 24.3296C74.815 24.3676 74.7523 24.4091 74.6626 24.4515C74.4835 24.5362 74.2181 24.6151 73.882 24.6823C73.2116 24.8164 72.281 24.9 71.25 24.9H53.75C52.719 24.9 51.7884 24.8164 51.118 24.6823C50.7819 24.6151 50.5165 24.5362 50.3374 24.4515C50.2477 24.4091 50.185 24.3676 50.1461 24.3296C50.1074 24.2918 50.1 24.2654 50.1 24.25V0.1Z" fill="url(#paint10_radial_571_600)" stroke="black" stroke-width="0.2"/>
<path d="M25.1 0.1H49.9V24.25C49.9 24.2654 49.8926 24.2918 49.8539 24.3296C49.815 24.3676 49.7523 24.4091 49.6626 24.4515C49.4835 24.5362 49.2181 24.6151 48.882 24.6823C48.2116 24.8164 47.281 24.9 46.25 24.9H28.75C27.719 24.9 26.7884 24.8164 26.118 24.6823C25.7819 24.6151 25.5165 24.5362 25.3374 24.4515C25.2477 24.4091 25.185 24.3676 25.1461 24.3296C25.1074 24.2918 25.1 24.2654 25.1 24.25V0.1Z" fill="url(#paint11_radial_571_600)" stroke="black" stroke-width="0.2"/>
<path d="M0.1 0.1H24.9V24.25C24.9 24.2654 24.8926 24.2918 24.8539 24.3296C24.815 24.3676 24.7523 24.4091 24.6626 24.4515C24.4835 24.5362 24.2181 24.6151 23.882 24.6823C23.2116 24.8164 22.281 24.9 21.25 24.9H3.75C2.719 24.9 1.78838 24.8164 1.11796 24.6823C0.781929 24.6151 0.516476 24.5362 0.337441 24.4515C0.247669 24.4091 0.184964 24.3676 0.146084 24.3296C0.107371 24.2918 0.1 24.2654 0.1 24.25V0.1Z" fill="url(#paint12_linear_571_600)" stroke="black" stroke-width="0.2"/>
<path d="M0.1 0.1H24.9V24.25C24.9 24.2654 24.8926 24.2918 24.8539 24.3296C24.815 24.3676 24.7523 24.4091 24.6626 24.4515C24.4835 24.5362 24.2181 24.6151 23.882 24.6823C23.2116 24.8164 22.281 24.9 21.25 24.9H3.75C2.719 24.9 1.78838 24.8164 1.11796 24.6823C0.781929 24.6151 0.516476 24.5362 0.337441 24.4515C0.247669 24.4091 0.184964 24.3676 0.146084 24.3296C0.107371 24.2918 0.1 24.2654 0.1 24.25V0.1Z" fill="url(#paint13_linear_571_600)" stroke="black" stroke-width="0.2"/>
<path d="M13.3097 15.7273V23H12.429V16.6506H12.3864L10.6108 17.8295V16.9347L12.429 15.7273H13.3097Z" fill="black"/>
<path d="M9.75 8.86364L11.6534 4.54545H12.4489L10.0909 10H9.40909L7.09375 4.54545H7.875L9.75 8.86364ZM7.60511 4.54545V10H6.76705V4.54545H7.60511ZM11.8949 10V4.54545H12.733V10H11.8949ZM16.7102 10.0994C16.2415 10.0994 15.8236 10.0189 15.4567 9.85795C15.0921 9.69697 14.8021 9.47325 14.5866 9.18679C14.3736 8.89796 14.2576 8.56297 14.2386 8.18182H15.1335C15.1525 8.41619 15.233 8.61861 15.375 8.78906C15.517 8.95715 15.7029 9.08736 15.9325 9.17969C16.1622 9.27202 16.4167 9.31818 16.696 9.31818C17.0085 9.31818 17.2855 9.26373 17.527 9.15483C17.7685 9.04593 17.9579 8.89441 18.0952 8.70028C18.2325 8.50616 18.3011 8.28125 18.3011 8.02557C18.3011 7.75805 18.2348 7.52249 18.1023 7.31889C17.9697 7.11293 17.7756 6.95194 17.5199 6.83594C17.2642 6.71993 16.9517 6.66193 16.5824 6.66193H16V5.88068H16.5824C16.8712 5.88068 17.1245 5.8286 17.3423 5.72443C17.5625 5.62026 17.7341 5.47348 17.8572 5.28409C17.9827 5.0947 18.0455 4.87216 18.0455 4.61648C18.0455 4.37026 17.991 4.15601 17.8821 3.97372C17.7732 3.79143 17.6193 3.64938 17.4205 3.54759C17.224 3.44579 16.992 3.39489 16.7244 3.39489C16.4735 3.39489 16.2367 3.44105 16.0142 3.53338C15.794 3.62334 15.6141 3.75473 15.4744 3.92756C15.3348 4.09801 15.259 4.30398 15.2472 4.54545H14.3949C14.4091 4.1643 14.5239 3.83049 14.7393 3.54403C14.9548 3.25521 15.2365 3.0303 15.5845 2.86932C15.9349 2.70833 16.3196 2.62784 16.7386 2.62784C17.1884 2.62784 17.5743 2.71899 17.8963 2.90128C18.2183 3.0812 18.4657 3.31913 18.6385 3.61506C18.8113 3.91098 18.8977 4.23059 18.8977 4.57386C18.8977 4.98343 18.79 5.33262 18.5746 5.62145C18.3615 5.91027 18.0715 6.11032 17.7045 6.22159V6.27841C18.1638 6.35417 18.5225 6.54948 18.7805 6.86435C19.0386 7.17685 19.1676 7.56392 19.1676 8.02557C19.1676 8.42093 19.0599 8.77604 18.8445 9.09091C18.6314 9.40341 18.3402 9.64962 17.9709 9.82955C17.6016 10.0095 17.1813 10.0994 16.7102 10.0994Z" fill="black"/>
<path d="M23.3536 13.3536C23.5488 13.1583 23.5488 12.8417 23.3536 12.6464L20.1716 9.46447C19.9763 9.2692 19.6597 9.2692 19.4645 9.46447C19.2692 9.65973 19.2692 9.97631 19.4645 10.1716L22.2929 13L19.4645 15.8284C19.2692 16.0237 19.2692 16.3403 19.4645 16.5355C19.6597 16.7308 19.9763 16.7308 20.1716 16.5355L23.3536 13.3536ZM3 13.5H23V12.5H3V13.5Z" fill="black"/>
<defs>
<radialGradient id="paint0_radial_571_600" cx="0" cy="0" r="1" gradientUnits="userSpaceOnUse" gradientTransform="translate(312.5 12.5) rotate(90) scale(12.5)">
<stop offset="0.171875"/>
<stop offset="0.171975" stop-color="white"/>
</radialGradient>
<radialGradient id="paint1_radial_571_600" cx="0" cy="0" r="1" gradientUnits="userSpaceOnUse" gradientTransform="translate(287.5 12.5) rotate(90) scale(12.5)">
<stop offset="0.171875"/>
<stop offset="0.171975" stop-color="white"/>
</radialGradient>
<radialGradient id="paint2_radial_571_600" cx="0" cy="0" r="1" gradientUnits="userSpaceOnUse" gradientTransform="translate(262.5 12.5) rotate(90) scale(12.5)">
<stop offset="0.171875"/>
<stop offset="0.171975" stop-color="white"/>
</radialGradient>
<radialGradient id="paint3_radial_571_600" cx="0" cy="0" r="1" gradientUnits="userSpaceOnUse" gradientTransform="translate(237.5 12.5) rotate(90) scale(12.5)">
<stop offset="0.171875"/>
<stop offset="0.171975" stop-color="white"/>
</radialGradient>
<radialGradient id="paint4_radial_571_600" cx="0" cy="0" r="1" gradientUnits="userSpaceOnUse" gradientTransform="translate(212.5 12.5) rotate(90) scale(12.5)">
<stop offset="0.171875"/>
<stop offset="0.171975" stop-color="white"/>
</radialGradient>
<linearGradient id="paint5_linear_571_600" x1="162.5" y1="0" x2="162.5" y2="25" gradientUnits="userSpaceOnUse">
<stop offset="0.255208" stop-color="#DDB078"/>
<stop offset="0.598958" stop-color="#F4D6B1"/>
</linearGradient>
<radialGradient id="paint6_radial_571_600" cx="0" cy="0" r="1" gradientUnits="userSpaceOnUse" gradientTransform="translate(187.5 12.5) rotate(90) scale(12.5)">
<stop offset="0.171875"/>
<stop offset="0.171975" stop-color="white"/>
</radialGradient>
<radialGradient id="paint7_radial_571_600" cx="0" cy="0" r="1" gradientUnits="userSpaceOnUse" gradientTransform="translate(137.5 12.5) rotate(90) scale(12.5)">
<stop offset="0.171875"/>
<stop offset="0.171975" stop-color="white"/>
</radialGradient>
<radialGradient id="paint8_radial_571_600" cx="0" cy="0" r="1" gradientUnits="userSpaceOnUse" gradientTransform="translate(112.5 12.5) rotate(90) scale(12.5)">
<stop offset="0.171875"/>
<stop offset="0.171975" stop-color="white"/>
</radialGradient>
<linearGradient id="paint9_linear_571_600" x1="87.5" y1="0" x2="87.5" y2="25" gradientUnits="userSpaceOnUse">
<stop offset="0.255208" stop-color="#DDB078"/>
<stop offset="0.598958" stop-color="#F4D6B1"/>
</linearGradient>
<radialGradient id="paint10_radial_571_600" cx="0" cy="0" r="1" gradientUnits="userSpaceOnUse" gradientTransform="translate(62.5 12.5) rotate(90) scale(12.5)">
<stop offset="0.171875"/>
<stop offset="0.171975" stop-color="white"/>
</radialGradient>
<radialGradient id="paint11_radial_571_600" cx="0" cy="0" r="1" gradientUnits="userSpaceOnUse" gradientTransform="translate(37.5 12.5) rotate(90) scale(12.5)">
<stop offset="0.171875"/>
<stop offset="0.171975" stop-color="white"/>
</radialGradient>
<linearGradient id="paint12_linear_571_600" x1="12.5" y1="0" x2="12.5" y2="25" gradientUnits="userSpaceOnUse">
<stop offset="0.255208" stop-color="#DDB078"/>
<stop offset="0.598958" stop-color="#F4D6B1"/>
</linearGradient>
<linearGradient id="paint13_linear_571_600" x1="12.5" y1="0" x2="12.5" y2="25" gradientUnits="userSpaceOnUse">
<stop offset="0.255208" stop-color="#DDB078"/>
<stop offset="0.598958" stop-color="#F4D6B1"/>
</linearGradient>
</defs>
</svg>
