<svg width="38" height="38" viewBox="0 0 38 38" fill="none" xmlns="http://www.w3.org/2000/svg">
<path d="M16.8452 24.4545V24.3182C16.8603 22.8712 17.0118 21.7197 17.2997 20.8636C17.5876 20.0076 17.9967 19.3144 18.527 18.7841C19.0573 18.2538 19.6937 17.7652 20.4361 17.3182C20.883 17.0455 21.2846 16.7235 21.6406 16.3523C21.9967 15.9735 22.277 15.5379 22.4815 15.0455C22.6937 14.553 22.7997 14.0076 22.7997 13.4091C22.7997 12.6667 22.6255 12.0227 22.277 11.4773C21.9285 10.9318 21.4626 10.5114 20.8793 10.2159C20.2959 9.92045 19.6482 9.77273 18.9361 9.77273C18.3149 9.77273 17.7164 9.90151 17.1406 10.1591C16.5649 10.4167 16.0838 10.822 15.6974 11.375C15.3111 11.928 15.0876 12.6515 15.027 13.5455H12.1634C12.224 12.2576 12.5573 11.1553 13.1634 10.2386C13.777 9.32197 14.5838 8.62121 15.5838 8.13636C16.5914 7.65151 17.7088 7.40909 18.9361 7.40909C20.2694 7.40909 21.4285 7.67424 22.4134 8.20454C23.4058 8.73485 24.1709 9.46212 24.7088 10.3864C25.2543 11.3106 25.527 12.3636 25.527 13.5455C25.527 14.3788 25.3982 15.1326 25.1406 15.8068C24.8906 16.4811 24.527 17.0833 24.0497 17.6136C23.58 18.1439 23.0118 18.6136 22.3452 19.0227C21.6785 19.4394 21.1444 19.8788 20.7429 20.3409C20.3414 20.7955 20.0497 21.3371 19.8679 21.9659C19.6861 22.5947 19.5876 23.3788 19.5724 24.3182V24.4545H16.8452ZM18.2997 31.1818C17.7391 31.1818 17.258 30.9811 16.8565 30.5795C16.455 30.178 16.2543 29.697 16.2543 29.1364C16.2543 28.5758 16.455 28.0947 16.8565 27.6932C17.258 27.2917 17.7391 27.0909 18.2997 27.0909C18.8603 27.0909 19.3414 27.2917 19.7429 27.6932C20.1444 28.0947 20.3452 28.5758 20.3452 29.1364C20.3452 29.5076 20.2505 29.8485 20.0611 30.1591C19.8793 30.4697 19.633 30.7197 19.3224 30.9091C19.0194 31.0909 18.6785 31.1818 18.2997 31.1818Z" fill="#0024E1"/>
</svg>
