<svg width="536" height="27" viewBox="0 0 536 27" fill="none" xmlns="http://www.w3.org/2000/svg">
<path d="M406.1 1.1H430.9V25.25C430.9 25.2654 430.893 25.2918 430.854 25.3296C430.815 25.3676 430.752 25.4091 430.663 25.4515C430.484 25.5362 430.218 25.6151 429.882 25.6823C429.212 25.8164 428.281 25.9 427.25 25.9H409.75C408.719 25.9 407.788 25.8164 407.118 25.6823C406.782 25.6151 406.516 25.5362 406.337 25.4515C406.248 25.4091 406.185 25.3676 406.146 25.3296C406.107 25.2918 406.1 25.2654 406.1 25.25V1.1Z" fill="white" stroke="black" stroke-width="0.2"/>
<path d="M419.31 10.7273V18H418.429V11.6506H418.386L416.611 12.8295V11.9347L418.429 10.7273H419.31Z" fill="black"/>
<path d="M356.1 1.1H380.9V25.25C380.9 25.2654 380.893 25.2918 380.854 25.3296C380.815 25.3676 380.752 25.4091 380.663 25.4515C380.484 25.5362 380.218 25.6151 379.882 25.6823C379.212 25.8164 378.281 25.9 377.25 25.9H359.75C358.719 25.9 357.788 25.8164 357.118 25.6823C356.782 25.6151 356.516 25.5362 356.337 25.4515C356.248 25.4091 356.185 25.3676 356.146 25.3296C356.107 25.2918 356.1 25.2654 356.1 25.25V1.1Z" fill="url(#paint0_radial_1083_203)" stroke="black" stroke-width="0.2"/>
<path d="M381.1 1.1H405.9V25.25C405.9 25.2654 405.893 25.2918 405.854 25.3296C405.815 25.3676 405.752 25.4091 405.663 25.4515C405.484 25.5362 405.218 25.6151 404.882 25.6823C404.212 25.8164 403.281 25.9 402.25 25.9H384.75C383.719 25.9 382.788 25.8164 382.118 25.6823C381.782 25.6151 381.516 25.5362 381.337 25.4515C381.248 25.4091 381.185 25.3676 381.146 25.3296C381.107 25.2918 381.1 25.2654 381.1 25.25V1.1Z" fill="url(#paint1_radial_1083_203)" stroke="black" stroke-width="0.2"/>
<path d="M331.1 1.1H355.9V25.25C355.9 25.2654 355.893 25.2918 355.854 25.3296C355.815 25.3676 355.752 25.4091 355.663 25.4515C355.484 25.5362 355.218 25.6151 354.882 25.6823C354.212 25.8164 353.281 25.9 352.25 25.9H334.75C333.719 25.9 332.788 25.8164 332.118 25.6823C331.782 25.6151 331.516 25.5362 331.337 25.4515C331.248 25.4091 331.185 25.3676 331.146 25.3296C331.107 25.2918 331.1 25.2654 331.1 25.25V1.1Z" fill="url(#paint2_radial_1083_203)" stroke="black" stroke-width="0.2"/>
<path d="M306.1 1.1H330.9V25.25C330.9 25.2654 330.893 25.2918 330.854 25.3296C330.815 25.3676 330.752 25.4091 330.663 25.4515C330.484 25.5362 330.218 25.6151 329.882 25.6823C329.212 25.8164 328.281 25.9 327.25 25.9H309.75C308.719 25.9 307.788 25.8164 307.118 25.6823C306.782 25.6151 306.516 25.5362 306.337 25.4515C306.248 25.4091 306.185 25.3676 306.146 25.3296C306.107 25.2918 306.1 25.2654 306.1 25.25V1.1Z" fill="url(#paint3_radial_1083_203)" stroke="black" stroke-width="0.2"/>
<path d="M281.1 1.1H305.9V25.25C305.9 25.2654 305.893 25.2918 305.854 25.3296C305.815 25.3676 305.752 25.4091 305.663 25.4515C305.484 25.5362 305.218 25.6151 304.882 25.6823C304.212 25.8164 303.281 25.9 302.25 25.9H284.75C283.719 25.9 282.788 25.8164 282.118 25.6823C281.782 25.6151 281.516 25.5362 281.337 25.4515C281.248 25.4091 281.185 25.3676 281.146 25.3296C281.107 25.2918 281.1 25.2654 281.1 25.25V1.1Z" fill="url(#paint4_radial_1083_203)" stroke="black" stroke-width="0.2"/>
<path d="M231.1 1.1H255.9V25.25C255.9 25.2654 255.893 25.2918 255.854 25.3296C255.815 25.3676 255.752 25.4091 255.663 25.4515C255.484 25.5362 255.218 25.6151 254.882 25.6823C254.212 25.8164 253.281 25.9 252.25 25.9H234.75C233.719 25.9 232.788 25.8164 232.118 25.6823C231.782 25.6151 231.516 25.5362 231.337 25.4515C231.248 25.4091 231.185 25.3676 231.146 25.3296C231.107 25.2918 231.1 25.2654 231.1 25.25V1.1Z" fill="url(#paint5_radial_1083_203)" stroke="black" stroke-width="0.2"/>
<path d="M206.1 1.1H230.9V25.25C230.9 25.2654 230.893 25.2918 230.854 25.3296C230.815 25.3676 230.752 25.4091 230.663 25.4515C230.484 25.5362 230.218 25.6151 229.882 25.6823C229.212 25.8164 228.281 25.9 227.25 25.9H209.75C208.719 25.9 207.788 25.8164 207.118 25.6823C206.782 25.6151 206.516 25.5362 206.337 25.4515C206.248 25.4091 206.185 25.3676 206.146 25.3296C206.107 25.2918 206.1 25.2654 206.1 25.25V1.1Z" fill="url(#paint6_radial_1083_203)" stroke="black" stroke-width="0.2"/>
<path d="M181.1 1.1H205.9V25.25C205.9 25.2654 205.893 25.2918 205.854 25.3296C205.815 25.3676 205.752 25.4091 205.663 25.4515C205.484 25.5362 205.218 25.6151 204.882 25.6823C204.212 25.8164 203.281 25.9 202.25 25.9H184.75C183.719 25.9 182.788 25.8164 182.118 25.6823C181.782 25.6151 181.516 25.5362 181.337 25.4515C181.248 25.4091 181.185 25.3676 181.146 25.3296C181.107 25.2918 181.1 25.2654 181.1 25.25V1.1Z" fill="url(#paint7_linear_1083_203)" stroke="black" stroke-width="0.2"/>
<path d="M195.21 18.0994C194.741 18.0994 194.324 18.0189 193.957 17.858C193.592 17.697 193.302 17.4732 193.087 17.1868C192.874 16.898 192.758 16.563 192.739 16.1818H193.634C193.652 16.4162 193.733 16.6186 193.875 16.7891C194.017 16.9571 194.203 17.0874 194.433 17.1797C194.662 17.272 194.917 17.3182 195.196 17.3182C195.509 17.3182 195.786 17.2637 196.027 17.1548C196.268 17.0459 196.458 16.8944 196.595 16.7003C196.732 16.5062 196.801 16.2812 196.801 16.0256C196.801 15.758 196.735 15.5225 196.602 15.3189C196.47 15.1129 196.276 14.9519 196.02 14.8359C195.764 14.7199 195.452 14.6619 195.082 14.6619H194.5V13.8807H195.082C195.371 13.8807 195.625 13.8286 195.842 13.7244C196.063 13.6203 196.234 13.4735 196.357 13.2841C196.483 13.0947 196.545 12.8722 196.545 12.6165C196.545 12.3703 196.491 12.156 196.382 11.9737C196.273 11.7914 196.119 11.6494 195.92 11.5476C195.724 11.4458 195.492 11.3949 195.224 11.3949C194.973 11.3949 194.737 11.4411 194.514 11.5334C194.294 11.6233 194.114 11.7547 193.974 11.9276C193.835 12.098 193.759 12.304 193.747 12.5455H192.895C192.909 12.1643 193.024 11.8305 193.239 11.544C193.455 11.2552 193.737 11.0303 194.085 10.8693C194.435 10.7083 194.82 10.6278 195.239 10.6278C195.688 10.6278 196.074 10.719 196.396 10.9013C196.718 11.0812 196.966 11.3191 197.138 11.6151C197.311 11.911 197.398 12.2306 197.398 12.5739C197.398 12.9834 197.29 13.3326 197.075 13.6214C196.862 13.9103 196.571 14.1103 196.205 14.2216V14.2784C196.664 14.3542 197.022 14.5495 197.281 14.8643C197.539 15.1768 197.668 15.5639 197.668 16.0256C197.668 16.4209 197.56 16.776 197.344 17.0909C197.131 17.4034 196.84 17.6496 196.471 17.8295C196.102 18.0095 195.681 18.0994 195.21 18.0994Z" fill="black"/>
<path d="M188 18.379L189.833 17.027C190.639 16.442 190.951 15.779 190.977 15.285C190.977 14.557 190.314 14.011 189.534 14.011C188.988 14.011 188.585 14.219 188.325 14.648L188.416 10.553H188V18.379ZM189.209 14.531C189.625 14.531 189.937 14.83 189.937 15.233C189.937 15.909 189.04 17.209 188.364 17.638C188.325 17.417 188.299 16.988 188.299 16.351C188.299 16 188.325 15.571 188.377 15.077C188.572 14.713 188.845 14.531 189.209 14.531Z" fill="black"/>
<path d="M256.1 1.1H280.9V25.25C280.9 25.2654 280.893 25.2918 280.854 25.3296C280.815 25.3676 280.752 25.4091 280.663 25.4515C280.484 25.5362 280.218 25.6151 279.882 25.6823C279.212 25.8164 278.281 25.9 277.25 25.9H259.75C258.719 25.9 257.788 25.8164 257.118 25.6823C256.782 25.6151 256.516 25.5362 256.337 25.4515C256.248 25.4091 256.185 25.3676 256.146 25.3296C256.107 25.2918 256.1 25.2654 256.1 25.25V1.1Z" fill="url(#paint8_linear_1083_203)" stroke="black" stroke-width="0.2"/>
<path d="M271.026 18.0994C270.609 18.0994 270.234 18.0166 269.9 17.8509C269.566 17.6851 269.299 17.4579 269.097 17.169C268.896 16.8802 268.786 16.5511 268.767 16.1818H269.619C269.652 16.5109 269.802 16.7831 270.067 16.9986C270.334 17.2116 270.654 17.3182 271.026 17.3182C271.324 17.3182 271.589 17.2483 271.821 17.1087C272.055 16.969 272.239 16.7772 272.371 16.5334C272.506 16.2872 272.574 16.009 272.574 15.6989C272.574 15.3816 272.504 15.0987 272.364 14.8501C272.227 14.5992 272.038 14.4015 271.796 14.2571C271.555 14.1127 271.279 14.0393 270.969 14.0369C270.746 14.0346 270.518 14.0689 270.283 14.1399C270.049 14.2086 269.856 14.2973 269.705 14.4062L268.881 14.3068L269.321 10.7273H273.099V11.5085H270.06L269.804 13.6534H269.847C269.996 13.535 270.183 13.4368 270.408 13.3587C270.633 13.2805 270.867 13.2415 271.111 13.2415C271.556 13.2415 271.952 13.348 272.3 13.5611C272.651 13.7718 272.925 14.0606 273.124 14.4276C273.326 14.7945 273.426 15.2135 273.426 15.6847C273.426 16.1487 273.322 16.563 273.114 16.9276C272.908 17.2898 272.624 17.5762 272.261 17.7869C271.899 17.9953 271.487 18.0994 271.026 18.0994Z" fill="black"/>
<path d="M264 18.379L265.833 17.027C266.639 16.442 266.951 15.779 266.977 15.285C266.977 14.557 266.314 14.011 265.534 14.011C264.988 14.011 264.585 14.219 264.325 14.648L264.416 10.553H264V18.379ZM265.209 14.531C265.625 14.531 265.937 14.83 265.937 15.233C265.937 15.909 265.04 17.209 264.364 17.638C264.325 17.417 264.299 16.988 264.299 16.351C264.299 16 264.325 15.571 264.377 15.077C264.572 14.713 264.845 14.531 265.209 14.531Z" fill="black"/>
<path d="M156.1 1.1H180.9V25.25C180.9 25.2654 180.893 25.2918 180.854 25.3296C180.815 25.3676 180.752 25.4091 180.663 25.4515C180.484 25.5362 180.218 25.6151 179.882 25.6823C179.212 25.8164 178.281 25.9 177.25 25.9H159.75C158.719 25.9 157.788 25.8164 157.118 25.6823C156.782 25.6151 156.516 25.5362 156.337 25.4515C156.248 25.4091 156.185 25.3676 156.146 25.3296C156.107 25.2918 156.1 25.2654 156.1 25.25V1.1Z" fill="url(#paint9_radial_1083_203)" stroke="black" stroke-width="0.2"/>
<path d="M131.1 1.1H155.9V25.25C155.9 25.2654 155.893 25.2918 155.854 25.3296C155.815 25.3676 155.752 25.4091 155.663 25.4515C155.484 25.5362 155.218 25.6151 154.882 25.6823C154.212 25.8164 153.281 25.9 152.25 25.9H134.75C133.719 25.9 132.788 25.8164 132.118 25.6823C131.782 25.6151 131.516 25.5362 131.337 25.4515C131.248 25.4091 131.185 25.3676 131.146 25.3296C131.107 25.2918 131.1 25.2654 131.1 25.25V1.1Z" fill="url(#paint10_radial_1083_203)" stroke="black" stroke-width="0.2"/>
<path d="M106.1 1.1H130.9V25.25C130.9 25.2654 130.893 25.2918 130.854 25.3296C130.815 25.3676 130.752 25.4091 130.663 25.4515C130.484 25.5362 130.218 25.6151 129.882 25.6823C129.212 25.8164 128.281 25.9 127.25 25.9H109.75C108.719 25.9 107.788 25.8164 107.118 25.6823C106.782 25.6151 106.516 25.5362 106.337 25.4515C106.248 25.4091 106.185 25.3676 106.146 25.3296C106.107 25.2918 106.1 25.2654 106.1 25.25V1.1Z" fill="url(#paint11_linear_1083_203)" stroke="black" stroke-width="0.2"/>
<path d="M106.1 1.1H130.9V25.25C130.9 25.2654 130.893 25.2918 130.854 25.3296C130.815 25.3676 130.752 25.4091 130.663 25.4515C130.484 25.5362 130.218 25.6151 129.882 25.6823C129.212 25.8164 128.281 25.9 127.25 25.9H109.75C108.719 25.9 107.788 25.8164 107.118 25.6823C106.782 25.6151 106.516 25.5362 106.337 25.4515C106.248 25.4091 106.185 25.3676 106.146 25.3296C106.107 25.2918 106.1 25.2654 106.1 25.25V1.1Z" fill="url(#paint12_linear_1083_203)" stroke="black" stroke-width="0.2"/>
<path d="M119.31 10.7273V18H118.429V11.6506H118.386L116.611 12.8295V11.9347L118.429 10.7273H119.31Z" fill="black"/>
<path d="M444.5 1.5H535.5V24.94C535.348 24.9739 535.133 25.0099 534.852 25.046C534.172 25.1334 533.176 25.2134 531.931 25.2811C529.445 25.4162 526.005 25.5 522.2 25.5H457.8C453.995 25.5 450.555 25.4162 448.069 25.2811C446.824 25.2134 445.828 25.1334 445.148 25.046C444.867 25.0099 444.652 24.9739 444.5 24.94V1.5Z" fill="white" stroke="#D6A86F"/>
<path d="M467.75 15.8636L469.653 11.5455H470.449L468.091 17H467.409L465.094 11.5455H465.875L467.75 15.8636ZM465.605 11.5455V17H464.767V11.5455H465.605ZM469.895 17V11.5455H470.733V17H469.895ZM474.71 17.0994C474.241 17.0994 473.824 17.0189 473.457 16.858C473.092 16.697 472.802 16.4732 472.587 16.1868C472.374 15.898 472.258 15.563 472.239 15.1818H473.134C473.152 15.4162 473.233 15.6186 473.375 15.7891C473.517 15.9571 473.703 16.0874 473.933 16.1797C474.162 16.272 474.417 16.3182 474.696 16.3182C475.009 16.3182 475.286 16.2637 475.527 16.1548C475.768 16.0459 475.958 15.8944 476.095 15.7003C476.232 15.5062 476.301 15.2812 476.301 15.0256C476.301 14.758 476.235 14.5225 476.102 14.3189C475.97 14.1129 475.776 13.9519 475.52 13.8359C475.264 13.7199 474.952 13.6619 474.582 13.6619H474V12.8807H474.582C474.871 12.8807 475.125 12.8286 475.342 12.7244C475.563 12.6203 475.734 12.4735 475.857 12.2841C475.983 12.0947 476.045 11.8722 476.045 11.6165C476.045 11.3703 475.991 11.156 475.882 10.9737C475.773 10.7914 475.619 10.6494 475.42 10.5476C475.224 10.4458 474.992 10.3949 474.724 10.3949C474.473 10.3949 474.237 10.4411 474.014 10.5334C473.794 10.6233 473.614 10.7547 473.474 10.9276C473.335 11.098 473.259 11.304 473.247 11.5455H472.395C472.409 11.1643 472.524 10.8305 472.739 10.544C472.955 10.2552 473.237 10.0303 473.585 9.86932C473.935 9.70833 474.32 9.62784 474.739 9.62784C475.188 9.62784 475.574 9.71899 475.896 9.90128C476.218 10.0812 476.466 10.3191 476.638 10.6151C476.811 10.911 476.898 11.2306 476.898 11.5739C476.898 11.9834 476.79 12.3326 476.575 12.6214C476.362 12.9103 476.071 13.1103 475.705 13.2216V13.2784C476.164 13.3542 476.522 13.5495 476.781 13.8643C477.039 14.1768 477.168 14.5639 477.168 15.0256C477.168 15.4209 477.06 15.776 476.844 16.0909C476.631 16.4034 476.34 16.6496 475.971 16.8295C475.602 17.0095 475.181 17.0994 474.71 17.0994ZM480.765 16.5028V11.8153H481.56V16.5028H480.765ZM478.819 14.5568V13.7614H483.506V14.5568H478.819ZM488.209 15.8636L490.112 11.5455H490.908L488.55 17H487.868L485.553 11.5455H486.334L488.209 15.8636ZM486.064 11.5455V17H485.226V11.5455H486.064ZM490.354 17V11.5455H491.192V17H490.354ZM495.169 17.0994C494.7 17.0994 494.283 17.0189 493.916 16.858C493.551 16.697 493.261 16.4732 493.046 16.1868C492.833 15.898 492.717 15.563 492.698 15.1818H493.593C493.611 15.4162 493.692 15.6186 493.834 15.7891C493.976 15.9571 494.162 16.0874 494.392 16.1797C494.621 16.272 494.876 16.3182 495.155 16.3182C495.468 16.3182 495.744 16.2637 495.986 16.1548C496.227 16.0459 496.417 15.8944 496.554 15.7003C496.691 15.5062 496.76 15.2812 496.76 15.0256C496.76 14.758 496.694 14.5225 496.561 14.3189C496.429 14.1129 496.235 13.9519 495.979 13.8359C495.723 13.7199 495.411 13.6619 495.041 13.6619H494.459V12.8807H495.041C495.33 12.8807 495.584 12.8286 495.801 12.7244C496.021 12.6203 496.193 12.4735 496.316 12.2841C496.442 12.0947 496.504 11.8722 496.504 11.6165C496.504 11.3703 496.45 11.156 496.341 10.9737C496.232 10.7914 496.078 10.6494 495.879 10.5476C495.683 10.4458 495.451 10.3949 495.183 10.3949C494.932 10.3949 494.696 10.4411 494.473 10.5334C494.253 10.6233 494.073 10.7547 493.933 10.9276C493.794 11.098 493.718 11.304 493.706 11.5455H492.854C492.868 11.1643 492.983 10.8305 493.198 10.544C493.414 10.2552 493.695 10.0303 494.044 9.86932C494.394 9.70833 494.779 9.62784 495.198 9.62784C495.647 9.62784 496.033 9.71899 496.355 9.90128C496.677 10.0812 496.925 10.3191 497.097 10.6151C497.27 10.911 497.357 11.2306 497.357 11.5739C497.357 11.9834 497.249 12.3326 497.034 12.6214C496.82 12.9103 496.53 13.1103 496.164 13.2216V13.2784C496.623 13.3542 496.981 13.5495 497.24 13.8643C497.498 14.1768 497.627 14.5639 497.627 15.0256C497.627 15.4209 497.519 15.776 497.303 16.0909C497.09 16.4034 496.799 16.6496 496.43 16.8295C496.061 17.0095 495.64 17.0994 495.169 17.0994ZM499.434 12.696V11.929H503.809V12.696H499.434ZM499.434 14.7983V14.0312H503.809V14.7983H499.434ZM505.401 10.5085V9.72727H510.855V10.5085H508.569V17H507.688V10.5085H505.401ZM511.817 10.5085V9.72727H517.271V10.5085H514.985V17H514.104V10.5085H511.817ZM518.233 10.5085V9.72727H523.688V10.5085H521.401V17H520.52V10.5085H518.233Z" fill="black"/>
<path d="M1 1H93V25.25C93 25.6642 86.8215 26 79.2 26H14.8C7.17847 26 1 25.6642 1 25.25V1Z" fill="white" stroke="#D6A86F" stroke-miterlimit="16"/>
<path d="M39.974 19H38.138L34.736 13.42L31.28 19H29.57L33.836 12.304L29.84 6.148H31.64L34.79 11.188L37.958 6.148H39.668L35.69 12.268L39.974 19ZM47.4969 6.724L44.5809 7.552V7.876H45.5889C45.8589 7.966 45.9849 8.254 45.9849 8.74V11.44C45.4989 10.99 44.9049 10.756 44.1849 10.756C41.9889 10.756 40.5129 13.15 40.5129 15.256C40.5129 17.38 41.8269 19.162 43.7169 19.162C44.7069 19.162 45.4629 18.73 45.9849 17.884V19.234C46.7949 18.748 47.7669 18.388 48.9009 18.172V17.848C48.8289 17.848 48.7029 17.866 48.5049 17.884H48.1809C47.7309 17.884 47.4969 17.578 47.4969 16.984V6.724ZM45.9849 17.092C45.6789 17.866 45.1389 18.244 44.3649 18.244C42.9249 18.244 42.0609 16.804 42.0609 14.716C42.0609 12.808 42.8529 11.296 44.2929 11.296C45.0309 11.296 45.5709 11.692 45.8769 12.484C45.9489 12.682 45.9849 12.79 45.9849 12.844V17.092ZM52.3955 7.588C52.3955 7.156 51.9815 6.724 51.4955 6.724C51.0095 6.724 50.5595 7.174 50.5595 7.66C50.5595 8.092 50.9735 8.524 51.4595 8.524C51.9455 8.524 52.3955 8.074 52.3955 7.588ZM52.2155 10.792L49.2995 11.8V12.196C49.6775 12.106 49.9655 12.052 50.1275 12.052C50.5055 12.052 50.7035 12.412 50.7035 13.132V16.948C50.7035 18.496 50.4875 18.676 49.2995 18.676V19H53.6195V18.676C52.4315 18.676 52.2155 18.496 52.2155 16.948V10.792ZM67.4007 19V18.676C66.4467 18.676 66.2127 18.388 66.2127 17.164V13.168C66.2127 12.7 65.8167 11.512 65.4927 11.188C65.2047 10.9 64.7727 10.756 64.1967 10.756C63.0627 10.756 62.0547 11.242 61.1727 12.232C60.9747 11.242 60.3807 10.756 59.3727 10.756C58.3107 10.756 57.3927 11.242 56.6007 12.196V10.756L53.9007 11.62V11.944H54.7647C54.9807 12.016 55.0887 12.25 55.0887 12.664V17.164C55.0887 18.388 54.8547 18.676 53.9007 18.676V19H57.6807V18.676C56.9067 18.676 56.6007 18.388 56.6007 17.416V12.772C57.1947 11.998 57.8607 11.62 58.5807 11.62C59.4267 11.62 59.8407 12.106 59.8407 13.096V17.272C59.8407 18.424 59.5347 18.676 58.7607 18.676V19H62.5407V18.676C61.5867 18.676 61.3527 18.388 61.3527 17.164C61.3527 17.11 61.3707 16.642 61.3887 15.76V13.96C61.3707 13.312 61.3347 12.898 61.2807 12.736C61.9287 11.998 62.6127 11.62 63.3327 11.62C64.2507 11.62 64.7007 12.106 64.7007 13.096V17.272C64.7007 18.424 64.3947 18.676 63.6207 18.676V19H67.4007Z" fill="black"/>
<defs>
<radialGradient id="paint0_radial_1083_203" cx="0" cy="0" r="1" gradientUnits="userSpaceOnUse" gradientTransform="translate(368.5 13.5) rotate(90) scale(12.5)">
<stop offset="0.171875"/>
<stop offset="0.171975" stop-color="white"/>
</radialGradient>
<radialGradient id="paint1_radial_1083_203" cx="0" cy="0" r="1" gradientUnits="userSpaceOnUse" gradientTransform="translate(393.5 13.5) rotate(90) scale(12.5)">
<stop offset="0.171875"/>
<stop offset="0.171975" stop-color="white"/>
</radialGradient>
<radialGradient id="paint2_radial_1083_203" cx="0" cy="0" r="1" gradientUnits="userSpaceOnUse" gradientTransform="translate(343.5 13.5) rotate(90) scale(12.5)">
<stop offset="0.171875"/>
<stop offset="0.171975" stop-color="white"/>
</radialGradient>
<radialGradient id="paint3_radial_1083_203" cx="0" cy="0" r="1" gradientUnits="userSpaceOnUse" gradientTransform="translate(318.5 13.5) rotate(90) scale(12.5)">
<stop offset="0.171875"/>
<stop offset="0.171975" stop-color="white"/>
</radialGradient>
<radialGradient id="paint4_radial_1083_203" cx="0" cy="0" r="1" gradientUnits="userSpaceOnUse" gradientTransform="translate(293.5 13.5) rotate(90) scale(12.5)">
<stop offset="0.171875"/>
<stop offset="0.171975" stop-color="white"/>
</radialGradient>
<radialGradient id="paint5_radial_1083_203" cx="0" cy="0" r="1" gradientUnits="userSpaceOnUse" gradientTransform="translate(243.5 13.5) rotate(90) scale(12.5)">
<stop offset="0.171875"/>
<stop offset="0.171975" stop-color="white"/>
</radialGradient>
<radialGradient id="paint6_radial_1083_203" cx="0" cy="0" r="1" gradientUnits="userSpaceOnUse" gradientTransform="translate(218.5 13.5) rotate(90) scale(12.5)">
<stop offset="0.171875"/>
<stop offset="0.171975" stop-color="white"/>
</radialGradient>
<linearGradient id="paint7_linear_1083_203" x1="193.5" y1="1" x2="193.5" y2="26" gradientUnits="userSpaceOnUse">
<stop offset="0.255208" stop-color="#DDB078"/>
<stop offset="0.598958" stop-color="#F4D6B1"/>
</linearGradient>
<linearGradient id="paint8_linear_1083_203" x1="268.5" y1="1" x2="268.5" y2="26" gradientUnits="userSpaceOnUse">
<stop offset="0.255208" stop-color="#DDB078"/>
<stop offset="0.598958" stop-color="#F4D6B1"/>
</linearGradient>
<radialGradient id="paint9_radial_1083_203" cx="0" cy="0" r="1" gradientUnits="userSpaceOnUse" gradientTransform="translate(168.5 13.5) rotate(90) scale(12.5)">
<stop offset="0.171875"/>
<stop offset="0.171975" stop-color="white"/>
</radialGradient>
<radialGradient id="paint10_radial_1083_203" cx="0" cy="0" r="1" gradientUnits="userSpaceOnUse" gradientTransform="translate(143.5 13.5) rotate(90) scale(12.5)">
<stop offset="0.171875"/>
<stop offset="0.171975" stop-color="white"/>
</radialGradient>
<linearGradient id="paint11_linear_1083_203" x1="118.5" y1="1" x2="118.5" y2="26" gradientUnits="userSpaceOnUse">
<stop offset="0.255208" stop-color="#DDB078"/>
<stop offset="0.598958" stop-color="#F4D6B1"/>
</linearGradient>
<linearGradient id="paint12_linear_1083_203" x1="118.5" y1="1" x2="118.5" y2="26" gradientUnits="userSpaceOnUse">
<stop offset="0.255208" stop-color="#DDB078"/>
<stop offset="0.598958" stop-color="#F4D6B1"/>
</linearGradient>
</defs>
</svg>
