<svg width="534" height="27" viewBox="0 0 534 27" fill="none" xmlns="http://www.w3.org/2000/svg">
<path d="M379.1 1.1H403.9V25.25C403.9 25.2654 403.893 25.2918 403.854 25.3296C403.815 25.3676 403.752 25.4091 403.663 25.4515C403.484 25.5362 403.218 25.6151 402.882 25.6823C402.212 25.8164 401.281 25.9 400.25 25.9H382.75C381.719 25.9 380.788 25.8164 380.118 25.6823C379.782 25.6151 379.516 25.5362 379.337 25.4515C379.248 25.4091 379.185 25.3676 379.146 25.3296C379.107 25.2918 379.1 25.2654 379.1 25.25V1.1Z" fill="url(#paint0_radial_578_781)" stroke="black" stroke-width="0.2"/>
<path d="M354.1 1.1H378.9V25.25C378.9 25.2654 378.893 25.2918 378.854 25.3296C378.815 25.3676 378.752 25.4091 378.663 25.4515C378.484 25.5362 378.218 25.6151 377.882 25.6823C377.212 25.8164 376.281 25.9 375.25 25.9H357.75C356.719 25.9 355.788 25.8164 355.118 25.6823C354.782 25.6151 354.516 25.5362 354.337 25.4515C354.248 25.4091 354.185 25.3676 354.146 25.3296C354.107 25.2918 354.1 25.2654 354.1 25.25V1.1Z" fill="url(#paint1_radial_578_781)" stroke="black" stroke-width="0.2"/>
<path d="M304.1 1.1H328.9V25.25C328.9 25.2654 328.893 25.2918 328.854 25.3296C328.815 25.3676 328.752 25.4091 328.663 25.4515C328.484 25.5362 328.218 25.6151 327.882 25.6823C327.212 25.8164 326.281 25.9 325.25 25.9H307.75C306.719 25.9 305.788 25.8164 305.118 25.6823C304.782 25.6151 304.516 25.5362 304.337 25.4515C304.248 25.4091 304.185 25.3676 304.146 25.3296C304.107 25.2918 304.1 25.2654 304.1 25.25V1.1Z" fill="url(#paint2_radial_578_781)" stroke="black" stroke-width="0.2"/>
<path d="M279.1 1.1H303.9V25.25C303.9 25.2654 303.893 25.2918 303.854 25.3296C303.815 25.3676 303.752 25.4091 303.663 25.4515C303.484 25.5362 303.218 25.6151 302.882 25.6823C302.212 25.8164 301.281 25.9 300.25 25.9H282.75C281.719 25.9 280.788 25.8164 280.118 25.6823C279.782 25.6151 279.516 25.5362 279.337 25.4515C279.248 25.4091 279.185 25.3676 279.146 25.3296C279.107 25.2918 279.1 25.2654 279.1 25.25V1.1Z" fill="url(#paint3_radial_578_781)" stroke="black" stroke-width="0.2"/>
<path d="M229.1 1.1H253.9V25.25C253.9 25.2654 253.893 25.2918 253.854 25.3296C253.815 25.3676 253.752 25.4091 253.663 25.4515C253.484 25.5362 253.218 25.6151 252.882 25.6823C252.212 25.8164 251.281 25.9 250.25 25.9H232.75C231.719 25.9 230.788 25.8164 230.118 25.6823C229.782 25.6151 229.516 25.5362 229.337 25.4515C229.248 25.4091 229.185 25.3676 229.146 25.3296C229.107 25.2918 229.1 25.2654 229.1 25.25V1.1Z" fill="url(#paint4_radial_578_781)" stroke="black" stroke-width="0.2"/>
<path d="M204.1 1.1H228.9V25.25C228.9 25.2654 228.893 25.2918 228.854 25.3296C228.815 25.3676 228.752 25.4091 228.663 25.4515C228.484 25.5362 228.218 25.6151 227.882 25.6823C227.212 25.8164 226.281 25.9 225.25 25.9H207.75C206.719 25.9 205.788 25.8164 205.118 25.6823C204.782 25.6151 204.516 25.5362 204.337 25.4515C204.248 25.4091 204.185 25.3676 204.146 25.3296C204.107 25.2918 204.1 25.2654 204.1 25.25V1.1Z" fill="url(#paint5_radial_578_781)" stroke="black" stroke-width="0.2"/>
<path d="M154.1 1.1H178.9V25.25C178.9 25.2654 178.893 25.2918 178.854 25.3296C178.815 25.3676 178.752 25.4091 178.663 25.4515C178.484 25.5362 178.218 25.6151 177.882 25.6823C177.212 25.8164 176.281 25.9 175.25 25.9H157.75C156.719 25.9 155.788 25.8164 155.118 25.6823C154.782 25.6151 154.516 25.5362 154.337 25.4515C154.248 25.4091 154.185 25.3676 154.146 25.3296C154.107 25.2918 154.1 25.2654 154.1 25.25V1.1Z" fill="url(#paint6_radial_578_781)" stroke="black" stroke-width="0.2"/>
<path d="M129.1 1.1H153.9V25.25C153.9 25.2654 153.893 25.2918 153.854 25.3296C153.815 25.3676 153.752 25.4091 153.663 25.4515C153.484 25.5362 153.218 25.6151 152.882 25.6823C152.212 25.8164 151.281 25.9 150.25 25.9H132.75C131.719 25.9 130.788 25.8164 130.118 25.6823C129.782 25.6151 129.516 25.5362 129.337 25.4515C129.248 25.4091 129.185 25.3676 129.146 25.3296C129.107 25.2918 129.1 25.2654 129.1 25.25V1.1Z" fill="url(#paint7_radial_578_781)" stroke="black" stroke-width="0.2"/>
<path d="M104.1 1.1H128.9V25.25C128.9 25.2654 128.893 25.2918 128.854 25.3296C128.815 25.3676 128.752 25.4091 128.663 25.4515C128.484 25.5362 128.218 25.6151 127.882 25.6823C127.212 25.8164 126.281 25.9 125.25 25.9H107.75C106.719 25.9 105.788 25.8164 105.118 25.6823C104.782 25.6151 104.516 25.5362 104.337 25.4515C104.248 25.4091 104.185 25.3676 104.146 25.3296C104.107 25.2918 104.1 25.2654 104.1 25.25V1.1Z" fill="url(#paint8_linear_578_781)" stroke="black" stroke-width="0.2"/>
<path d="M104.1 1.1H128.9V25.25C128.9 25.2654 128.893 25.2918 128.854 25.3296C128.815 25.3676 128.752 25.4091 128.663 25.4515C128.484 25.5362 128.218 25.6151 127.882 25.6823C127.212 25.8164 126.281 25.9 125.25 25.9H107.75C106.719 25.9 105.788 25.8164 105.118 25.6823C104.782 25.6151 104.516 25.5362 104.337 25.4515C104.248 25.4091 104.185 25.3676 104.146 25.3296C104.107 25.2918 104.1 25.2654 104.1 25.25V1.1Z" fill="url(#paint9_linear_578_781)" stroke="black" stroke-width="0.2"/>
<path d="M117.31 10.7273V18H116.429V11.6506H116.386L114.611 12.8295V11.9347L116.429 10.7273H117.31Z" fill="black"/>
<path d="M329.1 1.1H353.9V25.25C353.9 25.2654 353.893 25.2918 353.854 25.3296C353.815 25.3676 353.752 25.4091 353.663 25.4515C353.484 25.5362 353.218 25.6151 352.882 25.6823C352.212 25.8164 351.281 25.9 350.25 25.9H332.75C331.719 25.9 330.788 25.8164 330.118 25.6823C329.782 25.6151 329.516 25.5362 329.337 25.4515C329.248 25.4091 329.185 25.3676 329.146 25.3296C329.107 25.2918 329.1 25.2654 329.1 25.25V1.1Z" fill="url(#paint10_linear_578_781)" stroke="black" stroke-width="0.2"/>
<path d="M341.168 18.0994C340.869 18.0947 340.571 18.0379 340.273 17.929C339.974 17.8201 339.702 17.6366 339.456 17.3786C339.21 17.1181 339.012 16.7666 338.863 16.3239C338.714 15.8788 338.639 15.3201 338.639 14.6477C338.639 14.0038 338.7 13.4332 338.82 12.9361C338.941 12.4366 339.116 12.0163 339.346 11.6754C339.576 11.3321 339.853 11.0717 340.177 10.8942C340.504 10.7166 340.872 10.6278 341.281 10.6278C341.688 10.6278 342.051 10.7095 342.368 10.8729C342.688 11.0339 342.948 11.2588 343.149 11.5476C343.35 11.8364 343.481 12.169 343.54 12.5455H342.673C342.593 12.2187 342.437 11.9477 342.205 11.7322C341.973 11.5168 341.665 11.4091 341.281 11.4091C340.718 11.4091 340.274 11.6541 339.95 12.1442C339.628 12.6342 339.465 13.322 339.463 14.2074H339.52C339.652 14.0062 339.81 13.8345 339.992 13.6925C340.177 13.5481 340.38 13.4368 340.603 13.3587C340.826 13.2805 341.061 13.2415 341.31 13.2415C341.726 13.2415 342.107 13.3456 342.453 13.554C342.799 13.7599 343.076 14.0452 343.284 14.4098C343.492 14.772 343.597 15.1875 343.597 15.6562C343.597 16.1061 343.496 16.518 343.295 16.892C343.094 17.2637 342.811 17.5597 342.446 17.7798C342.084 17.9976 341.658 18.1042 341.168 18.0994ZM341.168 17.3182C341.466 17.3182 341.733 17.2436 341.97 17.0945C342.209 16.9453 342.397 16.7453 342.535 16.4943C342.674 16.2434 342.744 15.964 342.744 15.6562C342.744 15.3556 342.677 15.0821 342.542 14.8359C342.409 14.5874 342.226 14.3897 341.991 14.2429C341.759 14.0961 341.494 14.0227 341.196 14.0227C340.971 14.0227 340.762 14.0677 340.567 14.1577C340.373 14.2453 340.203 14.366 340.056 14.5199C339.912 14.6738 339.798 14.8501 339.715 15.049C339.632 15.2455 339.591 15.4527 339.591 15.6705C339.591 15.9593 339.658 16.2292 339.793 16.4801C339.931 16.7311 340.118 16.9335 340.354 17.0874C340.594 17.2412 340.865 17.3182 341.168 17.3182Z" fill="black"/>
<path d="M254.1 1.1H278.9V25.25C278.9 25.2654 278.893 25.2918 278.854 25.3296C278.815 25.3676 278.752 25.4091 278.663 25.4515C278.484 25.5362 278.218 25.6151 277.882 25.6823C277.212 25.8164 276.281 25.9 275.25 25.9H257.75C256.719 25.9 255.788 25.8164 255.118 25.6823C254.782 25.6151 254.516 25.5362 254.337 25.4515C254.248 25.4091 254.185 25.3676 254.146 25.3296C254.107 25.2918 254.1 25.2654 254.1 25.25V1.1Z" fill="url(#paint11_linear_578_781)" stroke="black" stroke-width="0.2"/>
<path d="M268.026 18.0994C267.609 18.0994 267.234 18.0166 266.9 17.8509C266.566 17.6851 266.299 17.4579 266.097 17.169C265.896 16.8802 265.786 16.5511 265.767 16.1818H266.619C266.652 16.5109 266.802 16.7831 267.067 16.9986C267.334 17.2116 267.654 17.3182 268.026 17.3182C268.324 17.3182 268.589 17.2483 268.821 17.1087C269.055 16.969 269.239 16.7772 269.371 16.5334C269.506 16.2872 269.574 16.009 269.574 15.6989C269.574 15.3816 269.504 15.0987 269.364 14.8501C269.227 14.5992 269.038 14.4015 268.796 14.2571C268.555 14.1127 268.279 14.0393 267.969 14.0369C267.746 14.0346 267.518 14.0689 267.283 14.1399C267.049 14.2086 266.856 14.2973 266.705 14.4062L265.881 14.3068L266.321 10.7273H270.099V11.5085H267.06L266.804 13.6534H266.847C266.996 13.535 267.183 13.4368 267.408 13.3587C267.633 13.2805 267.867 13.2415 268.111 13.2415C268.556 13.2415 268.952 13.348 269.3 13.5611C269.651 13.7718 269.925 14.0606 270.124 14.4276C270.326 14.7945 270.426 15.2135 270.426 15.6847C270.426 16.1487 270.322 16.563 270.114 16.9276C269.908 17.2898 269.624 17.5762 269.261 17.7869C268.899 17.9953 268.487 18.0994 268.026 18.0994Z" fill="black"/>
<path d="M262 18.379L263.833 17.027C264.639 16.442 264.951 15.779 264.977 15.285C264.977 14.557 264.314 14.011 263.534 14.011C262.988 14.011 262.585 14.219 262.325 14.648L262.416 10.553H262V18.379ZM263.209 14.531C263.625 14.531 263.937 14.83 263.937 15.233C263.937 15.909 263.04 17.209 262.364 17.638C262.325 17.417 262.299 16.988 262.299 16.351C262.299 16 262.325 15.571 262.377 15.077C262.572 14.713 262.845 14.531 263.209 14.531Z" fill="black"/>
<path d="M442.5 1.5H533.5V24.94C533.348 24.9739 533.133 25.0099 532.852 25.046C532.172 25.1334 531.176 25.2134 529.931 25.2811C527.445 25.4162 524.005 25.5 520.2 25.5H455.8C451.995 25.5 448.555 25.4162 446.069 25.2811C444.824 25.2134 443.828 25.1334 443.148 25.046C442.867 25.0099 442.652 24.9739 442.5 24.94V1.5Z" fill="white" stroke="#D6A86F"/>
<path d="M455.75 10.8636L457.653 6.54545H458.449L456.091 12H455.409L453.094 6.54545H453.875L455.75 10.8636ZM453.605 6.54545V12H452.767V6.54545H453.605ZM457.895 12V6.54545H458.733V12H457.895ZM462.71 12.0994C462.241 12.0994 461.824 12.0189 461.457 11.858C461.092 11.697 460.802 11.4732 460.587 11.1868C460.374 10.898 460.258 10.563 460.239 10.1818H461.134C461.152 10.4162 461.233 10.6186 461.375 10.7891C461.517 10.9571 461.703 11.0874 461.933 11.1797C462.162 11.272 462.417 11.3182 462.696 11.3182C463.009 11.3182 463.286 11.2637 463.527 11.1548C463.768 11.0459 463.958 10.8944 464.095 10.7003C464.232 10.5062 464.301 10.2812 464.301 10.0256C464.301 9.75805 464.235 9.52249 464.102 9.31889C463.97 9.11293 463.776 8.95194 463.52 8.83594C463.264 8.71993 462.952 8.66193 462.582 8.66193H462V7.88068H462.582C462.871 7.88068 463.125 7.8286 463.342 7.72443C463.563 7.62026 463.734 7.47348 463.857 7.28409C463.983 7.0947 464.045 6.87216 464.045 6.61648C464.045 6.37026 463.991 6.15601 463.882 5.97372C463.773 5.79143 463.619 5.64938 463.42 5.54759C463.224 5.44579 462.992 5.39489 462.724 5.39489C462.473 5.39489 462.237 5.44105 462.014 5.53338C461.794 5.62334 461.614 5.75473 461.474 5.92756C461.335 6.09801 461.259 6.30398 461.247 6.54545H460.395C460.409 6.1643 460.524 5.83049 460.739 5.54403C460.955 5.25521 461.237 5.0303 461.585 4.86932C461.935 4.70833 462.32 4.62784 462.739 4.62784C463.188 4.62784 463.574 4.71899 463.896 4.90128C464.218 5.0812 464.466 5.31913 464.638 5.61506C464.811 5.91098 464.898 6.23059 464.898 6.57386C464.898 6.98343 464.79 7.33262 464.575 7.62145C464.362 7.91027 464.071 8.11032 463.705 8.22159V8.27841C464.164 8.35417 464.522 8.54948 464.781 8.86435C465.039 9.17685 465.168 9.56392 465.168 10.0256C465.168 10.4209 465.06 10.776 464.844 11.0909C464.631 11.4034 464.34 11.6496 463.971 11.8295C463.602 12.0095 463.181 12.0994 462.71 12.0994ZM468.765 11.5028V6.81534H469.56V11.5028H468.765ZM466.819 9.55682V8.76136H471.506V9.55682H466.819ZM476.209 10.8636L478.112 6.54545H478.908L476.55 12H475.868L473.553 6.54545H474.334L476.209 10.8636ZM474.064 6.54545V12H473.226V6.54545H474.064ZM478.354 12V6.54545H479.192V12H478.354ZM483.169 12.0994C482.7 12.0994 482.283 12.0189 481.916 11.858C481.551 11.697 481.261 11.4732 481.046 11.1868C480.833 10.898 480.717 10.563 480.698 10.1818H481.593C481.611 10.4162 481.692 10.6186 481.834 10.7891C481.976 10.9571 482.162 11.0874 482.392 11.1797C482.621 11.272 482.876 11.3182 483.155 11.3182C483.468 11.3182 483.744 11.2637 483.986 11.1548C484.227 11.0459 484.417 10.8944 484.554 10.7003C484.691 10.5062 484.76 10.2812 484.76 10.0256C484.76 9.75805 484.694 9.52249 484.561 9.31889C484.429 9.11293 484.235 8.95194 483.979 8.83594C483.723 8.71993 483.411 8.66193 483.041 8.66193H482.459V7.88068H483.041C483.33 7.88068 483.584 7.8286 483.801 7.72443C484.021 7.62026 484.193 7.47348 484.316 7.28409C484.442 7.0947 484.504 6.87216 484.504 6.61648C484.504 6.37026 484.45 6.15601 484.341 5.97372C484.232 5.79143 484.078 5.64938 483.879 5.54759C483.683 5.44579 483.451 5.39489 483.183 5.39489C482.932 5.39489 482.696 5.44105 482.473 5.53338C482.253 5.62334 482.073 5.75473 481.933 5.92756C481.794 6.09801 481.718 6.30398 481.706 6.54545H480.854C480.868 6.1643 480.983 5.83049 481.198 5.54403C481.414 5.25521 481.695 5.0303 482.044 4.86932C482.394 4.70833 482.779 4.62784 483.198 4.62784C483.647 4.62784 484.033 4.71899 484.355 4.90128C484.677 5.0812 484.925 5.31913 485.097 5.61506C485.27 5.91098 485.357 6.23059 485.357 6.57386C485.357 6.98343 485.249 7.33262 485.034 7.62145C484.82 7.91027 484.53 8.11032 484.164 8.22159V8.27841C484.623 8.35417 484.981 8.54948 485.24 8.86435C485.498 9.17685 485.627 9.56392 485.627 10.0256C485.627 10.4209 485.519 10.776 485.303 11.0909C485.09 11.4034 484.799 11.6496 484.43 11.8295C484.061 12.0095 483.64 12.0994 483.169 12.0994ZM489.224 11.5028V6.81534H490.019V11.5028H489.224ZM487.278 9.55682V8.76136H491.965V9.55682H487.278ZM496.668 10.8636L498.571 6.54545H499.367L497.009 12H496.327L494.012 6.54545H494.793L496.668 10.8636ZM494.523 6.54545V12H493.685V6.54545H494.523ZM498.813 12V6.54545H499.651V12H498.813ZM503.628 12.0994C503.159 12.0994 502.742 12.0189 502.375 11.858C502.01 11.697 501.72 11.4732 501.505 11.1868C501.292 10.898 501.176 10.563 501.157 10.1818H502.051C502.07 10.4162 502.151 10.6186 502.293 10.7891C502.435 10.9571 502.621 11.0874 502.85 11.1797C503.08 11.272 503.335 11.3182 503.614 11.3182C503.926 11.3182 504.203 11.2637 504.445 11.1548C504.686 11.0459 504.876 10.8944 505.013 10.7003C505.15 10.5062 505.219 10.2812 505.219 10.0256C505.219 9.75805 505.153 9.52249 505.02 9.31889C504.888 9.11293 504.694 8.95194 504.438 8.83594C504.182 8.71993 503.87 8.66193 503.5 8.66193H502.918V7.88068H503.5C503.789 7.88068 504.042 7.8286 504.26 7.72443C504.48 7.62026 504.652 7.47348 504.775 7.28409C504.901 7.0947 504.963 6.87216 504.963 6.61648C504.963 6.37026 504.909 6.15601 504.8 5.97372C504.691 5.79143 504.537 5.64938 504.338 5.54759C504.142 5.44579 503.91 5.39489 503.642 5.39489C503.391 5.39489 503.155 5.44105 502.932 5.53338C502.712 5.62334 502.532 5.75473 502.392 5.92756C502.253 6.09801 502.177 6.30398 502.165 6.54545H501.313C501.327 6.1643 501.442 5.83049 501.657 5.54403C501.873 5.25521 502.154 5.0303 502.502 4.86932C502.853 4.70833 503.238 4.62784 503.657 4.62784C504.106 4.62784 504.492 4.71899 504.814 4.90128C505.136 5.0812 505.384 5.31913 505.556 5.61506C505.729 5.91098 505.816 6.23059 505.816 6.57386C505.816 6.98343 505.708 7.33262 505.493 7.62145C505.279 7.91027 504.989 8.11032 504.623 8.22159V8.27841C505.082 8.35417 505.44 8.54948 505.699 8.86435C505.957 9.17685 506.086 9.56392 506.086 10.0256C506.086 10.4209 505.978 10.776 505.762 11.0909C505.549 11.4034 505.258 11.6496 504.889 11.8295C504.52 12.0095 504.099 12.0994 503.628 12.0994ZM507.893 7.69602V6.92898H512.268V7.69602H507.893ZM507.893 9.7983V9.03125H512.268V9.7983H507.893ZM514.258 12V4.72727H518.647V5.50852H515.138V7.78125H516.985C517.506 7.78125 517.945 7.86648 518.302 8.03693C518.662 8.20739 518.934 8.44768 519.119 8.75781C519.306 9.06795 519.4 9.43371 519.4 9.85511C519.4 10.2765 519.306 10.6482 519.119 10.9702C518.934 11.2921 518.662 11.5443 518.302 11.7266C517.945 11.9089 517.506 12 516.985 12H514.258ZM515.138 11.233H516.985C517.316 11.233 517.597 11.1667 517.827 11.0341C518.059 10.8991 518.234 10.7263 518.352 10.5156C518.473 10.3026 518.533 10.0777 518.533 9.84091C518.533 9.4929 518.399 9.19342 518.132 8.94247C517.864 8.68916 517.482 8.5625 516.985 8.5625H515.138V11.233ZM523.136 12.0994C522.838 12.0947 522.54 12.0379 522.241 11.929C521.943 11.8201 521.671 11.6366 521.425 11.3786C521.179 11.1181 520.981 10.7666 520.832 10.3239C520.683 9.87879 520.608 9.32008 520.608 8.64773C520.608 8.00379 520.668 7.43324 520.789 6.93608C520.91 6.43655 521.085 6.01634 521.315 5.67543C521.544 5.33215 521.821 5.07173 522.146 4.89418C522.472 4.71662 522.84 4.62784 523.25 4.62784C523.657 4.62784 524.019 4.70952 524.337 4.87287C524.656 5.03385 524.917 5.25876 525.118 5.54759C525.319 5.83641 525.449 6.16903 525.509 6.54545H524.642C524.562 6.21875 524.405 5.94768 524.173 5.73224C523.941 5.51681 523.634 5.40909 523.25 5.40909C522.687 5.40909 522.243 5.65412 521.918 6.14418C521.596 6.63423 521.434 7.32197 521.432 8.20739H521.489C521.621 8.00616 521.779 7.83452 521.961 7.69247C522.146 7.54806 522.349 7.43679 522.572 7.35866C522.794 7.28054 523.03 7.24148 523.278 7.24148C523.695 7.24148 524.076 7.34564 524.422 7.55398C524.768 7.75994 525.045 8.04522 525.253 8.4098C525.461 8.77202 525.565 9.1875 525.565 9.65625C525.565 10.1061 525.465 10.518 525.263 10.892C525.062 11.2637 524.779 11.5597 524.415 11.7798C524.053 11.9976 523.626 12.1042 523.136 12.0994ZM523.136 11.3182C523.435 11.3182 523.702 11.2436 523.939 11.0945C524.178 10.9453 524.366 10.7453 524.504 10.4943C524.643 10.2434 524.713 9.96402 524.713 9.65625C524.713 9.35559 524.646 9.08215 524.511 8.83594C524.378 8.58736 524.195 8.38968 523.96 8.2429C523.728 8.09612 523.463 8.02273 523.165 8.02273C522.94 8.02273 522.73 8.06771 522.536 8.15767C522.342 8.24527 522.172 8.366 522.025 8.51989C521.88 8.67377 521.767 8.85014 521.684 9.04901C521.601 9.2455 521.56 9.45265 521.56 9.67045C521.56 9.95928 521.627 10.2292 521.762 10.4801C521.899 10.7311 522.086 10.9335 522.323 11.0874C522.562 11.2412 522.833 11.3182 523.136 11.3182Z" fill="black"/>
<path d="M465.21 22.0994C464.741 22.0994 464.324 22.0189 463.957 21.858C463.592 21.697 463.302 21.4732 463.087 21.1868C462.874 20.898 462.758 20.563 462.739 20.1818H463.634C463.652 20.4162 463.733 20.6186 463.875 20.7891C464.017 20.9571 464.203 21.0874 464.433 21.1797C464.662 21.272 464.917 21.3182 465.196 21.3182C465.509 21.3182 465.786 21.2637 466.027 21.1548C466.268 21.0459 466.458 20.8944 466.595 20.7003C466.732 20.5062 466.801 20.2812 466.801 20.0256C466.801 19.758 466.735 19.5225 466.602 19.3189C466.47 19.1129 466.276 18.9519 466.02 18.8359C465.764 18.7199 465.452 18.6619 465.082 18.6619H464.5V17.8807H465.082C465.371 17.8807 465.625 17.8286 465.842 17.7244C466.063 17.6203 466.234 17.4735 466.357 17.2841C466.483 17.0947 466.545 16.8722 466.545 16.6165C466.545 16.3703 466.491 16.156 466.382 15.9737C466.273 15.7914 466.119 15.6494 465.92 15.5476C465.724 15.4458 465.492 15.3949 465.224 15.3949C464.973 15.3949 464.737 15.4411 464.514 15.5334C464.294 15.6233 464.114 15.7547 463.974 15.9276C463.835 16.098 463.759 16.304 463.747 16.5455H462.895C462.909 16.1643 463.024 15.8305 463.239 15.544C463.455 15.2552 463.737 15.0303 464.085 14.8693C464.435 14.7083 464.82 14.6278 465.239 14.6278C465.688 14.6278 466.074 14.719 466.396 14.9013C466.718 15.0812 466.966 15.3191 467.138 15.6151C467.311 15.911 467.398 16.2306 467.398 16.5739C467.398 16.9834 467.29 17.3326 467.075 17.6214C466.862 17.9103 466.571 18.1103 466.205 18.2216V18.2784C466.664 18.3542 467.022 18.5495 467.281 18.8643C467.539 19.1768 467.668 19.5639 467.668 20.0256C467.668 20.4209 467.56 20.776 467.344 21.0909C467.131 21.4034 466.84 21.6496 466.471 21.8295C466.102 22.0095 465.681 22.0994 465.21 22.0994ZM468.85 15.5085V14.7273H474.305V15.5085H472.018V22H471.137V15.5085H468.85Z" fill="black"/>
<path d="M485.21 22.0994C484.741 22.0994 484.324 22.0189 483.957 21.858C483.592 21.697 483.302 21.4732 483.087 21.1868C482.874 20.898 482.758 20.563 482.739 20.1818H483.634C483.652 20.4162 483.733 20.6186 483.875 20.7891C484.017 20.9571 484.203 21.0874 484.433 21.1797C484.662 21.272 484.917 21.3182 485.196 21.3182C485.509 21.3182 485.786 21.2637 486.027 21.1548C486.268 21.0459 486.458 20.8944 486.595 20.7003C486.732 20.5062 486.801 20.2812 486.801 20.0256C486.801 19.758 486.735 19.5225 486.602 19.3189C486.47 19.1129 486.276 18.9519 486.02 18.8359C485.764 18.7199 485.452 18.6619 485.082 18.6619H484.5V17.8807H485.082C485.371 17.8807 485.625 17.8286 485.842 17.7244C486.063 17.6203 486.234 17.4735 486.357 17.2841C486.483 17.0947 486.545 16.8722 486.545 16.6165C486.545 16.3703 486.491 16.156 486.382 15.9737C486.273 15.7914 486.119 15.6494 485.92 15.5476C485.724 15.4458 485.492 15.3949 485.224 15.3949C484.973 15.3949 484.737 15.4411 484.514 15.5334C484.294 15.6233 484.114 15.7547 483.974 15.9276C483.835 16.098 483.759 16.304 483.747 16.5455H482.895C482.909 16.1643 483.024 15.8305 483.239 15.544C483.455 15.2552 483.737 15.0303 484.085 14.8693C484.435 14.7083 484.82 14.6278 485.239 14.6278C485.688 14.6278 486.074 14.719 486.396 14.9013C486.718 15.0812 486.966 15.3191 487.138 15.6151C487.311 15.911 487.398 16.2306 487.398 16.5739C487.398 16.9834 487.29 17.3326 487.075 17.6214C486.862 17.9103 486.571 18.1103 486.205 18.2216V18.2784C486.664 18.3542 487.022 18.5495 487.281 18.8643C487.539 19.1768 487.668 19.5639 487.668 20.0256C487.668 20.4209 487.56 20.776 487.344 21.0909C487.131 21.4034 486.84 21.6496 486.471 21.8295C486.102 22.0095 485.681 22.0994 485.21 22.0994ZM488.85 15.5085V14.7273H494.305V15.5085H492.018V22H491.137V15.5085H488.85Z" fill="black"/>
<path d="M179.1 1.1H203.9V25.25C203.9 25.2654 203.893 25.2918 203.854 25.3296C203.815 25.3676 203.752 25.4091 203.663 25.4515C203.484 25.5362 203.218 25.6151 202.882 25.6823C202.212 25.8164 201.281 25.9 200.25 25.9H182.75C181.719 25.9 180.788 25.8164 180.118 25.6823C179.782 25.6151 179.516 25.5362 179.337 25.4515C179.248 25.4091 179.185 25.3676 179.146 25.3296C179.107 25.2918 179.1 25.2654 179.1 25.25V1.1Z" fill="url(#paint12_linear_578_781)" stroke="black" stroke-width="0.2"/>
<path d="M193.21 18.0994C192.741 18.0994 192.324 18.0189 191.957 17.858C191.592 17.697 191.302 17.4732 191.087 17.1868C190.874 16.898 190.758 16.563 190.739 16.1818H191.634C191.652 16.4162 191.733 16.6186 191.875 16.7891C192.017 16.9571 192.203 17.0874 192.433 17.1797C192.662 17.272 192.917 17.3182 193.196 17.3182C193.509 17.3182 193.786 17.2637 194.027 17.1548C194.268 17.0459 194.458 16.8944 194.595 16.7003C194.732 16.5062 194.801 16.2812 194.801 16.0256C194.801 15.758 194.735 15.5225 194.602 15.3189C194.47 15.1129 194.276 14.9519 194.02 14.8359C193.764 14.7199 193.452 14.6619 193.082 14.6619H192.5V13.8807H193.082C193.371 13.8807 193.625 13.8286 193.842 13.7244C194.063 13.6203 194.234 13.4735 194.357 13.2841C194.483 13.0947 194.545 12.8722 194.545 12.6165C194.545 12.3703 194.491 12.156 194.382 11.9737C194.273 11.7914 194.119 11.6494 193.92 11.5476C193.724 11.4458 193.492 11.3949 193.224 11.3949C192.973 11.3949 192.737 11.4411 192.514 11.5334C192.294 11.6233 192.114 11.7547 191.974 11.9276C191.835 12.098 191.759 12.304 191.747 12.5455H190.895C190.909 12.1643 191.024 11.8305 191.239 11.544C191.455 11.2552 191.737 11.0303 192.085 10.8693C192.435 10.7083 192.82 10.6278 193.239 10.6278C193.688 10.6278 194.074 10.719 194.396 10.9013C194.718 11.0812 194.966 11.3191 195.138 11.6151C195.311 11.911 195.398 12.2306 195.398 12.5739C195.398 12.9834 195.29 13.3326 195.075 13.6214C194.862 13.9103 194.571 14.1103 194.205 14.2216V14.2784C194.664 14.3542 195.022 14.5495 195.281 14.8643C195.539 15.1768 195.668 15.5639 195.668 16.0256C195.668 16.4209 195.56 16.776 195.344 17.0909C195.131 17.4034 194.84 17.6496 194.471 17.8295C194.102 18.0095 193.681 18.0994 193.21 18.0994Z" fill="black"/>
<path d="M187 18.379L188.833 17.027C189.639 16.442 189.951 15.779 189.977 15.285C189.977 14.557 189.314 14.011 188.534 14.011C187.988 14.011 187.585 14.219 187.325 14.648L187.416 10.553H187V18.379ZM188.209 14.531C188.625 14.531 188.937 14.83 188.937 15.233C188.937 15.909 188.04 17.209 187.364 17.638C187.325 17.417 187.299 16.988 187.299 16.351C187.299 16 187.325 15.571 187.377 15.077C187.572 14.713 187.845 14.531 188.209 14.531Z" fill="black"/>
<path d="M1 1H93V25.25C93 25.6642 86.8215 26 79.2 26H14.8C7.17847 26 1 25.6642 1 25.25V1Z" fill="white" stroke="#D6A86F" stroke-miterlimit="16"/>
<path d="M44.384 12.412L46.76 9.388C47.984 7.822 48.524 7.444 49.568 7.408V7.084H45.32V7.408C46.184 7.408 46.616 7.642 46.616 8.092C46.616 8.308 46.436 8.65 46.076 9.1L43.952 11.764L42.116 9.028C41.828 8.614 41.684 8.308 41.684 8.092C41.684 7.66 42.098 7.426 42.908 7.408V7.084H37.4V7.408C38.696 7.444 39.344 7.93 40.568 9.712L42.908 13.132L40.1 16.696C39.146 17.92 38.174 18.586 37.184 18.676V19H41.396V18.676C40.622 18.658 40.244 18.424 40.244 17.992C40.244 17.776 40.442 17.434 40.82 16.948L43.304 13.744L45.32 16.804C45.698 17.38 45.896 17.776 45.896 17.992C45.896 18.424 45.5 18.658 44.708 18.676V19H49.82V18.676C48.758 18.64 48.344 18.298 46.94 16.228L44.384 12.412ZM50.5368 15.076C50.5368 17.344 52.1028 19.162 54.4248 19.162C56.8008 19.162 58.4568 17.164 58.4568 14.86C58.4568 12.592 56.8908 10.756 54.5688 10.756C52.2108 10.756 50.5368 12.772 50.5368 15.076ZM56.8728 15.364C56.8728 17.308 56.1168 18.568 54.7128 18.568C53.0748 18.568 52.1208 16.678 52.1208 14.536C52.1208 12.592 52.8768 11.332 54.2808 11.332C55.9188 11.332 56.8728 13.222 56.8728 15.364Z" fill="black"/>
<path d="M404.1 1.1H428.9V25.25C428.9 25.2654 428.893 25.2918 428.854 25.3296C428.815 25.3676 428.752 25.4091 428.663 25.4515C428.484 25.5362 428.218 25.6151 427.882 25.6823C427.212 25.8164 426.281 25.9 425.25 25.9H407.75C406.719 25.9 405.788 25.8164 405.118 25.6823C404.782 25.6151 404.516 25.5362 404.337 25.4515C404.248 25.4091 404.185 25.3676 404.146 25.3296C404.107 25.2918 404.1 25.2654 404.1 25.25V1.1Z" fill="white" stroke="black" stroke-width="0.2"/>
<path d="M417.31 10.7273V18H416.429V11.6506H416.386L414.611 12.8295V11.9347L416.429 10.7273H417.31Z" fill="black"/>
<defs>
<radialGradient id="paint0_radial_578_781" cx="0" cy="0" r="1" gradientUnits="userSpaceOnUse" gradientTransform="translate(391.5 13.5) rotate(90) scale(12.5)">
<stop offset="0.171875"/>
<stop offset="0.171975" stop-color="white"/>
</radialGradient>
<radialGradient id="paint1_radial_578_781" cx="0" cy="0" r="1" gradientUnits="userSpaceOnUse" gradientTransform="translate(366.5 13.5) rotate(90) scale(12.5)">
<stop offset="0.171875"/>
<stop offset="0.171975" stop-color="white"/>
</radialGradient>
<radialGradient id="paint2_radial_578_781" cx="0" cy="0" r="1" gradientUnits="userSpaceOnUse" gradientTransform="translate(316.5 13.5) rotate(90) scale(12.5)">
<stop offset="0.171875"/>
<stop offset="0.171975" stop-color="white"/>
</radialGradient>
<radialGradient id="paint3_radial_578_781" cx="0" cy="0" r="1" gradientUnits="userSpaceOnUse" gradientTransform="translate(291.5 13.5) rotate(90) scale(12.5)">
<stop offset="0.171875"/>
<stop offset="0.171975" stop-color="white"/>
</radialGradient>
<radialGradient id="paint4_radial_578_781" cx="0" cy="0" r="1" gradientUnits="userSpaceOnUse" gradientTransform="translate(241.5 13.5) rotate(90) scale(12.5)">
<stop offset="0.171875"/>
<stop offset="0.171975" stop-color="white"/>
</radialGradient>
<radialGradient id="paint5_radial_578_781" cx="0" cy="0" r="1" gradientUnits="userSpaceOnUse" gradientTransform="translate(216.5 13.5) rotate(90) scale(12.5)">
<stop offset="0.171875"/>
<stop offset="0.171975" stop-color="white"/>
</radialGradient>
<radialGradient id="paint6_radial_578_781" cx="0" cy="0" r="1" gradientUnits="userSpaceOnUse" gradientTransform="translate(166.5 13.5) rotate(90) scale(12.5)">
<stop offset="0.171875"/>
<stop offset="0.171975" stop-color="white"/>
</radialGradient>
<radialGradient id="paint7_radial_578_781" cx="0" cy="0" r="1" gradientUnits="userSpaceOnUse" gradientTransform="translate(141.5 13.5) rotate(90) scale(12.5)">
<stop offset="0.171875"/>
<stop offset="0.171975" stop-color="white"/>
</radialGradient>
<linearGradient id="paint8_linear_578_781" x1="116.5" y1="1" x2="116.5" y2="26" gradientUnits="userSpaceOnUse">
<stop offset="0.255208" stop-color="#DDB078"/>
<stop offset="0.598958" stop-color="#F4D6B1"/>
</linearGradient>
<linearGradient id="paint9_linear_578_781" x1="116.5" y1="1" x2="116.5" y2="26" gradientUnits="userSpaceOnUse">
<stop offset="0.255208" stop-color="#DDB078"/>
<stop offset="0.598958" stop-color="#F4D6B1"/>
</linearGradient>
<linearGradient id="paint10_linear_578_781" x1="341.5" y1="1" x2="341.5" y2="26" gradientUnits="userSpaceOnUse">
<stop offset="0.255208" stop-color="#DDB078"/>
<stop offset="0.598958" stop-color="#F4D6B1"/>
</linearGradient>
<linearGradient id="paint11_linear_578_781" x1="266.5" y1="1" x2="266.5" y2="26" gradientUnits="userSpaceOnUse">
<stop offset="0.255208" stop-color="#DDB078"/>
<stop offset="0.598958" stop-color="#F4D6B1"/>
</linearGradient>
<linearGradient id="paint12_linear_578_781" x1="191.5" y1="1" x2="191.5" y2="26" gradientUnits="userSpaceOnUse">
<stop offset="0.255208" stop-color="#DDB078"/>
<stop offset="0.598958" stop-color="#F4D6B1"/>
</linearGradient>
</defs>
</svg>
