<svg width="325" height="26" viewBox="0 0 325 26" fill="none" xmlns="http://www.w3.org/2000/svg">
<path d="M300.5 0.501953H324.5V24.0878C324.497 24.0892 324.494 24.0905 324.492 24.0919C324.355 24.1562 324.127 24.2274 323.804 24.292C323.166 24.4195 322.263 24.502 321.25 24.502H303.75C302.737 24.502 301.834 24.4195 301.196 24.292C300.873 24.2274 300.645 24.1562 300.508 24.0919C300.506 24.0905 300.503 24.0892 300.5 24.0878V0.501953Z" fill="#D6A86F" fill-opacity="0.42" stroke="#D6A86F"/>
<path d="M303.602 9V8.48864L305.523 6.38636C305.748 6.14015 305.934 5.92614 306.08 5.74432C306.225 5.56061 306.333 5.38826 306.403 5.22727C306.475 5.06439 306.511 4.89394 306.511 4.71591C306.511 4.51136 306.462 4.33428 306.364 4.18466C306.267 4.03504 306.134 3.91951 305.966 3.83807C305.797 3.75663 305.608 3.71591 305.398 3.71591C305.174 3.71591 304.979 3.76231 304.812 3.85511C304.648 3.94602 304.52 4.07386 304.429 4.23864C304.34 4.40341 304.295 4.59659 304.295 4.81818H303.625C303.625 4.47727 303.704 4.17803 303.861 3.92045C304.018 3.66288 304.232 3.46212 304.503 3.31818C304.776 3.17424 305.081 3.10227 305.42 3.10227C305.761 3.10227 306.063 3.17424 306.327 3.31818C306.59 3.46212 306.796 3.65625 306.946 3.90057C307.096 4.14489 307.17 4.41667 307.17 4.71591C307.17 4.92992 307.132 5.1392 307.054 5.34375C306.978 5.5464 306.846 5.77273 306.656 6.02273C306.469 6.27083 306.208 6.57386 305.875 6.93182L304.568 8.32955V8.375H307.273V9H303.602Z" fill="black"/>
<path d="M312.318 20.6023V16.8523H312.955V20.6023H312.318ZM310.761 19.0455V18.4091H314.511V19.0455H310.761Z" fill="black"/>
<path d="M305.318 14.6023V10.8523H305.955V14.6023H305.318ZM303.761 13.0455V12.4091H307.511V13.0455H303.761Z" fill="black"/>
<path d="M312.318 8.60227V4.85227H312.955V8.60227H312.318ZM310.761 7.04545V6.40909H314.511V7.04545H310.761Z" fill="black"/>
<path d="M319.318 14.6023V10.8523H319.955V14.6023H319.318ZM317.761 13.0455V12.4091H321.511V13.0455H317.761Z" fill="black"/>
<path d="M317.602 9V8.48864L319.523 6.38636C319.748 6.14015 319.934 5.92614 320.08 5.74432C320.225 5.56061 320.333 5.38826 320.403 5.22727C320.475 5.06439 320.511 4.89394 320.511 4.71591C320.511 4.51136 320.462 4.33428 320.364 4.18466C320.267 4.03504 320.134 3.91951 319.966 3.83807C319.797 3.75663 319.608 3.71591 319.398 3.71591C319.174 3.71591 318.979 3.76231 318.812 3.85511C318.648 3.94602 318.52 4.07386 318.429 4.23864C318.34 4.40341 318.295 4.59659 318.295 4.81818H317.625C317.625 4.47727 317.704 4.17803 317.861 3.92045C318.018 3.66288 318.232 3.46212 318.503 3.31818C318.776 3.17424 319.081 3.10227 319.42 3.10227C319.761 3.10227 320.063 3.17424 320.327 3.31818C320.59 3.46212 320.796 3.65625 320.946 3.90057C321.096 4.14489 321.17 4.41667 321.17 4.71591C321.17 4.92992 321.132 5.1392 321.054 5.34375C320.978 5.5464 320.846 5.77273 320.656 6.02273C320.469 6.27083 320.208 6.57386 319.875 6.93182L318.568 8.32955V8.375H321.273V9H317.602Z" fill="black"/>
<path d="M317.602 22V21.4886L319.523 19.3864C319.748 19.1402 319.934 18.9261 320.08 18.7443C320.225 18.5606 320.333 18.3883 320.403 18.2273C320.475 18.0644 320.511 17.8939 320.511 17.7159C320.511 17.5114 320.462 17.3343 320.364 17.1847C320.267 17.035 320.134 16.9195 319.966 16.8381C319.797 16.7566 319.608 16.7159 319.398 16.7159C319.174 16.7159 318.979 16.7623 318.812 16.8551C318.648 16.946 318.52 17.0739 318.429 17.2386C318.34 17.4034 318.295 17.5966 318.295 17.8182H317.625C317.625 17.4773 317.704 17.178 317.861 16.9205C318.018 16.6629 318.232 16.4621 318.503 16.3182C318.776 16.1742 319.081 16.1023 319.42 16.1023C319.761 16.1023 320.063 16.1742 320.327 16.3182C320.59 16.4621 320.796 16.6562 320.946 16.9006C321.096 17.1449 321.17 17.4167 321.17 17.7159C321.17 17.9299 321.132 18.1392 321.054 18.3438C320.978 18.5464 320.846 18.7727 320.656 19.0227C320.469 19.2708 320.208 19.5739 319.875 19.9318L318.568 21.3295V21.375H321.273V22H317.602Z" fill="black"/>
<path d="M303.602 22V21.4886L305.523 19.3864C305.748 19.1402 305.934 18.9261 306.08 18.7443C306.225 18.5606 306.333 18.3883 306.403 18.2273C306.475 18.0644 306.511 17.8939 306.511 17.7159C306.511 17.5114 306.462 17.3343 306.364 17.1847C306.267 17.035 306.134 16.9195 305.966 16.8381C305.797 16.7566 305.608 16.7159 305.398 16.7159C305.174 16.7159 304.979 16.7623 304.812 16.8551C304.648 16.946 304.52 17.0739 304.429 17.2386C304.34 17.4034 304.295 17.5966 304.295 17.8182H303.625C303.625 17.4773 303.704 17.178 303.861 16.9205C304.018 16.6629 304.232 16.4621 304.503 16.3182C304.776 16.1742 305.081 16.1023 305.42 16.1023C305.761 16.1023 306.063 16.1742 306.327 16.3182C306.59 16.4621 306.796 16.6562 306.946 16.9006C307.096 17.1449 307.17 17.4167 307.17 17.7159C307.17 17.9299 307.132 18.1392 307.054 18.3438C306.978 18.5464 306.846 18.7727 306.656 19.0227C306.469 19.2708 306.208 19.5739 305.875 19.9318L304.568 21.3295V21.375H307.273V22H303.602Z" fill="black"/>
<path d="M225.1 0.101953H249.9V24.252C249.9 24.2674 249.893 24.2938 249.854 24.3316C249.815 24.3696 249.752 24.411 249.663 24.4535C249.484 24.5381 249.218 24.617 248.882 24.6842C248.212 24.8183 247.281 24.902 246.25 24.902H228.75C227.719 24.902 226.788 24.8183 226.118 24.6842C225.782 24.617 225.516 24.5381 225.337 24.4535C225.248 24.411 225.185 24.3696 225.146 24.3316C225.107 24.2938 225.1 24.2674 225.1 24.252V0.101953Z" fill="white" stroke="black" stroke-width="0.2"/>
<line x1="238.167" y1="14.002" x2="238.167" y2="24.002" stroke="#FD9800" stroke-width="2"/>
<line x1="243" y1="19.1685" x2="233" y2="19.1685" stroke="#FD9800" stroke-width="2"/>
<circle cx="238" cy="6.00195" r="5" fill="#0400B0"/>
<path d="M125.1 0.1H149.9V24.25C149.9 24.2654 149.893 24.2918 149.854 24.3296C149.815 24.3676 149.752 24.4091 149.663 24.4515C149.484 24.5362 149.218 24.6151 148.882 24.6823C148.212 24.8164 147.281 24.9 146.25 24.9H128.75C127.719 24.9 126.788 24.8164 126.118 24.6823C125.782 24.6151 125.516 24.5362 125.337 24.4515C125.248 24.4091 125.185 24.3676 125.146 24.3296C125.107 24.2918 125.1 24.2654 125.1 24.25V0.1Z" fill="white" stroke="black" stroke-width="0.2"/>
<line x1="138.167" y1="14" x2="138.167" y2="24" stroke="#FD9800" stroke-width="2"/>
<line x1="143" y1="19.1665" x2="133" y2="19.1665" stroke="#FD9800" stroke-width="2"/>
<circle cx="138" cy="6" r="5" fill="#0400B0"/>
<path d="M75.1 0.1H99.9V24.25C99.9 24.2654 99.8926 24.2918 99.8539 24.3296C99.815 24.3676 99.7523 24.4091 99.6626 24.4515C99.4835 24.5362 99.2181 24.6151 98.882 24.6823C98.2116 24.8164 97.281 24.9 96.25 24.9H78.75C77.719 24.9 76.7884 24.8164 76.118 24.6823C75.7819 24.6151 75.5165 24.5362 75.3374 24.4515C75.2477 24.4091 75.185 24.3676 75.1461 24.3296C75.1074 24.2918 75.1 24.2654 75.1 24.25V0.1Z" fill="white" stroke="black" stroke-width="0.2"/>
<line x1="88.1667" y1="14" x2="88.1667" y2="24" stroke="#FD9800" stroke-width="2"/>
<line x1="93" y1="19.1665" x2="83" y2="19.1665" stroke="#FD9800" stroke-width="2"/>
<circle cx="88" cy="6" r="5" fill="#0400B0"/>
<path d="M275.1 0.101953H299.9V24.252C299.9 24.2674 299.893 24.2938 299.854 24.3316C299.815 24.3696 299.752 24.411 299.663 24.4535C299.484 24.5381 299.218 24.617 298.882 24.6842C298.212 24.8183 297.281 24.902 296.25 24.902H278.75C277.719 24.902 276.788 24.8183 276.118 24.6842C275.782 24.617 275.516 24.5381 275.337 24.4535C275.248 24.411 275.185 24.3696 275.146 24.3316C275.107 24.2938 275.1 24.2674 275.1 24.252V0.101953Z" fill="white" stroke="black" stroke-width="0.2"/>
<circle cx="288" cy="6.00195" r="5" fill="#0400B0"/>
<line x1="288.167" y1="14.002" x2="288.167" y2="24.002" stroke="#FD9800" stroke-width="2"/>
<line x1="293" y1="19.1685" x2="283" y2="19.1685" stroke="#FD9800" stroke-width="2"/>
<path d="M50.1 0.101953H74.9V24.252C74.9 24.2674 74.8926 24.2938 74.8539 24.3316C74.815 24.3696 74.7523 24.411 74.6626 24.4535C74.4835 24.5381 74.2181 24.617 73.882 24.6842C73.2116 24.8183 72.281 24.902 71.25 24.902H53.75C52.719 24.902 51.7884 24.8183 51.118 24.6842C50.7819 24.617 50.5165 24.5381 50.3374 24.4535C50.2477 24.411 50.185 24.3696 50.1461 24.3316C50.1074 24.2938 50.1 24.2674 50.1 24.252V0.101953Z" fill="white" stroke="black" stroke-width="0.2"/>
<line x1="63.1667" y1="1.00195" x2="63.1667" y2="11.002" stroke="#FD9800" stroke-width="2"/>
<line x1="68" y1="6.16846" x2="58" y2="6.16846" stroke="#FD9800" stroke-width="2"/>
<circle cx="63" cy="19.002" r="5" fill="#0400B0"/>
<path d="M150.1 0.101953H174.9V24.252C174.9 24.2674 174.893 24.2938 174.854 24.3316C174.815 24.3696 174.752 24.411 174.663 24.4535C174.484 24.5381 174.218 24.617 173.882 24.6842C173.212 24.8183 172.281 24.902 171.25 24.902H153.75C152.719 24.902 151.788 24.8183 151.118 24.6842C150.782 24.617 150.516 24.5381 150.337 24.4535C150.248 24.411 150.185 24.3696 150.146 24.3316C150.107 24.2938 150.1 24.2674 150.1 24.252V0.101953Z" fill="white" stroke="black" stroke-width="0.2"/>
<line x1="163.167" y1="1.00195" x2="163.167" y2="11.002" stroke="#FD9800" stroke-width="2"/>
<line x1="168" y1="6.16846" x2="158" y2="6.16846" stroke="#FD9800" stroke-width="2"/>
<circle cx="163" cy="19.002" r="5" fill="#0400B0"/>
<path d="M200.1 0.101953H224.9V24.252C224.9 24.2674 224.893 24.2938 224.854 24.3316C224.815 24.3696 224.752 24.411 224.663 24.4535C224.484 24.5381 224.218 24.617 223.882 24.6842C223.212 24.8183 222.281 24.902 221.25 24.902H203.75C202.719 24.902 201.788 24.8183 201.118 24.6842C200.782 24.617 200.516 24.5381 200.337 24.4535C200.248 24.411 200.185 24.3696 200.146 24.3316C200.107 24.2938 200.1 24.2674 200.1 24.252V0.101953Z" fill="white" stroke="black" stroke-width="0.2"/>
<line x1="213.167" y1="1.00195" x2="213.167" y2="11.002" stroke="#FD9800" stroke-width="2"/>
<line x1="218" y1="6.16846" x2="208" y2="6.16846" stroke="#FD9800" stroke-width="2"/>
<circle cx="213" cy="19.002" r="5" fill="#0400B0"/>
<path d="M25.1 0.101953H49.9V24.252C49.9 24.2674 49.8926 24.2938 49.8539 24.3316C49.815 24.3696 49.7523 24.411 49.6626 24.4535C49.4835 24.5381 49.2181 24.617 48.882 24.6842C48.2116 24.8183 47.281 24.902 46.25 24.902H28.75C27.719 24.902 26.7884 24.8183 26.118 24.6842C25.7819 24.617 25.5165 24.5381 25.3374 24.4535C25.2477 24.411 25.185 24.3696 25.1461 24.3316C25.1074 24.2938 25.1 24.2674 25.1 24.252V0.101953Z" fill="url(#paint0_radial_576_545)" stroke="black" stroke-width="0.2"/>
<path d="M100.1 0.101953H124.9V24.252C124.9 24.2674 124.893 24.2938 124.854 24.3316C124.815 24.3696 124.752 24.411 124.663 24.4535C124.484 24.5381 124.218 24.617 123.882 24.6842C123.212 24.8183 122.281 24.902 121.25 24.902H103.75C102.719 24.902 101.788 24.8183 101.118 24.6842C100.782 24.617 100.516 24.5381 100.337 24.4535C100.248 24.411 100.185 24.3696 100.146 24.3316C100.107 24.2938 100.1 24.2674 100.1 24.252V0.101953Z" fill="url(#paint1_radial_576_545)" stroke="black" stroke-width="0.2"/>
<path d="M175.1 0.101953H199.9V24.252C199.9 24.2674 199.893 24.2938 199.854 24.3316C199.815 24.3696 199.752 24.411 199.663 24.4535C199.484 24.5381 199.218 24.617 198.882 24.6842C198.212 24.8183 197.281 24.902 196.25 24.902H178.75C177.719 24.902 176.788 24.8183 176.118 24.6842C175.782 24.617 175.516 24.5381 175.337 24.4535C175.248 24.411 175.185 24.3696 175.146 24.3316C175.107 24.2938 175.1 24.2674 175.1 24.252V0.101953Z" fill="url(#paint2_radial_576_545)" stroke="black" stroke-width="0.2"/>
<path d="M250.1 0.101953H274.9V24.252C274.9 24.2674 274.893 24.2938 274.854 24.3316C274.815 24.3696 274.752 24.411 274.663 24.4535C274.484 24.5381 274.218 24.617 273.882 24.6842C273.212 24.8183 272.281 24.902 271.25 24.902H253.75C252.719 24.902 251.788 24.8183 251.118 24.6842C250.782 24.617 250.516 24.5381 250.337 24.4535C250.248 24.411 250.185 24.3696 250.146 24.3316C250.107 24.2938 250.1 24.2674 250.1 24.252V0.101953Z" fill="url(#paint3_radial_576_545)" stroke="black" stroke-width="0.2"/>
<path d="M0.1 0.101953H24.9V24.252C24.9 24.2674 24.8926 24.2938 24.8539 24.3316C24.815 24.3696 24.7523 24.411 24.6626 24.4535C24.4835 24.5381 24.2181 24.617 23.882 24.6842C23.2116 24.8183 22.281 24.902 21.25 24.902H3.75C2.719 24.902 1.78838 24.8183 1.11796 24.6842C0.781929 24.617 0.516476 24.5381 0.337441 24.4535C0.24767 24.411 0.184964 24.3696 0.146084 24.3316C0.107371 24.2938 0.1 24.2674 0.1 24.252V0.101953Z" fill="white" stroke="black" stroke-width="0.2"/>
<line x1="13.1667" y1="1.00195" x2="13.1667" y2="11.002" stroke="#FD9800" stroke-width="2"/>
<line x1="18" y1="6.16846" x2="8" y2="6.16846" stroke="#FD9800" stroke-width="2"/>
<circle cx="13" cy="19.002" r="5" fill="#0400B0"/>
<defs>
<radialGradient id="paint0_radial_576_545" cx="0" cy="0" r="1" gradientUnits="userSpaceOnUse" gradientTransform="translate(37.5 12.502) rotate(90) scale(12.5)">
<stop offset="0.171875"/>
<stop offset="0.171975" stop-color="white"/>
</radialGradient>
<radialGradient id="paint1_radial_576_545" cx="0" cy="0" r="1" gradientUnits="userSpaceOnUse" gradientTransform="translate(112.5 12.502) rotate(90) scale(12.5)">
<stop offset="0.171875"/>
<stop offset="0.171975" stop-color="white"/>
</radialGradient>
<radialGradient id="paint2_radial_576_545" cx="0" cy="0" r="1" gradientUnits="userSpaceOnUse" gradientTransform="translate(187.5 12.502) rotate(90) scale(12.5)">
<stop offset="0.171875"/>
<stop offset="0.171975" stop-color="white"/>
</radialGradient>
<radialGradient id="paint3_radial_576_545" cx="0" cy="0" r="1" gradientUnits="userSpaceOnUse" gradientTransform="translate(262.5 12.502) rotate(90) scale(12.5)">
<stop offset="0.171875"/>
<stop offset="0.171975" stop-color="white"/>
</radialGradient>
</defs>
</svg>
