<svg width="325" height="25" viewBox="0 0 325 25" fill="none" xmlns="http://www.w3.org/2000/svg">
<path d="M300.5 0.5H324.5V24.0859C324.497 24.0872 324.494 24.0886 324.492 24.0899C324.355 24.1543 324.127 24.2255 323.804 24.29C323.166 24.4176 322.263 24.5 321.25 24.5H303.75C302.737 24.5 301.834 24.4176 301.196 24.29C300.873 24.2255 300.645 24.1543 300.508 24.0899C300.506 24.0886 300.503 24.0872 300.5 24.0859V0.5Z" fill="#D6A86F" fill-opacity="0.42" stroke="#D6A86F"/>
<path d="M306.21 16.0994C305.741 16.0994 305.324 16.0189 304.957 15.858C304.592 15.697 304.302 15.4732 304.087 15.1868C303.874 14.898 303.758 14.563 303.739 14.1818H304.634C304.652 14.4162 304.733 14.6186 304.875 14.7891C305.017 14.9571 305.203 15.0874 305.433 15.1797C305.662 15.272 305.917 15.3182 306.196 15.3182C306.509 15.3182 306.786 15.2637 307.027 15.1548C307.268 15.0459 307.458 14.8944 307.595 14.7003C307.732 14.5062 307.801 14.2812 307.801 14.0256C307.801 13.758 307.735 13.5225 307.602 13.3189C307.47 13.1129 307.276 12.9519 307.02 12.8359C306.764 12.7199 306.452 12.6619 306.082 12.6619H305.5V11.8807H306.082C306.371 11.8807 306.625 11.8286 306.842 11.7244C307.063 11.6203 307.234 11.4735 307.357 11.2841C307.483 11.0947 307.545 10.8722 307.545 10.6165C307.545 10.3703 307.491 10.156 307.382 9.97372C307.273 9.79143 307.119 9.64938 306.92 9.54759C306.724 9.44579 306.492 9.39489 306.224 9.39489C305.973 9.39489 305.737 9.44105 305.514 9.53338C305.294 9.62334 305.114 9.75473 304.974 9.92756C304.835 10.098 304.759 10.304 304.747 10.5455H303.895C303.909 10.1643 304.024 9.83049 304.239 9.54403C304.455 9.25521 304.737 9.0303 305.085 8.86932C305.435 8.70833 305.82 8.62784 306.239 8.62784C306.688 8.62784 307.074 8.71899 307.396 8.90128C307.718 9.0812 307.966 9.31913 308.138 9.61506C308.311 9.91098 308.398 10.2306 308.398 10.5739C308.398 10.9834 308.29 11.3326 308.075 11.6214C307.862 11.9103 307.571 12.1103 307.205 12.2216V12.2784C307.664 12.3542 308.022 12.5495 308.281 12.8643C308.539 13.1768 308.668 13.5639 308.668 14.0256C308.668 14.4209 308.56 14.776 308.344 15.0909C308.131 15.4034 307.84 15.6496 307.471 15.8295C307.102 16.0095 306.681 16.0994 306.21 16.0994ZM312.265 14.7216V10.0341H313.06V14.7216H312.265ZM310.319 12.7756V11.9801H315.006V12.7756H310.319ZM316.541 14.5085V13.7841L319.737 8.72727H320.263V9.84943H319.908L317.493 13.6705V13.7273H321.797V14.5085H316.541ZM319.965 16V14.2884V13.951V8.72727H320.803V16H319.965Z" fill="black"/>
<path d="M125.1 0.1H149.9V24.25C149.9 24.2654 149.893 24.2918 149.854 24.3296C149.815 24.3676 149.752 24.4091 149.663 24.4515C149.484 24.5362 149.218 24.6151 148.882 24.6823C148.212 24.8164 147.281 24.9 146.25 24.9H128.75C127.719 24.9 126.788 24.8164 126.118 24.6823C125.782 24.6151 125.516 24.5362 125.337 24.4515C125.248 24.4091 125.185 24.3676 125.146 24.3296C125.107 24.2918 125.1 24.2654 125.1 24.25V0.1Z" fill="white" stroke="black" stroke-width="0.2"/>
<circle cx="138" cy="6" r="5" fill="#0400B0"/>
<line x1="138.167" y1="14" x2="138.167" y2="24" stroke="#FD9800" stroke-width="2"/>
<line x1="143" y1="19.1665" x2="133" y2="19.1665" stroke="#FD9800" stroke-width="2"/>
<path d="M175.1 0.1H199.9V24.25C199.9 24.2654 199.893 24.2918 199.854 24.3296C199.815 24.3676 199.752 24.4091 199.663 24.4515C199.484 24.5362 199.218 24.6151 198.882 24.6823C198.212 24.8164 197.281 24.9 196.25 24.9H178.75C177.719 24.9 176.788 24.8164 176.118 24.6823C175.782 24.6151 175.516 24.5362 175.337 24.4515C175.248 24.4091 175.185 24.3676 175.146 24.3296C175.107 24.2918 175.1 24.2654 175.1 24.25V0.1Z" fill="white" stroke="black" stroke-width="0.2"/>
<circle cx="188" cy="6" r="5" fill="#0400B0"/>
<line x1="188.167" y1="14" x2="188.167" y2="24" stroke="#FD9800" stroke-width="2"/>
<line x1="193" y1="19.1665" x2="183" y2="19.1665" stroke="#FD9800" stroke-width="2"/>
<path d="M225.1 0.1H249.9V24.25C249.9 24.2654 249.893 24.2918 249.854 24.3296C249.815 24.3676 249.752 24.4091 249.663 24.4515C249.484 24.5362 249.218 24.6151 248.882 24.6823C248.212 24.8164 247.281 24.9 246.25 24.9H228.75C227.719 24.9 226.788 24.8164 226.118 24.6823C225.782 24.6151 225.516 24.5362 225.337 24.4515C225.248 24.4091 225.185 24.3676 225.146 24.3296C225.107 24.2918 225.1 24.2654 225.1 24.25V0.1Z" fill="white" stroke="black" stroke-width="0.2"/>
<line x1="238.167" y1="14" x2="238.167" y2="24" stroke="#FD9800" stroke-width="2"/>
<line x1="243" y1="19.1665" x2="233" y2="19.1665" stroke="#FD9800" stroke-width="2"/>
<circle cx="238" cy="6" r="5" fill="#0400B0"/>
<path d="M275.1 0.1H299.9V24.25C299.9 24.2654 299.893 24.2918 299.854 24.3296C299.815 24.3676 299.752 24.4091 299.663 24.4515C299.484 24.5362 299.218 24.6151 298.882 24.6823C298.212 24.8164 297.281 24.9 296.25 24.9H278.75C277.719 24.9 276.788 24.8164 276.118 24.6823C275.782 24.6151 275.516 24.5362 275.337 24.4515C275.248 24.4091 275.185 24.3676 275.146 24.3296C275.107 24.2918 275.1 24.2654 275.1 24.25V0.1Z" fill="white" stroke="black" stroke-width="0.2"/>
<circle cx="288" cy="6" r="5" fill="#0400B0"/>
<line x1="288.167" y1="14" x2="288.167" y2="24" stroke="#FD9800" stroke-width="2"/>
<line x1="293" y1="19.1665" x2="283" y2="19.1665" stroke="#FD9800" stroke-width="2"/>
<path d="M50.1 0.1H74.9V24.25C74.9 24.2654 74.8926 24.2918 74.8539 24.3296C74.815 24.3676 74.7523 24.4091 74.6626 24.4515C74.4835 24.5362 74.2181 24.6151 73.882 24.6823C73.2116 24.8164 72.281 24.9 71.25 24.9H53.75C52.719 24.9 51.7884 24.8164 51.118 24.6823C50.7819 24.6151 50.5165 24.5362 50.3374 24.4515C50.2477 24.4091 50.185 24.3676 50.1461 24.3296C50.1074 24.2918 50.1 24.2654 50.1 24.25V0.1Z" fill="white" stroke="black" stroke-width="0.2"/>
<line x1="63.1667" y1="1" x2="63.1667" y2="11" stroke="#FD9800" stroke-width="2"/>
<line x1="68" y1="6.1665" x2="58" y2="6.1665" stroke="#FD9800" stroke-width="2"/>
<circle cx="63" cy="19" r="5" fill="#0400B0"/>
<path d="M100.1 0.1H124.9V24.25C124.9 24.2654 124.893 24.2918 124.854 24.3296C124.815 24.3676 124.752 24.4091 124.663 24.4515C124.484 24.5362 124.218 24.6151 123.882 24.6823C123.212 24.8164 122.281 24.9 121.25 24.9H103.75C102.719 24.9 101.788 24.8164 101.118 24.6823C100.782 24.6151 100.516 24.5362 100.337 24.4515C100.248 24.4091 100.185 24.3676 100.146 24.3296C100.107 24.2918 100.1 24.2654 100.1 24.25V0.1Z" fill="white" stroke="black" stroke-width="0.2"/>
<line x1="113.167" y1="1" x2="113.167" y2="11" stroke="#FD9800" stroke-width="2"/>
<line x1="118" y1="6.1665" x2="108" y2="6.1665" stroke="#FD9800" stroke-width="2"/>
<circle cx="113" cy="19" r="5" fill="#0400B0"/>
<path d="M25.1 0.1H49.9V24.25C49.9 24.2654 49.8926 24.2918 49.8539 24.3296C49.815 24.3676 49.7523 24.4091 49.6626 24.4515C49.4835 24.5362 49.2181 24.6151 48.882 24.6823C48.2116 24.8164 47.281 24.9 46.25 24.9H28.75C27.719 24.9 26.7884 24.8164 26.118 24.6823C25.7819 24.6151 25.5165 24.5362 25.3374 24.4515C25.2477 24.4091 25.185 24.3676 25.1461 24.3296C25.1074 24.2918 25.1 24.2654 25.1 24.25V0.1Z" fill="url(#paint0_radial_576_355)" stroke="black" stroke-width="0.2"/>
<path d="M75.1 0.1H99.9V24.25C99.9 24.2654 99.8926 24.2918 99.8539 24.3296C99.815 24.3676 99.7523 24.4091 99.6626 24.4515C99.4835 24.5362 99.2181 24.6151 98.882 24.6823C98.2116 24.8164 97.281 24.9 96.25 24.9H78.75C77.719 24.9 76.7884 24.8164 76.118 24.6823C75.7819 24.6151 75.5165 24.5362 75.3374 24.4515C75.2477 24.4091 75.185 24.3676 75.1461 24.3296C75.1074 24.2918 75.1 24.2654 75.1 24.25V0.1Z" fill="url(#paint1_radial_576_355)" stroke="black" stroke-width="0.2"/>
<path d="M150.1 0.1H174.9V24.25C174.9 24.2654 174.893 24.2918 174.854 24.3296C174.815 24.3676 174.752 24.4091 174.663 24.4515C174.484 24.5362 174.218 24.6151 173.882 24.6823C173.212 24.8164 172.281 24.9 171.25 24.9H153.75C152.719 24.9 151.788 24.8164 151.118 24.6823C150.782 24.6151 150.516 24.5362 150.337 24.4515C150.248 24.4091 150.185 24.3676 150.146 24.3296C150.107 24.2918 150.1 24.2654 150.1 24.25V0.1Z" fill="url(#paint2_radial_576_355)" stroke="black" stroke-width="0.2"/>
<path d="M200.1 0.1H224.9V24.25C224.9 24.2654 224.893 24.2918 224.854 24.3296C224.815 24.3676 224.752 24.4091 224.663 24.4515C224.484 24.5362 224.218 24.6151 223.882 24.6823C223.212 24.8164 222.281 24.9 221.25 24.9H203.75C202.719 24.9 201.788 24.8164 201.118 24.6823C200.782 24.6151 200.516 24.5362 200.337 24.4515C200.248 24.4091 200.185 24.3676 200.146 24.3296C200.107 24.2918 200.1 24.2654 200.1 24.25V0.1Z" fill="url(#paint3_radial_576_355)" stroke="black" stroke-width="0.2"/>
<path d="M250.1 0.1H274.9V24.25C274.9 24.2654 274.893 24.2918 274.854 24.3296C274.815 24.3676 274.752 24.4091 274.663 24.4515C274.484 24.5362 274.218 24.6151 273.882 24.6823C273.212 24.8164 272.281 24.9 271.25 24.9H253.75C252.719 24.9 251.788 24.8164 251.118 24.6823C250.782 24.6151 250.516 24.5362 250.337 24.4515C250.248 24.4091 250.185 24.3676 250.146 24.3296C250.107 24.2918 250.1 24.2654 250.1 24.25V0.1Z" fill="url(#paint4_radial_576_355)" stroke="black" stroke-width="0.2"/>
<path d="M0.1 0.1H24.9V24.25C24.9 24.2654 24.8926 24.2918 24.8539 24.3296C24.815 24.3676 24.7523 24.4091 24.6626 24.4515C24.4835 24.5362 24.2181 24.6151 23.882 24.6823C23.2116 24.8164 22.281 24.9 21.25 24.9H3.75C2.719 24.9 1.78838 24.8164 1.11796 24.6823C0.781929 24.6151 0.516476 24.5362 0.337441 24.4515C0.24767 24.4091 0.184964 24.3676 0.146084 24.3296C0.107371 24.2918 0.1 24.2654 0.1 24.25V0.1Z" fill="white" stroke="black" stroke-width="0.2"/>
<line x1="13.1667" y1="1" x2="13.1667" y2="11" stroke="#FD9800" stroke-width="2"/>
<line x1="18" y1="6.1665" x2="8" y2="6.1665" stroke="#FD9800" stroke-width="2"/>
<circle cx="13" cy="19" r="5" fill="#0400B0"/>
<defs>
<radialGradient id="paint0_radial_576_355" cx="0" cy="0" r="1" gradientUnits="userSpaceOnUse" gradientTransform="translate(37.5 12.5) rotate(90) scale(12.5)">
<stop offset="0.171875"/>
<stop offset="0.171975" stop-color="white"/>
</radialGradient>
<radialGradient id="paint1_radial_576_355" cx="0" cy="0" r="1" gradientUnits="userSpaceOnUse" gradientTransform="translate(87.5 12.5) rotate(90) scale(12.5)">
<stop offset="0.171875"/>
<stop offset="0.171975" stop-color="white"/>
</radialGradient>
<radialGradient id="paint2_radial_576_355" cx="0" cy="0" r="1" gradientUnits="userSpaceOnUse" gradientTransform="translate(162.5 12.5) rotate(90) scale(12.5)">
<stop offset="0.171875"/>
<stop offset="0.171975" stop-color="white"/>
</radialGradient>
<radialGradient id="paint3_radial_576_355" cx="0" cy="0" r="1" gradientUnits="userSpaceOnUse" gradientTransform="translate(212.5 12.5) rotate(90) scale(12.5)">
<stop offset="0.171875"/>
<stop offset="0.171975" stop-color="white"/>
</radialGradient>
<radialGradient id="paint4_radial_576_355" cx="0" cy="0" r="1" gradientUnits="userSpaceOnUse" gradientTransform="translate(262.5 12.5) rotate(90) scale(12.5)">
<stop offset="0.171875"/>
<stop offset="0.171975" stop-color="white"/>
</radialGradient>
</defs>
</svg>
