<svg width="325" height="25" viewBox="0 0 325 25" fill="none" xmlns="http://www.w3.org/2000/svg">
<path d="M300.1 0.1H324.9V24.25C324.9 24.2654 324.893 24.2918 324.854 24.3296C324.815 24.3676 324.752 24.4091 324.663 24.4515C324.484 24.5362 324.218 24.6151 323.882 24.6823C323.212 24.8164 322.281 24.9 321.25 24.9H303.75C302.719 24.9 301.788 24.8164 301.118 24.6823C300.782 24.6151 300.516 24.5362 300.337 24.4515C300.248 24.4091 300.185 24.3676 300.146 24.3296C300.107 24.2918 300.1 24.2654 300.1 24.25V0.1Z" fill="#2998FF" stroke="black" stroke-width="0.2"/>
<path d="M175.1 0.1H199.9V24.25C199.9 24.2654 199.893 24.2918 199.854 24.3296C199.815 24.3676 199.752 24.4091 199.663 24.4515C199.484 24.5362 199.218 24.6151 198.882 24.6823C198.212 24.8164 197.281 24.9 196.25 24.9H178.75C177.719 24.9 176.788 24.8164 176.118 24.6823C175.782 24.6151 175.516 24.5362 175.337 24.4515C175.248 24.4091 175.185 24.3676 175.146 24.3296C175.107 24.2918 175.1 24.2654 175.1 24.25V0.1Z" fill="#2998FF" stroke="black" stroke-width="0.2"/>
<path d="M275.1 0.1H299.9V24.25C299.9 24.2654 299.893 24.2918 299.854 24.3296C299.815 24.3676 299.752 24.4091 299.663 24.4515C299.484 24.5362 299.218 24.6151 298.882 24.6823C298.212 24.8164 297.281 24.9 296.25 24.9H278.75C277.719 24.9 276.788 24.8164 276.118 24.6823C275.782 24.6151 275.516 24.5362 275.337 24.4515C275.248 24.4091 275.185 24.3676 275.146 24.3296C275.107 24.2918 275.1 24.2654 275.1 24.25V0.1Z" fill="url(#paint0_radial_1083_910)" stroke="black" stroke-width="0.2"/>
<path d="M250.1 0.1H274.9V24.25C274.9 24.2654 274.893 24.2918 274.854 24.3296C274.815 24.3676 274.752 24.4091 274.663 24.4515C274.484 24.5362 274.218 24.6151 273.882 24.6823C273.212 24.8164 272.281 24.9 271.25 24.9H253.75C252.719 24.9 251.788 24.8164 251.118 24.6823C250.782 24.6151 250.516 24.5362 250.337 24.4515C250.248 24.4091 250.185 24.3676 250.146 24.3296C250.107 24.2918 250.1 24.2654 250.1 24.25V0.1Z" fill="#2998FF" stroke="black" stroke-width="0.2"/>
<path d="M200.1 0.1H224.9V24.25C224.9 24.2654 224.893 24.2918 224.854 24.3296C224.815 24.3676 224.752 24.4091 224.663 24.4515C224.484 24.5362 224.218 24.6151 223.882 24.6823C223.212 24.8164 222.281 24.9 221.25 24.9H203.75C202.719 24.9 201.788 24.8164 201.118 24.6823C200.782 24.6151 200.516 24.5362 200.337 24.4515C200.248 24.4091 200.185 24.3676 200.146 24.3296C200.107 24.2918 200.1 24.2654 200.1 24.25V0.1Z" fill="url(#paint1_radial_1083_910)" stroke="black" stroke-width="0.2"/>
<path d="M0.1 0.1H24.9V24.25C24.9 24.2654 24.8926 24.2918 24.8539 24.3296C24.815 24.3676 24.7523 24.4091 24.6626 24.4515C24.4835 24.5362 24.2181 24.6151 23.882 24.6823C23.2116 24.8164 22.281 24.9 21.25 24.9H3.75C2.719 24.9 1.78838 24.8164 1.11796 24.6823C0.781929 24.6151 0.516476 24.5362 0.337441 24.4515C0.24767 24.4091 0.184964 24.3676 0.146084 24.3296C0.107371 24.2918 0.1 24.2654 0.1 24.25V0.1Z" fill="#6900D2" stroke="black" stroke-width="0.2"/>
<path d="M225.1 0.1H249.9V24.25C249.9 24.2654 249.893 24.2918 249.854 24.3296C249.815 24.3676 249.752 24.4091 249.663 24.4515C249.484 24.5362 249.218 24.6151 248.882 24.6823C248.212 24.8164 247.281 24.9 246.25 24.9H228.75C227.719 24.9 226.788 24.8164 226.118 24.6823C225.782 24.6151 225.516 24.5362 225.337 24.4515C225.248 24.4091 225.185 24.3676 225.146 24.3296C225.107 24.2918 225.1 24.2654 225.1 24.25V0.1Z" fill="#2998FF" stroke="black" stroke-width="0.2"/>
<path d="M50.1 0.1H74.9V24.25C74.9 24.2654 74.8926 24.2918 74.8539 24.3296C74.815 24.3676 74.7523 24.4091 74.6626 24.4515C74.4835 24.5362 74.2181 24.6151 73.882 24.6823C73.2116 24.8164 72.281 24.9 71.25 24.9H53.75C52.719 24.9 51.7884 24.8164 51.118 24.6823C50.7819 24.6151 50.5165 24.5362 50.3374 24.4515C50.2477 24.4091 50.185 24.3676 50.1461 24.3296C50.1074 24.2918 50.1 24.2654 50.1 24.25V0.1Z" fill="url(#paint2_radial_1083_910)" stroke="black" stroke-width="0.2"/>
<path d="M100.1 0.1H124.9V24.25C124.9 24.2654 124.893 24.2918 124.854 24.3296C124.815 24.3676 124.752 24.4091 124.663 24.4515C124.484 24.5362 124.218 24.6151 123.882 24.6823C123.212 24.8164 122.281 24.9 121.25 24.9H103.75C102.719 24.9 101.788 24.8164 101.118 24.6823C100.782 24.6151 100.516 24.5362 100.337 24.4515C100.248 24.4091 100.185 24.3676 100.146 24.3296C100.107 24.2918 100.1 24.2654 100.1 24.25V0.1Z" fill="url(#paint3_radial_1083_910)" stroke="black" stroke-width="0.2"/>
<path d="M150.1 0.1H174.9V24.25C174.9 24.2654 174.893 24.2918 174.854 24.3296C174.815 24.3676 174.752 24.4091 174.663 24.4515C174.484 24.5362 174.218 24.6151 173.882 24.6823C173.212 24.8164 172.281 24.9 171.25 24.9H153.75C152.719 24.9 151.788 24.8164 151.118 24.6823C150.782 24.6151 150.516 24.5362 150.337 24.4515C150.248 24.4091 150.185 24.3676 150.146 24.3296C150.107 24.2918 150.1 24.2654 150.1 24.25V0.1Z" fill="url(#paint4_radial_1083_910)" stroke="black" stroke-width="0.2"/>
<path d="M25.1 0.1H49.9V24.25C49.9 24.2654 49.8926 24.2918 49.8539 24.3296C49.815 24.3676 49.7523 24.4091 49.6626 24.4515C49.4835 24.5362 49.2181 24.6151 48.882 24.6823C48.2116 24.8164 47.281 24.9 46.25 24.9H28.75C27.719 24.9 26.7884 24.8164 26.118 24.6823C25.7819 24.6151 25.5165 24.5362 25.3374 24.4515C25.2477 24.4091 25.185 24.3676 25.1461 24.3296C25.1074 24.2918 25.1 24.2654 25.1 24.25V0.1Z" fill="#6900D2" stroke="black" stroke-width="0.2"/>
<path d="M125.1 0.1H149.9V24.25C149.9 24.2654 149.893 24.2918 149.854 24.3296C149.815 24.3676 149.752 24.4091 149.663 24.4515C149.484 24.5362 149.218 24.6151 148.882 24.6823C148.212 24.8164 147.281 24.9 146.25 24.9H128.75C127.719 24.9 126.788 24.8164 126.118 24.6823C125.782 24.6151 125.516 24.5362 125.337 24.4515C125.248 24.4091 125.185 24.3676 125.146 24.3296C125.107 24.2918 125.1 24.2654 125.1 24.25V0.1Z" fill="#6900D2" stroke="black" stroke-width="0.2"/>
<path d="M75.1 0.1H99.9V24.25C99.9 24.2654 99.8926 24.2918 99.8539 24.3296C99.815 24.3676 99.7523 24.4091 99.6626 24.4515C99.4835 24.5362 99.2181 24.6151 98.882 24.6823C98.2116 24.8164 97.281 24.9 96.25 24.9H78.75C77.719 24.9 76.7884 24.8164 76.118 24.6823C75.7819 24.6151 75.5165 24.5362 75.3374 24.4515C75.2477 24.4091 75.185 24.3676 75.1461 24.3296C75.1074 24.2918 75.1 24.2654 75.1 24.25V0.1Z" fill="#6900D2" stroke="black" stroke-width="0.2"/>
<path d="M13.9716 8.27273V17H12.9148V9.38068H12.8636L10.733 10.7955V9.72159L12.9148 8.27273H13.9716Z" fill="white"/>
<path d="M32.0568 17V8.27273H33.0625V11.4943H33.1477C33.2216 11.3807 33.3239 11.2358 33.4545 11.0597C33.5881 10.8807 33.7784 10.7216 34.0256 10.5824C34.2756 10.4403 34.6136 10.3693 35.0398 10.3693C35.5909 10.3693 36.0767 10.5071 36.4972 10.7827C36.9176 11.0582 37.2457 11.4489 37.4815 11.9545C37.7173 12.4602 37.8352 13.0568 37.8352 13.7443C37.8352 14.4375 37.7173 15.0384 37.4815 15.5469C37.2457 16.0526 36.919 16.4446 36.5014 16.723C36.0838 16.9986 35.6023 17.1364 35.0568 17.1364C34.6364 17.1364 34.2997 17.0668 34.0469 16.9276C33.794 16.7855 33.5994 16.625 33.4631 16.446C33.3267 16.2642 33.2216 16.1136 33.1477 15.9943H33.0284V17H32.0568ZM33.0455 13.7273C33.0455 14.2216 33.1179 14.6577 33.2628 15.0355C33.4077 15.4105 33.6193 15.7045 33.8977 15.9176C34.1761 16.1278 34.517 16.233 34.9205 16.233C35.3409 16.233 35.6918 16.1222 35.973 15.9006C36.2571 15.6761 36.4702 15.375 36.6122 14.9972C36.7571 14.6165 36.8295 14.1932 36.8295 13.7273C36.8295 13.267 36.7585 12.8523 36.6165 12.483C36.4773 12.1108 36.2656 11.8168 35.9815 11.6009C35.7003 11.3821 35.3466 11.2727 34.9205 11.2727C34.5114 11.2727 34.1676 11.3764 33.8892 11.5838C33.6108 11.7884 33.4006 12.0753 33.2585 12.4446C33.1165 12.8111 33.0455 13.2386 33.0455 13.7273ZM39.3565 17V16.233L42.2372 13.0795C42.5753 12.7102 42.8537 12.3892 43.0724 12.1165C43.2912 11.8409 43.4531 11.5824 43.5582 11.3409C43.6662 11.0966 43.7202 10.8409 43.7202 10.5739C43.7202 10.267 43.6463 10.0014 43.4986 9.77699C43.3537 9.55256 43.1548 9.37926 42.902 9.2571C42.6491 9.13494 42.3651 9.07386 42.0497 9.07386C41.7145 9.07386 41.4219 9.14347 41.1719 9.28267C40.9247 9.41903 40.733 9.6108 40.5966 9.85795C40.4631 10.1051 40.3963 10.3949 40.3963 10.7273H39.3906C39.3906 10.2159 39.5085 9.76705 39.7443 9.38068C39.9801 8.99432 40.3011 8.69318 40.7074 8.47727C41.1165 8.26136 41.5753 8.15341 42.0838 8.15341C42.5952 8.15341 43.0483 8.26136 43.4432 8.47727C43.8381 8.69318 44.1477 8.98437 44.3722 9.35085C44.5966 9.71733 44.7088 10.125 44.7088 10.5739C44.7088 10.8949 44.6506 11.2088 44.5341 11.5156C44.4205 11.8196 44.2216 12.1591 43.9375 12.5341C43.6562 12.9062 43.2656 13.3608 42.7656 13.8977L40.8054 15.9943V16.0625H44.8622V17H39.3565Z" fill="white"/>
<path d="M81.0568 17V8.27273H82.0625V11.4943H82.1477C82.2216 11.3807 82.3239 11.2358 82.4545 11.0597C82.5881 10.8807 82.7784 10.7216 83.0256 10.5824C83.2756 10.4403 83.6136 10.3693 84.0398 10.3693C84.5909 10.3693 85.0767 10.5071 85.4972 10.7827C85.9176 11.0582 86.2457 11.4489 86.4815 11.9545C86.7173 12.4602 86.8352 13.0568 86.8352 13.7443C86.8352 14.4375 86.7173 15.0384 86.4815 15.5469C86.2457 16.0526 85.919 16.4446 85.5014 16.723C85.0838 16.9986 84.6023 17.1364 84.0568 17.1364C83.6364 17.1364 83.2997 17.0668 83.0469 16.9276C82.794 16.7855 82.5994 16.625 82.4631 16.446C82.3267 16.2642 82.2216 16.1136 82.1477 15.9943H82.0284V17H81.0568ZM82.0455 13.7273C82.0455 14.2216 82.1179 14.6577 82.2628 15.0355C82.4077 15.4105 82.6193 15.7045 82.8977 15.9176C83.1761 16.1278 83.517 16.233 83.9205 16.233C84.3409 16.233 84.6918 16.1222 84.973 15.9006C85.2571 15.6761 85.4702 15.375 85.6122 14.9972C85.7571 14.6165 85.8295 14.1932 85.8295 13.7273C85.8295 13.267 85.7585 12.8523 85.6165 12.483C85.4773 12.1108 85.2656 11.8168 84.9815 11.6009C84.7003 11.3821 84.3466 11.2727 83.9205 11.2727C83.5114 11.2727 83.1676 11.3764 82.8892 11.5838C82.6108 11.7884 82.4006 12.0753 82.2585 12.4446C82.1165 12.8111 82.0455 13.2386 82.0455 13.7273ZM91.3054 17.1193C90.7429 17.1193 90.2415 17.0227 89.8011 16.8295C89.3636 16.6364 89.0156 16.3679 88.7571 16.0241C88.5014 15.6776 88.3622 15.2756 88.3395 14.8182H89.4134C89.4361 15.0994 89.5327 15.3423 89.7031 15.5469C89.8736 15.7486 90.0966 15.9048 90.3722 16.0156C90.6477 16.1264 90.9531 16.1818 91.2884 16.1818C91.6634 16.1818 91.9957 16.1165 92.2855 15.9858C92.5753 15.8551 92.8026 15.6733 92.9673 15.4403C93.1321 15.2074 93.2145 14.9375 93.2145 14.6307C93.2145 14.3097 93.1349 14.027 92.9759 13.7827C92.8168 13.5355 92.5838 13.3423 92.277 13.2031C91.9702 13.0639 91.5952 12.9943 91.152 12.9943H90.4531V12.0568H91.152C91.4986 12.0568 91.8026 11.9943 92.0639 11.8693C92.3281 11.7443 92.5341 11.5682 92.6818 11.3409C92.8324 11.1136 92.9077 10.8466 92.9077 10.5398C92.9077 10.2443 92.8423 9.98722 92.7116 9.76847C92.581 9.54972 92.3963 9.37926 92.1577 9.2571C91.9219 9.13494 91.6435 9.07386 91.3224 9.07386C91.0213 9.07386 90.7372 9.12926 90.4702 9.24006C90.206 9.34801 89.9901 9.50568 89.8224 9.71307C89.6548 9.91761 89.5639 10.1648 89.5497 10.4545H88.527C88.544 9.99716 88.6818 9.59659 88.9403 9.25284C89.1989 8.90625 89.5369 8.63636 89.9545 8.44318C90.375 8.25 90.8366 8.15341 91.3395 8.15341C91.8793 8.15341 92.3423 8.26278 92.7287 8.48153C93.1151 8.69744 93.4119 8.98295 93.6193 9.33807C93.8267 9.69318 93.9304 10.0767 93.9304 10.4886C93.9304 10.9801 93.8011 11.3991 93.5426 11.7457C93.2869 12.0923 92.9389 12.3324 92.4986 12.4659V12.5341C93.0497 12.625 93.4801 12.8594 93.7898 13.2372C94.0994 13.6122 94.2543 14.0767 94.2543 14.6307C94.2543 15.1051 94.125 15.5312 93.8665 15.9091C93.6108 16.2841 93.2614 16.5795 92.8182 16.7955C92.375 17.0114 91.8707 17.1193 91.3054 17.1193Z" fill="white"/>
<path d="M134.699 15.2102V14.3409L138.534 8.27273H139.165V9.61932H138.739L135.841 14.2045V14.2727H141.006V15.2102H134.699ZM138.807 17V14.946V14.5412V8.27273H139.812V17H138.807Z" fill="white"/>
<path d="M187.631 17.1193C187.131 17.1193 186.68 17.0199 186.28 16.821C185.879 16.6222 185.558 16.3494 185.317 16.0028C185.075 15.6562 184.943 15.2614 184.92 14.8182H185.943C185.983 15.2131 186.162 15.5398 186.48 15.7983C186.801 16.054 187.185 16.1818 187.631 16.1818C187.989 16.1818 188.307 16.098 188.585 15.9304C188.866 15.7628 189.087 15.5327 189.246 15.2401C189.408 14.9446 189.489 14.6108 189.489 14.2386C189.489 13.858 189.405 13.5185 189.237 13.2202C189.072 12.919 188.845 12.6818 188.555 12.5085C188.266 12.3352 187.935 12.2472 187.562 12.2443C187.295 12.2415 187.021 12.2827 186.74 12.3679C186.459 12.4503 186.227 12.5568 186.045 12.6875L185.057 12.5682L185.585 8.27273H190.119V9.21023H186.472L186.165 11.7841H186.216C186.395 11.642 186.619 11.5241 186.889 11.4304C187.159 11.3366 187.44 11.2898 187.733 11.2898C188.267 11.2898 188.743 11.4176 189.161 11.6733C189.581 11.9261 189.911 12.2727 190.149 12.7131C190.391 13.1534 190.511 13.6562 190.511 14.2216C190.511 14.7784 190.386 15.2756 190.136 15.7131C189.889 16.1477 189.548 16.4915 189.114 16.7443C188.679 16.9943 188.185 17.1193 187.631 17.1193Z" fill="white"/>
<path d="M231.057 17V8.27273H232.062V11.4943H232.148C232.222 11.3807 232.324 11.2358 232.455 11.0597C232.588 10.8807 232.778 10.7216 233.026 10.5824C233.276 10.4403 233.614 10.3693 234.04 10.3693C234.591 10.3693 235.077 10.5071 235.497 10.7827C235.918 11.0582 236.246 11.4489 236.482 11.9545C236.717 12.4602 236.835 13.0568 236.835 13.7443C236.835 14.4375 236.717 15.0384 236.482 15.5469C236.246 16.0526 235.919 16.4446 235.501 16.723C235.084 16.9986 234.602 17.1364 234.057 17.1364C233.636 17.1364 233.3 17.0668 233.047 16.9276C232.794 16.7855 232.599 16.625 232.463 16.446C232.327 16.2642 232.222 16.1136 232.148 15.9943H232.028V17H231.057ZM232.045 13.7273C232.045 14.2216 232.118 14.6577 232.263 15.0355C232.408 15.4105 232.619 15.7045 232.898 15.9176C233.176 16.1278 233.517 16.233 233.92 16.233C234.341 16.233 234.692 16.1222 234.973 15.9006C235.257 15.6761 235.47 15.375 235.612 14.9972C235.757 14.6165 235.83 14.1932 235.83 13.7273C235.83 13.267 235.759 12.8523 235.616 12.483C235.477 12.1108 235.266 11.8168 234.982 11.6009C234.7 11.3821 234.347 11.2727 233.92 11.2727C233.511 11.2727 233.168 11.3764 232.889 11.5838C232.611 11.7884 232.401 12.0753 232.259 12.4446C232.116 12.8111 232.045 13.2386 232.045 13.7273ZM241.254 17.1193C240.896 17.1136 240.538 17.0455 240.18 16.9148C239.822 16.7841 239.496 16.5639 239.2 16.2543C238.905 15.9418 238.668 15.5199 238.489 14.9886C238.31 14.4545 238.22 13.7841 238.22 12.9773C238.22 12.2045 238.293 11.5199 238.438 10.9233C238.582 10.3239 238.793 9.8196 239.068 9.41051C239.344 8.99858 239.676 8.68608 240.065 8.47301C240.457 8.25994 240.899 8.15341 241.391 8.15341C241.879 8.15341 242.314 8.25142 242.695 8.44744C243.078 8.64062 243.391 8.91051 243.632 9.2571C243.874 9.60369 244.03 10.0028 244.101 10.4545H243.061C242.964 10.0625 242.777 9.73722 242.499 9.47869C242.22 9.22017 241.851 9.09091 241.391 9.09091C240.714 9.09091 240.182 9.38494 239.793 9.97301C239.406 10.5611 239.212 11.3864 239.209 12.4489H239.277C239.436 12.2074 239.625 12.0014 239.844 11.831C240.065 11.6577 240.31 11.5241 240.577 11.4304C240.844 11.3366 241.126 11.2898 241.425 11.2898C241.925 11.2898 242.382 11.4148 242.797 11.6648C243.212 11.9119 243.544 12.2543 243.794 12.6918C244.044 13.1264 244.169 13.625 244.169 14.1875C244.169 14.7273 244.048 15.2216 243.807 15.6705C243.565 16.1165 243.226 16.4716 242.788 16.7358C242.354 16.9972 241.842 17.125 241.254 17.1193ZM241.254 16.1818C241.612 16.1818 241.933 16.0923 242.217 15.9134C242.504 15.7344 242.73 15.4943 242.895 15.1932C243.063 14.892 243.146 14.5568 243.146 14.1875C243.146 13.8267 243.065 13.4986 242.903 13.2031C242.744 12.9048 242.524 12.6676 242.243 12.4915C241.964 12.3153 241.646 12.2273 241.288 12.2273C241.018 12.2273 240.767 12.2812 240.534 12.3892C240.301 12.4943 240.097 12.6392 239.92 12.8239C239.747 13.0085 239.611 13.2202 239.511 13.4588C239.412 13.6946 239.362 13.9432 239.362 14.2045C239.362 14.5511 239.443 14.875 239.605 15.1761C239.77 15.4773 239.994 15.7202 240.278 15.9048C240.565 16.0895 240.891 16.1818 241.254 16.1818Z" fill="white"/>
<path d="M257.057 17V8.27273H258.062V11.4943H258.148C258.222 11.3807 258.324 11.2358 258.455 11.0597C258.588 10.8807 258.778 10.7216 259.026 10.5824C259.276 10.4403 259.614 10.3693 260.04 10.3693C260.591 10.3693 261.077 10.5071 261.497 10.7827C261.918 11.0582 262.246 11.4489 262.482 11.9545C262.717 12.4602 262.835 13.0568 262.835 13.7443C262.835 14.4375 262.717 15.0384 262.482 15.5469C262.246 16.0526 261.919 16.4446 261.501 16.723C261.084 16.9986 260.602 17.1364 260.057 17.1364C259.636 17.1364 259.3 17.0668 259.047 16.9276C258.794 16.7855 258.599 16.625 258.463 16.446C258.327 16.2642 258.222 16.1136 258.148 15.9943H258.028V17H257.057ZM258.045 13.7273C258.045 14.2216 258.118 14.6577 258.263 15.0355C258.408 15.4105 258.619 15.7045 258.898 15.9176C259.176 16.1278 259.517 16.233 259.92 16.233C260.341 16.233 260.692 16.1222 260.973 15.9006C261.257 15.6761 261.47 15.375 261.612 14.9972C261.757 14.6165 261.83 14.1932 261.83 13.7273C261.83 13.267 261.759 12.8523 261.616 12.483C261.477 12.1108 261.266 11.8168 260.982 11.6009C260.7 11.3821 260.347 11.2727 259.92 11.2727C259.511 11.2727 259.168 11.3764 258.889 11.5838C258.611 11.7884 258.401 12.0753 258.259 12.4446C258.116 12.8111 258.045 13.2386 258.045 13.7273ZM264.629 17L268.533 9.27841V9.21023H264.033V8.27273H269.624V9.26136L265.737 17H264.629Z" fill="white"/>
<path d="M312.972 8.27273V17H311.915V9.38068H311.864L309.733 10.7955V9.72159L311.915 8.27273H312.972Z" fill="white"/>
<defs>
<radialGradient id="paint0_radial_1083_910" cx="0" cy="0" r="1" gradientUnits="userSpaceOnUse" gradientTransform="translate(287.5 12.5) rotate(90) scale(12.5)">
<stop offset="0.171875"/>
<stop offset="0.171975" stop-color="white"/>
</radialGradient>
<radialGradient id="paint1_radial_1083_910" cx="0" cy="0" r="1" gradientUnits="userSpaceOnUse" gradientTransform="translate(212.5 12.5) rotate(90) scale(12.5)">
<stop offset="0.171875"/>
<stop offset="0.171975" stop-color="white"/>
</radialGradient>
<radialGradient id="paint2_radial_1083_910" cx="0" cy="0" r="1" gradientUnits="userSpaceOnUse" gradientTransform="translate(62.5 12.5) rotate(90) scale(12.5)">
<stop offset="0.171875"/>
<stop offset="0.171975" stop-color="white"/>
</radialGradient>
<radialGradient id="paint3_radial_1083_910" cx="0" cy="0" r="1" gradientUnits="userSpaceOnUse" gradientTransform="translate(112.5 12.5) rotate(90) scale(12.5)">
<stop offset="0.171875"/>
<stop offset="0.171975" stop-color="white"/>
</radialGradient>
<radialGradient id="paint4_radial_1083_910" cx="0" cy="0" r="1" gradientUnits="userSpaceOnUse" gradientTransform="translate(162.5 12.5) rotate(90) scale(12.5)">
<stop offset="0.171875"/>
<stop offset="0.171975" stop-color="white"/>
</radialGradient>
</defs>
</svg>
