<svg width="535" height="27" viewBox="0 0 535 27" fill="none" xmlns="http://www.w3.org/2000/svg">
<path d="M380.1 1.1H404.9V25.25C404.9 25.2654 404.893 25.2918 404.854 25.3296C404.815 25.3676 404.752 25.4091 404.663 25.4515C404.484 25.5362 404.218 25.6151 403.882 25.6823C403.212 25.8164 402.281 25.9 401.25 25.9H383.75C382.719 25.9 381.788 25.8164 381.118 25.6823C380.782 25.6151 380.516 25.5362 380.337 25.4515C380.248 25.4091 380.185 25.3676 380.146 25.3296C380.107 25.2918 380.1 25.2654 380.1 25.25V1.1Z" fill="url(#paint0_radial_578_737)" stroke="black" stroke-width="0.2"/>
<path d="M330.1 1.1H354.9V25.25C354.9 25.2654 354.893 25.2918 354.854 25.3296C354.815 25.3676 354.752 25.4091 354.663 25.4515C354.484 25.5362 354.218 25.6151 353.882 25.6823C353.212 25.8164 352.281 25.9 351.25 25.9H333.75C332.719 25.9 331.788 25.8164 331.118 25.6823C330.782 25.6151 330.516 25.5362 330.337 25.4515C330.248 25.4091 330.185 25.3676 330.146 25.3296C330.107 25.2918 330.1 25.2654 330.1 25.25V1.1Z" fill="url(#paint1_radial_578_737)" stroke="black" stroke-width="0.2"/>
<path d="M305.1 1.1H329.9V25.25C329.9 25.2654 329.893 25.2918 329.854 25.3296C329.815 25.3676 329.752 25.4091 329.663 25.4515C329.484 25.5362 329.218 25.6151 328.882 25.6823C328.212 25.8164 327.281 25.9 326.25 25.9H308.75C307.719 25.9 306.788 25.8164 306.118 25.6823C305.782 25.6151 305.516 25.5362 305.337 25.4515C305.248 25.4091 305.185 25.3676 305.146 25.3296C305.107 25.2918 305.1 25.2654 305.1 25.25V1.1Z" fill="url(#paint2_radial_578_737)" stroke="black" stroke-width="0.2"/>
<path d="M280.1 1.1H304.9V25.25C304.9 25.2654 304.893 25.2918 304.854 25.3296C304.815 25.3676 304.752 25.4091 304.663 25.4515C304.484 25.5362 304.218 25.6151 303.882 25.6823C303.212 25.8164 302.281 25.9 301.25 25.9H283.75C282.719 25.9 281.788 25.8164 281.118 25.6823C280.782 25.6151 280.516 25.5362 280.337 25.4515C280.248 25.4091 280.185 25.3676 280.146 25.3296C280.107 25.2918 280.1 25.2654 280.1 25.25V1.1Z" fill="url(#paint3_radial_578_737)" stroke="black" stroke-width="0.2"/>
<path d="M230.1 1.1H254.9V25.25C254.9 25.2654 254.893 25.2918 254.854 25.3296C254.815 25.3676 254.752 25.4091 254.663 25.4515C254.484 25.5362 254.218 25.6151 253.882 25.6823C253.212 25.8164 252.281 25.9 251.25 25.9H233.75C232.719 25.9 231.788 25.8164 231.118 25.6823C230.782 25.6151 230.516 25.5362 230.337 25.4515C230.248 25.4091 230.185 25.3676 230.146 25.3296C230.107 25.2918 230.1 25.2654 230.1 25.25V1.1Z" fill="url(#paint4_radial_578_737)" stroke="black" stroke-width="0.2"/>
<path d="M205.1 1.1H229.9V25.25C229.9 25.2654 229.893 25.2918 229.854 25.3296C229.815 25.3676 229.752 25.4091 229.663 25.4515C229.484 25.5362 229.218 25.6151 228.882 25.6823C228.212 25.8164 227.281 25.9 226.25 25.9H208.75C207.719 25.9 206.788 25.8164 206.118 25.6823C205.782 25.6151 205.516 25.5362 205.337 25.4515C205.248 25.4091 205.185 25.3676 205.146 25.3296C205.107 25.2918 205.1 25.2654 205.1 25.25V1.1Z" fill="url(#paint5_radial_578_737)" stroke="black" stroke-width="0.2"/>
<path d="M155.1 1.1H179.9V25.25C179.9 25.2654 179.893 25.2918 179.854 25.3296C179.815 25.3676 179.752 25.4091 179.663 25.4515C179.484 25.5362 179.218 25.6151 178.882 25.6823C178.212 25.8164 177.281 25.9 176.25 25.9H158.75C157.719 25.9 156.788 25.8164 156.118 25.6823C155.782 25.6151 155.516 25.5362 155.337 25.4515C155.248 25.4091 155.185 25.3676 155.146 25.3296C155.107 25.2918 155.1 25.2654 155.1 25.25V1.1Z" fill="url(#paint6_radial_578_737)" stroke="black" stroke-width="0.2"/>
<path d="M130.1 1.1H154.9V25.25C154.9 25.2654 154.893 25.2918 154.854 25.3296C154.815 25.3676 154.752 25.4091 154.663 25.4515C154.484 25.5362 154.218 25.6151 153.882 25.6823C153.212 25.8164 152.281 25.9 151.25 25.9H133.75C132.719 25.9 131.788 25.8164 131.118 25.6823C130.782 25.6151 130.516 25.5362 130.337 25.4515C130.248 25.4091 130.185 25.3676 130.146 25.3296C130.107 25.2918 130.1 25.2654 130.1 25.25V1.1Z" fill="url(#paint7_radial_578_737)" stroke="black" stroke-width="0.2"/>
<path d="M105.1 1.1H129.9V25.25C129.9 25.2654 129.893 25.2918 129.854 25.3296C129.815 25.3676 129.752 25.4091 129.663 25.4515C129.484 25.5362 129.218 25.6151 128.882 25.6823C128.212 25.8164 127.281 25.9 126.25 25.9H108.75C107.719 25.9 106.788 25.8164 106.118 25.6823C105.782 25.6151 105.516 25.5362 105.337 25.4515C105.248 25.4091 105.185 25.3676 105.146 25.3296C105.107 25.2918 105.1 25.2654 105.1 25.25V1.1Z" fill="url(#paint8_linear_578_737)" stroke="black" stroke-width="0.2"/>
<path d="M105.1 1.1H129.9V25.25C129.9 25.2654 129.893 25.2918 129.854 25.3296C129.815 25.3676 129.752 25.4091 129.663 25.4515C129.484 25.5362 129.218 25.6151 128.882 25.6823C128.212 25.8164 127.281 25.9 126.25 25.9H108.75C107.719 25.9 106.788 25.8164 106.118 25.6823C105.782 25.6151 105.516 25.5362 105.337 25.4515C105.248 25.4091 105.185 25.3676 105.146 25.3296C105.107 25.2918 105.1 25.2654 105.1 25.25V1.1Z" fill="url(#paint9_linear_578_737)" stroke="black" stroke-width="0.2"/>
<path d="M118.31 10.7273V18H117.429V11.6506H117.386L115.611 12.8295V11.9347L117.429 10.7273H118.31Z" fill="black"/>
<path d="M355.1 1.1H379.9V25.25C379.9 25.2654 379.893 25.2918 379.854 25.3296C379.815 25.3676 379.752 25.4091 379.663 25.4515C379.484 25.5362 379.218 25.6151 378.882 25.6823C378.212 25.8164 377.281 25.9 376.25 25.9H358.75C357.719 25.9 356.788 25.8164 356.118 25.6823C355.782 25.6151 355.516 25.5362 355.337 25.4515C355.248 25.4091 355.185 25.3676 355.146 25.3296C355.107 25.2918 355.1 25.2654 355.1 25.25V1.1Z" fill="url(#paint10_linear_578_737)" stroke="black" stroke-width="0.2"/>
<path d="M366.98 17L370.233 10.5653V10.5085H366.483V9.72727H371.142V10.5511L367.903 17H366.98Z" fill="black"/>
<path d="M363 17.379L364.833 16.027C365.639 15.442 365.951 14.779 365.977 14.285C365.977 13.557 365.314 13.011 364.534 13.011C363.988 13.011 363.585 13.219 363.325 13.648L363.416 9.553H363V17.379ZM364.209 13.531C364.625 13.531 364.937 13.83 364.937 14.233C364.937 14.909 364.04 16.209 363.364 16.638C363.325 16.417 363.299 15.988 363.299 15.351C363.299 15 363.325 14.571 363.377 14.077C363.572 13.713 363.845 13.531 364.209 13.531Z" fill="black"/>
<path d="M255.1 1.1H279.9V25.25C279.9 25.2654 279.893 25.2918 279.854 25.3296C279.815 25.3676 279.752 25.4091 279.663 25.4515C279.484 25.5362 279.218 25.6151 278.882 25.6823C278.212 25.8164 277.281 25.9 276.25 25.9H258.75C257.719 25.9 256.788 25.8164 256.118 25.6823C255.782 25.6151 255.516 25.5362 255.337 25.4515C255.248 25.4091 255.185 25.3676 255.146 25.3296C255.107 25.2918 255.1 25.2654 255.1 25.25V1.1Z" fill="url(#paint11_linear_578_737)" stroke="black" stroke-width="0.2"/>
<path d="M269.026 18.0994C268.609 18.0994 268.234 18.0166 267.9 17.8509C267.566 17.6851 267.299 17.4579 267.097 17.169C266.896 16.8802 266.786 16.5511 266.767 16.1818H267.619C267.652 16.5109 267.802 16.7831 268.067 16.9986C268.334 17.2116 268.654 17.3182 269.026 17.3182C269.324 17.3182 269.589 17.2483 269.821 17.1087C270.055 16.969 270.239 16.7772 270.371 16.5334C270.506 16.2872 270.574 16.009 270.574 15.6989C270.574 15.3816 270.504 15.0987 270.364 14.8501C270.227 14.5992 270.038 14.4015 269.796 14.2571C269.555 14.1127 269.279 14.0393 268.969 14.0369C268.746 14.0346 268.518 14.0689 268.283 14.1399C268.049 14.2086 267.856 14.2973 267.705 14.4062L266.881 14.3068L267.321 10.7273H271.099V11.5085H268.06L267.804 13.6534H267.847C267.996 13.535 268.183 13.4368 268.408 13.3587C268.633 13.2805 268.867 13.2415 269.111 13.2415C269.556 13.2415 269.952 13.348 270.3 13.5611C270.651 13.7718 270.925 14.0606 271.124 14.4276C271.326 14.7945 271.426 15.2135 271.426 15.6847C271.426 16.1487 271.322 16.563 271.114 16.9276C270.908 17.2898 270.624 17.5762 270.261 17.7869C269.899 17.9953 269.487 18.0994 269.026 18.0994Z" fill="black"/>
<path d="M263 18.379L264.833 17.027C265.639 16.442 265.951 15.779 265.977 15.285C265.977 14.557 265.314 14.011 264.534 14.011C263.988 14.011 263.585 14.219 263.325 14.648L263.416 10.553H263V18.379ZM264.209 14.531C264.625 14.531 264.937 14.83 264.937 15.233C264.937 15.909 264.04 17.209 263.364 17.638C263.325 17.417 263.299 16.988 263.299 16.351C263.299 16 263.325 15.571 263.377 15.077C263.572 14.713 263.845 14.531 264.209 14.531Z" fill="black"/>
<path d="M443.5 1.5H534.5V24.94C534.348 24.9739 534.133 25.0099 533.852 25.046C533.172 25.1334 532.176 25.2134 530.931 25.2811C528.445 25.4162 525.005 25.5 521.2 25.5H456.8C452.995 25.5 449.555 25.4162 447.069 25.2811C445.824 25.2134 444.828 25.1334 444.148 25.046C443.867 25.0099 443.652 24.9739 443.5 24.94V1.5Z" fill="white" stroke="#D6A86F"/>
<path d="M456.75 10.8636L458.653 6.54545H459.449L457.091 12H456.409L454.094 6.54545H454.875L456.75 10.8636ZM454.605 6.54545V12H453.767V6.54545H454.605ZM458.895 12V6.54545H459.733V12H458.895ZM463.71 12.0994C463.241 12.0994 462.824 12.0189 462.457 11.858C462.092 11.697 461.802 11.4732 461.587 11.1868C461.374 10.898 461.258 10.563 461.239 10.1818H462.134C462.152 10.4162 462.233 10.6186 462.375 10.7891C462.517 10.9571 462.703 11.0874 462.933 11.1797C463.162 11.272 463.417 11.3182 463.696 11.3182C464.009 11.3182 464.286 11.2637 464.527 11.1548C464.768 11.0459 464.958 10.8944 465.095 10.7003C465.232 10.5062 465.301 10.2812 465.301 10.0256C465.301 9.75805 465.235 9.52249 465.102 9.31889C464.97 9.11293 464.776 8.95194 464.52 8.83594C464.264 8.71993 463.952 8.66193 463.582 8.66193H463V7.88068H463.582C463.871 7.88068 464.125 7.8286 464.342 7.72443C464.563 7.62026 464.734 7.47348 464.857 7.28409C464.983 7.0947 465.045 6.87216 465.045 6.61648C465.045 6.37026 464.991 6.15601 464.882 5.97372C464.773 5.79143 464.619 5.64938 464.42 5.54759C464.224 5.44579 463.992 5.39489 463.724 5.39489C463.473 5.39489 463.237 5.44105 463.014 5.53338C462.794 5.62334 462.614 5.75473 462.474 5.92756C462.335 6.09801 462.259 6.30398 462.247 6.54545H461.395C461.409 6.1643 461.524 5.83049 461.739 5.54403C461.955 5.25521 462.237 5.0303 462.585 4.86932C462.935 4.70833 463.32 4.62784 463.739 4.62784C464.188 4.62784 464.574 4.71899 464.896 4.90128C465.218 5.0812 465.466 5.31913 465.638 5.61506C465.811 5.91098 465.898 6.23059 465.898 6.57386C465.898 6.98343 465.79 7.33262 465.575 7.62145C465.362 7.91027 465.071 8.11032 464.705 8.22159V8.27841C465.164 8.35417 465.522 8.54948 465.781 8.86435C466.039 9.17685 466.168 9.56392 466.168 10.0256C466.168 10.4209 466.06 10.776 465.844 11.0909C465.631 11.4034 465.34 11.6496 464.971 11.8295C464.602 12.0095 464.181 12.0994 463.71 12.0994ZM469.765 11.5028V6.81534H470.56V11.5028H469.765ZM467.819 9.55682V8.76136H472.506V9.55682H467.819ZM477.209 10.8636L479.112 6.54545H479.908L477.55 12H476.868L474.553 6.54545H475.334L477.209 10.8636ZM475.064 6.54545V12H474.226V6.54545H475.064ZM479.354 12V6.54545H480.192V12H479.354ZM484.169 12.0994C483.7 12.0994 483.283 12.0189 482.916 11.858C482.551 11.697 482.261 11.4732 482.046 11.1868C481.833 10.898 481.717 10.563 481.698 10.1818H482.593C482.611 10.4162 482.692 10.6186 482.834 10.7891C482.976 10.9571 483.162 11.0874 483.392 11.1797C483.621 11.272 483.876 11.3182 484.155 11.3182C484.468 11.3182 484.744 11.2637 484.986 11.1548C485.227 11.0459 485.417 10.8944 485.554 10.7003C485.691 10.5062 485.76 10.2812 485.76 10.0256C485.76 9.75805 485.694 9.52249 485.561 9.31889C485.429 9.11293 485.235 8.95194 484.979 8.83594C484.723 8.71993 484.411 8.66193 484.041 8.66193H483.459V7.88068H484.041C484.33 7.88068 484.584 7.8286 484.801 7.72443C485.021 7.62026 485.193 7.47348 485.316 7.28409C485.442 7.0947 485.504 6.87216 485.504 6.61648C485.504 6.37026 485.45 6.15601 485.341 5.97372C485.232 5.79143 485.078 5.64938 484.879 5.54759C484.683 5.44579 484.451 5.39489 484.183 5.39489C483.932 5.39489 483.696 5.44105 483.473 5.53338C483.253 5.62334 483.073 5.75473 482.933 5.92756C482.794 6.09801 482.718 6.30398 482.706 6.54545H481.854C481.868 6.1643 481.983 5.83049 482.198 5.54403C482.414 5.25521 482.695 5.0303 483.044 4.86932C483.394 4.70833 483.779 4.62784 484.198 4.62784C484.647 4.62784 485.033 4.71899 485.355 4.90128C485.677 5.0812 485.925 5.31913 486.097 5.61506C486.27 5.91098 486.357 6.23059 486.357 6.57386C486.357 6.98343 486.249 7.33262 486.034 7.62145C485.82 7.91027 485.53 8.11032 485.164 8.22159V8.27841C485.623 8.35417 485.981 8.54948 486.24 8.86435C486.498 9.17685 486.627 9.56392 486.627 10.0256C486.627 10.4209 486.519 10.776 486.303 11.0909C486.09 11.4034 485.799 11.6496 485.43 11.8295C485.061 12.0095 484.64 12.0994 484.169 12.0994ZM490.224 10.7216V6.03409H491.019V10.7216H490.224ZM488.278 8.77557V7.98011H492.965V8.77557H488.278ZM494.799 12V4.72727H499.188V5.50852H495.679V7.78125H497.526C498.047 7.78125 498.486 7.86648 498.843 8.03693C499.203 8.20739 499.475 8.44768 499.66 8.75781C499.847 9.06795 499.941 9.43371 499.941 9.85511C499.941 10.2765 499.847 10.6482 499.66 10.9702C499.475 11.2921 499.203 11.5443 498.843 11.7266C498.486 11.9089 498.047 12 497.526 12H494.799ZM495.679 11.233H497.526C497.857 11.233 498.138 11.1667 498.368 11.0341C498.6 10.8991 498.775 10.7263 498.893 10.5156C499.014 10.3026 499.074 10.0777 499.074 9.84091C499.074 9.4929 498.94 9.19342 498.673 8.94247C498.405 8.68916 498.023 8.5625 497.526 8.5625H495.679V11.233ZM503.72 12.0994C503.251 12.0994 502.833 12.0189 502.466 11.858C502.102 11.697 501.812 11.4732 501.596 11.1868C501.383 10.898 501.267 10.563 501.248 10.1818H502.143C502.162 10.4162 502.243 10.6186 502.385 10.7891C502.527 10.9571 502.713 11.0874 502.942 11.1797C503.172 11.272 503.426 11.3182 503.706 11.3182C504.018 11.3182 504.295 11.2637 504.537 11.1548C504.778 11.0459 504.968 10.8944 505.105 10.7003C505.242 10.5062 505.311 10.2812 505.311 10.0256C505.311 9.75805 505.245 9.52249 505.112 9.31889C504.979 9.11293 504.785 8.95194 504.53 8.83594C504.274 8.71993 503.961 8.66193 503.592 8.66193H503.01V7.88068H503.592C503.881 7.88068 504.134 7.8286 504.352 7.72443C504.572 7.62026 504.744 7.47348 504.867 7.28409C504.992 7.0947 505.055 6.87216 505.055 6.61648C505.055 6.37026 505.001 6.15601 504.892 5.97372C504.783 5.79143 504.629 5.64938 504.43 5.54759C504.234 5.44579 504.002 5.39489 503.734 5.39489C503.483 5.39489 503.247 5.44105 503.024 5.53338C502.804 5.62334 502.624 5.75473 502.484 5.92756C502.345 6.09801 502.269 6.30398 502.257 6.54545H501.405C501.419 6.1643 501.534 5.83049 501.749 5.54403C501.965 5.25521 502.246 5.0303 502.594 4.86932C502.945 4.70833 503.329 4.62784 503.748 4.62784C504.198 4.62784 504.584 4.71899 504.906 4.90128C505.228 5.0812 505.475 5.31913 505.648 5.61506C505.821 5.91098 505.907 6.23059 505.907 6.57386C505.907 6.98343 505.8 7.33262 505.584 7.62145C505.371 7.91027 505.081 8.11032 504.714 8.22159V8.27841C505.174 8.35417 505.532 8.54948 505.79 8.86435C506.048 9.17685 506.177 9.56392 506.177 10.0256C506.177 10.4209 506.07 10.776 505.854 11.0909C505.641 11.4034 505.35 11.6496 504.981 11.8295C504.611 12.0095 504.191 12.0994 503.72 12.0994ZM507.985 8.49148V7.72443H512.36V8.49148H507.985ZM507.985 10.5938V9.8267H512.36V10.5938H507.985ZM517.219 10.8636L519.122 6.54545H519.918L517.56 12H516.878L514.562 6.54545H515.344L517.219 10.8636ZM515.074 6.54545V12H514.236V6.54545H515.074ZM519.364 12V6.54545H520.202V12H519.364ZM521.949 12L525.202 5.56534V5.50852H521.452V4.72727H526.111V5.55114L522.872 12H521.949Z" fill="black"/>
<path d="M466.21 22.0994C465.741 22.0994 465.324 22.0189 464.957 21.858C464.592 21.697 464.302 21.4732 464.087 21.1868C463.874 20.898 463.758 20.563 463.739 20.1818H464.634C464.652 20.4162 464.733 20.6186 464.875 20.7891C465.017 20.9571 465.203 21.0874 465.433 21.1797C465.662 21.272 465.917 21.3182 466.196 21.3182C466.509 21.3182 466.786 21.2637 467.027 21.1548C467.268 21.0459 467.458 20.8944 467.595 20.7003C467.732 20.5062 467.801 20.2812 467.801 20.0256C467.801 19.758 467.735 19.5225 467.602 19.3189C467.47 19.1129 467.276 18.9519 467.02 18.8359C466.764 18.7199 466.452 18.6619 466.082 18.6619H465.5V17.8807H466.082C466.371 17.8807 466.625 17.8286 466.842 17.7244C467.063 17.6203 467.234 17.4735 467.357 17.2841C467.483 17.0947 467.545 16.8722 467.545 16.6165C467.545 16.3703 467.491 16.156 467.382 15.9737C467.273 15.7914 467.119 15.6494 466.92 15.5476C466.724 15.4458 466.492 15.3949 466.224 15.3949C465.973 15.3949 465.737 15.4411 465.514 15.5334C465.294 15.6233 465.114 15.7547 464.974 15.9276C464.835 16.098 464.759 16.304 464.747 16.5455H463.895C463.909 16.1643 464.024 15.8305 464.239 15.544C464.455 15.2552 464.737 15.0303 465.085 14.8693C465.435 14.7083 465.82 14.6278 466.239 14.6278C466.688 14.6278 467.074 14.719 467.396 14.9013C467.718 15.0812 467.966 15.3191 468.138 15.6151C468.311 15.911 468.398 16.2306 468.398 16.5739C468.398 16.9834 468.29 17.3326 468.075 17.6214C467.862 17.9103 467.571 18.1103 467.205 18.2216V18.2784C467.664 18.3542 468.022 18.5495 468.281 18.8643C468.539 19.1768 468.668 19.5639 468.668 20.0256C468.668 20.4209 468.56 20.776 468.344 21.0909C468.131 21.4034 467.84 21.6496 467.471 21.8295C467.102 22.0095 466.681 22.0994 466.21 22.0994ZM469.85 15.5085V14.7273H475.305V15.5085H473.018V22H472.137V15.5085H469.85Z" fill="black"/>
<path d="M487.972 16.5455V22H487.134V16.5455H487.972ZM487.645 19.1449V19.9261C487.455 19.9972 487.267 20.0599 487.08 20.1143C486.893 20.1664 486.697 20.2079 486.491 20.2386C486.285 20.267 486.059 20.2812 485.812 20.2812C485.195 20.2812 484.699 20.1143 484.325 19.7805C483.953 19.4467 483.767 18.946 483.767 18.2784V16.5312H484.605V18.2784C484.605 18.5578 484.658 18.7874 484.765 18.9673C484.871 19.1473 485.016 19.281 485.198 19.3686C485.38 19.4562 485.585 19.5 485.812 19.5C486.168 19.5 486.488 19.468 486.775 19.4041C487.064 19.3378 487.354 19.2514 487.645 19.1449ZM491.768 22.0994C491.351 22.0994 490.976 22.0166 490.642 21.8509C490.308 21.6851 490.041 21.4579 489.839 21.169C489.638 20.8802 489.528 20.5511 489.509 20.1818H490.362C490.395 20.5109 490.544 20.7831 490.809 20.9986C491.076 21.2116 491.396 21.3182 491.768 21.3182C492.066 21.3182 492.331 21.2483 492.563 21.1087C492.798 20.969 492.981 20.7772 493.114 20.5334C493.249 20.2872 493.316 20.009 493.316 19.6989C493.316 19.3816 493.246 19.0987 493.107 18.8501C492.969 18.5992 492.78 18.4015 492.538 18.2571C492.297 18.1127 492.021 18.0393 491.711 18.0369C491.488 18.0346 491.26 18.0689 491.026 18.1399C490.791 18.2086 490.598 18.2973 490.447 18.4062L489.623 18.3068L490.063 14.7273H493.842V15.5085H490.802L490.546 17.6534H490.589C490.738 17.535 490.925 17.4368 491.15 17.3587C491.375 17.2805 491.609 17.2415 491.853 17.2415C492.298 17.2415 492.695 17.348 493.043 17.5611C493.393 17.7718 493.668 18.0606 493.866 18.4276C494.068 18.7945 494.168 19.2135 494.168 19.6847C494.168 20.1487 494.064 20.563 493.856 20.9276C493.65 21.2898 493.366 21.5762 493.004 21.7869C492.641 21.9953 492.229 22.0994 491.768 22.0994Z" fill="black"/>
<path d="M180.1 1.1H204.9V25.25C204.9 25.2654 204.893 25.2918 204.854 25.3296C204.815 25.3676 204.752 25.4091 204.663 25.4515C204.484 25.5362 204.218 25.6151 203.882 25.6823C203.212 25.8164 202.281 25.9 201.25 25.9H183.75C182.719 25.9 181.788 25.8164 181.118 25.6823C180.782 25.6151 180.516 25.5362 180.337 25.4515C180.248 25.4091 180.185 25.3676 180.146 25.3296C180.107 25.2918 180.1 25.2654 180.1 25.25V1.1Z" fill="url(#paint12_linear_578_737)" stroke="black" stroke-width="0.2"/>
<path d="M194.21 18.0994C193.741 18.0994 193.324 18.0189 192.957 17.858C192.592 17.697 192.302 17.4732 192.087 17.1868C191.874 16.898 191.758 16.563 191.739 16.1818H192.634C192.652 16.4162 192.733 16.6186 192.875 16.7891C193.017 16.9571 193.203 17.0874 193.433 17.1797C193.662 17.272 193.917 17.3182 194.196 17.3182C194.509 17.3182 194.786 17.2637 195.027 17.1548C195.268 17.0459 195.458 16.8944 195.595 16.7003C195.732 16.5062 195.801 16.2812 195.801 16.0256C195.801 15.758 195.735 15.5225 195.602 15.3189C195.47 15.1129 195.276 14.9519 195.02 14.8359C194.764 14.7199 194.452 14.6619 194.082 14.6619H193.5V13.8807H194.082C194.371 13.8807 194.625 13.8286 194.842 13.7244C195.063 13.6203 195.234 13.4735 195.357 13.2841C195.483 13.0947 195.545 12.8722 195.545 12.6165C195.545 12.3703 195.491 12.156 195.382 11.9737C195.273 11.7914 195.119 11.6494 194.92 11.5476C194.724 11.4458 194.492 11.3949 194.224 11.3949C193.973 11.3949 193.737 11.4411 193.514 11.5334C193.294 11.6233 193.114 11.7547 192.974 11.9276C192.835 12.098 192.759 12.304 192.747 12.5455H191.895C191.909 12.1643 192.024 11.8305 192.239 11.544C192.455 11.2552 192.737 11.0303 193.085 10.8693C193.435 10.7083 193.82 10.6278 194.239 10.6278C194.688 10.6278 195.074 10.719 195.396 10.9013C195.718 11.0812 195.966 11.3191 196.138 11.6151C196.311 11.911 196.398 12.2306 196.398 12.5739C196.398 12.9834 196.29 13.3326 196.075 13.6214C195.862 13.9103 195.571 14.1103 195.205 14.2216V14.2784C195.664 14.3542 196.022 14.5495 196.281 14.8643C196.539 15.1768 196.668 15.5639 196.668 16.0256C196.668 16.4209 196.56 16.776 196.344 17.0909C196.131 17.4034 195.84 17.6496 195.471 17.8295C195.102 18.0095 194.681 18.0994 194.21 18.0994Z" fill="black"/>
<path d="M188 18.379L189.833 17.027C190.639 16.442 190.951 15.779 190.977 15.285C190.977 14.557 190.314 14.011 189.534 14.011C188.988 14.011 188.585 14.219 188.325 14.648L188.416 10.553H188V18.379ZM189.209 14.531C189.625 14.531 189.937 14.83 189.937 15.233C189.937 15.909 189.04 17.209 188.364 17.638C188.325 17.417 188.299 16.988 188.299 16.351C188.299 16 188.325 15.571 188.377 15.077C188.572 14.713 188.845 14.531 189.209 14.531Z" fill="black"/>
<path d="M1 1H93V25.25C93 25.6642 86.8215 26 79.2 26H14.8C7.17847 26 1 25.6642 1 25.25V1Z" fill="white" stroke="#D6A86F" stroke-miterlimit="16"/>
<path d="M11.6555 12.412L14.0315 9.388C15.2555 7.822 15.7955 7.444 16.8395 7.408V7.084H12.5915V7.408C13.4555 7.408 13.8875 7.642 13.8875 8.092C13.8875 8.308 13.7075 8.65 13.3475 9.1L11.2235 11.764L9.38752 9.028C9.09952 8.614 8.95552 8.308 8.95552 8.092C8.95552 7.66 9.36952 7.426 10.1795 7.408V7.084H4.67152V7.408C5.96752 7.444 6.61552 7.93 7.83952 9.712L10.1795 13.132L7.37152 16.696C6.41752 17.92 5.44552 18.586 4.45552 18.676V19H8.66752V18.676C7.89352 18.658 7.51552 18.424 7.51552 17.992C7.51552 17.776 7.71352 17.434 8.09152 16.948L10.5755 13.744L12.5915 16.804C12.9695 17.38 13.1675 17.776 13.1675 17.992C13.1675 18.424 12.7715 18.658 11.9795 18.676V19H17.0915V18.676C16.0295 18.64 15.6155 18.298 14.2115 16.228L11.6555 12.412ZM30.8763 19V18.676C29.9223 18.676 29.6883 18.388 29.6883 17.164V13.168C29.6883 12.7 29.2923 11.512 28.9683 11.188C28.6803 10.9 28.2483 10.756 27.6723 10.756C26.5383 10.756 25.5303 11.242 24.6483 12.232C24.4503 11.242 23.8563 10.756 22.8483 10.756C21.7863 10.756 20.8683 11.242 20.0763 12.196V10.756L17.3763 11.62V11.944H18.2403C18.4563 12.016 18.5643 12.25 18.5643 12.664V17.164C18.5643 18.388 18.3303 18.676 17.3763 18.676V19H21.1563V18.676C20.3823 18.676 20.0763 18.388 20.0763 17.416V12.772C20.6703 11.998 21.3363 11.62 22.0563 11.62C22.9023 11.62 23.3163 12.106 23.3163 13.096V17.272C23.3163 18.424 23.0103 18.676 22.2363 18.676V19H26.0163V18.676C25.0623 18.676 24.8283 18.388 24.8283 17.164C24.8283 17.11 24.8463 16.642 24.8643 15.76V13.96C24.8463 13.312 24.8103 12.898 24.7563 12.736C25.4043 11.998 26.0883 11.62 26.8083 11.62C27.7263 11.62 28.1763 12.106 28.1763 13.096V17.272C28.1763 18.424 27.8703 18.676 27.0963 18.676V19H30.8763ZM36.6655 5.86H31.9855L31.2295 7.84L31.4455 7.984C31.7875 7.246 32.2915 6.868 32.9935 6.868H35.5495L33.1375 14.356H33.8935L36.6655 5.86ZM38.1522 15.4L39.4122 14.392C40.9782 13.132 43.0122 12.25 43.0122 10.252C43.0122 8.866 42.0942 7.912 40.7442 7.912C39.9162 7.912 39.7002 8.002 38.8002 9.028L38.9442 2.548H38.1522V15.4ZM40.2042 8.704C41.0142 8.704 41.5362 9.424 41.5362 10.288C41.5362 11.386 40.6902 12.628 38.9802 13.996C38.8542 13.618 38.8002 13.096 38.8002 12.448C38.8002 12.088 38.8542 11.242 38.9442 9.928C39.2862 9.406 39.5742 8.704 40.2042 8.704ZM49.0187 5.824L48.8387 5.68C48.7487 5.896 48.4607 6.004 47.9747 6.004H45.7427L44.3387 9.172C46.6967 9.37 47.8667 10.288 47.8667 11.944C47.8667 12.952 47.2007 14.068 46.2827 14.068C45.8507 14.068 44.6267 13.204 44.5187 13.204C44.1767 13.204 43.9067 13.474 43.9067 13.816C43.9067 14.284 44.6267 14.572 45.4187 14.572C47.3627 14.572 48.7307 13.258 48.7307 11.332C48.7307 9.514 47.5967 8.434 45.3467 8.128L45.8507 7.012H48.4427L49.0187 5.824ZM75.1126 12.412L77.4886 9.388C78.7126 7.822 79.2526 7.444 80.2966 7.408V7.084H76.0486V7.408C76.9126 7.408 77.3446 7.642 77.3446 8.092C77.3446 8.308 77.1646 8.65 76.8046 9.1L74.6806 11.764L72.8446 9.028C72.5566 8.614 72.4126 8.308 72.4126 8.092C72.4126 7.66 72.8266 7.426 73.6366 7.408V7.084H68.1286V7.408C69.4246 7.444 70.0726 7.93 71.2966 9.712L73.6366 13.132L70.8286 16.696C69.8746 17.92 68.9026 18.586 67.9126 18.676V19H72.1246V18.676C71.3506 18.658 70.9726 18.424 70.9726 17.992C70.9726 17.776 71.1706 17.434 71.5486 16.948L74.0326 13.744L76.0486 16.804C76.4266 17.38 76.6246 17.776 76.6246 17.992C76.6246 18.424 76.2286 18.658 75.4366 18.676V19H80.5486V18.676C79.4866 18.64 79.0726 18.298 77.6686 16.228L75.1126 12.412ZM81.2653 15.076C81.2653 17.344 82.8313 19.162 85.1533 19.162C87.5293 19.162 89.1853 17.164 89.1853 14.86C89.1853 12.592 87.6193 10.756 85.2973 10.756C82.9393 10.756 81.2653 12.772 81.2653 15.076ZM87.6013 15.364C87.6013 17.308 86.8453 18.568 85.4413 18.568C83.8033 18.568 82.8493 16.678 82.8493 14.536C82.8493 12.592 83.6053 11.332 85.0093 11.332C86.6473 11.332 87.6013 13.222 87.6013 15.364Z" fill="black"/>
<path d="M91 10L81 20" stroke="black" stroke-width="0.6"/>
<path d="M405.1 1.1H429.9V25.25C429.9 25.2654 429.893 25.2918 429.854 25.3296C429.815 25.3676 429.752 25.4091 429.663 25.4515C429.484 25.5362 429.218 25.6151 428.882 25.6823C428.212 25.8164 427.281 25.9 426.25 25.9H408.75C407.719 25.9 406.788 25.8164 406.118 25.6823C405.782 25.6151 405.516 25.5362 405.337 25.4515C405.248 25.4091 405.185 25.3676 405.146 25.3296C405.107 25.2918 405.1 25.2654 405.1 25.25V1.1Z" fill="white" stroke="black" stroke-width="0.2"/>
<path d="M418.31 10.7273V18H417.429V11.6506H417.386L415.611 12.8295V11.9347L417.429 10.7273H418.31Z" fill="black"/>
<defs>
<radialGradient id="paint0_radial_578_737" cx="0" cy="0" r="1" gradientUnits="userSpaceOnUse" gradientTransform="translate(392.5 13.5) rotate(90) scale(12.5)">
<stop offset="0.171875"/>
<stop offset="0.171975" stop-color="white"/>
</radialGradient>
<radialGradient id="paint1_radial_578_737" cx="0" cy="0" r="1" gradientUnits="userSpaceOnUse" gradientTransform="translate(342.5 13.5) rotate(90) scale(12.5)">
<stop offset="0.171875"/>
<stop offset="0.171975" stop-color="white"/>
</radialGradient>
<radialGradient id="paint2_radial_578_737" cx="0" cy="0" r="1" gradientUnits="userSpaceOnUse" gradientTransform="translate(317.5 13.5) rotate(90) scale(12.5)">
<stop offset="0.171875"/>
<stop offset="0.171975" stop-color="white"/>
</radialGradient>
<radialGradient id="paint3_radial_578_737" cx="0" cy="0" r="1" gradientUnits="userSpaceOnUse" gradientTransform="translate(292.5 13.5) rotate(90) scale(12.5)">
<stop offset="0.171875"/>
<stop offset="0.171975" stop-color="white"/>
</radialGradient>
<radialGradient id="paint4_radial_578_737" cx="0" cy="0" r="1" gradientUnits="userSpaceOnUse" gradientTransform="translate(242.5 13.5) rotate(90) scale(12.5)">
<stop offset="0.171875"/>
<stop offset="0.171975" stop-color="white"/>
</radialGradient>
<radialGradient id="paint5_radial_578_737" cx="0" cy="0" r="1" gradientUnits="userSpaceOnUse" gradientTransform="translate(217.5 13.5) rotate(90) scale(12.5)">
<stop offset="0.171875"/>
<stop offset="0.171975" stop-color="white"/>
</radialGradient>
<radialGradient id="paint6_radial_578_737" cx="0" cy="0" r="1" gradientUnits="userSpaceOnUse" gradientTransform="translate(167.5 13.5) rotate(90) scale(12.5)">
<stop offset="0.171875"/>
<stop offset="0.171975" stop-color="white"/>
</radialGradient>
<radialGradient id="paint7_radial_578_737" cx="0" cy="0" r="1" gradientUnits="userSpaceOnUse" gradientTransform="translate(142.5 13.5) rotate(90) scale(12.5)">
<stop offset="0.171875"/>
<stop offset="0.171975" stop-color="white"/>
</radialGradient>
<linearGradient id="paint8_linear_578_737" x1="117.5" y1="1" x2="117.5" y2="26" gradientUnits="userSpaceOnUse">
<stop offset="0.255208" stop-color="#DDB078"/>
<stop offset="0.598958" stop-color="#F4D6B1"/>
</linearGradient>
<linearGradient id="paint9_linear_578_737" x1="117.5" y1="1" x2="117.5" y2="26" gradientUnits="userSpaceOnUse">
<stop offset="0.255208" stop-color="#DDB078"/>
<stop offset="0.598958" stop-color="#F4D6B1"/>
</linearGradient>
<linearGradient id="paint10_linear_578_737" x1="367.5" y1="1" x2="367.5" y2="26" gradientUnits="userSpaceOnUse">
<stop offset="0.255208" stop-color="#DDB078"/>
<stop offset="0.598958" stop-color="#F4D6B1"/>
</linearGradient>
<linearGradient id="paint11_linear_578_737" x1="267.5" y1="1" x2="267.5" y2="26" gradientUnits="userSpaceOnUse">
<stop offset="0.255208" stop-color="#DDB078"/>
<stop offset="0.598958" stop-color="#F4D6B1"/>
</linearGradient>
<linearGradient id="paint12_linear_578_737" x1="192.5" y1="1" x2="192.5" y2="26" gradientUnits="userSpaceOnUse">
<stop offset="0.255208" stop-color="#DDB078"/>
<stop offset="0.598958" stop-color="#F4D6B1"/>
</linearGradient>
</defs>
</svg>
