<svg width="25" height="27" viewBox="0 0 25 27" fill="none" xmlns="http://www.w3.org/2000/svg">
<path d="M0.1 0.1H24.9V24.25C24.9 24.2654 24.8926 24.2918 24.8539 24.3296C24.815 24.3676 24.7523 24.4091 24.6626 24.4515C24.4835 24.5362 24.2181 24.6151 23.882 24.6823C23.2116 24.8164 22.281 24.9 21.25 24.9H3.75C2.719 24.9 1.78838 24.8164 1.11796 24.6823C0.781929 24.6151 0.516476 24.5362 0.337441 24.4515C0.247669 24.4091 0.184964 24.3676 0.146084 24.3296C0.107371 24.2918 0.1 24.2654 0.1 24.25V0.1Z" fill="url(#paint0_linear_1083_286)" stroke="black" stroke-width="0.2"/>
<path d="M14.0256 16.0994C13.6089 16.0994 13.2337 16.0166 12.8999 15.8509C12.5661 15.6851 12.2985 15.4579 12.0973 15.169C11.8961 14.8802 11.786 14.5511 11.767 14.1818H12.6193C12.6525 14.5109 12.8016 14.7831 13.0668 14.9986C13.3343 15.2116 13.6539 15.3182 14.0256 15.3182C14.3239 15.3182 14.589 15.2483 14.821 15.1087C15.0554 14.969 15.2389 14.7772 15.3714 14.5334C15.5064 14.2872 15.5739 14.009 15.5739 13.6989C15.5739 13.3816 15.504 13.0987 15.3643 12.8501C15.227 12.5992 15.0376 12.4015 14.7962 12.2571C14.5547 12.1127 14.2789 12.0393 13.9688 12.0369C13.7462 12.0346 13.5178 12.0689 13.2834 12.1399C13.049 12.2086 12.8561 12.2973 12.7045 12.4062L11.8807 12.3068L12.321 8.72727H16.0994V9.50852H13.0597L12.804 11.6534H12.8466C12.9957 11.535 13.1828 11.4368 13.4077 11.3587C13.6326 11.2805 13.867 11.2415 14.1108 11.2415C14.5559 11.2415 14.9524 11.348 15.3004 11.5611C15.6508 11.7718 15.9254 12.0606 16.1243 12.4276C16.3255 12.7945 16.4261 13.2135 16.4261 13.6847C16.4261 14.1487 16.322 14.563 16.1136 14.9276C15.9077 15.2898 15.6236 15.5762 15.2614 15.7869C14.8991 15.9953 14.4872 16.0994 14.0256 16.0994Z" fill="black"/>
<path d="M10.249 12.91L9.001 13.326V11.077L10.249 10.661V12.91ZM10.249 7.528V9.478L9.001 9.894V7.944H8.676V9.985L8 10.206V11.389L8.676 11.168V13.417L8 13.638V14.821L8.676 14.6V16.459H9.001V14.509L10.249 14.093V16.043H10.574V14.002L11.25 13.781V12.598L10.574 12.819V10.57L11.25 10.349V9.166L10.574 9.387V7.528H10.249Z" fill="black"/>
<defs>
<linearGradient id="paint0_linear_1083_286" x1="12.5" y1="0" x2="12.5" y2="25" gradientUnits="userSpaceOnUse">
<stop offset="0.255208" stop-color="#DDB078"/>
<stop offset="0.598958" stop-color="#F4D6B1"/>
</linearGradient>
</defs>
</svg>
