<svg width="225" height="25" viewBox="0 0 225 25" fill="none" xmlns="http://www.w3.org/2000/svg">
<path d="M0.1 0.1H24.9V24.25C24.9 24.2654 24.8926 24.2918 24.8539 24.3296C24.815 24.3676 24.7523 24.4091 24.6626 24.4515C24.4835 24.5362 24.2181 24.6151 23.882 24.6823C23.2116 24.8164 22.281 24.9 21.25 24.9H3.75C2.719 24.9 1.78838 24.8164 1.11796 24.6823C0.781929 24.6151 0.516476 24.5362 0.337441 24.4515C0.24767 24.4091 0.184964 24.3676 0.146084 24.3296C0.107371 24.2918 0.1 24.2654 0.1 24.25V0.1Z" fill="#D6A86F" stroke="black" stroke-width="0.2"/>
<path d="M8.5 15.6364L10.7841 10.4545H11.7386L8.90909 17H8.09091L5.3125 10.4545H6.25L8.5 15.6364ZM5.92614 10.4545V17H4.92045V10.4545H5.92614ZM11.0739 17V10.4545H12.0795V17H11.0739ZM16.8011 17.1193C16.4432 17.1136 16.0852 17.0455 15.7273 16.9148C15.3693 16.7841 15.0426 16.5639 14.7472 16.2543C14.4517 15.9418 14.2145 15.5199 14.0355 14.9886C13.8565 14.4545 13.767 13.7841 13.767 12.9773C13.767 12.2045 13.8395 11.5199 13.9844 10.9233C14.1293 10.3239 14.3395 9.8196 14.6151 9.41051C14.8906 8.99858 15.223 8.68608 15.6122 8.47301C16.0043 8.25994 16.446 8.15341 16.9375 8.15341C17.4261 8.15341 17.8608 8.25142 18.2415 8.44744C18.625 8.64062 18.9375 8.91051 19.179 9.2571C19.4205 9.60369 19.5767 10.0028 19.6477 10.4545H18.608C18.5114 10.0625 18.3239 9.73722 18.0455 9.47869C17.767 9.22017 17.3977 9.09091 16.9375 9.09091C16.2614 9.09091 15.7287 9.38494 15.3395 9.97301C14.9531 10.5611 14.7585 11.3864 14.7557 12.4489H14.8239C14.983 12.2074 15.1719 12.0014 15.3906 11.831C15.6122 11.6577 15.8565 11.5241 16.1236 11.4304C16.3906 11.3366 16.6733 11.2898 16.9716 11.2898C17.4716 11.2898 17.929 11.4148 18.3438 11.6648C18.7585 11.9119 19.0909 12.2543 19.3409 12.6918C19.5909 13.1264 19.7159 13.625 19.7159 14.1875C19.7159 14.7273 19.5952 15.2216 19.3537 15.6705C19.1122 16.1165 18.7727 16.4716 18.3352 16.7358C17.9006 16.9972 17.3892 17.125 16.8011 17.1193ZM16.8011 16.1818C17.1591 16.1818 17.4801 16.0923 17.7642 15.9134C18.0511 15.7344 18.277 15.4943 18.4418 15.1932C18.6094 14.892 18.6932 14.5568 18.6932 14.1875C18.6932 13.8267 18.6122 13.4986 18.4503 13.2031C18.2912 12.9048 18.071 12.6676 17.7898 12.4915C17.5114 12.3153 17.1932 12.2273 16.8352 12.2273C16.5653 12.2273 16.3139 12.2812 16.081 12.3892C15.848 12.4943 15.6435 12.6392 15.4673 12.8239C15.294 13.0085 15.1577 13.2202 15.0582 13.4588C14.9588 13.6946 14.9091 13.9432 14.9091 14.2045C14.9091 14.5511 14.9901 14.875 15.152 15.1761C15.3168 15.4773 15.5412 15.7202 15.8253 15.9048C16.1122 16.0895 16.4375 16.1818 16.8011 16.1818Z" fill="black"/>
<path d="M25.1 0.1H49.9V24.25C49.9 24.2654 49.8926 24.2918 49.8539 24.3296C49.815 24.3676 49.7523 24.4091 49.6626 24.4515C49.4835 24.5362 49.2181 24.6151 48.882 24.6823C48.2116 24.8164 47.281 24.9 46.25 24.9H28.75C27.719 24.9 26.7884 24.8164 26.118 24.6823C25.7819 24.6151 25.5165 24.5362 25.3374 24.4515C25.2477 24.4091 25.185 24.3676 25.1461 24.3296C25.1074 24.2918 25.1 24.2654 25.1 24.25V0.1Z" fill="url(#paint0_radial_1853_229)" stroke="black" stroke-width="0.2"/>
<path d="M50.1 0.1H74.9V24.25C74.9 24.2654 74.8926 24.2918 74.8539 24.3296C74.815 24.3676 74.7523 24.4091 74.6626 24.4515C74.4835 24.5362 74.2181 24.6151 73.882 24.6823C73.2116 24.8164 72.281 24.9 71.25 24.9H53.75C52.719 24.9 51.7884 24.8164 51.118 24.6823C50.7819 24.6151 50.5165 24.5362 50.3374 24.4515C50.2477 24.4091 50.185 24.3676 50.1461 24.3296C50.1074 24.2918 50.1 24.2654 50.1 24.25V0.1Z" fill="url(#paint1_radial_1853_229)" stroke="black" stroke-width="0.2"/>
<path d="M75.1 0.1H99.9V24.25C99.9 24.2654 99.8926 24.2918 99.8539 24.3296C99.815 24.3676 99.7523 24.4091 99.6626 24.4515C99.4835 24.5362 99.2181 24.6151 98.882 24.6823C98.2116 24.8164 97.281 24.9 96.25 24.9H78.75C77.719 24.9 76.7884 24.8164 76.118 24.6823C75.7819 24.6151 75.5165 24.5362 75.3374 24.4515C75.2477 24.4091 75.185 24.3676 75.1461 24.3296C75.1074 24.2918 75.1 24.2654 75.1 24.25V0.1Z" fill="url(#paint2_radial_1853_229)" stroke="black" stroke-width="0.2"/>
<path d="M100.1 0.1H124.9V24.25C124.9 24.2654 124.893 24.2918 124.854 24.3296C124.815 24.3676 124.752 24.4091 124.663 24.4515C124.484 24.5362 124.218 24.6151 123.882 24.6823C123.212 24.8164 122.281 24.9 121.25 24.9H103.75C102.719 24.9 101.788 24.8164 101.118 24.6823C100.782 24.6151 100.516 24.5362 100.337 24.4515C100.248 24.4091 100.185 24.3676 100.146 24.3296C100.107 24.2918 100.1 24.2654 100.1 24.25V0.1Z" fill="#D6A86F" stroke="black" stroke-width="0.2"/>
<path d="M125.1 0.1H149.9V24.25C149.9 24.2654 149.893 24.2918 149.854 24.3296C149.815 24.3676 149.752 24.4091 149.663 24.4515C149.484 24.5362 149.218 24.6151 148.882 24.6823C148.212 24.8164 147.281 24.9 146.25 24.9H128.75C127.719 24.9 126.788 24.8164 126.118 24.6823C125.782 24.6151 125.516 24.5362 125.337 24.4515C125.248 24.4091 125.185 24.3676 125.146 24.3296C125.107 24.2918 125.1 24.2654 125.1 24.25V0.1Z" fill="url(#paint3_radial_1853_229)" stroke="black" stroke-width="0.2"/>
<path d="M150.1 0.1H174.9V24.25C174.9 24.2654 174.893 24.2918 174.854 24.3296C174.815 24.3676 174.752 24.4091 174.663 24.4515C174.484 24.5362 174.218 24.6151 173.882 24.6823C173.212 24.8164 172.281 24.9 171.25 24.9H153.75C152.719 24.9 151.788 24.8164 151.118 24.6823C150.782 24.6151 150.516 24.5362 150.337 24.4515C150.248 24.4091 150.185 24.3676 150.146 24.3296C150.107 24.2918 150.1 24.2654 150.1 24.25V0.1Z" fill="url(#paint4_radial_1853_229)" stroke="black" stroke-width="0.2"/>
<path d="M175.1 0.1H199.9V24.25C199.9 24.2654 199.893 24.2918 199.854 24.3296C199.815 24.3676 199.752 24.4091 199.663 24.4515C199.484 24.5362 199.218 24.6151 198.882 24.6823C198.212 24.8164 197.281 24.9 196.25 24.9H178.75C177.719 24.9 176.788 24.8164 176.118 24.6823C175.782 24.6151 175.516 24.5362 175.337 24.4515C175.248 24.4091 175.185 24.3676 175.146 24.3296C175.107 24.2918 175.1 24.2654 175.1 24.25V0.1Z" fill="url(#paint5_radial_1853_229)" stroke="black" stroke-width="0.2"/>
<path d="M200.1 0.1H224.9V24.25C224.9 24.2654 224.893 24.2918 224.854 24.3296C224.815 24.3676 224.752 24.4091 224.663 24.4515C224.484 24.5362 224.218 24.6151 223.882 24.6823C223.212 24.8164 222.281 24.9 221.25 24.9H203.75C202.719 24.9 201.788 24.8164 201.118 24.6823C200.782 24.6151 200.516 24.5362 200.337 24.4515C200.248 24.4091 200.185 24.3676 200.146 24.3296C200.107 24.2918 200.1 24.2654 200.1 24.25V0.1Z" fill="#D6A86F" stroke="black" stroke-width="0.2"/>
<defs>
<radialGradient id="paint0_radial_1853_229" cx="0" cy="0" r="1" gradientUnits="userSpaceOnUse" gradientTransform="translate(37.5 12.5) rotate(90) scale(12.5)">
<stop offset="0.171875"/>
<stop offset="0.171975" stop-color="white"/>
</radialGradient>
<radialGradient id="paint1_radial_1853_229" cx="0" cy="0" r="1" gradientUnits="userSpaceOnUse" gradientTransform="translate(62.5 12.5) rotate(90) scale(12.5)">
<stop offset="0.171875"/>
<stop offset="0.171975" stop-color="white"/>
</radialGradient>
<radialGradient id="paint2_radial_1853_229" cx="0" cy="0" r="1" gradientUnits="userSpaceOnUse" gradientTransform="translate(87.5 12.5) rotate(90) scale(12.5)">
<stop offset="0.171875"/>
<stop offset="0.171975" stop-color="white"/>
</radialGradient>
<radialGradient id="paint3_radial_1853_229" cx="0" cy="0" r="1" gradientUnits="userSpaceOnUse" gradientTransform="translate(137.5 12.5) rotate(90) scale(12.5)">
<stop offset="0.171875"/>
<stop offset="0.171975" stop-color="white"/>
</radialGradient>
<radialGradient id="paint4_radial_1853_229" cx="0" cy="0" r="1" gradientUnits="userSpaceOnUse" gradientTransform="translate(162.5 12.5) rotate(90) scale(12.5)">
<stop offset="0.171875"/>
<stop offset="0.171975" stop-color="white"/>
</radialGradient>
<radialGradient id="paint5_radial_1853_229" cx="0" cy="0" r="1" gradientUnits="userSpaceOnUse" gradientTransform="translate(187.5 12.5) rotate(90) scale(12.5)">
<stop offset="0.171875"/>
<stop offset="0.171975" stop-color="white"/>
</radialGradient>
</defs>
</svg>
