<svg width="536" height="27" viewBox="0 0 536 27" fill="none" xmlns="http://www.w3.org/2000/svg">
<path d="M356.1 1.1H380.9V25.25C380.9 25.2654 380.893 25.2918 380.854 25.3296C380.815 25.3676 380.752 25.4091 380.663 25.4515C380.484 25.5362 380.218 25.6151 379.882 25.6823C379.212 25.8164 378.281 25.9 377.25 25.9H359.75C358.719 25.9 357.788 25.8164 357.118 25.6823C356.782 25.6151 356.516 25.5362 356.337 25.4515C356.248 25.4091 356.185 25.3676 356.146 25.3296C356.107 25.2918 356.1 25.2654 356.1 25.25V1.1Z" fill="url(#paint0_radial_578_404)" stroke="black" stroke-width="0.2"/>
<path d="M331.1 1.1H355.9V25.25C355.9 25.2654 355.893 25.2918 355.854 25.3296C355.815 25.3676 355.752 25.4091 355.663 25.4515C355.484 25.5362 355.218 25.6151 354.882 25.6823C354.212 25.8164 353.281 25.9 352.25 25.9H334.75C333.719 25.9 332.788 25.8164 332.118 25.6823C331.782 25.6151 331.516 25.5362 331.337 25.4515C331.248 25.4091 331.185 25.3676 331.146 25.3296C331.107 25.2918 331.1 25.2654 331.1 25.25V1.1Z" fill="url(#paint1_radial_578_404)" stroke="black" stroke-width="0.2"/>
<path d="M306.1 1.1H330.9V25.25C330.9 25.2654 330.893 25.2918 330.854 25.3296C330.815 25.3676 330.752 25.4091 330.663 25.4515C330.484 25.5362 330.218 25.6151 329.882 25.6823C329.212 25.8164 328.281 25.9 327.25 25.9H309.75C308.719 25.9 307.788 25.8164 307.118 25.6823C306.782 25.6151 306.516 25.5362 306.337 25.4515C306.248 25.4091 306.185 25.3676 306.146 25.3296C306.107 25.2918 306.1 25.2654 306.1 25.25V1.1Z" fill="url(#paint2_radial_578_404)" stroke="black" stroke-width="0.2"/>
<path d="M256.1 1.1H280.9V25.25C280.9 25.2654 280.893 25.2918 280.854 25.3296C280.815 25.3676 280.752 25.4091 280.663 25.4515C280.484 25.5362 280.218 25.6151 279.882 25.6823C279.212 25.8164 278.281 25.9 277.25 25.9H259.75C258.719 25.9 257.788 25.8164 257.118 25.6823C256.782 25.6151 256.516 25.5362 256.337 25.4515C256.248 25.4091 256.185 25.3676 256.146 25.3296C256.107 25.2918 256.1 25.2654 256.1 25.25V1.1Z" fill="url(#paint3_radial_578_404)" stroke="black" stroke-width="0.2"/>
<path d="M231.1 1.1H255.9V25.25C255.9 25.2654 255.893 25.2918 255.854 25.3296C255.815 25.3676 255.752 25.4091 255.663 25.4515C255.484 25.5362 255.218 25.6151 254.882 25.6823C254.212 25.8164 253.281 25.9 252.25 25.9H234.75C233.719 25.9 232.788 25.8164 232.118 25.6823C231.782 25.6151 231.516 25.5362 231.337 25.4515C231.248 25.4091 231.185 25.3676 231.146 25.3296C231.107 25.2918 231.1 25.2654 231.1 25.25V1.1Z" fill="url(#paint4_radial_578_404)" stroke="black" stroke-width="0.2"/>
<path d="M181.1 1.1H205.9V25.25C205.9 25.2654 205.893 25.2918 205.854 25.3296C205.815 25.3676 205.752 25.4091 205.663 25.4515C205.484 25.5362 205.218 25.6151 204.882 25.6823C204.212 25.8164 203.281 25.9 202.25 25.9H184.75C183.719 25.9 182.788 25.8164 182.118 25.6823C181.782 25.6151 181.516 25.5362 181.337 25.4515C181.248 25.4091 181.185 25.3676 181.146 25.3296C181.107 25.2918 181.1 25.2654 181.1 25.25V1.1Z" fill="url(#paint5_radial_578_404)" stroke="black" stroke-width="0.2"/>
<path d="M206.1 1.1H230.9V25.25C230.9 25.2654 230.893 25.2918 230.854 25.3296C230.815 25.3676 230.752 25.4091 230.663 25.4515C230.484 25.5362 230.218 25.6151 229.882 25.6823C229.212 25.8164 228.281 25.9 227.25 25.9H209.75C208.719 25.9 207.788 25.8164 207.118 25.6823C206.782 25.6151 206.516 25.5362 206.337 25.4515C206.248 25.4091 206.185 25.3676 206.146 25.3296C206.107 25.2918 206.1 25.2654 206.1 25.25V1.1Z" fill="url(#paint6_linear_578_404)" stroke="black" stroke-width="0.2"/>
<path d="M219.21 18.0994C218.741 18.0994 218.324 18.0189 217.957 17.858C217.592 17.697 217.302 17.4732 217.087 17.1868C216.874 16.898 216.758 16.563 216.739 16.1818H217.634C217.652 16.4162 217.733 16.6186 217.875 16.7891C218.017 16.9571 218.203 17.0874 218.433 17.1797C218.662 17.272 218.917 17.3182 219.196 17.3182C219.509 17.3182 219.786 17.2637 220.027 17.1548C220.268 17.0459 220.458 16.8944 220.595 16.7003C220.732 16.5062 220.801 16.2812 220.801 16.0256C220.801 15.758 220.735 15.5225 220.602 15.3189C220.47 15.1129 220.276 14.9519 220.02 14.8359C219.764 14.7199 219.452 14.6619 219.082 14.6619H218.5V13.8807H219.082C219.371 13.8807 219.625 13.8286 219.842 13.7244C220.063 13.6203 220.234 13.4735 220.357 13.2841C220.483 13.0947 220.545 12.8722 220.545 12.6165C220.545 12.3703 220.491 12.156 220.382 11.9737C220.273 11.7914 220.119 11.6494 219.92 11.5476C219.724 11.4458 219.492 11.3949 219.224 11.3949C218.973 11.3949 218.737 11.4411 218.514 11.5334C218.294 11.6233 218.114 11.7547 217.974 11.9276C217.835 12.098 217.759 12.304 217.747 12.5455H216.895C216.909 12.1643 217.024 11.8305 217.239 11.544C217.455 11.2552 217.737 11.0303 218.085 10.8693C218.435 10.7083 218.82 10.6278 219.239 10.6278C219.688 10.6278 220.074 10.719 220.396 10.9013C220.718 11.0812 220.966 11.3191 221.138 11.6151C221.311 11.911 221.398 12.2306 221.398 12.5739C221.398 12.9834 221.29 13.3326 221.075 13.6214C220.862 13.9103 220.571 14.1103 220.205 14.2216V14.2784C220.664 14.3542 221.022 14.5495 221.281 14.8643C221.539 15.1768 221.668 15.5639 221.668 16.0256C221.668 16.4209 221.56 16.776 221.344 17.0909C221.131 17.4034 220.84 17.6496 220.471 17.8295C220.102 18.0095 219.681 18.0994 219.21 18.0994Z" fill="black"/>
<path d="M156.1 1.1H180.9V25.25C180.9 25.2654 180.893 25.2918 180.854 25.3296C180.815 25.3676 180.752 25.4091 180.663 25.4515C180.484 25.5362 180.218 25.6151 179.882 25.6823C179.212 25.8164 178.281 25.9 177.25 25.9H159.75C158.719 25.9 157.788 25.8164 157.118 25.6823C156.782 25.6151 156.516 25.5362 156.337 25.4515C156.248 25.4091 156.185 25.3676 156.146 25.3296C156.107 25.2918 156.1 25.2654 156.1 25.25V1.1Z" fill="url(#paint7_radial_578_404)" stroke="black" stroke-width="0.2"/>
<path d="M131.1 1.1H155.9V25.25C155.9 25.2654 155.893 25.2918 155.854 25.3296C155.815 25.3676 155.752 25.4091 155.663 25.4515C155.484 25.5362 155.218 25.6151 154.882 25.6823C154.212 25.8164 153.281 25.9 152.25 25.9H134.75C133.719 25.9 132.788 25.8164 132.118 25.6823C131.782 25.6151 131.516 25.5362 131.337 25.4515C131.248 25.4091 131.185 25.3676 131.146 25.3296C131.107 25.2918 131.1 25.2654 131.1 25.25V1.1Z" fill="url(#paint8_radial_578_404)" stroke="black" stroke-width="0.2"/>
<path d="M106.1 1.1H130.9V25.25C130.9 25.2654 130.893 25.2918 130.854 25.3296C130.815 25.3676 130.752 25.4091 130.663 25.4515C130.484 25.5362 130.218 25.6151 129.882 25.6823C129.212 25.8164 128.281 25.9 127.25 25.9H109.75C108.719 25.9 107.788 25.8164 107.118 25.6823C106.782 25.6151 106.516 25.5362 106.337 25.4515C106.248 25.4091 106.185 25.3676 106.146 25.3296C106.107 25.2918 106.1 25.2654 106.1 25.25V1.1Z" fill="url(#paint9_linear_578_404)" stroke="black" stroke-width="0.2"/>
<path d="M106.1 1.1H130.9V25.25C130.9 25.2654 130.893 25.2918 130.854 25.3296C130.815 25.3676 130.752 25.4091 130.663 25.4515C130.484 25.5362 130.218 25.6151 129.882 25.6823C129.212 25.8164 128.281 25.9 127.25 25.9H109.75C108.719 25.9 107.788 25.8164 107.118 25.6823C106.782 25.6151 106.516 25.5362 106.337 25.4515C106.248 25.4091 106.185 25.3676 106.146 25.3296C106.107 25.2918 106.1 25.2654 106.1 25.25V1.1Z" fill="url(#paint10_linear_578_404)" stroke="black" stroke-width="0.2"/>
<path d="M119.31 10.7273V18H118.429V11.6506H118.386L116.611 12.8295V11.9347L118.429 10.7273H119.31Z" fill="black"/>
<path d="M381.1 1.1H405.9V25.25C405.9 25.2654 405.893 25.2918 405.854 25.3296C405.815 25.3676 405.752 25.4091 405.663 25.4515C405.484 25.5362 405.218 25.6151 404.882 25.6823C404.212 25.8164 403.281 25.9 402.25 25.9H384.75C383.719 25.9 382.788 25.8164 382.118 25.6823C381.782 25.6151 381.516 25.5362 381.337 25.4515C381.248 25.4091 381.185 25.3676 381.146 25.3296C381.107 25.2918 381.1 25.2654 381.1 25.25V1.1Z" fill="url(#paint11_linear_578_404)" stroke="black" stroke-width="0.2"/>
<path d="M391.98 18L395.233 11.5653V11.5085H391.483V10.7273H396.142V11.5511L392.903 18H391.98Z" fill="black"/>
<path d="M281.1 1.1H305.9V25.25C305.9 25.2654 305.893 25.2918 305.854 25.3296C305.815 25.3676 305.752 25.4091 305.663 25.4515C305.484 25.5362 305.218 25.6151 304.882 25.6823C304.212 25.8164 303.281 25.9 302.25 25.9H284.75C283.719 25.9 282.788 25.8164 282.118 25.6823C281.782 25.6151 281.516 25.5362 281.337 25.4515C281.248 25.4091 281.185 25.3676 281.146 25.3296C281.107 25.2918 281.1 25.2654 281.1 25.25V1.1Z" fill="url(#paint12_linear_578_404)" stroke="black" stroke-width="0.2"/>
<path d="M294.026 18.0994C293.609 18.0994 293.234 18.0166 292.9 17.8509C292.566 17.6851 292.299 17.4579 292.097 17.169C291.896 16.8802 291.786 16.5511 291.767 16.1818H292.619C292.652 16.5109 292.802 16.7831 293.067 16.9986C293.334 17.2116 293.654 17.3182 294.026 17.3182C294.324 17.3182 294.589 17.2483 294.821 17.1087C295.055 16.969 295.239 16.7772 295.371 16.5334C295.506 16.2872 295.574 16.009 295.574 15.6989C295.574 15.3816 295.504 15.0987 295.364 14.8501C295.227 14.5992 295.038 14.4015 294.796 14.2571C294.555 14.1127 294.279 14.0393 293.969 14.0369C293.746 14.0346 293.518 14.0689 293.283 14.1399C293.049 14.2086 292.856 14.2973 292.705 14.4062L291.881 14.3068L292.321 10.7273H296.099V11.5085H293.06L292.804 13.6534H292.847C292.996 13.535 293.183 13.4368 293.408 13.3587C293.633 13.2805 293.867 13.2415 294.111 13.2415C294.556 13.2415 294.952 13.348 295.3 13.5611C295.651 13.7718 295.925 14.0606 296.124 14.4276C296.326 14.7945 296.426 15.2135 296.426 15.6847C296.426 16.1487 296.322 16.563 296.114 16.9276C295.908 17.2898 295.624 17.5762 295.261 17.7869C294.899 17.9953 294.487 18.0994 294.026 18.0994Z" fill="black"/>
<path d="M444.5 1.5H535.5V24.94C535.348 24.9739 535.133 25.0099 534.852 25.046C534.172 25.1334 533.176 25.2134 531.931 25.2811C529.445 25.4162 526.005 25.5 522.2 25.5H457.8C453.995 25.5 450.555 25.4162 448.069 25.2811C446.824 25.2134 445.828 25.1334 445.148 25.046C444.867 25.0099 444.652 24.9739 444.5 24.94V1.5Z" fill="white" stroke="#D6A86F"/>
<path d="M454.881 12V4.72727H459.27V5.50852H455.761V7.78125H457.608C458.129 7.78125 458.568 7.86648 458.925 8.03693C459.285 8.20739 459.558 8.44768 459.742 8.75781C459.929 9.06795 460.023 9.43371 460.023 9.85511C460.023 10.2765 459.929 10.6482 459.742 10.9702C459.558 11.2921 459.285 11.5443 458.925 11.7266C458.568 11.9089 458.129 12 457.608 12H454.881ZM455.761 11.233H457.608C457.939 11.233 458.22 11.1667 458.45 11.0341C458.682 10.8991 458.857 10.7263 458.975 10.5156C459.096 10.3026 459.156 10.0777 459.156 9.84091C459.156 9.4929 459.022 9.19342 458.755 8.94247C458.487 8.68916 458.105 8.5625 457.608 8.5625H455.761V11.233ZM463.802 12.0994C463.333 12.0994 462.915 12.0189 462.548 11.858C462.184 11.697 461.894 11.4732 461.678 11.1868C461.465 10.898 461.349 10.563 461.33 10.1818H462.225C462.244 10.4162 462.325 10.6186 462.467 10.7891C462.609 10.9571 462.795 11.0874 463.024 11.1797C463.254 11.272 463.508 11.3182 463.788 11.3182C464.1 11.3182 464.377 11.2637 464.619 11.1548C464.86 11.0459 465.05 10.8944 465.187 10.7003C465.324 10.5062 465.393 10.2812 465.393 10.0256C465.393 9.75805 465.327 9.52249 465.194 9.31889C465.061 9.11293 464.867 8.95194 464.612 8.83594C464.356 8.71993 464.044 8.66193 463.674 8.66193H463.092V7.88068H463.674C463.963 7.88068 464.216 7.8286 464.434 7.72443C464.654 7.62026 464.826 7.47348 464.949 7.28409C465.075 7.0947 465.137 6.87216 465.137 6.61648C465.137 6.37026 465.083 6.15601 464.974 5.97372C464.865 5.79143 464.711 5.64938 464.512 5.54759C464.316 5.44579 464.084 5.39489 463.816 5.39489C463.565 5.39489 463.329 5.44105 463.106 5.53338C462.886 5.62334 462.706 5.75473 462.566 5.92756C462.427 6.09801 462.351 6.30398 462.339 6.54545H461.487C461.501 6.1643 461.616 5.83049 461.831 5.54403C462.047 5.25521 462.328 5.0303 462.676 4.86932C463.027 4.70833 463.411 4.62784 463.83 4.62784C464.28 4.62784 464.666 4.71899 464.988 4.90128C465.31 5.0812 465.557 5.31913 465.73 5.61506C465.903 5.91098 465.99 6.23059 465.99 6.57386C465.99 6.98343 465.882 7.33262 465.666 7.62145C465.453 7.91027 465.163 8.11032 464.796 8.22159V8.27841C465.256 8.35417 465.614 8.54948 465.872 8.86435C466.13 9.17685 466.259 9.56392 466.259 10.0256C466.259 10.4209 466.152 10.776 465.936 11.0909C465.723 11.4034 465.432 11.6496 465.063 11.8295C464.693 12.0095 464.273 12.0994 463.802 12.0994ZM469.857 11.5028V6.81534H470.652V11.5028H469.857ZM467.911 9.55682V8.76136H472.598V9.55682H467.911ZM477.301 10.8636L479.204 6.54545H480L477.642 12H476.96L474.645 6.54545H475.426L477.301 10.8636ZM475.156 6.54545V12H474.318V6.54545H475.156ZM479.446 12V6.54545H480.284V12H479.446ZM484.261 12.0994C483.792 12.0994 483.374 12.0189 483.007 11.858C482.643 11.697 482.353 11.4732 482.137 11.1868C481.924 10.898 481.808 10.563 481.789 10.1818H482.684C482.703 10.4162 482.784 10.6186 482.926 10.7891C483.068 10.9571 483.254 11.0874 483.483 11.1797C483.713 11.272 483.967 11.3182 484.247 11.3182C484.559 11.3182 484.836 11.2637 485.078 11.1548C485.319 11.0459 485.509 10.8944 485.646 10.7003C485.783 10.5062 485.852 10.2812 485.852 10.0256C485.852 9.75805 485.786 9.52249 485.653 9.31889C485.52 9.11293 485.326 8.95194 485.071 8.83594C484.815 8.71993 484.502 8.66193 484.133 8.66193H483.551V7.88068H484.133C484.422 7.88068 484.675 7.8286 484.893 7.72443C485.113 7.62026 485.285 7.47348 485.408 7.28409C485.533 7.0947 485.596 6.87216 485.596 6.61648C485.596 6.37026 485.542 6.15601 485.433 5.97372C485.324 5.79143 485.17 5.64938 484.971 5.54759C484.775 5.44579 484.543 5.39489 484.275 5.39489C484.024 5.39489 483.788 5.44105 483.565 5.53338C483.345 5.62334 483.165 5.75473 483.025 5.92756C482.886 6.09801 482.81 6.30398 482.798 6.54545H481.946C481.96 6.1643 482.075 5.83049 482.29 5.54403C482.506 5.25521 482.787 5.0303 483.135 4.86932C483.486 4.70833 483.87 4.62784 484.289 4.62784C484.739 4.62784 485.125 4.71899 485.447 4.90128C485.769 5.0812 486.016 5.31913 486.189 5.61506C486.362 5.91098 486.449 6.23059 486.449 6.57386C486.449 6.98343 486.341 7.33262 486.125 7.62145C485.912 7.91027 485.622 8.11032 485.255 8.22159V8.27841C485.715 8.35417 486.073 8.54948 486.331 8.86435C486.589 9.17685 486.718 9.56392 486.718 10.0256C486.718 10.4209 486.611 10.776 486.395 11.0909C486.182 11.4034 485.891 11.6496 485.522 11.8295C485.152 12.0095 484.732 12.0994 484.261 12.0994ZM490.316 10.7216V6.03409H491.111V10.7216H490.316ZM488.37 8.77557V7.98011H493.057V8.77557H488.37ZM494.89 12V4.72727H499.28V5.50852H495.771V7.78125H497.618C498.139 7.78125 498.578 7.86648 498.935 8.03693C499.295 8.20739 499.567 8.44768 499.752 8.75781C499.939 9.06795 500.032 9.43371 500.032 9.85511C500.032 10.2765 499.939 10.6482 499.752 10.9702C499.567 11.2921 499.295 11.5443 498.935 11.7266C498.578 11.9089 498.139 12 497.618 12H494.89ZM495.771 11.233H497.618C497.949 11.233 498.23 11.1667 498.459 11.0341C498.691 10.8991 498.867 10.7263 498.985 10.5156C499.106 10.3026 499.166 10.0777 499.166 9.84091C499.166 9.4929 499.032 9.19342 498.765 8.94247C498.497 8.68916 498.115 8.5625 497.618 8.5625H495.771V11.233ZM503.812 12.0994C503.343 12.0994 502.925 12.0189 502.558 11.858C502.194 11.697 501.904 11.4732 501.688 11.1868C501.475 10.898 501.359 10.563 501.34 10.1818H502.235C502.254 10.4162 502.335 10.6186 502.477 10.7891C502.619 10.9571 502.804 11.0874 503.034 11.1797C503.264 11.272 503.518 11.3182 503.798 11.3182C504.11 11.3182 504.387 11.2637 504.629 11.1548C504.87 11.0459 505.059 10.8944 505.197 10.7003C505.334 10.5062 505.403 10.2812 505.403 10.0256C505.403 9.75805 505.336 9.52249 505.204 9.31889C505.071 9.11293 504.877 8.95194 504.621 8.83594C504.366 8.71993 504.053 8.66193 503.684 8.66193H503.102V7.88068H503.684C503.973 7.88068 504.226 7.8286 504.444 7.72443C504.664 7.62026 504.836 7.47348 504.959 7.28409C505.084 7.0947 505.147 6.87216 505.147 6.61648C505.147 6.37026 505.093 6.15601 504.984 5.97372C504.875 5.79143 504.721 5.64938 504.522 5.54759C504.326 5.44579 504.094 5.39489 503.826 5.39489C503.575 5.39489 503.338 5.44105 503.116 5.53338C502.896 5.62334 502.716 5.75473 502.576 5.92756C502.436 6.09801 502.361 6.30398 502.349 6.54545H501.496C501.511 6.1643 501.625 5.83049 501.841 5.54403C502.056 5.25521 502.338 5.0303 502.686 4.86932C503.036 4.70833 503.421 4.62784 503.84 4.62784C504.29 4.62784 504.676 4.71899 504.998 4.90128C505.32 5.0812 505.567 5.31913 505.74 5.61506C505.913 5.91098 505.999 6.23059 505.999 6.57386C505.999 6.98343 505.892 7.33262 505.676 7.62145C505.463 7.91027 505.173 8.11032 504.806 8.22159V8.27841C505.265 8.35417 505.624 8.54948 505.882 8.86435C506.14 9.17685 506.269 9.56392 506.269 10.0256C506.269 10.4209 506.161 10.776 505.946 11.0909C505.733 11.4034 505.442 11.6496 505.072 11.8295C504.703 12.0095 504.283 12.0994 503.812 12.0994ZM508.077 7.69602V6.92898H512.452V7.69602H508.077ZM508.077 9.7983V9.03125H512.452V9.7983H508.077ZM514.441 12V4.72727H518.83V5.50852H515.322V7.78125H517.169C517.689 7.78125 518.128 7.86648 518.486 8.03693C518.846 8.20739 519.118 8.44768 519.303 8.75781C519.49 9.06795 519.583 9.43371 519.583 9.85511C519.583 10.2765 519.49 10.6482 519.303 10.9702C519.118 11.2921 518.846 11.5443 518.486 11.7266C518.128 11.9089 517.689 12 517.169 12H514.441ZM515.322 11.233H517.169C517.5 11.233 517.78 11.1667 518.01 11.0341C518.242 10.8991 518.417 10.7263 518.536 10.5156C518.656 10.3026 518.717 10.0777 518.717 9.84091C518.717 9.4929 518.583 9.19342 518.316 8.94247C518.048 8.68916 517.666 8.5625 517.169 8.5625H515.322V11.233ZM521.132 12L524.385 5.56534V5.50852H520.635V4.72727H525.294V5.55114L522.056 12H521.132Z" fill="black"/>
<path d="M468.972 16.5455V22H468.134V16.5455H468.972ZM468.645 19.1449V19.9261C468.455 19.9972 468.267 20.0599 468.08 20.1143C467.893 20.1664 467.697 20.2079 467.491 20.2386C467.285 20.267 467.059 20.2812 466.812 20.2812C466.195 20.2812 465.699 20.1143 465.325 19.7805C464.953 19.4467 464.767 18.946 464.767 18.2784V16.5312H465.605V18.2784C465.605 18.5578 465.658 18.7874 465.765 18.9673C465.871 19.1473 466.016 19.281 466.198 19.3686C466.38 19.4562 466.585 19.5 466.812 19.5C467.168 19.5 467.488 19.468 467.775 19.4041C468.064 19.3378 468.354 19.2514 468.645 19.1449ZM472.768 22.0994C472.351 22.0994 471.976 22.0166 471.642 21.8509C471.308 21.6851 471.041 21.4579 470.839 21.169C470.638 20.8802 470.528 20.5511 470.509 20.1818H471.362C471.395 20.5109 471.544 20.7831 471.809 20.9986C472.076 21.2116 472.396 21.3182 472.768 21.3182C473.066 21.3182 473.331 21.2483 473.563 21.1087C473.798 20.969 473.981 20.7772 474.114 20.5334C474.249 20.2872 474.316 20.009 474.316 19.6989C474.316 19.3816 474.246 19.0987 474.107 18.8501C473.969 18.5992 473.78 18.4015 473.538 18.2571C473.297 18.1127 473.021 18.0393 472.711 18.0369C472.488 18.0346 472.26 18.0689 472.026 18.1399C471.791 18.2086 471.598 18.2973 471.447 18.4062L470.623 18.3068L471.063 14.7273H474.842V15.5085H471.802L471.546 17.6534H471.589C471.738 17.535 471.925 17.4368 472.15 17.3587C472.375 17.2805 472.609 17.2415 472.853 17.2415C473.298 17.2415 473.695 17.348 474.043 17.5611C474.393 17.7718 474.668 18.0606 474.866 18.4276C475.068 18.7945 475.168 19.2135 475.168 19.6847C475.168 20.1487 475.064 20.563 474.856 20.9276C474.65 21.2898 474.366 21.5762 474.004 21.7869C473.641 21.9953 473.229 22.0994 472.768 22.0994Z" fill="black"/>
<path d="M488.972 16.5455V22H488.134V16.5455H488.972ZM488.645 19.1449V19.9261C488.455 19.9972 488.267 20.0599 488.08 20.1143C487.893 20.1664 487.697 20.2079 487.491 20.2386C487.285 20.267 487.059 20.2812 486.812 20.2812C486.195 20.2812 485.699 20.1143 485.325 19.7805C484.953 19.4467 484.767 18.946 484.767 18.2784V16.5312H485.605V18.2784C485.605 18.5578 485.658 18.7874 485.765 18.9673C485.871 19.1473 486.016 19.281 486.198 19.3686C486.38 19.4562 486.585 19.5 486.812 19.5C487.168 19.5 487.488 19.468 487.775 19.4041C488.064 19.3378 488.354 19.2514 488.645 19.1449ZM492.768 22.0994C492.351 22.0994 491.976 22.0166 491.642 21.8509C491.308 21.6851 491.041 21.4579 490.839 21.169C490.638 20.8802 490.528 20.5511 490.509 20.1818H491.362C491.395 20.5109 491.544 20.7831 491.809 20.9986C492.076 21.2116 492.396 21.3182 492.768 21.3182C493.066 21.3182 493.331 21.2483 493.563 21.1087C493.798 20.969 493.981 20.7772 494.114 20.5334C494.249 20.2872 494.316 20.009 494.316 19.6989C494.316 19.3816 494.246 19.0987 494.107 18.8501C493.969 18.5992 493.78 18.4015 493.538 18.2571C493.297 18.1127 493.021 18.0393 492.711 18.0369C492.488 18.0346 492.26 18.0689 492.026 18.1399C491.791 18.2086 491.598 18.2973 491.447 18.4062L490.623 18.3068L491.063 14.7273H494.842V15.5085H491.802L491.546 17.6534H491.589C491.738 17.535 491.925 17.4368 492.15 17.3587C492.375 17.2805 492.609 17.2415 492.853 17.2415C493.298 17.2415 493.695 17.348 494.043 17.5611C494.393 17.7718 494.668 18.0606 494.866 18.4276C495.068 18.7945 495.168 19.2135 495.168 19.6847C495.168 20.1487 495.064 20.563 494.856 20.9276C494.65 21.2898 494.366 21.5762 494.004 21.7869C493.641 21.9953 493.229 22.0994 492.768 22.0994Z" fill="black"/>
<path d="M1 1H93V25.25C93 25.6642 86.8215 26 79.2 26H14.8C7.17847 26 1 25.6642 1 25.25V1Z" fill="white" stroke="#D6A86F" stroke-miterlimit="16"/>
<path d="M47.7211 19H45.8851L42.4831 13.42L39.0271 19H37.3171L41.5831 12.304L37.5871 6.148H39.3871L42.5371 11.188L45.7051 6.148H47.4151L43.4371 12.268L47.7211 19ZM55.712 13.42L51.752 5.824L47.792 13.42H55.712ZM49.592 12.34L51.752 7.984L53.912 12.34H49.592Z" fill="black"/>
<path d="M406.1 1.1H430.9V25.25C430.9 25.2654 430.893 25.2918 430.854 25.3296C430.815 25.3676 430.752 25.4091 430.663 25.4515C430.484 25.5362 430.218 25.6151 429.882 25.6823C429.212 25.8164 428.281 25.9 427.25 25.9H409.75C408.719 25.9 407.788 25.8164 407.118 25.6823C406.782 25.6151 406.516 25.5362 406.337 25.4515C406.248 25.4091 406.185 25.3676 406.146 25.3296C406.107 25.2918 406.1 25.2654 406.1 25.25V1.1Z" fill="white" stroke="black" stroke-width="0.2"/>
<path d="M419.31 10.7273V18H418.429V11.6506H418.386L416.611 12.8295V11.9347L418.429 10.7273H419.31Z" fill="black"/>
<defs>
<radialGradient id="paint0_radial_578_404" cx="0" cy="0" r="1" gradientUnits="userSpaceOnUse" gradientTransform="translate(368.5 13.5) rotate(90) scale(12.5)">
<stop offset="0.171875"/>
<stop offset="0.171975" stop-color="white"/>
</radialGradient>
<radialGradient id="paint1_radial_578_404" cx="0" cy="0" r="1" gradientUnits="userSpaceOnUse" gradientTransform="translate(343.5 13.5) rotate(90) scale(12.5)">
<stop offset="0.171875"/>
<stop offset="0.171975" stop-color="white"/>
</radialGradient>
<radialGradient id="paint2_radial_578_404" cx="0" cy="0" r="1" gradientUnits="userSpaceOnUse" gradientTransform="translate(318.5 13.5) rotate(90) scale(12.5)">
<stop offset="0.171875"/>
<stop offset="0.171975" stop-color="white"/>
</radialGradient>
<radialGradient id="paint3_radial_578_404" cx="0" cy="0" r="1" gradientUnits="userSpaceOnUse" gradientTransform="translate(268.5 13.5) rotate(90) scale(12.5)">
<stop offset="0.171875"/>
<stop offset="0.171975" stop-color="white"/>
</radialGradient>
<radialGradient id="paint4_radial_578_404" cx="0" cy="0" r="1" gradientUnits="userSpaceOnUse" gradientTransform="translate(243.5 13.5) rotate(90) scale(12.5)">
<stop offset="0.171875"/>
<stop offset="0.171975" stop-color="white"/>
</radialGradient>
<radialGradient id="paint5_radial_578_404" cx="0" cy="0" r="1" gradientUnits="userSpaceOnUse" gradientTransform="translate(193.5 13.5) rotate(90) scale(12.5)">
<stop offset="0.171875"/>
<stop offset="0.171975" stop-color="white"/>
</radialGradient>
<linearGradient id="paint6_linear_578_404" x1="218.5" y1="1" x2="218.5" y2="26" gradientUnits="userSpaceOnUse">
<stop offset="0.255208" stop-color="#DDB078"/>
<stop offset="0.598958" stop-color="#F4D6B1"/>
</linearGradient>
<radialGradient id="paint7_radial_578_404" cx="0" cy="0" r="1" gradientUnits="userSpaceOnUse" gradientTransform="translate(168.5 13.5) rotate(90) scale(12.5)">
<stop offset="0.171875"/>
<stop offset="0.171975" stop-color="white"/>
</radialGradient>
<radialGradient id="paint8_radial_578_404" cx="0" cy="0" r="1" gradientUnits="userSpaceOnUse" gradientTransform="translate(143.5 13.5) rotate(90) scale(12.5)">
<stop offset="0.171875"/>
<stop offset="0.171975" stop-color="white"/>
</radialGradient>
<linearGradient id="paint9_linear_578_404" x1="118.5" y1="1" x2="118.5" y2="26" gradientUnits="userSpaceOnUse">
<stop offset="0.255208" stop-color="#DDB078"/>
<stop offset="0.598958" stop-color="#F4D6B1"/>
</linearGradient>
<linearGradient id="paint10_linear_578_404" x1="118.5" y1="1" x2="118.5" y2="26" gradientUnits="userSpaceOnUse">
<stop offset="0.255208" stop-color="#DDB078"/>
<stop offset="0.598958" stop-color="#F4D6B1"/>
</linearGradient>
<linearGradient id="paint11_linear_578_404" x1="393.5" y1="1" x2="393.5" y2="26" gradientUnits="userSpaceOnUse">
<stop offset="0.255208" stop-color="#DDB078"/>
<stop offset="0.598958" stop-color="#F4D6B1"/>
</linearGradient>
<linearGradient id="paint12_linear_578_404" x1="293.5" y1="1" x2="293.5" y2="26" gradientUnits="userSpaceOnUse">
<stop offset="0.255208" stop-color="#DDB078"/>
<stop offset="0.598958" stop-color="#F4D6B1"/>
</linearGradient>
</defs>
</svg>
