<svg width="536" height="27" viewBox="0 0 536 27" fill="none" xmlns="http://www.w3.org/2000/svg">
<path d="M406.1 1.1H430.9V25.25C430.9 25.2654 430.893 25.2918 430.854 25.3296C430.815 25.3676 430.752 25.4091 430.663 25.4515C430.484 25.5362 430.218 25.6151 429.882 25.6823C429.212 25.8164 428.281 25.9 427.25 25.9H409.75C408.719 25.9 407.788 25.8164 407.118 25.6823C406.782 25.6151 406.516 25.5362 406.337 25.4515C406.248 25.4091 406.185 25.3676 406.146 25.3296C406.107 25.2918 406.1 25.2654 406.1 25.25V1.1Z" fill="white" stroke="black" stroke-width="0.2"/>
<path d="M419.31 10.7273V18H418.429V11.6506H418.386L416.611 12.8295V11.9347L418.429 10.7273H419.31Z" fill="black"/>
<path d="M356.1 1.1H380.9V25.25C380.9 25.2654 380.893 25.2918 380.854 25.3296C380.815 25.3676 380.752 25.4091 380.663 25.4515C380.484 25.5362 380.218 25.6151 379.882 25.6823C379.212 25.8164 378.281 25.9 377.25 25.9H359.75C358.719 25.9 357.788 25.8164 357.118 25.6823C356.782 25.6151 356.516 25.5362 356.337 25.4515C356.248 25.4091 356.185 25.3676 356.146 25.3296C356.107 25.2918 356.1 25.2654 356.1 25.25V1.1Z" fill="url(#paint0_radial_578_611)" stroke="black" stroke-width="0.2"/>
<path d="M331.1 1.1H355.9V25.25C355.9 25.2654 355.893 25.2918 355.854 25.3296C355.815 25.3676 355.752 25.4091 355.663 25.4515C355.484 25.5362 355.218 25.6151 354.882 25.6823C354.212 25.8164 353.281 25.9 352.25 25.9H334.75C333.719 25.9 332.788 25.8164 332.118 25.6823C331.782 25.6151 331.516 25.5362 331.337 25.4515C331.248 25.4091 331.185 25.3676 331.146 25.3296C331.107 25.2918 331.1 25.2654 331.1 25.25V1.1Z" fill="url(#paint1_radial_578_611)" stroke="black" stroke-width="0.2"/>
<path d="M281.1 1.1H305.9V25.25C305.9 25.2654 305.893 25.2918 305.854 25.3296C305.815 25.3676 305.752 25.4091 305.663 25.4515C305.484 25.5362 305.218 25.6151 304.882 25.6823C304.212 25.8164 303.281 25.9 302.25 25.9H284.75C283.719 25.9 282.788 25.8164 282.118 25.6823C281.782 25.6151 281.516 25.5362 281.337 25.4515C281.248 25.4091 281.185 25.3676 281.146 25.3296C281.107 25.2918 281.1 25.2654 281.1 25.25V1.1Z" fill="url(#paint2_radial_578_611)" stroke="black" stroke-width="0.2"/>
<path d="M381.1 1.1H405.9V25.25C405.9 25.2654 405.893 25.2918 405.854 25.3296C405.815 25.3676 405.752 25.4091 405.663 25.4515C405.484 25.5362 405.218 25.6151 404.882 25.6823C404.212 25.8164 403.281 25.9 402.25 25.9H384.75C383.719 25.9 382.788 25.8164 382.118 25.6823C381.782 25.6151 381.516 25.5362 381.337 25.4515C381.248 25.4091 381.185 25.3676 381.146 25.3296C381.107 25.2918 381.1 25.2654 381.1 25.25V1.1Z" fill="url(#paint3_linear_578_611)" stroke="black" stroke-width="0.2"/>
<path d="M391.98 18L395.233 11.5653V11.5085H391.483V10.7273H396.142V11.5511L392.903 18H391.98Z" fill="black"/>
<path d="M256.1 1.1H280.9V25.25C280.9 25.2654 280.893 25.2918 280.854 25.3296C280.815 25.3676 280.752 25.4091 280.663 25.4515C280.484 25.5362 280.218 25.6151 279.882 25.6823C279.212 25.8164 278.281 25.9 277.25 25.9H259.75C258.719 25.9 257.788 25.8164 257.118 25.6823C256.782 25.6151 256.516 25.5362 256.337 25.4515C256.248 25.4091 256.185 25.3676 256.146 25.3296C256.107 25.2918 256.1 25.2654 256.1 25.25V1.1Z" fill="url(#paint4_radial_578_611)" stroke="black" stroke-width="0.2"/>
<path d="M231.1 1.1H255.9V25.25C255.9 25.2654 255.893 25.2918 255.854 25.3296C255.815 25.3676 255.752 25.4091 255.663 25.4515C255.484 25.5362 255.218 25.6151 254.882 25.6823C254.212 25.8164 253.281 25.9 252.25 25.9H234.75C233.719 25.9 232.788 25.8164 232.118 25.6823C231.782 25.6151 231.516 25.5362 231.337 25.4515C231.248 25.4091 231.185 25.3676 231.146 25.3296C231.107 25.2918 231.1 25.2654 231.1 25.25V1.1Z" fill="url(#paint5_radial_578_611)" stroke="black" stroke-width="0.2"/>
<path d="M181.1 1.1H205.9V25.25C205.9 25.2654 205.893 25.2918 205.854 25.3296C205.815 25.3676 205.752 25.4091 205.663 25.4515C205.484 25.5362 205.218 25.6151 204.882 25.6823C204.212 25.8164 203.281 25.9 202.25 25.9H184.75C183.719 25.9 182.788 25.8164 182.118 25.6823C181.782 25.6151 181.516 25.5362 181.337 25.4515C181.248 25.4091 181.185 25.3676 181.146 25.3296C181.107 25.2918 181.1 25.2654 181.1 25.25V1.1Z" fill="url(#paint6_radial_578_611)" stroke="black" stroke-width="0.2"/>
<path d="M206.1 1.1H230.9V25.25C230.9 25.2654 230.893 25.2918 230.854 25.3296C230.815 25.3676 230.752 25.4091 230.663 25.4515C230.484 25.5362 230.218 25.6151 229.882 25.6823C229.212 25.8164 228.281 25.9 227.25 25.9H209.75C208.719 25.9 207.788 25.8164 207.118 25.6823C206.782 25.6151 206.516 25.5362 206.337 25.4515C206.248 25.4091 206.185 25.3676 206.146 25.3296C206.107 25.2918 206.1 25.2654 206.1 25.25V1.1Z" fill="url(#paint7_linear_578_611)" stroke="black" stroke-width="0.2"/>
<path d="M219.21 18.0994C218.741 18.0994 218.324 18.0189 217.957 17.858C217.592 17.697 217.302 17.4732 217.087 17.1868C216.874 16.898 216.758 16.563 216.739 16.1818H217.634C217.652 16.4162 217.733 16.6186 217.875 16.7891C218.017 16.9571 218.203 17.0874 218.433 17.1797C218.662 17.272 218.917 17.3182 219.196 17.3182C219.509 17.3182 219.786 17.2637 220.027 17.1548C220.268 17.0459 220.458 16.8944 220.595 16.7003C220.732 16.5062 220.801 16.2812 220.801 16.0256C220.801 15.758 220.735 15.5225 220.602 15.3189C220.47 15.1129 220.276 14.9519 220.02 14.8359C219.764 14.7199 219.452 14.6619 219.082 14.6619H218.5V13.8807H219.082C219.371 13.8807 219.625 13.8286 219.842 13.7244C220.063 13.6203 220.234 13.4735 220.357 13.2841C220.483 13.0947 220.545 12.8722 220.545 12.6165C220.545 12.3703 220.491 12.156 220.382 11.9737C220.273 11.7914 220.119 11.6494 219.92 11.5476C219.724 11.4458 219.492 11.3949 219.224 11.3949C218.973 11.3949 218.737 11.4411 218.514 11.5334C218.294 11.6233 218.114 11.7547 217.974 11.9276C217.835 12.098 217.759 12.304 217.747 12.5455H216.895C216.909 12.1643 217.024 11.8305 217.239 11.544C217.455 11.2552 217.737 11.0303 218.085 10.8693C218.435 10.7083 218.82 10.6278 219.239 10.6278C219.688 10.6278 220.074 10.719 220.396 10.9013C220.718 11.0812 220.966 11.3191 221.138 11.6151C221.311 11.911 221.398 12.2306 221.398 12.5739C221.398 12.9834 221.29 13.3326 221.075 13.6214C220.862 13.9103 220.571 14.1103 220.205 14.2216V14.2784C220.664 14.3542 221.022 14.5495 221.281 14.8643C221.539 15.1768 221.668 15.5639 221.668 16.0256C221.668 16.4209 221.56 16.776 221.344 17.0909C221.131 17.4034 220.84 17.6496 220.471 17.8295C220.102 18.0095 219.681 18.0994 219.21 18.0994Z" fill="black"/>
<path d="M306.1 1.1H330.9V25.25C330.9 25.2654 330.893 25.2918 330.854 25.3296C330.815 25.3676 330.752 25.4091 330.663 25.4515C330.484 25.5362 330.218 25.6151 329.882 25.6823C329.212 25.8164 328.281 25.9 327.25 25.9H309.75C308.719 25.9 307.788 25.8164 307.118 25.6823C306.782 25.6151 306.516 25.5362 306.337 25.4515C306.248 25.4091 306.185 25.3676 306.146 25.3296C306.107 25.2918 306.1 25.2654 306.1 25.25V1.1Z" fill="url(#paint8_linear_578_611)" stroke="black" stroke-width="0.2"/>
<path d="M315.026 12.0994C314.609 12.0994 314.234 12.0166 313.9 11.8509C313.566 11.6851 313.299 11.4579 313.097 11.169C312.896 10.8802 312.786 10.5511 312.767 10.1818H313.619C313.652 10.5109 313.802 10.7831 314.067 10.9986C314.334 11.2116 314.654 11.3182 315.026 11.3182C315.324 11.3182 315.589 11.2483 315.821 11.1087C316.055 10.969 316.239 10.7772 316.371 10.5334C316.506 10.2872 316.574 10.009 316.574 9.69886C316.574 9.38163 316.504 9.09872 316.364 8.85014C316.227 8.5992 316.038 8.40152 315.796 8.2571C315.555 8.11269 315.279 8.0393 314.969 8.03693C314.746 8.03456 314.518 8.06889 314.283 8.13991C314.049 8.20857 313.856 8.29735 313.705 8.40625L312.881 8.30682L313.321 4.72727H317.099V5.50852H314.06L313.804 7.65341H313.847C313.996 7.53504 314.183 7.43679 314.408 7.35866C314.633 7.28054 314.867 7.24148 315.111 7.24148C315.556 7.24148 315.952 7.34801 316.3 7.56108C316.651 7.77178 316.925 8.06061 317.124 8.42756C317.326 8.79451 317.426 9.21354 317.426 9.68466C317.426 10.1487 317.322 10.563 317.114 10.9276C316.908 11.2898 316.624 11.5762 316.261 11.7869C315.899 11.9953 315.487 12.0994 315.026 12.0994Z" fill="black"/>
<path d="M311.249 8.91L310.001 9.326V7.077L311.249 6.661V8.91ZM311.249 3.528V5.478L310.001 5.894V3.944H309.676V5.985L309 6.206V7.389L309.676 7.168V9.417L309 9.638V10.821L309.676 10.6V12.459H310.001V10.509L311.249 10.093V12.043H311.574V10.002L312.25 9.781V8.598L311.574 8.819V6.57L312.25 6.349V5.166L311.574 5.387V3.528H311.249Z" fill="black"/>
<path d="M326.168 23.0994C325.869 23.0947 325.571 23.0379 325.273 22.929C324.974 22.8201 324.702 22.6366 324.456 22.3786C324.21 22.1181 324.012 21.7666 323.863 21.3239C323.714 20.8788 323.639 20.3201 323.639 19.6477C323.639 19.0038 323.7 18.4332 323.82 17.9361C323.941 17.4366 324.116 17.0163 324.346 16.6754C324.576 16.3321 324.853 16.0717 325.177 15.8942C325.504 15.7166 325.872 15.6278 326.281 15.6278C326.688 15.6278 327.051 15.7095 327.368 15.8729C327.688 16.0339 327.948 16.2588 328.149 16.5476C328.35 16.8364 328.481 17.169 328.54 17.5455H327.673C327.593 17.2187 327.437 16.9477 327.205 16.7322C326.973 16.5168 326.665 16.4091 326.281 16.4091C325.718 16.4091 325.274 16.6541 324.95 17.1442C324.628 17.6342 324.465 18.322 324.463 19.2074H324.52C324.652 19.0062 324.81 18.8345 324.992 18.6925C325.177 18.5481 325.38 18.4368 325.603 18.3587C325.826 18.2805 326.061 18.2415 326.31 18.2415C326.726 18.2415 327.107 18.3456 327.453 18.554C327.799 18.7599 328.076 19.0452 328.284 19.4098C328.492 19.772 328.597 20.1875 328.597 20.6562C328.597 21.1061 328.496 21.518 328.295 21.892C328.094 22.2637 327.811 22.5597 327.446 22.7798C327.084 22.9976 326.658 23.1042 326.168 23.0994ZM326.168 22.3182C326.466 22.3182 326.733 22.2436 326.97 22.0945C327.209 21.9453 327.397 21.7453 327.535 21.4943C327.674 21.2434 327.744 20.964 327.744 20.6562C327.744 20.3556 327.677 20.0821 327.542 19.8359C327.409 19.5874 327.226 19.3897 326.991 19.2429C326.759 19.0961 326.494 19.0227 326.196 19.0227C325.971 19.0227 325.762 19.0677 325.567 19.1577C325.373 19.2453 325.203 19.366 325.056 19.5199C324.912 19.6738 324.798 19.8501 324.715 20.049C324.632 20.2455 324.591 20.4527 324.591 20.6705C324.591 20.9593 324.658 21.2292 324.793 21.4801C324.931 21.7311 325.118 21.9335 325.354 22.0874C325.594 22.2412 325.865 22.3182 326.168 22.3182Z" fill="black"/>
<path d="M320 23.379L321.833 22.027C322.639 21.442 322.951 20.779 322.977 20.285C322.977 19.557 322.314 19.011 321.534 19.011C320.988 19.011 320.585 19.219 320.325 19.648L320.416 15.553H320V23.379ZM321.209 19.531C321.625 19.531 321.937 19.83 321.937 20.233C321.937 20.909 321.04 22.209 320.364 22.638C320.325 22.417 320.299 21.988 320.299 21.351C320.299 21 320.325 20.571 320.377 20.077C320.572 19.713 320.845 19.531 321.209 19.531Z" fill="black"/>
<path d="M156.1 1.1H180.9V25.25C180.9 25.2654 180.893 25.2918 180.854 25.3296C180.815 25.3676 180.752 25.4091 180.663 25.4515C180.484 25.5362 180.218 25.6151 179.882 25.6823C179.212 25.8164 178.281 25.9 177.25 25.9H159.75C158.719 25.9 157.788 25.8164 157.118 25.6823C156.782 25.6151 156.516 25.5362 156.337 25.4515C156.248 25.4091 156.185 25.3676 156.146 25.3296C156.107 25.2918 156.1 25.2654 156.1 25.25V1.1Z" fill="url(#paint9_radial_578_611)" stroke="black" stroke-width="0.2"/>
<path d="M131.1 1.1H155.9V25.25C155.9 25.2654 155.893 25.2918 155.854 25.3296C155.815 25.3676 155.752 25.4091 155.663 25.4515C155.484 25.5362 155.218 25.6151 154.882 25.6823C154.212 25.8164 153.281 25.9 152.25 25.9H134.75C133.719 25.9 132.788 25.8164 132.118 25.6823C131.782 25.6151 131.516 25.5362 131.337 25.4515C131.248 25.4091 131.185 25.3676 131.146 25.3296C131.107 25.2918 131.1 25.2654 131.1 25.25V1.1Z" fill="url(#paint10_radial_578_611)" stroke="black" stroke-width="0.2"/>
<path d="M106.1 1.1H130.9V25.25C130.9 25.2654 130.893 25.2918 130.854 25.3296C130.815 25.3676 130.752 25.4091 130.663 25.4515C130.484 25.5362 130.218 25.6151 129.882 25.6823C129.212 25.8164 128.281 25.9 127.25 25.9H109.75C108.719 25.9 107.788 25.8164 107.118 25.6823C106.782 25.6151 106.516 25.5362 106.337 25.4515C106.248 25.4091 106.185 25.3676 106.146 25.3296C106.107 25.2918 106.1 25.2654 106.1 25.25V1.1Z" fill="url(#paint11_linear_578_611)" stroke="black" stroke-width="0.2"/>
<path d="M106.1 1.1H130.9V25.25C130.9 25.2654 130.893 25.2918 130.854 25.3296C130.815 25.3676 130.752 25.4091 130.663 25.4515C130.484 25.5362 130.218 25.6151 129.882 25.6823C129.212 25.8164 128.281 25.9 127.25 25.9H109.75C108.719 25.9 107.788 25.8164 107.118 25.6823C106.782 25.6151 106.516 25.5362 106.337 25.4515C106.248 25.4091 106.185 25.3676 106.146 25.3296C106.107 25.2918 106.1 25.2654 106.1 25.25V1.1Z" fill="url(#paint12_linear_578_611)" stroke="black" stroke-width="0.2"/>
<path d="M119.31 10.7273V18H118.429V11.6506H118.386L116.611 12.8295V11.9347L118.429 10.7273H119.31Z" fill="black"/>
<path d="M444.5 1.5H535.5V24.94C535.348 24.9739 535.133 25.0099 534.852 25.046C534.172 25.1334 533.176 25.2134 531.931 25.2811C529.445 25.4162 526.005 25.5 522.2 25.5H457.8C453.995 25.5 450.555 25.4162 448.069 25.2811C446.824 25.2134 445.828 25.1334 445.148 25.046C444.867 25.0099 444.652 24.9739 444.5 24.94V1.5Z" fill="white" stroke="#D6A86F"/>
<path d="M454.881 12V4.72727H459.27V5.50852H455.761V7.78125H457.608C458.129 7.78125 458.568 7.86648 458.925 8.03693C459.285 8.20739 459.558 8.44768 459.742 8.75781C459.929 9.06795 460.023 9.43371 460.023 9.85511C460.023 10.2765 459.929 10.6482 459.742 10.9702C459.558 11.2921 459.285 11.5443 458.925 11.7266C458.568 11.9089 458.129 12 457.608 12H454.881ZM455.761 11.233H457.608C457.939 11.233 458.22 11.1667 458.45 11.0341C458.682 10.8991 458.857 10.7263 458.975 10.5156C459.096 10.3026 459.156 10.0777 459.156 9.84091C459.156 9.4929 459.022 9.19342 458.755 8.94247C458.487 8.68916 458.105 8.5625 457.608 8.5625H455.761V11.233ZM463.802 12.0994C463.333 12.0994 462.915 12.0189 462.548 11.858C462.184 11.697 461.894 11.4732 461.678 11.1868C461.465 10.898 461.349 10.563 461.33 10.1818H462.225C462.244 10.4162 462.325 10.6186 462.467 10.7891C462.609 10.9571 462.795 11.0874 463.024 11.1797C463.254 11.272 463.508 11.3182 463.788 11.3182C464.1 11.3182 464.377 11.2637 464.619 11.1548C464.86 11.0459 465.05 10.8944 465.187 10.7003C465.324 10.5062 465.393 10.2812 465.393 10.0256C465.393 9.75805 465.327 9.52249 465.194 9.31889C465.061 9.11293 464.867 8.95194 464.612 8.83594C464.356 8.71993 464.044 8.66193 463.674 8.66193H463.092V7.88068H463.674C463.963 7.88068 464.216 7.8286 464.434 7.72443C464.654 7.62026 464.826 7.47348 464.949 7.28409C465.075 7.0947 465.137 6.87216 465.137 6.61648C465.137 6.37026 465.083 6.15601 464.974 5.97372C464.865 5.79143 464.711 5.64938 464.512 5.54759C464.316 5.44579 464.084 5.39489 463.816 5.39489C463.565 5.39489 463.329 5.44105 463.106 5.53338C462.886 5.62334 462.706 5.75473 462.566 5.92756C462.427 6.09801 462.351 6.30398 462.339 6.54545H461.487C461.501 6.1643 461.616 5.83049 461.831 5.54403C462.047 5.25521 462.328 5.0303 462.676 4.86932C463.027 4.70833 463.411 4.62784 463.83 4.62784C464.28 4.62784 464.666 4.71899 464.988 4.90128C465.31 5.0812 465.557 5.31913 465.73 5.61506C465.903 5.91098 465.99 6.23059 465.99 6.57386C465.99 6.98343 465.882 7.33262 465.666 7.62145C465.453 7.91027 465.163 8.11032 464.796 8.22159V8.27841C465.256 8.35417 465.614 8.54948 465.872 8.86435C466.13 9.17685 466.259 9.56392 466.259 10.0256C466.259 10.4209 466.152 10.776 465.936 11.0909C465.723 11.4034 465.432 11.6496 465.063 11.8295C464.693 12.0095 464.273 12.0994 463.802 12.0994ZM469.857 10.7216V6.03409H470.652V10.7216H469.857ZM467.911 8.77557V7.98011H472.598V8.77557H467.911ZM474.431 12V4.72727H478.821V5.50852H475.312V7.78125H477.159C477.68 7.78125 478.119 7.86648 478.476 8.03693C478.836 8.20739 479.108 8.44768 479.293 8.75781C479.48 9.06795 479.574 9.43371 479.574 9.85511C479.574 10.2765 479.48 10.6482 479.293 10.9702C479.108 11.2921 478.836 11.5443 478.476 11.7266C478.119 11.9089 477.68 12 477.159 12H474.431ZM475.312 11.233H477.159C477.49 11.233 477.771 11.1667 478 11.0341C478.232 10.8991 478.408 10.7263 478.526 10.5156C478.647 10.3026 478.707 10.0777 478.707 9.84091C478.707 9.4929 478.573 9.19342 478.306 8.94247C478.038 8.68916 477.656 8.5625 477.159 8.5625H475.312V11.233ZM483.353 12.0994C482.884 12.0994 482.466 12.0189 482.099 11.858C481.735 11.697 481.445 11.4732 481.229 11.1868C481.016 10.898 480.9 10.563 480.881 10.1818H481.776C481.795 10.4162 481.876 10.6186 482.018 10.7891C482.16 10.9571 482.345 11.0874 482.575 11.1797C482.805 11.272 483.059 11.3182 483.339 11.3182C483.651 11.3182 483.928 11.2637 484.17 11.1548C484.411 11.0459 484.6 10.8944 484.738 10.7003C484.875 10.5062 484.944 10.2812 484.944 10.0256C484.944 9.75805 484.877 9.52249 484.745 9.31889C484.612 9.11293 484.418 8.95194 484.162 8.83594C483.907 8.71993 483.594 8.66193 483.225 8.66193H482.643V7.88068H483.225C483.514 7.88068 483.767 7.8286 483.985 7.72443C484.205 7.62026 484.377 7.47348 484.5 7.28409C484.625 7.0947 484.688 6.87216 484.688 6.61648C484.688 6.37026 484.634 6.15601 484.525 5.97372C484.416 5.79143 484.262 5.64938 484.063 5.54759C483.867 5.44579 483.635 5.39489 483.367 5.39489C483.116 5.39489 482.879 5.44105 482.657 5.53338C482.437 5.62334 482.257 5.75473 482.117 5.92756C481.977 6.09801 481.902 6.30398 481.89 6.54545H481.037C481.052 6.1643 481.166 5.83049 481.382 5.54403C481.597 5.25521 481.879 5.0303 482.227 4.86932C482.577 4.70833 482.962 4.62784 483.381 4.62784C483.831 4.62784 484.217 4.71899 484.539 4.90128C484.861 5.0812 485.108 5.31913 485.281 5.61506C485.454 5.91098 485.54 6.23059 485.54 6.57386C485.54 6.98343 485.433 7.33262 485.217 7.62145C485.004 7.91027 484.714 8.11032 484.347 8.22159V8.27841C484.806 8.35417 485.165 8.54948 485.423 8.86435C485.681 9.17685 485.81 9.56392 485.81 10.0256C485.81 10.4209 485.702 10.776 485.487 11.0909C485.274 11.4034 484.983 11.6496 484.613 11.8295C484.244 12.0095 483.824 12.0994 483.353 12.0994ZM489.407 11.5028V6.81534H490.203V11.5028H489.407ZM487.461 9.55682V8.76136H492.149V9.55682H487.461ZM496.852 10.8636L498.755 6.54545H499.55L497.192 12H496.511L494.195 6.54545H494.977L496.852 10.8636ZM494.707 6.54545V12H493.869V6.54545H494.707ZM498.996 12V6.54545H499.835V12H498.996ZM503.812 12.0994C503.343 12.0994 502.925 12.0189 502.558 11.858C502.194 11.697 501.904 11.4732 501.688 11.1868C501.475 10.898 501.359 10.563 501.34 10.1818H502.235C502.254 10.4162 502.335 10.6186 502.477 10.7891C502.619 10.9571 502.804 11.0874 503.034 11.1797C503.264 11.272 503.518 11.3182 503.798 11.3182C504.11 11.3182 504.387 11.2637 504.629 11.1548C504.87 11.0459 505.059 10.8944 505.197 10.7003C505.334 10.5062 505.403 10.2812 505.403 10.0256C505.403 9.75805 505.336 9.52249 505.204 9.31889C505.071 9.11293 504.877 8.95194 504.621 8.83594C504.366 8.71993 504.053 8.66193 503.684 8.66193H503.102V7.88068H503.684C503.973 7.88068 504.226 7.8286 504.444 7.72443C504.664 7.62026 504.836 7.47348 504.959 7.28409C505.084 7.0947 505.147 6.87216 505.147 6.61648C505.147 6.37026 505.093 6.15601 504.984 5.97372C504.875 5.79143 504.721 5.64938 504.522 5.54759C504.326 5.44579 504.094 5.39489 503.826 5.39489C503.575 5.39489 503.338 5.44105 503.116 5.53338C502.896 5.62334 502.716 5.75473 502.576 5.92756C502.436 6.09801 502.361 6.30398 502.349 6.54545H501.496C501.511 6.1643 501.625 5.83049 501.841 5.54403C502.056 5.25521 502.338 5.0303 502.686 4.86932C503.036 4.70833 503.421 4.62784 503.84 4.62784C504.29 4.62784 504.676 4.71899 504.998 4.90128C505.32 5.0812 505.567 5.31913 505.74 5.61506C505.913 5.91098 505.999 6.23059 505.999 6.57386C505.999 6.98343 505.892 7.33262 505.676 7.62145C505.463 7.91027 505.173 8.11032 504.806 8.22159V8.27841C505.265 8.35417 505.624 8.54948 505.882 8.86435C506.14 9.17685 506.269 9.56392 506.269 10.0256C506.269 10.4209 506.161 10.776 505.946 11.0909C505.733 11.4034 505.442 11.6496 505.072 11.8295C504.703 12.0095 504.283 12.0994 503.812 12.0994ZM508.077 7.69602V6.92898H512.452V7.69602H508.077ZM508.077 9.7983V9.03125H512.452V9.7983H508.077ZM514.441 12V4.72727H518.83V5.50852H515.322V7.78125H517.169C517.689 7.78125 518.128 7.86648 518.486 8.03693C518.846 8.20739 519.118 8.44768 519.303 8.75781C519.49 9.06795 519.583 9.43371 519.583 9.85511C519.583 10.2765 519.49 10.6482 519.303 10.9702C519.118 11.2921 518.846 11.5443 518.486 11.7266C518.128 11.9089 517.689 12 517.169 12H514.441ZM515.322 11.233H517.169C517.5 11.233 517.78 11.1667 518.01 11.0341C518.242 10.8991 518.417 10.7263 518.536 10.5156C518.656 10.3026 518.717 10.0777 518.717 9.84091C518.717 9.4929 518.583 9.19342 518.316 8.94247C518.048 8.68916 517.666 8.5625 517.169 8.5625H515.322V11.233ZM521.132 12L524.385 5.56534V5.50852H520.635V4.72727H525.294V5.55114L522.056 12H521.132Z" fill="black"/>
<path d="M467.75 20.8636L469.653 16.5455H470.449L468.091 22H467.409L465.094 16.5455H465.875L467.75 20.8636ZM465.605 16.5455V22H464.767V16.5455H465.605ZM469.895 22V16.5455H470.733V22H469.895ZM474.668 22.0994C474.369 22.0947 474.071 22.0379 473.773 21.929C473.474 21.8201 473.202 21.6366 472.956 21.3786C472.71 21.1181 472.512 20.7666 472.363 20.3239C472.214 19.8788 472.139 19.3201 472.139 18.6477C472.139 18.0038 472.2 17.4332 472.32 16.9361C472.441 16.4366 472.616 16.0163 472.846 15.6754C473.076 15.3321 473.353 15.0717 473.677 14.8942C474.004 14.7166 474.372 14.6278 474.781 14.6278C475.188 14.6278 475.551 14.7095 475.868 14.8729C476.188 15.0339 476.448 15.2588 476.649 15.5476C476.85 15.8364 476.981 16.169 477.04 16.5455H476.173C476.093 16.2187 475.937 15.9477 475.705 15.7322C475.473 15.5168 475.165 15.4091 474.781 15.4091C474.218 15.4091 473.774 15.6541 473.45 16.1442C473.128 16.6342 472.965 17.322 472.963 18.2074H473.02C473.152 18.0062 473.31 17.8345 473.492 17.6925C473.677 17.5481 473.88 17.4368 474.103 17.3587C474.326 17.2805 474.561 17.2415 474.81 17.2415C475.226 17.2415 475.607 17.3456 475.953 17.554C476.299 17.7599 476.576 18.0452 476.784 18.4098C476.992 18.772 477.097 19.1875 477.097 19.6562C477.097 20.1061 476.996 20.518 476.795 20.892C476.594 21.2637 476.311 21.5597 475.946 21.7798C475.584 21.9976 475.158 22.1042 474.668 22.0994ZM474.668 21.3182C474.966 21.3182 475.233 21.2436 475.47 21.0945C475.709 20.9453 475.897 20.7453 476.035 20.4943C476.174 20.2434 476.244 19.964 476.244 19.6562C476.244 19.3556 476.177 19.0821 476.042 18.8359C475.909 18.5874 475.726 18.3897 475.491 18.2429C475.259 18.0961 474.994 18.0227 474.696 18.0227C474.471 18.0227 474.262 18.0677 474.067 18.1577C473.873 18.2453 473.703 18.366 473.556 18.5199C473.412 18.6738 473.298 18.8501 473.215 19.049C473.132 19.2455 473.091 19.4527 473.091 19.6705C473.091 19.9593 473.158 20.2292 473.293 20.4801C473.431 20.7311 473.618 20.9335 473.854 21.0874C474.094 21.2412 474.365 21.3182 474.668 21.3182Z" fill="black"/>
<path d="M488.972 16.5455V22H488.134V16.5455H488.972ZM488.645 19.1449V19.9261C488.455 19.9972 488.267 20.0599 488.08 20.1143C487.893 20.1664 487.697 20.2079 487.491 20.2386C487.285 20.267 487.059 20.2812 486.812 20.2812C486.195 20.2812 485.699 20.1143 485.325 19.7805C484.953 19.4467 484.767 18.946 484.767 18.2784V16.5312H485.605V18.2784C485.605 18.5578 485.658 18.7874 485.765 18.9673C485.871 19.1473 486.016 19.281 486.198 19.3686C486.38 19.4562 486.585 19.5 486.812 19.5C487.168 19.5 487.488 19.468 487.775 19.4041C488.064 19.3378 488.354 19.2514 488.645 19.1449ZM492.768 22.0994C492.351 22.0994 491.976 22.0166 491.642 21.8509C491.308 21.6851 491.041 21.4579 490.839 21.169C490.638 20.8802 490.528 20.5511 490.509 20.1818H491.362C491.395 20.5109 491.544 20.7831 491.809 20.9986C492.076 21.2116 492.396 21.3182 492.768 21.3182C493.066 21.3182 493.331 21.2483 493.563 21.1087C493.798 20.969 493.981 20.7772 494.114 20.5334C494.249 20.2872 494.316 20.009 494.316 19.6989C494.316 19.3816 494.246 19.0987 494.107 18.8501C493.969 18.5992 493.78 18.4015 493.538 18.2571C493.297 18.1127 493.021 18.0393 492.711 18.0369C492.488 18.0346 492.26 18.0689 492.026 18.1399C491.791 18.2086 491.598 18.2973 491.447 18.4062L490.623 18.3068L491.063 14.7273H494.842V15.5085H491.802L491.546 17.6534H491.589C491.738 17.535 491.925 17.4368 492.15 17.3587C492.375 17.2805 492.609 17.2415 492.853 17.2415C493.298 17.2415 493.695 17.348 494.043 17.5611C494.393 17.7718 494.668 18.0606 494.866 18.4276C495.068 18.7945 495.168 19.2135 495.168 19.6847C495.168 20.1487 495.064 20.563 494.856 20.9276C494.65 21.2898 494.366 21.5762 494.004 21.7869C493.641 21.9953 493.229 22.0994 492.768 22.0994Z" fill="black"/>
<path d="M1 1H93V25.25C93 25.6642 86.8215 26 79.2 26H14.8C7.17847 26 1 25.6642 1 25.25V1Z" fill="white" stroke="#D6A86F" stroke-miterlimit="16"/>
<path d="M42.7953 19H40.9593L37.5573 13.42L34.1013 19H32.3913L36.6573 12.304L32.6613 6.148H34.4613L37.6113 11.188L40.7793 6.148H42.4893L38.5113 12.268L42.7953 19ZM50.7862 13.42L46.8262 5.824L42.8662 13.42H50.7862ZM44.6662 12.34L46.8262 7.984L48.9862 12.34H44.6662ZM56.1931 10.864L54.1051 11.53V7.75L56.1931 7.048V10.864ZM56.1931 1.828V5.068L54.1051 5.788V2.512H53.5651V5.932L52.3411 6.328V8.308L53.5651 7.912V11.692L52.3411 12.088V14.068L53.5651 13.672V16.768H54.1051V13.492L56.1931 12.808V16.084H56.7331V12.664L57.9931 12.268V10.288L56.7331 10.684V6.904L57.9931 6.508V4.528L56.7331 4.924V1.828H56.1931ZM64.3527 5.824L64.1727 5.68C64.0827 5.896 63.7947 6.004 63.3087 6.004H61.0767L59.6727 9.172C62.0307 9.37 63.2007 10.288 63.2007 11.944C63.2007 12.952 62.5347 14.068 61.6167 14.068C61.1847 14.068 59.9607 13.204 59.8527 13.204C59.5107 13.204 59.2407 13.474 59.2407 13.816C59.2407 14.284 59.9607 14.572 60.7527 14.572C62.6967 14.572 64.0647 13.258 64.0647 11.332C64.0647 9.514 62.9307 8.434 60.6807 8.128L61.1847 7.012H63.7767L64.3527 5.824Z" fill="black"/>
<defs>
<radialGradient id="paint0_radial_578_611" cx="0" cy="0" r="1" gradientUnits="userSpaceOnUse" gradientTransform="translate(368.5 13.5) rotate(90) scale(12.5)">
<stop offset="0.171875"/>
<stop offset="0.171975" stop-color="white"/>
</radialGradient>
<radialGradient id="paint1_radial_578_611" cx="0" cy="0" r="1" gradientUnits="userSpaceOnUse" gradientTransform="translate(343.5 13.5) rotate(90) scale(12.5)">
<stop offset="0.171875"/>
<stop offset="0.171975" stop-color="white"/>
</radialGradient>
<radialGradient id="paint2_radial_578_611" cx="0" cy="0" r="1" gradientUnits="userSpaceOnUse" gradientTransform="translate(293.5 13.5) rotate(90) scale(12.5)">
<stop offset="0.171875"/>
<stop offset="0.171975" stop-color="white"/>
</radialGradient>
<linearGradient id="paint3_linear_578_611" x1="393.5" y1="1" x2="393.5" y2="26" gradientUnits="userSpaceOnUse">
<stop offset="0.255208" stop-color="#DDB078"/>
<stop offset="0.598958" stop-color="#F4D6B1"/>
</linearGradient>
<radialGradient id="paint4_radial_578_611" cx="0" cy="0" r="1" gradientUnits="userSpaceOnUse" gradientTransform="translate(268.5 13.5) rotate(90) scale(12.5)">
<stop offset="0.171875"/>
<stop offset="0.171975" stop-color="white"/>
</radialGradient>
<radialGradient id="paint5_radial_578_611" cx="0" cy="0" r="1" gradientUnits="userSpaceOnUse" gradientTransform="translate(243.5 13.5) rotate(90) scale(12.5)">
<stop offset="0.171875"/>
<stop offset="0.171975" stop-color="white"/>
</radialGradient>
<radialGradient id="paint6_radial_578_611" cx="0" cy="0" r="1" gradientUnits="userSpaceOnUse" gradientTransform="translate(193.5 13.5) rotate(90) scale(12.5)">
<stop offset="0.171875"/>
<stop offset="0.171975" stop-color="white"/>
</radialGradient>
<linearGradient id="paint7_linear_578_611" x1="218.5" y1="1" x2="218.5" y2="26" gradientUnits="userSpaceOnUse">
<stop offset="0.255208" stop-color="#DDB078"/>
<stop offset="0.598958" stop-color="#F4D6B1"/>
</linearGradient>
<linearGradient id="paint8_linear_578_611" x1="318.5" y1="1" x2="318.5" y2="26" gradientUnits="userSpaceOnUse">
<stop offset="0.255208" stop-color="#DDB078"/>
<stop offset="0.598958" stop-color="#F4D6B1"/>
</linearGradient>
<radialGradient id="paint9_radial_578_611" cx="0" cy="0" r="1" gradientUnits="userSpaceOnUse" gradientTransform="translate(168.5 13.5) rotate(90) scale(12.5)">
<stop offset="0.171875"/>
<stop offset="0.171975" stop-color="white"/>
</radialGradient>
<radialGradient id="paint10_radial_578_611" cx="0" cy="0" r="1" gradientUnits="userSpaceOnUse" gradientTransform="translate(143.5 13.5) rotate(90) scale(12.5)">
<stop offset="0.171875"/>
<stop offset="0.171975" stop-color="white"/>
</radialGradient>
<linearGradient id="paint11_linear_578_611" x1="118.5" y1="1" x2="118.5" y2="26" gradientUnits="userSpaceOnUse">
<stop offset="0.255208" stop-color="#DDB078"/>
<stop offset="0.598958" stop-color="#F4D6B1"/>
</linearGradient>
<linearGradient id="paint12_linear_578_611" x1="118.5" y1="1" x2="118.5" y2="26" gradientUnits="userSpaceOnUse">
<stop offset="0.255208" stop-color="#DDB078"/>
<stop offset="0.598958" stop-color="#F4D6B1"/>
</linearGradient>
</defs>
</svg>
