<svg width="536" height="27" viewBox="0 0 536 27" fill="none" xmlns="http://www.w3.org/2000/svg">
<path d="M406.1 1.1H430.9V25.25C430.9 25.2654 430.893 25.2918 430.854 25.3296C430.815 25.3676 430.752 25.4091 430.663 25.4515C430.484 25.5362 430.218 25.6151 429.882 25.6823C429.212 25.8164 428.281 25.9 427.25 25.9H409.75C408.719 25.9 407.788 25.8164 407.118 25.6823C406.782 25.6151 406.516 25.5362 406.337 25.4515C406.248 25.4091 406.185 25.3676 406.146 25.3296C406.107 25.2918 406.1 25.2654 406.1 25.25V1.1Z" fill="white" stroke="black" stroke-width="0.2"/>
<path d="M419.31 10.7273V18H418.429V11.6506H418.386L416.611 12.8295V11.9347L418.429 10.7273H419.31Z" fill="black"/>
<path d="M356.1 1.1H380.9V25.25C380.9 25.2654 380.893 25.2918 380.854 25.3296C380.815 25.3676 380.752 25.4091 380.663 25.4515C380.484 25.5362 380.218 25.6151 379.882 25.6823C379.212 25.8164 378.281 25.9 377.25 25.9H359.75C358.719 25.9 357.788 25.8164 357.118 25.6823C356.782 25.6151 356.516 25.5362 356.337 25.4515C356.248 25.4091 356.185 25.3676 356.146 25.3296C356.107 25.2918 356.1 25.2654 356.1 25.25V1.1Z" fill="url(#paint0_radial_1083_511)" stroke="black" stroke-width="0.2"/>
<path d="M381.1 1.1H405.9V25.25C405.9 25.2654 405.893 25.2918 405.854 25.3296C405.815 25.3676 405.752 25.4091 405.663 25.4515C405.484 25.5362 405.218 25.6151 404.882 25.6823C404.212 25.8164 403.281 25.9 402.25 25.9H384.75C383.719 25.9 382.788 25.8164 382.118 25.6823C381.782 25.6151 381.516 25.5362 381.337 25.4515C381.248 25.4091 381.185 25.3676 381.146 25.3296C381.107 25.2918 381.1 25.2654 381.1 25.25V1.1Z" fill="url(#paint1_radial_1083_511)" stroke="black" stroke-width="0.2"/>
<path d="M331.1 1.1H355.9V25.25C355.9 25.2654 355.893 25.2918 355.854 25.3296C355.815 25.3676 355.752 25.4091 355.663 25.4515C355.484 25.5362 355.218 25.6151 354.882 25.6823C354.212 25.8164 353.281 25.9 352.25 25.9H334.75C333.719 25.9 332.788 25.8164 332.118 25.6823C331.782 25.6151 331.516 25.5362 331.337 25.4515C331.248 25.4091 331.185 25.3676 331.146 25.3296C331.107 25.2918 331.1 25.2654 331.1 25.25V1.1Z" fill="url(#paint2_radial_1083_511)" stroke="black" stroke-width="0.2"/>
<path d="M306.1 1.1H330.9V25.25C330.9 25.2654 330.893 25.2918 330.854 25.3296C330.815 25.3676 330.752 25.4091 330.663 25.4515C330.484 25.5362 330.218 25.6151 329.882 25.6823C329.212 25.8164 328.281 25.9 327.25 25.9H309.75C308.719 25.9 307.788 25.8164 307.118 25.6823C306.782 25.6151 306.516 25.5362 306.337 25.4515C306.248 25.4091 306.185 25.3676 306.146 25.3296C306.107 25.2918 306.1 25.2654 306.1 25.25V1.1Z" fill="url(#paint3_radial_1083_511)" stroke="black" stroke-width="0.2"/>
<path d="M256.1 1.1H280.9V25.25C280.9 25.2654 280.893 25.2918 280.854 25.3296C280.815 25.3676 280.752 25.4091 280.663 25.4515C280.484 25.5362 280.218 25.6151 279.882 25.6823C279.212 25.8164 278.281 25.9 277.25 25.9H259.75C258.719 25.9 257.788 25.8164 257.118 25.6823C256.782 25.6151 256.516 25.5362 256.337 25.4515C256.248 25.4091 256.185 25.3676 256.146 25.3296C256.107 25.2918 256.1 25.2654 256.1 25.25V1.1Z" fill="url(#paint4_radial_1083_511)" stroke="black" stroke-width="0.2"/>
<path d="M231.1 1.1H255.9V25.25C255.9 25.2654 255.893 25.2918 255.854 25.3296C255.815 25.3676 255.752 25.4091 255.663 25.4515C255.484 25.5362 255.218 25.6151 254.882 25.6823C254.212 25.8164 253.281 25.9 252.25 25.9H234.75C233.719 25.9 232.788 25.8164 232.118 25.6823C231.782 25.6151 231.516 25.5362 231.337 25.4515C231.248 25.4091 231.185 25.3676 231.146 25.3296C231.107 25.2918 231.1 25.2654 231.1 25.25V1.1Z" fill="url(#paint5_radial_1083_511)" stroke="black" stroke-width="0.2"/>
<path d="M181.1 1.1H205.9V25.25C205.9 25.2654 205.893 25.2918 205.854 25.3296C205.815 25.3676 205.752 25.4091 205.663 25.4515C205.484 25.5362 205.218 25.6151 204.882 25.6823C204.212 25.8164 203.281 25.9 202.25 25.9H184.75C183.719 25.9 182.788 25.8164 182.118 25.6823C181.782 25.6151 181.516 25.5362 181.337 25.4515C181.248 25.4091 181.185 25.3676 181.146 25.3296C181.107 25.2918 181.1 25.2654 181.1 25.25V1.1Z" fill="url(#paint6_radial_1083_511)" stroke="black" stroke-width="0.2"/>
<path d="M206.1 1.1H230.9V25.25C230.9 25.2654 230.893 25.2918 230.854 25.3296C230.815 25.3676 230.752 25.4091 230.663 25.4515C230.484 25.5362 230.218 25.6151 229.882 25.6823C229.212 25.8164 228.281 25.9 227.25 25.9H209.75C208.719 25.9 207.788 25.8164 207.118 25.6823C206.782 25.6151 206.516 25.5362 206.337 25.4515C206.248 25.4091 206.185 25.3676 206.146 25.3296C206.107 25.2918 206.1 25.2654 206.1 25.25V1.1Z" fill="url(#paint7_linear_1083_511)" stroke="black" stroke-width="0.2"/>
<path d="M219.21 18.0994C218.741 18.0994 218.324 18.0189 217.957 17.858C217.592 17.697 217.302 17.4732 217.087 17.1868C216.874 16.898 216.758 16.563 216.739 16.1818H217.634C217.652 16.4162 217.733 16.6186 217.875 16.7891C218.017 16.9571 218.203 17.0874 218.433 17.1797C218.662 17.272 218.917 17.3182 219.196 17.3182C219.509 17.3182 219.786 17.2637 220.027 17.1548C220.268 17.0459 220.458 16.8944 220.595 16.7003C220.732 16.5062 220.801 16.2812 220.801 16.0256C220.801 15.758 220.735 15.5225 220.602 15.3189C220.47 15.1129 220.276 14.9519 220.02 14.8359C219.764 14.7199 219.452 14.6619 219.082 14.6619H218.5V13.8807H219.082C219.371 13.8807 219.625 13.8286 219.842 13.7244C220.063 13.6203 220.234 13.4735 220.357 13.2841C220.483 13.0947 220.545 12.8722 220.545 12.6165C220.545 12.3703 220.491 12.156 220.382 11.9737C220.273 11.7914 220.119 11.6494 219.92 11.5476C219.724 11.4458 219.492 11.3949 219.224 11.3949C218.973 11.3949 218.737 11.4411 218.514 11.5334C218.294 11.6233 218.114 11.7547 217.974 11.9276C217.835 12.098 217.759 12.304 217.747 12.5455H216.895C216.909 12.1643 217.024 11.8305 217.239 11.544C217.455 11.2552 217.737 11.0303 218.085 10.8693C218.435 10.7083 218.82 10.6278 219.239 10.6278C219.688 10.6278 220.074 10.719 220.396 10.9013C220.718 11.0812 220.966 11.3191 221.138 11.6151C221.311 11.911 221.398 12.2306 221.398 12.5739C221.398 12.9834 221.29 13.3326 221.075 13.6214C220.862 13.9103 220.571 14.1103 220.205 14.2216V14.2784C220.664 14.3542 221.022 14.5495 221.281 14.8643C221.539 15.1768 221.668 15.5639 221.668 16.0256C221.668 16.4209 221.56 16.776 221.344 17.0909C221.131 17.4034 220.84 17.6496 220.471 17.8295C220.102 18.0095 219.681 18.0994 219.21 18.0994Z" fill="black"/>
<path d="M156.1 1.1H180.9V25.25C180.9 25.2654 180.893 25.2918 180.854 25.3296C180.815 25.3676 180.752 25.4091 180.663 25.4515C180.484 25.5362 180.218 25.6151 179.882 25.6823C179.212 25.8164 178.281 25.9 177.25 25.9H159.75C158.719 25.9 157.788 25.8164 157.118 25.6823C156.782 25.6151 156.516 25.5362 156.337 25.4515C156.248 25.4091 156.185 25.3676 156.146 25.3296C156.107 25.2918 156.1 25.2654 156.1 25.25V1.1Z" fill="url(#paint8_linear_1083_511)" stroke="black" stroke-width="0.2"/>
<path d="M166.753 18V17.3608L169.153 14.733C169.435 14.4252 169.667 14.1577 169.849 13.9304C170.032 13.7008 170.167 13.4853 170.254 13.2841C170.344 13.0805 170.389 12.8674 170.389 12.6449C170.389 12.3892 170.328 12.1679 170.205 11.9808C170.084 11.7938 169.918 11.6494 169.707 11.5476C169.497 11.4458 169.26 11.3949 168.997 11.3949C168.718 11.3949 168.474 11.4529 168.266 11.5689C168.06 11.6825 167.9 11.8423 167.786 12.0483C167.675 12.2543 167.619 12.4957 167.619 12.7727H166.781C166.781 12.3466 166.879 11.9725 167.076 11.6506C167.272 11.3286 167.54 11.0777 167.879 10.8977C168.219 10.7178 168.602 10.6278 169.026 10.6278C169.452 10.6278 169.829 10.7178 170.158 10.8977C170.487 11.0777 170.746 11.3203 170.933 11.6257C171.12 11.9311 171.213 12.2708 171.213 12.6449C171.213 12.9124 171.165 13.174 171.067 13.4297C170.973 13.683 170.807 13.9659 170.57 14.2784C170.336 14.5885 170.01 14.9673 169.594 15.4148L167.96 17.1619V17.2188H171.341V18H166.753Z" fill="black"/>
<path d="M281.1 1.1H305.9V25.25C305.9 25.2654 305.893 25.2918 305.854 25.3296C305.815 25.3676 305.752 25.4091 305.663 25.4515C305.484 25.5362 305.218 25.6151 304.882 25.6823C304.212 25.8164 303.281 25.9 302.25 25.9H284.75C283.719 25.9 282.788 25.8164 282.118 25.6823C281.782 25.6151 281.516 25.5362 281.337 25.4515C281.248 25.4091 281.185 25.3676 281.146 25.3296C281.107 25.2918 281.1 25.2654 281.1 25.25V1.1Z" fill="url(#paint9_linear_1083_511)" stroke="black" stroke-width="0.2"/>
<path d="M294.026 18.0994C293.609 18.0994 293.234 18.0166 292.9 17.8509C292.566 17.6851 292.299 17.4579 292.097 17.169C291.896 16.8802 291.786 16.5511 291.767 16.1818H292.619C292.652 16.5109 292.802 16.7831 293.067 16.9986C293.334 17.2116 293.654 17.3182 294.026 17.3182C294.324 17.3182 294.589 17.2483 294.821 17.1087C295.055 16.969 295.239 16.7772 295.371 16.5334C295.506 16.2872 295.574 16.009 295.574 15.6989C295.574 15.3816 295.504 15.0987 295.364 14.8501C295.227 14.5992 295.038 14.4015 294.796 14.2571C294.555 14.1127 294.279 14.0393 293.969 14.0369C293.746 14.0346 293.518 14.0689 293.283 14.1399C293.049 14.2086 292.856 14.2973 292.705 14.4062L291.881 14.3068L292.321 10.7273H296.099V11.5085H293.06L292.804 13.6534H292.847C292.996 13.535 293.183 13.4368 293.408 13.3587C293.633 13.2805 293.867 13.2415 294.111 13.2415C294.556 13.2415 294.952 13.348 295.3 13.5611C295.651 13.7718 295.925 14.0606 296.124 14.4276C296.326 14.7945 296.426 15.2135 296.426 15.6847C296.426 16.1487 296.322 16.563 296.114 16.9276C295.908 17.2898 295.624 17.5762 295.261 17.7869C294.899 17.9953 294.487 18.0994 294.026 18.0994Z" fill="black"/>
<path d="M131.1 1.1H155.9V25.25C155.9 25.2654 155.893 25.2918 155.854 25.3296C155.815 25.3676 155.752 25.4091 155.663 25.4515C155.484 25.5362 155.218 25.6151 154.882 25.6823C154.212 25.8164 153.281 25.9 152.25 25.9H134.75C133.719 25.9 132.788 25.8164 132.118 25.6823C131.782 25.6151 131.516 25.5362 131.337 25.4515C131.248 25.4091 131.185 25.3676 131.146 25.3296C131.107 25.2918 131.1 25.2654 131.1 25.25V1.1Z" fill="url(#paint10_radial_1083_511)" stroke="black" stroke-width="0.2"/>
<path d="M106.1 1.1H130.9V25.25C130.9 25.2654 130.893 25.2918 130.854 25.3296C130.815 25.3676 130.752 25.4091 130.663 25.4515C130.484 25.5362 130.218 25.6151 129.882 25.6823C129.212 25.8164 128.281 25.9 127.25 25.9H109.75C108.719 25.9 107.788 25.8164 107.118 25.6823C106.782 25.6151 106.516 25.5362 106.337 25.4515C106.248 25.4091 106.185 25.3676 106.146 25.3296C106.107 25.2918 106.1 25.2654 106.1 25.25V1.1Z" fill="url(#paint11_linear_1083_511)" stroke="black" stroke-width="0.2"/>
<path d="M106.1 1.1H130.9V25.25C130.9 25.2654 130.893 25.2918 130.854 25.3296C130.815 25.3676 130.752 25.4091 130.663 25.4515C130.484 25.5362 130.218 25.6151 129.882 25.6823C129.212 25.8164 128.281 25.9 127.25 25.9H109.75C108.719 25.9 107.788 25.8164 107.118 25.6823C106.782 25.6151 106.516 25.5362 106.337 25.4515C106.248 25.4091 106.185 25.3676 106.146 25.3296C106.107 25.2918 106.1 25.2654 106.1 25.25V1.1Z" fill="url(#paint12_linear_1083_511)" stroke="black" stroke-width="0.2"/>
<path d="M119.31 10.7273V18H118.429V11.6506H118.386L116.611 12.8295V11.9347L118.429 10.7273H119.31Z" fill="black"/>
<path d="M444.5 1.5H535.5V24.94C535.348 24.9739 535.133 25.0099 534.852 25.046C534.172 25.1334 533.176 25.2134 531.931 25.2811C529.445 25.4162 526.005 25.5 522.2 25.5H457.8C453.995 25.5 450.555 25.4162 448.069 25.2811C446.824 25.2134 445.828 25.1334 445.148 25.046C444.867 25.0099 444.652 24.9739 444.5 24.94V1.5Z" fill="white" stroke="#D6A86F"/>
<path d="M456.881 17V9.72727H461.27V10.5085H457.761V12.7812H459.608C460.129 12.7812 460.568 12.8665 460.925 13.0369C461.285 13.2074 461.558 13.4477 461.742 13.7578C461.929 14.0679 462.023 14.4337 462.023 14.8551C462.023 15.2765 461.929 15.6482 461.742 15.9702C461.558 16.2921 461.285 16.5443 460.925 16.7266C460.568 16.9089 460.129 17 459.608 17H456.881ZM457.761 16.233H459.608C459.939 16.233 460.22 16.1667 460.45 16.0341C460.682 15.8991 460.857 15.7263 460.975 15.5156C461.096 15.3026 461.156 15.0777 461.156 14.8409C461.156 14.4929 461.022 14.1934 460.755 13.9425C460.487 13.6892 460.105 13.5625 459.608 13.5625H457.761V16.233ZM463.345 17V16.3608L465.745 13.733C466.027 13.4252 466.259 13.1577 466.441 12.9304C466.624 12.7008 466.758 12.4853 466.846 12.2841C466.936 12.0805 466.981 11.8674 466.981 11.6449C466.981 11.3892 466.919 11.1679 466.796 10.9808C466.676 10.7938 466.51 10.6494 466.299 10.5476C466.088 10.4458 465.852 10.3949 465.589 10.3949C465.31 10.3949 465.066 10.4529 464.857 10.5689C464.651 10.6825 464.492 10.8423 464.378 11.0483C464.267 11.2543 464.211 11.4957 464.211 11.7727H463.373C463.373 11.3466 463.471 10.9725 463.668 10.6506C463.864 10.3286 464.132 10.0777 464.47 9.89773C464.811 9.7178 465.194 9.62784 465.617 9.62784C466.044 9.62784 466.421 9.7178 466.75 9.89773C467.079 10.0777 467.337 10.3203 467.524 10.6257C467.711 10.9311 467.805 11.2708 467.805 11.6449C467.805 11.9124 467.756 12.174 467.659 12.4297C467.565 12.683 467.399 12.9659 467.162 13.2784C466.928 13.5885 466.602 13.9673 466.186 14.4148L464.552 16.1619V16.2188H467.933V17H463.345ZM471.544 15.7216V11.0341H472.34V15.7216H471.544ZM469.598 13.7756V12.9801H474.286V13.7756H469.598ZM476.119 17V9.72727H480.508V10.5085H477V12.7812H478.846C479.367 12.7812 479.806 12.8665 480.164 13.0369C480.524 13.2074 480.796 13.4477 480.98 13.7578C481.167 14.0679 481.261 14.4337 481.261 14.8551C481.261 15.2765 481.167 15.6482 480.98 15.9702C480.796 16.2921 480.524 16.5443 480.164 16.7266C479.806 16.9089 479.367 17 478.846 17H476.119ZM477 16.233H478.846C479.178 16.233 479.458 16.1667 479.688 16.0341C479.92 15.8991 480.095 15.7263 480.213 15.5156C480.334 15.3026 480.395 15.0777 480.395 14.8409C480.395 14.4929 480.261 14.1934 479.993 13.9425C479.726 13.6892 479.343 13.5625 478.846 13.5625H477V16.233ZM482.583 17V16.3608L484.983 13.733C485.265 13.4252 485.497 13.1577 485.68 12.9304C485.862 12.7008 485.997 12.4853 486.084 12.2841C486.174 12.0805 486.219 11.8674 486.219 11.6449C486.219 11.3892 486.158 11.1679 486.035 10.9808C485.914 10.7938 485.748 10.6494 485.537 10.5476C485.327 10.4458 485.09 10.3949 484.827 10.3949C484.548 10.3949 484.304 10.4529 484.096 10.5689C483.89 10.6825 483.73 10.8423 483.616 11.0483C483.505 11.2543 483.449 11.4957 483.449 11.7727H482.611C482.611 11.3466 482.71 10.9725 482.906 10.6506C483.103 10.3286 483.37 10.0777 483.709 9.89773C484.05 9.7178 484.432 9.62784 484.856 9.62784C485.282 9.62784 485.659 9.7178 485.988 9.89773C486.318 10.0777 486.576 10.3203 486.763 10.6257C486.95 10.9311 487.043 11.2708 487.043 11.6449C487.043 11.9124 486.995 12.174 486.898 12.4297C486.803 12.683 486.637 12.9659 486.4 13.2784C486.166 13.5885 485.84 13.9673 485.424 14.4148L483.79 16.1619V16.2188H487.171V17H482.583ZM490.782 16.5028V11.8153H491.578V16.5028H490.782ZM488.836 14.5568V13.7614H493.524V14.5568H488.836ZM498.227 15.8636L500.13 11.5455H500.925L498.567 17H497.886L495.57 11.5455H496.352L498.227 15.8636ZM496.082 11.5455V17H495.244V11.5455H496.082ZM500.371 17V11.5455H501.21V17H500.371ZM505.187 17.0994C504.718 17.0994 504.3 17.0189 503.933 16.858C503.569 16.697 503.279 16.4732 503.063 16.1868C502.85 15.898 502.734 15.563 502.715 15.1818H503.61C503.629 15.4162 503.71 15.6186 503.852 15.7891C503.994 15.9571 504.179 16.0874 504.409 16.1797C504.639 16.272 504.893 16.3182 505.173 16.3182C505.485 16.3182 505.762 16.2637 506.004 16.1548C506.245 16.0459 506.434 15.8944 506.572 15.7003C506.709 15.5062 506.778 15.2812 506.778 15.0256C506.778 14.758 506.711 14.5225 506.579 14.3189C506.446 14.1129 506.252 13.9519 505.996 13.8359C505.741 13.7199 505.428 13.6619 505.059 13.6619H504.477V12.8807H505.059C505.348 12.8807 505.601 12.8286 505.819 12.7244C506.039 12.6203 506.211 12.4735 506.334 12.2841C506.459 12.0947 506.522 11.8722 506.522 11.6165C506.522 11.3703 506.468 11.156 506.359 10.9737C506.25 10.7914 506.096 10.6494 505.897 10.5476C505.701 10.4458 505.469 10.3949 505.201 10.3949C504.95 10.3949 504.713 10.4411 504.491 10.5334C504.271 10.6233 504.091 10.7547 503.951 10.9276C503.811 11.098 503.736 11.304 503.724 11.5455H502.871C502.886 11.1643 503 10.8305 503.216 10.544C503.431 10.2552 503.713 10.0303 504.061 9.86932C504.411 9.70833 504.796 9.62784 505.215 9.62784C505.665 9.62784 506.051 9.71899 506.373 9.90128C506.695 10.0812 506.942 10.3191 507.115 10.6151C507.288 10.911 507.374 11.2306 507.374 11.5739C507.374 11.9834 507.267 12.3326 507.051 12.6214C506.838 12.9103 506.548 13.1103 506.181 13.2216V13.2784C506.64 13.3542 506.999 13.5495 507.257 13.8643C507.515 14.1768 507.644 14.5639 507.644 15.0256C507.644 15.4209 507.536 15.776 507.321 16.0909C507.108 16.4034 506.817 16.6496 506.447 16.8295C506.078 17.0095 505.658 17.0994 505.187 17.0994ZM509.452 13.4915V12.7244H513.827V13.4915H509.452ZM509.452 15.5938V14.8267H513.827V15.5938H509.452ZM519.907 11.5455V17H519.069V11.5455H519.907ZM519.58 14.1449V14.9261C519.391 14.9972 519.203 15.0599 519.016 15.1143C518.829 15.1664 518.632 15.2079 518.426 15.2386C518.22 15.267 517.994 15.2812 517.748 15.2812C517.13 15.2812 516.634 15.1143 516.26 14.7805C515.888 14.4467 515.703 13.946 515.703 13.2784V11.5312H516.541V13.2784C516.541 13.5578 516.594 13.7874 516.7 13.9673C516.807 14.1473 516.951 14.281 517.134 14.3686C517.316 14.4562 517.521 14.5 517.748 14.5C518.103 14.5 518.424 14.468 518.71 14.4041C518.999 14.3378 519.289 14.2514 519.58 14.1449ZM523.703 17.0994C523.287 17.0994 522.911 17.0166 522.578 16.8509C522.244 16.6851 521.976 16.4579 521.775 16.169C521.574 15.8802 521.464 15.5511 521.445 15.1818H522.297C522.33 15.5109 522.479 15.7831 522.744 15.9986C523.012 16.2116 523.332 16.3182 523.703 16.3182C524.002 16.3182 524.267 16.2483 524.499 16.1087C524.733 15.969 524.917 15.7772 525.049 15.5334C525.184 15.2872 525.252 15.009 525.252 14.6989C525.252 14.3816 525.182 14.0987 525.042 13.8501C524.905 13.5992 524.715 13.4015 524.474 13.2571C524.232 13.1127 523.957 13.0393 523.646 13.0369C523.424 13.0346 523.195 13.0689 522.961 13.1399C522.727 13.2086 522.534 13.2973 522.382 13.4062L521.558 13.3068L521.999 9.72727H525.777V10.5085H522.737L522.482 12.6534H522.524C522.673 12.535 522.86 12.4368 523.085 12.3587C523.31 12.2805 523.545 12.2415 523.789 12.2415C524.234 12.2415 524.63 12.348 524.978 12.5611C525.329 12.7718 525.603 13.0606 525.802 13.4276C526.003 13.7945 526.104 14.2135 526.104 14.6847C526.104 15.1487 526 15.563 525.791 15.9276C525.585 16.2898 525.301 16.5762 524.939 16.7869C524.577 16.9953 524.165 17.0994 523.703 17.0994Z" fill="black"/>
<path d="M1 1H93V25.25C93 25.6642 86.8215 26 79.2 26H14.8C7.17847 26 1 25.6642 1 25.25V1Z" fill="white" stroke="#D6A86F" stroke-miterlimit="16"/>
<path d="M36.6254 19H34.7894L31.3874 13.42L27.9314 19H26.2214L30.4874 12.304L26.4914 6.148H28.2914L31.4414 11.188L34.6094 6.148H36.3194L32.3414 12.268L36.6254 19ZM46.883 17.668C46.469 17.956 46.163 18.1 45.947 18.1C45.677 18.1 45.551 17.866 45.551 17.38V13.312C45.551 11.674 44.597 10.756 42.959 10.756C41.573 10.756 39.971 11.638 39.971 12.772C39.971 13.294 40.205 13.564 40.691 13.564C41.123 13.564 41.519 13.204 41.519 12.772C41.519 12.628 41.447 12.232 41.447 12.088C41.447 11.512 42.077 11.188 42.707 11.188C43.589 11.188 44.039 11.692 44.039 12.7V13.78C40.673 14.842 39.611 15.67 39.611 17.272C39.611 18.226 40.295 19.198 41.303 19.198C42.041 19.198 42.977 18.748 44.111 17.848C44.129 18.73 44.489 19.162 45.191 19.162C45.749 19.162 46.307 18.838 46.883 18.208V17.668ZM44.039 17.38C43.409 17.866 42.869 18.1 42.383 18.1C41.609 18.1 41.195 17.434 41.195 16.66C41.195 15.922 41.501 15.364 42.131 15.004C42.347 14.86 42.977 14.626 44.039 14.284V17.38ZM54.2909 6.724L51.3749 7.552V7.876H52.3829C52.6529 7.966 52.7789 8.254 52.7789 8.74V11.44C52.2929 10.99 51.6989 10.756 50.9789 10.756C48.7829 10.756 47.3069 13.15 47.3069 15.256C47.3069 17.38 48.6209 19.162 50.5109 19.162C51.5009 19.162 52.2569 18.73 52.7789 17.884V19.234C53.5889 18.748 54.5609 18.388 55.6949 18.172V17.848C55.6229 17.848 55.4969 17.866 55.2989 17.884H54.9749C54.5249 17.884 54.2909 17.578 54.2909 16.984V6.724ZM52.7789 17.092C52.4729 17.866 51.9329 18.244 51.1589 18.244C49.7189 18.244 48.8549 16.804 48.8549 14.716C48.8549 12.808 49.6469 11.296 51.0869 11.296C51.8249 11.296 52.3649 11.692 52.6709 12.484C52.7429 12.682 52.7789 12.79 52.7789 12.844V17.092ZM63.1854 6.724L60.2694 7.552V7.876H61.2774C61.5474 7.966 61.6734 8.254 61.6734 8.74V11.44C61.1874 10.99 60.5934 10.756 59.8734 10.756C57.6774 10.756 56.2014 13.15 56.2014 15.256C56.2014 17.38 57.5154 19.162 59.4054 19.162C60.3954 19.162 61.1514 18.73 61.6734 17.884V19.234C62.4834 18.748 63.4554 18.388 64.5894 18.172V17.848C64.5174 17.848 64.3914 17.866 64.1934 17.884H63.8694C63.4194 17.884 63.1854 17.578 63.1854 16.984V6.724ZM61.6734 17.092C61.3674 17.866 60.8274 18.244 60.0534 18.244C58.6134 18.244 57.7494 16.804 57.7494 14.716C57.7494 12.808 58.5414 11.296 59.9814 11.296C60.7194 11.296 61.2594 11.692 61.5654 12.484C61.6374 12.682 61.6734 12.79 61.6734 12.844V17.092ZM70.6399 12.628L70.4599 12.52C70.1719 13.096 69.7759 13.384 69.2719 13.384H66.2479L68.6959 10.864C69.5059 10.018 69.9199 9.136 69.9199 8.2C69.9199 6.94 68.9839 5.824 67.7239 5.824C66.2839 5.824 65.3839 6.958 65.0959 8.452L65.3119 8.524C65.7259 7.372 66.3559 6.796 67.2199 6.796C68.2279 6.796 68.8759 7.588 68.8759 8.596C68.8759 9.514 68.3899 10.486 67.4359 11.548L65.0239 14.176V14.356H69.8839L70.6399 12.628Z" fill="black"/>
<defs>
<radialGradient id="paint0_radial_1083_511" cx="0" cy="0" r="1" gradientUnits="userSpaceOnUse" gradientTransform="translate(368.5 13.5) rotate(90) scale(12.5)">
<stop offset="0.171875"/>
<stop offset="0.171975" stop-color="white"/>
</radialGradient>
<radialGradient id="paint1_radial_1083_511" cx="0" cy="0" r="1" gradientUnits="userSpaceOnUse" gradientTransform="translate(393.5 13.5) rotate(90) scale(12.5)">
<stop offset="0.171875"/>
<stop offset="0.171975" stop-color="white"/>
</radialGradient>
<radialGradient id="paint2_radial_1083_511" cx="0" cy="0" r="1" gradientUnits="userSpaceOnUse" gradientTransform="translate(343.5 13.5) rotate(90) scale(12.5)">
<stop offset="0.171875"/>
<stop offset="0.171975" stop-color="white"/>
</radialGradient>
<radialGradient id="paint3_radial_1083_511" cx="0" cy="0" r="1" gradientUnits="userSpaceOnUse" gradientTransform="translate(318.5 13.5) rotate(90) scale(12.5)">
<stop offset="0.171875"/>
<stop offset="0.171975" stop-color="white"/>
</radialGradient>
<radialGradient id="paint4_radial_1083_511" cx="0" cy="0" r="1" gradientUnits="userSpaceOnUse" gradientTransform="translate(268.5 13.5) rotate(90) scale(12.5)">
<stop offset="0.171875"/>
<stop offset="0.171975" stop-color="white"/>
</radialGradient>
<radialGradient id="paint5_radial_1083_511" cx="0" cy="0" r="1" gradientUnits="userSpaceOnUse" gradientTransform="translate(243.5 13.5) rotate(90) scale(12.5)">
<stop offset="0.171875"/>
<stop offset="0.171975" stop-color="white"/>
</radialGradient>
<radialGradient id="paint6_radial_1083_511" cx="0" cy="0" r="1" gradientUnits="userSpaceOnUse" gradientTransform="translate(193.5 13.5) rotate(90) scale(12.5)">
<stop offset="0.171875"/>
<stop offset="0.171975" stop-color="white"/>
</radialGradient>
<linearGradient id="paint7_linear_1083_511" x1="218.5" y1="1" x2="218.5" y2="26" gradientUnits="userSpaceOnUse">
<stop offset="0.255208" stop-color="#DDB078"/>
<stop offset="0.598958" stop-color="#F4D6B1"/>
</linearGradient>
<linearGradient id="paint8_linear_1083_511" x1="168.5" y1="1" x2="168.5" y2="26" gradientUnits="userSpaceOnUse">
<stop offset="0.255208" stop-color="#DDB078"/>
<stop offset="0.598958" stop-color="#F4D6B1"/>
</linearGradient>
<linearGradient id="paint9_linear_1083_511" x1="293.5" y1="1" x2="293.5" y2="26" gradientUnits="userSpaceOnUse">
<stop offset="0.255208" stop-color="#DDB078"/>
<stop offset="0.598958" stop-color="#F4D6B1"/>
</linearGradient>
<radialGradient id="paint10_radial_1083_511" cx="0" cy="0" r="1" gradientUnits="userSpaceOnUse" gradientTransform="translate(143.5 13.5) rotate(90) scale(12.5)">
<stop offset="0.171875"/>
<stop offset="0.171975" stop-color="white"/>
</radialGradient>
<linearGradient id="paint11_linear_1083_511" x1="118.5" y1="1" x2="118.5" y2="26" gradientUnits="userSpaceOnUse">
<stop offset="0.255208" stop-color="#DDB078"/>
<stop offset="0.598958" stop-color="#F4D6B1"/>
</linearGradient>
<linearGradient id="paint12_linear_1083_511" x1="118.5" y1="1" x2="118.5" y2="26" gradientUnits="userSpaceOnUse">
<stop offset="0.255208" stop-color="#DDB078"/>
<stop offset="0.598958" stop-color="#F4D6B1"/>
</linearGradient>
</defs>
</svg>
