<svg width="325" height="26" viewBox="0 0 325 26" fill="none" xmlns="http://www.w3.org/2000/svg">
<path d="M300.1 1.1H324.9V25.25C324.9 25.2654 324.893 25.2918 324.854 25.3296C324.815 25.3676 324.752 25.4091 324.663 25.4515C324.484 25.5362 324.218 25.6151 323.882 25.6823C323.212 25.8164 322.281 25.9 321.25 25.9H303.75C302.719 25.9 301.788 25.8164 301.118 25.6823C300.782 25.6151 300.516 25.5362 300.337 25.4515C300.248 25.4091 300.185 25.3676 300.146 25.3296C300.107 25.2918 300.1 25.2654 300.1 25.25V1.1Z" fill="url(#paint0_radial_571_847)" stroke="black" stroke-width="0.2"/>
<path d="M275.1 1.1H299.9V25.25C299.9 25.2654 299.893 25.2918 299.854 25.3296C299.815 25.3676 299.752 25.4091 299.663 25.4515C299.484 25.5362 299.218 25.6151 298.882 25.6823C298.212 25.8164 297.281 25.9 296.25 25.9H278.75C277.719 25.9 276.788 25.8164 276.118 25.6823C275.782 25.6151 275.516 25.5362 275.337 25.4515C275.248 25.4091 275.185 25.3676 275.146 25.3296C275.107 25.2918 275.1 25.2654 275.1 25.25V1.1Z" fill="url(#paint1_radial_571_847)" stroke="black" stroke-width="0.2"/>
<path d="M250.1 1.1H274.9V25.25C274.9 25.2654 274.893 25.2918 274.854 25.3296C274.815 25.3676 274.752 25.4091 274.663 25.4515C274.484 25.5362 274.218 25.6151 273.882 25.6823C273.212 25.8164 272.281 25.9 271.25 25.9H253.75C252.719 25.9 251.788 25.8164 251.118 25.6823C250.782 25.6151 250.516 25.5362 250.337 25.4515C250.248 25.4091 250.185 25.3676 250.146 25.3296C250.107 25.2918 250.1 25.2654 250.1 25.25V1.1Z" fill="url(#paint2_radial_571_847)" stroke="black" stroke-width="0.2"/>
<path d="M225.1 1.1H249.9V25.25C249.9 25.2654 249.893 25.2918 249.854 25.3296C249.815 25.3676 249.752 25.4091 249.663 25.4515C249.484 25.5362 249.218 25.6151 248.882 25.6823C248.212 25.8164 247.281 25.9 246.25 25.9H228.75C227.719 25.9 226.788 25.8164 226.118 25.6823C225.782 25.6151 225.516 25.5362 225.337 25.4515C225.248 25.4091 225.185 25.3676 225.146 25.3296C225.107 25.2918 225.1 25.2654 225.1 25.25V1.1Z" fill="url(#paint3_radial_571_847)" stroke="black" stroke-width="0.2"/>
<path d="M200.1 1.1H224.9V25.25C224.9 25.2654 224.893 25.2918 224.854 25.3296C224.815 25.3676 224.752 25.4091 224.663 25.4515C224.484 25.5362 224.218 25.6151 223.882 25.6823C223.212 25.8164 222.281 25.9 221.25 25.9H203.75C202.719 25.9 201.788 25.8164 201.118 25.6823C200.782 25.6151 200.516 25.5362 200.337 25.4515C200.248 25.4091 200.185 25.3676 200.146 25.3296C200.107 25.2918 200.1 25.2654 200.1 25.25V1.1Z" fill="url(#paint4_radial_571_847)" stroke="black" stroke-width="0.2"/>
<path d="M175.1 1.1H199.9V25.25C199.9 25.2654 199.893 25.2918 199.854 25.3296C199.815 25.3676 199.752 25.4091 199.663 25.4515C199.484 25.5362 199.218 25.6151 198.882 25.6823C198.212 25.8164 197.281 25.9 196.25 25.9H178.75C177.719 25.9 176.788 25.8164 176.118 25.6823C175.782 25.6151 175.516 25.5362 175.337 25.4515C175.248 25.4091 175.185 25.3676 175.146 25.3296C175.107 25.2918 175.1 25.2654 175.1 25.25V1.1Z" fill="url(#paint5_linear_571_847)" stroke="black" stroke-width="0.2"/>
<path d="M195.026 24.0994C194.609 24.0994 194.234 24.0166 193.9 23.8509C193.566 23.6851 193.299 23.4579 193.097 23.169C192.896 22.8802 192.786 22.5511 192.767 22.1818H193.619C193.652 22.5109 193.802 22.7831 194.067 22.9986C194.334 23.2116 194.654 23.3182 195.026 23.3182C195.324 23.3182 195.589 23.2483 195.821 23.1087C196.055 22.969 196.239 22.7772 196.371 22.5334C196.506 22.2872 196.574 22.009 196.574 21.6989C196.574 21.3816 196.504 21.0987 196.364 20.8501C196.227 20.5992 196.038 20.4015 195.796 20.2571C195.555 20.1127 195.279 20.0393 194.969 20.0369C194.746 20.0346 194.518 20.0689 194.283 20.1399C194.049 20.2086 193.856 20.2973 193.705 20.4062L192.881 20.3068L193.321 16.7273H197.099V17.5085H194.06L193.804 19.6534H193.847C193.996 19.535 194.183 19.4368 194.408 19.3587C194.633 19.2805 194.867 19.2415 195.111 19.2415C195.556 19.2415 195.952 19.348 196.3 19.5611C196.651 19.7718 196.925 20.0606 197.124 20.4276C197.326 20.7945 197.426 21.2135 197.426 21.6847C197.426 22.1487 197.322 22.563 197.114 22.9276C196.908 23.2898 196.624 23.5762 196.261 23.7869C195.899 23.9953 195.487 24.0994 195.026 24.0994Z" fill="black"/>
<path d="M177 12H184" stroke="black"/>
<path d="M177 15H184" stroke="black"/>
<path d="M191.972 4.54545V10H191.134V4.54545H191.972ZM191.645 7.14489V7.92614C191.455 7.99716 191.267 8.0599 191.08 8.11435C190.893 8.16643 190.697 8.20786 190.491 8.23864C190.285 8.26705 190.059 8.28125 189.812 8.28125C189.195 8.28125 188.699 8.11435 188.325 7.78054C187.953 7.44673 187.767 6.94602 187.767 6.27841V4.53125H188.605V6.27841C188.605 6.55777 188.658 6.78741 188.765 6.96733C188.871 7.14725 189.016 7.28101 189.198 7.36861C189.38 7.4562 189.585 7.5 189.812 7.5C190.168 7.5 190.488 7.46804 190.775 7.40412C191.064 7.33783 191.354 7.25142 191.645 7.14489ZM195.768 10.0994C195.351 10.0994 194.976 10.0166 194.642 9.85085C194.308 9.68513 194.041 9.45786 193.839 9.16903C193.638 8.88021 193.528 8.55114 193.509 8.18182H194.362C194.395 8.51089 194.544 8.78314 194.809 8.99858C195.076 9.21165 195.396 9.31818 195.768 9.31818C196.066 9.31818 196.331 9.24834 196.563 9.10866C196.798 8.96899 196.981 8.77723 197.114 8.53338C197.249 8.28717 197.316 8.009 197.316 7.69886C197.316 7.38163 197.246 7.09872 197.107 6.85014C196.969 6.5992 196.78 6.40152 196.538 6.2571C196.297 6.11269 196.021 6.0393 195.711 6.03693C195.488 6.03456 195.26 6.06889 195.026 6.13991C194.791 6.20857 194.598 6.29735 194.447 6.40625L193.623 6.30682L194.063 2.72727H197.842V3.50852H194.802L194.546 5.65341H194.589C194.738 5.53504 194.925 5.43679 195.15 5.35866C195.375 5.28054 195.609 5.24148 195.853 5.24148C196.298 5.24148 196.695 5.34801 197.043 5.56108C197.393 5.77178 197.668 6.06061 197.866 6.42756C198.068 6.79451 198.168 7.21354 198.168 7.68466C198.168 8.14867 198.064 8.56297 197.856 8.92756C197.65 9.28977 197.366 9.57623 197.004 9.78693C196.641 9.99527 196.229 10.0994 195.768 10.0994Z" fill="black"/>
<path d="M150.1 1.1H174.9V25.25C174.9 25.2654 174.893 25.2918 174.854 25.3296C174.815 25.3676 174.752 25.4091 174.663 25.4515C174.484 25.5362 174.218 25.6151 173.882 25.6823C173.212 25.8164 172.281 25.9 171.25 25.9H153.75C152.719 25.9 151.788 25.8164 151.118 25.6823C150.782 25.6151 150.516 25.5362 150.337 25.4515C150.248 25.4091 150.185 25.3676 150.146 25.3296C150.107 25.2918 150.1 25.2654 150.1 25.25V1.1Z" fill="url(#paint6_radial_571_847)" stroke="black" stroke-width="0.2"/>
<path d="M50.1 1.1H74.9V25.25C74.9 25.2654 74.8926 25.2918 74.8539 25.3296C74.815 25.3676 74.7523 25.4091 74.6626 25.4515C74.4835 25.5362 74.2181 25.6151 73.882 25.6823C73.2116 25.8164 72.281 25.9 71.25 25.9H53.75C52.719 25.9 51.7884 25.8164 51.118 25.6823C50.7819 25.6151 50.5165 25.5362 50.3374 25.4515C50.2477 25.4091 50.185 25.3676 50.1461 25.3296C50.1074 25.2918 50.1 25.2654 50.1 25.25V1.1Z" fill="url(#paint7_radial_571_847)" stroke="black" stroke-width="0.2"/>
<path d="M75.1 1.1H99.9V25.25C99.9 25.2654 99.8926 25.2918 99.8539 25.3296C99.815 25.3676 99.7523 25.4091 99.6626 25.4515C99.4835 25.5362 99.2181 25.6151 98.882 25.6823C98.2116 25.8164 97.281 25.9 96.25 25.9H78.75C77.719 25.9 76.7884 25.8164 76.118 25.6823C75.7819 25.6151 75.5165 25.5362 75.3374 25.4515C75.2477 25.4091 75.185 25.3676 75.1461 25.3296C75.1074 25.2918 75.1 25.2654 75.1 25.25V1.1Z" fill="url(#paint8_radial_571_847)" stroke="black" stroke-width="0.2"/>
<path d="M100.1 1.1H124.9V25.25C124.9 25.2654 124.893 25.2918 124.854 25.3296C124.815 25.3676 124.752 25.4091 124.663 25.4515C124.484 25.5362 124.218 25.6151 123.882 25.6823C123.212 25.8164 122.281 25.9 121.25 25.9H103.75C102.719 25.9 101.788 25.8164 101.118 25.6823C100.782 25.6151 100.516 25.5362 100.337 25.4515C100.248 25.4091 100.185 25.3676 100.146 25.3296C100.107 25.2918 100.1 25.2654 100.1 25.25V1.1Z" fill="url(#paint9_linear_571_847)" stroke="black" stroke-width="0.2"/>
<path d="M113.21 24.0994C112.741 24.0994 112.324 24.0189 111.957 23.858C111.592 23.697 111.302 23.4732 111.087 23.1868C110.874 22.898 110.758 22.563 110.739 22.1818H111.634C111.652 22.4162 111.733 22.6186 111.875 22.7891C112.017 22.9571 112.203 23.0874 112.433 23.1797C112.662 23.272 112.917 23.3182 113.196 23.3182C113.509 23.3182 113.786 23.2637 114.027 23.1548C114.268 23.0459 114.458 22.8944 114.595 22.7003C114.732 22.5062 114.801 22.2812 114.801 22.0256C114.801 21.758 114.735 21.5225 114.602 21.3189C114.47 21.1129 114.276 20.9519 114.02 20.8359C113.764 20.7199 113.452 20.6619 113.082 20.6619H112.5V19.8807H113.082C113.371 19.8807 113.625 19.8286 113.842 19.7244C114.063 19.6203 114.234 19.4735 114.357 19.2841C114.483 19.0947 114.545 18.8722 114.545 18.6165C114.545 18.3703 114.491 18.156 114.382 17.9737C114.273 17.7914 114.119 17.6494 113.92 17.5476C113.724 17.4458 113.492 17.3949 113.224 17.3949C112.973 17.3949 112.737 17.4411 112.514 17.5334C112.294 17.6233 112.114 17.7547 111.974 17.9276C111.835 18.098 111.759 18.304 111.747 18.5455H110.895C110.909 18.1643 111.024 17.8305 111.239 17.544C111.455 17.2552 111.737 17.0303 112.085 16.8693C112.435 16.7083 112.82 16.6278 113.239 16.6278C113.688 16.6278 114.074 16.719 114.396 16.9013C114.718 17.0812 114.966 17.3191 115.138 17.6151C115.311 17.911 115.398 18.2306 115.398 18.5739C115.398 18.9834 115.29 19.3326 115.075 19.6214C114.862 19.9103 114.571 20.1103 114.205 20.2216V20.2784C114.664 20.3542 115.022 20.5495 115.281 20.8643C115.539 21.1768 115.668 21.5639 115.668 22.0256C115.668 22.4209 115.56 22.776 115.344 23.0909C115.131 23.4034 114.84 23.6496 114.471 23.8295C114.102 24.0095 113.681 24.0994 113.21 24.0994Z" fill="black"/>
<path d="M109.75 9.86364L111.653 5.54545H112.449L110.091 11H109.409L107.094 5.54545H107.875L109.75 9.86364ZM107.605 5.54545V11H106.767V5.54545H107.605ZM111.895 11V5.54545H112.733V11H111.895ZM114.253 11V10.3608L116.653 7.73295C116.935 7.42519 117.167 7.15767 117.349 6.9304C117.532 6.70076 117.667 6.48532 117.754 6.28409C117.844 6.08049 117.889 5.86742 117.889 5.64489C117.889 5.3892 117.828 5.16785 117.705 4.98082C117.584 4.7938 117.418 4.64938 117.207 4.54759C116.997 4.44579 116.76 4.39489 116.497 4.39489C116.218 4.39489 115.974 4.45289 115.766 4.56889C115.56 4.68253 115.4 4.84233 115.286 5.0483C115.175 5.25426 115.119 5.49574 115.119 5.77273H114.281C114.281 5.34659 114.379 4.97254 114.576 4.65057C114.772 4.3286 115.04 4.07765 115.379 3.89773C115.719 3.7178 116.102 3.62784 116.526 3.62784C116.952 3.62784 117.329 3.7178 117.658 3.89773C117.987 4.07765 118.246 4.32031 118.433 4.62571C118.62 4.93111 118.713 5.27083 118.713 5.64489C118.713 5.91241 118.665 6.17401 118.567 6.42969C118.473 6.683 118.307 6.96591 118.07 7.27841C117.836 7.58854 117.51 7.96733 117.094 8.41477L115.46 10.1619V10.2188H118.841V11H114.253Z" fill="black"/>
<path d="M123.354 14.3536C123.549 14.1583 123.549 13.8417 123.354 13.6464L120.172 10.4645C119.976 10.2692 119.66 10.2692 119.464 10.4645C119.269 10.6597 119.269 10.9763 119.464 11.1716L122.293 14L119.464 16.8284C119.269 17.0237 119.269 17.3403 119.464 17.5355C119.66 17.7308 119.976 17.7308 120.172 17.5355L123.354 14.3536ZM103 14.5H123V13.5H103V14.5Z" fill="black"/>
<path d="M25.1 1.1H49.9V25.25C49.9 25.2654 49.8926 25.2918 49.8539 25.3296C49.815 25.3676 49.7523 25.4091 49.6626 25.4515C49.4835 25.5362 49.2181 25.6151 48.882 25.6823C48.2116 25.8164 47.281 25.9 46.25 25.9H28.75C27.719 25.9 26.7884 25.8164 26.118 25.6823C25.7819 25.6151 25.5165 25.5362 25.3374 25.4515C25.2477 25.4091 25.185 25.3676 25.1461 25.3296C25.1074 25.2918 25.1 25.2654 25.1 25.25V1.1Z" fill="url(#paint10_radial_571_847)" stroke="black" stroke-width="0.2"/>
<path d="M0.1 1.1H24.9V25.25C24.9 25.2654 24.8926 25.2918 24.8539 25.3296C24.815 25.3676 24.7523 25.4091 24.6626 25.4515C24.4835 25.5362 24.2181 25.6151 23.882 25.6823C23.2116 25.8164 22.281 25.9 21.25 25.9H3.75C2.719 25.9 1.78838 25.8164 1.11796 25.6823C0.781929 25.6151 0.516476 25.5362 0.337441 25.4515C0.247669 25.4091 0.184964 25.3676 0.146084 25.3296C0.107371 25.2918 0.1 25.2654 0.1 25.25V1.1Z" fill="url(#paint11_linear_571_847)" stroke="black" stroke-width="0.2"/>
<path d="M0.1 1.1H24.9V25.25C24.9 25.2654 24.8926 25.2918 24.8539 25.3296C24.815 25.3676 24.7523 25.4091 24.6626 25.4515C24.4835 25.5362 24.2181 25.6151 23.882 25.6823C23.2116 25.8164 22.281 25.9 21.25 25.9H3.75C2.719 25.9 1.78838 25.8164 1.11796 25.6823C0.781929 25.6151 0.516476 25.5362 0.337441 25.4515C0.247669 25.4091 0.184964 25.3676 0.146084 25.3296C0.107371 25.2918 0.1 25.2654 0.1 25.25V1.1Z" fill="url(#paint12_linear_571_847)" stroke="black" stroke-width="0.2"/>
<path d="M13.3097 16.7273V24H12.429V17.6506H12.3864L10.6108 18.8295V17.9347L12.429 16.7273H13.3097Z" fill="black"/>
<path d="M6.88068 11V3.72727H11.2699V4.50852H7.76136V6.78125H9.60795C10.1288 6.78125 10.5679 6.86648 10.9254 7.03693C11.2853 7.20739 11.5575 7.44768 11.7422 7.75781C11.9292 8.06795 12.0227 8.43371 12.0227 8.85511C12.0227 9.27652 11.9292 9.6482 11.7422 9.97017C11.5575 10.2921 11.2853 10.5443 10.9254 10.7266C10.5679 10.9089 10.1288 11 9.60795 11H6.88068ZM7.76136 10.233H9.60795C9.93939 10.233 10.2199 10.1667 10.4496 10.0341C10.6816 9.89915 10.8568 9.72633 10.9751 9.51562C11.0959 9.30256 11.1562 9.07765 11.1562 8.84091C11.1562 8.4929 11.0225 8.19342 10.755 7.94247C10.4875 7.68916 10.1051 7.5625 9.60795 7.5625H7.76136V10.233ZM15.802 11.0994C15.3333 11.0994 14.9154 11.0189 14.5485 10.858C14.1839 10.697 13.8939 10.4732 13.6784 10.1868C13.4654 9.89796 13.3494 9.56297 13.3304 9.18182H14.2253C14.2443 9.41619 14.3248 9.61861 14.4668 9.78906C14.6088 9.95715 14.7947 10.0874 15.0243 10.1797C15.254 10.272 15.5085 10.3182 15.7878 10.3182C16.1003 10.3182 16.3773 10.2637 16.6188 10.1548C16.8603 10.0459 17.0497 9.89441 17.187 9.70028C17.3243 9.50616 17.3929 9.28125 17.3929 9.02557C17.3929 8.75805 17.3266 8.52249 17.1941 8.31889C17.0615 8.11293 16.8674 7.95194 16.6117 7.83594C16.356 7.71993 16.0435 7.66193 15.6742 7.66193H15.0918V6.88068H15.6742C15.963 6.88068 16.2163 6.8286 16.4341 6.72443C16.6543 6.62026 16.8259 6.47348 16.949 6.28409C17.0745 6.0947 17.1373 5.87216 17.1373 5.61648C17.1373 5.37026 17.0828 5.15601 16.9739 4.97372C16.865 4.79143 16.7111 4.64938 16.5123 4.54759C16.3158 4.44579 16.0837 4.39489 15.8162 4.39489C15.5653 4.39489 15.3285 4.44105 15.106 4.53338C14.8858 4.62334 14.7059 4.75473 14.5662 4.92756C14.4266 5.09801 14.3508 5.30398 14.339 5.54545H13.4867C13.5009 5.1643 13.6157 4.83049 13.8311 4.54403C14.0466 4.25521 14.3283 4.0303 14.6763 3.86932C15.0267 3.70833 15.4114 3.62784 15.8304 3.62784C16.2802 3.62784 16.6661 3.71899 16.9881 3.90128C17.3101 4.0812 17.5575 4.31913 17.7303 4.61506C17.9031 4.91098 17.9895 5.23059 17.9895 5.57386C17.9895 5.98343 17.8818 6.33262 17.6664 6.62145C17.4533 6.91027 17.1633 7.11032 16.7963 7.22159V7.27841C17.2556 7.35417 17.6143 7.54948 17.8723 7.86435C18.1304 8.17685 18.2594 8.56392 18.2594 9.02557C18.2594 9.42093 18.1517 9.77604 17.9363 10.0909C17.7232 10.4034 17.432 10.6496 17.0627 10.8295C16.6934 11.0095 16.2731 11.0994 15.802 11.0994Z" fill="black"/>
<path d="M125.1 1.1H149.9V25.25C149.9 25.2654 149.893 25.2918 149.854 25.3296C149.815 25.3676 149.752 25.4091 149.663 25.4515C149.484 25.5362 149.218 25.6151 148.882 25.6823C148.212 25.8164 147.281 25.9 146.25 25.9H128.75C127.719 25.9 126.788 25.8164 126.118 25.6823C125.782 25.6151 125.516 25.5362 125.337 25.4515C125.248 25.4091 125.185 25.3676 125.146 25.3296C125.107 25.2918 125.1 25.2654 125.1 25.25V1.1Z" fill="url(#paint13_linear_571_847)" stroke="black" stroke-width="0.2"/>
<path d="M125.1 1.1H149.9V25.25C149.9 25.2654 149.893 25.2918 149.854 25.3296C149.815 25.3676 149.752 25.4091 149.663 25.4515C149.484 25.5362 149.218 25.6151 148.882 25.6823C148.212 25.8164 147.281 25.9 146.25 25.9H128.75C127.719 25.9 126.788 25.8164 126.118 25.6823C125.782 25.6151 125.516 25.5362 125.337 25.4515C125.248 25.4091 125.185 25.3676 125.146 25.3296C125.107 25.2918 125.1 25.2654 125.1 25.25V1.1Z" fill="url(#paint14_linear_571_847)" stroke="black" stroke-width="0.2"/>
<path d="M135.582 22.5085V21.7841L138.778 16.7273H139.304V17.8494H138.949L136.534 21.6705V21.7273H140.838V22.5085H135.582ZM139.006 24V22.2884V21.951V16.7273H139.844V24H139.006Z" fill="black"/>
<path d="M131.881 11V3.72727H136.27V4.50852H132.761V6.78125H134.608C135.129 6.78125 135.568 6.86648 135.925 7.03693C136.285 7.20739 136.558 7.44768 136.742 7.75781C136.929 8.06795 137.023 8.43371 137.023 8.85511C137.023 9.27652 136.929 9.6482 136.742 9.97017C136.558 10.2921 136.285 10.5443 135.925 10.7266C135.568 10.9089 135.129 11 134.608 11H131.881ZM132.761 10.233H134.608C134.939 10.233 135.22 10.1667 135.45 10.0341C135.682 9.89915 135.857 9.72633 135.975 9.51562C136.096 9.30256 136.156 9.07765 136.156 8.84091C136.156 8.4929 136.022 8.19342 135.755 7.94247C135.487 7.68916 135.105 7.5625 134.608 7.5625H132.761V10.233ZM138.345 11V10.3608L140.745 7.73295C141.027 7.42519 141.259 7.15767 141.441 6.9304C141.624 6.70076 141.758 6.48532 141.846 6.28409C141.936 6.08049 141.981 5.86742 141.981 5.64489C141.981 5.3892 141.919 5.16785 141.796 4.98082C141.676 4.7938 141.51 4.64938 141.299 4.54759C141.088 4.44579 140.852 4.39489 140.589 4.39489C140.31 4.39489 140.066 4.45289 139.857 4.56889C139.651 4.68253 139.492 4.84233 139.378 5.0483C139.267 5.25426 139.211 5.49574 139.211 5.77273H138.373C138.373 5.34659 138.471 4.97254 138.668 4.65057C138.864 4.3286 139.132 4.07765 139.47 3.89773C139.811 3.7178 140.194 3.62784 140.617 3.62784C141.044 3.62784 141.421 3.7178 141.75 3.89773C142.079 4.07765 142.337 4.32031 142.524 4.62571C142.711 4.93111 142.805 5.27083 142.805 5.64489C142.805 5.91241 142.756 6.17401 142.659 6.42969C142.565 6.683 142.399 6.96591 142.162 7.27841C141.928 7.58854 141.602 7.96733 141.186 8.41477L139.552 10.1619V10.2188H142.933V11H138.345Z" fill="black"/>
<path d="M148.354 14.3536C148.549 14.1583 148.549 13.8417 148.354 13.6464L145.172 10.4645C144.976 10.2692 144.66 10.2692 144.464 10.4645C144.269 10.6597 144.269 10.9763 144.464 11.1716L147.293 14L144.464 16.8284C144.269 17.0237 144.269 17.3403 144.464 17.5355C144.66 17.7308 144.976 17.7308 145.172 17.5355L148.354 14.3536ZM128 14.5H148V13.5H128V14.5Z" fill="black"/>
<path d="M23.3536 14.3536C23.5488 14.1583 23.5488 13.8417 23.3536 13.6464L20.1716 10.4645C19.9763 10.2692 19.6597 10.2692 19.4645 10.4645C19.2692 10.6597 19.2692 10.9763 19.4645 11.1716L22.2929 14L19.4645 16.8284C19.2692 17.0237 19.2692 17.3403 19.4645 17.5355C19.6597 17.7308 19.9763 17.7308 20.1716 17.5355L23.3536 14.3536ZM3 14.5H23V13.5H3V14.5Z" fill="black"/>
<defs>
<radialGradient id="paint0_radial_571_847" cx="0" cy="0" r="1" gradientUnits="userSpaceOnUse" gradientTransform="translate(312.5 13.5) rotate(90) scale(12.5)">
<stop offset="0.171875"/>
<stop offset="0.171975" stop-color="white"/>
</radialGradient>
<radialGradient id="paint1_radial_571_847" cx="0" cy="0" r="1" gradientUnits="userSpaceOnUse" gradientTransform="translate(287.5 13.5) rotate(90) scale(12.5)">
<stop offset="0.171875"/>
<stop offset="0.171975" stop-color="white"/>
</radialGradient>
<radialGradient id="paint2_radial_571_847" cx="0" cy="0" r="1" gradientUnits="userSpaceOnUse" gradientTransform="translate(262.5 13.5) rotate(90) scale(12.5)">
<stop offset="0.171875"/>
<stop offset="0.171975" stop-color="white"/>
</radialGradient>
<radialGradient id="paint3_radial_571_847" cx="0" cy="0" r="1" gradientUnits="userSpaceOnUse" gradientTransform="translate(237.5 13.5) rotate(90) scale(12.5)">
<stop offset="0.171875"/>
<stop offset="0.171975" stop-color="white"/>
</radialGradient>
<radialGradient id="paint4_radial_571_847" cx="0" cy="0" r="1" gradientUnits="userSpaceOnUse" gradientTransform="translate(212.5 13.5) rotate(90) scale(12.5)">
<stop offset="0.171875"/>
<stop offset="0.171975" stop-color="white"/>
</radialGradient>
<linearGradient id="paint5_linear_571_847" x1="187.5" y1="1" x2="187.5" y2="26" gradientUnits="userSpaceOnUse">
<stop offset="0.255208" stop-color="#DDB078"/>
<stop offset="0.598958" stop-color="#F4D6B1"/>
</linearGradient>
<radialGradient id="paint6_radial_571_847" cx="0" cy="0" r="1" gradientUnits="userSpaceOnUse" gradientTransform="translate(162.5 13.5) rotate(90) scale(12.5)">
<stop offset="0.171875"/>
<stop offset="0.171975" stop-color="white"/>
</radialGradient>
<radialGradient id="paint7_radial_571_847" cx="0" cy="0" r="1" gradientUnits="userSpaceOnUse" gradientTransform="translate(62.5 13.5) rotate(90) scale(12.5)">
<stop offset="0.171875"/>
<stop offset="0.171975" stop-color="white"/>
</radialGradient>
<radialGradient id="paint8_radial_571_847" cx="0" cy="0" r="1" gradientUnits="userSpaceOnUse" gradientTransform="translate(87.5 13.5) rotate(90) scale(12.5)">
<stop offset="0.171875"/>
<stop offset="0.171975" stop-color="white"/>
</radialGradient>
<linearGradient id="paint9_linear_571_847" x1="112.5" y1="1" x2="112.5" y2="26" gradientUnits="userSpaceOnUse">
<stop offset="0.255208" stop-color="#DDB078"/>
<stop offset="0.598958" stop-color="#F4D6B1"/>
</linearGradient>
<radialGradient id="paint10_radial_571_847" cx="0" cy="0" r="1" gradientUnits="userSpaceOnUse" gradientTransform="translate(37.5 13.5) rotate(90) scale(12.5)">
<stop offset="0.171875"/>
<stop offset="0.171975" stop-color="white"/>
</radialGradient>
<linearGradient id="paint11_linear_571_847" x1="12.5" y1="1" x2="12.5" y2="26" gradientUnits="userSpaceOnUse">
<stop offset="0.255208" stop-color="#DDB078"/>
<stop offset="0.598958" stop-color="#F4D6B1"/>
</linearGradient>
<linearGradient id="paint12_linear_571_847" x1="12.5" y1="1" x2="12.5" y2="26" gradientUnits="userSpaceOnUse">
<stop offset="0.255208" stop-color="#DDB078"/>
<stop offset="0.598958" stop-color="#F4D6B1"/>
</linearGradient>
<linearGradient id="paint13_linear_571_847" x1="137.5" y1="1" x2="137.5" y2="26" gradientUnits="userSpaceOnUse">
<stop offset="0.255208" stop-color="#DDB078"/>
<stop offset="0.598958" stop-color="#F4D6B1"/>
</linearGradient>
<linearGradient id="paint14_linear_571_847" x1="137.5" y1="1" x2="137.5" y2="26" gradientUnits="userSpaceOnUse">
<stop offset="0.255208" stop-color="#DDB078"/>
<stop offset="0.598958" stop-color="#F4D6B1"/>
</linearGradient>
</defs>
</svg>
