<svg width="325" height="25" viewBox="0 0 325 25" fill="none" xmlns="http://www.w3.org/2000/svg">
<path d="M300.1 0.1H324.9V24.25C324.9 24.2654 324.893 24.2918 324.854 24.3296C324.815 24.3676 324.752 24.4091 324.663 24.4515C324.484 24.5362 324.218 24.6151 323.882 24.6823C323.212 24.8164 322.281 24.9 321.25 24.9H303.75C302.719 24.9 301.788 24.8164 301.118 24.6823C300.782 24.6151 300.516 24.5362 300.337 24.4515C300.248 24.4091 300.185 24.3676 300.146 24.3296C300.107 24.2918 300.1 24.2654 300.1 24.25V0.1Z" fill="#2998FF" stroke="black" stroke-width="0.2"/>
<path d="M175.1 0.1H199.9V24.25C199.9 24.2654 199.893 24.2918 199.854 24.3296C199.815 24.3676 199.752 24.4091 199.663 24.4515C199.484 24.5362 199.218 24.6151 198.882 24.6823C198.212 24.8164 197.281 24.9 196.25 24.9H178.75C177.719 24.9 176.788 24.8164 176.118 24.6823C175.782 24.6151 175.516 24.5362 175.337 24.4515C175.248 24.4091 175.185 24.3676 175.146 24.3296C175.107 24.2918 175.1 24.2654 175.1 24.25V0.1Z" fill="#2998FF" stroke="black" stroke-width="0.2"/>
<path d="M250.1 0.1H274.9V24.25C274.9 24.2654 274.893 24.2918 274.854 24.3296C274.815 24.3676 274.752 24.4091 274.663 24.4515C274.484 24.5362 274.218 24.6151 273.882 24.6823C273.212 24.8164 272.281 24.9 271.25 24.9H253.75C252.719 24.9 251.788 24.8164 251.118 24.6823C250.782 24.6151 250.516 24.5362 250.337 24.4515C250.248 24.4091 250.185 24.3676 250.146 24.3296C250.107 24.2918 250.1 24.2654 250.1 24.25V0.1Z" fill="#2998FF" stroke="black" stroke-width="0.2"/>
<path d="M275.1 0.1H299.9V24.25C299.9 24.2654 299.893 24.2918 299.854 24.3296C299.815 24.3676 299.752 24.4091 299.663 24.4515C299.484 24.5362 299.218 24.6151 298.882 24.6823C298.212 24.8164 297.281 24.9 296.25 24.9H278.75C277.719 24.9 276.788 24.8164 276.118 24.6823C275.782 24.6151 275.516 24.5362 275.337 24.4515C275.248 24.4091 275.185 24.3676 275.146 24.3296C275.107 24.2918 275.1 24.2654 275.1 24.25V0.1Z" fill="url(#paint0_radial_403_351)" stroke="black" stroke-width="0.2"/>
<path d="M225.1 0.1H249.9V24.25C249.9 24.2654 249.893 24.2918 249.854 24.3296C249.815 24.3676 249.752 24.4091 249.663 24.4515C249.484 24.5362 249.218 24.6151 248.882 24.6823C248.212 24.8164 247.281 24.9 246.25 24.9H228.75C227.719 24.9 226.788 24.8164 226.118 24.6823C225.782 24.6151 225.516 24.5362 225.337 24.4515C225.248 24.4091 225.185 24.3676 225.146 24.3296C225.107 24.2918 225.1 24.2654 225.1 24.25V0.1Z" fill="#2998FF" stroke="black" stroke-width="0.2"/>
<path d="M0.1 0.1H24.9V24.25C24.9 24.2654 24.8926 24.2918 24.8539 24.3296C24.815 24.3676 24.7523 24.4091 24.6626 24.4515C24.4835 24.5362 24.2181 24.6151 23.882 24.6823C23.2116 24.8164 22.281 24.9 21.25 24.9H3.75C2.719 24.9 1.78838 24.8164 1.11796 24.6823C0.781929 24.6151 0.516476 24.5362 0.337441 24.4515C0.24767 24.4091 0.184964 24.3676 0.146084 24.3296C0.107371 24.2918 0.1 24.2654 0.1 24.25V0.1Z" fill="#FFE600" stroke="black" stroke-width="0.2"/>
<path d="M200.1 0.1H224.9V24.25C224.9 24.2654 224.893 24.2918 224.854 24.3296C224.815 24.3676 224.752 24.4091 224.663 24.4515C224.484 24.5362 224.218 24.6151 223.882 24.6823C223.212 24.8164 222.281 24.9 221.25 24.9H203.75C202.719 24.9 201.788 24.8164 201.118 24.6823C200.782 24.6151 200.516 24.5362 200.337 24.4515C200.248 24.4091 200.185 24.3676 200.146 24.3296C200.107 24.2918 200.1 24.2654 200.1 24.25V0.1Z" fill="url(#paint1_radial_403_351)" stroke="black" stroke-width="0.2"/>
<path d="M25.1 0.1H49.9V24.25C49.9 24.2654 49.8926 24.2918 49.8539 24.3296C49.815 24.3676 49.7523 24.4091 49.6626 24.4515C49.4835 24.5362 49.2181 24.6151 48.882 24.6823C48.2116 24.8164 47.281 24.9 46.25 24.9H28.75C27.719 24.9 26.7884 24.8164 26.118 24.6823C25.7819 24.6151 25.5165 24.5362 25.3374 24.4515C25.2477 24.4091 25.185 24.3676 25.1461 24.3296C25.1074 24.2918 25.1 24.2654 25.1 24.25V0.1Z" fill="url(#paint2_radial_403_351)" stroke="black" stroke-width="0.2"/>
<path d="M75.1 0.1H99.9V24.25C99.9 24.2654 99.8926 24.2918 99.8539 24.3296C99.815 24.3676 99.7523 24.4091 99.6626 24.4515C99.4835 24.5362 99.2181 24.6151 98.882 24.6823C98.2116 24.8164 97.281 24.9 96.25 24.9H78.75C77.719 24.9 76.7884 24.8164 76.118 24.6823C75.7819 24.6151 75.5165 24.5362 75.3374 24.4515C75.2477 24.4091 75.185 24.3676 75.1461 24.3296C75.1074 24.2918 75.1 24.2654 75.1 24.25V0.1Z" fill="url(#paint3_radial_403_351)" stroke="black" stroke-width="0.2"/>
<path d="M150.1 0.1H174.9V24.25C174.9 24.2654 174.893 24.2918 174.854 24.3296C174.815 24.3676 174.752 24.4091 174.663 24.4515C174.484 24.5362 174.218 24.6151 173.882 24.6823C173.212 24.8164 172.281 24.9 171.25 24.9H153.75C152.719 24.9 151.788 24.8164 151.118 24.6823C150.782 24.6151 150.516 24.5362 150.337 24.4515C150.248 24.4091 150.185 24.3676 150.146 24.3296C150.107 24.2918 150.1 24.2654 150.1 24.25V0.1Z" fill="url(#paint4_radial_403_351)" stroke="black" stroke-width="0.2"/>
<path d="M50.1 0.1H74.9V24.25C74.9 24.2654 74.8926 24.2918 74.8539 24.3296C74.815 24.3676 74.7523 24.4091 74.6626 24.4515C74.4835 24.5362 74.2181 24.6151 73.882 24.6823C73.2116 24.8164 72.281 24.9 71.25 24.9H53.75C52.719 24.9 51.7884 24.8164 51.118 24.6823C50.7819 24.6151 50.5165 24.5362 50.3374 24.4515C50.2477 24.4091 50.185 24.3676 50.1461 24.3296C50.1074 24.2918 50.1 24.2654 50.1 24.25V0.1Z" fill="#FFE600" stroke="black" stroke-width="0.2"/>
<path d="M125.1 0.1H149.9V24.25C149.9 24.2654 149.893 24.2918 149.854 24.3296C149.815 24.3676 149.752 24.4091 149.663 24.4515C149.484 24.5362 149.218 24.6151 148.882 24.6823C148.212 24.8164 147.281 24.9 146.25 24.9H128.75C127.719 24.9 126.788 24.8164 126.118 24.6823C125.782 24.6151 125.516 24.5362 125.337 24.4515C125.248 24.4091 125.185 24.3676 125.146 24.3296C125.107 24.2918 125.1 24.2654 125.1 24.25V0.1Z" fill="#FFE600" stroke="black" stroke-width="0.2"/>
<path d="M100.1 0.1H124.9V24.25C124.9 24.2654 124.893 24.2918 124.854 24.3296C124.815 24.3676 124.752 24.4091 124.663 24.4515C124.484 24.5362 124.218 24.6151 123.882 24.6823C123.212 24.8164 122.281 24.9 121.25 24.9H103.75C102.719 24.9 101.788 24.8164 101.118 24.6823C100.782 24.6151 100.516 24.5362 100.337 24.4515C100.248 24.4091 100.185 24.3676 100.146 24.3296C100.107 24.2918 100.1 24.2654 100.1 24.25V0.1Z" fill="#FFE600" stroke="black" stroke-width="0.2"/>
<path d="M13.9716 8.27273V17H12.9148V9.38068H12.8636L10.733 10.7955V9.72159L12.9148 8.27273H13.9716Z" fill="white"/>
<path d="M59.9034 17V16.233L62.7841 13.0795C63.1222 12.7102 63.4006 12.3892 63.6193 12.1165C63.8381 11.8409 64 11.5824 64.1051 11.3409C64.2131 11.0966 64.267 10.8409 64.267 10.5739C64.267 10.267 64.1932 10.0014 64.0455 9.77699C63.9006 9.55256 63.7017 9.37926 63.4489 9.2571C63.196 9.13494 62.9119 9.07386 62.5966 9.07386C62.2614 9.07386 61.9688 9.14347 61.7188 9.28267C61.4716 9.41903 61.2798 9.6108 61.1435 9.85795C61.0099 10.1051 60.9432 10.3949 60.9432 10.7273H59.9375C59.9375 10.2159 60.0554 9.76705 60.2912 9.38068C60.527 8.99432 60.848 8.69318 61.2543 8.47727C61.6634 8.26136 62.1222 8.15341 62.6307 8.15341C63.142 8.15341 63.5952 8.26136 63.9901 8.47727C64.3849 8.69318 64.6946 8.98437 64.919 9.35085C65.1435 9.71733 65.2557 10.125 65.2557 10.5739C65.2557 10.8949 65.1974 11.2088 65.081 11.5156C64.9673 11.8196 64.7685 12.1591 64.4844 12.5341C64.2031 12.9062 63.8125 13.3608 63.3125 13.8977L61.3523 15.9943V16.0625H65.4091V17H59.9034Z" fill="white"/>
<path d="M112.852 17.1193C112.29 17.1193 111.788 17.0227 111.348 16.8295C110.911 16.6364 110.563 16.3679 110.304 16.0241C110.048 15.6776 109.909 15.2756 109.886 14.8182H110.96C110.983 15.0994 111.08 15.3423 111.25 15.5469C111.42 15.7486 111.643 15.9048 111.919 16.0156C112.195 16.1264 112.5 16.1818 112.835 16.1818C113.21 16.1818 113.543 16.1165 113.832 15.9858C114.122 15.8551 114.349 15.6733 114.514 15.4403C114.679 15.2074 114.761 14.9375 114.761 14.6307C114.761 14.3097 114.682 14.027 114.523 13.7827C114.364 13.5355 114.131 13.3423 113.824 13.2031C113.517 13.0639 113.142 12.9943 112.699 12.9943H112V12.0568H112.699C113.045 12.0568 113.349 11.9943 113.611 11.8693C113.875 11.7443 114.081 11.5682 114.229 11.3409C114.379 11.1136 114.455 10.8466 114.455 10.5398C114.455 10.2443 114.389 9.98722 114.259 9.76847C114.128 9.54972 113.943 9.37926 113.705 9.2571C113.469 9.13494 113.19 9.07386 112.869 9.07386C112.568 9.07386 112.284 9.12926 112.017 9.24006C111.753 9.34801 111.537 9.50568 111.369 9.71307C111.202 9.91761 111.111 10.1648 111.097 10.4545H110.074C110.091 9.99716 110.229 9.59659 110.487 9.25284C110.746 8.90625 111.084 8.63636 111.501 8.44318C111.922 8.25 112.384 8.15341 112.886 8.15341C113.426 8.15341 113.889 8.26278 114.276 8.48153C114.662 8.69744 114.959 8.98295 115.166 9.33807C115.374 9.69318 115.477 10.0767 115.477 10.4886C115.477 10.9801 115.348 11.3991 115.089 11.7457C114.834 12.0923 114.486 12.3324 114.045 12.4659V12.5341C114.597 12.625 115.027 12.8594 115.337 13.2372C115.646 13.6122 115.801 14.0767 115.801 14.6307C115.801 15.1051 115.672 15.5312 115.413 15.9091C115.158 16.2841 114.808 16.5795 114.365 16.7955C113.922 17.0114 113.418 17.1193 112.852 17.1193Z" fill="white"/>
<path d="M134.699 15.2102V14.3409L138.534 8.27273H139.165V9.61932H138.739L135.841 14.2045V14.2727H141.006V15.2102H134.699ZM138.807 17V14.946V14.5412V8.27273H139.812V17H138.807Z" fill="white"/>
<path d="M187.631 17.1193C187.131 17.1193 186.68 17.0199 186.28 16.821C185.879 16.6222 185.558 16.3494 185.317 16.0028C185.075 15.6562 184.943 15.2614 184.92 14.8182H185.943C185.983 15.2131 186.162 15.5398 186.48 15.7983C186.801 16.054 187.185 16.1818 187.631 16.1818C187.989 16.1818 188.307 16.098 188.585 15.9304C188.866 15.7628 189.087 15.5327 189.246 15.2401C189.408 14.9446 189.489 14.6108 189.489 14.2386C189.489 13.858 189.405 13.5185 189.237 13.2202C189.072 12.919 188.845 12.6818 188.555 12.5085C188.266 12.3352 187.935 12.2472 187.562 12.2443C187.295 12.2415 187.021 12.2827 186.74 12.3679C186.459 12.4503 186.227 12.5568 186.045 12.6875L185.057 12.5682L185.585 8.27273H190.119V9.21023H186.472L186.165 11.7841H186.216C186.395 11.642 186.619 11.5241 186.889 11.4304C187.159 11.3366 187.44 11.2898 187.733 11.2898C188.267 11.2898 188.743 11.4176 189.161 11.6733C189.581 11.9261 189.911 12.2727 190.149 12.7131C190.391 13.1534 190.511 13.6562 190.511 14.2216C190.511 14.7784 190.386 15.2756 190.136 15.7131C189.889 16.1477 189.548 16.4915 189.114 16.7443C188.679 16.9943 188.185 17.1193 187.631 17.1193Z" fill="white"/>
<path d="M237.801 17.1193C237.443 17.1136 237.085 17.0455 236.727 16.9148C236.369 16.7841 236.043 16.5639 235.747 16.2543C235.452 15.9418 235.214 15.5199 235.036 14.9886C234.857 14.4545 234.767 13.7841 234.767 12.9773C234.767 12.2045 234.839 11.5199 234.984 10.9233C235.129 10.3239 235.339 9.8196 235.615 9.41051C235.891 8.99858 236.223 8.68608 236.612 8.47301C237.004 8.25994 237.446 8.15341 237.938 8.15341C238.426 8.15341 238.861 8.25142 239.241 8.44744C239.625 8.64062 239.938 8.91051 240.179 9.2571C240.42 9.60369 240.577 10.0028 240.648 10.4545H239.608C239.511 10.0625 239.324 9.73722 239.045 9.47869C238.767 9.22017 238.398 9.09091 237.938 9.09091C237.261 9.09091 236.729 9.38494 236.339 9.97301C235.953 10.5611 235.759 11.3864 235.756 12.4489H235.824C235.983 12.2074 236.172 12.0014 236.391 11.831C236.612 11.6577 236.857 11.5241 237.124 11.4304C237.391 11.3366 237.673 11.2898 237.972 11.2898C238.472 11.2898 238.929 11.4148 239.344 11.6648C239.759 11.9119 240.091 12.2543 240.341 12.6918C240.591 13.1264 240.716 13.625 240.716 14.1875C240.716 14.7273 240.595 15.2216 240.354 15.6705C240.112 16.1165 239.773 16.4716 239.335 16.7358C238.901 16.9972 238.389 17.125 237.801 17.1193ZM237.801 16.1818C238.159 16.1818 238.48 16.0923 238.764 15.9134C239.051 15.7344 239.277 15.4943 239.442 15.1932C239.609 14.892 239.693 14.5568 239.693 14.1875C239.693 13.8267 239.612 13.4986 239.45 13.2031C239.291 12.9048 239.071 12.6676 238.79 12.4915C238.511 12.3153 238.193 12.2273 237.835 12.2273C237.565 12.2273 237.314 12.2812 237.081 12.3892C236.848 12.4943 236.643 12.6392 236.467 12.8239C236.294 13.0085 236.158 13.2202 236.058 13.4588C235.959 13.6946 235.909 13.9432 235.909 14.2045C235.909 14.5511 235.99 14.875 236.152 15.1761C236.317 15.4773 236.541 15.7202 236.825 15.9048C237.112 16.0895 237.438 16.1818 237.801 16.1818Z" fill="white"/>
<path d="M256.057 17V8.27273H257.062V11.4943H257.148C257.222 11.3807 257.324 11.2358 257.455 11.0597C257.588 10.8807 257.778 10.7216 258.026 10.5824C258.276 10.4403 258.614 10.3693 259.04 10.3693C259.591 10.3693 260.077 10.5071 260.497 10.7827C260.918 11.0582 261.246 11.4489 261.482 11.9545C261.717 12.4602 261.835 13.0568 261.835 13.7443C261.835 14.4375 261.717 15.0384 261.482 15.5469C261.246 16.0526 260.919 16.4446 260.501 16.723C260.084 16.9986 259.602 17.1364 259.057 17.1364C258.636 17.1364 258.3 17.0668 258.047 16.9276C257.794 16.7855 257.599 16.625 257.463 16.446C257.327 16.2642 257.222 16.1136 257.148 15.9943H257.028V17H256.057ZM257.045 13.7273C257.045 14.2216 257.118 14.6577 257.263 15.0355C257.408 15.4105 257.619 15.7045 257.898 15.9176C258.176 16.1278 258.517 16.233 258.92 16.233C259.341 16.233 259.692 16.1222 259.973 15.9006C260.257 15.6761 260.47 15.375 260.612 14.9972C260.757 14.6165 260.83 14.1932 260.83 13.7273C260.83 13.267 260.759 12.8523 260.616 12.483C260.477 12.1108 260.266 11.8168 259.982 11.6009C259.7 11.3821 259.347 11.2727 258.92 11.2727C258.511 11.2727 258.168 11.3764 257.889 11.5838C257.611 11.7884 257.401 12.0753 257.259 12.4446C257.116 12.8111 257.045 13.2386 257.045 13.7273ZM263.629 17L267.533 9.27841V9.21023H263.033V8.27273H268.624V9.26136L264.737 17H263.629Z" fill="white"/>
<path d="M312.972 8.27273V17H311.915V9.38068H311.864L309.733 10.7955V9.72159L311.915 8.27273H312.972Z" fill="white"/>
<defs>
<radialGradient id="paint0_radial_403_351" cx="0" cy="0" r="1" gradientUnits="userSpaceOnUse" gradientTransform="translate(287.5 12.5) rotate(90) scale(12.5)">
<stop offset="0.171875"/>
<stop offset="0.171975" stop-color="white"/>
</radialGradient>
<radialGradient id="paint1_radial_403_351" cx="0" cy="0" r="1" gradientUnits="userSpaceOnUse" gradientTransform="translate(212.5 12.5) rotate(90) scale(12.5)">
<stop offset="0.171875"/>
<stop offset="0.171975" stop-color="white"/>
</radialGradient>
<radialGradient id="paint2_radial_403_351" cx="0" cy="0" r="1" gradientUnits="userSpaceOnUse" gradientTransform="translate(37.5 12.5) rotate(90) scale(12.5)">
<stop offset="0.171875"/>
<stop offset="0.171975" stop-color="white"/>
</radialGradient>
<radialGradient id="paint3_radial_403_351" cx="0" cy="0" r="1" gradientUnits="userSpaceOnUse" gradientTransform="translate(87.5 12.5) rotate(90) scale(12.5)">
<stop offset="0.171875"/>
<stop offset="0.171975" stop-color="white"/>
</radialGradient>
<radialGradient id="paint4_radial_403_351" cx="0" cy="0" r="1" gradientUnits="userSpaceOnUse" gradientTransform="translate(162.5 12.5) rotate(90) scale(12.5)">
<stop offset="0.171875"/>
<stop offset="0.171975" stop-color="white"/>
</radialGradient>
</defs>
</svg>
