<svg width="536" height="27" viewBox="0 0 536 27" fill="none" xmlns="http://www.w3.org/2000/svg">
<path d="M406.1 1.1H430.9V25.25C430.9 25.2654 430.893 25.2918 430.854 25.3296C430.815 25.3676 430.752 25.4091 430.663 25.4515C430.484 25.5362 430.218 25.6151 429.882 25.6823C429.212 25.8164 428.281 25.9 427.25 25.9H409.75C408.719 25.9 407.788 25.8164 407.118 25.6823C406.782 25.6151 406.516 25.5362 406.337 25.4515C406.248 25.4091 406.185 25.3676 406.146 25.3296C406.107 25.2918 406.1 25.2654 406.1 25.25V1.1Z" fill="white" stroke="black" stroke-width="0.2"/>
<path d="M419.31 10.7273V18H418.429V11.6506H418.386L416.611 12.8295V11.9347L418.429 10.7273H419.31Z" fill="black"/>
<path d="M356.1 1.1H380.9V25.25C380.9 25.2654 380.893 25.2918 380.854 25.3296C380.815 25.3676 380.752 25.4091 380.663 25.4515C380.484 25.5362 380.218 25.6151 379.882 25.6823C379.212 25.8164 378.281 25.9 377.25 25.9H359.75C358.719 25.9 357.788 25.8164 357.118 25.6823C356.782 25.6151 356.516 25.5362 356.337 25.4515C356.248 25.4091 356.185 25.3676 356.146 25.3296C356.107 25.2918 356.1 25.2654 356.1 25.25V1.1Z" fill="url(#paint0_radial_1083_336)" stroke="black" stroke-width="0.2"/>
<path d="M381.1 1.1H405.9V25.25C405.9 25.2654 405.893 25.2918 405.854 25.3296C405.815 25.3676 405.752 25.4091 405.663 25.4515C405.484 25.5362 405.218 25.6151 404.882 25.6823C404.212 25.8164 403.281 25.9 402.25 25.9H384.75C383.719 25.9 382.788 25.8164 382.118 25.6823C381.782 25.6151 381.516 25.5362 381.337 25.4515C381.248 25.4091 381.185 25.3676 381.146 25.3296C381.107 25.2918 381.1 25.2654 381.1 25.25V1.1Z" fill="url(#paint1_radial_1083_336)" stroke="black" stroke-width="0.2"/>
<path d="M306.1 1.1H330.9V25.25C330.9 25.2654 330.893 25.2918 330.854 25.3296C330.815 25.3676 330.752 25.4091 330.663 25.4515C330.484 25.5362 330.218 25.6151 329.882 25.6823C329.212 25.8164 328.281 25.9 327.25 25.9H309.75C308.719 25.9 307.788 25.8164 307.118 25.6823C306.782 25.6151 306.516 25.5362 306.337 25.4515C306.248 25.4091 306.185 25.3676 306.146 25.3296C306.107 25.2918 306.1 25.2654 306.1 25.25V1.1Z" fill="url(#paint2_radial_1083_336)" stroke="black" stroke-width="0.2"/>
<path d="M256.1 1.1H280.9V25.25C280.9 25.2654 280.893 25.2918 280.854 25.3296C280.815 25.3676 280.752 25.4091 280.663 25.4515C280.484 25.5362 280.218 25.6151 279.882 25.6823C279.212 25.8164 278.281 25.9 277.25 25.9H259.75C258.719 25.9 257.788 25.8164 257.118 25.6823C256.782 25.6151 256.516 25.5362 256.337 25.4515C256.248 25.4091 256.185 25.3676 256.146 25.3296C256.107 25.2918 256.1 25.2654 256.1 25.25V1.1Z" fill="url(#paint3_radial_1083_336)" stroke="black" stroke-width="0.2"/>
<path d="M231.1 1.1H255.9V25.25C255.9 25.2654 255.893 25.2918 255.854 25.3296C255.815 25.3676 255.752 25.4091 255.663 25.4515C255.484 25.5362 255.218 25.6151 254.882 25.6823C254.212 25.8164 253.281 25.9 252.25 25.9H234.75C233.719 25.9 232.788 25.8164 232.118 25.6823C231.782 25.6151 231.516 25.5362 231.337 25.4515C231.248 25.4091 231.185 25.3676 231.146 25.3296C231.107 25.2918 231.1 25.2654 231.1 25.25V1.1Z" fill="url(#paint4_radial_1083_336)" stroke="black" stroke-width="0.2"/>
<path d="M181.1 1.1H205.9V25.25C205.9 25.2654 205.893 25.2918 205.854 25.3296C205.815 25.3676 205.752 25.4091 205.663 25.4515C205.484 25.5362 205.218 25.6151 204.882 25.6823C204.212 25.8164 203.281 25.9 202.25 25.9H184.75C183.719 25.9 182.788 25.8164 182.118 25.6823C181.782 25.6151 181.516 25.5362 181.337 25.4515C181.248 25.4091 181.185 25.3676 181.146 25.3296C181.107 25.2918 181.1 25.2654 181.1 25.25V1.1Z" fill="url(#paint5_radial_1083_336)" stroke="black" stroke-width="0.2"/>
<path d="M206.1 1.1H230.9V25.25C230.9 25.2654 230.893 25.2918 230.854 25.3296C230.815 25.3676 230.752 25.4091 230.663 25.4515C230.484 25.5362 230.218 25.6151 229.882 25.6823C229.212 25.8164 228.281 25.9 227.25 25.9H209.75C208.719 25.9 207.788 25.8164 207.118 25.6823C206.782 25.6151 206.516 25.5362 206.337 25.4515C206.248 25.4091 206.185 25.3676 206.146 25.3296C206.107 25.2918 206.1 25.2654 206.1 25.25V1.1Z" fill="url(#paint6_linear_1083_336)" stroke="black" stroke-width="0.2"/>
<path d="M219.21 18.0994C218.741 18.0994 218.324 18.0189 217.957 17.858C217.592 17.697 217.302 17.4732 217.087 17.1868C216.874 16.898 216.758 16.563 216.739 16.1818H217.634C217.652 16.4162 217.733 16.6186 217.875 16.7891C218.017 16.9571 218.203 17.0874 218.433 17.1797C218.662 17.272 218.917 17.3182 219.196 17.3182C219.509 17.3182 219.786 17.2637 220.027 17.1548C220.268 17.0459 220.458 16.8944 220.595 16.7003C220.732 16.5062 220.801 16.2812 220.801 16.0256C220.801 15.758 220.735 15.5225 220.602 15.3189C220.47 15.1129 220.276 14.9519 220.02 14.8359C219.764 14.7199 219.452 14.6619 219.082 14.6619H218.5V13.8807H219.082C219.371 13.8807 219.625 13.8286 219.842 13.7244C220.063 13.6203 220.234 13.4735 220.357 13.2841C220.483 13.0947 220.545 12.8722 220.545 12.6165C220.545 12.3703 220.491 12.156 220.382 11.9737C220.273 11.7914 220.119 11.6494 219.92 11.5476C219.724 11.4458 219.492 11.3949 219.224 11.3949C218.973 11.3949 218.737 11.4411 218.514 11.5334C218.294 11.6233 218.114 11.7547 217.974 11.9276C217.835 12.098 217.759 12.304 217.747 12.5455H216.895C216.909 12.1643 217.024 11.8305 217.239 11.544C217.455 11.2552 217.737 11.0303 218.085 10.8693C218.435 10.7083 218.82 10.6278 219.239 10.6278C219.688 10.6278 220.074 10.719 220.396 10.9013C220.718 11.0812 220.966 11.3191 221.138 11.6151C221.311 11.911 221.398 12.2306 221.398 12.5739C221.398 12.9834 221.29 13.3326 221.075 13.6214C220.862 13.9103 220.571 14.1103 220.205 14.2216V14.2784C220.664 14.3542 221.022 14.5495 221.281 14.8643C221.539 15.1768 221.668 15.5639 221.668 16.0256C221.668 16.4209 221.56 16.776 221.344 17.0909C221.131 17.4034 220.84 17.6496 220.471 17.8295C220.102 18.0095 219.681 18.0994 219.21 18.0994Z" fill="black"/>
<path d="M281.1 1.1H305.9V25.25C305.9 25.2654 305.893 25.2918 305.854 25.3296C305.815 25.3676 305.752 25.4091 305.663 25.4515C305.484 25.5362 305.218 25.6151 304.882 25.6823C304.212 25.8164 303.281 25.9 302.25 25.9H284.75C283.719 25.9 282.788 25.8164 282.118 25.6823C281.782 25.6151 281.516 25.5362 281.337 25.4515C281.248 25.4091 281.185 25.3676 281.146 25.3296C281.107 25.2918 281.1 25.2654 281.1 25.25V1.1Z" fill="url(#paint7_linear_1083_336)" stroke="black" stroke-width="0.2"/>
<path d="M294.026 18.0994C293.609 18.0994 293.234 18.0166 292.9 17.8509C292.566 17.6851 292.299 17.4579 292.097 17.169C291.896 16.8802 291.786 16.5511 291.767 16.1818H292.619C292.652 16.5109 292.802 16.7831 293.067 16.9986C293.334 17.2116 293.654 17.3182 294.026 17.3182C294.324 17.3182 294.589 17.2483 294.821 17.1087C295.055 16.969 295.239 16.7772 295.371 16.5334C295.506 16.2872 295.574 16.009 295.574 15.6989C295.574 15.3816 295.504 15.0987 295.364 14.8501C295.227 14.5992 295.038 14.4015 294.796 14.2571C294.555 14.1127 294.279 14.0393 293.969 14.0369C293.746 14.0346 293.518 14.0689 293.283 14.1399C293.049 14.2086 292.856 14.2973 292.705 14.4062L291.881 14.3068L292.321 10.7273H296.099V11.5085H293.06L292.804 13.6534H292.847C292.996 13.535 293.183 13.4368 293.408 13.3587C293.633 13.2805 293.867 13.2415 294.111 13.2415C294.556 13.2415 294.952 13.348 295.3 13.5611C295.651 13.7718 295.925 14.0606 296.124 14.4276C296.326 14.7945 296.426 15.2135 296.426 15.6847C296.426 16.1487 296.322 16.563 296.114 16.9276C295.908 17.2898 295.624 17.5762 295.261 17.7869C294.899 17.9953 294.487 18.0994 294.026 18.0994Z" fill="black"/>
<path d="M331.1 1.1H355.9V25.25C355.9 25.2654 355.893 25.2918 355.854 25.3296C355.815 25.3676 355.752 25.4091 355.663 25.4515C355.484 25.5362 355.218 25.6151 354.882 25.6823C354.212 25.8164 353.281 25.9 352.25 25.9H334.75C333.719 25.9 332.788 25.8164 332.118 25.6823C331.782 25.6151 331.516 25.5362 331.337 25.4515C331.248 25.4091 331.185 25.3676 331.146 25.3296C331.107 25.2918 331.1 25.2654 331.1 25.25V1.1Z" fill="url(#paint8_linear_1083_336)" stroke="black" stroke-width="0.2"/>
<path d="M344.168 18.0994C343.869 18.0947 343.571 18.0379 343.273 17.929C342.974 17.8201 342.702 17.6366 342.456 17.3786C342.21 17.1181 342.012 16.7666 341.863 16.3239C341.714 15.8788 341.639 15.3201 341.639 14.6477C341.639 14.0038 341.7 13.4332 341.82 12.9361C341.941 12.4366 342.116 12.0163 342.346 11.6754C342.576 11.3321 342.853 11.0717 343.177 10.8942C343.504 10.7166 343.872 10.6278 344.281 10.6278C344.688 10.6278 345.051 10.7095 345.368 10.8729C345.688 11.0339 345.948 11.2588 346.149 11.5476C346.35 11.8364 346.481 12.169 346.54 12.5455H345.673C345.593 12.2187 345.437 11.9477 345.205 11.7322C344.973 11.5168 344.665 11.4091 344.281 11.4091C343.718 11.4091 343.274 11.6541 342.95 12.1442C342.628 12.6342 342.465 13.322 342.463 14.2074H342.52C342.652 14.0062 342.81 13.8345 342.992 13.6925C343.177 13.5481 343.38 13.4368 343.603 13.3587C343.826 13.2805 344.061 13.2415 344.31 13.2415C344.726 13.2415 345.107 13.3456 345.453 13.554C345.799 13.7599 346.076 14.0452 346.284 14.4098C346.492 14.772 346.597 15.1875 346.597 15.6562C346.597 16.1061 346.496 16.518 346.295 16.892C346.094 17.2637 345.811 17.5597 345.446 17.7798C345.084 17.9976 344.658 18.1042 344.168 18.0994ZM344.168 17.3182C344.466 17.3182 344.733 17.2436 344.97 17.0945C345.209 16.9453 345.397 16.7453 345.535 16.4943C345.674 16.2434 345.744 15.964 345.744 15.6562C345.744 15.3556 345.677 15.0821 345.542 14.8359C345.409 14.5874 345.226 14.3897 344.991 14.2429C344.759 14.0961 344.494 14.0227 344.196 14.0227C343.971 14.0227 343.762 14.0677 343.567 14.1577C343.373 14.2453 343.203 14.366 343.056 14.5199C342.912 14.6738 342.798 14.8501 342.715 15.049C342.632 15.2455 342.591 15.4527 342.591 15.6705C342.591 15.9593 342.658 16.2292 342.793 16.4801C342.931 16.7311 343.118 16.9335 343.354 17.0874C343.594 17.2412 343.865 17.3182 344.168 17.3182Z" fill="black"/>
<path d="M156.1 1.1H180.9V25.25C180.9 25.2654 180.893 25.2918 180.854 25.3296C180.815 25.3676 180.752 25.4091 180.663 25.4515C180.484 25.5362 180.218 25.6151 179.882 25.6823C179.212 25.8164 178.281 25.9 177.25 25.9H159.75C158.719 25.9 157.788 25.8164 157.118 25.6823C156.782 25.6151 156.516 25.5362 156.337 25.4515C156.248 25.4091 156.185 25.3676 156.146 25.3296C156.107 25.2918 156.1 25.2654 156.1 25.25V1.1Z" fill="url(#paint9_radial_1083_336)" stroke="black" stroke-width="0.2"/>
<path d="M131.1 1.1H155.9V25.25C155.9 25.2654 155.893 25.2918 155.854 25.3296C155.815 25.3676 155.752 25.4091 155.663 25.4515C155.484 25.5362 155.218 25.6151 154.882 25.6823C154.212 25.8164 153.281 25.9 152.25 25.9H134.75C133.719 25.9 132.788 25.8164 132.118 25.6823C131.782 25.6151 131.516 25.5362 131.337 25.4515C131.248 25.4091 131.185 25.3676 131.146 25.3296C131.107 25.2918 131.1 25.2654 131.1 25.25V1.1Z" fill="url(#paint10_radial_1083_336)" stroke="black" stroke-width="0.2"/>
<path d="M106.1 1.1H130.9V25.25C130.9 25.2654 130.893 25.2918 130.854 25.3296C130.815 25.3676 130.752 25.4091 130.663 25.4515C130.484 25.5362 130.218 25.6151 129.882 25.6823C129.212 25.8164 128.281 25.9 127.25 25.9H109.75C108.719 25.9 107.788 25.8164 107.118 25.6823C106.782 25.6151 106.516 25.5362 106.337 25.4515C106.248 25.4091 106.185 25.3676 106.146 25.3296C106.107 25.2918 106.1 25.2654 106.1 25.25V1.1Z" fill="url(#paint11_linear_1083_336)" stroke="black" stroke-width="0.2"/>
<path d="M106.1 1.1H130.9V25.25C130.9 25.2654 130.893 25.2918 130.854 25.3296C130.815 25.3676 130.752 25.4091 130.663 25.4515C130.484 25.5362 130.218 25.6151 129.882 25.6823C129.212 25.8164 128.281 25.9 127.25 25.9H109.75C108.719 25.9 107.788 25.8164 107.118 25.6823C106.782 25.6151 106.516 25.5362 106.337 25.4515C106.248 25.4091 106.185 25.3676 106.146 25.3296C106.107 25.2918 106.1 25.2654 106.1 25.25V1.1Z" fill="url(#paint12_linear_1083_336)" stroke="black" stroke-width="0.2"/>
<path d="M119.31 10.7273V18H118.429V11.6506H118.386L116.611 12.8295V11.9347L118.429 10.7273H119.31Z" fill="black"/>
<path d="M444.5 1.5H535.5V24.94C535.348 24.9739 535.133 25.0099 534.852 25.046C534.172 25.1334 533.176 25.2134 531.931 25.2811C529.445 25.4162 526.005 25.5 522.2 25.5H457.8C453.995 25.5 450.555 25.4162 448.069 25.2811C446.824 25.2134 445.828 25.1334 445.148 25.046C444.867 25.0099 444.652 24.9739 444.5 24.94V1.5Z" fill="white" stroke="#D6A86F"/>
<path d="M455.881 17V9.72727H460.27V10.5085H456.761V12.7812H458.608C459.129 12.7812 459.568 12.8665 459.925 13.0369C460.285 13.2074 460.558 13.4477 460.742 13.7578C460.929 14.0679 461.023 14.4337 461.023 14.8551C461.023 15.2765 460.929 15.6482 460.742 15.9702C460.558 16.2921 460.285 16.5443 459.925 16.7266C459.568 16.9089 459.129 17 458.608 17H455.881ZM456.761 16.233H458.608C458.939 16.233 459.22 16.1667 459.45 16.0341C459.682 15.8991 459.857 15.7263 459.975 15.5156C460.096 15.3026 460.156 15.0777 460.156 14.8409C460.156 14.4929 460.022 14.1934 459.755 13.9425C459.487 13.6892 459.105 13.5625 458.608 13.5625H456.761V16.233ZM464.802 17.0994C464.333 17.0994 463.915 17.0189 463.548 16.858C463.184 16.697 462.894 16.4732 462.678 16.1868C462.465 15.898 462.349 15.563 462.33 15.1818H463.225C463.244 15.4162 463.325 15.6186 463.467 15.7891C463.609 15.9571 463.795 16.0874 464.024 16.1797C464.254 16.272 464.508 16.3182 464.788 16.3182C465.1 16.3182 465.377 16.2637 465.619 16.1548C465.86 16.0459 466.05 15.8944 466.187 15.7003C466.324 15.5062 466.393 15.2812 466.393 15.0256C466.393 14.758 466.327 14.5225 466.194 14.3189C466.061 14.1129 465.867 13.9519 465.612 13.8359C465.356 13.7199 465.044 13.6619 464.674 13.6619H464.092V12.8807H464.674C464.963 12.8807 465.216 12.8286 465.434 12.7244C465.654 12.6203 465.826 12.4735 465.949 12.2841C466.075 12.0947 466.137 11.8722 466.137 11.6165C466.137 11.3703 466.083 11.156 465.974 10.9737C465.865 10.7914 465.711 10.6494 465.512 10.5476C465.316 10.4458 465.084 10.3949 464.816 10.3949C464.565 10.3949 464.329 10.4411 464.106 10.5334C463.886 10.6233 463.706 10.7547 463.566 10.9276C463.427 11.098 463.351 11.304 463.339 11.5455H462.487C462.501 11.1643 462.616 10.8305 462.831 10.544C463.047 10.2552 463.328 10.0303 463.676 9.86932C464.027 9.70833 464.411 9.62784 464.83 9.62784C465.28 9.62784 465.666 9.71899 465.988 9.90128C466.31 10.0812 466.557 10.3191 466.73 10.6151C466.903 10.911 466.99 11.2306 466.99 11.5739C466.99 11.9834 466.882 12.3326 466.666 12.6214C466.453 12.9103 466.163 13.1103 465.796 13.2216V13.2784C466.256 13.3542 466.614 13.5495 466.872 13.8643C467.13 14.1768 467.259 14.5639 467.259 15.0256C467.259 15.4209 467.152 15.776 466.936 16.0909C466.723 16.4034 466.432 16.6496 466.063 16.8295C465.693 17.0095 465.273 17.0994 464.802 17.0994ZM470.857 16.5028V11.8153H471.652V16.5028H470.857ZM468.911 14.5568V13.7614H473.598V14.5568H468.911ZM478.301 15.8636L480.204 11.5455H481L478.642 17H477.96L475.645 11.5455H476.426L478.301 15.8636ZM476.156 11.5455V17H475.318V11.5455H476.156ZM480.446 17V11.5455H481.284V17H480.446ZM485.261 17.0994C484.792 17.0994 484.374 17.0189 484.007 16.858C483.643 16.697 483.353 16.4732 483.137 16.1868C482.924 15.898 482.808 15.563 482.789 15.1818H483.684C483.703 15.4162 483.784 15.6186 483.926 15.7891C484.068 15.9571 484.254 16.0874 484.483 16.1797C484.713 16.272 484.967 16.3182 485.247 16.3182C485.559 16.3182 485.836 16.2637 486.078 16.1548C486.319 16.0459 486.509 15.8944 486.646 15.7003C486.783 15.5062 486.852 15.2812 486.852 15.0256C486.852 14.758 486.786 14.5225 486.653 14.3189C486.52 14.1129 486.326 13.9519 486.071 13.8359C485.815 13.7199 485.502 13.6619 485.133 13.6619H484.551V12.8807H485.133C485.422 12.8807 485.675 12.8286 485.893 12.7244C486.113 12.6203 486.285 12.4735 486.408 12.2841C486.533 12.0947 486.596 11.8722 486.596 11.6165C486.596 11.3703 486.542 11.156 486.433 10.9737C486.324 10.7914 486.17 10.6494 485.971 10.5476C485.775 10.4458 485.543 10.3949 485.275 10.3949C485.024 10.3949 484.788 10.4411 484.565 10.5334C484.345 10.6233 484.165 10.7547 484.025 10.9276C483.886 11.098 483.81 11.304 483.798 11.5455H482.946C482.96 11.1643 483.075 10.8305 483.29 10.544C483.506 10.2552 483.787 10.0303 484.135 9.86932C484.486 9.70833 484.87 9.62784 485.289 9.62784C485.739 9.62784 486.125 9.71899 486.447 9.90128C486.769 10.0812 487.016 10.3191 487.189 10.6151C487.362 10.911 487.449 11.2306 487.449 11.5739C487.449 11.9834 487.341 12.3326 487.125 12.6214C486.912 12.9103 486.622 13.1103 486.255 13.2216V13.2784C486.715 13.3542 487.073 13.5495 487.331 13.8643C487.589 14.1768 487.718 14.5639 487.718 15.0256C487.718 15.4209 487.611 15.776 487.395 16.0909C487.182 16.4034 486.891 16.6496 486.522 16.8295C486.152 17.0095 485.732 17.0994 485.261 17.0994ZM491.316 15.7216V11.0341H492.111V15.7216H491.316ZM489.37 13.7756V12.9801H494.057V13.7756H489.37ZM495.89 17V9.72727H500.28V10.5085H496.771V12.7812H498.618C499.139 12.7812 499.578 12.8665 499.935 13.0369C500.295 13.2074 500.567 13.4477 500.752 13.7578C500.939 14.0679 501.032 14.4337 501.032 14.8551C501.032 15.2765 500.939 15.6482 500.752 15.9702C500.567 16.2921 500.295 16.5443 499.935 16.7266C499.578 16.9089 499.139 17 498.618 17H495.89ZM496.771 16.233H498.618C498.949 16.233 499.23 16.1667 499.459 16.0341C499.691 15.8991 499.867 15.7263 499.985 15.5156C500.106 15.3026 500.166 15.0777 500.166 14.8409C500.166 14.4929 500.032 14.1934 499.765 13.9425C499.497 13.6892 499.115 13.5625 498.618 13.5625H496.771V16.233ZM502.354 17V16.3608L504.755 13.733C505.037 13.4252 505.269 13.1577 505.451 12.9304C505.633 12.7008 505.768 12.4853 505.856 12.2841C505.946 12.0805 505.991 11.8674 505.991 11.6449C505.991 11.3892 505.929 11.1679 505.806 10.9808C505.685 10.7938 505.52 10.6494 505.309 10.5476C505.098 10.4458 504.862 10.3949 504.599 10.3949C504.319 10.3949 504.076 10.4529 503.867 10.5689C503.661 10.6825 503.501 10.8423 503.388 11.0483C503.277 11.2543 503.221 11.4957 503.221 11.7727H502.383C502.383 11.3466 502.481 10.9725 502.678 10.6506C502.874 10.3286 503.142 10.0777 503.48 9.89773C503.821 9.7178 504.203 9.62784 504.627 9.62784C505.053 9.62784 505.431 9.7178 505.76 9.89773C506.089 10.0777 506.347 10.3203 506.534 10.6257C506.721 10.9311 506.815 11.2708 506.815 11.6449C506.815 11.9124 506.766 12.174 506.669 12.4297C506.574 12.683 506.409 12.9659 506.172 13.2784C505.938 13.5885 505.612 13.9673 505.195 14.4148L503.562 16.1619V16.2188H506.942V17H502.354ZM508.764 12.696V11.929H513.139V12.696H508.764ZM508.764 14.7983V14.0312H513.139V14.7983H508.764ZM515.129 17V9.72727H519.518V10.5085H516.009V12.7812H517.856C518.377 12.7812 518.816 12.8665 519.173 13.0369C519.533 13.2074 519.806 13.4477 519.99 13.7578C520.177 14.0679 520.271 14.4337 520.271 14.8551C520.271 15.2765 520.177 15.6482 519.99 15.9702C519.806 16.2921 519.533 16.5443 519.173 16.7266C518.816 16.9089 518.377 17 517.856 17H515.129ZM516.009 16.233H517.856C518.187 16.233 518.468 16.1667 518.698 16.0341C518.93 15.8991 519.105 15.7263 519.223 15.5156C519.344 15.3026 519.404 15.0777 519.404 14.8409C519.404 14.4929 519.271 14.1934 519.003 13.9425C518.735 13.6892 518.353 13.5625 517.856 13.5625H516.009V16.233ZM524.007 17.0994C523.709 17.0947 523.411 17.0379 523.113 16.929C522.814 16.8201 522.542 16.6366 522.296 16.3786C522.05 16.1181 521.852 15.7666 521.703 15.3239C521.554 14.8788 521.479 14.3201 521.479 13.6477C521.479 13.0038 521.539 12.4332 521.66 11.9361C521.781 11.4366 521.956 11.0163 522.186 10.6754C522.415 10.3321 522.692 10.0717 523.017 9.89418C523.343 9.71662 523.712 9.62784 524.121 9.62784C524.528 9.62784 524.891 9.70952 525.208 9.87287C525.527 10.0339 525.788 10.2588 525.989 10.5476C526.19 10.8364 526.32 11.169 526.38 11.5455H525.513C525.433 11.2187 525.276 10.9477 525.044 10.7322C524.812 10.5168 524.505 10.4091 524.121 10.4091C523.558 10.4091 523.114 10.6541 522.789 11.1442C522.467 11.6342 522.305 12.322 522.303 13.2074H522.36C522.492 13.0062 522.65 12.8345 522.832 12.6925C523.017 12.5481 523.22 12.4368 523.443 12.3587C523.665 12.2805 523.901 12.2415 524.15 12.2415C524.566 12.2415 524.947 12.3456 525.293 12.554C525.639 12.7599 525.916 13.0452 526.124 13.4098C526.332 13.772 526.436 14.1875 526.436 14.6562C526.436 15.1061 526.336 15.518 526.135 15.892C525.933 16.2637 525.65 16.5597 525.286 16.7798C524.924 16.9976 524.498 17.1042 524.007 17.0994ZM524.007 16.3182C524.306 16.3182 524.573 16.2436 524.81 16.0945C525.049 15.9453 525.237 15.7453 525.375 15.4943C525.514 15.2434 525.584 14.964 525.584 14.6562C525.584 14.3556 525.517 14.0821 525.382 13.8359C525.249 13.5874 525.066 13.3897 524.831 13.2429C524.599 13.0961 524.334 13.0227 524.036 13.0227C523.811 13.0227 523.601 13.0677 523.407 13.1577C523.213 13.2453 523.043 13.366 522.896 13.5199C522.752 13.6738 522.638 13.8501 522.555 14.049C522.472 14.2455 522.431 14.4527 522.431 14.6705C522.431 14.9593 522.498 15.2292 522.633 15.4801C522.77 15.7311 522.958 15.9335 523.194 16.0874C523.433 16.2412 523.704 16.3182 524.007 16.3182Z" fill="black"/>
<path d="M1 1H93V25.25C93 25.6642 86.8215 26 79.2 26H14.8C7.17847 26 1 25.6642 1 25.25V1Z" fill="white" stroke="#D6A86F" stroke-miterlimit="16"/>
<path d="M50.644 19H48.808L45.406 13.42L41.95 19H40.24L44.506 12.304L40.51 6.148H42.31L45.46 11.188L48.628 6.148H50.338L46.36 12.268L50.644 19ZM56.3668 5.824C54.0808 6.13 53.5588 6.328 52.6228 7.264C51.6328 8.254 51.1468 9.496 51.1468 11.008C51.1468 12.952 52.2448 14.536 54.0268 14.536C55.5208 14.536 56.6188 13.222 56.6188 11.548C56.6188 10.108 55.7548 8.956 54.3148 8.956C53.7388 8.956 53.1808 9.154 52.6228 9.532C53.0368 7.57 54.0988 6.562 56.4028 6.004L56.3668 5.824ZM55.4668 12.016C55.4668 13.402 55.0168 14.104 54.1348 14.104C52.9288 14.104 52.2988 13.024 52.2988 11.332C52.2988 10.882 52.3528 10.486 52.4428 10.144C52.8028 9.766 53.2528 9.568 53.7748 9.568C54.9088 9.568 55.4668 10.378 55.4668 12.016Z" fill="black"/>
<defs>
<radialGradient id="paint0_radial_1083_336" cx="0" cy="0" r="1" gradientUnits="userSpaceOnUse" gradientTransform="translate(368.5 13.5) rotate(90) scale(12.5)">
<stop offset="0.171875"/>
<stop offset="0.171975" stop-color="white"/>
</radialGradient>
<radialGradient id="paint1_radial_1083_336" cx="0" cy="0" r="1" gradientUnits="userSpaceOnUse" gradientTransform="translate(393.5 13.5) rotate(90) scale(12.5)">
<stop offset="0.171875"/>
<stop offset="0.171975" stop-color="white"/>
</radialGradient>
<radialGradient id="paint2_radial_1083_336" cx="0" cy="0" r="1" gradientUnits="userSpaceOnUse" gradientTransform="translate(318.5 13.5) rotate(90) scale(12.5)">
<stop offset="0.171875"/>
<stop offset="0.171975" stop-color="white"/>
</radialGradient>
<radialGradient id="paint3_radial_1083_336" cx="0" cy="0" r="1" gradientUnits="userSpaceOnUse" gradientTransform="translate(268.5 13.5) rotate(90) scale(12.5)">
<stop offset="0.171875"/>
<stop offset="0.171975" stop-color="white"/>
</radialGradient>
<radialGradient id="paint4_radial_1083_336" cx="0" cy="0" r="1" gradientUnits="userSpaceOnUse" gradientTransform="translate(243.5 13.5) rotate(90) scale(12.5)">
<stop offset="0.171875"/>
<stop offset="0.171975" stop-color="white"/>
</radialGradient>
<radialGradient id="paint5_radial_1083_336" cx="0" cy="0" r="1" gradientUnits="userSpaceOnUse" gradientTransform="translate(193.5 13.5) rotate(90) scale(12.5)">
<stop offset="0.171875"/>
<stop offset="0.171975" stop-color="white"/>
</radialGradient>
<linearGradient id="paint6_linear_1083_336" x1="218.5" y1="1" x2="218.5" y2="26" gradientUnits="userSpaceOnUse">
<stop offset="0.255208" stop-color="#DDB078"/>
<stop offset="0.598958" stop-color="#F4D6B1"/>
</linearGradient>
<linearGradient id="paint7_linear_1083_336" x1="293.5" y1="1" x2="293.5" y2="26" gradientUnits="userSpaceOnUse">
<stop offset="0.255208" stop-color="#DDB078"/>
<stop offset="0.598958" stop-color="#F4D6B1"/>
</linearGradient>
<linearGradient id="paint8_linear_1083_336" x1="343.5" y1="1" x2="343.5" y2="26" gradientUnits="userSpaceOnUse">
<stop offset="0.255208" stop-color="#DDB078"/>
<stop offset="0.598958" stop-color="#F4D6B1"/>
</linearGradient>
<radialGradient id="paint9_radial_1083_336" cx="0" cy="0" r="1" gradientUnits="userSpaceOnUse" gradientTransform="translate(168.5 13.5) rotate(90) scale(12.5)">
<stop offset="0.171875"/>
<stop offset="0.171975" stop-color="white"/>
</radialGradient>
<radialGradient id="paint10_radial_1083_336" cx="0" cy="0" r="1" gradientUnits="userSpaceOnUse" gradientTransform="translate(143.5 13.5) rotate(90) scale(12.5)">
<stop offset="0.171875"/>
<stop offset="0.171975" stop-color="white"/>
</radialGradient>
<linearGradient id="paint11_linear_1083_336" x1="118.5" y1="1" x2="118.5" y2="26" gradientUnits="userSpaceOnUse">
<stop offset="0.255208" stop-color="#DDB078"/>
<stop offset="0.598958" stop-color="#F4D6B1"/>
</linearGradient>
<linearGradient id="paint12_linear_1083_336" x1="118.5" y1="1" x2="118.5" y2="26" gradientUnits="userSpaceOnUse">
<stop offset="0.255208" stop-color="#DDB078"/>
<stop offset="0.598958" stop-color="#F4D6B1"/>
</linearGradient>
</defs>
</svg>
