<svg width="536" height="27" viewBox="0 0 536 27" fill="none" xmlns="http://www.w3.org/2000/svg">
<path d="M406.1 1.1H430.9V25.25C430.9 25.2654 430.893 25.2918 430.854 25.3296C430.815 25.3676 430.752 25.4091 430.663 25.4515C430.484 25.5362 430.218 25.6151 429.882 25.6823C429.212 25.8164 428.281 25.9 427.25 25.9H409.75C408.719 25.9 407.788 25.8164 407.118 25.6823C406.782 25.6151 406.516 25.5362 406.337 25.4515C406.248 25.4091 406.185 25.3676 406.146 25.3296C406.107 25.2918 406.1 25.2654 406.1 25.25V1.1Z" fill="white" stroke="black" stroke-width="0.2"/>
<path d="M419.31 10.7273V18H418.429V11.6506H418.386L416.611 12.8295V11.9347L418.429 10.7273H419.31Z" fill="black"/>
<path d="M356.1 1.1H380.9V25.25C380.9 25.2654 380.893 25.2918 380.854 25.3296C380.815 25.3676 380.752 25.4091 380.663 25.4515C380.484 25.5362 380.218 25.6151 379.882 25.6823C379.212 25.8164 378.281 25.9 377.25 25.9H359.75C358.719 25.9 357.788 25.8164 357.118 25.6823C356.782 25.6151 356.516 25.5362 356.337 25.4515C356.248 25.4091 356.185 25.3676 356.146 25.3296C356.107 25.2918 356.1 25.2654 356.1 25.25V1.1Z" fill="url(#paint0_radial_1083_644)" stroke="black" stroke-width="0.2"/>
<path d="M381.1 1.1H405.9V25.25C405.9 25.2654 405.893 25.2918 405.854 25.3296C405.815 25.3676 405.752 25.4091 405.663 25.4515C405.484 25.5362 405.218 25.6151 404.882 25.6823C404.212 25.8164 403.281 25.9 402.25 25.9H384.75C383.719 25.9 382.788 25.8164 382.118 25.6823C381.782 25.6151 381.516 25.5362 381.337 25.4515C381.248 25.4091 381.185 25.3676 381.146 25.3296C381.107 25.2918 381.1 25.2654 381.1 25.25V1.1Z" fill="url(#paint1_radial_1083_644)" stroke="black" stroke-width="0.2"/>
<path d="M331.1 1.1H355.9V25.25C355.9 25.2654 355.893 25.2918 355.854 25.3296C355.815 25.3676 355.752 25.4091 355.663 25.4515C355.484 25.5362 355.218 25.6151 354.882 25.6823C354.212 25.8164 353.281 25.9 352.25 25.9H334.75C333.719 25.9 332.788 25.8164 332.118 25.6823C331.782 25.6151 331.516 25.5362 331.337 25.4515C331.248 25.4091 331.185 25.3676 331.146 25.3296C331.107 25.2918 331.1 25.2654 331.1 25.25V1.1Z" fill="url(#paint2_radial_1083_644)" stroke="black" stroke-width="0.2"/>
<path d="M306.1 1.1H330.9V25.25C330.9 25.2654 330.893 25.2918 330.854 25.3296C330.815 25.3676 330.752 25.4091 330.663 25.4515C330.484 25.5362 330.218 25.6151 329.882 25.6823C329.212 25.8164 328.281 25.9 327.25 25.9H309.75C308.719 25.9 307.788 25.8164 307.118 25.6823C306.782 25.6151 306.516 25.5362 306.337 25.4515C306.248 25.4091 306.185 25.3676 306.146 25.3296C306.107 25.2918 306.1 25.2654 306.1 25.25V1.1Z" fill="url(#paint3_radial_1083_644)" stroke="black" stroke-width="0.2"/>
<path d="M256.1 1.1H280.9V25.25C280.9 25.2654 280.893 25.2918 280.854 25.3296C280.815 25.3676 280.752 25.4091 280.663 25.4515C280.484 25.5362 280.218 25.6151 279.882 25.6823C279.212 25.8164 278.281 25.9 277.25 25.9H259.75C258.719 25.9 257.788 25.8164 257.118 25.6823C256.782 25.6151 256.516 25.5362 256.337 25.4515C256.248 25.4091 256.185 25.3676 256.146 25.3296C256.107 25.2918 256.1 25.2654 256.1 25.25V1.1Z" fill="url(#paint4_radial_1083_644)" stroke="black" stroke-width="0.2"/>
<path d="M156.1 1.1H180.9V25.25C180.9 25.2654 180.893 25.2918 180.854 25.3296C180.815 25.3676 180.752 25.4091 180.663 25.4515C180.484 25.5362 180.218 25.6151 179.882 25.6823C179.212 25.8164 178.281 25.9 177.25 25.9H159.75C158.719 25.9 157.788 25.8164 157.118 25.6823C156.782 25.6151 156.516 25.5362 156.337 25.4515C156.248 25.4091 156.185 25.3676 156.146 25.3296C156.107 25.2918 156.1 25.2654 156.1 25.25V1.1Z" fill="url(#paint5_radial_1083_644)" stroke="black" stroke-width="0.2"/>
<path d="M181.1 1.1H205.9V25.25C205.9 25.2654 205.893 25.2918 205.854 25.3296C205.815 25.3676 205.752 25.4091 205.663 25.4515C205.484 25.5362 205.218 25.6151 204.882 25.6823C204.212 25.8164 203.281 25.9 202.25 25.9H184.75C183.719 25.9 182.788 25.8164 182.118 25.6823C181.782 25.6151 181.516 25.5362 181.337 25.4515C181.248 25.4091 181.185 25.3676 181.146 25.3296C181.107 25.2918 181.1 25.2654 181.1 25.25V1.1Z" fill="url(#paint6_radial_1083_644)" stroke="black" stroke-width="0.2"/>
<path d="M206.1 1.1H230.9V25.25C230.9 25.2654 230.893 25.2918 230.854 25.3296C230.815 25.3676 230.752 25.4091 230.663 25.4515C230.484 25.5362 230.218 25.6151 229.882 25.6823C229.212 25.8164 228.281 25.9 227.25 25.9H209.75C208.719 25.9 207.788 25.8164 207.118 25.6823C206.782 25.6151 206.516 25.5362 206.337 25.4515C206.248 25.4091 206.185 25.3676 206.146 25.3296C206.107 25.2918 206.1 25.2654 206.1 25.25V1.1Z" fill="url(#paint7_linear_1083_644)" stroke="black" stroke-width="0.2"/>
<path d="M219.21 18.0994C218.741 18.0994 218.324 18.0189 217.957 17.858C217.592 17.697 217.302 17.4732 217.087 17.1868C216.874 16.898 216.758 16.563 216.739 16.1818H217.634C217.652 16.4162 217.733 16.6186 217.875 16.7891C218.017 16.9571 218.203 17.0874 218.433 17.1797C218.662 17.272 218.917 17.3182 219.196 17.3182C219.509 17.3182 219.786 17.2637 220.027 17.1548C220.268 17.0459 220.458 16.8944 220.595 16.7003C220.732 16.5062 220.801 16.2812 220.801 16.0256C220.801 15.758 220.735 15.5225 220.602 15.3189C220.47 15.1129 220.276 14.9519 220.02 14.8359C219.764 14.7199 219.452 14.6619 219.082 14.6619H218.5V13.8807H219.082C219.371 13.8807 219.625 13.8286 219.842 13.7244C220.063 13.6203 220.234 13.4735 220.357 13.2841C220.483 13.0947 220.545 12.8722 220.545 12.6165C220.545 12.3703 220.491 12.156 220.382 11.9737C220.273 11.7914 220.119 11.6494 219.92 11.5476C219.724 11.4458 219.492 11.3949 219.224 11.3949C218.973 11.3949 218.737 11.4411 218.514 11.5334C218.294 11.6233 218.114 11.7547 217.974 11.9276C217.835 12.098 217.759 12.304 217.747 12.5455H216.895C216.909 12.1643 217.024 11.8305 217.239 11.544C217.455 11.2552 217.737 11.0303 218.085 10.8693C218.435 10.7083 218.82 10.6278 219.239 10.6278C219.688 10.6278 220.074 10.719 220.396 10.9013C220.718 11.0812 220.966 11.3191 221.138 11.6151C221.311 11.911 221.398 12.2306 221.398 12.5739C221.398 12.9834 221.29 13.3326 221.075 13.6214C220.862 13.9103 220.571 14.1103 220.205 14.2216V14.2784C220.664 14.3542 221.022 14.5495 221.281 14.8643C221.539 15.1768 221.668 15.5639 221.668 16.0256C221.668 16.4209 221.56 16.776 221.344 17.0909C221.131 17.4034 220.84 17.6496 220.471 17.8295C220.102 18.0095 219.681 18.0994 219.21 18.0994Z" fill="black"/>
<path d="M231.1 1.1H255.9V25.25C255.9 25.2654 255.893 25.2918 255.854 25.3296C255.815 25.3676 255.752 25.4091 255.663 25.4515C255.484 25.5362 255.218 25.6151 254.882 25.6823C254.212 25.8164 253.281 25.9 252.25 25.9H234.75C233.719 25.9 232.788 25.8164 232.118 25.6823C231.782 25.6151 231.516 25.5362 231.337 25.4515C231.248 25.4091 231.185 25.3676 231.146 25.3296C231.107 25.2918 231.1 25.2654 231.1 25.25V1.1Z" fill="url(#paint8_linear_1083_644)" stroke="black" stroke-width="0.2"/>
<path d="M241.582 16.5085V15.7841L244.778 10.7273H245.304V11.8494H244.949L242.534 15.6705V15.7273H246.838V16.5085H241.582ZM245.006 18V16.2884V15.951V10.7273H245.844V18H245.006Z" fill="black"/>
<path d="M281.1 1.1H305.9V25.25C305.9 25.2654 305.893 25.2918 305.854 25.3296C305.815 25.3676 305.752 25.4091 305.663 25.4515C305.484 25.5362 305.218 25.6151 304.882 25.6823C304.212 25.8164 303.281 25.9 302.25 25.9H284.75C283.719 25.9 282.788 25.8164 282.118 25.6823C281.782 25.6151 281.516 25.5362 281.337 25.4515C281.248 25.4091 281.185 25.3676 281.146 25.3296C281.107 25.2918 281.1 25.2654 281.1 25.25V1.1Z" fill="url(#paint9_linear_1083_644)" stroke="black" stroke-width="0.2"/>
<path d="M294.026 18.0994C293.609 18.0994 293.234 18.0166 292.9 17.8509C292.566 17.6851 292.299 17.4579 292.097 17.169C291.896 16.8802 291.786 16.5511 291.767 16.1818H292.619C292.652 16.5109 292.802 16.7831 293.067 16.9986C293.334 17.2116 293.654 17.3182 294.026 17.3182C294.324 17.3182 294.589 17.2483 294.821 17.1087C295.055 16.969 295.239 16.7772 295.371 16.5334C295.506 16.2872 295.574 16.009 295.574 15.6989C295.574 15.3816 295.504 15.0987 295.364 14.8501C295.227 14.5992 295.038 14.4015 294.796 14.2571C294.555 14.1127 294.279 14.0393 293.969 14.0369C293.746 14.0346 293.518 14.0689 293.283 14.1399C293.049 14.2086 292.856 14.2973 292.705 14.4062L291.881 14.3068L292.321 10.7273H296.099V11.5085H293.06L292.804 13.6534H292.847C292.996 13.535 293.183 13.4368 293.408 13.3587C293.633 13.2805 293.867 13.2415 294.111 13.2415C294.556 13.2415 294.952 13.348 295.3 13.5611C295.651 13.7718 295.925 14.0606 296.124 14.4276C296.326 14.7945 296.426 15.2135 296.426 15.6847C296.426 16.1487 296.322 16.563 296.114 16.9276C295.908 17.2898 295.624 17.5762 295.261 17.7869C294.899 17.9953 294.487 18.0994 294.026 18.0994Z" fill="black"/>
<path d="M131.1 1.1H155.9V25.25C155.9 25.2654 155.893 25.2918 155.854 25.3296C155.815 25.3676 155.752 25.4091 155.663 25.4515C155.484 25.5362 155.218 25.6151 154.882 25.6823C154.212 25.8164 153.281 25.9 152.25 25.9H134.75C133.719 25.9 132.788 25.8164 132.118 25.6823C131.782 25.6151 131.516 25.5362 131.337 25.4515C131.248 25.4091 131.185 25.3676 131.146 25.3296C131.107 25.2918 131.1 25.2654 131.1 25.25V1.1Z" fill="url(#paint10_radial_1083_644)" stroke="black" stroke-width="0.2"/>
<path d="M106.1 1.1H130.9V25.25C130.9 25.2654 130.893 25.2918 130.854 25.3296C130.815 25.3676 130.752 25.4091 130.663 25.4515C130.484 25.5362 130.218 25.6151 129.882 25.6823C129.212 25.8164 128.281 25.9 127.25 25.9H109.75C108.719 25.9 107.788 25.8164 107.118 25.6823C106.782 25.6151 106.516 25.5362 106.337 25.4515C106.248 25.4091 106.185 25.3676 106.146 25.3296C106.107 25.2918 106.1 25.2654 106.1 25.25V1.1Z" fill="url(#paint11_linear_1083_644)" stroke="black" stroke-width="0.2"/>
<path d="M106.1 1.1H130.9V25.25C130.9 25.2654 130.893 25.2918 130.854 25.3296C130.815 25.3676 130.752 25.4091 130.663 25.4515C130.484 25.5362 130.218 25.6151 129.882 25.6823C129.212 25.8164 128.281 25.9 127.25 25.9H109.75C108.719 25.9 107.788 25.8164 107.118 25.6823C106.782 25.6151 106.516 25.5362 106.337 25.4515C106.248 25.4091 106.185 25.3676 106.146 25.3296C106.107 25.2918 106.1 25.2654 106.1 25.25V1.1Z" fill="url(#paint12_linear_1083_644)" stroke="black" stroke-width="0.2"/>
<path d="M119.31 10.7273V18H118.429V11.6506H118.386L116.611 12.8295V11.9347L118.429 10.7273H119.31Z" fill="black"/>
<path d="M444.5 1.5H535.5V24.94C535.348 24.9739 535.133 25.0099 534.852 25.046C534.172 25.1334 533.176 25.2134 531.931 25.2811C529.445 25.4162 526.005 25.5 522.2 25.5H457.8C453.995 25.5 450.555 25.4162 448.069 25.2811C446.824 25.2134 445.828 25.1334 445.148 25.046C444.867 25.0099 444.652 24.9739 444.5 24.94V1.5Z" fill="white" stroke="#D6A86F"/>
<path d="M454.881 18V10.7273H459.27V11.5085H455.761V13.7812H457.608C458.129 13.7812 458.568 13.8665 458.925 14.0369C459.285 14.2074 459.558 14.4477 459.742 14.7578C459.929 15.0679 460.023 15.4337 460.023 15.8551C460.023 16.2765 459.929 16.6482 459.742 16.9702C459.558 17.2921 459.285 17.5443 458.925 17.7266C458.568 17.9089 458.129 18 457.608 18H454.881ZM455.761 17.233H457.608C457.939 17.233 458.22 17.1667 458.45 17.0341C458.682 16.8991 458.857 16.7263 458.975 16.5156C459.096 16.3026 459.156 16.0777 459.156 15.8409C459.156 15.4929 459.022 15.1934 458.755 14.9425C458.487 14.6892 458.105 14.5625 457.608 14.5625H455.761V17.233ZM463.802 18.0994C463.333 18.0994 462.915 18.0189 462.548 17.858C462.184 17.697 461.894 17.4732 461.678 17.1868C461.465 16.898 461.349 16.563 461.33 16.1818H462.225C462.244 16.4162 462.325 16.6186 462.467 16.7891C462.609 16.9571 462.795 17.0874 463.024 17.1797C463.254 17.272 463.508 17.3182 463.788 17.3182C464.1 17.3182 464.377 17.2637 464.619 17.1548C464.86 17.0459 465.05 16.8944 465.187 16.7003C465.324 16.5062 465.393 16.2812 465.393 16.0256C465.393 15.758 465.327 15.5225 465.194 15.3189C465.061 15.1129 464.867 14.9519 464.612 14.8359C464.356 14.7199 464.044 14.6619 463.674 14.6619H463.092V13.8807H463.674C463.963 13.8807 464.216 13.8286 464.434 13.7244C464.654 13.6203 464.826 13.4735 464.949 13.2841C465.075 13.0947 465.137 12.8722 465.137 12.6165C465.137 12.3703 465.083 12.156 464.974 11.9737C464.865 11.7914 464.711 11.6494 464.512 11.5476C464.316 11.4458 464.084 11.3949 463.816 11.3949C463.565 11.3949 463.329 11.4411 463.106 11.5334C462.886 11.6233 462.706 11.7547 462.566 11.9276C462.427 12.098 462.351 12.304 462.339 12.5455H461.487C461.501 12.1643 461.616 11.8305 461.831 11.544C462.047 11.2552 462.328 11.0303 462.676 10.8693C463.027 10.7083 463.411 10.6278 463.83 10.6278C464.28 10.6278 464.666 10.719 464.988 10.9013C465.31 11.0812 465.557 11.3191 465.73 11.6151C465.903 11.911 465.99 12.2306 465.99 12.5739C465.99 12.9834 465.882 13.3326 465.666 13.6214C465.453 13.9103 465.163 14.1103 464.796 14.2216V14.2784C465.256 14.3542 465.614 14.5495 465.872 14.8643C466.13 15.1768 466.259 15.5639 466.259 16.0256C466.259 16.4209 466.152 16.776 465.936 17.0909C465.723 17.4034 465.432 17.6496 465.063 17.8295C464.693 18.0095 464.273 18.0994 463.802 18.0994ZM469.857 17.5028V12.8153H470.652V17.5028H469.857ZM467.911 15.5568V14.7614H472.598V15.5568H467.911ZM477.301 16.8636L479.204 12.5455H480L477.642 18H476.96L474.645 12.5455H475.426L477.301 16.8636ZM475.156 12.5455V18H474.318V12.5455H475.156ZM479.446 18V12.5455H480.284V18H479.446ZM481.804 18V17.3608L484.204 14.733C484.486 14.4252 484.718 14.1577 484.9 13.9304C485.083 13.7008 485.217 13.4853 485.305 13.2841C485.395 13.0805 485.44 12.8674 485.44 12.6449C485.44 12.3892 485.378 12.1679 485.255 11.9808C485.135 11.7938 484.969 11.6494 484.758 11.5476C484.547 11.4458 484.311 11.3949 484.048 11.3949C483.769 11.3949 483.525 11.4529 483.316 11.5689C483.11 11.6825 482.951 11.8423 482.837 12.0483C482.726 12.2543 482.67 12.4957 482.67 12.7727H481.832C481.832 12.3466 481.93 11.9725 482.127 11.6506C482.323 11.3286 482.591 11.0777 482.929 10.8977C483.27 10.7178 483.653 10.6278 484.076 10.6278C484.502 10.6278 484.88 10.7178 485.209 10.8977C485.538 11.0777 485.796 11.3203 485.983 11.6257C486.17 11.9311 486.264 12.2708 486.264 12.6449C486.264 12.9124 486.215 13.174 486.118 13.4297C486.024 13.683 485.858 13.9659 485.621 14.2784C485.387 14.5885 485.061 14.9673 484.645 15.4148L483.011 17.1619V17.2188H486.392V18H481.804ZM490.003 16.7216V12.0341H490.799V16.7216H490.003ZM488.057 14.7756V13.9801H492.745V14.7756H488.057ZM494.578 18V10.7273H498.967V11.5085H495.459V13.7812H497.305C497.826 13.7812 498.265 13.8665 498.623 14.0369C498.983 14.2074 499.255 14.4477 499.439 14.7578C499.626 15.0679 499.72 15.4337 499.72 15.8551C499.72 16.2765 499.626 16.6482 499.439 16.9702C499.255 17.2921 498.983 17.5443 498.623 17.7266C498.265 17.9089 497.826 18 497.305 18H494.578ZM495.459 17.233H497.305C497.637 17.233 497.917 17.1667 498.147 17.0341C498.379 16.8991 498.554 16.7263 498.672 16.5156C498.793 16.3026 498.854 16.0777 498.854 15.8409C498.854 15.4929 498.72 15.1934 498.452 14.9425C498.185 14.6892 497.802 14.5625 497.305 14.5625H495.459V17.233ZM501.042 18V17.3608L503.442 14.733C503.724 14.4252 503.956 14.1577 504.138 13.9304C504.321 13.7008 504.456 13.4853 504.543 13.2841C504.633 13.0805 504.678 12.8674 504.678 12.6449C504.678 12.3892 504.617 12.1679 504.494 11.9808C504.373 11.7938 504.207 11.6494 503.996 11.5476C503.786 11.4458 503.549 11.3949 503.286 11.3949C503.007 11.3949 502.763 11.4529 502.555 11.5689C502.349 11.6825 502.189 11.8423 502.075 12.0483C501.964 12.2543 501.908 12.4957 501.908 12.7727H501.07C501.07 12.3466 501.169 11.9725 501.365 11.6506C501.562 11.3286 501.829 11.0777 502.168 10.8977C502.509 10.7178 502.891 10.6278 503.315 10.6278C503.741 10.6278 504.118 10.7178 504.447 10.8977C504.777 11.0777 505.035 11.3203 505.222 11.6257C505.409 11.9311 505.502 12.2708 505.502 12.6449C505.502 12.9124 505.454 13.174 505.357 13.4297C505.262 13.683 505.096 13.9659 504.859 14.2784C504.625 14.5885 504.299 14.9673 503.883 15.4148L502.249 17.1619V17.2188H505.63V18H501.042ZM507.452 14.4915V13.7244H511.827V14.4915H507.452ZM507.452 16.5938V15.8267H511.827V16.5938H507.452ZM517.907 12.5455V18H517.069V12.5455H517.907ZM517.58 15.1449V15.9261C517.391 15.9972 517.203 16.0599 517.016 16.1143C516.829 16.1664 516.632 16.2079 516.426 16.2386C516.22 16.267 515.994 16.2812 515.748 16.2812C515.13 16.2812 514.634 16.1143 514.26 15.7805C513.888 15.4467 513.703 14.946 513.703 14.2784V12.5312H514.541V14.2784C514.541 14.5578 514.594 14.7874 514.7 14.9673C514.807 15.1473 514.951 15.281 515.134 15.3686C515.316 15.4562 515.521 15.5 515.748 15.5C516.103 15.5 516.424 15.468 516.71 15.4041C516.999 15.3378 517.289 15.2514 517.58 15.1449ZM521.703 18.0994C521.287 18.0994 520.911 18.0166 520.578 17.8509C520.244 17.6851 519.976 17.4579 519.775 17.169C519.574 16.8802 519.464 16.5511 519.445 16.1818H520.297C520.33 16.5109 520.479 16.7831 520.744 16.9986C521.012 17.2116 521.332 17.3182 521.703 17.3182C522.002 17.3182 522.267 17.2483 522.499 17.1087C522.733 16.969 522.917 16.7772 523.049 16.5334C523.184 16.2872 523.252 16.009 523.252 15.6989C523.252 15.3816 523.182 15.0987 523.042 14.8501C522.905 14.5992 522.715 14.4015 522.474 14.2571C522.232 14.1127 521.957 14.0393 521.646 14.0369C521.424 14.0346 521.195 14.0689 520.961 14.1399C520.727 14.2086 520.534 14.2973 520.382 14.4062L519.558 14.3068L519.999 10.7273H523.777V11.5085H520.737L520.482 13.6534H520.524C520.673 13.535 520.86 13.4368 521.085 13.3587C521.31 13.2805 521.545 13.2415 521.789 13.2415C522.234 13.2415 522.63 13.348 522.978 13.5611C523.329 13.7718 523.603 14.0606 523.802 14.4276C524.003 14.7945 524.104 15.2135 524.104 15.6847C524.104 16.1487 524 16.563 523.791 16.9276C523.585 17.2898 523.301 17.5762 522.939 17.7869C522.577 17.9953 522.165 18.0994 521.703 18.0994Z" fill="black"/>
<path d="M1 1H93V25.25C93 25.6642 86.8215 26 79.2 26H14.8C7.17847 26 1 25.6642 1 25.25V1Z" fill="white" stroke="#D6A86F" stroke-miterlimit="16"/>
<path d="M36.476 19H34.64L31.238 13.42L27.782 19H26.072L30.338 12.304L26.342 6.148H28.142L31.292 11.188L34.46 6.148H36.17L32.192 12.268L36.476 19ZM46.7336 17.668C46.3196 17.956 46.0136 18.1 45.7976 18.1C45.5276 18.1 45.4016 17.866 45.4016 17.38V13.312C45.4016 11.674 44.4476 10.756 42.8096 10.756C41.4236 10.756 39.8216 11.638 39.8216 12.772C39.8216 13.294 40.0556 13.564 40.5416 13.564C40.9736 13.564 41.3696 13.204 41.3696 12.772C41.3696 12.628 41.2976 12.232 41.2976 12.088C41.2976 11.512 41.9276 11.188 42.5576 11.188C43.4396 11.188 43.8896 11.692 43.8896 12.7V13.78C40.5236 14.842 39.4616 15.67 39.4616 17.272C39.4616 18.226 40.1456 19.198 41.1536 19.198C41.8916 19.198 42.8276 18.748 43.9616 17.848C43.9796 18.73 44.3396 19.162 45.0416 19.162C45.5996 19.162 46.1576 18.838 46.7336 18.208V17.668ZM43.8896 17.38C43.2596 17.866 42.7196 18.1 42.2336 18.1C41.4596 18.1 41.0456 17.434 41.0456 16.66C41.0456 15.922 41.3516 15.364 41.9816 15.004C42.1976 14.86 42.8276 14.626 43.8896 14.284V17.38ZM54.1415 6.724L51.2255 7.552V7.876H52.2335C52.5035 7.966 52.6295 8.254 52.6295 8.74V11.44C52.1435 10.99 51.5495 10.756 50.8295 10.756C48.6335 10.756 47.1575 13.15 47.1575 15.256C47.1575 17.38 48.4715 19.162 50.3615 19.162C51.3515 19.162 52.1075 18.73 52.6295 17.884V19.234C53.4395 18.748 54.4115 18.388 55.5455 18.172V17.848C55.4735 17.848 55.3475 17.866 55.1495 17.884H54.8255C54.3755 17.884 54.1415 17.578 54.1415 16.984V6.724ZM52.6295 17.092C52.3235 17.866 51.7835 18.244 51.0095 18.244C49.5695 18.244 48.7055 16.804 48.7055 14.716C48.7055 12.808 49.4975 11.296 50.9375 11.296C51.6755 11.296 52.2155 11.692 52.5215 12.484C52.5935 12.682 52.6295 12.79 52.6295 12.844V17.092ZM63.036 6.724L60.12 7.552V7.876H61.128C61.398 7.966 61.524 8.254 61.524 8.74V11.44C61.038 10.99 60.444 10.756 59.724 10.756C57.528 10.756 56.052 13.15 56.052 15.256C56.052 17.38 57.366 19.162 59.256 19.162C60.246 19.162 61.002 18.73 61.524 17.884V19.234C62.334 18.748 63.306 18.388 64.44 18.172V17.848C64.368 17.848 64.242 17.866 64.044 17.884H63.72C63.27 17.884 63.036 17.578 63.036 16.984V6.724ZM61.524 17.092C61.218 17.866 60.678 18.244 59.904 18.244C58.464 18.244 57.6 16.804 57.6 14.716C57.6 12.808 58.392 11.296 59.832 11.296C60.57 11.296 61.11 11.692 61.416 12.484C61.488 12.682 61.524 12.79 61.524 12.844V17.092ZM70.4185 12.268V11.404H69.2305V5.86H68.4385L64.6225 11.404V12.268H68.2225V14.356H69.2305V12.268H70.4185ZM68.2225 6.94V11.404H65.1985L68.2225 6.94Z" fill="black"/>
<defs>
<radialGradient id="paint0_radial_1083_644" cx="0" cy="0" r="1" gradientUnits="userSpaceOnUse" gradientTransform="translate(368.5 13.5) rotate(90) scale(12.5)">
<stop offset="0.171875"/>
<stop offset="0.171975" stop-color="white"/>
</radialGradient>
<radialGradient id="paint1_radial_1083_644" cx="0" cy="0" r="1" gradientUnits="userSpaceOnUse" gradientTransform="translate(393.5 13.5) rotate(90) scale(12.5)">
<stop offset="0.171875"/>
<stop offset="0.171975" stop-color="white"/>
</radialGradient>
<radialGradient id="paint2_radial_1083_644" cx="0" cy="0" r="1" gradientUnits="userSpaceOnUse" gradientTransform="translate(343.5 13.5) rotate(90) scale(12.5)">
<stop offset="0.171875"/>
<stop offset="0.171975" stop-color="white"/>
</radialGradient>
<radialGradient id="paint3_radial_1083_644" cx="0" cy="0" r="1" gradientUnits="userSpaceOnUse" gradientTransform="translate(318.5 13.5) rotate(90) scale(12.5)">
<stop offset="0.171875"/>
<stop offset="0.171975" stop-color="white"/>
</radialGradient>
<radialGradient id="paint4_radial_1083_644" cx="0" cy="0" r="1" gradientUnits="userSpaceOnUse" gradientTransform="translate(268.5 13.5) rotate(90) scale(12.5)">
<stop offset="0.171875"/>
<stop offset="0.171975" stop-color="white"/>
</radialGradient>
<radialGradient id="paint5_radial_1083_644" cx="0" cy="0" r="1" gradientUnits="userSpaceOnUse" gradientTransform="translate(168.5 13.5) rotate(90) scale(12.5)">
<stop offset="0.171875"/>
<stop offset="0.171975" stop-color="white"/>
</radialGradient>
<radialGradient id="paint6_radial_1083_644" cx="0" cy="0" r="1" gradientUnits="userSpaceOnUse" gradientTransform="translate(193.5 13.5) rotate(90) scale(12.5)">
<stop offset="0.171875"/>
<stop offset="0.171975" stop-color="white"/>
</radialGradient>
<linearGradient id="paint7_linear_1083_644" x1="218.5" y1="1" x2="218.5" y2="26" gradientUnits="userSpaceOnUse">
<stop offset="0.255208" stop-color="#DDB078"/>
<stop offset="0.598958" stop-color="#F4D6B1"/>
</linearGradient>
<linearGradient id="paint8_linear_1083_644" x1="243.5" y1="1" x2="243.5" y2="26" gradientUnits="userSpaceOnUse">
<stop offset="0.255208" stop-color="#DDB078"/>
<stop offset="0.598958" stop-color="#F4D6B1"/>
</linearGradient>
<linearGradient id="paint9_linear_1083_644" x1="293.5" y1="1" x2="293.5" y2="26" gradientUnits="userSpaceOnUse">
<stop offset="0.255208" stop-color="#DDB078"/>
<stop offset="0.598958" stop-color="#F4D6B1"/>
</linearGradient>
<radialGradient id="paint10_radial_1083_644" cx="0" cy="0" r="1" gradientUnits="userSpaceOnUse" gradientTransform="translate(143.5 13.5) rotate(90) scale(12.5)">
<stop offset="0.171875"/>
<stop offset="0.171975" stop-color="white"/>
</radialGradient>
<linearGradient id="paint11_linear_1083_644" x1="118.5" y1="1" x2="118.5" y2="26" gradientUnits="userSpaceOnUse">
<stop offset="0.255208" stop-color="#DDB078"/>
<stop offset="0.598958" stop-color="#F4D6B1"/>
</linearGradient>
<linearGradient id="paint12_linear_1083_644" x1="118.5" y1="1" x2="118.5" y2="26" gradientUnits="userSpaceOnUse">
<stop offset="0.255208" stop-color="#DDB078"/>
<stop offset="0.598958" stop-color="#F4D6B1"/>
</linearGradient>
</defs>
</svg>
