<svg width="536" height="27" viewBox="0 0 536 27" fill="none" xmlns="http://www.w3.org/2000/svg">
<path d="M406.1 1.1H430.9V25.25C430.9 25.2654 430.893 25.2918 430.854 25.3296C430.815 25.3676 430.752 25.4091 430.663 25.4515C430.484 25.5362 430.218 25.6151 429.882 25.6823C429.212 25.8164 428.281 25.9 427.25 25.9H409.75C408.719 25.9 407.788 25.8164 407.118 25.6823C406.782 25.6151 406.516 25.5362 406.337 25.4515C406.248 25.4091 406.185 25.3676 406.146 25.3296C406.107 25.2918 406.1 25.2654 406.1 25.25V1.1Z" fill="white" stroke="black" stroke-width="0.2"/>
<path d="M419.31 10.7273V18H418.429V11.6506H418.386L416.611 12.8295V11.9347L418.429 10.7273H419.31Z" fill="black"/>
<path d="M356.1 1.1H380.9V25.25C380.9 25.2654 380.893 25.2918 380.854 25.3296C380.815 25.3676 380.752 25.4091 380.663 25.4515C380.484 25.5362 380.218 25.6151 379.882 25.6823C379.212 25.8164 378.281 25.9 377.25 25.9H359.75C358.719 25.9 357.788 25.8164 357.118 25.6823C356.782 25.6151 356.516 25.5362 356.337 25.4515C356.248 25.4091 356.185 25.3676 356.146 25.3296C356.107 25.2918 356.1 25.2654 356.1 25.25V1.1Z" fill="url(#paint0_radial_1083_161)" stroke="black" stroke-width="0.2"/>
<path d="M381.1 1.1H405.9V25.25C405.9 25.2654 405.893 25.2918 405.854 25.3296C405.815 25.3676 405.752 25.4091 405.663 25.4515C405.484 25.5362 405.218 25.6151 404.882 25.6823C404.212 25.8164 403.281 25.9 402.25 25.9H384.75C383.719 25.9 382.788 25.8164 382.118 25.6823C381.782 25.6151 381.516 25.5362 381.337 25.4515C381.248 25.4091 381.185 25.3676 381.146 25.3296C381.107 25.2918 381.1 25.2654 381.1 25.25V1.1Z" fill="url(#paint1_radial_1083_161)" stroke="black" stroke-width="0.2"/>
<path d="M331.1 1.1H355.9V25.25C355.9 25.2654 355.893 25.2918 355.854 25.3296C355.815 25.3676 355.752 25.4091 355.663 25.4515C355.484 25.5362 355.218 25.6151 354.882 25.6823C354.212 25.8164 353.281 25.9 352.25 25.9H334.75C333.719 25.9 332.788 25.8164 332.118 25.6823C331.782 25.6151 331.516 25.5362 331.337 25.4515C331.248 25.4091 331.185 25.3676 331.146 25.3296C331.107 25.2918 331.1 25.2654 331.1 25.25V1.1Z" fill="url(#paint2_radial_1083_161)" stroke="black" stroke-width="0.2"/>
<path d="M306.1 1.1H330.9V25.25C330.9 25.2654 330.893 25.2918 330.854 25.3296C330.815 25.3676 330.752 25.4091 330.663 25.4515C330.484 25.5362 330.218 25.6151 329.882 25.6823C329.212 25.8164 328.281 25.9 327.25 25.9H309.75C308.719 25.9 307.788 25.8164 307.118 25.6823C306.782 25.6151 306.516 25.5362 306.337 25.4515C306.248 25.4091 306.185 25.3676 306.146 25.3296C306.107 25.2918 306.1 25.2654 306.1 25.25V1.1Z" fill="url(#paint3_radial_1083_161)" stroke="black" stroke-width="0.2"/>
<path d="M256.1 1.1H280.9V25.25C280.9 25.2654 280.893 25.2918 280.854 25.3296C280.815 25.3676 280.752 25.4091 280.663 25.4515C280.484 25.5362 280.218 25.6151 279.882 25.6823C279.212 25.8164 278.281 25.9 277.25 25.9H259.75C258.719 25.9 257.788 25.8164 257.118 25.6823C256.782 25.6151 256.516 25.5362 256.337 25.4515C256.248 25.4091 256.185 25.3676 256.146 25.3296C256.107 25.2918 256.1 25.2654 256.1 25.25V1.1Z" fill="url(#paint4_radial_1083_161)" stroke="black" stroke-width="0.2"/>
<path d="M231.1 1.1H255.9V25.25C255.9 25.2654 255.893 25.2918 255.854 25.3296C255.815 25.3676 255.752 25.4091 255.663 25.4515C255.484 25.5362 255.218 25.6151 254.882 25.6823C254.212 25.8164 253.281 25.9 252.25 25.9H234.75C233.719 25.9 232.788 25.8164 232.118 25.6823C231.782 25.6151 231.516 25.5362 231.337 25.4515C231.248 25.4091 231.185 25.3676 231.146 25.3296C231.107 25.2918 231.1 25.2654 231.1 25.25V1.1Z" fill="url(#paint5_radial_1083_161)" stroke="black" stroke-width="0.2"/>
<path d="M206.1 1.1H230.9V25.25C230.9 25.2654 230.893 25.2918 230.854 25.3296C230.815 25.3676 230.752 25.4091 230.663 25.4515C230.484 25.5362 230.218 25.6151 229.882 25.6823C229.212 25.8164 228.281 25.9 227.25 25.9H209.75C208.719 25.9 207.788 25.8164 207.118 25.6823C206.782 25.6151 206.516 25.5362 206.337 25.4515C206.248 25.4091 206.185 25.3676 206.146 25.3296C206.107 25.2918 206.1 25.2654 206.1 25.25V1.1Z" fill="url(#paint6_radial_1083_161)" stroke="black" stroke-width="0.2"/>
<path d="M181.1 1.1H205.9V25.25C205.9 25.2654 205.893 25.2918 205.854 25.3296C205.815 25.3676 205.752 25.4091 205.663 25.4515C205.484 25.5362 205.218 25.6151 204.882 25.6823C204.212 25.8164 203.281 25.9 202.25 25.9H184.75C183.719 25.9 182.788 25.8164 182.118 25.6823C181.782 25.6151 181.516 25.5362 181.337 25.4515C181.248 25.4091 181.185 25.3676 181.146 25.3296C181.107 25.2918 181.1 25.2654 181.1 25.25V1.1Z" fill="url(#paint7_linear_1083_161)" stroke="black" stroke-width="0.2"/>
<path d="M195.21 18.0994C194.741 18.0994 194.324 18.0189 193.957 17.858C193.592 17.697 193.302 17.4732 193.087 17.1868C192.874 16.898 192.758 16.563 192.739 16.1818H193.634C193.652 16.4162 193.733 16.6186 193.875 16.7891C194.017 16.9571 194.203 17.0874 194.433 17.1797C194.662 17.272 194.917 17.3182 195.196 17.3182C195.509 17.3182 195.786 17.2637 196.027 17.1548C196.268 17.0459 196.458 16.8944 196.595 16.7003C196.732 16.5062 196.801 16.2812 196.801 16.0256C196.801 15.758 196.735 15.5225 196.602 15.3189C196.47 15.1129 196.276 14.9519 196.02 14.8359C195.764 14.7199 195.452 14.6619 195.082 14.6619H194.5V13.8807H195.082C195.371 13.8807 195.625 13.8286 195.842 13.7244C196.063 13.6203 196.234 13.4735 196.357 13.2841C196.483 13.0947 196.545 12.8722 196.545 12.6165C196.545 12.3703 196.491 12.156 196.382 11.9737C196.273 11.7914 196.119 11.6494 195.92 11.5476C195.724 11.4458 195.492 11.3949 195.224 11.3949C194.973 11.3949 194.737 11.4411 194.514 11.5334C194.294 11.6233 194.114 11.7547 193.974 11.9276C193.835 12.098 193.759 12.304 193.747 12.5455H192.895C192.909 12.1643 193.024 11.8305 193.239 11.544C193.455 11.2552 193.737 11.0303 194.085 10.8693C194.435 10.7083 194.82 10.6278 195.239 10.6278C195.688 10.6278 196.074 10.719 196.396 10.9013C196.718 11.0812 196.966 11.3191 197.138 11.6151C197.311 11.911 197.398 12.2306 197.398 12.5739C197.398 12.9834 197.29 13.3326 197.075 13.6214C196.862 13.9103 196.571 14.1103 196.205 14.2216V14.2784C196.664 14.3542 197.022 14.5495 197.281 14.8643C197.539 15.1768 197.668 15.5639 197.668 16.0256C197.668 16.4209 197.56 16.776 197.344 17.0909C197.131 17.4034 196.84 17.6496 196.471 17.8295C196.102 18.0095 195.681 18.0994 195.21 18.0994Z" fill="black"/>
<path d="M188 18.379L189.833 17.027C190.639 16.442 190.951 15.779 190.977 15.285C190.977 14.557 190.314 14.011 189.534 14.011C188.988 14.011 188.585 14.219 188.325 14.648L188.416 10.553H188V18.379ZM189.209 14.531C189.625 14.531 189.937 14.83 189.937 15.233C189.937 15.909 189.04 17.209 188.364 17.638C188.325 17.417 188.299 16.988 188.299 16.351C188.299 16 188.325 15.571 188.377 15.077C188.572 14.713 188.845 14.531 189.209 14.531Z" fill="black"/>
<path d="M281.1 1.1H305.9V25.25C305.9 25.2654 305.893 25.2918 305.854 25.3296C305.815 25.3676 305.752 25.4091 305.663 25.4515C305.484 25.5362 305.218 25.6151 304.882 25.6823C304.212 25.8164 303.281 25.9 302.25 25.9H284.75C283.719 25.9 282.788 25.8164 282.118 25.6823C281.782 25.6151 281.516 25.5362 281.337 25.4515C281.248 25.4091 281.185 25.3676 281.146 25.3296C281.107 25.2918 281.1 25.2654 281.1 25.25V1.1Z" fill="url(#paint8_linear_1083_161)" stroke="black" stroke-width="0.2"/>
<path d="M294.026 18.0994C293.609 18.0994 293.234 18.0166 292.9 17.8509C292.566 17.6851 292.299 17.4579 292.097 17.169C291.896 16.8802 291.786 16.5511 291.767 16.1818H292.619C292.652 16.5109 292.802 16.7831 293.067 16.9986C293.334 17.2116 293.654 17.3182 294.026 17.3182C294.324 17.3182 294.589 17.2483 294.821 17.1087C295.055 16.969 295.239 16.7772 295.371 16.5334C295.506 16.2872 295.574 16.009 295.574 15.6989C295.574 15.3816 295.504 15.0987 295.364 14.8501C295.227 14.5992 295.038 14.4015 294.796 14.2571C294.555 14.1127 294.279 14.0393 293.969 14.0369C293.746 14.0346 293.518 14.0689 293.283 14.1399C293.049 14.2086 292.856 14.2973 292.705 14.4062L291.881 14.3068L292.321 10.7273H296.099V11.5085H293.06L292.804 13.6534H292.847C292.996 13.535 293.183 13.4368 293.408 13.3587C293.633 13.2805 293.867 13.2415 294.111 13.2415C294.556 13.2415 294.952 13.348 295.3 13.5611C295.651 13.7718 295.925 14.0606 296.124 14.4276C296.326 14.7945 296.426 15.2135 296.426 15.6847C296.426 16.1487 296.322 16.563 296.114 16.9276C295.908 17.2898 295.624 17.5762 295.261 17.7869C294.899 17.9953 294.487 18.0994 294.026 18.0994Z" fill="black"/>
<path d="M156.1 1.1H180.9V25.25C180.9 25.2654 180.893 25.2918 180.854 25.3296C180.815 25.3676 180.752 25.4091 180.663 25.4515C180.484 25.5362 180.218 25.6151 179.882 25.6823C179.212 25.8164 178.281 25.9 177.25 25.9H159.75C158.719 25.9 157.788 25.8164 157.118 25.6823C156.782 25.6151 156.516 25.5362 156.337 25.4515C156.248 25.4091 156.185 25.3676 156.146 25.3296C156.107 25.2918 156.1 25.2654 156.1 25.25V1.1Z" fill="url(#paint9_radial_1083_161)" stroke="black" stroke-width="0.2"/>
<path d="M131.1 1.1H155.9V25.25C155.9 25.2654 155.893 25.2918 155.854 25.3296C155.815 25.3676 155.752 25.4091 155.663 25.4515C155.484 25.5362 155.218 25.6151 154.882 25.6823C154.212 25.8164 153.281 25.9 152.25 25.9H134.75C133.719 25.9 132.788 25.8164 132.118 25.6823C131.782 25.6151 131.516 25.5362 131.337 25.4515C131.248 25.4091 131.185 25.3676 131.146 25.3296C131.107 25.2918 131.1 25.2654 131.1 25.25V1.1Z" fill="url(#paint10_radial_1083_161)" stroke="black" stroke-width="0.2"/>
<path d="M106.1 1.1H130.9V25.25C130.9 25.2654 130.893 25.2918 130.854 25.3296C130.815 25.3676 130.752 25.4091 130.663 25.4515C130.484 25.5362 130.218 25.6151 129.882 25.6823C129.212 25.8164 128.281 25.9 127.25 25.9H109.75C108.719 25.9 107.788 25.8164 107.118 25.6823C106.782 25.6151 106.516 25.5362 106.337 25.4515C106.248 25.4091 106.185 25.3676 106.146 25.3296C106.107 25.2918 106.1 25.2654 106.1 25.25V1.1Z" fill="url(#paint11_linear_1083_161)" stroke="black" stroke-width="0.2"/>
<path d="M106.1 1.1H130.9V25.25C130.9 25.2654 130.893 25.2918 130.854 25.3296C130.815 25.3676 130.752 25.4091 130.663 25.4515C130.484 25.5362 130.218 25.6151 129.882 25.6823C129.212 25.8164 128.281 25.9 127.25 25.9H109.75C108.719 25.9 107.788 25.8164 107.118 25.6823C106.782 25.6151 106.516 25.5362 106.337 25.4515C106.248 25.4091 106.185 25.3676 106.146 25.3296C106.107 25.2918 106.1 25.2654 106.1 25.25V1.1Z" fill="url(#paint12_linear_1083_161)" stroke="black" stroke-width="0.2"/>
<path d="M119.31 10.7273V18H118.429V11.6506H118.386L116.611 12.8295V11.9347L118.429 10.7273H119.31Z" fill="black"/>
<path d="M444.5 1.5H535.5V24.94C535.348 24.9739 535.133 25.0099 534.852 25.046C534.172 25.1334 533.176 25.2134 531.931 25.2811C529.445 25.4162 526.005 25.5 522.2 25.5H457.8C453.995 25.5 450.555 25.4162 448.069 25.2811C446.824 25.2134 445.828 25.1334 445.148 25.046C444.867 25.0099 444.652 24.9739 444.5 24.94V1.5Z" fill="white" stroke="#D6A86F"/>
<path d="M467.75 15.8636L469.653 11.5455H470.449L468.091 17H467.409L465.094 11.5455H465.875L467.75 15.8636ZM465.605 11.5455V17H464.767V11.5455H465.605ZM469.895 17V11.5455H470.733V17H469.895ZM474.71 17.0994C474.241 17.0994 473.824 17.0189 473.457 16.858C473.092 16.697 472.802 16.4732 472.587 16.1868C472.374 15.898 472.258 15.563 472.239 15.1818H473.134C473.152 15.4162 473.233 15.6186 473.375 15.7891C473.517 15.9571 473.703 16.0874 473.933 16.1797C474.162 16.272 474.417 16.3182 474.696 16.3182C475.009 16.3182 475.286 16.2637 475.527 16.1548C475.768 16.0459 475.958 15.8944 476.095 15.7003C476.232 15.5062 476.301 15.2812 476.301 15.0256C476.301 14.758 476.235 14.5225 476.102 14.3189C475.97 14.1129 475.776 13.9519 475.52 13.8359C475.264 13.7199 474.952 13.6619 474.582 13.6619H474V12.8807H474.582C474.871 12.8807 475.125 12.8286 475.342 12.7244C475.563 12.6203 475.734 12.4735 475.857 12.2841C475.983 12.0947 476.045 11.8722 476.045 11.6165C476.045 11.3703 475.991 11.156 475.882 10.9737C475.773 10.7914 475.619 10.6494 475.42 10.5476C475.224 10.4458 474.992 10.3949 474.724 10.3949C474.473 10.3949 474.237 10.4411 474.014 10.5334C473.794 10.6233 473.614 10.7547 473.474 10.9276C473.335 11.098 473.259 11.304 473.247 11.5455H472.395C472.409 11.1643 472.524 10.8305 472.739 10.544C472.955 10.2552 473.237 10.0303 473.585 9.86932C473.935 9.70833 474.32 9.62784 474.739 9.62784C475.188 9.62784 475.574 9.71899 475.896 9.90128C476.218 10.0812 476.466 10.3191 476.638 10.6151C476.811 10.911 476.898 11.2306 476.898 11.5739C476.898 11.9834 476.79 12.3326 476.575 12.6214C476.362 12.9103 476.071 13.1103 475.705 13.2216V13.2784C476.164 13.3542 476.522 13.5495 476.781 13.8643C477.039 14.1768 477.168 14.5639 477.168 15.0256C477.168 15.4209 477.06 15.776 476.844 16.0909C476.631 16.4034 476.34 16.6496 475.971 16.8295C475.602 17.0095 475.181 17.0994 474.71 17.0994ZM480.765 15.7216V11.0341H481.56V15.7216H480.765ZM478.819 13.7756V12.9801H483.506V13.7756H478.819ZM485.34 17V9.72727H489.729V10.5085H486.22V12.7812H488.067C488.588 12.7812 489.027 12.8665 489.384 13.0369C489.744 13.2074 490.017 13.4477 490.201 13.7578C490.388 14.0679 490.482 14.4337 490.482 14.8551C490.482 15.2765 490.388 15.6482 490.201 15.9702C490.017 16.2921 489.744 16.5443 489.384 16.7266C489.027 16.9089 488.588 17 488.067 17H485.34ZM486.22 16.233H488.067C488.398 16.233 488.679 16.1667 488.909 16.0341C489.141 15.8991 489.316 15.7263 489.434 15.5156C489.555 15.3026 489.615 15.0777 489.615 14.8409C489.615 14.4929 489.481 14.1934 489.214 13.9425C488.946 13.6892 488.564 13.5625 488.067 13.5625H486.22V16.233ZM494.261 17.0994C493.792 17.0994 493.374 17.0189 493.007 16.858C492.643 16.697 492.353 16.4732 492.137 16.1868C491.924 15.898 491.808 15.563 491.789 15.1818H492.684C492.703 15.4162 492.784 15.6186 492.926 15.7891C493.068 15.9571 493.254 16.0874 493.483 16.1797C493.713 16.272 493.967 16.3182 494.247 16.3182C494.559 16.3182 494.836 16.2637 495.078 16.1548C495.319 16.0459 495.509 15.8944 495.646 15.7003C495.783 15.5062 495.852 15.2812 495.852 15.0256C495.852 14.758 495.786 14.5225 495.653 14.3189C495.52 14.1129 495.326 13.9519 495.071 13.8359C494.815 13.7199 494.502 13.6619 494.133 13.6619H493.551V12.8807H494.133C494.422 12.8807 494.675 12.8286 494.893 12.7244C495.113 12.6203 495.285 12.4735 495.408 12.2841C495.533 12.0947 495.596 11.8722 495.596 11.6165C495.596 11.3703 495.542 11.156 495.433 10.9737C495.324 10.7914 495.17 10.6494 494.971 10.5476C494.775 10.4458 494.543 10.3949 494.275 10.3949C494.024 10.3949 493.788 10.4411 493.565 10.5334C493.345 10.6233 493.165 10.7547 493.025 10.9276C492.886 11.098 492.81 11.304 492.798 11.5455H491.946C491.96 11.1643 492.075 10.8305 492.29 10.544C492.506 10.2552 492.787 10.0303 493.135 9.86932C493.486 9.70833 493.87 9.62784 494.289 9.62784C494.739 9.62784 495.125 9.71899 495.447 9.90128C495.769 10.0812 496.016 10.3191 496.189 10.6151C496.362 10.911 496.449 11.2306 496.449 11.5739C496.449 11.9834 496.341 12.3326 496.125 12.6214C495.912 12.9103 495.622 13.1103 495.255 13.2216V13.2784C495.715 13.3542 496.073 13.5495 496.331 13.8643C496.589 14.1768 496.718 14.5639 496.718 15.0256C496.718 15.4209 496.611 15.776 496.395 16.0909C496.182 16.4034 495.891 16.6496 495.522 16.8295C495.152 17.0095 494.732 17.0994 494.261 17.0994ZM498.526 13.4915V12.7244H502.901V13.4915H498.526ZM498.526 15.5938V14.8267H502.901V15.5938H498.526ZM508.981 11.5455V17H508.143V11.5455H508.981ZM508.655 14.1449V14.9261C508.465 14.9972 508.277 15.0599 508.09 15.1143C507.903 15.1664 507.706 15.2079 507.501 15.2386C507.295 15.267 507.068 15.2812 506.822 15.2812C506.204 15.2812 505.708 15.1143 505.334 14.7805C504.963 14.4467 504.777 13.946 504.777 13.2784V11.5312H505.615V13.2784C505.615 13.5578 505.668 13.7874 505.775 13.9673C505.881 14.1473 506.026 14.281 506.208 14.3686C506.39 14.4562 506.595 14.5 506.822 14.5C507.177 14.5 507.498 14.468 507.785 14.4041C508.073 14.3378 508.363 14.2514 508.655 14.1449ZM512.778 17.0994C512.361 17.0994 511.986 17.0166 511.652 16.8509C511.318 16.6851 511.05 16.4579 510.849 16.169C510.648 15.8802 510.538 15.5511 510.519 15.1818H511.371C511.404 15.5109 511.554 15.7831 511.819 15.9986C512.086 16.2116 512.406 16.3182 512.778 16.3182C513.076 16.3182 513.341 16.2483 513.573 16.1087C513.807 15.969 513.991 15.7772 514.123 15.5334C514.258 15.2872 514.326 15.009 514.326 14.6989C514.326 14.3816 514.256 14.0987 514.116 13.8501C513.979 13.5992 513.79 13.4015 513.548 13.2571C513.307 13.1127 513.031 13.0393 512.721 13.0369C512.498 13.0346 512.27 13.0689 512.035 13.1399C511.801 13.2086 511.608 13.2973 511.456 13.4062L510.633 13.3068L511.073 9.72727H514.851V10.5085H511.812L511.556 12.6534H511.599C511.748 12.535 511.935 12.4368 512.16 12.3587C512.385 12.2805 512.619 12.2415 512.863 12.2415C513.308 12.2415 513.704 12.348 514.052 12.5611C514.403 12.7718 514.677 13.0606 514.876 13.4276C515.077 13.7945 515.178 14.2135 515.178 14.6847C515.178 15.1487 515.074 15.563 514.866 15.9276C514.66 16.2898 514.376 16.5762 514.013 16.7869C513.651 16.9953 513.239 17.0994 512.778 17.0994Z" fill="black"/>
<path d="M1 1H93V25.25C93 25.6642 86.8215 26 79.2 26H14.8C7.17847 26 1 25.6642 1 25.25V1Z" fill="white" stroke="#D6A86F" stroke-miterlimit="16"/>
<path d="M46.8119 19H44.9759L41.5739 13.42L38.1179 19H36.4079L40.6739 12.304L36.6779 6.148H38.4779L41.6279 11.188L44.7959 6.148H46.5059L42.5279 12.268L46.8119 19ZM60.5628 19V18.676C59.6088 18.676 59.3748 18.388 59.3748 17.164V13.168C59.3748 12.7 58.9788 11.512 58.6548 11.188C58.3668 10.9 57.9348 10.756 57.3588 10.756C56.2248 10.756 55.2168 11.242 54.3348 12.232C54.1368 11.242 53.5428 10.756 52.5348 10.756C51.4728 10.756 50.5548 11.242 49.7628 12.196V10.756L47.0628 11.62V11.944H47.9268C48.1428 12.016 48.2508 12.25 48.2508 12.664V17.164C48.2508 18.388 48.0168 18.676 47.0628 18.676V19H50.8428V18.676C50.0688 18.676 49.7628 18.388 49.7628 17.416V12.772C50.3568 11.998 51.0228 11.62 51.7428 11.62C52.5888 11.62 53.0028 12.106 53.0028 13.096V17.272C53.0028 18.424 52.6968 18.676 51.9228 18.676V19H55.7028V18.676C54.7488 18.676 54.5148 18.388 54.5148 17.164C54.5148 17.11 54.5328 16.642 54.5508 15.76V13.96C54.5328 13.312 54.4968 12.898 54.4428 12.736C55.0908 11.998 55.7748 11.62 56.4948 11.62C57.4128 11.62 57.8628 12.106 57.8628 13.096V17.272C57.8628 18.424 57.5568 18.676 56.7828 18.676V19H60.5628Z" fill="black"/>
<defs>
<radialGradient id="paint0_radial_1083_161" cx="0" cy="0" r="1" gradientUnits="userSpaceOnUse" gradientTransform="translate(368.5 13.5) rotate(90) scale(12.5)">
<stop offset="0.171875"/>
<stop offset="0.171975" stop-color="white"/>
</radialGradient>
<radialGradient id="paint1_radial_1083_161" cx="0" cy="0" r="1" gradientUnits="userSpaceOnUse" gradientTransform="translate(393.5 13.5) rotate(90) scale(12.5)">
<stop offset="0.171875"/>
<stop offset="0.171975" stop-color="white"/>
</radialGradient>
<radialGradient id="paint2_radial_1083_161" cx="0" cy="0" r="1" gradientUnits="userSpaceOnUse" gradientTransform="translate(343.5 13.5) rotate(90) scale(12.5)">
<stop offset="0.171875"/>
<stop offset="0.171975" stop-color="white"/>
</radialGradient>
<radialGradient id="paint3_radial_1083_161" cx="0" cy="0" r="1" gradientUnits="userSpaceOnUse" gradientTransform="translate(318.5 13.5) rotate(90) scale(12.5)">
<stop offset="0.171875"/>
<stop offset="0.171975" stop-color="white"/>
</radialGradient>
<radialGradient id="paint4_radial_1083_161" cx="0" cy="0" r="1" gradientUnits="userSpaceOnUse" gradientTransform="translate(268.5 13.5) rotate(90) scale(12.5)">
<stop offset="0.171875"/>
<stop offset="0.171975" stop-color="white"/>
</radialGradient>
<radialGradient id="paint5_radial_1083_161" cx="0" cy="0" r="1" gradientUnits="userSpaceOnUse" gradientTransform="translate(243.5 13.5) rotate(90) scale(12.5)">
<stop offset="0.171875"/>
<stop offset="0.171975" stop-color="white"/>
</radialGradient>
<radialGradient id="paint6_radial_1083_161" cx="0" cy="0" r="1" gradientUnits="userSpaceOnUse" gradientTransform="translate(218.5 13.5) rotate(90) scale(12.5)">
<stop offset="0.171875"/>
<stop offset="0.171975" stop-color="white"/>
</radialGradient>
<linearGradient id="paint7_linear_1083_161" x1="193.5" y1="1" x2="193.5" y2="26" gradientUnits="userSpaceOnUse">
<stop offset="0.255208" stop-color="#DDB078"/>
<stop offset="0.598958" stop-color="#F4D6B1"/>
</linearGradient>
<linearGradient id="paint8_linear_1083_161" x1="293.5" y1="1" x2="293.5" y2="26" gradientUnits="userSpaceOnUse">
<stop offset="0.255208" stop-color="#DDB078"/>
<stop offset="0.598958" stop-color="#F4D6B1"/>
</linearGradient>
<radialGradient id="paint9_radial_1083_161" cx="0" cy="0" r="1" gradientUnits="userSpaceOnUse" gradientTransform="translate(168.5 13.5) rotate(90) scale(12.5)">
<stop offset="0.171875"/>
<stop offset="0.171975" stop-color="white"/>
</radialGradient>
<radialGradient id="paint10_radial_1083_161" cx="0" cy="0" r="1" gradientUnits="userSpaceOnUse" gradientTransform="translate(143.5 13.5) rotate(90) scale(12.5)">
<stop offset="0.171875"/>
<stop offset="0.171975" stop-color="white"/>
</radialGradient>
<linearGradient id="paint11_linear_1083_161" x1="118.5" y1="1" x2="118.5" y2="26" gradientUnits="userSpaceOnUse">
<stop offset="0.255208" stop-color="#DDB078"/>
<stop offset="0.598958" stop-color="#F4D6B1"/>
</linearGradient>
<linearGradient id="paint12_linear_1083_161" x1="118.5" y1="1" x2="118.5" y2="26" gradientUnits="userSpaceOnUse">
<stop offset="0.255208" stop-color="#DDB078"/>
<stop offset="0.598958" stop-color="#F4D6B1"/>
</linearGradient>
</defs>
</svg>
