<svg width="325" height="25" viewBox="0 0 325 25" fill="none" xmlns="http://www.w3.org/2000/svg">
<path d="M300.1 0.1H324.9V24.25C324.9 24.2654 324.893 24.2918 324.854 24.3296C324.815 24.3676 324.752 24.4091 324.663 24.4515C324.484 24.5362 324.218 24.6151 323.882 24.6823C323.212 24.8164 322.281 24.9 321.25 24.9H303.75C302.719 24.9 301.788 24.8164 301.118 24.6823C300.782 24.6151 300.516 24.5362 300.337 24.4515C300.248 24.4091 300.185 24.3676 300.146 24.3296C300.107 24.2918 300.1 24.2654 300.1 24.25V0.1Z" fill="url(#paint0_radial_571_844)" stroke="black" stroke-width="0.2"/>
<path d="M275.1 0.1H299.9V24.25C299.9 24.2654 299.893 24.2918 299.854 24.3296C299.815 24.3676 299.752 24.4091 299.663 24.4515C299.484 24.5362 299.218 24.6151 298.882 24.6823C298.212 24.8164 297.281 24.9 296.25 24.9H278.75C277.719 24.9 276.788 24.8164 276.118 24.6823C275.782 24.6151 275.516 24.5362 275.337 24.4515C275.248 24.4091 275.185 24.3676 275.146 24.3296C275.107 24.2918 275.1 24.2654 275.1 24.25V0.1Z" fill="url(#paint1_radial_571_844)" stroke="black" stroke-width="0.2"/>
<path d="M250.1 0.1H274.9V24.25C274.9 24.2654 274.893 24.2918 274.854 24.3296C274.815 24.3676 274.752 24.4091 274.663 24.4515C274.484 24.5362 274.218 24.6151 273.882 24.6823C273.212 24.8164 272.281 24.9 271.25 24.9H253.75C252.719 24.9 251.788 24.8164 251.118 24.6823C250.782 24.6151 250.516 24.5362 250.337 24.4515C250.248 24.4091 250.185 24.3676 250.146 24.3296C250.107 24.2918 250.1 24.2654 250.1 24.25V0.1Z" fill="url(#paint2_radial_571_844)" stroke="black" stroke-width="0.2"/>
<path d="M200.1 0.1H224.9V24.25C224.9 24.2654 224.893 24.2918 224.854 24.3296C224.815 24.3676 224.752 24.4091 224.663 24.4515C224.484 24.5362 224.218 24.6151 223.882 24.6823C223.212 24.8164 222.281 24.9 221.25 24.9H203.75C202.719 24.9 201.788 24.8164 201.118 24.6823C200.782 24.6151 200.516 24.5362 200.337 24.4515C200.248 24.4091 200.185 24.3676 200.146 24.3296C200.107 24.2918 200.1 24.2654 200.1 24.25V0.1Z" fill="url(#paint3_radial_571_844)" stroke="black" stroke-width="0.2"/>
<path d="M225.1 0.1H249.9V24.25C249.9 24.2654 249.893 24.2918 249.854 24.3296C249.815 24.3676 249.752 24.4091 249.663 24.4515C249.484 24.5362 249.218 24.6151 248.882 24.6823C248.212 24.8164 247.281 24.9 246.25 24.9H228.75C227.719 24.9 226.788 24.8164 226.118 24.6823C225.782 24.6151 225.516 24.5362 225.337 24.4515C225.248 24.4091 225.185 24.3676 225.146 24.3296C225.107 24.2918 225.1 24.2654 225.1 24.25V0.1Z" fill="url(#paint4_linear_571_844)" stroke="black" stroke-width="0.2"/>
<path d="M245.168 23.0994C244.869 23.0947 244.571 23.0379 244.273 22.929C243.974 22.8201 243.702 22.6366 243.456 22.3786C243.21 22.1181 243.012 21.7666 242.863 21.3239C242.714 20.8788 242.639 20.3201 242.639 19.6477C242.639 19.0038 242.7 18.4332 242.82 17.9361C242.941 17.4366 243.116 17.0163 243.346 16.6754C243.576 16.3321 243.853 16.0717 244.177 15.8942C244.504 15.7166 244.872 15.6278 245.281 15.6278C245.688 15.6278 246.051 15.7095 246.368 15.8729C246.688 16.0339 246.948 16.2588 247.149 16.5476C247.35 16.8364 247.481 17.169 247.54 17.5455H246.673C246.593 17.2187 246.437 16.9477 246.205 16.7322C245.973 16.5168 245.665 16.4091 245.281 16.4091C244.718 16.4091 244.274 16.6541 243.95 17.1442C243.628 17.6342 243.465 18.322 243.463 19.2074H243.52C243.652 19.0062 243.81 18.8345 243.992 18.6925C244.177 18.5481 244.38 18.4368 244.603 18.3587C244.826 18.2805 245.061 18.2415 245.31 18.2415C245.726 18.2415 246.107 18.3456 246.453 18.554C246.799 18.7599 247.076 19.0452 247.284 19.4098C247.492 19.772 247.597 20.1875 247.597 20.6562C247.597 21.1061 247.496 21.518 247.295 21.892C247.094 22.2637 246.811 22.5597 246.446 22.7798C246.084 22.9976 245.658 23.1042 245.168 23.0994ZM245.168 22.3182C245.466 22.3182 245.733 22.2436 245.97 22.0945C246.209 21.9453 246.397 21.7453 246.535 21.4943C246.674 21.2434 246.744 20.964 246.744 20.6562C246.744 20.3556 246.677 20.0821 246.542 19.8359C246.409 19.5874 246.226 19.3897 245.991 19.2429C245.759 19.0961 245.494 19.0227 245.196 19.0227C244.971 19.0227 244.762 19.0677 244.567 19.1577C244.373 19.2453 244.203 19.366 244.056 19.5199C243.912 19.6738 243.798 19.8501 243.715 20.049C243.632 20.2455 243.591 20.4527 243.591 20.6705C243.591 20.9593 243.658 21.2292 243.793 21.4801C243.931 21.7311 244.118 21.9335 244.354 22.0874C244.594 22.2412 244.865 22.3182 245.168 22.3182Z" fill="black"/>
<path d="M227 11H234" stroke="black"/>
<path d="M227 14H234" stroke="black"/>
<path d="M236.881 10V2.72727H241.27V3.50852H237.761V5.78125H239.608C240.129 5.78125 240.568 5.86648 240.925 6.03693C241.285 6.20739 241.558 6.44768 241.742 6.75781C241.929 7.06795 242.023 7.43371 242.023 7.85511C242.023 8.27652 241.929 8.6482 241.742 8.97017C241.558 9.29214 241.285 9.54427 240.925 9.72656C240.568 9.90885 240.129 10 239.608 10H236.881ZM237.761 9.23295H239.608C239.939 9.23295 240.22 9.16667 240.45 9.03409C240.682 8.89915 240.857 8.72633 240.975 8.51562C241.096 8.30256 241.156 8.07765 241.156 7.84091C241.156 7.4929 241.022 7.19342 240.755 6.94247C240.487 6.68916 240.105 6.5625 239.608 6.5625H237.761V9.23295ZM245.759 10.0994C245.461 10.0947 245.163 10.0379 244.865 9.92898C244.566 9.82008 244.294 9.6366 244.048 9.37855C243.802 9.11813 243.604 8.76657 243.455 8.32386C243.306 7.87879 243.231 7.32008 243.231 6.64773C243.231 6.00379 243.291 5.43324 243.412 4.93608C243.533 4.43655 243.708 4.01634 243.938 3.67543C244.167 3.33215 244.444 3.07173 244.769 2.89418C245.095 2.71662 245.463 2.62784 245.873 2.62784C246.28 2.62784 246.642 2.70952 246.96 2.87287C247.279 3.03385 247.54 3.25876 247.741 3.54759C247.942 3.83641 248.072 4.16903 248.132 4.54545H247.265C247.185 4.21875 247.028 3.94768 246.796 3.73224C246.564 3.51681 246.257 3.40909 245.873 3.40909C245.31 3.40909 244.866 3.65412 244.541 4.14418C244.219 4.63423 244.057 5.32197 244.055 6.20739H244.112C244.244 6.00616 244.402 5.83452 244.584 5.69247C244.769 5.54806 244.972 5.43679 245.195 5.35866C245.417 5.28054 245.653 5.24148 245.901 5.24148C246.318 5.24148 246.699 5.34564 247.045 5.55398C247.391 5.75994 247.668 6.04522 247.876 6.4098C248.084 6.77202 248.188 7.1875 248.188 7.65625C248.188 8.10606 248.088 8.51799 247.887 8.89205C247.685 9.26373 247.402 9.55966 247.038 9.77983C246.676 9.99763 246.249 10.1042 245.759 10.0994ZM245.759 9.31818C246.058 9.31818 246.325 9.24361 246.562 9.09446C246.801 8.94531 246.989 8.74527 247.127 8.49432C247.266 8.24337 247.336 7.96402 247.336 7.65625C247.336 7.35559 247.269 7.08215 247.134 6.83594C247.001 6.58736 246.818 6.38968 246.583 6.2429C246.351 6.09612 246.086 6.02273 245.788 6.02273C245.563 6.02273 245.353 6.06771 245.159 6.15767C244.965 6.24527 244.795 6.366 244.648 6.51989C244.503 6.67377 244.39 6.85014 244.307 7.04901C244.224 7.2455 244.183 7.45265 244.183 7.67045C244.183 7.95928 244.25 8.22917 244.385 8.48011C244.522 8.73106 244.709 8.93348 244.946 9.08736C245.185 9.24124 245.456 9.31818 245.759 9.31818Z" fill="black"/>
<path d="M150.1 0.1H174.9V24.25C174.9 24.2654 174.893 24.2918 174.854 24.3296C174.815 24.3676 174.752 24.4091 174.663 24.4515C174.484 24.5362 174.218 24.6151 173.882 24.6823C173.212 24.8164 172.281 24.9 171.25 24.9H153.75C152.719 24.9 151.788 24.8164 151.118 24.6823C150.782 24.6151 150.516 24.5362 150.337 24.4515C150.248 24.4091 150.185 24.3676 150.146 24.3296C150.107 24.2918 150.1 24.2654 150.1 24.25V0.1Z" fill="url(#paint5_radial_571_844)" stroke="black" stroke-width="0.2"/>
<path d="M125.1 0.1H149.9V24.25C149.9 24.2654 149.893 24.2918 149.854 24.3296C149.815 24.3676 149.752 24.4091 149.663 24.4515C149.484 24.5362 149.218 24.6151 148.882 24.6823C148.212 24.8164 147.281 24.9 146.25 24.9H128.75C127.719 24.9 126.788 24.8164 126.118 24.6823C125.782 24.6151 125.516 24.5362 125.337 24.4515C125.248 24.4091 125.185 24.3676 125.146 24.3296C125.107 24.2918 125.1 24.2654 125.1 24.25V0.1Z" fill="url(#paint6_radial_571_844)" stroke="black" stroke-width="0.2"/>
<path d="M100.1 0.1H124.9V24.25C124.9 24.2654 124.893 24.2918 124.854 24.3296C124.815 24.3676 124.752 24.4091 124.663 24.4515C124.484 24.5362 124.218 24.6151 123.882 24.6823C123.212 24.8164 122.281 24.9 121.25 24.9H103.75C102.719 24.9 101.788 24.8164 101.118 24.6823C100.782 24.6151 100.516 24.5362 100.337 24.4515C100.248 24.4091 100.185 24.3676 100.146 24.3296C100.107 24.2918 100.1 24.2654 100.1 24.25V0.1Z" fill="url(#paint7_radial_571_844)" stroke="black" stroke-width="0.2"/>
<path d="M75.1 0.1H99.9V24.25C99.9 24.2654 99.8926 24.2918 99.8539 24.3296C99.815 24.3676 99.7523 24.4091 99.6626 24.4515C99.4835 24.5362 99.2181 24.6151 98.882 24.6823C98.2116 24.8164 97.281 24.9 96.25 24.9H78.75C77.719 24.9 76.7884 24.8164 76.118 24.6823C75.7819 24.6151 75.5165 24.5362 75.3374 24.4515C75.2477 24.4091 75.185 24.3676 75.1461 24.3296C75.1074 24.2918 75.1 24.2654 75.1 24.25V0.1Z" fill="url(#paint8_linear_571_844)" stroke="black" stroke-width="0.2"/>
<path d="M89.2102 23.0994C88.7415 23.0994 88.3236 23.0189 87.9567 22.858C87.5921 22.697 87.3021 22.4732 87.0866 22.1868C86.8736 21.898 86.7576 21.563 86.7386 21.1818H87.6335C87.6525 21.4162 87.733 21.6186 87.875 21.7891C88.017 21.9571 88.2029 22.0874 88.4325 22.1797C88.6622 22.272 88.9167 22.3182 89.196 22.3182C89.5085 22.3182 89.7855 22.2637 90.027 22.1548C90.2685 22.0459 90.4579 21.8944 90.5952 21.7003C90.7325 21.5062 90.8011 21.2812 90.8011 21.0256C90.8011 20.758 90.7348 20.5225 90.6023 20.3189C90.4697 20.1129 90.2756 19.9519 90.0199 19.8359C89.7642 19.7199 89.4517 19.6619 89.0824 19.6619H88.5V18.8807H89.0824C89.3712 18.8807 89.6245 18.8286 89.8423 18.7244C90.0625 18.6203 90.2341 18.4735 90.3572 18.2841C90.4827 18.0947 90.5455 17.8722 90.5455 17.6165C90.5455 17.3703 90.491 17.156 90.3821 16.9737C90.2732 16.7914 90.1193 16.6494 89.9205 16.5476C89.724 16.4458 89.492 16.3949 89.2244 16.3949C88.9735 16.3949 88.7367 16.4411 88.5142 16.5334C88.294 16.6233 88.1141 16.7547 87.9744 16.9276C87.8348 17.098 87.759 17.304 87.7472 17.5455H86.8949C86.9091 17.1643 87.0239 16.8305 87.2393 16.544C87.4548 16.2552 87.7365 16.0303 88.0845 15.8693C88.4349 15.7083 88.8196 15.6278 89.2386 15.6278C89.6884 15.6278 90.0743 15.719 90.3963 15.9013C90.7183 16.0812 90.9657 16.3191 91.1385 16.6151C91.3113 16.911 91.3977 17.2306 91.3977 17.5739C91.3977 17.9834 91.29 18.3326 91.0746 18.6214C90.8615 18.9103 90.5715 19.1103 90.2045 19.2216V19.2784C90.6638 19.3542 91.0225 19.5495 91.2805 19.8643C91.5386 20.1768 91.6676 20.5639 91.6676 21.0256C91.6676 21.4209 91.5599 21.776 91.3445 22.0909C91.1314 22.4034 90.8402 22.6496 90.4709 22.8295C90.1016 23.0095 89.6813 23.0994 89.2102 23.0994Z" fill="black"/>
<path d="M81.8807 10V2.72727H86.2699V3.50852H82.7614V5.78125H84.608C85.1288 5.78125 85.5679 5.86648 85.9254 6.03693C86.2853 6.20739 86.5575 6.44768 86.7422 6.75781C86.9292 7.06795 87.0227 7.43371 87.0227 7.85511C87.0227 8.27652 86.9292 8.6482 86.7422 8.97017C86.5575 9.29214 86.2853 9.54427 85.9254 9.72656C85.5679 9.90885 85.1288 10 84.608 10H81.8807ZM82.7614 9.23295H84.608C84.9394 9.23295 85.2199 9.16667 85.4496 9.03409C85.6816 8.89915 85.8568 8.72633 85.9751 8.51562C86.0959 8.30256 86.1562 8.07765 86.1562 7.84091C86.1562 7.4929 86.0225 7.19342 85.755 6.94247C85.4875 6.68916 85.1051 6.5625 84.608 6.5625H82.7614V9.23295ZM90.802 10.0994C90.3333 10.0994 89.9154 10.0189 89.5485 9.85795C89.1839 9.69697 88.8939 9.47325 88.6784 9.18679C88.4654 8.89796 88.3494 8.56297 88.3304 8.18182H89.2253C89.2443 8.41619 89.3248 8.61861 89.4668 8.78906C89.6088 8.95715 89.7947 9.08736 90.0243 9.17969C90.254 9.27202 90.5085 9.31818 90.7878 9.31818C91.1003 9.31818 91.3773 9.26373 91.6188 9.15483C91.8603 9.04593 92.0497 8.89441 92.187 8.70028C92.3243 8.50616 92.3929 8.28125 92.3929 8.02557C92.3929 7.75805 92.3266 7.52249 92.1941 7.31889C92.0615 7.11293 91.8674 6.95194 91.6117 6.83594C91.356 6.71993 91.0435 6.66193 90.6742 6.66193H90.0918V5.88068H90.6742C90.963 5.88068 91.2163 5.8286 91.4341 5.72443C91.6543 5.62026 91.8259 5.47348 91.949 5.28409C92.0745 5.0947 92.1373 4.87216 92.1373 4.61648C92.1373 4.37026 92.0828 4.15601 91.9739 3.97372C91.865 3.79143 91.7111 3.64938 91.5123 3.54759C91.3158 3.44579 91.0837 3.39489 90.8162 3.39489C90.5653 3.39489 90.3285 3.44105 90.106 3.53338C89.8858 3.62334 89.7059 3.75473 89.5662 3.92756C89.4266 4.09801 89.3508 4.30398 89.339 4.54545H88.4867C88.5009 4.1643 88.6157 3.83049 88.8311 3.54403C89.0466 3.25521 89.3283 3.0303 89.6763 2.86932C90.0267 2.70833 90.4114 2.62784 90.8304 2.62784C91.2802 2.62784 91.6661 2.71899 91.9881 2.90128C92.3101 3.0812 92.5575 3.31913 92.7303 3.61506C92.9031 3.91098 92.9895 4.23059 92.9895 4.57386C92.9895 4.98343 92.8818 5.33262 92.6664 5.62145C92.4533 5.91027 92.1633 6.11032 91.7963 6.22159V6.27841C92.2556 6.35417 92.6143 6.54948 92.8723 6.86435C93.1304 7.17685 93.2594 7.56392 93.2594 8.02557C93.2594 8.42093 93.1517 8.77604 92.9363 9.09091C92.7232 9.40341 92.432 9.64962 92.0627 9.82955C91.6934 10.0095 91.2731 10.0994 90.802 10.0994Z" fill="black"/>
<path d="M98.3536 13.3536C98.5488 13.1583 98.5488 12.8417 98.3536 12.6464L95.1716 9.46447C94.9763 9.2692 94.6597 9.2692 94.4645 9.46447C94.2692 9.65973 94.2692 9.97631 94.4645 10.1716L97.2929 13L94.4645 15.8284C94.2692 16.0237 94.2692 16.3403 94.4645 16.5355C94.6597 16.7308 94.9763 16.7308 95.1716 16.5355L98.3536 13.3536ZM78 13.5H98V12.5H78V13.5Z" fill="black"/>
<path d="M83 23.379L84.833 22.027C85.639 21.442 85.951 20.779 85.977 20.285C85.977 19.557 85.314 19.011 84.534 19.011C83.988 19.011 83.585 19.219 83.325 19.648L83.416 15.553H83V23.379ZM84.209 19.531C84.625 19.531 84.937 19.83 84.937 20.233C84.937 20.909 84.04 22.209 83.364 22.638C83.325 22.417 83.299 21.988 83.299 21.351C83.299 21 83.325 20.571 83.377 20.077C83.572 19.713 83.845 19.531 84.209 19.531Z" fill="black"/>
<path d="M175.1 0.1H199.9V24.25C199.9 24.2654 199.893 24.2918 199.854 24.3296C199.815 24.3676 199.752 24.4091 199.663 24.4515C199.484 24.5362 199.218 24.6151 198.882 24.6823C198.212 24.8164 197.281 24.9 196.25 24.9H178.75C177.719 24.9 176.788 24.8164 176.118 24.6823C175.782 24.6151 175.516 24.5362 175.337 24.4515C175.248 24.4091 175.185 24.3676 175.146 24.3296C175.107 24.2918 175.1 24.2654 175.1 24.25V0.1Z" fill="url(#paint9_linear_571_844)" stroke="black" stroke-width="0.2"/>
<path d="M188.026 23.0994C187.609 23.0994 187.234 23.0166 186.9 22.8509C186.566 22.6851 186.299 22.4579 186.097 22.169C185.896 21.8802 185.786 21.5511 185.767 21.1818H186.619C186.652 21.5109 186.802 21.7831 187.067 21.9986C187.334 22.2116 187.654 22.3182 188.026 22.3182C188.324 22.3182 188.589 22.2483 188.821 22.1087C189.055 21.969 189.239 21.7772 189.371 21.5334C189.506 21.2872 189.574 21.009 189.574 20.6989C189.574 20.3816 189.504 20.0987 189.364 19.8501C189.227 19.5992 189.038 19.4015 188.796 19.2571C188.555 19.1127 188.279 19.0393 187.969 19.0369C187.746 19.0346 187.518 19.0689 187.283 19.1399C187.049 19.2086 186.856 19.2973 186.705 19.4062L185.881 19.3068L186.321 15.7273H190.099V16.5085H187.06L186.804 18.6534H186.847C186.996 18.535 187.183 18.4368 187.408 18.3587C187.633 18.2805 187.867 18.2415 188.111 18.2415C188.556 18.2415 188.952 18.348 189.3 18.5611C189.651 18.7718 189.925 19.0606 190.124 19.4276C190.326 19.7945 190.426 20.2135 190.426 20.6847C190.426 21.1487 190.322 21.563 190.114 21.9276C189.908 22.2898 189.624 22.5762 189.261 22.7869C188.899 22.9953 188.487 23.0994 188.026 23.0994Z" fill="black"/>
<path d="M181.881 10V2.72727H186.27V3.50852H182.761V5.78125H184.608C185.129 5.78125 185.568 5.86648 185.925 6.03693C186.285 6.20739 186.558 6.44768 186.742 6.75781C186.929 7.06795 187.023 7.43371 187.023 7.85511C187.023 8.27652 186.929 8.6482 186.742 8.97017C186.558 9.29214 186.285 9.54427 185.925 9.72656C185.568 9.90885 185.129 10 184.608 10H181.881ZM182.761 9.23295H184.608C184.939 9.23295 185.22 9.16667 185.45 9.03409C185.682 8.89915 185.857 8.72633 185.975 8.51562C186.096 8.30256 186.156 8.07765 186.156 7.84091C186.156 7.4929 186.022 7.19342 185.755 6.94247C185.487 6.68916 185.105 6.5625 184.608 6.5625H182.761V9.23295ZM188.345 10V9.3608L190.745 6.73295C191.027 6.42519 191.259 6.15767 191.441 5.9304C191.624 5.70076 191.758 5.48532 191.846 5.28409C191.936 5.08049 191.981 4.86742 191.981 4.64489C191.981 4.3892 191.919 4.16785 191.796 3.98082C191.676 3.7938 191.51 3.64938 191.299 3.54759C191.088 3.44579 190.852 3.39489 190.589 3.39489C190.31 3.39489 190.066 3.45289 189.857 3.56889C189.651 3.68253 189.492 3.84233 189.378 4.0483C189.267 4.25426 189.211 4.49574 189.211 4.77273H188.373C188.373 4.34659 188.471 3.97254 188.668 3.65057C188.864 3.3286 189.132 3.07765 189.47 2.89773C189.811 2.7178 190.194 2.62784 190.617 2.62784C191.044 2.62784 191.421 2.7178 191.75 2.89773C192.079 3.07765 192.337 3.32031 192.524 3.62571C192.711 3.93111 192.805 4.27083 192.805 4.64489C192.805 4.91241 192.756 5.17401 192.659 5.42969C192.565 5.683 192.399 5.96591 192.162 6.27841C191.928 6.58854 191.602 6.96733 191.186 7.41477L189.552 9.16193V9.21875H192.933V10H188.345Z" fill="black"/>
<path d="M198.354 13.3536C198.549 13.1583 198.549 12.8417 198.354 12.6464L195.172 9.46447C194.976 9.2692 194.66 9.2692 194.464 9.46447C194.269 9.65973 194.269 9.97631 194.464 10.1716L197.293 13L194.464 15.8284C194.269 16.0237 194.269 16.3403 194.464 16.5355C194.66 16.7308 194.976 16.7308 195.172 16.5355L198.354 13.3536ZM178 13.5H198V12.5H178V13.5Z" fill="black"/>
<path d="M50.1 0.1H74.9V24.25C74.9 24.2654 74.8926 24.2918 74.8539 24.3296C74.815 24.3676 74.7523 24.4091 74.6626 24.4515C74.4835 24.5362 74.2181 24.6151 73.882 24.6823C73.2116 24.8164 72.281 24.9 71.25 24.9H53.75C52.719 24.9 51.7884 24.8164 51.118 24.6823C50.7819 24.6151 50.5165 24.5362 50.3374 24.4515C50.2477 24.4091 50.185 24.3676 50.1461 24.3296C50.1074 24.2918 50.1 24.2654 50.1 24.25V0.1Z" fill="url(#paint10_radial_571_844)" stroke="black" stroke-width="0.2"/>
<path d="M25.1 0.1H49.9V24.25C49.9 24.2654 49.8926 24.2918 49.8539 24.3296C49.815 24.3676 49.7523 24.4091 49.6626 24.4515C49.4835 24.5362 49.2181 24.6151 48.882 24.6823C48.2116 24.8164 47.281 24.9 46.25 24.9H28.75C27.719 24.9 26.7884 24.8164 26.118 24.6823C25.7819 24.6151 25.5165 24.5362 25.3374 24.4515C25.2477 24.4091 25.185 24.3676 25.1461 24.3296C25.1074 24.2918 25.1 24.2654 25.1 24.25V0.1Z" fill="url(#paint11_radial_571_844)" stroke="black" stroke-width="0.2"/>
<path d="M0.1 0.1H24.9V24.25C24.9 24.2654 24.8926 24.2918 24.8539 24.3296C24.815 24.3676 24.7523 24.4091 24.6626 24.4515C24.4835 24.5362 24.2181 24.6151 23.882 24.6823C23.2116 24.8164 22.281 24.9 21.25 24.9H3.75C2.719 24.9 1.78838 24.8164 1.11796 24.6823C0.781929 24.6151 0.516476 24.5362 0.337441 24.4515C0.247669 24.4091 0.184964 24.3676 0.146084 24.3296C0.107371 24.2918 0.1 24.2654 0.1 24.25V0.1Z" fill="url(#paint12_linear_571_844)" stroke="black" stroke-width="0.2"/>
<path d="M0.1 0.1H24.9V24.25C24.9 24.2654 24.8926 24.2918 24.8539 24.3296C24.815 24.3676 24.7523 24.4091 24.6626 24.4515C24.4835 24.5362 24.2181 24.6151 23.882 24.6823C23.2116 24.8164 22.281 24.9 21.25 24.9H3.75C2.719 24.9 1.78838 24.8164 1.11796 24.6823C0.781929 24.6151 0.516476 24.5362 0.337441 24.4515C0.247669 24.4091 0.184964 24.3676 0.146084 24.3296C0.107371 24.2918 0.1 24.2654 0.1 24.25V0.1Z" fill="url(#paint13_linear_571_844)" stroke="black" stroke-width="0.2"/>
<path d="M13.3097 15.7273V23H12.429V16.6506H12.3864L10.6108 17.8295V16.9347L12.429 15.7273H13.3097Z" fill="black"/>
<path d="M9.75 8.86364L11.6534 4.54545H12.4489L10.0909 10H9.40909L7.09375 4.54545H7.875L9.75 8.86364ZM7.60511 4.54545V10H6.76705V4.54545H7.60511ZM11.8949 10V4.54545H12.733V10H11.8949ZM16.7102 10.0994C16.2415 10.0994 15.8236 10.0189 15.4567 9.85795C15.0921 9.69697 14.8021 9.47325 14.5866 9.18679C14.3736 8.89796 14.2576 8.56297 14.2386 8.18182H15.1335C15.1525 8.41619 15.233 8.61861 15.375 8.78906C15.517 8.95715 15.7029 9.08736 15.9325 9.17969C16.1622 9.27202 16.4167 9.31818 16.696 9.31818C17.0085 9.31818 17.2855 9.26373 17.527 9.15483C17.7685 9.04593 17.9579 8.89441 18.0952 8.70028C18.2325 8.50616 18.3011 8.28125 18.3011 8.02557C18.3011 7.75805 18.2348 7.52249 18.1023 7.31889C17.9697 7.11293 17.7756 6.95194 17.5199 6.83594C17.2642 6.71993 16.9517 6.66193 16.5824 6.66193H16V5.88068H16.5824C16.8712 5.88068 17.1245 5.8286 17.3423 5.72443C17.5625 5.62026 17.7341 5.47348 17.8572 5.28409C17.9827 5.0947 18.0455 4.87216 18.0455 4.61648C18.0455 4.37026 17.991 4.15601 17.8821 3.97372C17.7732 3.79143 17.6193 3.64938 17.4205 3.54759C17.224 3.44579 16.992 3.39489 16.7244 3.39489C16.4735 3.39489 16.2367 3.44105 16.0142 3.53338C15.794 3.62334 15.6141 3.75473 15.4744 3.92756C15.3348 4.09801 15.259 4.30398 15.2472 4.54545H14.3949C14.4091 4.1643 14.5239 3.83049 14.7393 3.54403C14.9548 3.25521 15.2365 3.0303 15.5845 2.86932C15.9349 2.70833 16.3196 2.62784 16.7386 2.62784C17.1884 2.62784 17.5743 2.71899 17.8963 2.90128C18.2183 3.0812 18.4657 3.31913 18.6385 3.61506C18.8113 3.91098 18.8977 4.23059 18.8977 4.57386C18.8977 4.98343 18.79 5.33262 18.5746 5.62145C18.3615 5.91027 18.0715 6.11032 17.7045 6.22159V6.27841C18.1638 6.35417 18.5225 6.54948 18.7805 6.86435C19.0386 7.17685 19.1676 7.56392 19.1676 8.02557C19.1676 8.42093 19.0599 8.77604 18.8445 9.09091C18.6314 9.40341 18.3402 9.64962 17.9709 9.82955C17.6016 10.0095 17.1813 10.0994 16.7102 10.0994Z" fill="black"/>
<path d="M23.3536 13.3536C23.5488 13.1583 23.5488 12.8417 23.3536 12.6464L20.1716 9.46447C19.9763 9.2692 19.6597 9.2692 19.4645 9.46447C19.2692 9.65973 19.2692 9.97631 19.4645 10.1716L22.2929 13L19.4645 15.8284C19.2692 16.0237 19.2692 16.3403 19.4645 16.5355C19.6597 16.7308 19.9763 16.7308 20.1716 16.5355L23.3536 13.3536ZM3 13.5H23V12.5H3V13.5Z" fill="black"/>
<defs>
<radialGradient id="paint0_radial_571_844" cx="0" cy="0" r="1" gradientUnits="userSpaceOnUse" gradientTransform="translate(312.5 12.5) rotate(90) scale(12.5)">
<stop offset="0.171875"/>
<stop offset="0.171975" stop-color="white"/>
</radialGradient>
<radialGradient id="paint1_radial_571_844" cx="0" cy="0" r="1" gradientUnits="userSpaceOnUse" gradientTransform="translate(287.5 12.5) rotate(90) scale(12.5)">
<stop offset="0.171875"/>
<stop offset="0.171975" stop-color="white"/>
</radialGradient>
<radialGradient id="paint2_radial_571_844" cx="0" cy="0" r="1" gradientUnits="userSpaceOnUse" gradientTransform="translate(262.5 12.5) rotate(90) scale(12.5)">
<stop offset="0.171875"/>
<stop offset="0.171975" stop-color="white"/>
</radialGradient>
<radialGradient id="paint3_radial_571_844" cx="0" cy="0" r="1" gradientUnits="userSpaceOnUse" gradientTransform="translate(212.5 12.5) rotate(90) scale(12.5)">
<stop offset="0.171875"/>
<stop offset="0.171975" stop-color="white"/>
</radialGradient>
<linearGradient id="paint4_linear_571_844" x1="237.5" y1="0" x2="237.5" y2="25" gradientUnits="userSpaceOnUse">
<stop offset="0.255208" stop-color="#DDB078"/>
<stop offset="0.598958" stop-color="#F4D6B1"/>
</linearGradient>
<radialGradient id="paint5_radial_571_844" cx="0" cy="0" r="1" gradientUnits="userSpaceOnUse" gradientTransform="translate(162.5 12.5) rotate(90) scale(12.5)">
<stop offset="0.171875"/>
<stop offset="0.171975" stop-color="white"/>
</radialGradient>
<radialGradient id="paint6_radial_571_844" cx="0" cy="0" r="1" gradientUnits="userSpaceOnUse" gradientTransform="translate(137.5 12.5) rotate(90) scale(12.5)">
<stop offset="0.171875"/>
<stop offset="0.171975" stop-color="white"/>
</radialGradient>
<radialGradient id="paint7_radial_571_844" cx="0" cy="0" r="1" gradientUnits="userSpaceOnUse" gradientTransform="translate(112.5 12.5) rotate(90) scale(12.5)">
<stop offset="0.171875"/>
<stop offset="0.171975" stop-color="white"/>
</radialGradient>
<linearGradient id="paint8_linear_571_844" x1="87.5" y1="0" x2="87.5" y2="25" gradientUnits="userSpaceOnUse">
<stop offset="0.255208" stop-color="#DDB078"/>
<stop offset="0.598958" stop-color="#F4D6B1"/>
</linearGradient>
<linearGradient id="paint9_linear_571_844" x1="187.5" y1="0" x2="187.5" y2="25" gradientUnits="userSpaceOnUse">
<stop offset="0.255208" stop-color="#DDB078"/>
<stop offset="0.598958" stop-color="#F4D6B1"/>
</linearGradient>
<radialGradient id="paint10_radial_571_844" cx="0" cy="0" r="1" gradientUnits="userSpaceOnUse" gradientTransform="translate(62.5 12.5) rotate(90) scale(12.5)">
<stop offset="0.171875"/>
<stop offset="0.171975" stop-color="white"/>
</radialGradient>
<radialGradient id="paint11_radial_571_844" cx="0" cy="0" r="1" gradientUnits="userSpaceOnUse" gradientTransform="translate(37.5 12.5) rotate(90) scale(12.5)">
<stop offset="0.171875"/>
<stop offset="0.171975" stop-color="white"/>
</radialGradient>
<linearGradient id="paint12_linear_571_844" x1="12.5" y1="0" x2="12.5" y2="25" gradientUnits="userSpaceOnUse">
<stop offset="0.255208" stop-color="#DDB078"/>
<stop offset="0.598958" stop-color="#F4D6B1"/>
</linearGradient>
<linearGradient id="paint13_linear_571_844" x1="12.5" y1="0" x2="12.5" y2="25" gradientUnits="userSpaceOnUse">
<stop offset="0.255208" stop-color="#DDB078"/>
<stop offset="0.598958" stop-color="#F4D6B1"/>
</linearGradient>
</defs>
</svg>
