<svg width="325" height="26" viewBox="0 0 325 26" fill="none" xmlns="http://www.w3.org/2000/svg">
<path d="M300.1 1.1H324.9V25.25C324.9 25.2654 324.893 25.2918 324.854 25.3296C324.815 25.3676 324.752 25.4091 324.663 25.4515C324.484 25.5362 324.218 25.6151 323.882 25.6823C323.212 25.8164 322.281 25.9 321.25 25.9H303.75C302.719 25.9 301.788 25.8164 301.118 25.6823C300.782 25.6151 300.516 25.5362 300.337 25.4515C300.248 25.4091 300.185 25.3676 300.146 25.3296C300.107 25.2918 300.1 25.2654 300.1 25.25V1.1Z" fill="url(#paint0_radial_571_599)" stroke="black" stroke-width="0.2"/>
<path d="M275.1 1.1H299.9V25.25C299.9 25.2654 299.893 25.2918 299.854 25.3296C299.815 25.3676 299.752 25.4091 299.663 25.4515C299.484 25.5362 299.218 25.6151 298.882 25.6823C298.212 25.8164 297.281 25.9 296.25 25.9H278.75C277.719 25.9 276.788 25.8164 276.118 25.6823C275.782 25.6151 275.516 25.5362 275.337 25.4515C275.248 25.4091 275.185 25.3676 275.146 25.3296C275.107 25.2918 275.1 25.2654 275.1 25.25V1.1Z" fill="url(#paint1_radial_571_599)" stroke="black" stroke-width="0.2"/>
<path d="M250.1 1.1H274.9V25.25C274.9 25.2654 274.893 25.2918 274.854 25.3296C274.815 25.3676 274.752 25.4091 274.663 25.4515C274.484 25.5362 274.218 25.6151 273.882 25.6823C273.212 25.8164 272.281 25.9 271.25 25.9H253.75C252.719 25.9 251.788 25.8164 251.118 25.6823C250.782 25.6151 250.516 25.5362 250.337 25.4515C250.248 25.4091 250.185 25.3676 250.146 25.3296C250.107 25.2918 250.1 25.2654 250.1 25.25V1.1Z" fill="url(#paint2_radial_571_599)" stroke="black" stroke-width="0.2"/>
<path d="M225.1 1.1H249.9V25.25C249.9 25.2654 249.893 25.2918 249.854 25.3296C249.815 25.3676 249.752 25.4091 249.663 25.4515C249.484 25.5362 249.218 25.6151 248.882 25.6823C248.212 25.8164 247.281 25.9 246.25 25.9H228.75C227.719 25.9 226.788 25.8164 226.118 25.6823C225.782 25.6151 225.516 25.5362 225.337 25.4515C225.248 25.4091 225.185 25.3676 225.146 25.3296C225.107 25.2918 225.1 25.2654 225.1 25.25V1.1Z" fill="url(#paint3_radial_571_599)" stroke="black" stroke-width="0.2"/>
<path d="M200.1 1.1H224.9V25.25C224.9 25.2654 224.893 25.2918 224.854 25.3296C224.815 25.3676 224.752 25.4091 224.663 25.4515C224.484 25.5362 224.218 25.6151 223.882 25.6823C223.212 25.8164 222.281 25.9 221.25 25.9H203.75C202.719 25.9 201.788 25.8164 201.118 25.6823C200.782 25.6151 200.516 25.5362 200.337 25.4515C200.248 25.4091 200.185 25.3676 200.146 25.3296C200.107 25.2918 200.1 25.2654 200.1 25.25V1.1Z" fill="url(#paint4_radial_571_599)" stroke="black" stroke-width="0.2"/>
<path d="M175.1 1.1H199.9V25.25C199.9 25.2654 199.893 25.2918 199.854 25.3296C199.815 25.3676 199.752 25.4091 199.663 25.4515C199.484 25.5362 199.218 25.6151 198.882 25.6823C198.212 25.8164 197.281 25.9 196.25 25.9H178.75C177.719 25.9 176.788 25.8164 176.118 25.6823C175.782 25.6151 175.516 25.5362 175.337 25.4515C175.248 25.4091 175.185 25.3676 175.146 25.3296C175.107 25.2918 175.1 25.2654 175.1 25.25V1.1Z" fill="url(#paint5_linear_571_599)" stroke="black" stroke-width="0.2"/>
<path d="M195.026 24.0994C194.609 24.0994 194.234 24.0166 193.9 23.8509C193.566 23.6851 193.299 23.4579 193.097 23.169C192.896 22.8802 192.786 22.5511 192.767 22.1818H193.619C193.652 22.5109 193.802 22.7831 194.067 22.9986C194.334 23.2116 194.654 23.3182 195.026 23.3182C195.324 23.3182 195.589 23.2483 195.821 23.1087C196.055 22.969 196.239 22.7772 196.371 22.5334C196.506 22.2872 196.574 22.009 196.574 21.6989C196.574 21.3816 196.504 21.0987 196.364 20.8501C196.227 20.5992 196.038 20.4015 195.796 20.2571C195.555 20.1127 195.279 20.0393 194.969 20.0369C194.746 20.0346 194.518 20.0689 194.283 20.1399C194.049 20.2086 193.856 20.2973 193.705 20.4062L192.881 20.3068L193.321 16.7273H197.099V17.5085H194.06L193.804 19.6534H193.847C193.996 19.535 194.183 19.4368 194.408 19.3587C194.633 19.2805 194.867 19.2415 195.111 19.2415C195.556 19.2415 195.952 19.348 196.3 19.5611C196.651 19.7718 196.925 20.0606 197.124 20.4276C197.326 20.7945 197.426 21.2135 197.426 21.6847C197.426 22.1487 197.322 22.563 197.114 22.9276C196.908 23.2898 196.624 23.5762 196.261 23.7869C195.899 23.9953 195.487 24.0994 195.026 24.0994Z" fill="black"/>
<path d="M177 12H184" stroke="black"/>
<path d="M177 15H184" stroke="black"/>
<path d="M191.972 4.54545V10H191.134V4.54545H191.972ZM191.645 7.14489V7.92614C191.455 7.99716 191.267 8.0599 191.08 8.11435C190.893 8.16643 190.697 8.20786 190.491 8.23864C190.285 8.26705 190.059 8.28125 189.812 8.28125C189.195 8.28125 188.699 8.11435 188.325 7.78054C187.953 7.44673 187.767 6.94602 187.767 6.27841V4.53125H188.605V6.27841C188.605 6.55777 188.658 6.78741 188.765 6.96733C188.871 7.14725 189.016 7.28101 189.198 7.36861C189.38 7.4562 189.585 7.5 189.812 7.5C190.168 7.5 190.488 7.46804 190.775 7.40412C191.064 7.33783 191.354 7.25142 191.645 7.14489ZM195.768 10.0994C195.351 10.0994 194.976 10.0166 194.642 9.85085C194.308 9.68513 194.041 9.45786 193.839 9.16903C193.638 8.88021 193.528 8.55114 193.509 8.18182H194.362C194.395 8.51089 194.544 8.78314 194.809 8.99858C195.076 9.21165 195.396 9.31818 195.768 9.31818C196.066 9.31818 196.331 9.24834 196.563 9.10866C196.798 8.96899 196.981 8.77723 197.114 8.53338C197.249 8.28717 197.316 8.009 197.316 7.69886C197.316 7.38163 197.246 7.09872 197.107 6.85014C196.969 6.5992 196.78 6.40152 196.538 6.2571C196.297 6.11269 196.021 6.0393 195.711 6.03693C195.488 6.03456 195.26 6.06889 195.026 6.13991C194.791 6.20857 194.598 6.29735 194.447 6.40625L193.623 6.30682L194.063 2.72727H197.842V3.50852H194.802L194.546 5.65341H194.589C194.738 5.53504 194.925 5.43679 195.15 5.35866C195.375 5.28054 195.609 5.24148 195.853 5.24148C196.298 5.24148 196.695 5.34801 197.043 5.56108C197.393 5.77178 197.668 6.06061 197.866 6.42756C198.068 6.79451 198.168 7.21354 198.168 7.68466C198.168 8.14867 198.064 8.56297 197.856 8.92756C197.65 9.28977 197.366 9.57623 197.004 9.78693C196.641 9.99527 196.229 10.0994 195.768 10.0994Z" fill="black"/>
<path d="M150.1 1.1H174.9V25.25C174.9 25.2654 174.893 25.2918 174.854 25.3296C174.815 25.3676 174.752 25.4091 174.663 25.4515C174.484 25.5362 174.218 25.6151 173.882 25.6823C173.212 25.8164 172.281 25.9 171.25 25.9H153.75C152.719 25.9 151.788 25.8164 151.118 25.6823C150.782 25.6151 150.516 25.5362 150.337 25.4515C150.248 25.4091 150.185 25.3676 150.146 25.3296C150.107 25.2918 150.1 25.2654 150.1 25.25V1.1Z" fill="url(#paint6_radial_571_599)" stroke="black" stroke-width="0.2"/>
<path d="M125.1 1.1H149.9V25.25C149.9 25.2654 149.893 25.2918 149.854 25.3296C149.815 25.3676 149.752 25.4091 149.663 25.4515C149.484 25.5362 149.218 25.6151 148.882 25.6823C148.212 25.8164 147.281 25.9 146.25 25.9H128.75C127.719 25.9 126.788 25.8164 126.118 25.6823C125.782 25.6151 125.516 25.5362 125.337 25.4515C125.248 25.4091 125.185 25.3676 125.146 25.3296C125.107 25.2918 125.1 25.2654 125.1 25.25V1.1Z" fill="url(#paint7_radial_571_599)" stroke="black" stroke-width="0.2"/>
<path d="M100.1 1.1H124.9V25.25C124.9 25.2654 124.893 25.2918 124.854 25.3296C124.815 25.3676 124.752 25.4091 124.663 25.4515C124.484 25.5362 124.218 25.6151 123.882 25.6823C123.212 25.8164 122.281 25.9 121.25 25.9H103.75C102.719 25.9 101.788 25.8164 101.118 25.6823C100.782 25.6151 100.516 25.5362 100.337 25.4515C100.248 25.4091 100.185 25.3676 100.146 25.3296C100.107 25.2918 100.1 25.2654 100.1 25.25V1.1Z" fill="url(#paint8_radial_571_599)" stroke="black" stroke-width="0.2"/>
<path d="M75.1 1.1H99.9V25.25C99.9 25.2654 99.8926 25.2918 99.8539 25.3296C99.815 25.3676 99.7523 25.4091 99.6626 25.4515C99.4835 25.5362 99.2181 25.6151 98.882 25.6823C98.2116 25.8164 97.281 25.9 96.25 25.9H78.75C77.719 25.9 76.7884 25.8164 76.118 25.6823C75.7819 25.6151 75.5165 25.5362 75.3374 25.4515C75.2477 25.4091 75.185 25.3676 75.1461 25.3296C75.1074 25.2918 75.1 25.2654 75.1 25.25V1.1Z" fill="url(#paint9_linear_571_599)" stroke="black" stroke-width="0.2"/>
<path d="M89.2102 24.0994C88.7415 24.0994 88.3236 24.0189 87.9567 23.858C87.5921 23.697 87.3021 23.4732 87.0866 23.1868C86.8736 22.898 86.7576 22.563 86.7386 22.1818H87.6335C87.6525 22.4162 87.733 22.6186 87.875 22.7891C88.017 22.9571 88.2029 23.0874 88.4325 23.1797C88.6622 23.272 88.9167 23.3182 89.196 23.3182C89.5085 23.3182 89.7855 23.2637 90.027 23.1548C90.2685 23.0459 90.4579 22.8944 90.5952 22.7003C90.7325 22.5062 90.8011 22.2812 90.8011 22.0256C90.8011 21.758 90.7348 21.5225 90.6023 21.3189C90.4697 21.1129 90.2756 20.9519 90.0199 20.8359C89.7642 20.7199 89.4517 20.6619 89.0824 20.6619H88.5V19.8807H89.0824C89.3712 19.8807 89.6245 19.8286 89.8423 19.7244C90.0625 19.6203 90.2341 19.4735 90.3572 19.2841C90.4827 19.0947 90.5455 18.8722 90.5455 18.6165C90.5455 18.3703 90.491 18.156 90.3821 17.9737C90.2732 17.7914 90.1193 17.6494 89.9205 17.5476C89.724 17.4458 89.492 17.3949 89.2244 17.3949C88.9735 17.3949 88.7367 17.4411 88.5142 17.5334C88.294 17.6233 88.1141 17.7547 87.9744 17.9276C87.8348 18.098 87.759 18.304 87.7472 18.5455H86.8949C86.9091 18.1643 87.0239 17.8305 87.2393 17.544C87.4548 17.2552 87.7365 17.0303 88.0845 16.8693C88.4349 16.7083 88.8196 16.6278 89.2386 16.6278C89.6884 16.6278 90.0743 16.719 90.3963 16.9013C90.7183 17.0812 90.9657 17.3191 91.1385 17.6151C91.3113 17.911 91.3977 18.2306 91.3977 18.5739C91.3977 18.9834 91.29 19.3326 91.0746 19.6214C90.8615 19.9103 90.5715 20.1103 90.2045 20.2216V20.2784C90.6638 20.3542 91.0225 20.5495 91.2805 20.8643C91.5386 21.1768 91.6676 21.5639 91.6676 22.0256C91.6676 22.4209 91.5599 22.776 91.3445 23.0909C91.1314 23.4034 90.8402 23.6496 90.4709 23.8295C90.1016 24.0095 89.6813 24.0994 89.2102 24.0994Z" fill="black"/>
<path d="M83 24.379L84.833 23.027C85.639 22.442 85.951 21.779 85.977 21.285C85.977 20.557 85.314 20.011 84.534 20.011C83.988 20.011 83.585 20.219 83.325 20.648L83.416 16.553H83V24.379ZM84.209 20.531C84.625 20.531 84.937 20.83 84.937 21.233C84.937 21.909 84.04 23.209 83.364 23.638C83.325 23.417 83.299 22.988 83.299 22.351C83.299 22 83.325 21.571 83.377 21.077C83.572 20.713 83.845 20.531 84.209 20.531Z" fill="black"/>
<path d="M81.8807 11V3.72727H86.2699V4.50852H82.7614V6.78125H84.608C85.1288 6.78125 85.5679 6.86648 85.9254 7.03693C86.2853 7.20739 86.5575 7.44768 86.7422 7.75781C86.9292 8.06795 87.0227 8.43371 87.0227 8.85511C87.0227 9.27652 86.9292 9.6482 86.7422 9.97017C86.5575 10.2921 86.2853 10.5443 85.9254 10.7266C85.5679 10.9089 85.1288 11 84.608 11H81.8807ZM82.7614 10.233H84.608C84.9394 10.233 85.2199 10.1667 85.4496 10.0341C85.6816 9.89915 85.8568 9.72633 85.9751 9.51562C86.0959 9.30256 86.1562 9.07765 86.1562 8.84091C86.1562 8.4929 86.0225 8.19342 85.755 7.94247C85.4875 7.68916 85.1051 7.5625 84.608 7.5625H82.7614V10.233ZM90.802 11.0994C90.3333 11.0994 89.9154 11.0189 89.5485 10.858C89.1839 10.697 88.8939 10.4732 88.6784 10.1868C88.4654 9.89796 88.3494 9.56297 88.3304 9.18182H89.2253C89.2443 9.41619 89.3248 9.61861 89.4668 9.78906C89.6088 9.95715 89.7947 10.0874 90.0243 10.1797C90.254 10.272 90.5085 10.3182 90.7878 10.3182C91.1003 10.3182 91.3773 10.2637 91.6188 10.1548C91.8603 10.0459 92.0497 9.89441 92.187 9.70028C92.3243 9.50616 92.3929 9.28125 92.3929 9.02557C92.3929 8.75805 92.3266 8.52249 92.1941 8.31889C92.0615 8.11293 91.8674 7.95194 91.6117 7.83594C91.356 7.71993 91.0435 7.66193 90.6742 7.66193H90.0918V6.88068H90.6742C90.963 6.88068 91.2163 6.8286 91.4341 6.72443C91.6543 6.62026 91.8259 6.47348 91.949 6.28409C92.0745 6.0947 92.1373 5.87216 92.1373 5.61648C92.1373 5.37026 92.0828 5.15601 91.9739 4.97372C91.865 4.79143 91.7111 4.64938 91.5123 4.54759C91.3158 4.44579 91.0837 4.39489 90.8162 4.39489C90.5653 4.39489 90.3285 4.44105 90.106 4.53338C89.8858 4.62334 89.7059 4.75473 89.5662 4.92756C89.4266 5.09801 89.3508 5.30398 89.339 5.54545H88.4867C88.5009 5.1643 88.6157 4.83049 88.8311 4.54403C89.0466 4.25521 89.3283 4.0303 89.6763 3.86932C90.0267 3.70833 90.4114 3.62784 90.8304 3.62784C91.2802 3.62784 91.6661 3.71899 91.9881 3.90128C92.3101 4.0812 92.5575 4.31913 92.7303 4.61506C92.9031 4.91098 92.9895 5.23059 92.9895 5.57386C92.9895 5.98343 92.8818 6.33262 92.6664 6.62145C92.4533 6.91027 92.1633 7.11032 91.7963 7.22159V7.27841C92.2556 7.35417 92.6143 7.54948 92.8723 7.86435C93.1304 8.17685 93.2594 8.56392 93.2594 9.02557C93.2594 9.42093 93.1517 9.77604 92.9363 10.0909C92.7232 10.4034 92.432 10.6496 92.0627 10.8295C91.6934 11.0095 91.2731 11.0994 90.802 11.0994Z" fill="black"/>
<path d="M98.3536 14.3536C98.5488 14.1583 98.5488 13.8417 98.3536 13.6464L95.1716 10.4645C94.9763 10.2692 94.6597 10.2692 94.4645 10.4645C94.2692 10.6597 94.2692 10.9763 94.4645 11.1716L97.2929 14L94.4645 16.8284C94.2692 17.0237 94.2692 17.3403 94.4645 17.5355C94.6597 17.7308 94.9763 17.7308 95.1716 17.5355L98.3536 14.3536ZM78 14.5H98V13.5H78V14.5Z" fill="black"/>
<path d="M50.1 1.1H74.9V25.25C74.9 25.2654 74.8926 25.2918 74.8539 25.3296C74.815 25.3676 74.7523 25.4091 74.6626 25.4515C74.4835 25.5362 74.2181 25.6151 73.882 25.6823C73.2116 25.8164 72.281 25.9 71.25 25.9H53.75C52.719 25.9 51.7884 25.8164 51.118 25.6823C50.7819 25.6151 50.5165 25.5362 50.3374 25.4515C50.2477 25.4091 50.185 25.3676 50.1461 25.3296C50.1074 25.2918 50.1 25.2654 50.1 25.25V1.1Z" fill="url(#paint10_radial_571_599)" stroke="black" stroke-width="0.2"/>
<path d="M25.1 1.1H49.9V25.25C49.9 25.2654 49.8926 25.2918 49.8539 25.3296C49.815 25.3676 49.7523 25.4091 49.6626 25.4515C49.4835 25.5362 49.2181 25.6151 48.882 25.6823C48.2116 25.8164 47.281 25.9 46.25 25.9H28.75C27.719 25.9 26.7884 25.8164 26.118 25.6823C25.7819 25.6151 25.5165 25.5362 25.3374 25.4515C25.2477 25.4091 25.185 25.3676 25.1461 25.3296C25.1074 25.2918 25.1 25.2654 25.1 25.25V1.1Z" fill="url(#paint11_radial_571_599)" stroke="black" stroke-width="0.2"/>
<path d="M0.1 1.1H24.9V25.25C24.9 25.2654 24.8926 25.2918 24.8539 25.3296C24.815 25.3676 24.7523 25.4091 24.6626 25.4515C24.4835 25.5362 24.2181 25.6151 23.882 25.6823C23.2116 25.8164 22.281 25.9 21.25 25.9H3.75C2.719 25.9 1.78838 25.8164 1.11796 25.6823C0.781929 25.6151 0.516476 25.5362 0.337441 25.4515C0.247669 25.4091 0.184964 25.3676 0.146084 25.3296C0.107371 25.2918 0.1 25.2654 0.1 25.25V1.1Z" fill="url(#paint12_linear_571_599)" stroke="black" stroke-width="0.2"/>
<path d="M0.1 1.1H24.9V25.25C24.9 25.2654 24.8926 25.2918 24.8539 25.3296C24.815 25.3676 24.7523 25.4091 24.6626 25.4515C24.4835 25.5362 24.2181 25.6151 23.882 25.6823C23.2116 25.8164 22.281 25.9 21.25 25.9H3.75C2.719 25.9 1.78838 25.8164 1.11796 25.6823C0.781929 25.6151 0.516476 25.5362 0.337441 25.4515C0.247669 25.4091 0.184964 25.3676 0.146084 25.3296C0.107371 25.2918 0.1 25.2654 0.1 25.25V1.1Z" fill="url(#paint13_linear_571_599)" stroke="black" stroke-width="0.2"/>
<path d="M13.3097 16.7273V24H12.429V17.6506H12.3864L10.6108 18.8295V17.9347L12.429 16.7273H13.3097Z" fill="black"/>
<path d="M9.75 9.86364L11.6534 5.54545H12.4489L10.0909 11H9.40909L7.09375 5.54545H7.875L9.75 9.86364ZM7.60511 5.54545V11H6.76705V5.54545H7.60511ZM11.8949 11V5.54545H12.733V11H11.8949ZM16.7102 11.0994C16.2415 11.0994 15.8236 11.0189 15.4567 10.858C15.0921 10.697 14.8021 10.4732 14.5866 10.1868C14.3736 9.89796 14.2576 9.56297 14.2386 9.18182H15.1335C15.1525 9.41619 15.233 9.61861 15.375 9.78906C15.517 9.95715 15.7029 10.0874 15.9325 10.1797C16.1622 10.272 16.4167 10.3182 16.696 10.3182C17.0085 10.3182 17.2855 10.2637 17.527 10.1548C17.7685 10.0459 17.9579 9.89441 18.0952 9.70028C18.2325 9.50616 18.3011 9.28125 18.3011 9.02557C18.3011 8.75805 18.2348 8.52249 18.1023 8.31889C17.9697 8.11293 17.7756 7.95194 17.5199 7.83594C17.2642 7.71993 16.9517 7.66193 16.5824 7.66193H16V6.88068H16.5824C16.8712 6.88068 17.1245 6.8286 17.3423 6.72443C17.5625 6.62026 17.7341 6.47348 17.8572 6.28409C17.9827 6.0947 18.0455 5.87216 18.0455 5.61648C18.0455 5.37026 17.991 5.15601 17.8821 4.97372C17.7732 4.79143 17.6193 4.64938 17.4205 4.54759C17.224 4.44579 16.992 4.39489 16.7244 4.39489C16.4735 4.39489 16.2367 4.44105 16.0142 4.53338C15.794 4.62334 15.6141 4.75473 15.4744 4.92756C15.3348 5.09801 15.259 5.30398 15.2472 5.54545H14.3949C14.4091 5.1643 14.5239 4.83049 14.7393 4.54403C14.9548 4.25521 15.2365 4.0303 15.5845 3.86932C15.9349 3.70833 16.3196 3.62784 16.7386 3.62784C17.1884 3.62784 17.5743 3.71899 17.8963 3.90128C18.2183 4.0812 18.4657 4.31913 18.6385 4.61506C18.8113 4.91098 18.8977 5.23059 18.8977 5.57386C18.8977 5.98343 18.79 6.33262 18.5746 6.62145C18.3615 6.91027 18.0715 7.11032 17.7045 7.22159V7.27841C18.1638 7.35417 18.5225 7.54948 18.7805 7.86435C19.0386 8.17685 19.1676 8.56392 19.1676 9.02557C19.1676 9.42093 19.0599 9.77604 18.8445 10.0909C18.6314 10.4034 18.3402 10.6496 17.9709 10.8295C17.6016 11.0095 17.1813 11.0994 16.7102 11.0994Z" fill="black"/>
<path d="M23.3536 14.3536C23.5488 14.1583 23.5488 13.8417 23.3536 13.6464L20.1716 10.4645C19.9763 10.2692 19.6597 10.2692 19.4645 10.4645C19.2692 10.6597 19.2692 10.9763 19.4645 11.1716L22.2929 14L19.4645 16.8284C19.2692 17.0237 19.2692 17.3403 19.4645 17.5355C19.6597 17.7308 19.9763 17.7308 20.1716 17.5355L23.3536 14.3536ZM3 14.5H23V13.5H3V14.5Z" fill="black"/>
<defs>
<radialGradient id="paint0_radial_571_599" cx="0" cy="0" r="1" gradientUnits="userSpaceOnUse" gradientTransform="translate(312.5 13.5) rotate(90) scale(12.5)">
<stop offset="0.171875"/>
<stop offset="0.171975" stop-color="white"/>
</radialGradient>
<radialGradient id="paint1_radial_571_599" cx="0" cy="0" r="1" gradientUnits="userSpaceOnUse" gradientTransform="translate(287.5 13.5) rotate(90) scale(12.5)">
<stop offset="0.171875"/>
<stop offset="0.171975" stop-color="white"/>
</radialGradient>
<radialGradient id="paint2_radial_571_599" cx="0" cy="0" r="1" gradientUnits="userSpaceOnUse" gradientTransform="translate(262.5 13.5) rotate(90) scale(12.5)">
<stop offset="0.171875"/>
<stop offset="0.171975" stop-color="white"/>
</radialGradient>
<radialGradient id="paint3_radial_571_599" cx="0" cy="0" r="1" gradientUnits="userSpaceOnUse" gradientTransform="translate(237.5 13.5) rotate(90) scale(12.5)">
<stop offset="0.171875"/>
<stop offset="0.171975" stop-color="white"/>
</radialGradient>
<radialGradient id="paint4_radial_571_599" cx="0" cy="0" r="1" gradientUnits="userSpaceOnUse" gradientTransform="translate(212.5 13.5) rotate(90) scale(12.5)">
<stop offset="0.171875"/>
<stop offset="0.171975" stop-color="white"/>
</radialGradient>
<linearGradient id="paint5_linear_571_599" x1="187.5" y1="1" x2="187.5" y2="26" gradientUnits="userSpaceOnUse">
<stop offset="0.255208" stop-color="#DDB078"/>
<stop offset="0.598958" stop-color="#F4D6B1"/>
</linearGradient>
<radialGradient id="paint6_radial_571_599" cx="0" cy="0" r="1" gradientUnits="userSpaceOnUse" gradientTransform="translate(162.5 13.5) rotate(90) scale(12.5)">
<stop offset="0.171875"/>
<stop offset="0.171975" stop-color="white"/>
</radialGradient>
<radialGradient id="paint7_radial_571_599" cx="0" cy="0" r="1" gradientUnits="userSpaceOnUse" gradientTransform="translate(137.5 13.5) rotate(90) scale(12.5)">
<stop offset="0.171875"/>
<stop offset="0.171975" stop-color="white"/>
</radialGradient>
<radialGradient id="paint8_radial_571_599" cx="0" cy="0" r="1" gradientUnits="userSpaceOnUse" gradientTransform="translate(112.5 13.5) rotate(90) scale(12.5)">
<stop offset="0.171875"/>
<stop offset="0.171975" stop-color="white"/>
</radialGradient>
<linearGradient id="paint9_linear_571_599" x1="87.5" y1="1" x2="87.5" y2="26" gradientUnits="userSpaceOnUse">
<stop offset="0.255208" stop-color="#DDB078"/>
<stop offset="0.598958" stop-color="#F4D6B1"/>
</linearGradient>
<radialGradient id="paint10_radial_571_599" cx="0" cy="0" r="1" gradientUnits="userSpaceOnUse" gradientTransform="translate(62.5 13.5) rotate(90) scale(12.5)">
<stop offset="0.171875"/>
<stop offset="0.171975" stop-color="white"/>
</radialGradient>
<radialGradient id="paint11_radial_571_599" cx="0" cy="0" r="1" gradientUnits="userSpaceOnUse" gradientTransform="translate(37.5 13.5) rotate(90) scale(12.5)">
<stop offset="0.171875"/>
<stop offset="0.171975" stop-color="white"/>
</radialGradient>
<linearGradient id="paint12_linear_571_599" x1="12.5" y1="1" x2="12.5" y2="26" gradientUnits="userSpaceOnUse">
<stop offset="0.255208" stop-color="#DDB078"/>
<stop offset="0.598958" stop-color="#F4D6B1"/>
</linearGradient>
<linearGradient id="paint13_linear_571_599" x1="12.5" y1="1" x2="12.5" y2="26" gradientUnits="userSpaceOnUse">
<stop offset="0.255208" stop-color="#DDB078"/>
<stop offset="0.598958" stop-color="#F4D6B1"/>
</linearGradient>
</defs>
</svg>
