<svg width="536" height="27" viewBox="0 0 536 27" fill="none" xmlns="http://www.w3.org/2000/svg">
<path d="M406.1 1.1H430.9V25.25C430.9 25.2654 430.893 25.2918 430.854 25.3296C430.815 25.3676 430.752 25.4091 430.663 25.4515C430.484 25.5362 430.218 25.6151 429.882 25.6823C429.212 25.8164 428.281 25.9 427.25 25.9H409.75C408.719 25.9 407.788 25.8164 407.118 25.6823C406.782 25.6151 406.516 25.5362 406.337 25.4515C406.248 25.4091 406.185 25.3676 406.146 25.3296C406.107 25.2918 406.1 25.2654 406.1 25.25V1.1Z" fill="white" stroke="black" stroke-width="0.2"/>
<path d="M419.31 10.7273V18H418.429V11.6506H418.386L416.611 12.8295V11.9347L418.429 10.7273H419.31Z" fill="black"/>
<path d="M356.1 1.1H380.9V25.25C380.9 25.2654 380.893 25.2918 380.854 25.3296C380.815 25.3676 380.752 25.4091 380.663 25.4515C380.484 25.5362 380.218 25.6151 379.882 25.6823C379.212 25.8164 378.281 25.9 377.25 25.9H359.75C358.719 25.9 357.788 25.8164 357.118 25.6823C356.782 25.6151 356.516 25.5362 356.337 25.4515C356.248 25.4091 356.185 25.3676 356.146 25.3296C356.107 25.2918 356.1 25.2654 356.1 25.25V1.1Z" fill="url(#paint0_radial_1083_686)" stroke="black" stroke-width="0.2"/>
<path d="M381.1 1.1H405.9V25.25C405.9 25.2654 405.893 25.2918 405.854 25.3296C405.815 25.3676 405.752 25.4091 405.663 25.4515C405.484 25.5362 405.218 25.6151 404.882 25.6823C404.212 25.8164 403.281 25.9 402.25 25.9H384.75C383.719 25.9 382.788 25.8164 382.118 25.6823C381.782 25.6151 381.516 25.5362 381.337 25.4515C381.248 25.4091 381.185 25.3676 381.146 25.3296C381.107 25.2918 381.1 25.2654 381.1 25.25V1.1Z" fill="url(#paint1_radial_1083_686)" stroke="black" stroke-width="0.2"/>
<path d="M331.1 1.1H355.9V25.25C355.9 25.2654 355.893 25.2918 355.854 25.3296C355.815 25.3676 355.752 25.4091 355.663 25.4515C355.484 25.5362 355.218 25.6151 354.882 25.6823C354.212 25.8164 353.281 25.9 352.25 25.9H334.75C333.719 25.9 332.788 25.8164 332.118 25.6823C331.782 25.6151 331.516 25.5362 331.337 25.4515C331.248 25.4091 331.185 25.3676 331.146 25.3296C331.107 25.2918 331.1 25.2654 331.1 25.25V1.1Z" fill="url(#paint2_radial_1083_686)" stroke="black" stroke-width="0.2"/>
<path d="M306.1 1.1H330.9V25.25C330.9 25.2654 330.893 25.2918 330.854 25.3296C330.815 25.3676 330.752 25.4091 330.663 25.4515C330.484 25.5362 330.218 25.6151 329.882 25.6823C329.212 25.8164 328.281 25.9 327.25 25.9H309.75C308.719 25.9 307.788 25.8164 307.118 25.6823C306.782 25.6151 306.516 25.5362 306.337 25.4515C306.248 25.4091 306.185 25.3676 306.146 25.3296C306.107 25.2918 306.1 25.2654 306.1 25.25V1.1Z" fill="url(#paint3_radial_1083_686)" stroke="black" stroke-width="0.2"/>
<path d="M256.1 1.1H280.9V25.25C280.9 25.2654 280.893 25.2918 280.854 25.3296C280.815 25.3676 280.752 25.4091 280.663 25.4515C280.484 25.5362 280.218 25.6151 279.882 25.6823C279.212 25.8164 278.281 25.9 277.25 25.9H259.75C258.719 25.9 257.788 25.8164 257.118 25.6823C256.782 25.6151 256.516 25.5362 256.337 25.4515C256.248 25.4091 256.185 25.3676 256.146 25.3296C256.107 25.2918 256.1 25.2654 256.1 25.25V1.1Z" fill="url(#paint4_radial_1083_686)" stroke="black" stroke-width="0.2"/>
<path d="M156.1 1.1H180.9V25.25C180.9 25.2654 180.893 25.2918 180.854 25.3296C180.815 25.3676 180.752 25.4091 180.663 25.4515C180.484 25.5362 180.218 25.6151 179.882 25.6823C179.212 25.8164 178.281 25.9 177.25 25.9H159.75C158.719 25.9 157.788 25.8164 157.118 25.6823C156.782 25.6151 156.516 25.5362 156.337 25.4515C156.248 25.4091 156.185 25.3676 156.146 25.3296C156.107 25.2918 156.1 25.2654 156.1 25.25V1.1Z" fill="url(#paint5_radial_1083_686)" stroke="black" stroke-width="0.2"/>
<path d="M206.1 1.1H230.9V25.25C230.9 25.2654 230.893 25.2918 230.854 25.3296C230.815 25.3676 230.752 25.4091 230.663 25.4515C230.484 25.5362 230.218 25.6151 229.882 25.6823C229.212 25.8164 228.281 25.9 227.25 25.9H209.75C208.719 25.9 207.788 25.8164 207.118 25.6823C206.782 25.6151 206.516 25.5362 206.337 25.4515C206.248 25.4091 206.185 25.3676 206.146 25.3296C206.107 25.2918 206.1 25.2654 206.1 25.25V1.1Z" fill="url(#paint6_radial_1083_686)" stroke="black" stroke-width="0.2"/>
<path d="M181.1 1.1H205.9V25.25C205.9 25.2654 205.893 25.2918 205.854 25.3296C205.815 25.3676 205.752 25.4091 205.663 25.4515C205.484 25.5362 205.218 25.6151 204.882 25.6823C204.212 25.8164 203.281 25.9 202.25 25.9H184.75C183.719 25.9 182.788 25.8164 182.118 25.6823C181.782 25.6151 181.516 25.5362 181.337 25.4515C181.248 25.4091 181.185 25.3676 181.146 25.3296C181.107 25.2918 181.1 25.2654 181.1 25.25V1.1Z" fill="url(#paint7_linear_1083_686)" stroke="black" stroke-width="0.2"/>
<path d="M195.21 18.0994C194.741 18.0994 194.324 18.0189 193.957 17.858C193.592 17.697 193.302 17.4732 193.087 17.1868C192.874 16.898 192.758 16.563 192.739 16.1818H193.634C193.652 16.4162 193.733 16.6186 193.875 16.7891C194.017 16.9571 194.203 17.0874 194.433 17.1797C194.662 17.272 194.917 17.3182 195.196 17.3182C195.509 17.3182 195.786 17.2637 196.027 17.1548C196.268 17.0459 196.458 16.8944 196.595 16.7003C196.732 16.5062 196.801 16.2812 196.801 16.0256C196.801 15.758 196.735 15.5225 196.602 15.3189C196.47 15.1129 196.276 14.9519 196.02 14.8359C195.764 14.7199 195.452 14.6619 195.082 14.6619H194.5V13.8807H195.082C195.371 13.8807 195.625 13.8286 195.842 13.7244C196.063 13.6203 196.234 13.4735 196.357 13.2841C196.483 13.0947 196.545 12.8722 196.545 12.6165C196.545 12.3703 196.491 12.156 196.382 11.9737C196.273 11.7914 196.119 11.6494 195.92 11.5476C195.724 11.4458 195.492 11.3949 195.224 11.3949C194.973 11.3949 194.737 11.4411 194.514 11.5334C194.294 11.6233 194.114 11.7547 193.974 11.9276C193.835 12.098 193.759 12.304 193.747 12.5455H192.895C192.909 12.1643 193.024 11.8305 193.239 11.544C193.455 11.2552 193.737 11.0303 194.085 10.8693C194.435 10.7083 194.82 10.6278 195.239 10.6278C195.688 10.6278 196.074 10.719 196.396 10.9013C196.718 11.0812 196.966 11.3191 197.138 11.6151C197.311 11.911 197.398 12.2306 197.398 12.5739C197.398 12.9834 197.29 13.3326 197.075 13.6214C196.862 13.9103 196.571 14.1103 196.205 14.2216V14.2784C196.664 14.3542 197.022 14.5495 197.281 14.8643C197.539 15.1768 197.668 15.5639 197.668 16.0256C197.668 16.4209 197.56 16.776 197.344 17.0909C197.131 17.4034 196.84 17.6496 196.471 17.8295C196.102 18.0095 195.681 18.0994 195.21 18.0994Z" fill="black"/>
<path d="M188 18.379L189.833 17.027C190.639 16.442 190.951 15.779 190.977 15.285C190.977 14.557 190.314 14.011 189.534 14.011C188.988 14.011 188.585 14.219 188.325 14.648L188.416 10.553H188V18.379ZM189.209 14.531C189.625 14.531 189.937 14.83 189.937 15.233C189.937 15.909 189.04 17.209 188.364 17.638C188.325 17.417 188.299 16.988 188.299 16.351C188.299 16 188.325 15.571 188.377 15.077C188.572 14.713 188.845 14.531 189.209 14.531Z" fill="black"/>
<path d="M231.1 1.1H255.9V25.25C255.9 25.2654 255.893 25.2918 255.854 25.3296C255.815 25.3676 255.752 25.4091 255.663 25.4515C255.484 25.5362 255.218 25.6151 254.882 25.6823C254.212 25.8164 253.281 25.9 252.25 25.9H234.75C233.719 25.9 232.788 25.8164 232.118 25.6823C231.782 25.6151 231.516 25.5362 231.337 25.4515C231.248 25.4091 231.185 25.3676 231.146 25.3296C231.107 25.2918 231.1 25.2654 231.1 25.25V1.1Z" fill="url(#paint8_linear_1083_686)" stroke="black" stroke-width="0.2"/>
<path d="M241.582 16.5085V15.7841L244.778 10.7273H245.304V11.8494H244.949L242.534 15.6705V15.7273H246.838V16.5085H241.582ZM245.006 18V16.2884V15.951V10.7273H245.844V18H245.006Z" fill="black"/>
<path d="M281.1 1.1H305.9V25.25C305.9 25.2654 305.893 25.2918 305.854 25.3296C305.815 25.3676 305.752 25.4091 305.663 25.4515C305.484 25.5362 305.218 25.6151 304.882 25.6823C304.212 25.8164 303.281 25.9 302.25 25.9H284.75C283.719 25.9 282.788 25.8164 282.118 25.6823C281.782 25.6151 281.516 25.5362 281.337 25.4515C281.248 25.4091 281.185 25.3676 281.146 25.3296C281.107 25.2918 281.1 25.2654 281.1 25.25V1.1Z" fill="url(#paint9_linear_1083_686)" stroke="black" stroke-width="0.2"/>
<path d="M294.026 18.0994C293.609 18.0994 293.234 18.0166 292.9 17.8509C292.566 17.6851 292.299 17.4579 292.097 17.169C291.896 16.8802 291.786 16.5511 291.767 16.1818H292.619C292.652 16.5109 292.802 16.7831 293.067 16.9986C293.334 17.2116 293.654 17.3182 294.026 17.3182C294.324 17.3182 294.589 17.2483 294.821 17.1087C295.055 16.969 295.239 16.7772 295.371 16.5334C295.506 16.2872 295.574 16.009 295.574 15.6989C295.574 15.3816 295.504 15.0987 295.364 14.8501C295.227 14.5992 295.038 14.4015 294.796 14.2571C294.555 14.1127 294.279 14.0393 293.969 14.0369C293.746 14.0346 293.518 14.0689 293.283 14.1399C293.049 14.2086 292.856 14.2973 292.705 14.4062L291.881 14.3068L292.321 10.7273H296.099V11.5085H293.06L292.804 13.6534H292.847C292.996 13.535 293.183 13.4368 293.408 13.3587C293.633 13.2805 293.867 13.2415 294.111 13.2415C294.556 13.2415 294.952 13.348 295.3 13.5611C295.651 13.7718 295.925 14.0606 296.124 14.4276C296.326 14.7945 296.426 15.2135 296.426 15.6847C296.426 16.1487 296.322 16.563 296.114 16.9276C295.908 17.2898 295.624 17.5762 295.261 17.7869C294.899 17.9953 294.487 18.0994 294.026 18.0994Z" fill="black"/>
<path d="M131.1 1.1H155.9V25.25C155.9 25.2654 155.893 25.2918 155.854 25.3296C155.815 25.3676 155.752 25.4091 155.663 25.4515C155.484 25.5362 155.218 25.6151 154.882 25.6823C154.212 25.8164 153.281 25.9 152.25 25.9H134.75C133.719 25.9 132.788 25.8164 132.118 25.6823C131.782 25.6151 131.516 25.5362 131.337 25.4515C131.248 25.4091 131.185 25.3676 131.146 25.3296C131.107 25.2918 131.1 25.2654 131.1 25.25V1.1Z" fill="url(#paint10_radial_1083_686)" stroke="black" stroke-width="0.2"/>
<path d="M106.1 1.1H130.9V25.25C130.9 25.2654 130.893 25.2918 130.854 25.3296C130.815 25.3676 130.752 25.4091 130.663 25.4515C130.484 25.5362 130.218 25.6151 129.882 25.6823C129.212 25.8164 128.281 25.9 127.25 25.9H109.75C108.719 25.9 107.788 25.8164 107.118 25.6823C106.782 25.6151 106.516 25.5362 106.337 25.4515C106.248 25.4091 106.185 25.3676 106.146 25.3296C106.107 25.2918 106.1 25.2654 106.1 25.25V1.1Z" fill="url(#paint11_linear_1083_686)" stroke="black" stroke-width="0.2"/>
<path d="M106.1 1.1H130.9V25.25C130.9 25.2654 130.893 25.2918 130.854 25.3296C130.815 25.3676 130.752 25.4091 130.663 25.4515C130.484 25.5362 130.218 25.6151 129.882 25.6823C129.212 25.8164 128.281 25.9 127.25 25.9H109.75C108.719 25.9 107.788 25.8164 107.118 25.6823C106.782 25.6151 106.516 25.5362 106.337 25.4515C106.248 25.4091 106.185 25.3676 106.146 25.3296C106.107 25.2918 106.1 25.2654 106.1 25.25V1.1Z" fill="url(#paint12_linear_1083_686)" stroke="black" stroke-width="0.2"/>
<path d="M119.31 10.7273V18H118.429V11.6506H118.386L116.611 12.8295V11.9347L118.429 10.7273H119.31Z" fill="black"/>
<path d="M444.5 1.5H535.5V24.94C535.348 24.9739 535.133 25.0099 534.852 25.046C534.172 25.1334 533.176 25.2134 531.931 25.2811C529.445 25.4162 526.005 25.5 522.2 25.5H457.8C453.995 25.5 450.555 25.4162 448.069 25.2811C446.824 25.2134 445.828 25.1334 445.148 25.046C444.867 25.0099 444.652 24.9739 444.5 24.94V1.5Z" fill="white" stroke="#D6A86F"/>
<path d="M457.75 15.8636L459.653 11.5455H460.449L458.091 17H457.409L455.094 11.5455H455.875L457.75 15.8636ZM455.605 11.5455V17H454.767V11.5455H455.605ZM459.895 17V11.5455H460.733V17H459.895ZM464.71 17.0994C464.241 17.0994 463.824 17.0189 463.457 16.858C463.092 16.697 462.802 16.4732 462.587 16.1868C462.374 15.898 462.258 15.563 462.239 15.1818H463.134C463.152 15.4162 463.233 15.6186 463.375 15.7891C463.517 15.9571 463.703 16.0874 463.933 16.1797C464.162 16.272 464.417 16.3182 464.696 16.3182C465.009 16.3182 465.286 16.2637 465.527 16.1548C465.768 16.0459 465.958 15.8944 466.095 15.7003C466.232 15.5062 466.301 15.2812 466.301 15.0256C466.301 14.758 466.235 14.5225 466.102 14.3189C465.97 14.1129 465.776 13.9519 465.52 13.8359C465.264 13.7199 464.952 13.6619 464.582 13.6619H464V12.8807H464.582C464.871 12.8807 465.125 12.8286 465.342 12.7244C465.563 12.6203 465.734 12.4735 465.857 12.2841C465.983 12.0947 466.045 11.8722 466.045 11.6165C466.045 11.3703 465.991 11.156 465.882 10.9737C465.773 10.7914 465.619 10.6494 465.42 10.5476C465.224 10.4458 464.992 10.3949 464.724 10.3949C464.473 10.3949 464.237 10.4411 464.014 10.5334C463.794 10.6233 463.614 10.7547 463.474 10.9276C463.335 11.098 463.259 11.304 463.247 11.5455H462.395C462.409 11.1643 462.524 10.8305 462.739 10.544C462.955 10.2552 463.237 10.0303 463.585 9.86932C463.935 9.70833 464.32 9.62784 464.739 9.62784C465.188 9.62784 465.574 9.71899 465.896 9.90128C466.218 10.0812 466.466 10.3191 466.638 10.6151C466.811 10.911 466.898 11.2306 466.898 11.5739C466.898 11.9834 466.79 12.3326 466.575 12.6214C466.362 12.9103 466.071 13.1103 465.705 13.2216V13.2784C466.164 13.3542 466.522 13.5495 466.781 13.8643C467.039 14.1768 467.168 14.5639 467.168 15.0256C467.168 15.4209 467.06 15.776 466.844 16.0909C466.631 16.4034 466.34 16.6496 465.971 16.8295C465.602 17.0095 465.181 17.0994 464.71 17.0994ZM470.765 15.7216V11.0341H471.56V15.7216H470.765ZM468.819 13.7756V12.9801H473.506V13.7756H468.819ZM475.34 17V9.72727H479.729V10.5085H476.22V12.7812H478.067C478.588 12.7812 479.027 12.8665 479.384 13.0369C479.744 13.2074 480.017 13.4477 480.201 13.7578C480.388 14.0679 480.482 14.4337 480.482 14.8551C480.482 15.2765 480.388 15.6482 480.201 15.9702C480.017 16.2921 479.744 16.5443 479.384 16.7266C479.027 16.9089 478.588 17 478.067 17H475.34ZM476.22 16.233H478.067C478.398 16.233 478.679 16.1667 478.909 16.0341C479.141 15.8991 479.316 15.7263 479.434 15.5156C479.555 15.3026 479.615 15.0777 479.615 14.8409C479.615 14.4929 479.481 14.1934 479.214 13.9425C478.946 13.6892 478.564 13.5625 478.067 13.5625H476.22V16.233ZM481.804 17V16.3608L484.204 13.733C484.486 13.4252 484.718 13.1577 484.9 12.9304C485.083 12.7008 485.217 12.4853 485.305 12.2841C485.395 12.0805 485.44 11.8674 485.44 11.6449C485.44 11.3892 485.378 11.1679 485.255 10.9808C485.135 10.7938 484.969 10.6494 484.758 10.5476C484.547 10.4458 484.311 10.3949 484.048 10.3949C483.769 10.3949 483.525 10.4529 483.316 10.5689C483.11 10.6825 482.951 10.8423 482.837 11.0483C482.726 11.2543 482.67 11.4957 482.67 11.7727H481.832C481.832 11.3466 481.93 10.9725 482.127 10.6506C482.323 10.3286 482.591 10.0777 482.929 9.89773C483.27 9.7178 483.653 9.62784 484.076 9.62784C484.502 9.62784 484.88 9.7178 485.209 9.89773C485.538 10.0777 485.796 10.3203 485.983 10.6257C486.17 10.9311 486.264 11.2708 486.264 11.6449C486.264 11.9124 486.215 12.174 486.118 12.4297C486.024 12.683 485.858 12.9659 485.621 13.2784C485.387 13.5885 485.061 13.9673 484.645 14.4148L483.011 16.1619V16.2188H486.392V17H481.804ZM490.003 15.7216V11.0341H490.799V15.7216H490.003ZM488.057 13.7756V12.9801H492.745V13.7756H488.057ZM494.578 17V9.72727H498.967V10.5085H495.459V12.7812H497.305C497.826 12.7812 498.265 12.8665 498.623 13.0369C498.983 13.2074 499.255 13.4477 499.439 13.7578C499.626 14.0679 499.72 14.4337 499.72 14.8551C499.72 15.2765 499.626 15.6482 499.439 15.9702C499.255 16.2921 498.983 16.5443 498.623 16.7266C498.265 16.9089 497.826 17 497.305 17H494.578ZM495.459 16.233H497.305C497.637 16.233 497.917 16.1667 498.147 16.0341C498.379 15.8991 498.554 15.7263 498.672 15.5156C498.793 15.3026 498.854 15.0777 498.854 14.8409C498.854 14.4929 498.72 14.1934 498.452 13.9425C498.185 13.6892 497.802 13.5625 497.305 13.5625H495.459V16.233ZM501.042 17V16.3608L503.442 13.733C503.724 13.4252 503.956 13.1577 504.138 12.9304C504.321 12.7008 504.456 12.4853 504.543 12.2841C504.633 12.0805 504.678 11.8674 504.678 11.6449C504.678 11.3892 504.617 11.1679 504.494 10.9808C504.373 10.7938 504.207 10.6494 503.996 10.5476C503.786 10.4458 503.549 10.3949 503.286 10.3949C503.007 10.3949 502.763 10.4529 502.555 10.5689C502.349 10.6825 502.189 10.8423 502.075 11.0483C501.964 11.2543 501.908 11.4957 501.908 11.7727H501.07C501.07 11.3466 501.169 10.9725 501.365 10.6506C501.562 10.3286 501.829 10.0777 502.168 9.89773C502.509 9.7178 502.891 9.62784 503.315 9.62784C503.741 9.62784 504.118 9.7178 504.447 9.89773C504.777 10.0777 505.035 10.3203 505.222 10.6257C505.409 10.9311 505.502 11.2708 505.502 11.6449C505.502 11.9124 505.454 12.174 505.357 12.4297C505.262 12.683 505.096 12.9659 504.859 13.2784C504.625 13.5885 504.299 13.9673 503.883 14.4148L502.249 16.1619V16.2188H505.63V17H501.042ZM507.452 13.4915V12.7244H511.827V13.4915H507.452ZM507.452 15.5938V14.8267H511.827V15.5938H507.452ZM517.907 11.5455V17H517.069V11.5455H517.907ZM517.58 14.1449V14.9261C517.391 14.9972 517.203 15.0599 517.016 15.1143C516.829 15.1664 516.632 15.2079 516.426 15.2386C516.22 15.267 515.994 15.2812 515.748 15.2812C515.13 15.2812 514.634 15.1143 514.26 14.7805C513.888 14.4467 513.703 13.946 513.703 13.2784V11.5312H514.541V13.2784C514.541 13.5578 514.594 13.7874 514.7 13.9673C514.807 14.1473 514.951 14.281 515.134 14.3686C515.316 14.4562 515.521 14.5 515.748 14.5C516.103 14.5 516.424 14.468 516.71 14.4041C516.999 14.3378 517.289 14.2514 517.58 14.1449ZM521.703 17.0994C521.287 17.0994 520.911 17.0166 520.578 16.8509C520.244 16.6851 519.976 16.4579 519.775 16.169C519.574 15.8802 519.464 15.5511 519.445 15.1818H520.297C520.33 15.5109 520.479 15.7831 520.744 15.9986C521.012 16.2116 521.332 16.3182 521.703 16.3182C522.002 16.3182 522.267 16.2483 522.499 16.1087C522.733 15.969 522.917 15.7772 523.049 15.5334C523.184 15.2872 523.252 15.009 523.252 14.6989C523.252 14.3816 523.182 14.0987 523.042 13.8501C522.905 13.5992 522.715 13.4015 522.474 13.2571C522.232 13.1127 521.957 13.0393 521.646 13.0369C521.424 13.0346 521.195 13.0689 520.961 13.1399C520.727 13.2086 520.534 13.2973 520.382 13.4062L519.558 13.3068L519.999 9.72727H523.777V10.5085H520.737L520.482 12.6534H520.524C520.673 12.535 520.86 12.4368 521.085 12.3587C521.31 12.2805 521.545 12.2415 521.789 12.2415C522.234 12.2415 522.63 12.348 522.978 12.5611C523.329 12.7718 523.603 13.0606 523.802 13.4276C524.003 13.7945 524.104 14.2135 524.104 14.6847C524.104 15.1487 524 15.563 523.791 15.9276C523.585 16.2898 523.301 16.5762 522.939 16.7869C522.577 16.9953 522.165 17.0994 521.703 17.0994Z" fill="black"/>
<path d="M1 1H93V25.25C93 25.6642 86.8215 26 79.2 26H14.8C7.17847 26 1 25.6642 1 25.25V1Z" fill="white" stroke="#D6A86F" stroke-miterlimit="16"/>
<path d="M29.5854 19H27.7494L24.3474 13.42L20.8914 19H19.1814L23.4474 12.304L19.4514 6.148H21.2514L24.4014 11.188L27.5694 6.148H29.2794L25.3014 12.268L29.5854 19ZM43.3363 19V18.676C42.3823 18.676 42.1483 18.388 42.1483 17.164V13.168C42.1483 12.7 41.7523 11.512 41.4283 11.188C41.1403 10.9 40.7083 10.756 40.1323 10.756C38.9983 10.756 37.9903 11.242 37.1083 12.232C36.9103 11.242 36.3163 10.756 35.3083 10.756C34.2463 10.756 33.3283 11.242 32.5363 12.196V10.756L29.8363 11.62V11.944H30.7003C30.9163 12.016 31.0243 12.25 31.0243 12.664V17.164C31.0243 18.388 30.7903 18.676 29.8363 18.676V19H33.6163V18.676C32.8423 18.676 32.5363 18.388 32.5363 17.416V12.772C33.1303 11.998 33.7963 11.62 34.5163 11.62C35.3623 11.62 35.7763 12.106 35.7763 13.096V17.272C35.7763 18.424 35.4703 18.676 34.6963 18.676V19H38.4763V18.676C37.5223 18.676 37.2883 18.388 37.2883 17.164C37.2883 17.11 37.3063 16.642 37.3243 15.76V13.96C37.3063 13.312 37.2703 12.898 37.2163 12.736C37.8643 11.998 38.5483 11.62 39.2683 11.62C40.1863 11.62 40.6363 12.106 40.6363 13.096V17.272C40.6363 18.424 40.3303 18.676 39.5563 18.676V19H43.3363ZM53.6242 17.668C53.2102 17.956 52.9042 18.1 52.6882 18.1C52.4182 18.1 52.2922 17.866 52.2922 17.38V13.312C52.2922 11.674 51.3382 10.756 49.7002 10.756C48.3142 10.756 46.7122 11.638 46.7122 12.772C46.7122 13.294 46.9462 13.564 47.4322 13.564C47.8642 13.564 48.2602 13.204 48.2602 12.772C48.2602 12.628 48.1882 12.232 48.1882 12.088C48.1882 11.512 48.8182 11.188 49.4482 11.188C50.3302 11.188 50.7802 11.692 50.7802 12.7V13.78C47.4142 14.842 46.3522 15.67 46.3522 17.272C46.3522 18.226 47.0362 19.198 48.0442 19.198C48.7822 19.198 49.7182 18.748 50.8522 17.848C50.8702 18.73 51.2302 19.162 51.9322 19.162C52.4902 19.162 53.0482 18.838 53.6242 18.208V17.668ZM50.7802 17.38C50.1502 17.866 49.6102 18.1 49.1242 18.1C48.3502 18.1 47.9362 17.434 47.9362 16.66C47.9362 15.922 48.2422 15.364 48.8722 15.004C49.0882 14.86 49.7182 14.626 50.7802 14.284V17.38ZM61.0321 6.724L58.1161 7.552V7.876H59.1241C59.3941 7.966 59.5201 8.254 59.5201 8.74V11.44C59.0341 10.99 58.4401 10.756 57.7201 10.756C55.5241 10.756 54.0481 13.15 54.0481 15.256C54.0481 17.38 55.3621 19.162 57.2521 19.162C58.2421 19.162 58.9981 18.73 59.5201 17.884V19.234C60.3301 18.748 61.3021 18.388 62.4361 18.172V17.848C62.3641 17.848 62.2381 17.866 62.0401 17.884H61.7161C61.2661 17.884 61.0321 17.578 61.0321 16.984V6.724ZM59.5201 17.092C59.2141 17.866 58.6741 18.244 57.9001 18.244C56.4601 18.244 55.5961 16.804 55.5961 14.716C55.5961 12.808 56.3881 11.296 57.8281 11.296C58.5661 11.296 59.1061 11.692 59.4121 12.484C59.4841 12.682 59.5201 12.79 59.5201 12.844V17.092ZM69.9266 6.724L67.0106 7.552V7.876H68.0186C68.2886 7.966 68.4146 8.254 68.4146 8.74V11.44C67.9286 10.99 67.3346 10.756 66.6146 10.756C64.4186 10.756 62.9426 13.15 62.9426 15.256C62.9426 17.38 64.2566 19.162 66.1466 19.162C67.1366 19.162 67.8926 18.73 68.4146 17.884V19.234C69.2246 18.748 70.1966 18.388 71.3306 18.172V17.848C71.2586 17.848 71.1326 17.866 70.9346 17.884H70.6106C70.1606 17.884 69.9266 17.578 69.9266 16.984V6.724ZM68.4146 17.092C68.1086 17.866 67.5686 18.244 66.7946 18.244C65.3546 18.244 64.4906 16.804 64.4906 14.716C64.4906 12.808 65.2826 11.296 66.7226 11.296C67.4606 11.296 68.0006 11.692 68.3066 12.484C68.3786 12.682 68.4146 12.79 68.4146 12.844V17.092ZM77.3091 12.268V11.404H76.1211V5.86H75.3291L71.5131 11.404V12.268H75.1131V14.356H76.1211V12.268H77.3091ZM75.1131 6.94V11.404H72.0891L75.1131 6.94Z" fill="black"/>
<defs>
<radialGradient id="paint0_radial_1083_686" cx="0" cy="0" r="1" gradientUnits="userSpaceOnUse" gradientTransform="translate(368.5 13.5) rotate(90) scale(12.5)">
<stop offset="0.171875"/>
<stop offset="0.171975" stop-color="white"/>
</radialGradient>
<radialGradient id="paint1_radial_1083_686" cx="0" cy="0" r="1" gradientUnits="userSpaceOnUse" gradientTransform="translate(393.5 13.5) rotate(90) scale(12.5)">
<stop offset="0.171875"/>
<stop offset="0.171975" stop-color="white"/>
</radialGradient>
<radialGradient id="paint2_radial_1083_686" cx="0" cy="0" r="1" gradientUnits="userSpaceOnUse" gradientTransform="translate(343.5 13.5) rotate(90) scale(12.5)">
<stop offset="0.171875"/>
<stop offset="0.171975" stop-color="white"/>
</radialGradient>
<radialGradient id="paint3_radial_1083_686" cx="0" cy="0" r="1" gradientUnits="userSpaceOnUse" gradientTransform="translate(318.5 13.5) rotate(90) scale(12.5)">
<stop offset="0.171875"/>
<stop offset="0.171975" stop-color="white"/>
</radialGradient>
<radialGradient id="paint4_radial_1083_686" cx="0" cy="0" r="1" gradientUnits="userSpaceOnUse" gradientTransform="translate(268.5 13.5) rotate(90) scale(12.5)">
<stop offset="0.171875"/>
<stop offset="0.171975" stop-color="white"/>
</radialGradient>
<radialGradient id="paint5_radial_1083_686" cx="0" cy="0" r="1" gradientUnits="userSpaceOnUse" gradientTransform="translate(168.5 13.5) rotate(90) scale(12.5)">
<stop offset="0.171875"/>
<stop offset="0.171975" stop-color="white"/>
</radialGradient>
<radialGradient id="paint6_radial_1083_686" cx="0" cy="0" r="1" gradientUnits="userSpaceOnUse" gradientTransform="translate(218.5 13.5) rotate(90) scale(12.5)">
<stop offset="0.171875"/>
<stop offset="0.171975" stop-color="white"/>
</radialGradient>
<linearGradient id="paint7_linear_1083_686" x1="193.5" y1="1" x2="193.5" y2="26" gradientUnits="userSpaceOnUse">
<stop offset="0.255208" stop-color="#DDB078"/>
<stop offset="0.598958" stop-color="#F4D6B1"/>
</linearGradient>
<linearGradient id="paint8_linear_1083_686" x1="243.5" y1="1" x2="243.5" y2="26" gradientUnits="userSpaceOnUse">
<stop offset="0.255208" stop-color="#DDB078"/>
<stop offset="0.598958" stop-color="#F4D6B1"/>
</linearGradient>
<linearGradient id="paint9_linear_1083_686" x1="293.5" y1="1" x2="293.5" y2="26" gradientUnits="userSpaceOnUse">
<stop offset="0.255208" stop-color="#DDB078"/>
<stop offset="0.598958" stop-color="#F4D6B1"/>
</linearGradient>
<radialGradient id="paint10_radial_1083_686" cx="0" cy="0" r="1" gradientUnits="userSpaceOnUse" gradientTransform="translate(143.5 13.5) rotate(90) scale(12.5)">
<stop offset="0.171875"/>
<stop offset="0.171975" stop-color="white"/>
</radialGradient>
<linearGradient id="paint11_linear_1083_686" x1="118.5" y1="1" x2="118.5" y2="26" gradientUnits="userSpaceOnUse">
<stop offset="0.255208" stop-color="#DDB078"/>
<stop offset="0.598958" stop-color="#F4D6B1"/>
</linearGradient>
<linearGradient id="paint12_linear_1083_686" x1="118.5" y1="1" x2="118.5" y2="26" gradientUnits="userSpaceOnUse">
<stop offset="0.255208" stop-color="#DDB078"/>
<stop offset="0.598958" stop-color="#F4D6B1"/>
</linearGradient>
</defs>
</svg>
