<svg width="535" height="27" viewBox="0 0 535 27" fill="none" xmlns="http://www.w3.org/2000/svg">
<path d="M381.1 1.1H405.9V25.25C405.9 25.2654 405.893 25.2918 405.854 25.3296C405.815 25.3676 405.752 25.4091 405.663 25.4515C405.484 25.5362 405.218 25.6151 404.882 25.6823C404.212 25.8164 403.281 25.9 402.25 25.9H384.75C383.719 25.9 382.788 25.8164 382.118 25.6823C381.782 25.6151 381.516 25.5362 381.337 25.4515C381.248 25.4091 381.185 25.3676 381.146 25.3296C381.107 25.2918 381.1 25.2654 381.1 25.25V1.1Z" fill="url(#paint0_radial_578_691)" stroke="black" stroke-width="0.2"/>
<path d="M331.1 1.1H355.9V25.25C355.9 25.2654 355.893 25.2918 355.854 25.3296C355.815 25.3676 355.752 25.4091 355.663 25.4515C355.484 25.5362 355.218 25.6151 354.882 25.6823C354.212 25.8164 353.281 25.9 352.25 25.9H334.75C333.719 25.9 332.788 25.8164 332.118 25.6823C331.782 25.6151 331.516 25.5362 331.337 25.4515C331.248 25.4091 331.185 25.3676 331.146 25.3296C331.107 25.2918 331.1 25.2654 331.1 25.25V1.1Z" fill="url(#paint1_radial_578_691)" stroke="black" stroke-width="0.2"/>
<path d="M306.1 1.1H330.9V25.25C330.9 25.2654 330.893 25.2918 330.854 25.3296C330.815 25.3676 330.752 25.4091 330.663 25.4515C330.484 25.5362 330.218 25.6151 329.882 25.6823C329.212 25.8164 328.281 25.9 327.25 25.9H309.75C308.719 25.9 307.788 25.8164 307.118 25.6823C306.782 25.6151 306.516 25.5362 306.337 25.4515C306.248 25.4091 306.185 25.3676 306.146 25.3296C306.107 25.2918 306.1 25.2654 306.1 25.25V1.1Z" fill="url(#paint2_radial_578_691)" stroke="black" stroke-width="0.2"/>
<path d="M256.1 1.1H280.9V25.25C280.9 25.2654 280.893 25.2918 280.854 25.3296C280.815 25.3676 280.752 25.4091 280.663 25.4515C280.484 25.5362 280.218 25.6151 279.882 25.6823C279.212 25.8164 278.281 25.9 277.25 25.9H259.75C258.719 25.9 257.788 25.8164 257.118 25.6823C256.782 25.6151 256.516 25.5362 256.337 25.4515C256.248 25.4091 256.185 25.3676 256.146 25.3296C256.107 25.2918 256.1 25.2654 256.1 25.25V1.1Z" fill="url(#paint3_radial_578_691)" stroke="black" stroke-width="0.2"/>
<path d="M231.1 1.1H255.9V25.25C255.9 25.2654 255.893 25.2918 255.854 25.3296C255.815 25.3676 255.752 25.4091 255.663 25.4515C255.484 25.5362 255.218 25.6151 254.882 25.6823C254.212 25.8164 253.281 25.9 252.25 25.9H234.75C233.719 25.9 232.788 25.8164 232.118 25.6823C231.782 25.6151 231.516 25.5362 231.337 25.4515C231.248 25.4091 231.185 25.3676 231.146 25.3296C231.107 25.2918 231.1 25.2654 231.1 25.25V1.1Z" fill="url(#paint4_radial_578_691)" stroke="black" stroke-width="0.2"/>
<path d="M206.1 1.1H230.9V25.25C230.9 25.2654 230.893 25.2918 230.854 25.3296C230.815 25.3676 230.752 25.4091 230.663 25.4515C230.484 25.5362 230.218 25.6151 229.882 25.6823C229.212 25.8164 228.281 25.9 227.25 25.9H209.75C208.719 25.9 207.788 25.8164 207.118 25.6823C206.782 25.6151 206.516 25.5362 206.337 25.4515C206.248 25.4091 206.185 25.3676 206.146 25.3296C206.107 25.2918 206.1 25.2654 206.1 25.25V1.1Z" fill="url(#paint5_radial_578_691)" stroke="black" stroke-width="0.2"/>
<path d="M156.1 1.1H180.9V25.25C180.9 25.2654 180.893 25.2918 180.854 25.3296C180.815 25.3676 180.752 25.4091 180.663 25.4515C180.484 25.5362 180.218 25.6151 179.882 25.6823C179.212 25.8164 178.281 25.9 177.25 25.9H159.75C158.719 25.9 157.788 25.8164 157.118 25.6823C156.782 25.6151 156.516 25.5362 156.337 25.4515C156.248 25.4091 156.185 25.3676 156.146 25.3296C156.107 25.2918 156.1 25.2654 156.1 25.25V1.1Z" fill="url(#paint6_radial_578_691)" stroke="black" stroke-width="0.2"/>
<path d="M131.1 1.1H155.9V25.25C155.9 25.2654 155.893 25.2918 155.854 25.3296C155.815 25.3676 155.752 25.4091 155.663 25.4515C155.484 25.5362 155.218 25.6151 154.882 25.6823C154.212 25.8164 153.281 25.9 152.25 25.9H134.75C133.719 25.9 132.788 25.8164 132.118 25.6823C131.782 25.6151 131.516 25.5362 131.337 25.4515C131.248 25.4091 131.185 25.3676 131.146 25.3296C131.107 25.2918 131.1 25.2654 131.1 25.25V1.1Z" fill="url(#paint7_radial_578_691)" stroke="black" stroke-width="0.2"/>
<path d="M107.1 1.1H131.9V25.25C131.9 25.2654 131.893 25.2918 131.854 25.3296C131.815 25.3676 131.752 25.4091 131.663 25.4515C131.484 25.5362 131.218 25.6151 130.882 25.6823C130.212 25.8164 129.281 25.9 128.25 25.9H110.75C109.719 25.9 108.788 25.8164 108.118 25.6823C107.782 25.6151 107.516 25.5362 107.337 25.4515C107.248 25.4091 107.185 25.3676 107.146 25.3296C107.107 25.2918 107.1 25.2654 107.1 25.25V1.1Z" fill="url(#paint8_linear_578_691)" stroke="black" stroke-width="0.2"/>
<path d="M107.1 1.1H131.9V25.25C131.9 25.2654 131.893 25.2918 131.854 25.3296C131.815 25.3676 131.752 25.4091 131.663 25.4515C131.484 25.5362 131.218 25.6151 130.882 25.6823C130.212 25.8164 129.281 25.9 128.25 25.9H110.75C109.719 25.9 108.788 25.8164 108.118 25.6823C107.782 25.6151 107.516 25.5362 107.337 25.4515C107.248 25.4091 107.185 25.3676 107.146 25.3296C107.107 25.2918 107.1 25.2654 107.1 25.25V1.1Z" fill="url(#paint9_linear_578_691)" stroke="black" stroke-width="0.2"/>
<path d="M120.31 10.7273V18H119.429V11.6506H119.386L117.611 12.8295V11.9347L119.429 10.7273H120.31Z" fill="black"/>
<path d="M356.1 1.1H380.9V25.25C380.9 25.2654 380.893 25.2918 380.854 25.3296C380.815 25.3676 380.752 25.4091 380.663 25.4515C380.484 25.5362 380.218 25.6151 379.882 25.6823C379.212 25.8164 378.281 25.9 377.25 25.9H359.75C358.719 25.9 357.788 25.8164 357.118 25.6823C356.782 25.6151 356.516 25.5362 356.337 25.4515C356.248 25.4091 356.185 25.3676 356.146 25.3296C356.107 25.2918 356.1 25.2654 356.1 25.25V1.1Z" fill="url(#paint10_linear_578_691)" stroke="black" stroke-width="0.2"/>
<path d="M367.98 17L371.233 10.5653V10.5085H367.483V9.72727H372.142V10.5511L368.903 17H367.98Z" fill="black"/>
<path d="M364 17.379L365.833 16.027C366.639 15.442 366.951 14.779 366.977 14.285C366.977 13.557 366.314 13.011 365.534 13.011C364.988 13.011 364.585 13.219 364.325 13.648L364.416 9.553H364V17.379ZM365.209 13.531C365.625 13.531 365.937 13.83 365.937 14.233C365.937 14.909 365.04 16.209 364.364 16.638C364.325 16.417 364.299 15.988 364.299 15.351C364.299 15 364.325 14.571 364.377 14.077C364.572 13.713 364.845 13.531 365.209 13.531Z" fill="black"/>
<path d="M281.1 1.1H305.9V25.25C305.9 25.2654 305.893 25.2918 305.854 25.3296C305.815 25.3676 305.752 25.4091 305.663 25.4515C305.484 25.5362 305.218 25.6151 304.882 25.6823C304.212 25.8164 303.281 25.9 302.25 25.9H284.75C283.719 25.9 282.788 25.8164 282.118 25.6823C281.782 25.6151 281.516 25.5362 281.337 25.4515C281.248 25.4091 281.185 25.3676 281.146 25.3296C281.107 25.2918 281.1 25.2654 281.1 25.25V1.1Z" fill="url(#paint11_linear_578_691)" stroke="black" stroke-width="0.2"/>
<path d="M294.026 18.0994C293.609 18.0994 293.234 18.0166 292.9 17.8509C292.566 17.6851 292.299 17.4579 292.097 17.169C291.896 16.8802 291.786 16.5511 291.767 16.1818H292.619C292.652 16.5109 292.802 16.7831 293.067 16.9986C293.334 17.2116 293.654 17.3182 294.026 17.3182C294.324 17.3182 294.589 17.2483 294.821 17.1087C295.055 16.969 295.239 16.7772 295.371 16.5334C295.506 16.2872 295.574 16.009 295.574 15.6989C295.574 15.3816 295.504 15.0987 295.364 14.8501C295.227 14.5992 295.038 14.4015 294.796 14.2571C294.555 14.1127 294.279 14.0393 293.969 14.0369C293.746 14.0346 293.518 14.0689 293.283 14.1399C293.049 14.2086 292.856 14.2973 292.705 14.4062L291.881 14.3068L292.321 10.7273H296.099V11.5085H293.06L292.804 13.6534H292.847C292.996 13.535 293.183 13.4368 293.408 13.3587C293.633 13.2805 293.867 13.2415 294.111 13.2415C294.556 13.2415 294.952 13.348 295.3 13.5611C295.651 13.7718 295.925 14.0606 296.124 14.4276C296.326 14.7945 296.426 15.2135 296.426 15.6847C296.426 16.1487 296.322 16.563 296.114 16.9276C295.908 17.2898 295.624 17.5762 295.261 17.7869C294.899 17.9953 294.487 18.0994 294.026 18.0994Z" fill="black"/>
<path d="M443.5 1.5H534.5V24.94C534.348 24.9739 534.133 25.0099 533.852 25.046C533.172 25.1334 532.176 25.2134 530.931 25.2811C528.445 25.4162 525.005 25.5 521.2 25.5H456.8C452.995 25.5 449.555 25.4162 447.069 25.2811C445.824 25.2134 444.828 25.1334 444.148 25.046C443.867 25.0099 443.652 24.9739 443.5 24.94V1.5Z" fill="white" stroke="#D6A86F"/>
<path d="M456.75 10.8636L458.653 6.54545H459.449L457.091 12H456.409L454.094 6.54545H454.875L456.75 10.8636ZM454.605 6.54545V12H453.767V6.54545H454.605ZM458.895 12V6.54545H459.733V12H458.895ZM463.71 12.0994C463.241 12.0994 462.824 12.0189 462.457 11.858C462.092 11.697 461.802 11.4732 461.587 11.1868C461.374 10.898 461.258 10.563 461.239 10.1818H462.134C462.152 10.4162 462.233 10.6186 462.375 10.7891C462.517 10.9571 462.703 11.0874 462.933 11.1797C463.162 11.272 463.417 11.3182 463.696 11.3182C464.009 11.3182 464.286 11.2637 464.527 11.1548C464.768 11.0459 464.958 10.8944 465.095 10.7003C465.232 10.5062 465.301 10.2812 465.301 10.0256C465.301 9.75805 465.235 9.52249 465.102 9.31889C464.97 9.11293 464.776 8.95194 464.52 8.83594C464.264 8.71993 463.952 8.66193 463.582 8.66193H463V7.88068H463.582C463.871 7.88068 464.125 7.8286 464.342 7.72443C464.563 7.62026 464.734 7.47348 464.857 7.28409C464.983 7.0947 465.045 6.87216 465.045 6.61648C465.045 6.37026 464.991 6.15601 464.882 5.97372C464.773 5.79143 464.619 5.64938 464.42 5.54759C464.224 5.44579 463.992 5.39489 463.724 5.39489C463.473 5.39489 463.237 5.44105 463.014 5.53338C462.794 5.62334 462.614 5.75473 462.474 5.92756C462.335 6.09801 462.259 6.30398 462.247 6.54545H461.395C461.409 6.1643 461.524 5.83049 461.739 5.54403C461.955 5.25521 462.237 5.0303 462.585 4.86932C462.935 4.70833 463.32 4.62784 463.739 4.62784C464.188 4.62784 464.574 4.71899 464.896 4.90128C465.218 5.0812 465.466 5.31913 465.638 5.61506C465.811 5.91098 465.898 6.23059 465.898 6.57386C465.898 6.98343 465.79 7.33262 465.575 7.62145C465.362 7.91027 465.071 8.11032 464.705 8.22159V8.27841C465.164 8.35417 465.522 8.54948 465.781 8.86435C466.039 9.17685 466.168 9.56392 466.168 10.0256C466.168 10.4209 466.06 10.776 465.844 11.0909C465.631 11.4034 465.34 11.6496 464.971 11.8295C464.602 12.0095 464.181 12.0994 463.71 12.0994ZM469.765 10.7216V6.03409H470.56V10.7216H469.765ZM467.819 8.77557V7.98011H472.506V8.77557H467.819ZM474.34 12V4.72727H478.729V5.50852H475.22V7.78125H477.067C477.588 7.78125 478.027 7.86648 478.384 8.03693C478.744 8.20739 479.017 8.44768 479.201 8.75781C479.388 9.06795 479.482 9.43371 479.482 9.85511C479.482 10.2765 479.388 10.6482 479.201 10.9702C479.017 11.2921 478.744 11.5443 478.384 11.7266C478.027 11.9089 477.588 12 477.067 12H474.34ZM475.22 11.233H477.067C477.398 11.233 477.679 11.1667 477.909 11.0341C478.141 10.8991 478.316 10.7263 478.434 10.5156C478.555 10.3026 478.615 10.0777 478.615 9.84091C478.615 9.4929 478.481 9.19342 478.214 8.94247C477.946 8.68916 477.564 8.5625 477.067 8.5625H475.22V11.233ZM483.261 12.0994C482.792 12.0994 482.374 12.0189 482.007 11.858C481.643 11.697 481.353 11.4732 481.137 11.1868C480.924 10.898 480.808 10.563 480.789 10.1818H481.684C481.703 10.4162 481.784 10.6186 481.926 10.7891C482.068 10.9571 482.254 11.0874 482.483 11.1797C482.713 11.272 482.967 11.3182 483.247 11.3182C483.559 11.3182 483.836 11.2637 484.078 11.1548C484.319 11.0459 484.509 10.8944 484.646 10.7003C484.783 10.5062 484.852 10.2812 484.852 10.0256C484.852 9.75805 484.786 9.52249 484.653 9.31889C484.52 9.11293 484.326 8.95194 484.071 8.83594C483.815 8.71993 483.502 8.66193 483.133 8.66193H482.551V7.88068H483.133C483.422 7.88068 483.675 7.8286 483.893 7.72443C484.113 7.62026 484.285 7.47348 484.408 7.28409C484.533 7.0947 484.596 6.87216 484.596 6.61648C484.596 6.37026 484.542 6.15601 484.433 5.97372C484.324 5.79143 484.17 5.64938 483.971 5.54759C483.775 5.44579 483.543 5.39489 483.275 5.39489C483.024 5.39489 482.788 5.44105 482.565 5.53338C482.345 5.62334 482.165 5.75473 482.025 5.92756C481.886 6.09801 481.81 6.30398 481.798 6.54545H480.946C480.96 6.1643 481.075 5.83049 481.29 5.54403C481.506 5.25521 481.787 5.0303 482.135 4.86932C482.486 4.70833 482.87 4.62784 483.289 4.62784C483.739 4.62784 484.125 4.71899 484.447 4.90128C484.769 5.0812 485.016 5.31913 485.189 5.61506C485.362 5.91098 485.449 6.23059 485.449 6.57386C485.449 6.98343 485.341 7.33262 485.125 7.62145C484.912 7.91027 484.622 8.11032 484.255 8.22159V8.27841C484.715 8.35417 485.073 8.54948 485.331 8.86435C485.589 9.17685 485.718 9.56392 485.718 10.0256C485.718 10.4209 485.611 10.776 485.395 11.0909C485.182 11.4034 484.891 11.6496 484.522 11.8295C484.152 12.0095 483.732 12.0994 483.261 12.0994ZM489.316 11.5028V6.81534H490.111V11.5028H489.316ZM487.37 9.55682V8.76136H492.057V9.55682H487.37ZM496.76 10.8636L498.663 6.54545H499.459L497.101 12H496.419L494.104 6.54545H494.885L496.76 10.8636ZM494.615 6.54545V12H493.777V6.54545H494.615ZM498.905 12V6.54545H499.743V12H498.905ZM503.72 12.0994C503.251 12.0994 502.833 12.0189 502.466 11.858C502.102 11.697 501.812 11.4732 501.596 11.1868C501.383 10.898 501.267 10.563 501.248 10.1818H502.143C502.162 10.4162 502.243 10.6186 502.385 10.7891C502.527 10.9571 502.713 11.0874 502.942 11.1797C503.172 11.272 503.426 11.3182 503.706 11.3182C504.018 11.3182 504.295 11.2637 504.537 11.1548C504.778 11.0459 504.968 10.8944 505.105 10.7003C505.242 10.5062 505.311 10.2812 505.311 10.0256C505.311 9.75805 505.245 9.52249 505.112 9.31889C504.979 9.11293 504.785 8.95194 504.53 8.83594C504.274 8.71993 503.961 8.66193 503.592 8.66193H503.01V7.88068H503.592C503.881 7.88068 504.134 7.8286 504.352 7.72443C504.572 7.62026 504.744 7.47348 504.867 7.28409C504.992 7.0947 505.055 6.87216 505.055 6.61648C505.055 6.37026 505.001 6.15601 504.892 5.97372C504.783 5.79143 504.629 5.64938 504.43 5.54759C504.234 5.44579 504.002 5.39489 503.734 5.39489C503.483 5.39489 503.247 5.44105 503.024 5.53338C502.804 5.62334 502.624 5.75473 502.484 5.92756C502.345 6.09801 502.269 6.30398 502.257 6.54545H501.405C501.419 6.1643 501.534 5.83049 501.749 5.54403C501.965 5.25521 502.246 5.0303 502.594 4.86932C502.945 4.70833 503.329 4.62784 503.748 4.62784C504.198 4.62784 504.584 4.71899 504.906 4.90128C505.228 5.0812 505.475 5.31913 505.648 5.61506C505.821 5.91098 505.907 6.23059 505.907 6.57386C505.907 6.98343 505.8 7.33262 505.584 7.62145C505.371 7.91027 505.081 8.11032 504.714 8.22159V8.27841C505.174 8.35417 505.532 8.54948 505.79 8.86435C506.048 9.17685 506.177 9.56392 506.177 10.0256C506.177 10.4209 506.07 10.776 505.854 11.0909C505.641 11.4034 505.35 11.6496 504.981 11.8295C504.611 12.0095 504.191 12.0994 503.72 12.0994ZM507.985 8.49148V7.72443H512.36V8.49148H507.985ZM507.985 10.5938V9.8267H512.36V10.5938H507.985ZM517.219 10.8636L519.122 6.54545H519.918L517.56 12H516.878L514.562 6.54545H515.344L517.219 10.8636ZM515.074 6.54545V12H514.236V6.54545H515.074ZM519.364 12V6.54545H520.202V12H519.364ZM521.949 12L525.202 5.56534V5.50852H521.452V4.72727H526.111V5.55114L522.872 12H521.949Z" fill="black"/>
<path d="M467.972 16.5455V22H467.134V16.5455H467.972ZM467.645 19.1449V19.9261C467.455 19.9972 467.267 20.0599 467.08 20.1143C466.893 20.1664 466.697 20.2079 466.491 20.2386C466.285 20.267 466.059 20.2812 465.812 20.2812C465.195 20.2812 464.699 20.1143 464.325 19.7805C463.953 19.4467 463.767 18.946 463.767 18.2784V16.5312H464.605V18.2784C464.605 18.5578 464.658 18.7874 464.765 18.9673C464.871 19.1473 465.016 19.281 465.198 19.3686C465.38 19.4562 465.585 19.5 465.812 19.5C466.168 19.5 466.488 19.468 466.775 19.4041C467.064 19.3378 467.354 19.2514 467.645 19.1449ZM471.768 22.0994C471.351 22.0994 470.976 22.0166 470.642 21.8509C470.308 21.6851 470.041 21.4579 469.839 21.169C469.638 20.8802 469.528 20.5511 469.509 20.1818H470.362C470.395 20.5109 470.544 20.7831 470.809 20.9986C471.076 21.2116 471.396 21.3182 471.768 21.3182C472.066 21.3182 472.331 21.2483 472.563 21.1087C472.798 20.969 472.981 20.7772 473.114 20.5334C473.249 20.2872 473.316 20.009 473.316 19.6989C473.316 19.3816 473.246 19.0987 473.107 18.8501C472.969 18.5992 472.78 18.4015 472.538 18.2571C472.297 18.1127 472.021 18.0393 471.711 18.0369C471.488 18.0346 471.26 18.0689 471.026 18.1399C470.791 18.2086 470.598 18.2973 470.447 18.4062L469.623 18.3068L470.063 14.7273H473.842V15.5085H470.802L470.546 17.6534H470.589C470.738 17.535 470.925 17.4368 471.15 17.3587C471.375 17.2805 471.609 17.2415 471.853 17.2415C472.298 17.2415 472.695 17.348 473.043 17.5611C473.393 17.7718 473.668 18.0606 473.866 18.4276C474.068 18.7945 474.168 19.2135 474.168 19.6847C474.168 20.1487 474.064 20.563 473.856 20.9276C473.65 21.2898 473.366 21.5762 473.004 21.7869C472.641 21.9953 472.229 22.0994 471.768 22.0994Z" fill="black"/>
<path d="M487.972 16.5455V22H487.134V16.5455H487.972ZM487.645 19.1449V19.9261C487.455 19.9972 487.267 20.0599 487.08 20.1143C486.893 20.1664 486.697 20.2079 486.491 20.2386C486.285 20.267 486.059 20.2812 485.812 20.2812C485.195 20.2812 484.699 20.1143 484.325 19.7805C483.953 19.4467 483.767 18.946 483.767 18.2784V16.5312H484.605V18.2784C484.605 18.5578 484.658 18.7874 484.765 18.9673C484.871 19.1473 485.016 19.281 485.198 19.3686C485.38 19.4562 485.585 19.5 485.812 19.5C486.168 19.5 486.488 19.468 486.775 19.4041C487.064 19.3378 487.354 19.2514 487.645 19.1449ZM491.768 22.0994C491.351 22.0994 490.976 22.0166 490.642 21.8509C490.308 21.6851 490.041 21.4579 489.839 21.169C489.638 20.8802 489.528 20.5511 489.509 20.1818H490.362C490.395 20.5109 490.544 20.7831 490.809 20.9986C491.076 21.2116 491.396 21.3182 491.768 21.3182C492.066 21.3182 492.331 21.2483 492.563 21.1087C492.798 20.969 492.981 20.7772 493.114 20.5334C493.249 20.2872 493.316 20.009 493.316 19.6989C493.316 19.3816 493.246 19.0987 493.107 18.8501C492.969 18.5992 492.78 18.4015 492.538 18.2571C492.297 18.1127 492.021 18.0393 491.711 18.0369C491.488 18.0346 491.26 18.0689 491.026 18.1399C490.791 18.2086 490.598 18.2973 490.447 18.4062L489.623 18.3068L490.063 14.7273H493.842V15.5085H490.802L490.546 17.6534H490.589C490.738 17.535 490.925 17.4368 491.15 17.3587C491.375 17.2805 491.609 17.2415 491.853 17.2415C492.298 17.2415 492.695 17.348 493.043 17.5611C493.393 17.7718 493.668 18.0606 493.866 18.4276C494.068 18.7945 494.168 19.2135 494.168 19.6847C494.168 20.1487 494.064 20.563 493.856 20.9276C493.65 21.2898 493.366 21.5762 493.004 21.7869C492.641 21.9953 492.229 22.0994 491.768 22.0994Z" fill="black"/>
<path d="M181.1 1.1H205.9V25.25C205.9 25.2654 205.893 25.2918 205.854 25.3296C205.815 25.3676 205.752 25.4091 205.663 25.4515C205.484 25.5362 205.218 25.6151 204.882 25.6823C204.212 25.8164 203.281 25.9 202.25 25.9H184.75C183.719 25.9 182.788 25.8164 182.118 25.6823C181.782 25.6151 181.516 25.5362 181.337 25.4515C181.248 25.4091 181.185 25.3676 181.146 25.3296C181.107 25.2918 181.1 25.2654 181.1 25.25V1.1Z" fill="url(#paint12_linear_578_691)" stroke="black" stroke-width="0.2"/>
<path d="M195.21 18.0994C194.741 18.0994 194.324 18.0189 193.957 17.858C193.592 17.697 193.302 17.4732 193.087 17.1868C192.874 16.898 192.758 16.563 192.739 16.1818H193.634C193.652 16.4162 193.733 16.6186 193.875 16.7891C194.017 16.9571 194.203 17.0874 194.433 17.1797C194.662 17.272 194.917 17.3182 195.196 17.3182C195.509 17.3182 195.786 17.2637 196.027 17.1548C196.268 17.0459 196.458 16.8944 196.595 16.7003C196.732 16.5062 196.801 16.2812 196.801 16.0256C196.801 15.758 196.735 15.5225 196.602 15.3189C196.47 15.1129 196.276 14.9519 196.02 14.8359C195.764 14.7199 195.452 14.6619 195.082 14.6619H194.5V13.8807H195.082C195.371 13.8807 195.625 13.8286 195.842 13.7244C196.063 13.6203 196.234 13.4735 196.357 13.2841C196.483 13.0947 196.545 12.8722 196.545 12.6165C196.545 12.3703 196.491 12.156 196.382 11.9737C196.273 11.7914 196.119 11.6494 195.92 11.5476C195.724 11.4458 195.492 11.3949 195.224 11.3949C194.973 11.3949 194.737 11.4411 194.514 11.5334C194.294 11.6233 194.114 11.7547 193.974 11.9276C193.835 12.098 193.759 12.304 193.747 12.5455H192.895C192.909 12.1643 193.024 11.8305 193.239 11.544C193.455 11.2552 193.737 11.0303 194.085 10.8693C194.435 10.7083 194.82 10.6278 195.239 10.6278C195.688 10.6278 196.074 10.719 196.396 10.9013C196.718 11.0812 196.966 11.3191 197.138 11.6151C197.311 11.911 197.398 12.2306 197.398 12.5739C197.398 12.9834 197.29 13.3326 197.075 13.6214C196.862 13.9103 196.571 14.1103 196.205 14.2216V14.2784C196.664 14.3542 197.022 14.5495 197.281 14.8643C197.539 15.1768 197.668 15.5639 197.668 16.0256C197.668 16.4209 197.56 16.776 197.344 17.0909C197.131 17.4034 196.84 17.6496 196.471 17.8295C196.102 18.0095 195.681 18.0994 195.21 18.0994Z" fill="black"/>
<path d="M189 18.379L190.833 17.027C191.639 16.442 191.951 15.779 191.977 15.285C191.977 14.557 191.314 14.011 190.534 14.011C189.988 14.011 189.585 14.219 189.325 14.648L189.416 10.553H189V18.379ZM190.209 14.531C190.625 14.531 190.937 14.83 190.937 15.233C190.937 15.909 190.04 17.209 189.364 17.638C189.325 17.417 189.299 16.988 189.299 16.351C189.299 16 189.325 15.571 189.377 15.077C189.572 14.713 189.845 14.531 190.209 14.531Z" fill="black"/>
<path d="M1 1H93V25.25C93 25.6642 86.8215 26 79.2 26H14.8C7.17847 26 1 25.6642 1 25.25V1Z" fill="white" stroke="#D6A86F" stroke-miterlimit="16"/>
<path d="M39.7336 12.412L42.1096 9.388C43.3336 7.822 43.8736 7.444 44.9176 7.408V7.084H40.6696V7.408C41.5336 7.408 41.9656 7.642 41.9656 8.092C41.9656 8.308 41.7856 8.65 41.4256 9.1L39.3016 11.764L37.4656 9.028C37.1776 8.614 37.0336 8.308 37.0336 8.092C37.0336 7.66 37.4476 7.426 38.2576 7.408V7.084H32.7496V7.408C34.0456 7.444 34.6936 7.93 35.9176 9.712L38.2576 13.132L35.4496 16.696C34.4956 17.92 33.5236 18.586 32.5336 18.676V19H36.7456V18.676C35.9716 18.658 35.5936 18.424 35.5936 17.992C35.5936 17.776 35.7916 17.434 36.1696 16.948L38.6536 13.744L40.6696 16.804C41.0476 17.38 41.2456 17.776 41.2456 17.992C41.2456 18.424 40.8496 18.658 40.0576 18.676V19H45.1696V18.676C44.1076 18.64 43.6936 18.298 42.2896 16.228L39.7336 12.412ZM58.9544 19V18.676C58.0004 18.676 57.7664 18.388 57.7664 17.164V13.168C57.7664 12.7 57.3704 11.512 57.0464 11.188C56.7584 10.9 56.3264 10.756 55.7504 10.756C54.6164 10.756 53.6084 11.242 52.7264 12.232C52.5284 11.242 51.9344 10.756 50.9264 10.756C49.8644 10.756 48.9464 11.242 48.1544 12.196V10.756L45.4544 11.62V11.944H46.3184C46.5344 12.016 46.6424 12.25 46.6424 12.664V17.164C46.6424 18.388 46.4084 18.676 45.4544 18.676V19H49.2344V18.676C48.4604 18.676 48.1544 18.388 48.1544 17.416V12.772C48.7484 11.998 49.4144 11.62 50.1344 11.62C50.9804 11.62 51.3944 12.106 51.3944 13.096V17.272C51.3944 18.424 51.0884 18.676 50.3144 18.676V19H54.0944V18.676C53.1404 18.676 52.9064 18.388 52.9064 17.164C52.9064 17.11 52.9244 16.642 52.9424 15.76V13.96C52.9244 13.312 52.8884 12.898 52.8344 12.736C53.4824 11.998 54.1664 11.62 54.8864 11.62C55.8044 11.62 56.2544 12.106 56.2544 13.096V17.272C56.2544 18.424 55.9484 18.676 55.1744 18.676V19H58.9544ZM64.7437 5.86H60.0637L59.3077 7.84L59.5237 7.984C59.8657 7.246 60.3697 6.868 61.0717 6.868H63.6277L61.2157 14.356H61.9717L64.7437 5.86Z" fill="black"/>
<path d="M406.1 1.1H430.9V25.25C430.9 25.2654 430.893 25.2918 430.854 25.3296C430.815 25.3676 430.752 25.4091 430.663 25.4515C430.484 25.5362 430.218 25.6151 429.882 25.6823C429.212 25.8164 428.281 25.9 427.25 25.9H409.75C408.719 25.9 407.788 25.8164 407.118 25.6823C406.782 25.6151 406.516 25.5362 406.337 25.4515C406.248 25.4091 406.185 25.3676 406.146 25.3296C406.107 25.2918 406.1 25.2654 406.1 25.25V1.1Z" fill="white" stroke="black" stroke-width="0.2"/>
<path d="M419.31 10.7273V18H418.429V11.6506H418.386L416.611 12.8295V11.9347L418.429 10.7273H419.31Z" fill="black"/>
<defs>
<radialGradient id="paint0_radial_578_691" cx="0" cy="0" r="1" gradientUnits="userSpaceOnUse" gradientTransform="translate(393.5 13.5) rotate(90) scale(12.5)">
<stop offset="0.171875"/>
<stop offset="0.171975" stop-color="white"/>
</radialGradient>
<radialGradient id="paint1_radial_578_691" cx="0" cy="0" r="1" gradientUnits="userSpaceOnUse" gradientTransform="translate(343.5 13.5) rotate(90) scale(12.5)">
<stop offset="0.171875"/>
<stop offset="0.171975" stop-color="white"/>
</radialGradient>
<radialGradient id="paint2_radial_578_691" cx="0" cy="0" r="1" gradientUnits="userSpaceOnUse" gradientTransform="translate(318.5 13.5) rotate(90) scale(12.5)">
<stop offset="0.171875"/>
<stop offset="0.171975" stop-color="white"/>
</radialGradient>
<radialGradient id="paint3_radial_578_691" cx="0" cy="0" r="1" gradientUnits="userSpaceOnUse" gradientTransform="translate(268.5 13.5) rotate(90) scale(12.5)">
<stop offset="0.171875"/>
<stop offset="0.171975" stop-color="white"/>
</radialGradient>
<radialGradient id="paint4_radial_578_691" cx="0" cy="0" r="1" gradientUnits="userSpaceOnUse" gradientTransform="translate(243.5 13.5) rotate(90) scale(12.5)">
<stop offset="0.171875"/>
<stop offset="0.171975" stop-color="white"/>
</radialGradient>
<radialGradient id="paint5_radial_578_691" cx="0" cy="0" r="1" gradientUnits="userSpaceOnUse" gradientTransform="translate(218.5 13.5) rotate(90) scale(12.5)">
<stop offset="0.171875"/>
<stop offset="0.171975" stop-color="white"/>
</radialGradient>
<radialGradient id="paint6_radial_578_691" cx="0" cy="0" r="1" gradientUnits="userSpaceOnUse" gradientTransform="translate(168.5 13.5) rotate(90) scale(12.5)">
<stop offset="0.171875"/>
<stop offset="0.171975" stop-color="white"/>
</radialGradient>
<radialGradient id="paint7_radial_578_691" cx="0" cy="0" r="1" gradientUnits="userSpaceOnUse" gradientTransform="translate(143.5 13.5) rotate(90) scale(12.5)">
<stop offset="0.171875"/>
<stop offset="0.171975" stop-color="white"/>
</radialGradient>
<linearGradient id="paint8_linear_578_691" x1="119.5" y1="1" x2="119.5" y2="26" gradientUnits="userSpaceOnUse">
<stop offset="0.255208" stop-color="#DDB078"/>
<stop offset="0.598958" stop-color="#F4D6B1"/>
</linearGradient>
<linearGradient id="paint9_linear_578_691" x1="119.5" y1="1" x2="119.5" y2="26" gradientUnits="userSpaceOnUse">
<stop offset="0.255208" stop-color="#DDB078"/>
<stop offset="0.598958" stop-color="#F4D6B1"/>
</linearGradient>
<linearGradient id="paint10_linear_578_691" x1="368.5" y1="1" x2="368.5" y2="26" gradientUnits="userSpaceOnUse">
<stop offset="0.255208" stop-color="#DDB078"/>
<stop offset="0.598958" stop-color="#F4D6B1"/>
</linearGradient>
<linearGradient id="paint11_linear_578_691" x1="293.5" y1="1" x2="293.5" y2="26" gradientUnits="userSpaceOnUse">
<stop offset="0.255208" stop-color="#DDB078"/>
<stop offset="0.598958" stop-color="#F4D6B1"/>
</linearGradient>
<linearGradient id="paint12_linear_578_691" x1="193.5" y1="1" x2="193.5" y2="26" gradientUnits="userSpaceOnUse">
<stop offset="0.255208" stop-color="#DDB078"/>
<stop offset="0.598958" stop-color="#F4D6B1"/>
</linearGradient>
</defs>
</svg>
