<svg width="536" height="27" viewBox="0 0 536 27" fill="none" xmlns="http://www.w3.org/2000/svg">
<path d="M406.1 1.1H430.9V25.25C430.9 25.2654 430.893 25.2918 430.854 25.3296C430.815 25.3676 430.752 25.4091 430.663 25.4515C430.484 25.5362 430.218 25.6151 429.882 25.6823C429.212 25.8164 428.281 25.9 427.25 25.9H409.75C408.719 25.9 407.788 25.8164 407.118 25.6823C406.782 25.6151 406.516 25.5362 406.337 25.4515C406.248 25.4091 406.185 25.3676 406.146 25.3296C406.107 25.2918 406.1 25.2654 406.1 25.25V1.1Z" fill="white" stroke="black" stroke-width="0.2"/>
<path d="M419.31 10.7273V18H418.429V11.6506H418.386L416.611 12.8295V11.9347L418.429 10.7273H419.31Z" fill="black"/>
<path d="M356.1 1.1H380.9V25.25C380.9 25.2654 380.893 25.2918 380.854 25.3296C380.815 25.3676 380.752 25.4091 380.663 25.4515C380.484 25.5362 380.218 25.6151 379.882 25.6823C379.212 25.8164 378.281 25.9 377.25 25.9H359.75C358.719 25.9 357.788 25.8164 357.118 25.6823C356.782 25.6151 356.516 25.5362 356.337 25.4515C356.248 25.4091 356.185 25.3676 356.146 25.3296C356.107 25.2918 356.1 25.2654 356.1 25.25V1.1Z" fill="url(#paint0_radial_1083_425)" stroke="black" stroke-width="0.2"/>
<path d="M331.1 1.1H355.9V25.25C355.9 25.2654 355.893 25.2918 355.854 25.3296C355.815 25.3676 355.752 25.4091 355.663 25.4515C355.484 25.5362 355.218 25.6151 354.882 25.6823C354.212 25.8164 353.281 25.9 352.25 25.9H334.75C333.719 25.9 332.788 25.8164 332.118 25.6823C331.782 25.6151 331.516 25.5362 331.337 25.4515C331.248 25.4091 331.185 25.3676 331.146 25.3296C331.107 25.2918 331.1 25.2654 331.1 25.25V1.1Z" fill="url(#paint1_radial_1083_425)" stroke="black" stroke-width="0.2"/>
<path d="M381.1 1.1H405.9V25.25C405.9 25.2654 405.893 25.2918 405.854 25.3296C405.815 25.3676 405.752 25.4091 405.663 25.4515C405.484 25.5362 405.218 25.6151 404.882 25.6823C404.212 25.8164 403.281 25.9 402.25 25.9H384.75C383.719 25.9 382.788 25.8164 382.118 25.6823C381.782 25.6151 381.516 25.5362 381.337 25.4515C381.248 25.4091 381.185 25.3676 381.146 25.3296C381.107 25.2918 381.1 25.2654 381.1 25.25V1.1Z" fill="url(#paint2_radial_1083_425)" stroke="black" stroke-width="0.2"/>
<path d="M306.1 1.1H330.9V25.25C330.9 25.2654 330.893 25.2918 330.854 25.3296C330.815 25.3676 330.752 25.4091 330.663 25.4515C330.484 25.5362 330.218 25.6151 329.882 25.6823C329.212 25.8164 328.281 25.9 327.25 25.9H309.75C308.719 25.9 307.788 25.8164 307.118 25.6823C306.782 25.6151 306.516 25.5362 306.337 25.4515C306.248 25.4091 306.185 25.3676 306.146 25.3296C306.107 25.2918 306.1 25.2654 306.1 25.25V1.1Z" fill="url(#paint3_radial_1083_425)" stroke="black" stroke-width="0.2"/>
<path d="M256.1 1.1H280.9V25.25C280.9 25.2654 280.893 25.2918 280.854 25.3296C280.815 25.3676 280.752 25.4091 280.663 25.4515C280.484 25.5362 280.218 25.6151 279.882 25.6823C279.212 25.8164 278.281 25.9 277.25 25.9H259.75C258.719 25.9 257.788 25.8164 257.118 25.6823C256.782 25.6151 256.516 25.5362 256.337 25.4515C256.248 25.4091 256.185 25.3676 256.146 25.3296C256.107 25.2918 256.1 25.2654 256.1 25.25V1.1Z" fill="url(#paint4_radial_1083_425)" stroke="black" stroke-width="0.2"/>
<path d="M231.1 1.1H255.9V25.25C255.9 25.2654 255.893 25.2918 255.854 25.3296C255.815 25.3676 255.752 25.4091 255.663 25.4515C255.484 25.5362 255.218 25.6151 254.882 25.6823C254.212 25.8164 253.281 25.9 252.25 25.9H234.75C233.719 25.9 232.788 25.8164 232.118 25.6823C231.782 25.6151 231.516 25.5362 231.337 25.4515C231.248 25.4091 231.185 25.3676 231.146 25.3296C231.107 25.2918 231.1 25.2654 231.1 25.25V1.1Z" fill="url(#paint5_radial_1083_425)" stroke="black" stroke-width="0.2"/>
<path d="M206.1 1.1H230.9V25.25C230.9 25.2654 230.893 25.2918 230.854 25.3296C230.815 25.3676 230.752 25.4091 230.663 25.4515C230.484 25.5362 230.218 25.6151 229.882 25.6823C229.212 25.8164 228.281 25.9 227.25 25.9H209.75C208.719 25.9 207.788 25.8164 207.118 25.6823C206.782 25.6151 206.516 25.5362 206.337 25.4515C206.248 25.4091 206.185 25.3676 206.146 25.3296C206.107 25.2918 206.1 25.2654 206.1 25.25V1.1Z" fill="url(#paint6_radial_1083_425)" stroke="black" stroke-width="0.2"/>
<path d="M156.1 1.1H180.9V25.25C180.9 25.2654 180.893 25.2918 180.854 25.3296C180.815 25.3676 180.752 25.4091 180.663 25.4515C180.484 25.5362 180.218 25.6151 179.882 25.6823C179.212 25.8164 178.281 25.9 177.25 25.9H159.75C158.719 25.9 157.788 25.8164 157.118 25.6823C156.782 25.6151 156.516 25.5362 156.337 25.4515C156.248 25.4091 156.185 25.3676 156.146 25.3296C156.107 25.2918 156.1 25.2654 156.1 25.25V1.1Z" fill="url(#paint7_linear_1083_425)" stroke="black" stroke-width="0.2"/>
<path d="M165.753 18V17.3608L168.153 14.733C168.435 14.4252 168.667 14.1577 168.849 13.9304C169.032 13.7008 169.167 13.4853 169.254 13.2841C169.344 13.0805 169.389 12.8674 169.389 12.6449C169.389 12.3892 169.328 12.1679 169.205 11.9808C169.084 11.7938 168.918 11.6494 168.707 11.5476C168.497 11.4458 168.26 11.3949 167.997 11.3949C167.718 11.3949 167.474 11.4529 167.266 11.5689C167.06 11.6825 166.9 11.8423 166.786 12.0483C166.675 12.2543 166.619 12.4957 166.619 12.7727H165.781C165.781 12.3466 165.879 11.9725 166.076 11.6506C166.272 11.3286 166.54 11.0777 166.879 10.8977C167.219 10.7178 167.602 10.6278 168.026 10.6278C168.452 10.6278 168.829 10.7178 169.158 10.8977C169.487 11.0777 169.746 11.3203 169.933 11.6257C170.12 11.9311 170.213 12.2708 170.213 12.6449C170.213 12.9124 170.165 13.174 170.067 13.4297C169.973 13.683 169.807 13.9659 169.57 14.2784C169.336 14.5885 169.01 14.9673 168.594 15.4148L166.96 17.1619V17.2188H170.341V18H165.753Z" fill="black"/>
<path d="M281.1 1.1H305.9V25.25C305.9 25.2654 305.893 25.2918 305.854 25.3296C305.815 25.3676 305.752 25.4091 305.663 25.4515C305.484 25.5362 305.218 25.6151 304.882 25.6823C304.212 25.8164 303.281 25.9 302.25 25.9H284.75C283.719 25.9 282.788 25.8164 282.118 25.6823C281.782 25.6151 281.516 25.5362 281.337 25.4515C281.248 25.4091 281.185 25.3676 281.146 25.3296C281.107 25.2918 281.1 25.2654 281.1 25.25V1.1Z" fill="url(#paint8_linear_1083_425)" stroke="black" stroke-width="0.2"/>
<path d="M294.026 18.0994C293.609 18.0994 293.234 18.0166 292.9 17.8509C292.566 17.6851 292.299 17.4579 292.097 17.169C291.896 16.8802 291.786 16.5511 291.767 16.1818H292.619C292.652 16.5109 292.802 16.7831 293.067 16.9986C293.334 17.2116 293.654 17.3182 294.026 17.3182C294.324 17.3182 294.589 17.2483 294.821 17.1087C295.055 16.969 295.239 16.7772 295.371 16.5334C295.506 16.2872 295.574 16.009 295.574 15.6989C295.574 15.3816 295.504 15.0987 295.364 14.8501C295.227 14.5992 295.038 14.4015 294.796 14.2571C294.555 14.1127 294.279 14.0393 293.969 14.0369C293.746 14.0346 293.518 14.0689 293.283 14.1399C293.049 14.2086 292.856 14.2973 292.705 14.4062L291.881 14.3068L292.321 10.7273H296.099V11.5085H293.06L292.804 13.6534H292.847C292.996 13.535 293.183 13.4368 293.408 13.3587C293.633 13.2805 293.867 13.2415 294.111 13.2415C294.556 13.2415 294.952 13.348 295.3 13.5611C295.651 13.7718 295.925 14.0606 296.124 14.4276C296.326 14.7945 296.426 15.2135 296.426 15.6847C296.426 16.1487 296.322 16.563 296.114 16.9276C295.908 17.2898 295.624 17.5762 295.261 17.7869C294.899 17.9953 294.487 18.0994 294.026 18.0994Z" fill="black"/>
<path d="M181.1 1.1H205.9V25.25C205.9 25.2654 205.893 25.2918 205.854 25.3296C205.815 25.3676 205.752 25.4091 205.663 25.4515C205.484 25.5362 205.218 25.6151 204.882 25.6823C204.212 25.8164 203.281 25.9 202.25 25.9H184.75C183.719 25.9 182.788 25.8164 182.118 25.6823C181.782 25.6151 181.516 25.5362 181.337 25.4515C181.248 25.4091 181.185 25.3676 181.146 25.3296C181.107 25.2918 181.1 25.2654 181.1 25.25V1.1Z" fill="url(#paint9_radial_1083_425)" stroke="black" stroke-width="0.2"/>
<path d="M131.1 1.1H155.9V25.25C155.9 25.2654 155.893 25.2918 155.854 25.3296C155.815 25.3676 155.752 25.4091 155.663 25.4515C155.484 25.5362 155.218 25.6151 154.882 25.6823C154.212 25.8164 153.281 25.9 152.25 25.9H134.75C133.719 25.9 132.788 25.8164 132.118 25.6823C131.782 25.6151 131.516 25.5362 131.337 25.4515C131.248 25.4091 131.185 25.3676 131.146 25.3296C131.107 25.2918 131.1 25.2654 131.1 25.25V1.1Z" fill="url(#paint10_radial_1083_425)" stroke="black" stroke-width="0.2"/>
<path d="M106.1 1.1H130.9V25.25C130.9 25.2654 130.893 25.2918 130.854 25.3296C130.815 25.3676 130.752 25.4091 130.663 25.4515C130.484 25.5362 130.218 25.6151 129.882 25.6823C129.212 25.8164 128.281 25.9 127.25 25.9H109.75C108.719 25.9 107.788 25.8164 107.118 25.6823C106.782 25.6151 106.516 25.5362 106.337 25.4515C106.248 25.4091 106.185 25.3676 106.146 25.3296C106.107 25.2918 106.1 25.2654 106.1 25.25V1.1Z" fill="url(#paint11_linear_1083_425)" stroke="black" stroke-width="0.2"/>
<path d="M106.1 1.1H130.9V25.25C130.9 25.2654 130.893 25.2918 130.854 25.3296C130.815 25.3676 130.752 25.4091 130.663 25.4515C130.484 25.5362 130.218 25.6151 129.882 25.6823C129.212 25.8164 128.281 25.9 127.25 25.9H109.75C108.719 25.9 107.788 25.8164 107.118 25.6823C106.782 25.6151 106.516 25.5362 106.337 25.4515C106.248 25.4091 106.185 25.3676 106.146 25.3296C106.107 25.2918 106.1 25.2654 106.1 25.25V1.1Z" fill="url(#paint12_linear_1083_425)" stroke="black" stroke-width="0.2"/>
<path d="M119.31 10.7273V18H118.429V11.6506H118.386L116.611 12.8295V11.9347L118.429 10.7273H119.31Z" fill="black"/>
<path d="M444.5 1.5H535.5V24.94C535.348 24.9739 535.133 25.0099 534.852 25.046C534.172 25.1334 533.176 25.2134 531.931 25.2811C529.445 25.4162 526.005 25.5 522.2 25.5H457.8C453.995 25.5 450.555 25.4162 448.069 25.2811C446.824 25.2134 445.828 25.1334 445.148 25.046C444.867 25.0099 444.652 24.9739 444.5 24.94V1.5Z" fill="white" stroke="#D6A86F"/>
<path d="M465.881 17V9.72727H470.27V10.5085H466.761V12.7812H468.608C469.129 12.7812 469.568 12.8665 469.925 13.0369C470.285 13.2074 470.558 13.4477 470.742 13.7578C470.929 14.0679 471.023 14.4337 471.023 14.8551C471.023 15.2765 470.929 15.6482 470.742 15.9702C470.558 16.2921 470.285 16.5443 469.925 16.7266C469.568 16.9089 469.129 17 468.608 17H465.881ZM466.761 16.233H468.608C468.939 16.233 469.22 16.1667 469.45 16.0341C469.682 15.8991 469.857 15.7263 469.975 15.5156C470.096 15.3026 470.156 15.0777 470.156 14.8409C470.156 14.4929 470.022 14.1934 469.755 13.9425C469.487 13.6892 469.105 13.5625 468.608 13.5625H466.761V16.233ZM472.345 17V16.3608L474.745 13.733C475.027 13.4252 475.259 13.1577 475.441 12.9304C475.624 12.7008 475.758 12.4853 475.846 12.2841C475.936 12.0805 475.981 11.8674 475.981 11.6449C475.981 11.3892 475.919 11.1679 475.796 10.9808C475.676 10.7938 475.51 10.6494 475.299 10.5476C475.088 10.4458 474.852 10.3949 474.589 10.3949C474.31 10.3949 474.066 10.4529 473.857 10.5689C473.651 10.6825 473.492 10.8423 473.378 11.0483C473.267 11.2543 473.211 11.4957 473.211 11.7727H472.373C472.373 11.3466 472.471 10.9725 472.668 10.6506C472.864 10.3286 473.132 10.0777 473.47 9.89773C473.811 9.7178 474.194 9.62784 474.617 9.62784C475.044 9.62784 475.421 9.7178 475.75 9.89773C476.079 10.0777 476.337 10.3203 476.524 10.6257C476.711 10.9311 476.805 11.2708 476.805 11.6449C476.805 11.9124 476.756 12.174 476.659 12.4297C476.565 12.683 476.399 12.9659 476.162 13.2784C475.928 13.5885 475.602 13.9673 475.186 14.4148L473.552 16.1619V16.2188H476.933V17H472.345ZM480.544 16.5028V11.8153H481.34V16.5028H480.544ZM478.598 14.5568V13.7614H483.286V14.5568H478.598ZM489.21 11.5455V17H488.372V11.5455H489.21ZM488.883 14.1449V14.9261C488.694 14.9972 488.506 15.0599 488.319 15.1143C488.132 15.1664 487.935 15.2079 487.729 15.2386C487.523 15.267 487.297 15.2812 487.051 15.2812C486.433 15.2812 485.937 15.1143 485.563 14.7805C485.191 14.4467 485.005 13.946 485.005 13.2784V11.5312H485.843V13.2784C485.843 13.5578 485.897 13.7874 486.003 13.9673C486.11 14.1473 486.254 14.281 486.436 14.3686C486.619 14.4562 486.824 14.5 487.051 14.5C487.406 14.5 487.727 14.468 488.013 14.4041C488.302 14.3378 488.592 14.2514 488.883 14.1449ZM490.563 15.5085V14.7841L493.759 9.72727H494.284V10.8494H493.929L491.515 14.6705V14.7273H495.819V15.5085H490.563ZM493.986 17V15.2884V14.951V9.72727H494.824V17H493.986ZM497.504 13.4915V12.7244H501.879V13.4915H497.504ZM497.504 15.5938V14.8267H501.879V15.5938H497.504ZM507.96 11.5455V17H507.122V11.5455H507.96ZM507.633 14.1449V14.9261C507.444 14.9972 507.256 15.0599 507.069 15.1143C506.882 15.1664 506.685 15.2079 506.479 15.2386C506.273 15.267 506.047 15.2812 505.801 15.2812C505.183 15.2812 504.687 15.1143 504.313 14.7805C503.941 14.4467 503.755 13.946 503.755 13.2784V11.5312H504.593V13.2784C504.593 13.5578 504.647 13.7874 504.753 13.9673C504.86 14.1473 505.004 14.281 505.186 14.3686C505.369 14.4562 505.574 14.5 505.801 14.5C506.156 14.5 506.477 14.468 506.763 14.4041C507.052 14.3378 507.342 14.2514 507.633 14.1449ZM511.756 17.0994C511.339 17.0994 510.964 17.0166 510.63 16.8509C510.297 16.6851 510.029 16.4579 509.828 16.169C509.627 15.8802 509.516 15.5511 509.498 15.1818H510.35C510.383 15.5109 510.532 15.7831 510.797 15.9986C511.065 16.2116 511.384 16.3182 511.756 16.3182C512.054 16.3182 512.319 16.2483 512.551 16.1087C512.786 15.969 512.969 15.7772 513.102 15.5334C513.237 15.2872 513.304 15.009 513.304 14.6989C513.304 14.3816 513.234 14.0987 513.095 13.8501C512.958 13.5992 512.768 13.4015 512.527 13.2571C512.285 13.1127 512.009 13.0393 511.699 13.0369C511.477 13.0346 511.248 13.0689 511.014 13.1399C510.779 13.2086 510.587 13.2973 510.435 13.4062L509.611 13.3068L510.051 9.72727H513.83V10.5085H510.79L510.534 12.6534H510.577C510.726 12.535 510.913 12.4368 511.138 12.3587C511.363 12.2805 511.597 12.2415 511.841 12.2415C512.286 12.2415 512.683 12.348 513.031 12.5611C513.381 12.7718 513.656 13.0606 513.855 13.4276C514.056 13.7945 514.157 14.2135 514.157 14.6847C514.157 15.1487 514.052 15.563 513.844 15.9276C513.638 16.2898 513.354 16.5762 512.992 16.7869C512.63 16.9953 512.218 17.0994 511.756 17.0994Z" fill="black"/>
<path d="M1 1H93V25.25C93 25.6642 86.8215 26 79.2 26H14.8C7.17847 26 1 25.6642 1 25.25V1Z" fill="white" stroke="#D6A86F" stroke-miterlimit="16"/>
<path d="M37.8305 19H35.9945L32.5925 13.42L29.1365 19H27.4265L31.6925 12.304L27.6965 6.148H29.4965L32.6465 11.188L35.8145 6.148H37.5245L33.5465 12.268L37.8305 19ZM46.4681 16.768C46.4681 15.292 44.9021 14.698 43.3361 13.78C42.6341 13.366 42.2921 12.916 42.2921 12.412C42.2921 11.638 42.8501 11.224 43.6241 11.224C44.4521 11.224 44.9741 11.548 45.4061 12.52C45.5681 12.88 45.6401 13.186 45.6401 13.42H45.9641V10.936H45.6401V10.99C45.6401 11.116 45.5681 11.188 45.3881 11.188C45.1541 11.188 44.0741 10.756 43.6961 10.756C42.4181 10.756 41.1401 11.656 41.1401 12.988C41.1401 15.202 45.2441 15.706 45.2441 17.452C45.2441 18.226 44.5781 18.676 43.7681 18.676C42.4541 18.676 41.4641 17.452 41.4641 16.156H41.1401V19H41.4641C41.4821 18.838 41.6081 18.748 41.8241 18.748C42.1841 18.748 43.3361 19.162 43.6961 19.162C45.2261 19.162 46.4681 18.262 46.4681 16.768ZM55.5414 18.244V17.92C55.4154 17.938 55.3074 17.938 55.2174 17.938C54.6594 17.938 54.4614 17.704 54.4614 17.02V10.936H51.7614V11.332C52.9674 11.332 52.9494 11.368 52.9494 12.16V17.056C52.5714 17.722 51.9594 18.064 51.1134 18.064C50.1234 18.064 49.7814 17.578 49.7814 16.228V10.936H47.0814V11.332C48.3054 11.332 48.2694 11.386 48.2694 12.268V17.092C48.2694 18.334 49.2234 19.162 50.4654 19.162C51.4194 19.162 52.2474 18.694 52.9494 17.74V19.162L55.5414 18.244ZM61.9896 16.768C61.9896 15.292 60.4236 14.698 58.8576 13.78C58.1556 13.366 57.8136 12.916 57.8136 12.412C57.8136 11.638 58.3716 11.224 59.1456 11.224C59.9736 11.224 60.4956 11.548 60.9276 12.52C61.0896 12.88 61.1616 13.186 61.1616 13.42H61.4856V10.936H61.1616V10.99C61.1616 11.116 61.0896 11.188 60.9096 11.188C60.6756 11.188 59.5956 10.756 59.2176 10.756C57.9396 10.756 56.6616 11.656 56.6616 12.988C56.6616 15.202 60.7656 15.706 60.7656 17.452C60.7656 18.226 60.0996 18.676 59.2896 18.676C57.9756 18.676 56.9856 17.452 56.9856 16.156H56.6616V19H56.9856C57.0036 18.838 57.1296 18.748 57.3456 18.748C57.7056 18.748 58.8576 19.162 59.2176 19.162C60.7476 19.162 61.9896 18.262 61.9896 16.768ZM68.4349 12.628L68.2549 12.52C67.9669 13.096 67.5709 13.384 67.0669 13.384H64.0429L66.4909 10.864C67.3009 10.018 67.7149 9.136 67.7149 8.2C67.7149 6.94 66.7789 5.824 65.5189 5.824C64.0789 5.824 63.1789 6.958 62.8909 8.452L63.1069 8.524C63.5209 7.372 64.1509 6.796 65.0149 6.796C66.0229 6.796 66.6709 7.588 66.6709 8.596C66.6709 9.514 66.1849 10.486 65.2309 11.548L62.8189 14.176V14.356H67.6789L68.4349 12.628Z" fill="black"/>
<defs>
<radialGradient id="paint0_radial_1083_425" cx="0" cy="0" r="1" gradientUnits="userSpaceOnUse" gradientTransform="translate(368.5 13.5) rotate(90) scale(12.5)">
<stop offset="0.171875"/>
<stop offset="0.171975" stop-color="white"/>
</radialGradient>
<radialGradient id="paint1_radial_1083_425" cx="0" cy="0" r="1" gradientUnits="userSpaceOnUse" gradientTransform="translate(343.5 13.5) rotate(90) scale(12.5)">
<stop offset="0.171875"/>
<stop offset="0.171975" stop-color="white"/>
</radialGradient>
<radialGradient id="paint2_radial_1083_425" cx="0" cy="0" r="1" gradientUnits="userSpaceOnUse" gradientTransform="translate(393.5 13.5) rotate(90) scale(12.5)">
<stop offset="0.171875"/>
<stop offset="0.171975" stop-color="white"/>
</radialGradient>
<radialGradient id="paint3_radial_1083_425" cx="0" cy="0" r="1" gradientUnits="userSpaceOnUse" gradientTransform="translate(318.5 13.5) rotate(90) scale(12.5)">
<stop offset="0.171875"/>
<stop offset="0.171975" stop-color="white"/>
</radialGradient>
<radialGradient id="paint4_radial_1083_425" cx="0" cy="0" r="1" gradientUnits="userSpaceOnUse" gradientTransform="translate(268.5 13.5) rotate(90) scale(12.5)">
<stop offset="0.171875"/>
<stop offset="0.171975" stop-color="white"/>
</radialGradient>
<radialGradient id="paint5_radial_1083_425" cx="0" cy="0" r="1" gradientUnits="userSpaceOnUse" gradientTransform="translate(243.5 13.5) rotate(90) scale(12.5)">
<stop offset="0.171875"/>
<stop offset="0.171975" stop-color="white"/>
</radialGradient>
<radialGradient id="paint6_radial_1083_425" cx="0" cy="0" r="1" gradientUnits="userSpaceOnUse" gradientTransform="translate(218.5 13.5) rotate(90) scale(12.5)">
<stop offset="0.171875"/>
<stop offset="0.171975" stop-color="white"/>
</radialGradient>
<linearGradient id="paint7_linear_1083_425" x1="168.5" y1="1" x2="168.5" y2="26" gradientUnits="userSpaceOnUse">
<stop offset="0.255208" stop-color="#DDB078"/>
<stop offset="0.598958" stop-color="#F4D6B1"/>
</linearGradient>
<linearGradient id="paint8_linear_1083_425" x1="293.5" y1="1" x2="293.5" y2="26" gradientUnits="userSpaceOnUse">
<stop offset="0.255208" stop-color="#DDB078"/>
<stop offset="0.598958" stop-color="#F4D6B1"/>
</linearGradient>
<radialGradient id="paint9_radial_1083_425" cx="0" cy="0" r="1" gradientUnits="userSpaceOnUse" gradientTransform="translate(193.5 13.5) rotate(90) scale(12.5)">
<stop offset="0.171875"/>
<stop offset="0.171975" stop-color="white"/>
</radialGradient>
<radialGradient id="paint10_radial_1083_425" cx="0" cy="0" r="1" gradientUnits="userSpaceOnUse" gradientTransform="translate(143.5 13.5) rotate(90) scale(12.5)">
<stop offset="0.171875"/>
<stop offset="0.171975" stop-color="white"/>
</radialGradient>
<linearGradient id="paint11_linear_1083_425" x1="118.5" y1="1" x2="118.5" y2="26" gradientUnits="userSpaceOnUse">
<stop offset="0.255208" stop-color="#DDB078"/>
<stop offset="0.598958" stop-color="#F4D6B1"/>
</linearGradient>
<linearGradient id="paint12_linear_1083_425" x1="118.5" y1="1" x2="118.5" y2="26" gradientUnits="userSpaceOnUse">
<stop offset="0.255208" stop-color="#DDB078"/>
<stop offset="0.598958" stop-color="#F4D6B1"/>
</linearGradient>
</defs>
</svg>
