<svg width="325" height="26" viewBox="0 0 325 26" fill="none" xmlns="http://www.w3.org/2000/svg">
<path d="M300.1 1.1H324.9V25.25C324.9 25.2654 324.893 25.2918 324.854 25.3296C324.815 25.3676 324.752 25.4091 324.663 25.4515C324.484 25.5362 324.218 25.6151 323.882 25.6823C323.212 25.8164 322.281 25.9 321.25 25.9H303.75C302.719 25.9 301.788 25.8164 301.118 25.6823C300.782 25.6151 300.516 25.5362 300.337 25.4515C300.248 25.4091 300.185 25.3676 300.146 25.3296C300.107 25.2918 300.1 25.2654 300.1 25.25V1.1Z" fill="url(#paint0_radial_571_845)" stroke="black" stroke-width="0.2"/>
<path d="M275.1 1.1H299.9V25.25C299.9 25.2654 299.893 25.2918 299.854 25.3296C299.815 25.3676 299.752 25.4091 299.663 25.4515C299.484 25.5362 299.218 25.6151 298.882 25.6823C298.212 25.8164 297.281 25.9 296.25 25.9H278.75C277.719 25.9 276.788 25.8164 276.118 25.6823C275.782 25.6151 275.516 25.5362 275.337 25.4515C275.248 25.4091 275.185 25.3676 275.146 25.3296C275.107 25.2918 275.1 25.2654 275.1 25.25V1.1Z" fill="url(#paint1_radial_571_845)" stroke="black" stroke-width="0.2"/>
<path d="M250.1 1.1H274.9V25.25C274.9 25.2654 274.893 25.2918 274.854 25.3296C274.815 25.3676 274.752 25.4091 274.663 25.4515C274.484 25.5362 274.218 25.6151 273.882 25.6823C273.212 25.8164 272.281 25.9 271.25 25.9H253.75C252.719 25.9 251.788 25.8164 251.118 25.6823C250.782 25.6151 250.516 25.5362 250.337 25.4515C250.248 25.4091 250.185 25.3676 250.146 25.3296C250.107 25.2918 250.1 25.2654 250.1 25.25V1.1Z" fill="url(#paint2_radial_571_845)" stroke="black" stroke-width="0.2"/>
<path d="M200.1 1.1H224.9V25.25C224.9 25.2654 224.893 25.2918 224.854 25.3296C224.815 25.3676 224.752 25.4091 224.663 25.4515C224.484 25.5362 224.218 25.6151 223.882 25.6823C223.212 25.8164 222.281 25.9 221.25 25.9H203.75C202.719 25.9 201.788 25.8164 201.118 25.6823C200.782 25.6151 200.516 25.5362 200.337 25.4515C200.248 25.4091 200.185 25.3676 200.146 25.3296C200.107 25.2918 200.1 25.2654 200.1 25.25V1.1Z" fill="url(#paint3_radial_571_845)" stroke="black" stroke-width="0.2"/>
<path d="M225.1 1.1H249.9V25.25C249.9 25.2654 249.893 25.2918 249.854 25.3296C249.815 25.3676 249.752 25.4091 249.663 25.4515C249.484 25.5362 249.218 25.6151 248.882 25.6823C248.212 25.8164 247.281 25.9 246.25 25.9H228.75C227.719 25.9 226.788 25.8164 226.118 25.6823C225.782 25.6151 225.516 25.5362 225.337 25.4515C225.248 25.4091 225.185 25.3676 225.146 25.3296C225.107 25.2918 225.1 25.2654 225.1 25.25V1.1Z" fill="url(#paint4_radial_571_845)" stroke="black" stroke-width="0.2"/>
<path d="M150.1 1.1H174.9V25.25C174.9 25.2654 174.893 25.2918 174.854 25.3296C174.815 25.3676 174.752 25.4091 174.663 25.4515C174.484 25.5362 174.218 25.6151 173.882 25.6823C173.212 25.8164 172.281 25.9 171.25 25.9H153.75C152.719 25.9 151.788 25.8164 151.118 25.6823C150.782 25.6151 150.516 25.5362 150.337 25.4515C150.248 25.4091 150.185 25.3676 150.146 25.3296C150.107 25.2918 150.1 25.2654 150.1 25.25V1.1Z" fill="url(#paint5_radial_571_845)" stroke="black" stroke-width="0.2"/>
<path d="M125.1 1.1H149.9V25.25C149.9 25.2654 149.893 25.2918 149.854 25.3296C149.815 25.3676 149.752 25.4091 149.663 25.4515C149.484 25.5362 149.218 25.6151 148.882 25.6823C148.212 25.8164 147.281 25.9 146.25 25.9H128.75C127.719 25.9 126.788 25.8164 126.118 25.6823C125.782 25.6151 125.516 25.5362 125.337 25.4515C125.248 25.4091 125.185 25.3676 125.146 25.3296C125.107 25.2918 125.1 25.2654 125.1 25.25V1.1Z" fill="url(#paint6_radial_571_845)" stroke="black" stroke-width="0.2"/>
<path d="M100.1 1.1H124.9V25.25C124.9 25.2654 124.893 25.2918 124.854 25.3296C124.815 25.3676 124.752 25.4091 124.663 25.4515C124.484 25.5362 124.218 25.6151 123.882 25.6823C123.212 25.8164 122.281 25.9 121.25 25.9H103.75C102.719 25.9 101.788 25.8164 101.118 25.6823C100.782 25.6151 100.516 25.5362 100.337 25.4515C100.248 25.4091 100.185 25.3676 100.146 25.3296C100.107 25.2918 100.1 25.2654 100.1 25.25V1.1Z" fill="url(#paint7_radial_571_845)" stroke="black" stroke-width="0.2"/>
<path d="M50.1 1.1H74.9V25.25C74.9 25.2654 74.8926 25.2918 74.8539 25.3296C74.815 25.3676 74.7523 25.4091 74.6626 25.4515C74.4835 25.5362 74.2181 25.6151 73.882 25.6823C73.2116 25.8164 72.281 25.9 71.25 25.9H53.75C52.719 25.9 51.7884 25.8164 51.118 25.6823C50.7819 25.6151 50.5165 25.5362 50.3374 25.4515C50.2477 25.4091 50.185 25.3676 50.1461 25.3296C50.1074 25.2918 50.1 25.2654 50.1 25.25V1.1Z" fill="url(#paint8_linear_571_845)" stroke="black" stroke-width="0.2"/>
<path d="M58.7528 24V23.3608L61.1534 20.733C61.4351 20.4252 61.6671 20.1577 61.8494 19.9304C62.0317 19.7008 62.1667 19.4853 62.2543 19.2841C62.3442 19.0805 62.3892 18.8674 62.3892 18.6449C62.3892 18.3892 62.3277 18.1679 62.2045 17.9808C62.0838 17.7938 61.9181 17.6494 61.7074 17.5476C61.4967 17.4458 61.2599 17.3949 60.9972 17.3949C60.7178 17.3949 60.474 17.4529 60.2656 17.5689C60.0597 17.6825 59.8999 17.8423 59.7862 18.0483C59.675 18.2543 59.6193 18.4957 59.6193 18.7727H58.7812C58.7812 18.3466 58.8795 17.9725 59.076 17.6506C59.2725 17.3286 59.54 17.0777 59.8786 16.8977C60.2195 16.7178 60.6018 16.6278 61.0256 16.6278C61.4517 16.6278 61.8293 16.7178 62.1584 16.8977C62.4875 17.0777 62.7455 17.3203 62.9325 17.6257C63.1196 17.9311 63.2131 18.2708 63.2131 18.6449C63.2131 18.9124 63.1645 19.174 63.0675 19.4297C62.9728 19.683 62.8071 19.9659 62.5703 20.2784C62.3359 20.5885 62.0104 20.9673 61.5938 21.4148L59.9602 23.1619V23.2188H63.3409V24H58.7528Z" fill="black"/>
<path d="M60.9716 5.54545V11H60.1335V5.54545H60.9716ZM60.6449 8.14489V8.92614C60.4555 8.99716 60.2673 9.0599 60.0803 9.11435C59.8932 9.16643 59.6967 9.20786 59.4908 9.23864C59.2848 9.26705 59.0587 9.28125 58.8125 9.28125C58.1946 9.28125 57.6986 9.11435 57.3246 8.78054C56.9529 8.44673 56.767 7.94602 56.767 7.27841V5.53125H57.6051V7.27841C57.6051 7.55777 57.6584 7.78741 57.7649 7.96733C57.8714 8.14725 58.0159 8.28101 58.1982 8.36861C58.3804 8.4562 58.5852 8.5 58.8125 8.5C59.1676 8.5 59.4884 8.46804 59.7749 8.40412C60.0637 8.33783 60.3537 8.25142 60.6449 8.14489ZM62.3246 9.50852V8.78409L65.5206 3.72727H66.0462V4.84943H65.6911L63.2763 8.67045V8.72727H67.5803V9.50852H62.3246ZM65.7479 11V9.28835V8.95099V3.72727H66.5859V11H65.7479Z" fill="black"/>
<path d="M73.3536 14.3536C73.5488 14.1583 73.5488 13.8417 73.3536 13.6464L70.1716 10.4645C69.9763 10.2692 69.6597 10.2692 69.4645 10.4645C69.2692 10.6597 69.2692 10.9763 69.4645 11.1716L72.2929 14L69.4645 16.8284C69.2692 17.0237 69.2692 17.3403 69.4645 17.5355C69.6597 17.7308 69.9763 17.7308 70.1716 17.5355L73.3536 14.3536ZM53 14.5H73V13.5H53V14.5Z" fill="black"/>
<path d="M75.1 1.1H99.9V25.25C99.9 25.2654 99.8926 25.2918 99.8539 25.3296C99.815 25.3676 99.7523 25.4091 99.6626 25.4515C99.4835 25.5362 99.2181 25.6151 98.882 25.6823C98.2116 25.8164 97.281 25.9 96.25 25.9H78.75C77.719 25.9 76.7884 25.8164 76.118 25.6823C75.7819 25.6151 75.5165 25.5362 75.3374 25.4515C75.2477 25.4091 75.185 25.3676 75.1461 25.3296C75.1074 25.2918 75.1 25.2654 75.1 25.25V1.1Z" fill="url(#paint9_radial_571_845)" stroke="black" stroke-width="0.2"/>
<path d="M25.1 1.1H49.9V25.25C49.9 25.2654 49.8926 25.2918 49.8539 25.3296C49.815 25.3676 49.7523 25.4091 49.6626 25.4515C49.4835 25.5362 49.2181 25.6151 48.882 25.6823C48.2116 25.8164 47.281 25.9 46.25 25.9H28.75C27.719 25.9 26.7884 25.8164 26.118 25.6823C25.7819 25.6151 25.5165 25.5362 25.3374 25.4515C25.2477 25.4091 25.185 25.3676 25.1461 25.3296C25.1074 25.2918 25.1 25.2654 25.1 25.25V1.1Z" fill="url(#paint10_radial_571_845)" stroke="black" stroke-width="0.2"/>
<path d="M0.1 1.1H24.9V25.25C24.9 25.2654 24.8926 25.2918 24.8539 25.3296C24.815 25.3676 24.7523 25.4091 24.6626 25.4515C24.4835 25.5362 24.2181 25.6151 23.882 25.6823C23.2116 25.8164 22.281 25.9 21.25 25.9H3.75C2.719 25.9 1.78838 25.8164 1.11796 25.6823C0.781929 25.6151 0.516476 25.5362 0.337441 25.4515C0.247669 25.4091 0.184964 25.3676 0.146084 25.3296C0.107371 25.2918 0.1 25.2654 0.1 25.25V1.1Z" fill="url(#paint11_linear_571_845)" stroke="black" stroke-width="0.2"/>
<path d="M0.1 1.1H24.9V25.25C24.9 25.2654 24.8926 25.2918 24.8539 25.3296C24.815 25.3676 24.7523 25.4091 24.6626 25.4515C24.4835 25.5362 24.2181 25.6151 23.882 25.6823C23.2116 25.8164 22.281 25.9 21.25 25.9H3.75C2.719 25.9 1.78838 25.8164 1.11796 25.6823C0.781929 25.6151 0.516476 25.5362 0.337441 25.4515C0.247669 25.4091 0.184964 25.3676 0.146084 25.3296C0.107371 25.2918 0.1 25.2654 0.1 25.25V1.1Z" fill="url(#paint12_linear_571_845)" stroke="black" stroke-width="0.2"/>
<path d="M13.3097 16.7273V24H12.429V17.6506H12.3864L10.6108 18.8295V17.9347L12.429 16.7273H13.3097Z" fill="black"/>
<path d="M6.88068 11V3.72727H11.2699V4.50852H7.76136V6.78125H9.60795C10.1288 6.78125 10.5679 6.86648 10.9254 7.03693C11.2853 7.20739 11.5575 7.44768 11.7422 7.75781C11.9292 8.06795 12.0227 8.43371 12.0227 8.85511C12.0227 9.27652 11.9292 9.6482 11.7422 9.97017C11.5575 10.2921 11.2853 10.5443 10.9254 10.7266C10.5679 10.9089 10.1288 11 9.60795 11H6.88068ZM7.76136 10.233H9.60795C9.93939 10.233 10.2199 10.1667 10.4496 10.0341C10.6816 9.89915 10.8568 9.72633 10.9751 9.51562C11.0959 9.30256 11.1562 9.07765 11.1562 8.84091C11.1562 8.4929 11.0225 8.19342 10.755 7.94247C10.4875 7.68916 10.1051 7.5625 9.60795 7.5625H7.76136V10.233ZM13.3446 11V10.3608L15.7452 7.73295C16.0269 7.42519 16.2589 7.15767 16.4412 6.9304C16.6235 6.70076 16.7585 6.48532 16.8461 6.28409C16.936 6.08049 16.981 5.86742 16.981 5.64489C16.981 5.3892 16.9194 5.16785 16.7963 4.98082C16.6756 4.7938 16.5099 4.64938 16.2992 4.54759C16.0885 4.44579 15.8517 4.39489 15.589 4.39489C15.3096 4.39489 15.0658 4.45289 14.8574 4.56889C14.6515 4.68253 14.4917 4.84233 14.378 5.0483C14.2667 5.25426 14.2111 5.49574 14.2111 5.77273H13.373C13.373 5.34659 13.4713 4.97254 13.6678 4.65057C13.8643 4.3286 14.1318 4.07765 14.4703 3.89773C14.8113 3.7178 15.1936 3.62784 15.6174 3.62784C16.0435 3.62784 16.4211 3.7178 16.7502 3.89773C17.0792 4.07765 17.3373 4.32031 17.5243 4.62571C17.7114 4.93111 17.8049 5.27083 17.8049 5.64489C17.8049 5.91241 17.7563 6.17401 17.6593 6.42969C17.5646 6.683 17.3989 6.96591 17.1621 7.27841C16.9277 7.58854 16.6022 7.96733 16.1855 8.41477L14.552 10.1619V10.2188H17.9327V11H13.3446Z" fill="black"/>
<path d="M23.3536 14.3536C23.5488 14.1583 23.5488 13.8417 23.3536 13.6464L20.1716 10.4645C19.9763 10.2692 19.6597 10.2692 19.4645 10.4645C19.2692 10.6597 19.2692 10.9763 19.4645 11.1716L22.2929 14L19.4645 16.8284C19.2692 17.0237 19.2692 17.3403 19.4645 17.5355C19.6597 17.7308 19.9763 17.7308 20.1716 17.5355L23.3536 14.3536ZM3 14.5H23V13.5H3V14.5Z" fill="black"/>
<path d="M175.1 1.1H199.9V25.25C199.9 25.2654 199.893 25.2918 199.854 25.3296C199.815 25.3676 199.752 25.4091 199.663 25.4515C199.484 25.5362 199.218 25.6151 198.882 25.6823C198.212 25.8164 197.281 25.9 196.25 25.9H178.75C177.719 25.9 176.788 25.8164 176.118 25.6823C175.782 25.6151 175.516 25.5362 175.337 25.4515C175.248 25.4091 175.185 25.3676 175.146 25.3296C175.107 25.2918 175.1 25.2654 175.1 25.25V1.1Z" fill="url(#paint13_linear_571_845)" stroke="black" stroke-width="0.2"/>
<path d="M195.026 24.0994C194.609 24.0994 194.234 24.0166 193.9 23.8509C193.566 23.6851 193.299 23.4579 193.097 23.169C192.896 22.8802 192.786 22.5511 192.767 22.1818H193.619C193.652 22.5109 193.802 22.7831 194.067 22.9986C194.334 23.2116 194.654 23.3182 195.026 23.3182C195.324 23.3182 195.589 23.2483 195.821 23.1087C196.055 22.969 196.239 22.7772 196.371 22.5334C196.506 22.2872 196.574 22.009 196.574 21.6989C196.574 21.3816 196.504 21.0987 196.364 20.8501C196.227 20.5992 196.038 20.4015 195.796 20.2571C195.555 20.1127 195.279 20.0393 194.969 20.0369C194.746 20.0346 194.518 20.0689 194.283 20.1399C194.049 20.2086 193.856 20.2973 193.705 20.4062L192.881 20.3068L193.321 16.7273H197.099V17.5085H194.06L193.804 19.6534H193.847C193.996 19.535 194.183 19.4368 194.408 19.3587C194.633 19.2805 194.867 19.2415 195.111 19.2415C195.556 19.2415 195.952 19.348 196.3 19.5611C196.651 19.7718 196.925 20.0606 197.124 20.4276C197.326 20.7945 197.426 21.2135 197.426 21.6847C197.426 22.1487 197.322 22.563 197.114 22.9276C196.908 23.2898 196.624 23.5762 196.261 23.7869C195.899 23.9953 195.487 24.0994 195.026 24.0994Z" fill="black"/>
<path d="M177 12H184" stroke="black"/>
<path d="M177 15H184" stroke="black"/>
<path d="M191.972 4.54545V10H191.134V4.54545H191.972ZM191.645 7.14489V7.92614C191.455 7.99716 191.267 8.0599 191.08 8.11435C190.893 8.16643 190.697 8.20786 190.491 8.23864C190.285 8.26705 190.059 8.28125 189.812 8.28125C189.195 8.28125 188.699 8.11435 188.325 7.78054C187.953 7.44673 187.767 6.94602 187.767 6.27841V4.53125H188.605V6.27841C188.605 6.55777 188.658 6.78741 188.765 6.96733C188.871 7.14725 189.016 7.28101 189.198 7.36861C189.38 7.4562 189.585 7.5 189.812 7.5C190.168 7.5 190.488 7.46804 190.775 7.40412C191.064 7.33783 191.354 7.25142 191.645 7.14489ZM195.768 10.0994C195.351 10.0994 194.976 10.0166 194.642 9.85085C194.308 9.68513 194.041 9.45786 193.839 9.16903C193.638 8.88021 193.528 8.55114 193.509 8.18182H194.362C194.395 8.51089 194.544 8.78314 194.809 8.99858C195.076 9.21165 195.396 9.31818 195.768 9.31818C196.066 9.31818 196.331 9.24834 196.563 9.10866C196.798 8.96899 196.981 8.77723 197.114 8.53338C197.249 8.28717 197.316 8.009 197.316 7.69886C197.316 7.38163 197.246 7.09872 197.107 6.85014C196.969 6.5992 196.78 6.40152 196.538 6.2571C196.297 6.11269 196.021 6.0393 195.711 6.03693C195.488 6.03456 195.26 6.06889 195.026 6.13991C194.791 6.20857 194.598 6.29735 194.447 6.40625L193.623 6.30682L194.063 2.72727H197.842V3.50852H194.802L194.546 5.65341H194.589C194.738 5.53504 194.925 5.43679 195.15 5.35866C195.375 5.28054 195.609 5.24148 195.853 5.24148C196.298 5.24148 196.695 5.34801 197.043 5.56108C197.393 5.77178 197.668 6.06061 197.866 6.42756C198.068 6.79451 198.168 7.21354 198.168 7.68466C198.168 8.14867 198.064 8.56297 197.856 8.92756C197.65 9.28977 197.366 9.57623 197.004 9.78693C196.641 9.99527 196.229 10.0994 195.768 10.0994Z" fill="black"/>
<defs>
<radialGradient id="paint0_radial_571_845" cx="0" cy="0" r="1" gradientUnits="userSpaceOnUse" gradientTransform="translate(312.5 13.5) rotate(90) scale(12.5)">
<stop offset="0.171875"/>
<stop offset="0.171975" stop-color="white"/>
</radialGradient>
<radialGradient id="paint1_radial_571_845" cx="0" cy="0" r="1" gradientUnits="userSpaceOnUse" gradientTransform="translate(287.5 13.5) rotate(90) scale(12.5)">
<stop offset="0.171875"/>
<stop offset="0.171975" stop-color="white"/>
</radialGradient>
<radialGradient id="paint2_radial_571_845" cx="0" cy="0" r="1" gradientUnits="userSpaceOnUse" gradientTransform="translate(262.5 13.5) rotate(90) scale(12.5)">
<stop offset="0.171875"/>
<stop offset="0.171975" stop-color="white"/>
</radialGradient>
<radialGradient id="paint3_radial_571_845" cx="0" cy="0" r="1" gradientUnits="userSpaceOnUse" gradientTransform="translate(212.5 13.5) rotate(90) scale(12.5)">
<stop offset="0.171875"/>
<stop offset="0.171975" stop-color="white"/>
</radialGradient>
<radialGradient id="paint4_radial_571_845" cx="0" cy="0" r="1" gradientUnits="userSpaceOnUse" gradientTransform="translate(237.5 13.5) rotate(90) scale(12.5)">
<stop offset="0.171875"/>
<stop offset="0.171975" stop-color="white"/>
</radialGradient>
<radialGradient id="paint5_radial_571_845" cx="0" cy="0" r="1" gradientUnits="userSpaceOnUse" gradientTransform="translate(162.5 13.5) rotate(90) scale(12.5)">
<stop offset="0.171875"/>
<stop offset="0.171975" stop-color="white"/>
</radialGradient>
<radialGradient id="paint6_radial_571_845" cx="0" cy="0" r="1" gradientUnits="userSpaceOnUse" gradientTransform="translate(137.5 13.5) rotate(90) scale(12.5)">
<stop offset="0.171875"/>
<stop offset="0.171975" stop-color="white"/>
</radialGradient>
<radialGradient id="paint7_radial_571_845" cx="0" cy="0" r="1" gradientUnits="userSpaceOnUse" gradientTransform="translate(112.5 13.5) rotate(90) scale(12.5)">
<stop offset="0.171875"/>
<stop offset="0.171975" stop-color="white"/>
</radialGradient>
<linearGradient id="paint8_linear_571_845" x1="62.5" y1="1" x2="62.5" y2="26" gradientUnits="userSpaceOnUse">
<stop offset="0.255208" stop-color="#DDB078"/>
<stop offset="0.598958" stop-color="#F4D6B1"/>
</linearGradient>
<radialGradient id="paint9_radial_571_845" cx="0" cy="0" r="1" gradientUnits="userSpaceOnUse" gradientTransform="translate(87.5 13.5) rotate(90) scale(12.5)">
<stop offset="0.171875"/>
<stop offset="0.171975" stop-color="white"/>
</radialGradient>
<radialGradient id="paint10_radial_571_845" cx="0" cy="0" r="1" gradientUnits="userSpaceOnUse" gradientTransform="translate(37.5 13.5) rotate(90) scale(12.5)">
<stop offset="0.171875"/>
<stop offset="0.171975" stop-color="white"/>
</radialGradient>
<linearGradient id="paint11_linear_571_845" x1="12.5" y1="1" x2="12.5" y2="26" gradientUnits="userSpaceOnUse">
<stop offset="0.255208" stop-color="#DDB078"/>
<stop offset="0.598958" stop-color="#F4D6B1"/>
</linearGradient>
<linearGradient id="paint12_linear_571_845" x1="12.5" y1="1" x2="12.5" y2="26" gradientUnits="userSpaceOnUse">
<stop offset="0.255208" stop-color="#DDB078"/>
<stop offset="0.598958" stop-color="#F4D6B1"/>
</linearGradient>
<linearGradient id="paint13_linear_571_845" x1="187.5" y1="1" x2="187.5" y2="26" gradientUnits="userSpaceOnUse">
<stop offset="0.255208" stop-color="#DDB078"/>
<stop offset="0.598958" stop-color="#F4D6B1"/>
</linearGradient>
</defs>
</svg>
