<svg width="536" height="27" viewBox="0 0 536 27" fill="none" xmlns="http://www.w3.org/2000/svg">
<path d="M406.1 1.1H430.9V25.25C430.9 25.2654 430.893 25.2918 430.854 25.3296C430.815 25.3676 430.752 25.4091 430.663 25.4515C430.484 25.5362 430.218 25.6151 429.882 25.6823C429.212 25.8164 428.281 25.9 427.25 25.9H409.75C408.719 25.9 407.788 25.8164 407.118 25.6823C406.782 25.6151 406.516 25.5362 406.337 25.4515C406.248 25.4091 406.185 25.3676 406.146 25.3296C406.107 25.2918 406.1 25.2654 406.1 25.25V1.1Z" fill="white" stroke="black" stroke-width="0.2"/>
<path d="M419.31 10.7273V18H418.429V11.6506H418.386L416.611 12.8295V11.9347L418.429 10.7273H419.31Z" fill="black"/>
<path d="M356.1 1.1H380.9V25.25C380.9 25.2654 380.893 25.2918 380.854 25.3296C380.815 25.3676 380.752 25.4091 380.663 25.4515C380.484 25.5362 380.218 25.6151 379.882 25.6823C379.212 25.8164 378.281 25.9 377.25 25.9H359.75C358.719 25.9 357.788 25.8164 357.118 25.6823C356.782 25.6151 356.516 25.5362 356.337 25.4515C356.248 25.4091 356.185 25.3676 356.146 25.3296C356.107 25.2918 356.1 25.2654 356.1 25.25V1.1Z" fill="url(#paint0_radial_1083_470)" stroke="black" stroke-width="0.2"/>
<path d="M331.1 1.1H355.9V25.25C355.9 25.2654 355.893 25.2918 355.854 25.3296C355.815 25.3676 355.752 25.4091 355.663 25.4515C355.484 25.5362 355.218 25.6151 354.882 25.6823C354.212 25.8164 353.281 25.9 352.25 25.9H334.75C333.719 25.9 332.788 25.8164 332.118 25.6823C331.782 25.6151 331.516 25.5362 331.337 25.4515C331.248 25.4091 331.185 25.3676 331.146 25.3296C331.107 25.2918 331.1 25.2654 331.1 25.25V1.1Z" fill="url(#paint1_radial_1083_470)" stroke="black" stroke-width="0.2"/>
<path d="M381.1 1.1H405.9V25.25C405.9 25.2654 405.893 25.2918 405.854 25.3296C405.815 25.3676 405.752 25.4091 405.663 25.4515C405.484 25.5362 405.218 25.6151 404.882 25.6823C404.212 25.8164 403.281 25.9 402.25 25.9H384.75C383.719 25.9 382.788 25.8164 382.118 25.6823C381.782 25.6151 381.516 25.5362 381.337 25.4515C381.248 25.4091 381.185 25.3676 381.146 25.3296C381.107 25.2918 381.1 25.2654 381.1 25.25V1.1Z" fill="url(#paint2_radial_1083_470)" stroke="black" stroke-width="0.2"/>
<path d="M306.1 1.1H330.9V25.25C330.9 25.2654 330.893 25.2918 330.854 25.3296C330.815 25.3676 330.752 25.4091 330.663 25.4515C330.484 25.5362 330.218 25.6151 329.882 25.6823C329.212 25.8164 328.281 25.9 327.25 25.9H309.75C308.719 25.9 307.788 25.8164 307.118 25.6823C306.782 25.6151 306.516 25.5362 306.337 25.4515C306.248 25.4091 306.185 25.3676 306.146 25.3296C306.107 25.2918 306.1 25.2654 306.1 25.25V1.1Z" fill="url(#paint3_radial_1083_470)" stroke="black" stroke-width="0.2"/>
<path d="M256.1 1.1H280.9V25.25C280.9 25.2654 280.893 25.2918 280.854 25.3296C280.815 25.3676 280.752 25.4091 280.663 25.4515C280.484 25.5362 280.218 25.6151 279.882 25.6823C279.212 25.8164 278.281 25.9 277.25 25.9H259.75C258.719 25.9 257.788 25.8164 257.118 25.6823C256.782 25.6151 256.516 25.5362 256.337 25.4515C256.248 25.4091 256.185 25.3676 256.146 25.3296C256.107 25.2918 256.1 25.2654 256.1 25.25V1.1Z" fill="url(#paint4_radial_1083_470)" stroke="black" stroke-width="0.2"/>
<path d="M156.1 1.1H180.9V25.25C180.9 25.2654 180.893 25.2918 180.854 25.3296C180.815 25.3676 180.752 25.4091 180.663 25.4515C180.484 25.5362 180.218 25.6151 179.882 25.6823C179.212 25.8164 178.281 25.9 177.25 25.9H159.75C158.719 25.9 157.788 25.8164 157.118 25.6823C156.782 25.6151 156.516 25.5362 156.337 25.4515C156.248 25.4091 156.185 25.3676 156.146 25.3296C156.107 25.2918 156.1 25.2654 156.1 25.25V1.1Z" fill="url(#paint5_radial_1083_470)" stroke="black" stroke-width="0.2"/>
<path d="M206.1 1.1H230.9V25.25C230.9 25.2654 230.893 25.2918 230.854 25.3296C230.815 25.3676 230.752 25.4091 230.663 25.4515C230.484 25.5362 230.218 25.6151 229.882 25.6823C229.212 25.8164 228.281 25.9 227.25 25.9H209.75C208.719 25.9 207.788 25.8164 207.118 25.6823C206.782 25.6151 206.516 25.5362 206.337 25.4515C206.248 25.4091 206.185 25.3676 206.146 25.3296C206.107 25.2918 206.1 25.2654 206.1 25.25V1.1Z" fill="url(#paint6_radial_1083_470)" stroke="black" stroke-width="0.2"/>
<path d="M231.1 1.1H255.9V25.25C255.9 25.2654 255.893 25.2918 255.854 25.3296C255.815 25.3676 255.752 25.4091 255.663 25.4515C255.484 25.5362 255.218 25.6151 254.882 25.6823C254.212 25.8164 253.281 25.9 252.25 25.9H234.75C233.719 25.9 232.788 25.8164 232.118 25.6823C231.782 25.6151 231.516 25.5362 231.337 25.4515C231.248 25.4091 231.185 25.3676 231.146 25.3296C231.107 25.2918 231.1 25.2654 231.1 25.25V1.1Z" fill="url(#paint7_linear_1083_470)" stroke="black" stroke-width="0.2"/>
<path d="M240.582 16.5085V15.7841L243.778 10.7273H244.304V11.8494H243.949L241.534 15.6705V15.7273H245.838V16.5085H240.582ZM244.006 18V16.2884V15.951V10.7273H244.844V18H244.006Z" fill="black"/>
<path d="M281.1 1.1H305.9V25.25C305.9 25.2654 305.893 25.2918 305.854 25.3296C305.815 25.3676 305.752 25.4091 305.663 25.4515C305.484 25.5362 305.218 25.6151 304.882 25.6823C304.212 25.8164 303.281 25.9 302.25 25.9H284.75C283.719 25.9 282.788 25.8164 282.118 25.6823C281.782 25.6151 281.516 25.5362 281.337 25.4515C281.248 25.4091 281.185 25.3676 281.146 25.3296C281.107 25.2918 281.1 25.2654 281.1 25.25V1.1Z" fill="url(#paint8_linear_1083_470)" stroke="black" stroke-width="0.2"/>
<path d="M294.026 18.0994C293.609 18.0994 293.234 18.0166 292.9 17.8509C292.566 17.6851 292.299 17.4579 292.097 17.169C291.896 16.8802 291.786 16.5511 291.767 16.1818H292.619C292.652 16.5109 292.802 16.7831 293.067 16.9986C293.334 17.2116 293.654 17.3182 294.026 17.3182C294.324 17.3182 294.589 17.2483 294.821 17.1087C295.055 16.969 295.239 16.7772 295.371 16.5334C295.506 16.2872 295.574 16.009 295.574 15.6989C295.574 15.3816 295.504 15.0987 295.364 14.8501C295.227 14.5992 295.038 14.4015 294.796 14.2571C294.555 14.1127 294.279 14.0393 293.969 14.0369C293.746 14.0346 293.518 14.0689 293.283 14.1399C293.049 14.2086 292.856 14.2973 292.705 14.4062L291.881 14.3068L292.321 10.7273H296.099V11.5085H293.06L292.804 13.6534H292.847C292.996 13.535 293.183 13.4368 293.408 13.3587C293.633 13.2805 293.867 13.2415 294.111 13.2415C294.556 13.2415 294.952 13.348 295.3 13.5611C295.651 13.7718 295.925 14.0606 296.124 14.4276C296.326 14.7945 296.426 15.2135 296.426 15.6847C296.426 16.1487 296.322 16.563 296.114 16.9276C295.908 17.2898 295.624 17.5762 295.261 17.7869C294.899 17.9953 294.487 18.0994 294.026 18.0994Z" fill="black"/>
<path d="M181.1 1.1H205.9V25.25C205.9 25.2654 205.893 25.2918 205.854 25.3296C205.815 25.3676 205.752 25.4091 205.663 25.4515C205.484 25.5362 205.218 25.6151 204.882 25.6823C204.212 25.8164 203.281 25.9 202.25 25.9H184.75C183.719 25.9 182.788 25.8164 182.118 25.6823C181.782 25.6151 181.516 25.5362 181.337 25.4515C181.248 25.4091 181.185 25.3676 181.146 25.3296C181.107 25.2918 181.1 25.2654 181.1 25.25V1.1Z" fill="url(#paint9_radial_1083_470)" stroke="black" stroke-width="0.2"/>
<path d="M131.1 1.1H155.9V25.25C155.9 25.2654 155.893 25.2918 155.854 25.3296C155.815 25.3676 155.752 25.4091 155.663 25.4515C155.484 25.5362 155.218 25.6151 154.882 25.6823C154.212 25.8164 153.281 25.9 152.25 25.9H134.75C133.719 25.9 132.788 25.8164 132.118 25.6823C131.782 25.6151 131.516 25.5362 131.337 25.4515C131.248 25.4091 131.185 25.3676 131.146 25.3296C131.107 25.2918 131.1 25.2654 131.1 25.25V1.1Z" fill="url(#paint10_radial_1083_470)" stroke="black" stroke-width="0.2"/>
<path d="M106.1 1.1H130.9V25.25C130.9 25.2654 130.893 25.2918 130.854 25.3296C130.815 25.3676 130.752 25.4091 130.663 25.4515C130.484 25.5362 130.218 25.6151 129.882 25.6823C129.212 25.8164 128.281 25.9 127.25 25.9H109.75C108.719 25.9 107.788 25.8164 107.118 25.6823C106.782 25.6151 106.516 25.5362 106.337 25.4515C106.248 25.4091 106.185 25.3676 106.146 25.3296C106.107 25.2918 106.1 25.2654 106.1 25.25V1.1Z" fill="url(#paint11_linear_1083_470)" stroke="black" stroke-width="0.2"/>
<path d="M106.1 1.1H130.9V25.25C130.9 25.2654 130.893 25.2918 130.854 25.3296C130.815 25.3676 130.752 25.4091 130.663 25.4515C130.484 25.5362 130.218 25.6151 129.882 25.6823C129.212 25.8164 128.281 25.9 127.25 25.9H109.75C108.719 25.9 107.788 25.8164 107.118 25.6823C106.782 25.6151 106.516 25.5362 106.337 25.4515C106.248 25.4091 106.185 25.3676 106.146 25.3296C106.107 25.2918 106.1 25.2654 106.1 25.25V1.1Z" fill="url(#paint12_linear_1083_470)" stroke="black" stroke-width="0.2"/>
<path d="M119.31 10.7273V18H118.429V11.6506H118.386L116.611 12.8295V11.9347L118.429 10.7273H119.31Z" fill="black"/>
<path d="M444.5 1.5H535.5V24.94C535.348 24.9739 535.133 25.0099 534.852 25.046C534.172 25.1334 533.176 25.2134 531.931 25.2811C529.445 25.4162 526.005 25.5 522.2 25.5H457.8C453.995 25.5 450.555 25.4162 448.069 25.2811C446.824 25.2134 445.828 25.1334 445.148 25.046C444.867 25.0099 444.652 24.9739 444.5 24.94V1.5Z" fill="white" stroke="#D6A86F"/>
<path d="M471.972 11.5455V17H471.134V11.5455H471.972ZM471.645 14.1449V14.9261C471.455 14.9972 471.267 15.0599 471.08 15.1143C470.893 15.1664 470.697 15.2079 470.491 15.2386C470.285 15.267 470.059 15.2812 469.812 15.2812C469.195 15.2812 468.699 15.1143 468.325 14.7805C467.953 14.4467 467.767 13.946 467.767 13.2784V11.5312H468.605V13.2784C468.605 13.5578 468.658 13.7874 468.765 13.9673C468.871 14.1473 469.016 14.281 469.198 14.3686C469.38 14.4562 469.585 14.5 469.812 14.5C470.168 14.5 470.488 14.468 470.775 14.4041C471.064 14.3378 471.354 14.2514 471.645 14.1449ZM473.325 15.5085V14.7841L476.521 9.72727H477.046V10.8494H476.691L474.276 14.6705V14.7273H478.58V15.5085H473.325ZM476.748 17V15.2884V14.951V9.72727H477.586V17H476.748ZM482.056 15.7216V11.0341H482.851V15.7216H482.056ZM480.11 13.7756V12.9801H484.797V13.7756H480.11ZM486.631 17V9.72727H491.02V10.5085H487.511V12.7812H489.358C489.879 12.7812 490.318 12.8665 490.675 13.0369C491.035 13.2074 491.308 13.4477 491.492 13.7578C491.679 14.0679 491.773 14.4337 491.773 14.8551C491.773 15.2765 491.679 15.6482 491.492 15.9702C491.308 16.2921 491.035 16.5443 490.675 16.7266C490.318 16.9089 489.879 17 489.358 17H486.631ZM487.511 16.233H489.358C489.689 16.233 489.97 16.1667 490.2 16.0341C490.432 15.8991 490.607 15.7263 490.725 15.5156C490.846 15.3026 490.906 15.0777 490.906 14.8409C490.906 14.4929 490.772 14.1934 490.505 13.9425C490.237 13.6892 489.855 13.5625 489.358 13.5625H487.511V16.233ZM493.095 17V16.3608L495.495 13.733C495.777 13.4252 496.009 13.1577 496.191 12.9304C496.374 12.7008 496.508 12.4853 496.596 12.2841C496.686 12.0805 496.731 11.8674 496.731 11.6449C496.731 11.3892 496.669 11.1679 496.546 10.9808C496.426 10.7938 496.26 10.6494 496.049 10.5476C495.838 10.4458 495.602 10.3949 495.339 10.3949C495.06 10.3949 494.816 10.4529 494.607 10.5689C494.401 10.6825 494.242 10.8423 494.128 11.0483C494.017 11.2543 493.961 11.4957 493.961 11.7727H493.123C493.123 11.3466 493.221 10.9725 493.418 10.6506C493.614 10.3286 493.882 10.0777 494.22 9.89773C494.561 9.7178 494.944 9.62784 495.367 9.62784C495.794 9.62784 496.171 9.7178 496.5 9.89773C496.829 10.0777 497.087 10.3203 497.274 10.6257C497.461 10.9311 497.555 11.2708 497.555 11.6449C497.555 11.9124 497.506 12.174 497.409 12.4297C497.315 12.683 497.149 12.9659 496.912 13.2784C496.678 13.5885 496.352 13.9673 495.936 14.4148L494.302 16.1619V16.2188H497.683V17H493.095ZM499.504 13.4915V12.7244H503.879V13.4915H499.504ZM499.504 15.5938V14.8267H503.879V15.5938H499.504ZM509.96 11.5455V17H509.122V11.5455H509.96ZM509.633 14.1449V14.9261C509.444 14.9972 509.256 15.0599 509.069 15.1143C508.882 15.1664 508.685 15.2079 508.479 15.2386C508.273 15.267 508.047 15.2812 507.801 15.2812C507.183 15.2812 506.687 15.1143 506.313 14.7805C505.941 14.4467 505.755 13.946 505.755 13.2784V11.5312H506.593V13.2784C506.593 13.5578 506.647 13.7874 506.753 13.9673C506.86 14.1473 507.004 14.281 507.186 14.3686C507.369 14.4562 507.574 14.5 507.801 14.5C508.156 14.5 508.477 14.468 508.763 14.4041C509.052 14.3378 509.342 14.2514 509.633 14.1449ZM513.756 17.0994C513.339 17.0994 512.964 17.0166 512.63 16.8509C512.297 16.6851 512.029 16.4579 511.828 16.169C511.627 15.8802 511.516 15.5511 511.498 15.1818H512.35C512.383 15.5109 512.532 15.7831 512.797 15.9986C513.065 16.2116 513.384 16.3182 513.756 16.3182C514.054 16.3182 514.319 16.2483 514.551 16.1087C514.786 15.969 514.969 15.7772 515.102 15.5334C515.237 15.2872 515.304 15.009 515.304 14.6989C515.304 14.3816 515.234 14.0987 515.095 13.8501C514.958 13.5992 514.768 13.4015 514.527 13.2571C514.285 13.1127 514.009 13.0393 513.699 13.0369C513.477 13.0346 513.248 13.0689 513.014 13.1399C512.779 13.2086 512.587 13.2973 512.435 13.4062L511.611 13.3068L512.051 9.72727H515.83V10.5085H512.79L512.534 12.6534H512.577C512.726 12.535 512.913 12.4368 513.138 12.3587C513.363 12.2805 513.597 12.2415 513.841 12.2415C514.286 12.2415 514.683 12.348 515.031 12.5611C515.381 12.7718 515.656 13.0606 515.855 13.4276C516.056 13.7945 516.157 14.2135 516.157 14.6847C516.157 15.1487 516.052 15.563 515.844 15.9276C515.638 16.2898 515.354 16.5762 514.992 16.7869C514.63 16.9953 514.218 17.0994 513.756 17.0994Z" fill="black"/>
<path d="M1 1H93V25.25C93 25.6642 86.8215 26 79.2 26H14.8C7.17847 26 1 25.6642 1 25.25V1Z" fill="white" stroke="#D6A86F" stroke-miterlimit="16"/>
<path d="M37.6811 19H35.8451L32.4431 13.42L28.9871 19H27.2771L31.5431 12.304L27.5471 6.148H29.3471L32.4971 11.188L35.6651 6.148H37.3751L33.3971 12.268L37.6811 19ZM46.3187 16.768C46.3187 15.292 44.7527 14.698 43.1867 13.78C42.4847 13.366 42.1427 12.916 42.1427 12.412C42.1427 11.638 42.7007 11.224 43.4747 11.224C44.3027 11.224 44.8247 11.548 45.2567 12.52C45.4187 12.88 45.4907 13.186 45.4907 13.42H45.8147V10.936H45.4907V10.99C45.4907 11.116 45.4187 11.188 45.2387 11.188C45.0047 11.188 43.9247 10.756 43.5467 10.756C42.2687 10.756 40.9907 11.656 40.9907 12.988C40.9907 15.202 45.0947 15.706 45.0947 17.452C45.0947 18.226 44.4287 18.676 43.6187 18.676C42.3047 18.676 41.3147 17.452 41.3147 16.156H40.9907V19H41.3147C41.3327 18.838 41.4587 18.748 41.6747 18.748C42.0347 18.748 43.1867 19.162 43.5467 19.162C45.0767 19.162 46.3187 18.262 46.3187 16.768ZM55.392 18.244V17.92C55.266 17.938 55.158 17.938 55.068 17.938C54.51 17.938 54.312 17.704 54.312 17.02V10.936H51.612V11.332C52.818 11.332 52.8 11.368 52.8 12.16V17.056C52.422 17.722 51.81 18.064 50.964 18.064C49.974 18.064 49.632 17.578 49.632 16.228V10.936H46.932V11.332C48.156 11.332 48.12 11.386 48.12 12.268V17.092C48.12 18.334 49.074 19.162 50.316 19.162C51.27 19.162 52.098 18.694 52.8 17.74V19.162L55.392 18.244ZM61.8402 16.768C61.8402 15.292 60.2742 14.698 58.7082 13.78C58.0062 13.366 57.6642 12.916 57.6642 12.412C57.6642 11.638 58.2222 11.224 58.9962 11.224C59.8242 11.224 60.3462 11.548 60.7782 12.52C60.9402 12.88 61.0122 13.186 61.0122 13.42H61.3362V10.936H61.0122V10.99C61.0122 11.116 60.9402 11.188 60.7602 11.188C60.5262 11.188 59.4462 10.756 59.0682 10.756C57.7902 10.756 56.5122 11.656 56.5122 12.988C56.5122 15.202 60.6162 15.706 60.6162 17.452C60.6162 18.226 59.9502 18.676 59.1402 18.676C57.8262 18.676 56.8362 17.452 56.8362 16.156H56.5122V19H56.8362C56.8542 18.838 56.9802 18.748 57.1962 18.748C57.5562 18.748 58.7082 19.162 59.0682 19.162C60.5982 19.162 61.8402 18.262 61.8402 16.768ZM68.2134 12.268V11.404H67.0254V5.86H66.2334L62.4174 11.404V12.268H66.0174V14.356H67.0254V12.268H68.2134ZM66.0174 6.94V11.404H62.9934L66.0174 6.94Z" fill="black"/>
<defs>
<radialGradient id="paint0_radial_1083_470" cx="0" cy="0" r="1" gradientUnits="userSpaceOnUse" gradientTransform="translate(368.5 13.5) rotate(90) scale(12.5)">
<stop offset="0.171875"/>
<stop offset="0.171975" stop-color="white"/>
</radialGradient>
<radialGradient id="paint1_radial_1083_470" cx="0" cy="0" r="1" gradientUnits="userSpaceOnUse" gradientTransform="translate(343.5 13.5) rotate(90) scale(12.5)">
<stop offset="0.171875"/>
<stop offset="0.171975" stop-color="white"/>
</radialGradient>
<radialGradient id="paint2_radial_1083_470" cx="0" cy="0" r="1" gradientUnits="userSpaceOnUse" gradientTransform="translate(393.5 13.5) rotate(90) scale(12.5)">
<stop offset="0.171875"/>
<stop offset="0.171975" stop-color="white"/>
</radialGradient>
<radialGradient id="paint3_radial_1083_470" cx="0" cy="0" r="1" gradientUnits="userSpaceOnUse" gradientTransform="translate(318.5 13.5) rotate(90) scale(12.5)">
<stop offset="0.171875"/>
<stop offset="0.171975" stop-color="white"/>
</radialGradient>
<radialGradient id="paint4_radial_1083_470" cx="0" cy="0" r="1" gradientUnits="userSpaceOnUse" gradientTransform="translate(268.5 13.5) rotate(90) scale(12.5)">
<stop offset="0.171875"/>
<stop offset="0.171975" stop-color="white"/>
</radialGradient>
<radialGradient id="paint5_radial_1083_470" cx="0" cy="0" r="1" gradientUnits="userSpaceOnUse" gradientTransform="translate(168.5 13.5) rotate(90) scale(12.5)">
<stop offset="0.171875"/>
<stop offset="0.171975" stop-color="white"/>
</radialGradient>
<radialGradient id="paint6_radial_1083_470" cx="0" cy="0" r="1" gradientUnits="userSpaceOnUse" gradientTransform="translate(218.5 13.5) rotate(90) scale(12.5)">
<stop offset="0.171875"/>
<stop offset="0.171975" stop-color="white"/>
</radialGradient>
<linearGradient id="paint7_linear_1083_470" x1="243.5" y1="1" x2="243.5" y2="26" gradientUnits="userSpaceOnUse">
<stop offset="0.255208" stop-color="#DDB078"/>
<stop offset="0.598958" stop-color="#F4D6B1"/>
</linearGradient>
<linearGradient id="paint8_linear_1083_470" x1="293.5" y1="1" x2="293.5" y2="26" gradientUnits="userSpaceOnUse">
<stop offset="0.255208" stop-color="#DDB078"/>
<stop offset="0.598958" stop-color="#F4D6B1"/>
</linearGradient>
<radialGradient id="paint9_radial_1083_470" cx="0" cy="0" r="1" gradientUnits="userSpaceOnUse" gradientTransform="translate(193.5 13.5) rotate(90) scale(12.5)">
<stop offset="0.171875"/>
<stop offset="0.171975" stop-color="white"/>
</radialGradient>
<radialGradient id="paint10_radial_1083_470" cx="0" cy="0" r="1" gradientUnits="userSpaceOnUse" gradientTransform="translate(143.5 13.5) rotate(90) scale(12.5)">
<stop offset="0.171875"/>
<stop offset="0.171975" stop-color="white"/>
</radialGradient>
<linearGradient id="paint11_linear_1083_470" x1="118.5" y1="1" x2="118.5" y2="26" gradientUnits="userSpaceOnUse">
<stop offset="0.255208" stop-color="#DDB078"/>
<stop offset="0.598958" stop-color="#F4D6B1"/>
</linearGradient>
<linearGradient id="paint12_linear_1083_470" x1="118.5" y1="1" x2="118.5" y2="26" gradientUnits="userSpaceOnUse">
<stop offset="0.255208" stop-color="#DDB078"/>
<stop offset="0.598958" stop-color="#F4D6B1"/>
</linearGradient>
</defs>
</svg>
