<svg width="325" height="25" viewBox="0 0 325 25" fill="none" xmlns="http://www.w3.org/2000/svg">
<path d="M300.1 0.1H324.9V24.25C324.9 24.2654 324.893 24.2918 324.854 24.3296C324.815 24.3676 324.752 24.4091 324.663 24.4515C324.484 24.5362 324.218 24.6151 323.882 24.6823C323.212 24.8164 322.281 24.9 321.25 24.9H303.75C302.719 24.9 301.788 24.8164 301.118 24.6823C300.782 24.6151 300.516 24.5362 300.337 24.4515C300.248 24.4091 300.185 24.3676 300.146 24.3296C300.107 24.2918 300.1 24.2654 300.1 24.25V0.1Z" fill="url(#paint0_radial_403_253)" stroke="black" stroke-width="0.2"/>
<path d="M175.1 0.1H199.9V24.25C199.9 24.2654 199.893 24.2918 199.854 24.3296C199.815 24.3676 199.752 24.4091 199.663 24.4515C199.484 24.5362 199.218 24.6151 198.882 24.6823C198.212 24.8164 197.281 24.9 196.25 24.9H178.75C177.719 24.9 176.788 24.8164 176.118 24.6823C175.782 24.6151 175.516 24.5362 175.337 24.4515C175.248 24.4091 175.185 24.3676 175.146 24.3296C175.107 24.2918 175.1 24.2654 175.1 24.25V0.1Z" fill="url(#paint1_radial_403_253)" stroke="black" stroke-width="0.2"/>
<path d="M275.1 0.1H299.9V24.25C299.9 24.2654 299.893 24.2918 299.854 24.3296C299.815 24.3676 299.752 24.4091 299.663 24.4515C299.484 24.5362 299.218 24.6151 298.882 24.6823C298.212 24.8164 297.281 24.9 296.25 24.9H278.75C277.719 24.9 276.788 24.8164 276.118 24.6823C275.782 24.6151 275.516 24.5362 275.337 24.4515C275.248 24.4091 275.185 24.3676 275.146 24.3296C275.107 24.2918 275.1 24.2654 275.1 24.25V0.1Z" fill="url(#paint2_radial_403_253)" stroke="black" stroke-width="0.2"/>
<path d="M250.1 0.1H274.9V24.25C274.9 24.2654 274.893 24.2918 274.854 24.3296C274.815 24.3676 274.752 24.4091 274.663 24.4515C274.484 24.5362 274.218 24.6151 273.882 24.6823C273.212 24.8164 272.281 24.9 271.25 24.9H253.75C252.719 24.9 251.788 24.8164 251.118 24.6823C250.782 24.6151 250.516 24.5362 250.337 24.4515C250.248 24.4091 250.185 24.3676 250.146 24.3296C250.107 24.2918 250.1 24.2654 250.1 24.25V0.1Z" fill="url(#paint3_radial_403_253)" stroke="black" stroke-width="0.2"/>
<path d="M225.1 0.1H249.9V24.25C249.9 24.2654 249.893 24.2918 249.854 24.3296C249.815 24.3676 249.752 24.4091 249.663 24.4515C249.484 24.5362 249.218 24.6151 248.882 24.6823C248.212 24.8164 247.281 24.9 246.25 24.9H228.75C227.719 24.9 226.788 24.8164 226.118 24.6823C225.782 24.6151 225.516 24.5362 225.337 24.4515C225.248 24.4091 225.185 24.3676 225.146 24.3296C225.107 24.2918 225.1 24.2654 225.1 24.25V0.1Z" fill="url(#paint4_radial_403_253)" stroke="black" stroke-width="0.2"/>
<path d="M0.1 0.1H24.9V24.25C24.9 24.2654 24.8926 24.2918 24.8539 24.3296C24.815 24.3676 24.7523 24.4091 24.6626 24.4515C24.4835 24.5362 24.2181 24.6151 23.882 24.6823C23.2116 24.8164 22.281 24.9 21.25 24.9H3.75C2.719 24.9 1.78838 24.8164 1.11796 24.6823C0.781929 24.6151 0.516476 24.5362 0.337441 24.4515C0.24767 24.4091 0.184964 24.3676 0.146084 24.3296C0.107371 24.2918 0.1 24.2654 0.1 24.25V0.1Z" fill="#D200B1" stroke="black" stroke-width="0.2"/>
<path d="M200.1 0.1H224.9V24.25C224.9 24.2654 224.893 24.2918 224.854 24.3296C224.815 24.3676 224.752 24.4091 224.663 24.4515C224.484 24.5362 224.218 24.6151 223.882 24.6823C223.212 24.8164 222.281 24.9 221.25 24.9H203.75C202.719 24.9 201.788 24.8164 201.118 24.6823C200.782 24.6151 200.516 24.5362 200.337 24.4515C200.248 24.4091 200.185 24.3676 200.146 24.3296C200.107 24.2918 200.1 24.2654 200.1 24.25V0.1Z" fill="url(#paint5_radial_403_253)" stroke="black" stroke-width="0.2"/>
<path d="M50.1 0.1H74.9V24.25C74.9 24.2654 74.8926 24.2918 74.8539 24.3296C74.815 24.3676 74.7523 24.4091 74.6626 24.4515C74.4835 24.5362 74.2181 24.6151 73.882 24.6823C73.2116 24.8164 72.281 24.9 71.25 24.9H53.75C52.719 24.9 51.7884 24.8164 51.118 24.6823C50.7819 24.6151 50.5165 24.5362 50.3374 24.4515C50.2477 24.4091 50.185 24.3676 50.1461 24.3296C50.1074 24.2918 50.1 24.2654 50.1 24.25V0.1Z" fill="url(#paint6_radial_403_253)" stroke="black" stroke-width="0.2"/>
<path d="M75.1 0.1H99.9V24.25C99.9 24.2654 99.8926 24.2918 99.8539 24.3296C99.815 24.3676 99.7523 24.4091 99.6626 24.4515C99.4835 24.5362 99.2181 24.6151 98.882 24.6823C98.2116 24.8164 97.281 24.9 96.25 24.9H78.75C77.719 24.9 76.7884 24.8164 76.118 24.6823C75.7819 24.6151 75.5165 24.5362 75.3374 24.4515C75.2477 24.4091 75.185 24.3676 75.1461 24.3296C75.1074 24.2918 75.1 24.2654 75.1 24.25V0.1Z" fill="url(#paint7_radial_403_253)" stroke="black" stroke-width="0.2"/>
<path d="M150.1 0.1H174.9V24.25C174.9 24.2654 174.893 24.2918 174.854 24.3296C174.815 24.3676 174.752 24.4091 174.663 24.4515C174.484 24.5362 174.218 24.6151 173.882 24.6823C173.212 24.8164 172.281 24.9 171.25 24.9H153.75C152.719 24.9 151.788 24.8164 151.118 24.6823C150.782 24.6151 150.516 24.5362 150.337 24.4515C150.248 24.4091 150.185 24.3676 150.146 24.3296C150.107 24.2918 150.1 24.2654 150.1 24.25V0.1Z" fill="url(#paint8_radial_403_253)" stroke="black" stroke-width="0.2"/>
<path d="M25.1 0.1H49.9V24.25C49.9 24.2654 49.8926 24.2918 49.8539 24.3296C49.815 24.3676 49.7523 24.4091 49.6626 24.4515C49.4835 24.5362 49.2181 24.6151 48.882 24.6823C48.2116 24.8164 47.281 24.9 46.25 24.9H28.75C27.719 24.9 26.7884 24.8164 26.118 24.6823C25.7819 24.6151 25.5165 24.5362 25.3374 24.4515C25.2477 24.4091 25.185 24.3676 25.1461 24.3296C25.1074 24.2918 25.1 24.2654 25.1 24.25V0.1Z" fill="#D200B1" stroke="black" stroke-width="0.2"/>
<path d="M125.1 0.1H149.9V24.25C149.9 24.2654 149.893 24.2918 149.854 24.3296C149.815 24.3676 149.752 24.4091 149.663 24.4515C149.484 24.5362 149.218 24.6151 148.882 24.6823C148.212 24.8164 147.281 24.9 146.25 24.9H128.75C127.719 24.9 126.788 24.8164 126.118 24.6823C125.782 24.6151 125.516 24.5362 125.337 24.4515C125.248 24.4091 125.185 24.3676 125.146 24.3296C125.107 24.2918 125.1 24.2654 125.1 24.25V0.1Z" fill="#D200B1" stroke="black" stroke-width="0.2"/>
<path d="M100.1 0.1H124.9V24.25C124.9 24.2654 124.893 24.2918 124.854 24.3296C124.815 24.3676 124.752 24.4091 124.663 24.4515C124.484 24.5362 124.218 24.6151 123.882 24.6823C123.212 24.8164 122.281 24.9 121.25 24.9H103.75C102.719 24.9 101.788 24.8164 101.118 24.6823C100.782 24.6151 100.516 24.5362 100.337 24.4515C100.248 24.4091 100.185 24.3676 100.146 24.3296C100.107 24.2918 100.1 24.2654 100.1 24.25V0.1Z" fill="#D200B1" stroke="black" stroke-width="0.2"/>
<path d="M13.9716 8.27273V17H12.9148V9.38068H12.8636L10.733 10.7955V9.72159L12.9148 8.27273H13.9716Z" fill="white"/>
<path d="M31.0568 17V8.27273H32.0625V11.4943H32.1477C32.2216 11.3807 32.3239 11.2358 32.4545 11.0597C32.5881 10.8807 32.7784 10.7216 33.0256 10.5824C33.2756 10.4403 33.6136 10.3693 34.0398 10.3693C34.5909 10.3693 35.0767 10.5071 35.4972 10.7827C35.9176 11.0582 36.2457 11.4489 36.4815 11.9545C36.7173 12.4602 36.8352 13.0568 36.8352 13.7443C36.8352 14.4375 36.7173 15.0384 36.4815 15.5469C36.2457 16.0526 35.919 16.4446 35.5014 16.723C35.0838 16.9986 34.6023 17.1364 34.0568 17.1364C33.6364 17.1364 33.2997 17.0668 33.0469 16.9276C32.794 16.7855 32.5994 16.625 32.4631 16.446C32.3267 16.2642 32.2216 16.1136 32.1477 15.9943H32.0284V17H31.0568ZM32.0455 13.7273C32.0455 14.2216 32.1179 14.6577 32.2628 15.0355C32.4077 15.4105 32.6193 15.7045 32.8977 15.9176C33.1761 16.1278 33.517 16.233 33.9205 16.233C34.3409 16.233 34.6918 16.1222 34.973 15.9006C35.2571 15.6761 35.4702 15.375 35.6122 14.9972C35.7571 14.6165 35.8295 14.1932 35.8295 13.7273C35.8295 13.267 35.7585 12.8523 35.6165 12.483C35.4773 12.1108 35.2656 11.8168 34.9815 11.6009C34.7003 11.3821 34.3466 11.2727 33.9205 11.2727C33.5114 11.2727 33.1676 11.3764 32.8892 11.5838C32.6108 11.7884 32.4006 12.0753 32.2585 12.4446C32.1165 12.8111 32.0455 13.2386 32.0455 13.7273ZM38.3565 17V16.233L41.2372 13.0795C41.5753 12.7102 41.8537 12.3892 42.0724 12.1165C42.2912 11.8409 42.4531 11.5824 42.5582 11.3409C42.6662 11.0966 42.7202 10.8409 42.7202 10.5739C42.7202 10.267 42.6463 10.0014 42.4986 9.77699C42.3537 9.55256 42.1548 9.37926 41.902 9.2571C41.6491 9.13494 41.3651 9.07386 41.0497 9.07386C40.7145 9.07386 40.4219 9.14347 40.1719 9.28267C39.9247 9.41903 39.733 9.6108 39.5966 9.85795C39.4631 10.1051 39.3963 10.3949 39.3963 10.7273H38.3906C38.3906 10.2159 38.5085 9.76705 38.7443 9.38068C38.9801 8.99432 39.3011 8.69318 39.7074 8.47727C40.1165 8.26136 40.5753 8.15341 41.0838 8.15341C41.5952 8.15341 42.0483 8.26136 42.4432 8.47727C42.8381 8.69318 43.1477 8.98437 43.3722 9.35085C43.5966 9.71733 43.7088 10.125 43.7088 10.5739C43.7088 10.8949 43.6506 11.2088 43.5341 11.5156C43.4205 11.8196 43.2216 12.1591 42.9375 12.5341C42.6562 12.9062 42.2656 13.3608 41.7656 13.8977L39.8054 15.9943V16.0625H43.8622V17H38.3565Z" fill="white"/>
<path d="M112.852 17.1193C112.29 17.1193 111.788 17.0227 111.348 16.8295C110.911 16.6364 110.563 16.3679 110.304 16.0241C110.048 15.6776 109.909 15.2756 109.886 14.8182H110.96C110.983 15.0994 111.08 15.3423 111.25 15.5469C111.42 15.7486 111.643 15.9048 111.919 16.0156C112.195 16.1264 112.5 16.1818 112.835 16.1818C113.21 16.1818 113.543 16.1165 113.832 15.9858C114.122 15.8551 114.349 15.6733 114.514 15.4403C114.679 15.2074 114.761 14.9375 114.761 14.6307C114.761 14.3097 114.682 14.027 114.523 13.7827C114.364 13.5355 114.131 13.3423 113.824 13.2031C113.517 13.0639 113.142 12.9943 112.699 12.9943H112V12.0568H112.699C113.045 12.0568 113.349 11.9943 113.611 11.8693C113.875 11.7443 114.081 11.5682 114.229 11.3409C114.379 11.1136 114.455 10.8466 114.455 10.5398C114.455 10.2443 114.389 9.98722 114.259 9.76847C114.128 9.54972 113.943 9.37926 113.705 9.2571C113.469 9.13494 113.19 9.07386 112.869 9.07386C112.568 9.07386 112.284 9.12926 112.017 9.24006C111.753 9.34801 111.537 9.50568 111.369 9.71307C111.202 9.91761 111.111 10.1648 111.097 10.4545H110.074C110.091 9.99716 110.229 9.59659 110.487 9.25284C110.746 8.90625 111.084 8.63636 111.501 8.44318C111.922 8.25 112.384 8.15341 112.886 8.15341C113.426 8.15341 113.889 8.26278 114.276 8.48153C114.662 8.69744 114.959 8.98295 115.166 9.33807C115.374 9.69318 115.477 10.0767 115.477 10.4886C115.477 10.9801 115.348 11.3991 115.089 11.7457C114.834 12.0923 114.486 12.3324 114.045 12.4659V12.5341C114.597 12.625 115.027 12.8594 115.337 13.2372C115.646 13.6122 115.801 14.0767 115.801 14.6307C115.801 15.1051 115.672 15.5312 115.413 15.9091C115.158 16.2841 114.808 16.5795 114.365 16.7955C113.922 17.0114 113.418 17.1193 112.852 17.1193Z" fill="white"/>
<path d="M134.699 15.2102V14.3409L138.534 8.27273H139.165V9.61932H138.739L135.841 14.2045V14.2727H141.006V15.2102H134.699ZM138.807 17V14.946V14.5412V8.27273H139.812V17H138.807Z" fill="white"/>
<defs>
<radialGradient id="paint0_radial_403_253" cx="0" cy="0" r="1" gradientUnits="userSpaceOnUse" gradientTransform="translate(312.5 12.5) rotate(90) scale(12.5)">
<stop offset="0.171875"/>
<stop offset="0.171975" stop-color="white"/>
</radialGradient>
<radialGradient id="paint1_radial_403_253" cx="0" cy="0" r="1" gradientUnits="userSpaceOnUse" gradientTransform="translate(187.5 12.5) rotate(90) scale(12.5)">
<stop offset="0.171875"/>
<stop offset="0.171975" stop-color="white"/>
</radialGradient>
<radialGradient id="paint2_radial_403_253" cx="0" cy="0" r="1" gradientUnits="userSpaceOnUse" gradientTransform="translate(287.5 12.5) rotate(90) scale(12.5)">
<stop offset="0.171875"/>
<stop offset="0.171975" stop-color="white"/>
</radialGradient>
<radialGradient id="paint3_radial_403_253" cx="0" cy="0" r="1" gradientUnits="userSpaceOnUse" gradientTransform="translate(262.5 12.5) rotate(90) scale(12.5)">
<stop offset="0.171875"/>
<stop offset="0.171975" stop-color="white"/>
</radialGradient>
<radialGradient id="paint4_radial_403_253" cx="0" cy="0" r="1" gradientUnits="userSpaceOnUse" gradientTransform="translate(237.5 12.5) rotate(90) scale(12.5)">
<stop offset="0.171875"/>
<stop offset="0.171975" stop-color="white"/>
</radialGradient>
<radialGradient id="paint5_radial_403_253" cx="0" cy="0" r="1" gradientUnits="userSpaceOnUse" gradientTransform="translate(212.5 12.5) rotate(90) scale(12.5)">
<stop offset="0.171875"/>
<stop offset="0.171975" stop-color="white"/>
</radialGradient>
<radialGradient id="paint6_radial_403_253" cx="0" cy="0" r="1" gradientUnits="userSpaceOnUse" gradientTransform="translate(62.5 12.5) rotate(90) scale(12.5)">
<stop offset="0.171875"/>
<stop offset="0.171975" stop-color="white"/>
</radialGradient>
<radialGradient id="paint7_radial_403_253" cx="0" cy="0" r="1" gradientUnits="userSpaceOnUse" gradientTransform="translate(87.5 12.5) rotate(90) scale(12.5)">
<stop offset="0.171875"/>
<stop offset="0.171975" stop-color="white"/>
</radialGradient>
<radialGradient id="paint8_radial_403_253" cx="0" cy="0" r="1" gradientUnits="userSpaceOnUse" gradientTransform="translate(162.5 12.5) rotate(90) scale(12.5)">
<stop offset="0.171875"/>
<stop offset="0.171975" stop-color="white"/>
</radialGradient>
</defs>
</svg>
