<svg width="325" height="25" viewBox="0 0 325 25" fill="none" xmlns="http://www.w3.org/2000/svg">
<path d="M300.1 0.1H324.9V24.25C324.9 24.2654 324.893 24.2918 324.854 24.3296C324.815 24.3676 324.752 24.4091 324.663 24.4515C324.484 24.5362 324.218 24.6151 323.882 24.6823C323.212 24.8164 322.281 24.9 321.25 24.9H303.75C302.719 24.9 301.788 24.8164 301.118 24.6823C300.782 24.6151 300.516 24.5362 300.337 24.4515C300.248 24.4091 300.185 24.3676 300.146 24.3296C300.107 24.2918 300.1 24.2654 300.1 24.25V0.1Z" fill="url(#paint0_radial_403_225)" stroke="black" stroke-width="0.2"/>
<path d="M175.1 0.1H199.9V24.25C199.9 24.2654 199.893 24.2918 199.854 24.3296C199.815 24.3676 199.752 24.4091 199.663 24.4515C199.484 24.5362 199.218 24.6151 198.882 24.6823C198.212 24.8164 197.281 24.9 196.25 24.9H178.75C177.719 24.9 176.788 24.8164 176.118 24.6823C175.782 24.6151 175.516 24.5362 175.337 24.4515C175.248 24.4091 175.185 24.3676 175.146 24.3296C175.107 24.2918 175.1 24.2654 175.1 24.25V0.1Z" fill="url(#paint1_radial_403_225)" stroke="black" stroke-width="0.2"/>
<path d="M275.1 0.1H299.9V24.25C299.9 24.2654 299.893 24.2918 299.854 24.3296C299.815 24.3676 299.752 24.4091 299.663 24.4515C299.484 24.5362 299.218 24.6151 298.882 24.6823C298.212 24.8164 297.281 24.9 296.25 24.9H278.75C277.719 24.9 276.788 24.8164 276.118 24.6823C275.782 24.6151 275.516 24.5362 275.337 24.4515C275.248 24.4091 275.185 24.3676 275.146 24.3296C275.107 24.2918 275.1 24.2654 275.1 24.25V0.1Z" fill="url(#paint2_radial_403_225)" stroke="black" stroke-width="0.2"/>
<path d="M250.1 0.1H274.9V24.25C274.9 24.2654 274.893 24.2918 274.854 24.3296C274.815 24.3676 274.752 24.4091 274.663 24.4515C274.484 24.5362 274.218 24.6151 273.882 24.6823C273.212 24.8164 272.281 24.9 271.25 24.9H253.75C252.719 24.9 251.788 24.8164 251.118 24.6823C250.782 24.6151 250.516 24.5362 250.337 24.4515C250.248 24.4091 250.185 24.3676 250.146 24.3296C250.107 24.2918 250.1 24.2654 250.1 24.25V0.1Z" fill="url(#paint3_radial_403_225)" stroke="black" stroke-width="0.2"/>
<path d="M225.1 0.1H249.9V24.25C249.9 24.2654 249.893 24.2918 249.854 24.3296C249.815 24.3676 249.752 24.4091 249.663 24.4515C249.484 24.5362 249.218 24.6151 248.882 24.6823C248.212 24.8164 247.281 24.9 246.25 24.9H228.75C227.719 24.9 226.788 24.8164 226.118 24.6823C225.782 24.6151 225.516 24.5362 225.337 24.4515C225.248 24.4091 225.185 24.3676 225.146 24.3296C225.107 24.2918 225.1 24.2654 225.1 24.25V0.1Z" fill="url(#paint4_radial_403_225)" stroke="black" stroke-width="0.2"/>
<path d="M0.1 0.1H24.9V24.25C24.9 24.2654 24.8926 24.2918 24.8539 24.3296C24.815 24.3676 24.7523 24.4091 24.6626 24.4515C24.4835 24.5362 24.2181 24.6151 23.882 24.6823C23.2116 24.8164 22.281 24.9 21.25 24.9H3.75C2.719 24.9 1.78838 24.8164 1.11796 24.6823C0.781929 24.6151 0.516476 24.5362 0.337441 24.4515C0.24767 24.4091 0.184964 24.3676 0.146084 24.3296C0.107371 24.2918 0.1 24.2654 0.1 24.25V0.1Z" fill="#2998FF" stroke="black" stroke-width="0.2"/>
<path d="M200.1 0.1H224.9V24.25C224.9 24.2654 224.893 24.2918 224.854 24.3296C224.815 24.3676 224.752 24.4091 224.663 24.4515C224.484 24.5362 224.218 24.6151 223.882 24.6823C223.212 24.8164 222.281 24.9 221.25 24.9H203.75C202.719 24.9 201.788 24.8164 201.118 24.6823C200.782 24.6151 200.516 24.5362 200.337 24.4515C200.248 24.4091 200.185 24.3676 200.146 24.3296C200.107 24.2918 200.1 24.2654 200.1 24.25V0.1Z" fill="url(#paint5_radial_403_225)" stroke="black" stroke-width="0.2"/>
<path d="M25.1 0.1H49.9V24.25C49.9 24.2654 49.8926 24.2918 49.8539 24.3296C49.815 24.3676 49.7523 24.4091 49.6626 24.4515C49.4835 24.5362 49.2181 24.6151 48.882 24.6823C48.2116 24.8164 47.281 24.9 46.25 24.9H28.75C27.719 24.9 26.7884 24.8164 26.118 24.6823C25.7819 24.6151 25.5165 24.5362 25.3374 24.4515C25.2477 24.4091 25.185 24.3676 25.1461 24.3296C25.1074 24.2918 25.1 24.2654 25.1 24.25V0.1Z" fill="url(#paint6_radial_403_225)" stroke="black" stroke-width="0.2"/>
<path d="M100.1 0.1H124.9V24.25C124.9 24.2654 124.893 24.2918 124.854 24.3296C124.815 24.3676 124.752 24.4091 124.663 24.4515C124.484 24.5362 124.218 24.6151 123.882 24.6823C123.212 24.8164 122.281 24.9 121.25 24.9H103.75C102.719 24.9 101.788 24.8164 101.118 24.6823C100.782 24.6151 100.516 24.5362 100.337 24.4515C100.248 24.4091 100.185 24.3676 100.146 24.3296C100.107 24.2918 100.1 24.2654 100.1 24.25V0.1Z" fill="url(#paint7_radial_403_225)" stroke="black" stroke-width="0.2"/>
<path d="M150.1 0.1H174.9V24.25C174.9 24.2654 174.893 24.2918 174.854 24.3296C174.815 24.3676 174.752 24.4091 174.663 24.4515C174.484 24.5362 174.218 24.6151 173.882 24.6823C173.212 24.8164 172.281 24.9 171.25 24.9H153.75C152.719 24.9 151.788 24.8164 151.118 24.6823C150.782 24.6151 150.516 24.5362 150.337 24.4515C150.248 24.4091 150.185 24.3676 150.146 24.3296C150.107 24.2918 150.1 24.2654 150.1 24.25V0.1Z" fill="url(#paint8_radial_403_225)" stroke="black" stroke-width="0.2"/>
<path d="M50.1 0.1H74.9V24.25C74.9 24.2654 74.8926 24.2918 74.8539 24.3296C74.815 24.3676 74.7523 24.4091 74.6626 24.4515C74.4835 24.5362 74.2181 24.6151 73.882 24.6823C73.2116 24.8164 72.281 24.9 71.25 24.9H53.75C52.719 24.9 51.7884 24.8164 51.118 24.6823C50.7819 24.6151 50.5165 24.5362 50.3374 24.4515C50.2477 24.4091 50.185 24.3676 50.1461 24.3296C50.1074 24.2918 50.1 24.2654 50.1 24.25V0.1Z" fill="#2998FF" stroke="black" stroke-width="0.2"/>
<path d="M125.1 0.1H149.9V24.25C149.9 24.2654 149.893 24.2918 149.854 24.3296C149.815 24.3676 149.752 24.4091 149.663 24.4515C149.484 24.5362 149.218 24.6151 148.882 24.6823C148.212 24.8164 147.281 24.9 146.25 24.9H128.75C127.719 24.9 126.788 24.8164 126.118 24.6823C125.782 24.6151 125.516 24.5362 125.337 24.4515C125.248 24.4091 125.185 24.3676 125.146 24.3296C125.107 24.2918 125.1 24.2654 125.1 24.25V0.1Z" fill="#2998FF" stroke="black" stroke-width="0.2"/>
<path d="M75.1 0.1H99.9V24.25C99.9 24.2654 99.8926 24.2918 99.8539 24.3296C99.815 24.3676 99.7523 24.4091 99.6626 24.4515C99.4835 24.5362 99.2181 24.6151 98.882 24.6823C98.2116 24.8164 97.281 24.9 96.25 24.9H78.75C77.719 24.9 76.7884 24.8164 76.118 24.6823C75.7819 24.6151 75.5165 24.5362 75.3374 24.4515C75.2477 24.4091 75.185 24.3676 75.1461 24.3296C75.1074 24.2918 75.1 24.2654 75.1 24.25V0.1Z" fill="#2998FF" stroke="black" stroke-width="0.2"/>
<path d="M13.9716 8.27273V17H12.9148V9.38068H12.8636L10.733 10.7955V9.72159L12.9148 8.27273H13.9716Z" fill="white"/>
<path d="M59.9034 17V16.233L62.7841 13.0795C63.1222 12.7102 63.4006 12.3892 63.6193 12.1165C63.8381 11.8409 64 11.5824 64.1051 11.3409C64.2131 11.0966 64.267 10.8409 64.267 10.5739C64.267 10.267 64.1932 10.0014 64.0455 9.77699C63.9006 9.55256 63.7017 9.37926 63.4489 9.2571C63.196 9.13494 62.9119 9.07386 62.5966 9.07386C62.2614 9.07386 61.9688 9.14347 61.7188 9.28267C61.4716 9.41903 61.2798 9.6108 61.1435 9.85795C61.0099 10.1051 60.9432 10.3949 60.9432 10.7273H59.9375C59.9375 10.2159 60.0554 9.76705 60.2912 9.38068C60.527 8.99432 60.848 8.69318 61.2543 8.47727C61.6634 8.26136 62.1222 8.15341 62.6307 8.15341C63.142 8.15341 63.5952 8.26136 63.9901 8.47727C64.3849 8.69318 64.6946 8.98437 64.919 9.35085C65.1435 9.71733 65.2557 10.125 65.2557 10.5739C65.2557 10.8949 65.1974 11.2088 65.081 11.5156C64.9673 11.8196 64.7685 12.1591 64.4844 12.5341C64.2031 12.9062 63.8125 13.3608 63.3125 13.8977L61.3523 15.9943V16.0625H65.4091V17H59.9034Z" fill="white"/>
<path d="M81.0568 17V8.27273H82.0625V11.4943H82.1477C82.2216 11.3807 82.3239 11.2358 82.4545 11.0597C82.5881 10.8807 82.7784 10.7216 83.0256 10.5824C83.2756 10.4403 83.6136 10.3693 84.0398 10.3693C84.5909 10.3693 85.0767 10.5071 85.4972 10.7827C85.9176 11.0582 86.2457 11.4489 86.4815 11.9545C86.7173 12.4602 86.8352 13.0568 86.8352 13.7443C86.8352 14.4375 86.7173 15.0384 86.4815 15.5469C86.2457 16.0526 85.919 16.4446 85.5014 16.723C85.0838 16.9986 84.6023 17.1364 84.0568 17.1364C83.6364 17.1364 83.2997 17.0668 83.0469 16.9276C82.794 16.7855 82.5994 16.625 82.4631 16.446C82.3267 16.2642 82.2216 16.1136 82.1477 15.9943H82.0284V17H81.0568ZM82.0455 13.7273C82.0455 14.2216 82.1179 14.6577 82.2628 15.0355C82.4077 15.4105 82.6193 15.7045 82.8977 15.9176C83.1761 16.1278 83.517 16.233 83.9205 16.233C84.3409 16.233 84.6918 16.1222 84.973 15.9006C85.2571 15.6761 85.4702 15.375 85.6122 14.9972C85.7571 14.6165 85.8295 14.1932 85.8295 13.7273C85.8295 13.267 85.7585 12.8523 85.6165 12.483C85.4773 12.1108 85.2656 11.8168 84.9815 11.6009C84.7003 11.3821 84.3466 11.2727 83.9205 11.2727C83.5114 11.2727 83.1676 11.3764 82.8892 11.5838C82.6108 11.7884 82.4006 12.0753 82.2585 12.4446C82.1165 12.8111 82.0455 13.2386 82.0455 13.7273ZM91.3054 17.1193C90.7429 17.1193 90.2415 17.0227 89.8011 16.8295C89.3636 16.6364 89.0156 16.3679 88.7571 16.0241C88.5014 15.6776 88.3622 15.2756 88.3395 14.8182H89.4134C89.4361 15.0994 89.5327 15.3423 89.7031 15.5469C89.8736 15.7486 90.0966 15.9048 90.3722 16.0156C90.6477 16.1264 90.9531 16.1818 91.2884 16.1818C91.6634 16.1818 91.9957 16.1165 92.2855 15.9858C92.5753 15.8551 92.8026 15.6733 92.9673 15.4403C93.1321 15.2074 93.2145 14.9375 93.2145 14.6307C93.2145 14.3097 93.1349 14.027 92.9759 13.7827C92.8168 13.5355 92.5838 13.3423 92.277 13.2031C91.9702 13.0639 91.5952 12.9943 91.152 12.9943H90.4531V12.0568H91.152C91.4986 12.0568 91.8026 11.9943 92.0639 11.8693C92.3281 11.7443 92.5341 11.5682 92.6818 11.3409C92.8324 11.1136 92.9077 10.8466 92.9077 10.5398C92.9077 10.2443 92.8423 9.98722 92.7116 9.76847C92.581 9.54972 92.3963 9.37926 92.1577 9.2571C91.9219 9.13494 91.6435 9.07386 91.3224 9.07386C91.0213 9.07386 90.7372 9.12926 90.4702 9.24006C90.206 9.34801 89.9901 9.50568 89.8224 9.71307C89.6548 9.91761 89.5639 10.1648 89.5497 10.4545H88.527C88.544 9.99716 88.6818 9.59659 88.9403 9.25284C89.1989 8.90625 89.5369 8.63636 89.9545 8.44318C90.375 8.25 90.8366 8.15341 91.3395 8.15341C91.8793 8.15341 92.3423 8.26278 92.7287 8.48153C93.1151 8.69744 93.4119 8.98295 93.6193 9.33807C93.8267 9.69318 93.9304 10.0767 93.9304 10.4886C93.9304 10.9801 93.8011 11.3991 93.5426 11.7457C93.2869 12.0923 92.9389 12.3324 92.4986 12.4659V12.5341C93.0497 12.625 93.4801 12.8594 93.7898 13.2372C94.0994 13.6122 94.2543 14.0767 94.2543 14.6307C94.2543 15.1051 94.125 15.5312 93.8665 15.9091C93.6108 16.2841 93.2614 16.5795 92.8182 16.7955C92.375 17.0114 91.8707 17.1193 91.3054 17.1193Z" fill="white"/>
<path d="M134.699 15.2102V14.3409L138.534 8.27273H139.165V9.61932H138.739L135.841 14.2045V14.2727H141.006V15.2102H134.699ZM138.807 17V14.946V14.5412V8.27273H139.812V17H138.807Z" fill="white"/>
<defs>
<radialGradient id="paint0_radial_403_225" cx="0" cy="0" r="1" gradientUnits="userSpaceOnUse" gradientTransform="translate(312.5 12.5) rotate(90) scale(12.5)">
<stop offset="0.171875"/>
<stop offset="0.171975" stop-color="white"/>
</radialGradient>
<radialGradient id="paint1_radial_403_225" cx="0" cy="0" r="1" gradientUnits="userSpaceOnUse" gradientTransform="translate(187.5 12.5) rotate(90) scale(12.5)">
<stop offset="0.171875"/>
<stop offset="0.171975" stop-color="white"/>
</radialGradient>
<radialGradient id="paint2_radial_403_225" cx="0" cy="0" r="1" gradientUnits="userSpaceOnUse" gradientTransform="translate(287.5 12.5) rotate(90) scale(12.5)">
<stop offset="0.171875"/>
<stop offset="0.171975" stop-color="white"/>
</radialGradient>
<radialGradient id="paint3_radial_403_225" cx="0" cy="0" r="1" gradientUnits="userSpaceOnUse" gradientTransform="translate(262.5 12.5) rotate(90) scale(12.5)">
<stop offset="0.171875"/>
<stop offset="0.171975" stop-color="white"/>
</radialGradient>
<radialGradient id="paint4_radial_403_225" cx="0" cy="0" r="1" gradientUnits="userSpaceOnUse" gradientTransform="translate(237.5 12.5) rotate(90) scale(12.5)">
<stop offset="0.171875"/>
<stop offset="0.171975" stop-color="white"/>
</radialGradient>
<radialGradient id="paint5_radial_403_225" cx="0" cy="0" r="1" gradientUnits="userSpaceOnUse" gradientTransform="translate(212.5 12.5) rotate(90) scale(12.5)">
<stop offset="0.171875"/>
<stop offset="0.171975" stop-color="white"/>
</radialGradient>
<radialGradient id="paint6_radial_403_225" cx="0" cy="0" r="1" gradientUnits="userSpaceOnUse" gradientTransform="translate(37.5 12.5) rotate(90) scale(12.5)">
<stop offset="0.171875"/>
<stop offset="0.171975" stop-color="white"/>
</radialGradient>
<radialGradient id="paint7_radial_403_225" cx="0" cy="0" r="1" gradientUnits="userSpaceOnUse" gradientTransform="translate(112.5 12.5) rotate(90) scale(12.5)">
<stop offset="0.171875"/>
<stop offset="0.171975" stop-color="white"/>
</radialGradient>
<radialGradient id="paint8_radial_403_225" cx="0" cy="0" r="1" gradientUnits="userSpaceOnUse" gradientTransform="translate(162.5 12.5) rotate(90) scale(12.5)">
<stop offset="0.171875"/>
<stop offset="0.171975" stop-color="white"/>
</radialGradient>
</defs>
</svg>
