<svg width="175" height="25" viewBox="0 0 175 25" fill="none" xmlns="http://www.w3.org/2000/svg">
<path d="M0.1 0.1H24.9V24.25C24.9 24.2654 24.8926 24.2918 24.8539 24.3296C24.815 24.3676 24.7523 24.4091 24.6626 24.4515C24.4835 24.5362 24.2181 24.6151 23.882 24.6823C23.2116 24.8164 22.281 24.9 21.25 24.9H3.75C2.719 24.9 1.78838 24.8164 1.11796 24.6823C0.781929 24.6151 0.516476 24.5362 0.337441 24.4515C0.247669 24.4091 0.184964 24.3676 0.146084 24.3296C0.107371 24.2918 0.1 24.2654 0.1 24.25V0.1Z" fill="#D6A86F" stroke="black" stroke-width="0.2"/>
<path d="M25.1 0.1H49.9V24.25C49.9 24.2654 49.8926 24.2918 49.8539 24.3296C49.815 24.3676 49.7523 24.4091 49.6626 24.4515C49.4835 24.5362 49.2181 24.6151 48.882 24.6823C48.2116 24.8164 47.281 24.9 46.25 24.9H28.75C27.719 24.9 26.7884 24.8164 26.118 24.6823C25.7819 24.6151 25.5165 24.5362 25.3374 24.4515C25.2477 24.4091 25.185 24.3676 25.1461 24.3296C25.1074 24.2918 25.1 24.2654 25.1 24.25V0.1Z" fill="url(#paint0_radial_1853_228)" stroke="black" stroke-width="0.2"/>
<path d="M50.1 0.1H74.9V24.25C74.9 24.2654 74.8926 24.2918 74.8539 24.3296C74.815 24.3676 74.7523 24.4091 74.6626 24.4515C74.4835 24.5362 74.2181 24.6151 73.882 24.6823C73.2116 24.8164 72.281 24.9 71.25 24.9H53.75C52.719 24.9 51.7884 24.8164 51.118 24.6823C50.7819 24.6151 50.5165 24.5362 50.3374 24.4515C50.2477 24.4091 50.185 24.3676 50.1461 24.3296C50.1074 24.2918 50.1 24.2654 50.1 24.25V0.1Z" fill="url(#paint1_radial_1853_228)" stroke="black" stroke-width="0.2"/>
<path d="M75.1 0.1H99.9V24.25C99.9 24.2654 99.8926 24.2918 99.8539 24.3296C99.815 24.3676 99.7523 24.4091 99.6626 24.4515C99.4835 24.5362 99.2181 24.6151 98.882 24.6823C98.2116 24.8164 97.281 24.9 96.25 24.9H78.75C77.719 24.9 76.7884 24.8164 76.118 24.6823C75.7819 24.6151 75.5165 24.5362 75.3374 24.4515C75.2477 24.4091 75.185 24.3676 75.1461 24.3296C75.1074 24.2918 75.1 24.2654 75.1 24.25V0.1Z" fill="#D6A86F" stroke="black" stroke-width="0.2"/>
<path d="M100.1 0.1H124.9V24.25C124.9 24.2654 124.893 24.2918 124.854 24.3296C124.815 24.3676 124.752 24.4091 124.663 24.4515C124.484 24.5362 124.218 24.6151 123.882 24.6823C123.212 24.8164 122.281 24.9 121.25 24.9H103.75C102.719 24.9 101.788 24.8164 101.118 24.6823C100.782 24.6151 100.516 24.5362 100.337 24.4515C100.248 24.4091 100.185 24.3676 100.146 24.3296C100.107 24.2918 100.1 24.2654 100.1 24.25V0.1Z" fill="url(#paint2_radial_1853_228)" stroke="black" stroke-width="0.2"/>
<path d="M125.1 0.1H149.9V24.25C149.9 24.2654 149.893 24.2918 149.854 24.3296C149.815 24.3676 149.752 24.4091 149.663 24.4515C149.484 24.5362 149.218 24.6151 148.882 24.6823C148.212 24.8164 147.281 24.9 146.25 24.9H128.75C127.719 24.9 126.788 24.8164 126.118 24.6823C125.782 24.6151 125.516 24.5362 125.337 24.4515C125.248 24.4091 125.185 24.3676 125.146 24.3296C125.107 24.2918 125.1 24.2654 125.1 24.25V0.1Z" fill="url(#paint3_radial_1853_228)" stroke="black" stroke-width="0.2"/>
<path d="M150.1 0.1H174.9V24.25C174.9 24.2654 174.893 24.2918 174.854 24.3296C174.815 24.3676 174.752 24.4091 174.663 24.4515C174.484 24.5362 174.218 24.6151 173.882 24.6823C173.212 24.8164 172.281 24.9 171.25 24.9H153.75C152.719 24.9 151.788 24.8164 151.118 24.6823C150.782 24.6151 150.516 24.5362 150.337 24.4515C150.248 24.4091 150.185 24.3676 150.146 24.3296C150.107 24.2918 150.1 24.2654 150.1 24.25V0.1Z" fill="#D6A86F" stroke="black" stroke-width="0.2"/>
<defs>
<radialGradient id="paint0_radial_1853_228" cx="0" cy="0" r="1" gradientUnits="userSpaceOnUse" gradientTransform="translate(37.5 12.5) rotate(90) scale(12.5)">
<stop offset="0.171875"/>
<stop offset="0.171975" stop-color="white"/>
</radialGradient>
<radialGradient id="paint1_radial_1853_228" cx="0" cy="0" r="1" gradientUnits="userSpaceOnUse" gradientTransform="translate(62.5 12.5) rotate(90) scale(12.5)">
<stop offset="0.171875"/>
<stop offset="0.171975" stop-color="white"/>
</radialGradient>
<radialGradient id="paint2_radial_1853_228" cx="0" cy="0" r="1" gradientUnits="userSpaceOnUse" gradientTransform="translate(112.5 12.5) rotate(90) scale(12.5)">
<stop offset="0.171875"/>
<stop offset="0.171975" stop-color="white"/>
</radialGradient>
<radialGradient id="paint3_radial_1853_228" cx="0" cy="0" r="1" gradientUnits="userSpaceOnUse" gradientTransform="translate(137.5 12.5) rotate(90) scale(12.5)">
<stop offset="0.171875"/>
<stop offset="0.171975" stop-color="white"/>
</radialGradient>
</defs>
</svg>
