<svg width="547" height="50" viewBox="0 0 547 50" fill="none" xmlns="http://www.w3.org/2000/svg">
<rect x="142.5" y="0.5" width="49" height="49" fill="black" stroke="black"/>
<rect x="213.5" y="0.5" width="49" height="49" fill="black" stroke="black"/>
<rect x="355.5" y="0.5" width="49" height="49" fill="black" stroke="black"/>
<rect x="426.5" y="0.5" width="49" height="49" fill="black" stroke="black"/>
<rect x="497.5" y="0.5" width="49" height="49" fill="black" stroke="black"/>
<rect x="71.5" y="0.5" width="49" height="49" fill="white" stroke="black"/>
<rect x="284.5" y="0.5" width="49" height="49" fill="white" stroke="black"/>
<path d="M19.1136 34V16.5455H25.2159C26.4318 16.5455 27.4347 16.7557 28.2244 17.1761C29.0142 17.5909 29.6023 18.1506 29.9886 18.8551C30.375 19.554 30.5682 20.3295 30.5682 21.1818C30.5682 21.9318 30.4347 22.5511 30.1676 23.0398C29.9063 23.5284 29.5597 23.9148 29.1278 24.1989C28.7017 24.483 28.2386 24.6932 27.7386 24.8295V25C28.2727 25.0341 28.8097 25.2216 29.3494 25.5625C29.8892 25.9034 30.3409 26.392 30.7045 27.0284C31.0682 27.6648 31.25 28.4432 31.25 29.3636C31.25 30.2386 31.0511 31.0256 30.6534 31.7244C30.2557 32.4233 29.6278 32.9773 28.7699 33.3864C27.9119 33.7955 26.7955 34 25.4205 34H19.1136ZM21.2273 32.125H25.4205C26.8011 32.125 27.7813 31.858 28.3608 31.3239C28.946 30.7841 29.2386 30.1307 29.2386 29.3636C29.2386 28.7727 29.0881 28.2273 28.7869 27.7273C28.4858 27.2216 28.0568 26.8182 27.5 26.517C26.9432 26.2102 26.2841 26.0568 25.5227 26.0568H21.2273V32.125ZM21.2273 24.2159H25.1477C25.7841 24.2159 26.358 24.0909 26.8693 23.8409C27.3864 23.5909 27.7955 23.2386 28.0966 22.7841C28.4034 22.3295 28.5568 21.7955 28.5568 21.1818C28.5568 20.4148 28.2898 19.7642 27.7557 19.2301C27.2216 18.6903 26.375 18.4205 25.2159 18.4205H21.2273V24.2159Z" fill="black"/>
</svg>
