<svg width="485" height="396" viewBox="0 0 485 396" fill="none" xmlns="http://www.w3.org/2000/svg">
<line x1="21" y1="142.5" x2="464" y2="142.5" stroke="black" stroke-width="3"/>
<line x1="21" y1="193.033" x2="464" y2="193.033" stroke="black" stroke-width="3"/>
<line x1="21" y1="243.567" x2="464" y2="243.567" stroke="black" stroke-width="3"/>
<line x1="21" y1="294.1" x2="464" y2="294.1" stroke="black" stroke-width="3"/>
<line x1="21" y1="344.633" x2="464" y2="344.633" stroke="black" stroke-width="3"/>
<path d="M74 111.61V203H70.0606V168.749L49 174.511V82H52.7879V117.692L74 111.61H74ZM52.7879 133.057V158.185L70.0606 153.384V128.255L52.7879 133.057Z" fill="black"/>
<path d="M136 186.61V278H132.061V243.749L111 249.511V157H114.788V192.692L136 186.61H136ZM114.788 208.057V233.185L132.061 228.384V203.255L114.788 208.057Z" fill="black"/>
<path d="M197 89.6098V181H193.061V146.749L172 152.511V60H175.788V95.6918L197 89.6098H197ZM175.788 111.057V136.185L193.061 131.384V106.255L175.788 111.057Z" fill="black"/>
<path d="M256 161.61V253H252.061V218.749L231 224.511V132H234.788V167.692L256 161.61H256ZM234.788 183.057V208.185L252.061 203.384V178.255L234.788 183.057Z" fill="black"/>
<path d="M315 236.61V328H311.061V293.749L290 299.511V207H293.788V242.692L315 236.61H315ZM293.788 258.057V283.185L311.061 278.384V253.255L293.788 258.057Z" fill="black"/>
<path d="M374 135.61V227H370.061V192.749L349 198.511V106H352.788V141.692L374 135.61H374ZM352.788 157.057V182.185L370.061 177.384V152.255L352.788 157.057Z" fill="black"/>
<path d="M436 212.61V304H432.061V269.749L411 275.511V183H414.788V218.692L436 212.61H436ZM414.788 234.057V259.185L432.061 254.384V229.255L414.788 234.057Z" fill="black"/>
</svg>
