<svg width="485" height="425" viewBox="0 0 485 425" fill="none" xmlns="http://www.w3.org/2000/svg">
<line x1="21" y1="142.5" x2="464" y2="142.5" stroke="black" stroke-width="3"/>
<line x1="21" y1="193.033" x2="464" y2="193.033" stroke="black" stroke-width="3"/>
<line x1="21" y1="243.567" x2="464" y2="243.567" stroke="black" stroke-width="3"/>
<line x1="21" y1="294.1" x2="464" y2="294.1" stroke="black" stroke-width="3"/>
<line x1="21" y1="344.633" x2="464" y2="344.633" stroke="black" stroke-width="3"/>
<path d="M72 212.61V304H68.0606V269.749L47 275.511V183H50.7879V218.692L72 212.61H72ZM50.7879 234.057V259.185L68.0606 254.384V229.255L50.7879 234.057Z" fill="black"/>
<path d="M136 133.61V225H132.061V190.749L111 196.511V104H114.788V139.692L136 133.61H136ZM114.788 155.057V180.185L132.061 175.384V150.255L114.788 155.057Z" fill="black"/>
<path d="M197 236.61V328H193.061V293.749L172 299.511V207H175.788V242.692L197 236.61H197ZM175.788 258.057V283.185L193.061 278.384V253.255L175.788 258.057Z" fill="black"/>
<path d="M256 161.61V253H252.061V218.749L231 224.511V132H234.788V167.692L256 161.61H256ZM234.788 183.057V208.185L252.061 203.384V178.255L234.788 183.057Z" fill="black"/>
<path d="M315 263.61V355H311.061V320.749L290 326.511V234H293.788V269.692L315 263.61H315ZM293.788 285.057V310.185L311.061 305.384V280.255L293.788 285.057Z" fill="black"/>
<path d="M374 185.61V277H370.061V242.749L349 248.511V156H352.788V191.692L374 185.61H374ZM352.788 207.057V232.185L370.061 227.384V202.255L352.788 207.057Z" fill="black"/>
<path d="M436 286.61V378H432.061V343.749L411 349.511V257H414.788V292.692L436 286.61H436ZM414.788 308.057V333.185L432.061 328.384V303.255L414.788 308.057Z" fill="black"/>
</svg>
