<svg width="485" height="396" viewBox="0 0 485 396" fill="none" xmlns="http://www.w3.org/2000/svg">
<line x1="21" y1="142.5" x2="464" y2="142.5" stroke="black" stroke-width="3"/>
<line x1="21" y1="193.033" x2="464" y2="193.033" stroke="black" stroke-width="3"/>
<line x1="21" y1="243.567" x2="464" y2="243.567" stroke="black" stroke-width="3"/>
<line x1="21" y1="294.1" x2="464" y2="294.1" stroke="black" stroke-width="3"/>
<line x1="21" y1="344.633" x2="464" y2="344.633" stroke="black" stroke-width="3"/>
<path d="M43 161H49L48.5 269L43 281.908V161Z" fill="black"/>
<path d="M70 243.817C72 238.635 72.5 237.5 73 234C73.5 230.5 71 227.5 71 227.5C71 227.5 65.5 221 58.5 223C51.5 225 47.5 232 47.5 232V224.5C47.5 224.5 50 218.5 59.5 215C63 214 67.5 213.5 74.5 215.5C78.5 217 78.5 216.5 83.5 220.5C85.5 222.5 88 226 89 232C89 237.5 89 238.5 86.7512 243.817C78.5 262 43 282 43 282L48.2512 268.317C48.2512 268.317 68 249 70 243.817Z" fill="black"/>
<path d="M100 85H106L105.5 193L100 205.908V85Z" fill="black"/>
<path d="M127 167.817C129 162.635 129.5 161.5 130 158C130.5 154.5 128 151.5 128 151.5C128 151.5 122.5 145 115.5 147C108.5 149 104.5 156 104.5 156V148.5C104.5 148.5 107 142.5 116.5 139C120 138 124.5 137.5 131.5 139.5C135.5 141 135.5 140.5 140.5 144.5C142.5 146.5 145 150 146 156C146 161.5 146 162.5 143.751 167.817C135.5 186 100 206 100 206L105.251 192.317C105.251 192.317 125 173 127 167.817Z" fill="black"/>
<path d="M157 186H163L162.5 294L157 306.908V186Z" fill="black"/>
<path d="M184 268.817C186 263.635 186.5 262.5 187 259C187.5 255.5 185 252.5 185 252.5C185 252.5 179.5 246 172.5 248C165.5 250 161.5 257 161.5 257V249.5C161.5 249.5 164 243.5 173.5 240C177 239 181.5 238.5 188.5 240.5C192.5 242 192.5 241.5 197.5 245.5C199.5 247.5 202 251 203 257C203 262.5 203 263.5 200.751 268.817C192.5 287 157 307 157 307L162.251 293.317C162.251 293.317 182 274 184 268.817Z" fill="black"/>
<path d="M213 111H219L218.5 219L213 231.908V111Z" fill="black"/>
<path d="M240 193.817C242 188.635 242.5 187.5 243 184C243.5 180.5 241 177.5 241 177.5C241 177.5 235.5 171 228.5 173C221.5 175 217.5 182 217.5 182V174.5C217.5 174.5 220 168.5 229.5 165C233 164 237.5 163.5 244.5 165.5C248.5 167 248.5 166.5 253.5 170.5C255.5 172.5 258 176 259 182C259 187.5 259 188.5 256.751 193.817C248.5 212 213 232 213 232L218.251 218.317C218.251 218.317 238 199 240 193.817Z" fill="black"/>
<path d="M269 212H275L274.5 320L269 332.908V212Z" fill="black"/>
<path d="M296 294.817C298 289.635 298.5 288.5 299 285C299.5 281.5 297 278.5 297 278.5C297 278.5 291.5 272 284.5 274C277.5 276 273.5 283 273.5 283V275.5C273.5 275.5 276 269.5 285.5 266C289 265 293.5 264.5 300.5 266.5C304.5 268 304.5 267.5 309.5 271.5C311.5 273.5 314 277 315 283C315 288.5 315 289.5 312.751 294.817C304.5 313 269 333 269 333L274.251 319.317C274.251 319.317 294 300 296 294.817Z" fill="black"/>
<path d="M326 135H332L331.5 243L326 255.908V135Z" fill="black"/>
<path d="M353 217.817C355 212.635 355.5 211.5 356 208C356.5 204.5 354 201.5 354 201.5C354 201.5 348.5 195 341.5 197C334.5 199 330.5 206 330.5 206V198.5C330.5 198.5 333 192.5 342.5 189C346 188 350.5 187.5 357.5 189.5C361.5 191 361.5 190.5 366.5 194.5C368.5 196.5 371 200 372 206C372 211.5 372 212.5 369.751 217.817C361.5 236 326 256 326 256L331.251 242.317C331.251 242.317 351 223 353 217.817Z" fill="black"/>
<path d="M382 236H388L387.5 344L382 356.908V236Z" fill="black"/>
<path d="M409 318.817C411 313.635 411.5 312.5 412 309C412.5 305.5 410 302.5 410 302.5C410 302.5 404.5 296 397.5 298C390.5 300 386.5 307 386.5 307V299.5C386.5 299.5 389 293.5 398.5 290C402 289 406.5 288.5 413.5 290.5C417.5 292 417.5 291.5 422.5 295.5C424.5 297.5 427 301 428 307C428 312.5 428 313.5 425.751 318.817C417.5 337 382 357 382 357L387.251 343.317C387.251 343.317 407 324 409 318.817Z" fill="black"/>
</svg>
