<svg width="547" height="50" viewBox="0 0 547 50" fill="none" xmlns="http://www.w3.org/2000/svg">
<rect x="71.5" y="0.5" width="49" height="49" fill="black" stroke="black"/>
<rect x="142.5" y="0.5" width="49" height="49" fill="black" stroke="black"/>
<rect x="284.5" y="0.5" width="49" height="49" fill="black" stroke="black"/>
<rect x="355.5" y="0.5" width="49" height="49" fill="black" stroke="black"/>
<rect x="426.5" y="0.5" width="49" height="49" fill="black" stroke="black"/>
<rect x="213.5" y="0.5" width="49" height="49" fill="white" stroke="black"/>
<rect x="497.5" y="0.5" width="49" height="49" fill="white" stroke="black"/>
<path d="M16.5 34H11.1136V16.5455H16.7386C18.4318 16.5455 19.8807 16.8949 21.0852 17.5938C22.2898 18.2869 23.2131 19.2841 23.8551 20.5852C24.4972 21.8807 24.8182 23.4318 24.8182 25.2386C24.8182 27.0568 24.4943 28.6222 23.8466 29.9347C23.1989 31.2415 22.2557 32.2472 21.017 32.9517C19.7784 33.6506 18.2727 34 16.5 34ZM13.2273 32.125H16.3636C17.8068 32.125 19.0028 31.8466 19.9517 31.2898C20.9006 30.733 21.608 29.9403 22.0739 28.9119C22.5398 27.8835 22.7727 26.6591 22.7727 25.2386C22.7727 23.8295 22.5426 22.6165 22.0824 21.5994C21.6222 20.5767 20.9347 19.7926 20.0199 19.2472C19.1051 18.696 17.9659 18.4205 16.6023 18.4205H13.2273V32.125ZM28.3636 34V16.5455H30.375V22.9886H30.5455C30.6932 22.7614 30.8977 22.4716 31.1591 22.1193C31.4261 21.7614 31.8068 21.4432 32.3011 21.1648C32.8011 20.8807 33.4773 20.7386 34.3295 20.7386C35.4318 20.7386 36.4034 21.0142 37.2443 21.5653C38.0852 22.1165 38.7415 22.8977 39.2131 23.9091C39.6847 24.9205 39.9205 26.1136 39.9205 27.4886C39.9205 28.875 39.6847 30.0767 39.2131 31.0938C38.7415 32.1051 38.0881 32.8892 37.2528 33.446C36.4176 33.9972 35.4545 34.2727 34.3636 34.2727C33.5227 34.2727 32.8494 34.1335 32.3438 33.8551C31.8381 33.571 31.4489 33.25 31.1761 32.892C30.9034 32.5284 30.6932 32.2273 30.5455 31.9886H30.3068V34H28.3636ZM30.3409 27.4545C30.3409 28.4432 30.4858 29.3153 30.7756 30.071C31.0653 30.821 31.4886 31.4091 32.0455 31.8352C32.6023 32.2557 33.2841 32.4659 34.0909 32.4659C34.9318 32.4659 35.6335 32.2443 36.196 31.8011C36.7642 31.3523 37.1903 30.75 37.4744 29.9943C37.7642 29.233 37.9091 28.3864 37.9091 27.4545C37.9091 26.5341 37.767 25.7045 37.483 24.9659C37.2045 24.2216 36.7813 23.6335 36.2131 23.2017C35.6506 22.7642 34.9432 22.5455 34.0909 22.5455C33.2727 22.5455 32.5852 22.7528 32.0284 23.1676C31.4716 23.5767 31.0511 24.1506 30.767 24.8892C30.483 25.6222 30.3409 26.4773 30.3409 27.4545Z" fill="black"/>
</svg>
