<svg width="485" height="396" viewBox="0 0 485 396" fill="none" xmlns="http://www.w3.org/2000/svg">
<line x1="21" y1="142.5" x2="464" y2="142.5" stroke="black" stroke-width="3"/>
<line x1="21" y1="193.033" x2="464" y2="193.033" stroke="black" stroke-width="3"/>
<line x1="21" y1="243.567" x2="464" y2="243.567" stroke="black" stroke-width="3"/>
<line x1="21" y1="294.1" x2="464" y2="294.1" stroke="black" stroke-width="3"/>
<line x1="21" y1="344.633" x2="464" y2="344.633" stroke="black" stroke-width="3"/>
<line x1="51.4999" y1="79.0189" x2="50.4999" y2="211.019" stroke="black" stroke-width="5"/>
<path d="M38.2894 167.808L88.1914 152L88.1914 170.181L38.2894 186.181L38.2894 167.808Z" fill="black"/>
<line x1="75.4999" y1="72.0189" x2="74.4999" y2="204.019" stroke="black" stroke-width="5"/>
<path d="M37.9663 115.127L87.8683 99.3191L87.8683 117.5L37.9663 133.5L37.9663 115.127Z" fill="black"/>
<line x1="111.823" y1="156.019" x2="110.823" y2="288.019" stroke="black" stroke-width="5"/>
<path d="M98.6125 244.808L148.514 229L148.514 247.181L98.6125 263.181L98.6125 244.808Z" fill="black"/>
<line x1="135.823" y1="149.019" x2="134.823" y2="281.019" stroke="black" stroke-width="5"/>
<path d="M98.2894 192.127L148.191 176.319L148.191 194.5L98.2894 210.5L98.2894 192.127Z" fill="black"/>
<line x1="171.823" y1="56.0189" x2="170.823" y2="188.019" stroke="black" stroke-width="5"/>
<path d="M158.612 144.808L208.514 129L208.514 147.181L158.612 163.181L158.612 144.808Z" fill="black"/>
<line x1="195.823" y1="49.0189" x2="194.823" y2="181.019" stroke="black" stroke-width="5"/>
<path d="M158.289 92.1272L208.191 76.3191L208.191 94.5L158.289 110.5L158.289 92.1272Z" fill="black"/>
<line x1="231.823" y1="130.019" x2="230.823" y2="262.019" stroke="black" stroke-width="5"/>
<path d="M218.612 218.808L268.514 203L268.514 221.181L218.612 237.181L218.612 218.808Z" fill="black"/>
<line x1="255.823" y1="123.019" x2="254.823" y2="255.019" stroke="black" stroke-width="5"/>
<path d="M218.289 166.127L268.191 150.319L268.191 168.5L218.289 184.5L218.289 166.127Z" fill="black"/>
</svg>
