<svg width="547" height="50" viewBox="0 0 547 50" fill="none" xmlns="http://www.w3.org/2000/svg">
<rect x="71.5" y="0.5" width="49" height="49" fill="black" stroke="black"/>
<rect x="284.5" y="0.5" width="49" height="49" fill="black" stroke="black"/>
<rect x="355.5" y="0.5" width="49" height="49" fill="black" stroke="black"/>
<rect x="426.5" y="0.5" width="49" height="49" fill="white" stroke="black"/>
<rect x="497.5" y="0.5" width="49" height="49" fill="white" stroke="black"/>
<rect x="142.5" y="0.5" width="49" height="49" fill="white" stroke="black"/>
<rect x="213.5" y="0.5" width="49" height="49" fill="white" stroke="black"/>
<path d="M12.1136 34V16.5455H22.6477V18.4205H14.2273V24.3182H22.1023V26.1932H14.2273V32.125H22.7841V34H12.1136ZM26.4574 34V16.5455H28.4688V22.9886H28.6392C28.7869 22.7614 28.9915 22.4716 29.2528 22.1193C29.5199 21.7614 29.9006 21.4432 30.3949 21.1648C30.8949 20.8807 31.571 20.7386 32.4233 20.7386C33.5256 20.7386 34.4972 21.0142 35.3381 21.5653C36.179 22.1165 36.8352 22.8977 37.3068 23.9091C37.7784 24.9205 38.0142 26.1136 38.0142 27.4886C38.0142 28.875 37.7784 30.0767 37.3068 31.0938C36.8352 32.1051 36.1818 32.8892 35.3466 33.446C34.5114 33.9972 33.5483 34.2727 32.4574 34.2727C31.6165 34.2727 30.9432 34.1335 30.4375 33.8551C29.9318 33.571 29.5426 33.25 29.2699 32.892C28.9972 32.5284 28.7869 32.2273 28.6392 31.9886H28.4006V34H26.4574ZM28.4347 27.4545C28.4347 28.4432 28.5795 29.3153 28.8693 30.071C29.1591 30.821 29.5824 31.4091 30.1392 31.8352C30.696 32.2557 31.3778 32.4659 32.1847 32.4659C33.0256 32.4659 33.7273 32.2443 34.2898 31.8011C34.858 31.3523 35.2841 30.75 35.5682 29.9943C35.858 29.233 36.0028 28.3864 36.0028 27.4545C36.0028 26.5341 35.8608 25.7045 35.5767 24.9659C35.2983 24.2216 34.875 23.6335 34.3068 23.2017C33.7443 22.7642 33.0369 22.5455 32.1847 22.5455C31.3665 22.5455 30.679 22.7528 30.1222 23.1676C29.5653 23.5767 29.1449 24.1506 28.8608 24.8892C28.5767 25.6222 28.4347 26.4773 28.4347 27.4545Z" fill="black"/>
</svg>
