<svg width="485" height="396" viewBox="0 0 485 396" fill="none" xmlns="http://www.w3.org/2000/svg">
<line x1="21" y1="142.5" x2="464" y2="142.5" stroke="black" stroke-width="3"/>
<line x1="21" y1="193.033" x2="464" y2="193.033" stroke="black" stroke-width="3"/>
<line x1="21" y1="243.567" x2="464" y2="243.567" stroke="black" stroke-width="3"/>
<line x1="21" y1="294.1" x2="464" y2="294.1" stroke="black" stroke-width="3"/>
<line x1="21" y1="344.633" x2="464" y2="344.633" stroke="black" stroke-width="3"/>
<path d="M43 161H49L48.5 269L43 281.908V161Z" fill="black"/>
<path d="M70 243.817C72 238.635 72.5 237.5 73 234C73.5 230.5 71 227.5 71 227.5C71 227.5 65.5 221 58.5 223C51.5 225 47.5 232 47.5 232V224.5C47.5 224.5 50 218.5 59.5 215C63 214 67.5 213.5 74.5 215.5C78.5 217 78.5 216.5 83.5 220.5C85.5 222.5 88 226 89 232C89 237.5 89 238.5 86.7512 243.817C78.5 262 43 282 43 282L48.2512 268.317C48.2512 268.317 68 249 70 243.817Z" fill="black"/>
<path d="M100 85H106L105.5 193L100 205.908V85Z" fill="black"/>
<path d="M127 167.817C129 162.635 129.5 161.5 130 158C130.5 154.5 128 151.5 128 151.5C128 151.5 122.5 145 115.5 147C108.5 149 104.5 156 104.5 156V148.5C104.5 148.5 107 142.5 116.5 139C120 138 124.5 137.5 131.5 139.5C135.5 141 135.5 140.5 140.5 144.5C142.5 146.5 145 150 146 156C146 161.5 146 162.5 143.751 167.817C135.5 186 100 206 100 206L105.251 192.317C105.251 192.317 125 173 127 167.817Z" fill="black"/>
<path d="M157 186H163L162.5 294L157 306.908V186Z" fill="black"/>
<path d="M184 268.817C186 263.635 186.5 262.5 187 259C187.5 255.5 185 252.5 185 252.5C185 252.5 179.5 246 172.5 248C165.5 250 161.5 257 161.5 257V249.5C161.5 249.5 164 243.5 173.5 240C177 239 181.5 238.5 188.5 240.5C192.5 242 192.5 241.5 197.5 245.5C199.5 247.5 202 251 203 257C203 262.5 203 263.5 200.751 268.817C192.5 287 157 307 157 307L162.251 293.317C162.251 293.317 182 274 184 268.817Z" fill="black"/>
</svg>
