<svg width="485" height="396" viewBox="0 0 485 396" fill="none" xmlns="http://www.w3.org/2000/svg">
<line x1="21" y1="142.5" x2="464" y2="142.5" stroke="black" stroke-width="3"/>
<line x1="21" y1="193.033" x2="464" y2="193.033" stroke="black" stroke-width="3"/>
<line x1="21" y1="243.567" x2="464" y2="243.567" stroke="black" stroke-width="3"/>
<line x1="21" y1="294.1" x2="464" y2="294.1" stroke="black" stroke-width="3"/>
<line x1="21" y1="344.633" x2="464" y2="344.633" stroke="black" stroke-width="3"/>
<path d="M43 161H49L48.5 269L43 281.908V161Z" fill="black"/>
<path d="M70 243.817C72 238.635 72.5 237.5 73 234C73.5 230.5 71 227.5 71 227.5C71 227.5 65.5 221 58.5 223C51.5 225 47.5 232 47.5 232V224.5C47.5 224.5 50 218.5 59.5 215C63 214 67.5 213.5 74.5 215.5C78.5 217 78.5 216.5 83.5 220.5C85.5 222.5 88 226 89 232C89 237.5 89 238.5 86.7512 243.817C78.5 262 43 282 43 282L48.2512 268.317C48.2512 268.317 68 249 70 243.817Z" fill="black"/>
</svg>
