<svg width="547" height="50" viewBox="0 0 547 50" fill="none" xmlns="http://www.w3.org/2000/svg">
<rect x="71.5" y="0.5" width="49" height="49" fill="black" stroke="black"/>
<rect x="142.5" y="0.5" width="49" height="49" fill="black" stroke="black"/>
<rect x="213.5" y="0.5" width="49" height="49" fill="black" stroke="black"/>
<rect x="355.5" y="0.5" width="49" height="49" fill="black" stroke="black"/>
<rect x="426.5" y="0.5" width="49" height="49" fill="black" stroke="black"/>
<rect x="497.5" y="0.5" width="49" height="49" fill="black" stroke="black"/>
<rect x="284.5" y="0.5" width="49" height="49" fill="white" stroke="black"/>
<path d="M12.1136 34V16.5455H22.5795V18.4205H14.2273V24.3182H21.7955V26.1932H14.2273V34H12.1136ZM32.4382 34L35.3018 16.5455H37.0064L34.1428 34H32.4382ZM24.495 29.1591L24.7678 27.4545H37.7905L37.5178 29.1591H24.495ZM26.3018 34L29.1655 16.5455H30.87L28.0064 34H26.3018ZM25.5178 23.0909L25.7905 21.3864H38.8132L38.5405 23.0909H25.5178Z" fill="black"/>
</svg>
