<svg width="547" height="50" viewBox="0 0 547 50" fill="none" xmlns="http://www.w3.org/2000/svg">
<rect x="497.5" y="0.5" width="49" height="49" fill="black" stroke="black"/>
<rect x="71.5" y="0.5" width="49" height="49" fill="white" stroke="black"/>
<rect x="142.5" y="0.5" width="49" height="49" fill="white" stroke="black"/>
<rect x="213.5" y="0.5" width="49" height="49" fill="white" stroke="black"/>
<rect x="284.5" y="0.5" width="49" height="49" fill="white" stroke="black"/>
<rect x="355.5" y="0.5" width="49" height="49" fill="white" stroke="black"/>
<rect x="426.5" y="0.5" width="49" height="49" fill="white" stroke="black"/>
<path d="M30.0455 22C29.858 21.4261 29.6108 20.9119 29.304 20.4574C29.0028 19.9972 28.642 19.6051 28.2216 19.2812C27.8068 18.9574 27.3352 18.7102 26.8068 18.5398C26.2784 18.3693 25.6989 18.2841 25.0682 18.2841C24.0341 18.2841 23.0938 18.5511 22.2472 19.0852C21.4006 19.6193 20.7273 20.4062 20.2273 21.446C19.7273 22.4858 19.4773 23.7614 19.4773 25.2727C19.4773 26.7841 19.7301 28.0597 20.2358 29.0994C20.7415 30.1392 21.4261 30.9261 22.2898 31.4602C23.1534 31.9943 24.125 32.2614 25.2045 32.2614C26.2045 32.2614 27.0852 32.0483 27.8466 31.6222C28.6136 31.1903 29.2102 30.5824 29.6364 29.7983C30.0682 29.0085 30.2841 28.0795 30.2841 27.0114L30.9318 27.1477H25.6818V25.2727H32.3295V27.1477C32.3295 28.5852 32.0227 29.8352 31.4091 30.8977C30.8011 31.9602 29.9602 32.7841 28.8864 33.3693C27.8182 33.9489 26.5909 34.2386 25.2045 34.2386C23.6591 34.2386 22.3011 33.875 21.1307 33.1477C19.9659 32.4205 19.0568 31.3864 18.4034 30.0455C17.7557 28.7045 17.4318 27.1136 17.4318 25.2727C17.4318 23.892 17.6165 22.6506 17.9858 21.5483C18.3608 20.4403 18.8892 19.4972 19.571 18.7188C20.2528 17.9403 21.0597 17.3438 21.9915 16.929C22.9233 16.5142 23.9489 16.3068 25.0682 16.3068C25.9886 16.3068 26.8466 16.446 27.642 16.7244C28.4432 16.9972 29.1562 17.3864 29.7812 17.892C30.4119 18.392 30.9375 18.9915 31.358 19.6903C31.7784 20.3835 32.0682 21.1534 32.2273 22H30.0455Z" fill="black"/>
</svg>
