<svg width="194" height="20" viewBox="0 0 194 20" fill="none" xmlns="http://www.w3.org/2000/svg">
<rect x="0.75" y="0.75" width="18.5" height="18.5" fill="white" stroke="#232323" stroke-width="0.5"/>
<path d="M8.91123 9.02968C8.75923 9.02968 8.6219 9.05635 8.49923 9.10968C8.37656 9.16035 8.27256 9.23635 8.18723 9.33768C8.1019 9.43635 8.03656 9.55768 7.99123 9.70168C7.9459 9.84301 7.92323 10.003 7.92323 10.1817C7.92323 10.4163 7.95923 10.6203 8.03123 10.7937C8.1059 10.967 8.21523 11.1003 8.35923 11.1937C8.5059 11.287 8.68856 11.3337 8.90723 11.3337C9.03256 11.3337 9.15123 11.323 9.26323 11.3017C9.37523 11.2803 9.48456 11.2537 9.59123 11.2217V11.5337C9.48456 11.5737 9.3739 11.603 9.25923 11.6217C9.14723 11.6403 9.01256 11.6497 8.85523 11.6497C8.56456 11.6497 8.3219 11.5897 8.12723 11.4697C7.93256 11.3497 7.7859 11.179 7.68723 10.9577C7.59123 10.7363 7.54323 10.4763 7.54323 10.1777C7.54323 9.96168 7.57256 9.76435 7.63123 9.58568C7.69256 9.40701 7.78056 9.25235 7.89523 9.12168C8.01256 8.99101 8.15656 8.89101 8.32723 8.82168C8.4979 8.74968 8.6939 8.71368 8.91523 8.71368C9.0619 8.71368 9.20323 8.72835 9.33923 8.75768C9.47523 8.78701 9.59656 8.82835 9.70323 8.88168L9.55923 9.18568C9.47123 9.14568 9.37256 9.10968 9.26323 9.07768C9.15656 9.04568 9.03923 9.02968 8.91123 9.02968ZM10.2186 8.75368H10.5546V10.3217C10.5546 10.3883 10.5532 10.4617 10.5506 10.5417C10.5506 10.619 10.5492 10.6963 10.5466 10.7737C10.5439 10.851 10.5399 10.9203 10.5346 10.9817C10.5319 11.0403 10.5292 11.0857 10.5266 11.1177H10.5426L12.1146 8.75368H12.5146V11.6097H12.1786V10.0577C12.1786 9.98568 12.1799 9.90835 12.1826 9.82568C12.1852 9.74035 12.1879 9.65901 12.1906 9.58168C12.1959 9.50168 12.1999 9.43101 12.2026 9.36968C12.2052 9.30835 12.2079 9.26301 12.2106 9.23368H12.1946L10.6186 11.6097H10.2186V8.75368Z" fill="#232323"/>
<rect x="29.75" y="0.75" width="18.5" height="18.5" fill="#232323" stroke="#232323" stroke-width="0.5"/>
<path d="M37.744 8.75368V11.2897H38.108V12.3617H37.764V11.6097H35.8V12.3617H35.456V11.2897H35.676C35.772 11.1243 35.8627 10.939 35.948 10.7337C36.036 10.5283 36.1134 10.3137 36.18 10.0897C36.2467 9.86301 36.3014 9.63635 36.344 9.40968C36.3867 9.18301 36.4134 8.96435 36.424 8.75368H37.744ZM36.74 9.07768C36.7294 9.23235 36.7027 9.40701 36.66 9.60168C36.62 9.79635 36.568 9.99635 36.504 10.2017C36.4427 10.4043 36.3734 10.6003 36.296 10.7897C36.2214 10.979 36.1414 11.1457 36.056 11.2897H37.388V9.07768H36.74ZM41.0777 10.1777C41.0777 10.399 41.0497 10.6003 40.9937 10.7817C40.9377 10.9603 40.8537 11.115 40.7417 11.2457C40.6323 11.3763 40.495 11.4763 40.3297 11.5457C40.167 11.615 39.9777 11.6497 39.7617 11.6497C39.5377 11.6497 39.343 11.615 39.1777 11.5457C39.0123 11.4737 38.875 11.3737 38.7657 11.2457C38.6563 11.115 38.575 10.959 38.5217 10.7777C38.4683 10.5963 38.4417 10.395 38.4417 10.1737C38.4417 9.88035 38.4897 9.62435 38.5857 9.40568C38.6817 9.18701 38.827 9.01635 39.0217 8.89368C39.219 8.77101 39.467 8.70968 39.7657 8.70968C40.051 8.70968 40.291 8.77101 40.4857 8.89368C40.6803 9.01368 40.827 9.18435 40.9257 9.40568C41.027 9.62435 41.0777 9.88168 41.0777 10.1777ZM38.8217 10.1777C38.8217 10.4177 38.855 10.6243 38.9217 10.7977C38.9883 10.971 39.091 11.1043 39.2297 11.1977C39.371 11.291 39.5483 11.3377 39.7617 11.3377C39.9777 11.3377 40.1537 11.291 40.2897 11.1977C40.4283 11.1043 40.531 10.971 40.5977 10.7977C40.6643 10.6243 40.6977 10.4177 40.6977 10.1777C40.6977 9.81768 40.623 9.53635 40.4737 9.33368C40.3243 9.12835 40.0883 9.02568 39.7657 9.02568C39.5497 9.02568 39.371 9.07235 39.2297 9.16568C39.091 9.25635 38.9883 9.38835 38.9217 9.56168C38.855 9.73235 38.8217 9.93768 38.8217 10.1777ZM42.2947 10.4737L41.8427 10.6257V9.80968L42.2947 9.65768V10.4737ZM42.2947 8.51768V9.22968L41.8427 9.37368V8.66968H41.7227V9.40968L41.4787 9.49368V9.92168L41.7227 9.84168V10.6617L41.4787 10.7377V11.1737L41.7227 11.0897V11.7617H41.8427V11.0577L42.2947 10.9097V11.6097H42.4147V10.8737L42.6547 10.7897V10.3617L42.4147 10.4417V9.62168L42.6547 9.54568V9.10968L42.4147 9.19368V8.51768H42.2947Z" fill="white"/>
<rect x="58.75" y="0.75" width="18.5" height="18.5" fill="#232323" stroke="#232323" stroke-width="0.5"/>
<path d="M66.1991 8.75368C66.5724 8.75368 66.8444 8.82701 67.0151 8.97368C67.1858 9.12035 67.2711 9.32701 67.2711 9.59368C67.2711 9.71101 67.2511 9.82435 67.2111 9.93368C67.1738 10.0403 67.1111 10.1363 67.0231 10.2217C66.9351 10.307 66.8178 10.375 66.6711 10.4257C66.5244 10.4737 66.3444 10.4977 66.1311 10.4977H65.8031V11.6097H65.4431V8.75368H66.1991ZM66.1671 9.06168H65.8031V10.1897H66.0911C66.2724 10.1897 66.4231 10.171 66.5431 10.1337C66.6631 10.0937 66.7524 10.031 66.8111 9.94568C66.8698 9.86035 66.8991 9.74835 66.8991 9.60968C66.8991 9.42568 66.8404 9.28835 66.7231 9.19768C66.6058 9.10701 66.4204 9.06168 66.1671 9.06168ZM69.461 11.6097H67.865V8.75368H69.461V9.06968H68.225V9.96168H69.389V10.2737H68.225V11.2937H69.461V11.6097ZM70.6716 10.4737L70.2196 10.6257V9.80968L70.6716 9.65768V10.4737ZM70.6716 8.51768V9.22968L70.2196 9.37368V8.66968H70.0996V9.40968L69.8556 9.49368V9.92168L70.0996 9.84168V10.6617L69.8556 10.7377V11.1737L70.0996 11.0897V11.7617H70.2196V11.0577L70.6716 10.9097V11.6097H70.7916V10.8737L71.0316 10.7897V10.3617L70.7916 10.4417V9.62168L71.0316 9.54568V9.10968L70.7916 9.19368V8.51768H70.6716Z" fill="white"/>
<rect x="87.75" y="0.75" width="18.5" height="18.5" fill="white" stroke="#232323" stroke-width="0.5"/>
<path d="M95.3964 11.6097L94.4564 9.10568H94.4404C94.4458 9.15901 94.4498 9.22701 94.4524 9.30968C94.4578 9.39235 94.4618 9.48301 94.4644 9.58168C94.4671 9.67768 94.4684 9.77635 94.4684 9.87768V11.6097H94.1364V8.75368H94.6684L95.5484 11.0937H95.5644L96.4604 8.75368H96.9884V11.6097H96.6324V9.85368C96.6324 9.76035 96.6338 9.66835 96.6364 9.57768C96.6391 9.48435 96.6431 9.39768 96.6484 9.31768C96.6538 9.23501 96.6578 9.16568 96.6604 9.10968H96.6444L95.6924 11.6097H95.3964ZM97.7694 8.75368H98.1054V10.3217C98.1054 10.3883 98.104 10.4617 98.1014 10.5417C98.1014 10.619 98.1 10.6963 98.0974 10.7737C98.0947 10.851 98.0907 10.9203 98.0854 10.9817C98.0827 11.0403 98.08 11.0857 98.0774 11.1177H98.0934L99.6654 8.75368H100.065V11.6097H99.7294V10.0577C99.7294 9.98568 99.7307 9.90835 99.7334 9.82568C99.736 9.74035 99.7387 9.65901 99.7414 9.58168C99.7467 9.50168 99.7507 9.43101 99.7534 9.36968C99.756 9.30835 99.7587 9.26301 99.7614 9.23368H99.7454L98.1694 11.6097H97.7694V8.75368Z" fill="#232323"/>
<rect x="116.75" y="0.75" width="18.5" height="18.5" fill="#232323" stroke="#232323" stroke-width="0.5"/>
<path d="M124.277 8.71368V9.06568C124.586 9.07101 124.83 9.12168 125.009 9.21768C125.187 9.31368 125.314 9.44168 125.389 9.60168C125.463 9.75901 125.501 9.93501 125.501 10.1297C125.501 10.2577 125.481 10.3857 125.441 10.5137C125.403 10.639 125.338 10.7537 125.245 10.8577C125.151 10.959 125.026 11.0417 124.869 11.1057C124.711 11.1697 124.514 11.2043 124.277 11.2097V11.6497H123.921V11.2097C123.678 11.2043 123.477 11.1697 123.317 11.1057C123.159 11.039 123.035 10.9537 122.945 10.8497C122.854 10.743 122.79 10.627 122.753 10.5017C122.715 10.3763 122.697 10.2523 122.697 10.1297C122.697 9.98835 122.717 9.85501 122.757 9.72968C122.799 9.60168 122.867 9.48968 122.961 9.39368C123.057 9.29501 123.183 9.21635 123.341 9.15768C123.498 9.09901 123.691 9.06835 123.921 9.06568V8.71368H124.277ZM123.921 9.36968C123.707 9.37501 123.537 9.40968 123.409 9.47368C123.283 9.53768 123.194 9.62568 123.141 9.73768C123.087 9.84701 123.061 9.97635 123.061 10.1257C123.061 10.283 123.09 10.4203 123.149 10.5377C123.21 10.6523 123.303 10.7417 123.429 10.8057C123.557 10.8697 123.721 10.9057 123.921 10.9137V9.36968ZM124.277 10.9137C124.482 10.9057 124.647 10.8683 124.773 10.8017C124.901 10.735 124.993 10.6443 125.049 10.5297C125.107 10.4123 125.137 10.2777 125.137 10.1257C125.137 9.97368 125.11 9.84301 125.057 9.73368C125.003 9.62168 124.914 9.53501 124.789 9.47368C124.663 9.40968 124.493 9.37501 124.277 9.36968V10.9137ZM127.887 11.6097L127.543 10.7257H126.411L126.071 11.6097H125.707L126.823 8.74168H127.147L128.259 11.6097H127.887ZM127.115 9.54168C127.107 9.52035 127.094 9.48168 127.075 9.42568C127.057 9.36968 127.038 9.31235 127.019 9.25368C127.003 9.19235 126.99 9.14568 126.979 9.11368C126.966 9.16701 126.951 9.22168 126.935 9.27768C126.922 9.33101 126.907 9.38035 126.891 9.42568C126.878 9.47101 126.866 9.50968 126.855 9.54168L126.531 10.4057H127.435L127.115 9.54168ZM129.234 10.4737L128.782 10.6257V9.80968L129.234 9.65768V10.4737ZM129.234 8.51768V9.22968L128.782 9.37368V8.66968H128.662V9.40968L128.418 9.49368V9.92168L128.662 9.84168V10.6617L128.418 10.7377V11.1737L128.662 11.0897V11.7617H128.782V11.0577L129.234 10.9097V11.6097H129.354V10.8737L129.594 10.7897V10.3617L129.354 10.4417V9.62168L129.594 9.54568V9.10968L129.354 9.19368V8.51768H129.234Z" fill="white"/>
<rect x="145.75" y="0.75" width="18.5" height="18.5" fill="#232323" stroke="#232323" stroke-width="0.5"/>
<path d="M150.542 9.02968C150.39 9.02968 150.253 9.05635 150.13 9.10968C150.007 9.16035 149.903 9.23635 149.818 9.33768C149.733 9.43635 149.667 9.55768 149.622 9.70168C149.577 9.84301 149.554 10.003 149.554 10.1817C149.554 10.4163 149.59 10.6203 149.662 10.7937C149.737 10.967 149.846 11.1003 149.99 11.1937C150.137 11.287 150.319 11.3337 150.538 11.3337C150.663 11.3337 150.782 11.323 150.894 11.3017C151.006 11.2803 151.115 11.2537 151.222 11.2217V11.5337C151.115 11.5737 151.005 11.603 150.89 11.6217C150.778 11.6403 150.643 11.6497 150.486 11.6497C150.195 11.6497 149.953 11.5897 149.758 11.4697C149.563 11.3497 149.417 11.179 149.318 10.9577C149.222 10.7363 149.174 10.4763 149.174 10.1777C149.174 9.96168 149.203 9.76435 149.262 9.58568C149.323 9.40701 149.411 9.25235 149.526 9.12168C149.643 8.99101 149.787 8.89101 149.958 8.82168C150.129 8.74968 150.325 8.71368 150.546 8.71368C150.693 8.71368 150.834 8.72835 150.97 8.75768C151.106 8.78701 151.227 8.82835 151.334 8.88168L151.19 9.18568C151.102 9.14568 151.003 9.10968 150.894 9.07768C150.787 9.04568 150.67 9.02968 150.542 9.02968ZM154.259 10.1777C154.259 10.399 154.231 10.6003 154.175 10.7817C154.119 10.9603 154.035 11.115 153.923 11.2457C153.814 11.3763 153.677 11.4763 153.511 11.5457C153.349 11.615 153.159 11.6497 152.943 11.6497C152.719 11.6497 152.525 11.615 152.359 11.5457C152.194 11.4737 152.057 11.3737 151.947 11.2457C151.838 11.115 151.757 10.959 151.703 10.7777C151.65 10.5963 151.623 10.395 151.623 10.1737C151.623 9.88035 151.671 9.62435 151.767 9.40568C151.863 9.18701 152.009 9.01635 152.203 8.89368C152.401 8.77101 152.649 8.70968 152.947 8.70968C153.233 8.70968 153.473 8.77101 153.667 8.89368C153.862 9.01368 154.009 9.18435 154.107 9.40568C154.209 9.62435 154.259 9.88168 154.259 10.1777ZM152.003 10.1777C152.003 10.4177 152.037 10.6243 152.103 10.7977C152.17 10.971 152.273 11.1043 152.411 11.1977C152.553 11.291 152.73 11.3377 152.943 11.3377C153.159 11.3377 153.335 11.291 153.471 11.1977C153.61 11.1043 153.713 10.971 153.779 10.7977C153.846 10.6243 153.879 10.4177 153.879 10.1777C153.879 9.81768 153.805 9.53635 153.655 9.33368C153.506 9.12835 153.27 9.02568 152.947 9.02568C152.731 9.02568 152.553 9.07235 152.411 9.16568C152.273 9.25635 152.17 9.38835 152.103 9.56168C152.037 9.73235 152.003 9.93768 152.003 10.1777ZM156.87 11.6097H156.51V9.06968H155.606C155.588 9.21635 155.568 9.37101 155.546 9.53368C155.525 9.69368 155.502 9.85235 155.478 10.0097C155.457 10.167 155.436 10.315 155.414 10.4537C155.393 10.5923 155.372 10.7137 155.35 10.8177C155.316 10.9963 155.273 11.1483 155.222 11.2737C155.172 11.399 155.104 11.4937 155.018 11.5577C154.936 11.6217 154.826 11.6537 154.69 11.6537C154.645 11.6537 154.598 11.6483 154.55 11.6377C154.505 11.6297 154.465 11.619 154.43 11.6057V11.3057C154.46 11.319 154.493 11.331 154.53 11.3417C154.568 11.3497 154.608 11.3537 154.65 11.3537C154.73 11.3537 154.793 11.3217 154.838 11.2577C154.886 11.191 154.924 11.1097 154.95 11.0137C154.977 10.915 155 10.8177 155.018 10.7217C155.034 10.6443 155.053 10.5417 155.074 10.4137C155.096 10.283 155.118 10.131 155.142 9.95768C155.169 9.78435 155.196 9.59635 155.222 9.39368C155.252 9.18835 155.28 8.97501 155.306 8.75368H156.87V11.6097ZM157.646 11.6097V8.75368H158.006V9.96168H158.542C158.809 9.96168 159.021 9.99768 159.178 10.0697C159.336 10.1417 159.449 10.239 159.518 10.3617C159.588 10.4843 159.622 10.6217 159.622 10.7737C159.622 10.9417 159.584 11.0883 159.506 11.2137C159.432 11.339 159.318 11.4363 159.166 11.5057C159.014 11.575 158.821 11.6097 158.586 11.6097H157.646ZM158.55 11.3017C158.782 11.3017 158.957 11.259 159.074 11.1737C159.192 11.0857 159.25 10.9523 159.25 10.7737C159.25 10.651 159.221 10.5537 159.162 10.4817C159.106 10.407 159.022 10.3537 158.91 10.3217C158.801 10.2897 158.664 10.2737 158.498 10.2737H158.006V11.3017H158.55ZM160.797 10.4737L160.345 10.6257V9.80968L160.797 9.65768V10.4737ZM160.797 8.51768V9.22968L160.345 9.37368V8.66968H160.225V9.40968L159.981 9.49368V9.92168L160.225 9.84168V10.6617L159.981 10.7377V11.1737L160.225 11.0897V11.7617H160.345V11.0577L160.797 10.9097V11.6097H160.917V10.8737L161.157 10.7897V10.3617L160.917 10.4417V9.62168L161.157 9.54568V9.10968L160.917 9.19368V8.51768H160.797Z" fill="white"/>
<g clip-path="url(#clip0_14_1694)">
<rect x="174.75" y="0.75" width="18.5" height="18.5" fill="#232323" stroke="#232323" stroke-width="0.5"/>
<path d="M183.128 11.6097H182.768V9.06968H181.864C181.845 9.21635 181.825 9.37101 181.804 9.53368C181.783 9.69368 181.76 9.85235 181.736 10.0097C181.715 10.167 181.693 10.315 181.672 10.4537C181.651 10.5923 181.629 10.7137 181.608 10.8177C181.573 10.9963 181.531 11.1483 181.48 11.2737C181.429 11.399 181.361 11.4937 181.276 11.5577C181.193 11.6217 181.084 11.6537 180.948 11.6537C180.903 11.6537 180.856 11.6483 180.808 11.6377C180.763 11.6297 180.723 11.619 180.688 11.6057V11.3057C180.717 11.319 180.751 11.331 180.788 11.3417C180.825 11.3497 180.865 11.3537 180.908 11.3537C180.988 11.3537 181.051 11.3217 181.096 11.2577C181.144 11.191 181.181 11.1097 181.208 11.0137C181.235 10.915 181.257 10.8177 181.276 10.7217C181.292 10.6443 181.311 10.5417 181.332 10.4137C181.353 10.283 181.376 10.131 181.4 9.95768C181.427 9.78435 181.453 9.59635 181.48 9.39368C181.509 9.18835 181.537 8.97501 181.564 8.75368H183.128V11.6097ZM184.764 10.4257L184.024 11.6097H183.604L184.404 10.3617C184.303 10.327 184.207 10.279 184.116 10.2177C184.028 10.1563 183.956 10.0723 183.9 9.96568C183.844 9.85901 183.816 9.72168 183.816 9.55368C183.816 9.29501 183.905 9.09768 184.084 8.96168C184.263 8.82301 184.529 8.75368 184.884 8.75368H185.684V11.6097H185.324V10.4257H184.764ZM184.892 9.06168C184.74 9.06168 184.612 9.07901 184.508 9.11368C184.404 9.14835 184.324 9.20301 184.268 9.27768C184.215 9.35235 184.188 9.44968 184.188 9.56968C184.188 9.74568 184.247 9.88168 184.364 9.97768C184.481 10.0737 184.663 10.1217 184.908 10.1217H185.324V9.06168H184.892ZM187.043 10.4737L186.591 10.6257V9.80968L187.043 9.65768V10.4737ZM187.043 8.51768V9.22968L186.591 9.37368V8.66968H186.471V9.40968L186.227 9.49368V9.92168L186.471 9.84168V10.6617L186.227 10.7377V11.1737L186.471 11.0897V11.7617H186.591V11.0577L187.043 10.9097V11.6097H187.163V10.8737L187.403 10.7897V10.3617L187.163 10.4417V9.62168L187.403 9.54568V9.10968L187.163 9.19368V8.51768H187.043Z" fill="white"/>
</g>
<defs>
<clipPath id="clip0_14_1694">
<rect width="19" height="19" fill="white" transform="translate(174.5 0.5)"/>
</clipPath>
</defs>
</svg>
