<svg width="194" height="20" viewBox="0 0 194 20" fill="none" xmlns="http://www.w3.org/2000/svg">
<g clip-path="url(#clip0_14_2095)">
<rect x="0.75" y="0.75" width="18.5" height="18.5" fill="#232323" stroke="#232323" stroke-width="0.5"/>
<path d="M9.17487 11.6097H8.81487V9.06968H7.91087C7.8922 9.21635 7.8722 9.37101 7.85087 9.53368C7.82954 9.69368 7.80687 9.85235 7.78287 10.0097C7.76154 10.167 7.7402 10.315 7.71887 10.4537C7.69754 10.5923 7.6762 10.7137 7.65487 10.8177C7.6202 10.9963 7.57754 11.1483 7.52687 11.2737C7.4762 11.399 7.4082 11.4937 7.32287 11.5577C7.2402 11.6217 7.13087 11.6537 6.99487 11.6537C6.94954 11.6537 6.90287 11.6483 6.85487 11.6377C6.80954 11.6297 6.76954 11.619 6.73487 11.6057V11.3057C6.7642 11.319 6.79754 11.331 6.83487 11.3417C6.8722 11.3497 6.9122 11.3537 6.95487 11.3537C7.03487 11.3537 7.09754 11.3217 7.14287 11.2577C7.19087 11.191 7.2282 11.1097 7.25487 11.0137C7.28154 10.915 7.3042 10.8177 7.32287 10.7217C7.33887 10.6443 7.35754 10.5417 7.37887 10.4137C7.4002 10.283 7.42287 10.131 7.44687 9.95768C7.47354 9.78435 7.5002 9.59635 7.52687 9.39368C7.5562 9.18835 7.5842 8.97501 7.61087 8.75368H9.17487V11.6097ZM10.8109 10.4257L10.0709 11.6097H9.6509L10.4509 10.3617C10.3496 10.327 10.2536 10.279 10.1629 10.2177C10.0749 10.1563 10.0029 10.0723 9.9469 9.96568C9.8909 9.85901 9.8629 9.72168 9.8629 9.55368C9.8629 9.29501 9.95223 9.09768 10.1309 8.96168C10.3096 8.82301 10.5762 8.75368 10.9309 8.75368H11.7309V11.6097H11.3709V10.4257H10.8109ZM10.9389 9.06168C10.7869 9.06168 10.6589 9.07901 10.5549 9.11368C10.4509 9.14835 10.3709 9.20301 10.3149 9.27768C10.2616 9.35235 10.2349 9.44968 10.2349 9.56968C10.2349 9.74568 10.2936 9.88168 10.4109 9.97768C10.5282 10.0737 10.7096 10.1217 10.9549 10.1217H11.3709V9.06168H10.9389ZM12.2536 11.6897C12.8176 11.2577 13.3816 10.8737 13.3816 10.4617C13.3816 10.1737 13.1136 9.95768 12.8336 9.95768C12.6336 9.95768 12.4816 10.0457 12.3776 10.2097L12.4136 8.78968H12.2536V11.6897ZM12.7096 10.1617C12.8656 10.1617 12.9856 10.2897 12.9856 10.4417C12.9856 10.7177 12.6496 11.2177 12.3936 11.4017C12.3776 11.3177 12.3656 11.1457 12.3656 10.8897V10.6777C12.3656 10.4417 12.4336 10.1617 12.7096 10.1617Z" fill="white"/>
</g>
<rect x="29.75" y="0.75" width="18.5" height="18.5" fill="#232323" stroke="#232323" stroke-width="0.5"/>
<path d="M37.2374 9.02968C37.0854 9.02968 36.9481 9.05635 36.8254 9.10968C36.7027 9.16035 36.5987 9.23635 36.5134 9.33768C36.4281 9.43635 36.3627 9.55768 36.3174 9.70168C36.2721 9.84301 36.2494 10.003 36.2494 10.1817C36.2494 10.4163 36.2854 10.6203 36.3574 10.7937C36.4321 10.967 36.5414 11.1003 36.6854 11.1937C36.8321 11.287 37.0147 11.3337 37.2334 11.3337C37.3587 11.3337 37.4774 11.323 37.5894 11.3017C37.7014 11.2803 37.8107 11.2537 37.9174 11.2217V11.5337C37.8107 11.5737 37.7001 11.603 37.5854 11.6217C37.4734 11.6403 37.3387 11.6497 37.1814 11.6497C36.8907 11.6497 36.6481 11.5897 36.4534 11.4697C36.2587 11.3497 36.1121 11.179 36.0134 10.9577C35.9174 10.7363 35.8694 10.4763 35.8694 10.1777C35.8694 9.96168 35.8987 9.76435 35.9574 9.58568C36.0187 9.40701 36.1067 9.25235 36.2214 9.12168C36.3387 8.99101 36.4827 8.89101 36.6534 8.82168C36.8241 8.74968 37.0201 8.71368 37.2414 8.71368C37.3881 8.71368 37.5294 8.72835 37.6654 8.75768C37.8014 8.78701 37.9227 8.82835 38.0294 8.88168L37.8854 9.18568C37.7974 9.14568 37.6987 9.10968 37.5894 9.07768C37.4827 9.04568 37.3654 9.02968 37.2374 9.02968ZM38.5447 8.75368H38.8807V10.3217C38.8807 10.3883 38.8794 10.4617 38.8767 10.5417C38.8767 10.619 38.8754 10.6963 38.8727 10.7737C38.8701 10.851 38.8661 10.9203 38.8607 10.9817C38.8581 11.0403 38.8554 11.0857 38.8527 11.1177H38.8687L40.4407 8.75368H40.8407V11.6097H40.5047V10.0577C40.5047 9.98568 40.5061 9.90835 40.5087 9.82568C40.5114 9.74035 40.5141 9.65901 40.5167 9.58168C40.5221 9.50168 40.5261 9.43101 40.5287 9.36968C40.5314 9.30835 40.5341 9.26301 40.5367 9.23368H40.5207L38.9447 11.6097H38.5447V8.75368ZM41.3591 11.6897C41.9231 11.2577 42.4871 10.8737 42.4871 10.4617C42.4871 10.1737 42.2191 9.95768 41.9391 9.95768C41.7391 9.95768 41.5871 10.0457 41.4831 10.2097L41.5191 8.78968H41.3591V11.6897ZM41.8151 10.1617C41.9711 10.1617 42.0911 10.2897 42.0911 10.4417C42.0911 10.7177 41.7551 11.2177 41.4991 11.4017C41.4831 11.3177 41.4711 11.1457 41.4711 10.8897V10.6777C41.4711 10.4417 41.5391 10.1617 41.8151 10.1617Z" fill="white"/>
<rect x="58.75" y="0.75" width="18.5" height="18.5" fill="white" stroke="#232323" stroke-width="0.5"/>
<path d="M67.4647 8.75368V11.2897H67.8287V12.3617H67.4847V11.6097H65.5207V12.3617H65.1767V11.2897H65.3967C65.4927 11.1243 65.5834 10.939 65.6687 10.7337C65.7567 10.5283 65.8341 10.3137 65.9007 10.0897C65.9674 9.86301 66.0221 9.63635 66.0647 9.40968C66.1074 9.18301 66.1341 8.96435 66.1447 8.75368H67.4647ZM66.4607 9.07768C66.4501 9.23235 66.4234 9.40701 66.3807 9.60168C66.3407 9.79635 66.2887 9.99635 66.2247 10.2017C66.1634 10.4043 66.0941 10.6003 66.0167 10.7897C65.9421 10.979 65.8621 11.1457 65.7767 11.2897H67.1087V9.07768H66.4607ZM70.7984 10.1777C70.7984 10.399 70.7704 10.6003 70.7144 10.7817C70.6584 10.9603 70.5744 11.115 70.4624 11.2457C70.353 11.3763 70.2157 11.4763 70.0504 11.5457C69.8877 11.615 69.6984 11.6497 69.4824 11.6497C69.2584 11.6497 69.0637 11.615 68.8984 11.5457C68.733 11.4737 68.5957 11.3737 68.4864 11.2457C68.377 11.115 68.2957 10.959 68.2424 10.7777C68.189 10.5963 68.1624 10.395 68.1624 10.1737C68.1624 9.88035 68.2104 9.62435 68.3064 9.40568C68.4024 9.18701 68.5477 9.01635 68.7424 8.89368C68.9397 8.77101 69.1877 8.70968 69.4864 8.70968C69.7717 8.70968 70.0117 8.77101 70.2064 8.89368C70.401 9.01368 70.5477 9.18435 70.6464 9.40568C70.7477 9.62435 70.7984 9.88168 70.7984 10.1777ZM68.5424 10.1777C68.5424 10.4177 68.5757 10.6243 68.6424 10.7977C68.709 10.971 68.8117 11.1043 68.9504 11.1977C69.0917 11.291 69.269 11.3377 69.4824 11.3377C69.6984 11.3377 69.8744 11.291 70.0104 11.1977C70.149 11.1043 70.2517 10.971 70.3184 10.7977C70.385 10.6243 70.4184 10.4177 70.4184 10.1777C70.4184 9.81768 70.3437 9.53635 70.1944 9.33368C70.045 9.12835 69.809 9.02568 69.4864 9.02568C69.2704 9.02568 69.0917 9.07235 68.9504 9.16568C68.8117 9.25635 68.709 9.38835 68.6424 9.56168C68.5757 9.73235 68.5424 9.93768 68.5424 10.1777Z" fill="#232323"/>
<rect x="87.75" y="0.75" width="18.5" height="18.5" fill="#232323" stroke="#232323" stroke-width="0.5"/>
<path d="M95.246 8.75368C95.6193 8.75368 95.8913 8.82701 96.062 8.97368C96.2326 9.12035 96.318 9.32701 96.318 9.59368C96.318 9.71101 96.298 9.82435 96.258 9.93368C96.2206 10.0403 96.158 10.1363 96.07 10.2217C95.982 10.307 95.8646 10.375 95.718 10.4257C95.5713 10.4737 95.3913 10.4977 95.178 10.4977H94.85V11.6097H94.49V8.75368H95.246ZM95.214 9.06168H94.85V10.1897H95.138C95.3193 10.1897 95.47 10.171 95.59 10.1337C95.71 10.0937 95.7993 10.031 95.858 9.94568C95.9166 9.86035 95.946 9.74835 95.946 9.60968C95.946 9.42568 95.8873 9.28835 95.77 9.19768C95.6526 9.10701 95.4673 9.06168 95.214 9.06168ZM98.5078 11.6097H96.9118V8.75368H98.5078V9.06968H97.2718V9.96168H98.4358V10.2737H97.2718V11.2937H98.5078V11.6097ZM98.8825 11.6897C99.4465 11.2577 100.01 10.8737 100.01 10.4617C100.01 10.1737 99.7425 9.95768 99.4625 9.95768C99.2625 9.95768 99.1105 10.0457 99.0065 10.2097L99.0425 8.78968H98.8825V11.6897ZM99.3385 10.1617C99.4945 10.1617 99.6145 10.2897 99.6145 10.4417C99.6145 10.7177 99.2785 11.2177 99.0225 11.4017C99.0065 11.3177 98.9945 11.1457 98.9945 10.8897V10.6777C98.9945 10.4417 99.0625 10.1617 99.3385 10.1617Z" fill="white"/>
<rect x="116.75" y="0.75" width="18.5" height="18.5" fill="#232323" stroke="#232323" stroke-width="0.5"/>
<path d="M123.723 11.6097L122.783 9.10568H122.767C122.772 9.15901 122.776 9.22701 122.779 9.30968C122.784 9.39235 122.788 9.48301 122.791 9.58168C122.793 9.67768 122.795 9.77635 122.795 9.87768V11.6097H122.463V8.75368H122.995L123.875 11.0937H123.891L124.787 8.75368H125.315V11.6097H124.959V9.85368C124.959 9.76035 124.96 9.66835 124.963 9.57768C124.965 9.48435 124.969 9.39768 124.975 9.31768C124.98 9.23501 124.984 9.16568 124.987 9.10968H124.971L124.019 11.6097H123.723ZM126.096 8.75368H126.432V10.3217C126.432 10.3883 126.43 10.4617 126.428 10.5417C126.428 10.619 126.426 10.6963 126.424 10.7737C126.421 10.851 126.417 10.9203 126.412 10.9817C126.409 11.0403 126.406 11.0857 126.404 11.1177H126.42L127.992 8.75368H128.392V11.6097H128.056V10.0577C128.056 9.98568 128.057 9.90835 128.06 9.82568C128.062 9.74035 128.065 9.65901 128.068 9.58168C128.073 9.50168 128.077 9.43101 128.08 9.36968C128.082 9.30835 128.085 9.26301 128.088 9.23368H128.072L126.496 11.6097H126.096V8.75368ZM128.91 11.6897C129.474 11.2577 130.038 10.8737 130.038 10.4617C130.038 10.1737 129.77 9.95768 129.49 9.95768C129.29 9.95768 129.138 10.0457 129.034 10.2097L129.07 8.78968H128.91V11.6897ZM129.366 10.1617C129.522 10.1617 129.642 10.2897 129.642 10.4417C129.642 10.7177 129.306 11.2177 129.05 11.4017C129.034 11.3177 129.022 11.1457 129.022 10.8897V10.6777C129.022 10.4417 129.09 10.1617 129.366 10.1617Z" fill="white"/>
<rect x="145.75" y="0.75" width="18.5" height="18.5" fill="white" stroke="#232323" stroke-width="0.5"/>
<path d="M153.997 8.71368V9.06568C154.307 9.07101 154.551 9.12168 154.729 9.21768C154.908 9.31368 155.035 9.44168 155.109 9.60168C155.184 9.75901 155.221 9.93501 155.221 10.1297C155.221 10.2577 155.201 10.3857 155.161 10.5137C155.124 10.639 155.059 10.7537 154.965 10.8577C154.872 10.959 154.747 11.0417 154.589 11.1057C154.432 11.1697 154.235 11.2043 153.997 11.2097V11.6497H153.641V11.2097C153.399 11.2043 153.197 11.1697 153.037 11.1057C152.88 11.039 152.756 10.9537 152.665 10.8497C152.575 10.743 152.511 10.627 152.473 10.5017C152.436 10.3763 152.417 10.2523 152.417 10.1297C152.417 9.98835 152.437 9.85501 152.477 9.72968C152.52 9.60168 152.588 9.48968 152.681 9.39368C152.777 9.29501 152.904 9.21635 153.061 9.15768C153.219 9.09901 153.412 9.06835 153.641 9.06568V8.71368H153.997ZM153.641 9.36968C153.428 9.37501 153.257 9.40968 153.129 9.47368C153.004 9.53768 152.915 9.62568 152.861 9.73768C152.808 9.84701 152.781 9.97635 152.781 10.1257C152.781 10.283 152.811 10.4203 152.869 10.5377C152.931 10.6523 153.024 10.7417 153.149 10.8057C153.277 10.8697 153.441 10.9057 153.641 10.9137V9.36968ZM153.997 10.9137C154.203 10.9057 154.368 10.8683 154.493 10.8017C154.621 10.735 154.713 10.6443 154.769 10.5297C154.828 10.4123 154.857 10.2777 154.857 10.1257C154.857 9.97368 154.831 9.84301 154.777 9.73368C154.724 9.62168 154.635 9.53501 154.509 9.47368C154.384 9.40968 154.213 9.37501 153.997 9.36968V10.9137ZM157.608 11.6097L157.264 10.7257H156.132L155.792 11.6097H155.428L156.544 8.74168H156.868L157.98 11.6097H157.608ZM156.836 9.54168C156.828 9.52035 156.815 9.48168 156.796 9.42568C156.777 9.36968 156.759 9.31235 156.74 9.25368C156.724 9.19235 156.711 9.14568 156.7 9.11368C156.687 9.16701 156.672 9.22168 156.656 9.27768C156.643 9.33101 156.628 9.38035 156.612 9.42568C156.599 9.47101 156.587 9.50968 156.576 9.54168L156.252 10.4057H157.156L156.836 9.54168Z" fill="#232323"/>
<rect x="174.75" y="0.75" width="18.5" height="18.5" fill="white" stroke="#232323" stroke-width="0.5"/>
<path d="M180.263 9.02968C180.111 9.02968 179.973 9.05635 179.851 9.10968C179.728 9.16035 179.624 9.23635 179.539 9.33768C179.453 9.43635 179.388 9.55768 179.343 9.70168C179.297 9.84301 179.275 10.003 179.275 10.1817C179.275 10.4163 179.311 10.6203 179.383 10.7937C179.457 10.967 179.567 11.1003 179.711 11.1937C179.857 11.287 180.04 11.3337 180.259 11.3337C180.384 11.3337 180.503 11.323 180.615 11.3017C180.727 11.2803 180.836 11.2537 180.943 11.2217V11.5337C180.836 11.5737 180.725 11.603 180.611 11.6217C180.499 11.6403 180.364 11.6497 180.207 11.6497C179.916 11.6497 179.673 11.5897 179.479 11.4697C179.284 11.3497 179.137 11.179 179.039 10.9577C178.943 10.7363 178.895 10.4763 178.895 10.1777C178.895 9.96168 178.924 9.76435 178.983 9.58568C179.044 9.40701 179.132 9.25235 179.247 9.12168C179.364 8.99101 179.508 8.89101 179.679 8.82168C179.849 8.74968 180.045 8.71368 180.267 8.71368C180.413 8.71368 180.555 8.72835 180.691 8.75768C180.827 8.78701 180.948 8.82835 181.055 8.88168L180.911 9.18568C180.823 9.14568 180.724 9.10968 180.615 9.07768C180.508 9.04568 180.391 9.02968 180.263 9.02968ZM183.98 10.1777C183.98 10.399 183.952 10.6003 183.896 10.7817C183.84 10.9603 183.756 11.115 183.644 11.2457C183.535 11.3763 183.397 11.4763 183.232 11.5457C183.069 11.615 182.88 11.6497 182.664 11.6497C182.44 11.6497 182.245 11.615 182.08 11.5457C181.915 11.4737 181.777 11.3737 181.668 11.2457C181.559 11.115 181.477 10.959 181.424 10.7777C181.371 10.5963 181.344 10.395 181.344 10.1737C181.344 9.88035 181.392 9.62435 181.488 9.40568C181.584 9.18701 181.729 9.01635 181.924 8.89368C182.121 8.77101 182.369 8.70968 182.668 8.70968C182.953 8.70968 183.193 8.77101 183.388 8.89368C183.583 9.01368 183.729 9.18435 183.828 9.40568C183.929 9.62435 183.98 9.88168 183.98 10.1777ZM181.724 10.1777C181.724 10.4177 181.757 10.6243 181.824 10.7977C181.891 10.971 181.993 11.1043 182.132 11.1977C182.273 11.291 182.451 11.3377 182.664 11.3377C182.88 11.3377 183.056 11.291 183.192 11.1977C183.331 11.1043 183.433 10.971 183.5 10.7977C183.567 10.6243 183.6 10.4177 183.6 10.1777C183.6 9.81768 183.525 9.53635 183.376 9.33368C183.227 9.12835 182.991 9.02568 182.668 9.02568C182.452 9.02568 182.273 9.07235 182.132 9.16568C181.993 9.25635 181.891 9.38835 181.824 9.56168C181.757 9.73235 181.724 9.93768 181.724 10.1777ZM186.591 11.6097H186.231V9.06968H185.327C185.308 9.21635 185.288 9.37101 185.267 9.53368C185.246 9.69368 185.223 9.85235 185.199 10.0097C185.178 10.167 185.156 10.315 185.135 10.4537C185.114 10.5923 185.092 10.7137 185.071 10.8177C185.036 10.9963 184.994 11.1483 184.943 11.2737C184.892 11.399 184.824 11.4937 184.739 11.5577C184.656 11.6217 184.547 11.6537 184.411 11.6537C184.366 11.6537 184.319 11.6483 184.271 11.6377C184.226 11.6297 184.186 11.619 184.151 11.6057V11.3057C184.18 11.319 184.214 11.331 184.251 11.3417C184.288 11.3497 184.328 11.3537 184.371 11.3537C184.451 11.3537 184.514 11.3217 184.559 11.2577C184.607 11.191 184.644 11.1097 184.671 11.0137C184.698 10.915 184.72 10.8177 184.739 10.7217C184.755 10.6443 184.774 10.5417 184.795 10.4137C184.816 10.283 184.839 10.131 184.863 9.95768C184.89 9.78435 184.916 9.59635 184.943 9.39368C184.972 9.18835 185 8.97501 185.027 8.75368H186.591V11.6097ZM187.367 11.6097V8.75368H187.727V9.96168H188.263C188.53 9.96168 188.742 9.99768 188.899 10.0697C189.056 10.1417 189.17 10.239 189.239 10.3617C189.308 10.4843 189.343 10.6217 189.343 10.7737C189.343 10.9417 189.304 11.0883 189.227 11.2137C189.152 11.339 189.039 11.4363 188.887 11.5057C188.735 11.575 188.542 11.6097 188.307 11.6097H187.367ZM188.271 11.3017C188.503 11.3017 188.678 11.259 188.795 11.1737C188.912 11.0857 188.971 10.9523 188.971 10.7737C188.971 10.651 188.942 10.5537 188.883 10.4817C188.827 10.407 188.743 10.3537 188.631 10.3217C188.522 10.2897 188.384 10.2737 188.219 10.2737H187.727V11.3017H188.271Z" fill="#232323"/>
<defs>
<clipPath id="clip0_14_2095">
<rect width="19" height="19" fill="white" transform="translate(0.5 0.5)"/>
</clipPath>
</defs>
</svg>
