<svg width="194" height="20" viewBox="0 0 194 20" fill="none" xmlns="http://www.w3.org/2000/svg">
<g clip-path="url(#clip0_14_2044)">
<rect x="0.75" y="0.75" width="18.5" height="18.5" fill="#232323" stroke="#232323" stroke-width="0.5"/>
<path d="M5.58896 9.02968C5.43696 9.02968 5.29963 9.05635 5.17696 9.10968C5.0543 9.16035 4.9503 9.23635 4.86496 9.33768C4.77963 9.43635 4.7143 9.55768 4.66896 9.70168C4.62363 9.84301 4.60096 10.003 4.60096 10.1817C4.60096 10.4163 4.63696 10.6203 4.70896 10.7937C4.78363 10.967 4.89296 11.1003 5.03696 11.1937C5.18363 11.287 5.3663 11.3337 5.58496 11.3337C5.7103 11.3337 5.82896 11.323 5.94096 11.3017C6.05296 11.2803 6.1623 11.2537 6.26896 11.2217V11.5337C6.1623 11.5737 6.05163 11.603 5.93696 11.6217C5.82496 11.6403 5.6903 11.6497 5.53296 11.6497C5.2423 11.6497 4.99963 11.5897 4.80496 11.4697C4.6103 11.3497 4.46363 11.179 4.36496 10.9577C4.26896 10.7363 4.22096 10.4763 4.22096 10.1777C4.22096 9.96168 4.2503 9.76435 4.30896 9.58568C4.3703 9.40701 4.4583 9.25235 4.57296 9.12168C4.6903 8.99101 4.8343 8.89101 5.00496 8.82168C5.17563 8.74968 5.37163 8.71368 5.59296 8.71368C5.73963 8.71368 5.88096 8.72835 6.01696 8.75768C6.15296 8.78701 6.2743 8.82835 6.38096 8.88168L6.23696 9.18568C6.14896 9.14568 6.0503 9.10968 5.94096 9.07768C5.8343 9.04568 5.71696 9.02968 5.58896 9.02968ZM9.30618 10.1777C9.30618 10.399 9.27818 10.6003 9.22218 10.7817C9.16618 10.9603 9.08218 11.115 8.97018 11.2457C8.86085 11.3763 8.72352 11.4763 8.55818 11.5457C8.39552 11.615 8.20618 11.6497 7.99018 11.6497C7.76618 11.6497 7.57152 11.615 7.40618 11.5457C7.24085 11.4737 7.10352 11.3737 6.99418 11.2457C6.88485 11.115 6.80352 10.959 6.75018 10.7777C6.69685 10.5963 6.67018 10.395 6.67018 10.1737C6.67018 9.88035 6.71818 9.62435 6.81418 9.40568C6.91018 9.18701 7.05552 9.01635 7.25018 8.89368C7.44752 8.77101 7.69552 8.70968 7.99418 8.70968C8.27952 8.70968 8.51952 8.77101 8.71418 8.89368C8.90885 9.01368 9.05552 9.18435 9.15418 9.40568C9.25552 9.62435 9.30618 9.88168 9.30618 10.1777ZM7.05018 10.1777C7.05018 10.4177 7.08352 10.6243 7.15018 10.7977C7.21685 10.971 7.31952 11.1043 7.45818 11.1977C7.59952 11.291 7.77685 11.3377 7.99018 11.3377C8.20618 11.3377 8.38218 11.291 8.51818 11.1977C8.65685 11.1043 8.75952 10.971 8.82618 10.7977C8.89285 10.6243 8.92618 10.4177 8.92618 10.1777C8.92618 9.81768 8.85152 9.53635 8.70218 9.33368C8.55285 9.12835 8.31685 9.02568 7.99418 9.02568C7.77818 9.02568 7.59952 9.07235 7.45818 9.16568C7.31952 9.25635 7.21685 9.38835 7.15018 9.56168C7.08352 9.73235 7.05018 9.93768 7.05018 10.1777ZM11.9171 11.6097H11.5571V9.06968H10.6531C10.6344 9.21635 10.6144 9.37101 10.5931 9.53368C10.5717 9.69368 10.5491 9.85235 10.5251 10.0097C10.5037 10.167 10.4824 10.315 10.4611 10.4537C10.4397 10.5923 10.4184 10.7137 10.3971 10.8177C10.3624 10.9963 10.3197 11.1483 10.2691 11.2737C10.2184 11.399 10.1504 11.4937 10.0651 11.5577C9.98239 11.6217 9.87306 11.6537 9.73706 11.6537C9.69172 11.6537 9.64506 11.6483 9.59706 11.6377C9.55172 11.6297 9.51172 11.619 9.47706 11.6057V11.3057C9.50639 11.319 9.53972 11.331 9.57706 11.3417C9.61439 11.3497 9.65439 11.3537 9.69706 11.3537C9.77706 11.3537 9.83972 11.3217 9.88506 11.2577C9.93306 11.191 9.97039 11.1097 9.99706 11.0137C10.0237 10.915 10.0464 10.8177 10.0651 10.7217C10.0811 10.6443 10.0997 10.5417 10.1211 10.4137C10.1424 10.283 10.1651 10.131 10.1891 9.95768C10.2157 9.78435 10.2424 9.59635 10.2691 9.39368C10.2984 9.18835 10.3264 8.97501 10.3531 8.75368H11.9171V11.6097ZM12.6931 11.6097V8.75368H13.0531V9.96168H13.5891C13.8558 9.96168 14.0678 9.99768 14.2251 10.0697C14.3824 10.1417 14.4958 10.239 14.5651 10.3617C14.6344 10.4843 14.6691 10.6217 14.6691 10.7737C14.6691 10.9417 14.6304 11.0883 14.5531 11.2137C14.4784 11.339 14.3651 11.4363 14.2131 11.5057C14.0611 11.575 13.8678 11.6097 13.6331 11.6097H12.6931ZM13.5971 11.3017C13.8291 11.3017 14.0038 11.259 14.1211 11.1737C14.2384 11.0857 14.2971 10.9523 14.2971 10.7737C14.2971 10.651 14.2678 10.5537 14.2091 10.4817C14.1531 10.407 14.0691 10.3537 13.9571 10.3217C13.8478 10.2897 13.7104 10.2737 13.5451 10.2737H13.0531V11.3017H13.5971ZM15.0075 11.6897C15.5715 11.2577 16.1355 10.8737 16.1355 10.4617C16.1355 10.1737 15.8675 9.95768 15.5875 9.95768C15.3875 9.95768 15.2355 10.0457 15.1315 10.2097L15.1675 8.78968H15.0075V11.6897ZM15.4635 10.1617C15.6195 10.1617 15.7395 10.2897 15.7395 10.4417C15.7395 10.7177 15.4035 11.2177 15.1475 11.4017C15.1315 11.3177 15.1195 11.1457 15.1195 10.8897V10.6777C15.1195 10.4417 15.1875 10.1617 15.4635 10.1617Z" fill="white"/>
</g>
<rect x="29.75" y="0.75" width="18.5" height="18.5" fill="#232323" stroke="#232323" stroke-width="0.5"/>
<path d="M38.1749 11.6097H37.8149V9.06968H36.9109C36.8922 9.21635 36.8722 9.37101 36.8509 9.53368C36.8295 9.69368 36.8069 9.85235 36.7829 10.0097C36.7615 10.167 36.7402 10.315 36.7189 10.4537C36.6975 10.5923 36.6762 10.7137 36.6549 10.8177C36.6202 10.9963 36.5775 11.1483 36.5269 11.2737C36.4762 11.399 36.4082 11.4937 36.3229 11.5577C36.2402 11.6217 36.1309 11.6537 35.9949 11.6537C35.9495 11.6537 35.9029 11.6483 35.8549 11.6377C35.8095 11.6297 35.7695 11.619 35.7349 11.6057V11.3057C35.7642 11.319 35.7975 11.331 35.8349 11.3417C35.8722 11.3497 35.9122 11.3537 35.9549 11.3537C36.0349 11.3537 36.0975 11.3217 36.1429 11.2577C36.1909 11.191 36.2282 11.1097 36.2549 11.0137C36.2815 10.915 36.3042 10.8177 36.3229 10.7217C36.3389 10.6443 36.3575 10.5417 36.3789 10.4137C36.4002 10.283 36.4229 10.131 36.4469 9.95768C36.4735 9.78435 36.5002 9.59635 36.5269 9.39368C36.5562 9.18835 36.5842 8.97501 36.6109 8.75368H38.1749V11.6097ZM39.8109 10.4257L39.0709 11.6097H38.6509L39.4509 10.3617C39.3496 10.327 39.2536 10.279 39.1629 10.2177C39.0749 10.1563 39.0029 10.0723 38.9469 9.96568C38.8909 9.85901 38.8629 9.72168 38.8629 9.55368C38.8629 9.29501 38.9522 9.09768 39.1309 8.96168C39.3096 8.82301 39.5762 8.75368 39.9309 8.75368H40.7309V11.6097H40.3709V10.4257H39.8109ZM39.9389 9.06168C39.7869 9.06168 39.6589 9.07901 39.5549 9.11368C39.4509 9.14835 39.3709 9.20301 39.3149 9.27768C39.2616 9.35235 39.2349 9.44968 39.2349 9.56968C39.2349 9.74568 39.2936 9.88168 39.4109 9.97768C39.5282 10.0737 39.7096 10.1217 39.9549 10.1217H40.3709V9.06168H39.9389ZM41.2536 11.6897C41.8176 11.2577 42.3816 10.8737 42.3816 10.4617C42.3816 10.1737 42.1136 9.95768 41.8336 9.95768C41.6336 9.95768 41.4816 10.0457 41.3776 10.2097L41.4136 8.78968H41.2536V11.6897ZM41.7096 10.1617C41.8656 10.1617 41.9856 10.2897 41.9856 10.4417C41.9856 10.7177 41.6496 11.2177 41.3936 11.4017C41.3776 11.3177 41.3656 11.1457 41.3656 10.8897V10.6777C41.3656 10.4417 41.4336 10.1617 41.7096 10.1617Z" fill="white"/>
<rect x="58.75" y="0.75" width="18.5" height="18.5" fill="#232323" stroke="#232323" stroke-width="0.5"/>
<path d="M66.2374 9.02968C66.0854 9.02968 65.9481 9.05635 65.8254 9.10968C65.7027 9.16035 65.5987 9.23635 65.5134 9.33768C65.4281 9.43635 65.3627 9.55768 65.3174 9.70168C65.2721 9.84301 65.2494 10.003 65.2494 10.1817C65.2494 10.4163 65.2854 10.6203 65.3574 10.7937C65.4321 10.967 65.5414 11.1003 65.6854 11.1937C65.8321 11.287 66.0147 11.3337 66.2334 11.3337C66.3587 11.3337 66.4774 11.323 66.5894 11.3017C66.7014 11.2803 66.8107 11.2537 66.9174 11.2217V11.5337C66.8107 11.5737 66.7001 11.603 66.5854 11.6217C66.4734 11.6403 66.3387 11.6497 66.1814 11.6497C65.8907 11.6497 65.6481 11.5897 65.4534 11.4697C65.2587 11.3497 65.1121 11.179 65.0134 10.9577C64.9174 10.7363 64.8694 10.4763 64.8694 10.1777C64.8694 9.96168 64.8987 9.76435 64.9574 9.58568C65.0187 9.40701 65.1067 9.25235 65.2214 9.12168C65.3387 8.99101 65.4827 8.89101 65.6534 8.82168C65.8241 8.74968 66.0201 8.71368 66.2414 8.71368C66.3881 8.71368 66.5294 8.72835 66.6654 8.75768C66.8014 8.78701 66.9227 8.82835 67.0294 8.88168L66.8854 9.18568C66.7974 9.14568 66.6987 9.10968 66.5894 9.07768C66.4827 9.04568 66.3654 9.02968 66.2374 9.02968ZM67.5447 8.75368H67.8807V10.3217C67.8807 10.3883 67.8794 10.4617 67.8767 10.5417C67.8767 10.619 67.8754 10.6963 67.8727 10.7737C67.8701 10.851 67.8661 10.9203 67.8607 10.9817C67.8581 11.0403 67.8554 11.0857 67.8527 11.1177H67.8687L69.4407 8.75368H69.8407V11.6097H69.5047V10.0577C69.5047 9.98568 69.5061 9.90835 69.5087 9.82568C69.5114 9.74035 69.5141 9.65901 69.5167 9.58168C69.5221 9.50168 69.5261 9.43101 69.5287 9.36968C69.5314 9.30835 69.5341 9.26301 69.5367 9.23368H69.5207L67.9447 11.6097H67.5447V8.75368ZM70.3591 11.6897C70.9231 11.2577 71.4871 10.8737 71.4871 10.4617C71.4871 10.1737 71.2191 9.95768 70.9391 9.95768C70.7391 9.95768 70.5871 10.0457 70.4831 10.2097L70.5191 8.78968H70.3591V11.6897ZM70.8151 10.1617C70.9711 10.1617 71.0911 10.2897 71.0911 10.4417C71.0911 10.7177 70.7551 11.2177 70.4991 11.4017C70.4831 11.3177 70.4711 11.1457 70.4711 10.8897V10.6777C70.4711 10.4417 70.5391 10.1617 70.8151 10.1617Z" fill="white"/>
<rect x="87.75" y="0.75" width="18.5" height="18.5" fill="#232323" stroke="#232323" stroke-width="0.5"/>
<ellipse cx="96.7326" cy="10.0573" rx="5.68159" ry="5.68159" fill="white"/>
<path d="M95.7909 8.75368V11.2897H96.1549V12.3617H95.8109V11.6097H93.8469V12.3617H93.5029V11.2897H93.7229C93.8189 11.1243 93.9096 10.939 93.9949 10.7337C94.0829 10.5283 94.1602 10.3137 94.2269 10.0897C94.2936 9.86301 94.3482 9.63635 94.3909 9.40968C94.4336 9.18301 94.4602 8.96435 94.4709 8.75368H95.7909ZM94.7869 9.07768C94.7762 9.23235 94.7496 9.40701 94.7069 9.60168C94.6669 9.79635 94.6149 9.99635 94.5509 10.2017C94.4896 10.4043 94.4202 10.6003 94.3429 10.7897C94.2682 10.979 94.1882 11.1457 94.1029 11.2897H95.4349V9.07768H94.7869ZM99.1245 10.1777C99.1245 10.399 99.0965 10.6003 99.0405 10.7817C98.9845 10.9603 98.9005 11.115 98.7885 11.2457C98.6792 11.3763 98.5419 11.4763 98.3765 11.5457C98.2139 11.615 98.0245 11.6497 97.8085 11.6497C97.5845 11.6497 97.3899 11.615 97.2245 11.5457C97.0592 11.4737 96.9219 11.3737 96.8125 11.2457C96.7032 11.115 96.6219 10.959 96.5685 10.7777C96.5152 10.5963 96.4885 10.395 96.4885 10.1737C96.4885 9.88035 96.5365 9.62435 96.6325 9.40568C96.7285 9.18701 96.8739 9.01635 97.0685 8.89368C97.2659 8.77101 97.5139 8.70968 97.8125 8.70968C98.0979 8.70968 98.3379 8.77101 98.5325 8.89368C98.7272 9.01368 98.8739 9.18435 98.9725 9.40568C99.0739 9.62435 99.1245 9.88168 99.1245 10.1777ZM96.8685 10.1777C96.8685 10.4177 96.9019 10.6243 96.9685 10.7977C97.0352 10.971 97.1379 11.1043 97.2765 11.1977C97.4179 11.291 97.5952 11.3377 97.8085 11.3377C98.0245 11.3377 98.2005 11.291 98.3365 11.1977C98.4752 11.1043 98.5779 10.971 98.6445 10.7977C98.7112 10.6243 98.7445 10.4177 98.7445 10.1777C98.7445 9.81768 98.6699 9.53635 98.5205 9.33368C98.3712 9.12835 98.1352 9.02568 97.8125 9.02568C97.5965 9.02568 97.4179 9.07235 97.2765 9.16568C97.1379 9.25635 97.0352 9.38835 96.9685 9.56168C96.9019 9.73235 96.8685 9.93768 96.8685 10.1777ZM99.5055 11.6897C100.07 11.2577 100.634 10.8737 100.634 10.4617C100.634 10.1737 100.366 9.95768 100.086 9.95768C99.8855 9.95768 99.7335 10.0457 99.6295 10.2097L99.6655 8.78968H99.5055V11.6897ZM99.9615 10.1617C100.118 10.1617 100.238 10.2897 100.238 10.4417C100.238 10.7177 99.9015 11.2177 99.6455 11.4017C99.6295 11.3177 99.6175 11.1457 99.6175 10.8897V10.6777C99.6175 10.4417 99.6855 10.1617 99.9615 10.1617Z" fill="#232323"/>
<rect x="116.75" y="0.75" width="18.5" height="18.5" fill="#232323" stroke="#232323" stroke-width="0.5"/>
<path d="M124.246 8.75368C124.619 8.75368 124.891 8.82701 125.062 8.97368C125.233 9.12035 125.318 9.32701 125.318 9.59368C125.318 9.71101 125.298 9.82435 125.258 9.93368C125.221 10.0403 125.158 10.1363 125.07 10.2217C124.982 10.307 124.865 10.375 124.718 10.4257C124.571 10.4737 124.391 10.4977 124.178 10.4977H123.85V11.6097H123.49V8.75368H124.246ZM124.214 9.06168H123.85V10.1897H124.138C124.319 10.1897 124.47 10.171 124.59 10.1337C124.71 10.0937 124.799 10.031 124.858 9.94568C124.917 9.86035 124.946 9.74835 124.946 9.60968C124.946 9.42568 124.887 9.28835 124.77 9.19768C124.653 9.10701 124.467 9.06168 124.214 9.06168ZM127.508 11.6097H125.912V8.75368H127.508V9.06968H126.272V9.96168H127.436V10.2737H126.272V11.2937H127.508V11.6097ZM127.882 11.6897C128.446 11.2577 129.01 10.8737 129.01 10.4617C129.01 10.1737 128.742 9.95768 128.462 9.95768C128.262 9.95768 128.11 10.0457 128.006 10.2097L128.042 8.78968H127.882V11.6897ZM128.338 10.1617C128.494 10.1617 128.614 10.2897 128.614 10.4417C128.614 10.7177 128.278 11.2177 128.022 11.4017C128.006 11.3177 127.994 11.1457 127.994 10.8897V10.6777C127.994 10.4417 128.062 10.1617 128.338 10.1617Z" fill="white"/>
<rect x="145.75" y="0.75" width="18.5" height="18.5" fill="#232323" stroke="#232323" stroke-width="0.5"/>
<path d="M152.723 11.6097L151.783 9.10568H151.767C151.772 9.15901 151.776 9.22701 151.779 9.30968C151.784 9.39235 151.788 9.48301 151.791 9.58168C151.793 9.67768 151.795 9.77635 151.795 9.87768V11.6097H151.463V8.75368H151.995L152.875 11.0937H152.891L153.787 8.75368H154.315V11.6097H153.959V9.85368C153.959 9.76035 153.96 9.66835 153.963 9.57768C153.965 9.48435 153.969 9.39768 153.975 9.31768C153.98 9.23501 153.984 9.16568 153.987 9.10968H153.971L153.019 11.6097H152.723ZM155.096 8.75368H155.432V10.3217C155.432 10.3883 155.43 10.4617 155.428 10.5417C155.428 10.619 155.426 10.6963 155.424 10.7737C155.421 10.851 155.417 10.9203 155.412 10.9817C155.409 11.0403 155.406 11.0857 155.404 11.1177H155.42L156.992 8.75368H157.392V11.6097H157.056V10.0577C157.056 9.98568 157.057 9.90835 157.06 9.82568C157.062 9.74035 157.065 9.65901 157.068 9.58168C157.073 9.50168 157.077 9.43101 157.08 9.36968C157.082 9.30835 157.085 9.26301 157.088 9.23368H157.072L155.496 11.6097H155.096V8.75368ZM157.91 11.6897C158.474 11.2577 159.038 10.8737 159.038 10.4617C159.038 10.1737 158.77 9.95768 158.49 9.95768C158.29 9.95768 158.138 10.0457 158.034 10.2097L158.07 8.78968H157.91V11.6897ZM158.366 10.1617C158.522 10.1617 158.642 10.2897 158.642 10.4417C158.642 10.7177 158.306 11.2177 158.05 11.4017C158.034 11.3177 158.022 11.1457 158.022 10.8897V10.6777C158.022 10.4417 158.09 10.1617 158.366 10.1617Z" fill="white"/>
<rect x="174.75" y="0.75" width="18.5" height="18.5" fill="white" stroke="#232323" stroke-width="0.5"/>
<path d="M182.997 8.71368V9.06568C183.307 9.07101 183.551 9.12168 183.729 9.21768C183.908 9.31368 184.035 9.44168 184.109 9.60168C184.184 9.75901 184.221 9.93501 184.221 10.1297C184.221 10.2577 184.201 10.3857 184.161 10.5137C184.124 10.639 184.059 10.7537 183.965 10.8577C183.872 10.959 183.747 11.0417 183.589 11.1057C183.432 11.1697 183.235 11.2043 182.997 11.2097V11.6497H182.641V11.2097C182.399 11.2043 182.197 11.1697 182.037 11.1057C181.88 11.039 181.756 10.9537 181.665 10.8497C181.575 10.743 181.511 10.627 181.473 10.5017C181.436 10.3763 181.417 10.2523 181.417 10.1297C181.417 9.98835 181.437 9.85501 181.477 9.72968C181.52 9.60168 181.588 9.48968 181.681 9.39368C181.777 9.29501 181.904 9.21635 182.061 9.15768C182.219 9.09901 182.412 9.06835 182.641 9.06568V8.71368H182.997ZM182.641 9.36968C182.428 9.37501 182.257 9.40968 182.129 9.47368C182.004 9.53768 181.915 9.62568 181.861 9.73768C181.808 9.84701 181.781 9.97635 181.781 10.1257C181.781 10.283 181.811 10.4203 181.869 10.5377C181.931 10.6523 182.024 10.7417 182.149 10.8057C182.277 10.8697 182.441 10.9057 182.641 10.9137V9.36968ZM182.997 10.9137C183.203 10.9057 183.368 10.8683 183.493 10.8017C183.621 10.735 183.713 10.6443 183.769 10.5297C183.828 10.4123 183.857 10.2777 183.857 10.1257C183.857 9.97368 183.831 9.84301 183.777 9.73368C183.724 9.62168 183.635 9.53501 183.509 9.47368C183.384 9.40968 183.213 9.37501 182.997 9.36968V10.9137ZM186.608 11.6097L186.264 10.7257H185.132L184.792 11.6097H184.428L185.544 8.74168H185.868L186.98 11.6097H186.608ZM185.836 9.54168C185.828 9.52035 185.815 9.48168 185.796 9.42568C185.777 9.36968 185.759 9.31235 185.74 9.25368C185.724 9.19235 185.711 9.14568 185.7 9.11368C185.687 9.16701 185.672 9.22168 185.656 9.27768C185.643 9.33101 185.628 9.38035 185.612 9.42568C185.599 9.47101 185.587 9.50968 185.576 9.54168L185.252 10.4057H186.156L185.836 9.54168Z" fill="#232323"/>
<defs>
<clipPath id="clip0_14_2044">
<rect width="19" height="19" fill="white" transform="translate(0.5 0.5)"/>
</clipPath>
</defs>
</svg>
