<svg width="194" height="20" viewBox="0 0 194 20" fill="none" xmlns="http://www.w3.org/2000/svg">
<rect x="0.75" y="0.75" width="18.5" height="18.5" fill="white" stroke="#232323" stroke-width="0.5"/>
<path d="M8.39645 11.6097L7.45645 9.10568H7.44045C7.44578 9.15901 7.44978 9.22701 7.45245 9.30968C7.45778 9.39235 7.46178 9.48301 7.46445 9.58168C7.46711 9.67768 7.46845 9.77635 7.46845 9.87768V11.6097H7.13645V8.75368H7.66845L8.54845 11.0937H8.56445L9.46045 8.75368H9.98845V11.6097H9.63245V9.85368C9.63245 9.76035 9.63378 9.66835 9.63645 9.57768C9.63911 9.48435 9.64311 9.39768 9.64845 9.31768C9.65378 9.23501 9.65778 9.16568 9.66045 9.10968H9.64445L8.69245 11.6097H8.39645ZM10.7694 8.75368H11.1054V10.3217C11.1054 10.3883 11.104 10.4617 11.1014 10.5417C11.1014 10.619 11.1 10.6963 11.0974 10.7737C11.0947 10.851 11.0907 10.9203 11.0854 10.9817C11.0827 11.0403 11.08 11.0857 11.0774 11.1177H11.0934L12.6654 8.75368H13.0654V11.6097H12.7294V10.0577C12.7294 9.98568 12.7307 9.90835 12.7334 9.82568C12.736 9.74035 12.7387 9.65901 12.7414 9.58168C12.7467 9.50168 12.7507 9.43101 12.7534 9.36968C12.756 9.30835 12.7587 9.26301 12.7614 9.23368H12.7454L11.1694 11.6097H10.7694V8.75368Z" fill="#232323"/>
<rect x="29.75" y="0.75" width="18.5" height="18.5" fill="#232323" stroke="#232323" stroke-width="0.5"/>
<path d="M37.2766 8.71368V9.06568C37.5859 9.07101 37.8299 9.12168 38.0086 9.21768C38.1873 9.31368 38.3139 9.44168 38.3886 9.60168C38.4633 9.75901 38.5006 9.93501 38.5006 10.1297C38.5006 10.2577 38.4806 10.3857 38.4406 10.5137C38.4033 10.639 38.3379 10.7537 38.2446 10.8577C38.1513 10.959 38.0259 11.0417 37.8686 11.1057C37.7113 11.1697 37.5139 11.2043 37.2766 11.2097V11.6497H36.9206V11.2097C36.6779 11.2043 36.4766 11.1697 36.3166 11.1057C36.1593 11.039 36.0353 10.9537 35.9446 10.8497C35.8539 10.743 35.7899 10.627 35.7526 10.5017C35.7153 10.3763 35.6966 10.2523 35.6966 10.1297C35.6966 9.98835 35.7166 9.85501 35.7566 9.72968C35.7993 9.60168 35.8673 9.48968 35.9606 9.39368C36.0566 9.29501 36.1833 9.21635 36.3406 9.15768C36.4979 9.09901 36.6913 9.06835 36.9206 9.06568V8.71368H37.2766ZM36.9206 9.36968C36.7073 9.37501 36.5366 9.40968 36.4086 9.47368C36.2833 9.53768 36.1939 9.62568 36.1406 9.73768C36.0873 9.84701 36.0606 9.97635 36.0606 10.1257C36.0606 10.283 36.0899 10.4203 36.1486 10.5377C36.2099 10.6523 36.3033 10.7417 36.4286 10.8057C36.5566 10.8697 36.7206 10.9057 36.9206 10.9137V9.36968ZM37.2766 10.9137C37.4819 10.9057 37.6473 10.8683 37.7726 10.8017C37.9006 10.735 37.9926 10.6443 38.0486 10.5297C38.1073 10.4123 38.1366 10.2777 38.1366 10.1257C38.1366 9.97368 38.1099 9.84301 38.0566 9.73368C38.0033 9.62168 37.9139 9.53501 37.7886 9.47368C37.6633 9.40968 37.4926 9.37501 37.2766 9.36968V10.9137ZM40.8874 11.6097L40.5434 10.7257H39.4114L39.0714 11.6097H38.7074L39.8234 8.74168H40.1474L41.2594 11.6097H40.8874ZM40.1154 9.54168C40.1074 9.52035 40.0941 9.48168 40.0754 9.42568C40.0568 9.36968 40.0381 9.31235 40.0194 9.25368C40.0034 9.19235 39.9901 9.14568 39.9794 9.11368C39.9661 9.16701 39.9514 9.22168 39.9354 9.27768C39.9221 9.33101 39.9074 9.38035 39.8914 9.42568C39.8781 9.47101 39.8661 9.50968 39.8554 9.54168L39.5314 10.4057H40.4354L40.1154 9.54168ZM42.2341 10.4737L41.7821 10.6257V9.80968L42.2341 9.65768V10.4737ZM42.2341 8.51768V9.22968L41.7821 9.37368V8.66968H41.6621V9.40968L41.4181 9.49368V9.92168L41.6621 9.84168V10.6617L41.4181 10.7377V11.1737L41.6621 11.0897V11.7617H41.7821V11.0577L42.2341 10.9097V11.6097H42.3541V10.8737L42.5941 10.7897V10.3617L42.3541 10.4417V9.62168L42.5941 9.54568V9.10968L42.3541 9.19368V8.51768H42.2341Z" fill="white"/>
<rect x="58.75" y="0.75" width="18.5" height="18.5" fill="#232323" stroke="#232323" stroke-width="0.5"/>
<path d="M63.5421 9.02968C63.3901 9.02968 63.2528 9.05635 63.1301 9.10968C63.0074 9.16035 62.9034 9.23635 62.8181 9.33768C62.7328 9.43635 62.6674 9.55768 62.6221 9.70168C62.5768 9.84301 62.5541 10.003 62.5541 10.1817C62.5541 10.4163 62.5901 10.6203 62.6621 10.7937C62.7368 10.967 62.8461 11.1003 62.9901 11.1937C63.1368 11.287 63.3194 11.3337 63.5381 11.3337C63.6634 11.3337 63.7821 11.323 63.8941 11.3017C64.0061 11.2803 64.1154 11.2537 64.2221 11.2217V11.5337C64.1154 11.5737 64.0048 11.603 63.8901 11.6217C63.7781 11.6403 63.6434 11.6497 63.4861 11.6497C63.1954 11.6497 62.9528 11.5897 62.7581 11.4697C62.5634 11.3497 62.4168 11.179 62.3181 10.9577C62.2221 10.7363 62.1741 10.4763 62.1741 10.1777C62.1741 9.96168 62.2034 9.76435 62.2621 9.58568C62.3234 9.40701 62.4114 9.25235 62.5261 9.12168C62.6434 8.99101 62.7874 8.89101 62.9581 8.82168C63.1288 8.74968 63.3248 8.71368 63.5461 8.71368C63.6928 8.71368 63.8341 8.72835 63.9701 8.75768C64.1061 8.78701 64.2274 8.82835 64.3341 8.88168L64.1901 9.18568C64.1021 9.14568 64.0034 9.10968 63.8941 9.07768C63.7874 9.04568 63.6701 9.02968 63.5421 9.02968ZM67.2593 10.1777C67.2593 10.399 67.2313 10.6003 67.1753 10.7817C67.1193 10.9603 67.0353 11.115 66.9233 11.2457C66.814 11.3763 66.6766 11.4763 66.5113 11.5457C66.3486 11.615 66.1593 11.6497 65.9433 11.6497C65.7193 11.6497 65.5246 11.615 65.3593 11.5457C65.194 11.4737 65.0566 11.3737 64.9473 11.2457C64.838 11.115 64.7566 10.959 64.7033 10.7777C64.65 10.5963 64.6233 10.395 64.6233 10.1737C64.6233 9.88035 64.6713 9.62435 64.7673 9.40568C64.8633 9.18701 65.0086 9.01635 65.2033 8.89368C65.4006 8.77101 65.6486 8.70968 65.9473 8.70968C66.2326 8.70968 66.4726 8.77101 66.6673 8.89368C66.862 9.01368 67.0086 9.18435 67.1073 9.40568C67.2086 9.62435 67.2593 9.88168 67.2593 10.1777ZM65.0033 10.1777C65.0033 10.4177 65.0366 10.6243 65.1033 10.7977C65.17 10.971 65.2726 11.1043 65.4113 11.1977C65.5526 11.291 65.73 11.3377 65.9433 11.3377C66.1593 11.3377 66.3353 11.291 66.4713 11.1977C66.61 11.1043 66.7126 10.971 66.7793 10.7977C66.846 10.6243 66.8793 10.4177 66.8793 10.1777C66.8793 9.81768 66.8046 9.53635 66.6553 9.33368C66.506 9.12835 66.27 9.02568 65.9473 9.02568C65.7313 9.02568 65.5526 9.07235 65.4113 9.16568C65.2726 9.25635 65.17 9.38835 65.1033 9.56168C65.0366 9.73235 65.0033 9.93768 65.0033 10.1777ZM69.8702 11.6097H69.5102V9.06968H68.6062C68.5875 9.21635 68.5675 9.37101 68.5462 9.53368C68.5248 9.69368 68.5022 9.85235 68.4782 10.0097C68.4568 10.167 68.4355 10.315 68.4142 10.4537C68.3928 10.5923 68.3715 10.7137 68.3502 10.8177C68.3155 10.9963 68.2728 11.1483 68.2222 11.2737C68.1715 11.399 68.1035 11.4937 68.0182 11.5577C67.9355 11.6217 67.8262 11.6537 67.6902 11.6537C67.6448 11.6537 67.5982 11.6483 67.5502 11.6377C67.5048 11.6297 67.4648 11.619 67.4302 11.6057V11.3057C67.4595 11.319 67.4928 11.331 67.5302 11.3417C67.5675 11.3497 67.6075 11.3537 67.6502 11.3537C67.7302 11.3537 67.7928 11.3217 67.8382 11.2577C67.8862 11.191 67.9235 11.1097 67.9502 11.0137C67.9768 10.915 67.9995 10.8177 68.0182 10.7217C68.0342 10.6443 68.0528 10.5417 68.0742 10.4137C68.0955 10.283 68.1182 10.131 68.1422 9.95768C68.1688 9.78435 68.1955 9.59635 68.2222 9.39368C68.2515 9.18835 68.2795 8.97501 68.3062 8.75368H69.8702V11.6097ZM70.6462 11.6097V8.75368H71.0062V9.96168H71.5422C71.8089 9.96168 72.0209 9.99768 72.1782 10.0697C72.3355 10.1417 72.4489 10.239 72.5182 10.3617C72.5875 10.4843 72.6222 10.6217 72.6222 10.7737C72.6222 10.9417 72.5835 11.0883 72.5062 11.2137C72.4315 11.339 72.3182 11.4363 72.1662 11.5057C72.0142 11.575 71.8209 11.6097 71.5862 11.6097H70.6462ZM71.5502 11.3017C71.7822 11.3017 71.9569 11.259 72.0742 11.1737C72.1915 11.0857 72.2502 10.9523 72.2502 10.7737C72.2502 10.651 72.2209 10.5537 72.1622 10.4817C72.1062 10.407 72.0222 10.3537 71.9102 10.3217C71.8009 10.2897 71.6635 10.2737 71.4982 10.2737H71.0062V11.3017H71.5502ZM73.7966 10.4737L73.3446 10.6257V9.80968L73.7966 9.65768V10.4737ZM73.7966 8.51768V9.22968L73.3446 9.37368V8.66968H73.2246V9.40968L72.9806 9.49368V9.92168L73.2246 9.84168V10.6617L72.9806 10.7377V11.1737L73.2246 11.0897V11.7617H73.3446V11.0577L73.7966 10.9097V11.6097H73.9166V10.8737L74.1566 10.7897V10.3617L73.9166 10.4417V9.62168L74.1566 9.54568V9.10968L73.9166 9.19368V8.51768H73.7966Z" fill="white"/>
<rect x="87.75" y="0.75" width="18.5" height="18.5" fill="white" stroke="#232323" stroke-width="0.5"/>
<path d="M96.8487 11.6097H96.4887V9.06968H95.5847C95.566 9.21635 95.546 9.37101 95.5247 9.53368C95.5034 9.69368 95.4807 9.85235 95.4567 10.0097C95.4354 10.167 95.414 10.315 95.3927 10.4537C95.3714 10.5923 95.35 10.7137 95.3287 10.8177C95.294 10.9963 95.2514 11.1483 95.2007 11.2737C95.15 11.399 95.082 11.4937 94.9967 11.5577C94.914 11.6217 94.8047 11.6537 94.6687 11.6537C94.6234 11.6537 94.5767 11.6483 94.5287 11.6377C94.4834 11.6297 94.4434 11.619 94.4087 11.6057V11.3057C94.438 11.319 94.4714 11.331 94.5087 11.3417C94.546 11.3497 94.586 11.3537 94.6287 11.3537C94.7087 11.3537 94.7714 11.3217 94.8167 11.2577C94.8647 11.191 94.902 11.1097 94.9287 11.0137C94.9554 10.915 94.978 10.8177 94.9967 10.7217C95.0127 10.6443 95.0314 10.5417 95.0527 10.4137C95.074 10.283 95.0967 10.131 95.1207 9.95768C95.1474 9.78435 95.174 9.59635 95.2007 9.39368C95.23 9.18835 95.258 8.97501 95.2847 8.75368H96.8487V11.6097ZM98.4847 10.4257L97.7447 11.6097H97.3247L98.1247 10.3617C98.0234 10.327 97.9274 10.279 97.8367 10.2177C97.7487 10.1563 97.6767 10.0723 97.6207 9.96568C97.5647 9.85901 97.5367 9.72168 97.5367 9.55368C97.5367 9.29501 97.6261 9.09768 97.8047 8.96168C97.9834 8.82301 98.2501 8.75368 98.6047 8.75368H99.4047V11.6097H99.0447V10.4257H98.4847ZM98.6127 9.06168C98.4607 9.06168 98.3327 9.07901 98.2287 9.11368C98.1247 9.14835 98.0447 9.20301 97.9887 9.27768C97.9354 9.35235 97.9087 9.44968 97.9087 9.56968C97.9087 9.74568 97.9674 9.88168 98.0847 9.97768C98.2021 10.0737 98.3834 10.1217 98.6287 10.1217H99.0447V9.06168H98.6127Z" fill="#232323"/>
<rect x="116.75" y="0.75" width="18.5" height="18.5" fill="white" stroke="#232323" stroke-width="0.5"/>
<path d="M124.911 9.02968C124.759 9.02968 124.622 9.05635 124.499 9.10968C124.377 9.16035 124.273 9.23635 124.187 9.33768C124.102 9.43635 124.037 9.55768 123.991 9.70168C123.946 9.84301 123.923 10.003 123.923 10.1817C123.923 10.4163 123.959 10.6203 124.031 10.7937C124.106 10.967 124.215 11.1003 124.359 11.1937C124.506 11.287 124.689 11.3337 124.907 11.3337C125.033 11.3337 125.151 11.323 125.263 11.3017C125.375 11.2803 125.485 11.2537 125.591 11.2217V11.5337C125.485 11.5737 125.374 11.603 125.259 11.6217C125.147 11.6403 125.013 11.6497 124.855 11.6497C124.565 11.6497 124.322 11.5897 124.127 11.4697C123.933 11.3497 123.786 11.179 123.687 10.9577C123.591 10.7363 123.543 10.4763 123.543 10.1777C123.543 9.96168 123.573 9.76435 123.631 9.58568C123.693 9.40701 123.781 9.25235 123.895 9.12168C124.013 8.99101 124.157 8.89101 124.327 8.82168C124.498 8.74968 124.694 8.71368 124.915 8.71368C125.062 8.71368 125.203 8.72835 125.339 8.75768C125.475 8.78701 125.597 8.82835 125.703 8.88168L125.559 9.18568C125.471 9.14568 125.373 9.10968 125.263 9.07768C125.157 9.04568 125.039 9.02968 124.911 9.02968ZM126.219 8.75368H126.555V10.3217C126.555 10.3883 126.553 10.4617 126.551 10.5417C126.551 10.619 126.549 10.6963 126.547 10.7737C126.544 10.851 126.54 10.9203 126.535 10.9817C126.532 11.0403 126.529 11.0857 126.527 11.1177H126.543L128.115 8.75368H128.515V11.6097H128.179V10.0577C128.179 9.98568 128.18 9.90835 128.183 9.82568C128.185 9.74035 128.188 9.65901 128.191 9.58168C128.196 9.50168 128.2 9.43101 128.203 9.36968C128.205 9.30835 128.208 9.26301 128.211 9.23368H128.195L126.619 11.6097H126.219V8.75368Z" fill="#232323"/>
<rect x="145.75" y="0.75" width="18.5" height="18.5" fill="#232323" stroke="#232323" stroke-width="0.5"/>
<path d="M153.744 8.75368V11.2897H154.108V12.3617H153.764V11.6097H151.8V12.3617H151.456V11.2897H151.676C151.772 11.1243 151.863 10.939 151.948 10.7337C152.036 10.5283 152.113 10.3137 152.18 10.0897C152.247 9.86301 152.301 9.63635 152.344 9.40968C152.387 9.18301 152.413 8.96435 152.424 8.75368H153.744ZM152.74 9.07768C152.729 9.23235 152.703 9.40701 152.66 9.60168C152.62 9.79635 152.568 9.99635 152.504 10.2017C152.443 10.4043 152.373 10.6003 152.296 10.7897C152.221 10.979 152.141 11.1457 152.056 11.2897H153.388V9.07768H152.74ZM157.078 10.1777C157.078 10.399 157.05 10.6003 156.994 10.7817C156.938 10.9603 156.854 11.115 156.742 11.2457C156.632 11.3763 156.495 11.4763 156.33 11.5457C156.167 11.615 155.978 11.6497 155.762 11.6497C155.538 11.6497 155.343 11.615 155.178 11.5457C155.012 11.4737 154.875 11.3737 154.766 11.2457C154.656 11.115 154.575 10.959 154.522 10.7777C154.468 10.5963 154.442 10.395 154.442 10.1737C154.442 9.88035 154.49 9.62435 154.586 9.40568C154.682 9.18701 154.827 9.01635 155.022 8.89368C155.219 8.77101 155.467 8.70968 155.766 8.70968C156.051 8.70968 156.291 8.77101 156.486 8.89368C156.68 9.01368 156.827 9.18435 156.926 9.40568C157.027 9.62435 157.078 9.88168 157.078 10.1777ZM154.822 10.1777C154.822 10.4177 154.855 10.6243 154.922 10.7977C154.988 10.971 155.091 11.1043 155.23 11.1977C155.371 11.291 155.548 11.3377 155.762 11.3377C155.978 11.3377 156.154 11.291 156.29 11.1977C156.428 11.1043 156.531 10.971 156.598 10.7977C156.664 10.6243 156.698 10.4177 156.698 10.1777C156.698 9.81768 156.623 9.53635 156.474 9.33368C156.324 9.12835 156.088 9.02568 155.766 9.02568C155.55 9.02568 155.371 9.07235 155.23 9.16568C155.091 9.25635 154.988 9.38835 154.922 9.56168C154.855 9.73235 154.822 9.93768 154.822 10.1777ZM158.295 10.4737L157.843 10.6257V9.80968L158.295 9.65768V10.4737ZM158.295 8.51768V9.22968L157.843 9.37368V8.66968H157.723V9.40968L157.479 9.49368V9.92168L157.723 9.84168V10.6617L157.479 10.7377V11.1737L157.723 11.0897V11.7617H157.843V11.0577L158.295 10.9097V11.6097H158.415V10.8737L158.655 10.7897V10.3617L158.415 10.4417V9.62168L158.655 9.54568V9.10968L158.415 9.19368V8.51768H158.295Z" fill="white"/>
<rect x="174.75" y="0.75" width="18.5" height="18.5" fill="#232323" stroke="#232323" stroke-width="0.5"/>
<path d="M182.199 8.75368C182.572 8.75368 182.844 8.82701 183.015 8.97368C183.186 9.12035 183.271 9.32701 183.271 9.59368C183.271 9.71101 183.251 9.82435 183.211 9.93368C183.174 10.0403 183.111 10.1363 183.023 10.2217C182.935 10.307 182.818 10.375 182.671 10.4257C182.524 10.4737 182.344 10.4977 182.131 10.4977H181.803V11.6097H181.443V8.75368H182.199ZM182.167 9.06168H181.803V10.1897H182.091C182.272 10.1897 182.423 10.171 182.543 10.1337C182.663 10.0937 182.752 10.031 182.811 9.94568C182.87 9.86035 182.899 9.74835 182.899 9.60968C182.899 9.42568 182.84 9.28835 182.723 9.19768C182.606 9.10701 182.42 9.06168 182.167 9.06168ZM185.461 11.6097H183.865V8.75368H185.461V9.06968H184.225V9.96168H185.389V10.2737H184.225V11.2937H185.461V11.6097ZM186.672 10.4737L186.22 10.6257V9.80968L186.672 9.65768V10.4737ZM186.672 8.51768V9.22968L186.22 9.37368V8.66968H186.1V9.40968L185.856 9.49368V9.92168L186.1 9.84168V10.6617L185.856 10.7377V11.1737L186.1 11.0897V11.7617H186.22V11.0577L186.672 10.9097V11.6097H186.792V10.8737L187.032 10.7897V10.3617L186.792 10.4417V9.62168L187.032 9.54568V9.10968L186.792 9.19368V8.51768H186.672Z" fill="white"/>
</svg>
