<svg width="194" height="20" viewBox="0 0 194 20" fill="none" xmlns="http://www.w3.org/2000/svg">
<rect x="0.75" y="0.75" width="18.5" height="18.5" fill="white" stroke="#232323" stroke-width="0.5"/>
<path d="M8.99729 8.71368V9.06568C9.30662 9.07101 9.55062 9.12168 9.72929 9.21768C9.90796 9.31368 10.0346 9.44168 10.1093 9.60168C10.184 9.75901 10.2213 9.93501 10.2213 10.1297C10.2213 10.2577 10.2013 10.3857 10.1613 10.5137C10.124 10.639 10.0586 10.7537 9.96529 10.8577C9.87196 10.959 9.74662 11.0417 9.58929 11.1057C9.43196 11.1697 9.23462 11.2043 8.99729 11.2097V11.6497H8.64129V11.2097C8.39862 11.2043 8.19729 11.1697 8.03729 11.1057C7.87996 11.039 7.75596 10.9537 7.66529 10.8497C7.57462 10.743 7.51062 10.627 7.47329 10.5017C7.43596 10.3763 7.41729 10.2523 7.41729 10.1297C7.41729 9.98835 7.43729 9.85501 7.47729 9.72968C7.51996 9.60168 7.58796 9.48968 7.68129 9.39368C7.77729 9.29501 7.90396 9.21635 8.06129 9.15768C8.21862 9.09901 8.41196 9.06835 8.64129 9.06568V8.71368H8.99729ZM8.64129 9.36968C8.42796 9.37501 8.25729 9.40968 8.12929 9.47368C8.00396 9.53768 7.91462 9.62568 7.86129 9.73768C7.80796 9.84701 7.78129 9.97635 7.78129 10.1257C7.78129 10.283 7.81062 10.4203 7.86929 10.5377C7.93062 10.6523 8.02396 10.7417 8.14929 10.8057C8.27729 10.8697 8.44129 10.9057 8.64129 10.9137V9.36968ZM8.99729 10.9137C9.20262 10.9057 9.36796 10.8683 9.49329 10.8017C9.62129 10.735 9.71329 10.6443 9.76929 10.5297C9.82796 10.4123 9.85729 10.2777 9.85729 10.1257C9.85729 9.97368 9.83062 9.84301 9.77729 9.73368C9.72396 9.62168 9.63462 9.53501 9.50929 9.47368C9.38396 9.40968 9.21329 9.37501 8.99729 9.36968V10.9137ZM12.6081 11.6097L12.2641 10.7257H11.1321L10.7921 11.6097H10.4281L11.5441 8.74168H11.8681L12.9801 11.6097H12.6081ZM11.8361 9.54168C11.8281 9.52035 11.8148 9.48168 11.7961 9.42568C11.7775 9.36968 11.7588 9.31235 11.7401 9.25368C11.7241 9.19235 11.7108 9.14568 11.7001 9.11368C11.6868 9.16701 11.6721 9.22168 11.6561 9.27768C11.6428 9.33101 11.6281 9.38035 11.6121 9.42568C11.5988 9.47101 11.5868 9.50968 11.5761 9.54168L11.2521 10.4057H12.1561L11.8361 9.54168Z" fill="#232323"/>
<rect x="29.75" y="0.75" width="18.5" height="18.5" fill="white" stroke="#232323" stroke-width="0.5"/>
<path d="M35.2628 9.02968C35.1108 9.02968 34.9735 9.05635 34.8508 9.10968C34.7281 9.16035 34.6241 9.23635 34.5388 9.33768C34.4535 9.43635 34.3881 9.55768 34.3428 9.70168C34.2975 9.84301 34.2748 10.003 34.2748 10.1817C34.2748 10.4163 34.3108 10.6203 34.3828 10.7937C34.4575 10.967 34.5668 11.1003 34.7108 11.1937C34.8575 11.287 35.0401 11.3337 35.2588 11.3337C35.3841 11.3337 35.5028 11.323 35.6148 11.3017C35.7268 11.2803 35.8361 11.2537 35.9428 11.2217V11.5337C35.8361 11.5737 35.7255 11.603 35.6108 11.6217C35.4988 11.6403 35.3641 11.6497 35.2068 11.6497C34.9161 11.6497 34.6735 11.5897 34.4788 11.4697C34.2841 11.3497 34.1375 11.179 34.0388 10.9577C33.9428 10.7363 33.8948 10.4763 33.8948 10.1777C33.8948 9.96168 33.9241 9.76435 33.9828 9.58568C34.0441 9.40701 34.1321 9.25235 34.2468 9.12168C34.3641 8.99101 34.5081 8.89101 34.6788 8.82168C34.8495 8.74968 35.0455 8.71368 35.2668 8.71368C35.4135 8.71368 35.5548 8.72835 35.6908 8.75768C35.8268 8.78701 35.9481 8.82835 36.0548 8.88168L35.9108 9.18568C35.8228 9.14568 35.7241 9.10968 35.6148 9.07768C35.5081 9.04568 35.3908 9.02968 35.2628 9.02968ZM38.98 10.1777C38.98 10.399 38.952 10.6003 38.896 10.7817C38.84 10.9603 38.756 11.115 38.644 11.2457C38.5347 11.3763 38.3973 11.4763 38.232 11.5457C38.0693 11.615 37.88 11.6497 37.664 11.6497C37.44 11.6497 37.2453 11.615 37.08 11.5457C36.9147 11.4737 36.7773 11.3737 36.668 11.2457C36.5587 11.115 36.4773 10.959 36.424 10.7777C36.3707 10.5963 36.344 10.395 36.344 10.1737C36.344 9.88035 36.392 9.62435 36.488 9.40568C36.584 9.18701 36.7293 9.01635 36.924 8.89368C37.1213 8.77101 37.3693 8.70968 37.668 8.70968C37.9533 8.70968 38.1933 8.77101 38.388 8.89368C38.5827 9.01368 38.7293 9.18435 38.828 9.40568C38.9293 9.62435 38.98 9.88168 38.98 10.1777ZM36.724 10.1777C36.724 10.4177 36.7573 10.6243 36.824 10.7977C36.8907 10.971 36.9933 11.1043 37.132 11.1977C37.2733 11.291 37.4507 11.3377 37.664 11.3377C37.88 11.3377 38.056 11.291 38.192 11.1977C38.3307 11.1043 38.4333 10.971 38.5 10.7977C38.5667 10.6243 38.6 10.4177 38.6 10.1777C38.6 9.81768 38.5253 9.53635 38.376 9.33368C38.2267 9.12835 37.9907 9.02568 37.668 9.02568C37.452 9.02568 37.2733 9.07235 37.132 9.16568C36.9933 9.25635 36.8907 9.38835 36.824 9.56168C36.7573 9.73235 36.724 9.93768 36.724 10.1777ZM41.5909 11.6097H41.2309V9.06968H40.3269C40.3082 9.21635 40.2882 9.37101 40.2669 9.53368C40.2456 9.69368 40.2229 9.85235 40.1989 10.0097C40.1776 10.167 40.1562 10.315 40.1349 10.4537C40.1136 10.5923 40.0922 10.7137 40.0709 10.8177C40.0362 10.9963 39.9936 11.1483 39.9429 11.2737C39.8922 11.399 39.8242 11.4937 39.7389 11.5577C39.6562 11.6217 39.5469 11.6537 39.4109 11.6537C39.3656 11.6537 39.3189 11.6483 39.2709 11.6377C39.2256 11.6297 39.1856 11.619 39.1509 11.6057V11.3057C39.1802 11.319 39.2136 11.331 39.2509 11.3417C39.2882 11.3497 39.3282 11.3537 39.3709 11.3537C39.4509 11.3537 39.5136 11.3217 39.5589 11.2577C39.6069 11.191 39.6442 11.1097 39.6709 11.0137C39.6976 10.915 39.7202 10.8177 39.7389 10.7217C39.7549 10.6443 39.7736 10.5417 39.7949 10.4137C39.8162 10.283 39.8389 10.131 39.8629 9.95768C39.8896 9.78435 39.9162 9.59635 39.9429 9.39368C39.9722 9.18835 40.0002 8.97501 40.0269 8.75368H41.5909V11.6097ZM42.3669 11.6097V8.75368H42.7269V9.96168H43.2629C43.5296 9.96168 43.7416 9.99768 43.8989 10.0697C44.0562 10.1417 44.1696 10.239 44.2389 10.3617C44.3082 10.4843 44.3429 10.6217 44.3429 10.7737C44.3429 10.9417 44.3042 11.0883 44.2269 11.2137C44.1522 11.339 44.0389 11.4363 43.8869 11.5057C43.7349 11.575 43.5416 11.6097 43.3069 11.6097H42.3669ZM43.2709 11.3017C43.5029 11.3017 43.6776 11.259 43.7949 11.1737C43.9122 11.0857 43.9709 10.9523 43.9709 10.7737C43.9709 10.651 43.9416 10.5537 43.8829 10.4817C43.8269 10.407 43.7429 10.3537 43.6309 10.3217C43.5216 10.2897 43.3842 10.2737 43.2189 10.2737H42.7269V11.3017H43.2709Z" fill="#232323"/>
<rect x="58.75" y="0.75" width="18.5" height="18.5" fill="white" stroke="#232323" stroke-width="0.5"/>
<path d="M67.8487 11.6097H67.4887V9.06968H66.5847C66.566 9.21635 66.546 9.37101 66.5247 9.53368C66.5034 9.69368 66.4807 9.85235 66.4567 10.0097C66.4354 10.167 66.414 10.315 66.3927 10.4537C66.3714 10.5923 66.35 10.7137 66.3287 10.8177C66.294 10.9963 66.2514 11.1483 66.2007 11.2737C66.15 11.399 66.082 11.4937 65.9967 11.5577C65.914 11.6217 65.8047 11.6537 65.6687 11.6537C65.6234 11.6537 65.5767 11.6483 65.5287 11.6377C65.4834 11.6297 65.4434 11.619 65.4087 11.6057V11.3057C65.438 11.319 65.4714 11.331 65.5087 11.3417C65.546 11.3497 65.586 11.3537 65.6287 11.3537C65.7087 11.3537 65.7714 11.3217 65.8167 11.2577C65.8647 11.191 65.902 11.1097 65.9287 11.0137C65.9554 10.915 65.978 10.8177 65.9967 10.7217C66.0127 10.6443 66.0314 10.5417 66.0527 10.4137C66.074 10.283 66.0967 10.131 66.1207 9.95768C66.1474 9.78435 66.174 9.59635 66.2007 9.39368C66.23 9.18835 66.258 8.97501 66.2847 8.75368H67.8487V11.6097ZM69.4847 10.4257L68.7447 11.6097H68.3247L69.1247 10.3617C69.0234 10.327 68.9274 10.279 68.8367 10.2177C68.7487 10.1563 68.6767 10.0723 68.6207 9.96568C68.5647 9.85901 68.5367 9.72168 68.5367 9.55368C68.5367 9.29501 68.6261 9.09768 68.8047 8.96168C68.9834 8.82301 69.2501 8.75368 69.6047 8.75368H70.4047V11.6097H70.0447V10.4257H69.4847ZM69.6127 9.06168C69.4607 9.06168 69.3327 9.07901 69.2287 9.11368C69.1247 9.14835 69.0447 9.20301 68.9887 9.27768C68.9354 9.35235 68.9087 9.44968 68.9087 9.56968C68.9087 9.74568 68.9674 9.88168 69.0847 9.97768C69.2021 10.0737 69.3834 10.1217 69.6287 10.1217H70.0447V9.06168H69.6127Z" fill="#232323"/>
<rect x="87.75" y="0.75" width="18.5" height="18.5" fill="#232323" stroke="#232323" stroke-width="0.5"/>
<path d="M95.2374 9.02968C95.0854 9.02968 94.9481 9.05635 94.8254 9.10968C94.7027 9.16035 94.5987 9.23635 94.5134 9.33768C94.4281 9.43635 94.3627 9.55768 94.3174 9.70168C94.2721 9.84301 94.2494 10.003 94.2494 10.1817C94.2494 10.4163 94.2854 10.6203 94.3574 10.7937C94.4321 10.967 94.5414 11.1003 94.6854 11.1937C94.8321 11.287 95.0147 11.3337 95.2334 11.3337C95.3587 11.3337 95.4774 11.323 95.5894 11.3017C95.7014 11.2803 95.8107 11.2537 95.9174 11.2217V11.5337C95.8107 11.5737 95.7001 11.603 95.5854 11.6217C95.4734 11.6403 95.3387 11.6497 95.1814 11.6497C94.8907 11.6497 94.6481 11.5897 94.4534 11.4697C94.2587 11.3497 94.1121 11.179 94.0134 10.9577C93.9174 10.7363 93.8694 10.4763 93.8694 10.1777C93.8694 9.96168 93.8987 9.76435 93.9574 9.58568C94.0187 9.40701 94.1067 9.25235 94.2214 9.12168C94.3387 8.99101 94.4827 8.89101 94.6534 8.82168C94.8241 8.74968 95.0201 8.71368 95.2414 8.71368C95.3881 8.71368 95.5294 8.72835 95.6654 8.75768C95.8014 8.78701 95.9227 8.82835 96.0294 8.88168L95.8854 9.18568C95.7974 9.14568 95.6987 9.10968 95.5894 9.07768C95.4827 9.04568 95.3654 9.02968 95.2374 9.02968ZM96.5447 8.75368H96.8807V10.3217C96.8807 10.3883 96.8794 10.4617 96.8767 10.5417C96.8767 10.619 96.8754 10.6963 96.8727 10.7737C96.8701 10.851 96.8661 10.9203 96.8607 10.9817C96.8581 11.0403 96.8554 11.0857 96.8527 11.1177H96.8687L98.4407 8.75368H98.8407V11.6097H98.5047V10.0577C98.5047 9.98568 98.5061 9.90835 98.5087 9.82568C98.5114 9.74035 98.5141 9.65901 98.5167 9.58168C98.5221 9.50168 98.5261 9.43101 98.5287 9.36968C98.5314 9.30835 98.5341 9.26301 98.5367 9.23368H98.5207L96.9447 11.6097H96.5447V8.75368ZM99.3591 11.6897C99.9231 11.2577 100.487 10.8737 100.487 10.4617C100.487 10.1737 100.219 9.95768 99.9391 9.95768C99.7391 9.95768 99.5871 10.0457 99.4831 10.2097L99.5191 8.78968H99.3591V11.6897ZM99.8151 10.1617C99.9711 10.1617 100.091 10.2897 100.091 10.4417C100.091 10.7177 99.7551 11.2177 99.4991 11.4017C99.4831 11.3177 99.4711 11.1457 99.4711 10.8897V10.6777C99.4711 10.4417 99.5391 10.1617 99.8151 10.1617Z" fill="white"/>
<rect x="116.75" y="0.75" width="18.5" height="18.5" fill="white" stroke="#232323" stroke-width="0.5"/>
<path d="M125.465 8.75368V11.2897H125.829V12.3617H125.485V11.6097H123.521V12.3617H123.177V11.2897H123.397C123.493 11.1243 123.583 10.939 123.669 10.7337C123.757 10.5283 123.834 10.3137 123.901 10.0897C123.967 9.86301 124.022 9.63635 124.065 9.40968C124.107 9.18301 124.134 8.96435 124.145 8.75368H125.465ZM124.461 9.07768C124.45 9.23235 124.423 9.40701 124.381 9.60168C124.341 9.79635 124.289 9.99635 124.225 10.2017C124.163 10.4043 124.094 10.6003 124.017 10.7897C123.942 10.979 123.862 11.1457 123.777 11.2897H125.109V9.07768H124.461ZM128.798 10.1777C128.798 10.399 128.77 10.6003 128.714 10.7817C128.658 10.9603 128.574 11.115 128.462 11.2457C128.353 11.3763 128.216 11.4763 128.05 11.5457C127.888 11.615 127.698 11.6497 127.482 11.6497C127.258 11.6497 127.064 11.615 126.898 11.5457C126.733 11.4737 126.596 11.3737 126.486 11.2457C126.377 11.115 126.296 10.959 126.242 10.7777C126.189 10.5963 126.162 10.395 126.162 10.1737C126.162 9.88035 126.21 9.62435 126.306 9.40568C126.402 9.18701 126.548 9.01635 126.742 8.89368C126.94 8.77101 127.188 8.70968 127.486 8.70968C127.772 8.70968 128.012 8.77101 128.206 8.89368C128.401 9.01368 128.548 9.18435 128.646 9.40568C128.748 9.62435 128.798 9.88168 128.798 10.1777ZM126.542 10.1777C126.542 10.4177 126.576 10.6243 126.642 10.7977C126.709 10.971 126.812 11.1043 126.95 11.1977C127.092 11.291 127.269 11.3377 127.482 11.3377C127.698 11.3377 127.874 11.291 128.01 11.1977C128.149 11.1043 128.252 10.971 128.318 10.7977C128.385 10.6243 128.418 10.4177 128.418 10.1777C128.418 9.81768 128.344 9.53635 128.194 9.33368C128.045 9.12835 127.809 9.02568 127.486 9.02568C127.27 9.02568 127.092 9.07235 126.95 9.16568C126.812 9.25635 126.709 9.38835 126.642 9.56168C126.576 9.73235 126.542 9.93768 126.542 10.1777Z" fill="#232323"/>
<rect x="145.75" y="0.75" width="18.5" height="18.5" fill="white" stroke="#232323" stroke-width="0.5"/>
<path d="M153.92 8.75368C154.293 8.75368 154.565 8.82701 154.736 8.97368C154.906 9.12035 154.992 9.32701 154.992 9.59368C154.992 9.71101 154.972 9.82435 154.932 9.93368C154.894 10.0403 154.832 10.1363 154.744 10.2217C154.656 10.307 154.538 10.375 154.392 10.4257C154.245 10.4737 154.065 10.4977 153.852 10.4977H153.524V11.6097H153.164V8.75368H153.92ZM153.888 9.06168H153.524V10.1897H153.812C153.993 10.1897 154.144 10.171 154.264 10.1337C154.384 10.0937 154.473 10.031 154.532 9.94568C154.59 9.86035 154.62 9.74835 154.62 9.60968C154.62 9.42568 154.561 9.28835 154.444 9.19768C154.326 9.10701 154.141 9.06168 153.888 9.06168ZM157.182 11.6097H155.586V8.75368H157.182V9.06968H155.946V9.96168H157.11V10.2737H155.946V11.2937H157.182V11.6097Z" fill="#232323"/>
<g clip-path="url(#clip0_14_1984)">
<rect x="174.75" y="0.75" width="18.5" height="18.5" fill="white" stroke="#232323" stroke-width="0.5"/>
<path d="M182.396 11.6097L181.456 9.10568H181.44C181.446 9.15901 181.45 9.22701 181.452 9.30968C181.458 9.39235 181.462 9.48301 181.464 9.58168C181.467 9.67768 181.468 9.77635 181.468 9.87768V11.6097H181.136V8.75368H181.668L182.548 11.0937H182.564L183.46 8.75368H183.988V11.6097H183.632V9.85368C183.632 9.76035 183.634 9.66835 183.636 9.57768C183.639 9.48435 183.643 9.39768 183.648 9.31768C183.654 9.23501 183.658 9.16568 183.66 9.10968H183.644L182.692 11.6097H182.396ZM184.769 8.75368H185.105V10.3217C185.105 10.3883 185.104 10.4617 185.101 10.5417C185.101 10.619 185.1 10.6963 185.097 10.7737C185.095 10.851 185.091 10.9203 185.085 10.9817C185.083 11.0403 185.08 11.0857 185.077 11.1177H185.093L186.665 8.75368H187.065V11.6097H186.729V10.0577C186.729 9.98568 186.731 9.90835 186.733 9.82568C186.736 9.74035 186.739 9.65901 186.741 9.58168C186.747 9.50168 186.751 9.43101 186.753 9.36968C186.756 9.30835 186.759 9.26301 186.761 9.23368H186.745L185.169 11.6097H184.769V8.75368Z" fill="#232323"/>
</g>
<defs>
<clipPath id="clip0_14_1984">
<rect width="19" height="19" fill="white" transform="translate(174.5 0.5)"/>
</clipPath>
</defs>
</svg>
