<svg width="194" height="20" viewBox="0 0 194 20" fill="none" xmlns="http://www.w3.org/2000/svg">
<rect x="0.75" y="0.75" width="18.5" height="18.5" fill="white" stroke="#232323" stroke-width="0.5"/>
<path d="M9.8487 11.6097H9.4887V9.06968H8.5847C8.56603 9.21635 8.54603 9.37101 8.5247 9.53368C8.50336 9.69368 8.4807 9.85235 8.4567 10.0097C8.43536 10.167 8.41403 10.315 8.3927 10.4537C8.37136 10.5923 8.35003 10.7137 8.3287 10.8177C8.29403 10.9963 8.25136 11.1483 8.2007 11.2737C8.15003 11.399 8.08203 11.4937 7.9967 11.5577C7.91403 11.6217 7.8047 11.6537 7.6687 11.6537C7.62336 11.6537 7.5767 11.6483 7.5287 11.6377C7.48336 11.6297 7.44336 11.619 7.4087 11.6057V11.3057C7.43803 11.319 7.47136 11.331 7.5087 11.3417C7.54603 11.3497 7.58603 11.3537 7.6287 11.3537C7.7087 11.3537 7.77136 11.3217 7.8167 11.2577C7.8647 11.191 7.90203 11.1097 7.9287 11.0137C7.95536 10.915 7.97803 10.8177 7.9967 10.7217C8.0127 10.6443 8.03136 10.5417 8.0527 10.4137C8.07403 10.283 8.0967 10.131 8.1207 9.95768C8.14736 9.78435 8.17403 9.59635 8.2007 9.39368C8.23003 9.18835 8.25803 8.97501 8.2847 8.75368H9.8487V11.6097ZM11.4847 10.4257L10.7447 11.6097H10.3247L11.1247 10.3617C11.0234 10.327 10.9274 10.279 10.8367 10.2177C10.7487 10.1563 10.6767 10.0723 10.6207 9.96568C10.5647 9.85901 10.5367 9.72168 10.5367 9.55368C10.5367 9.29501 10.6261 9.09768 10.8047 8.96168C10.9834 8.82301 11.2501 8.75368 11.6047 8.75368H12.4047V11.6097H12.0447V10.4257H11.4847ZM11.6127 9.06168C11.4607 9.06168 11.3327 9.07901 11.2287 9.11368C11.1247 9.14835 11.0447 9.20301 10.9887 9.27768C10.9354 9.35235 10.9087 9.44968 10.9087 9.56968C10.9087 9.74568 10.9674 9.88168 11.0847 9.97768C11.2021 10.0737 11.3834 10.1217 11.6287 10.1217H12.0447V9.06168H11.6127Z" fill="#232323"/>
<rect x="29.75" y="0.75" width="18.5" height="18.5" fill="white" stroke="#232323" stroke-width="0.5"/>
<path d="M37.9112 9.02968C37.7592 9.02968 37.6219 9.05635 37.4992 9.10968C37.3766 9.16035 37.2726 9.23635 37.1872 9.33768C37.1019 9.43635 37.0366 9.55768 36.9912 9.70168C36.9459 9.84301 36.9232 10.003 36.9232 10.1817C36.9232 10.4163 36.9592 10.6203 37.0312 10.7937C37.1059 10.967 37.2152 11.1003 37.3592 11.1937C37.5059 11.287 37.6886 11.3337 37.9072 11.3337C38.0326 11.3337 38.1512 11.323 38.2632 11.3017C38.3752 11.2803 38.4846 11.2537 38.5912 11.2217V11.5337C38.4846 11.5737 38.3739 11.603 38.2592 11.6217C38.1472 11.6403 38.0126 11.6497 37.8552 11.6497C37.5646 11.6497 37.3219 11.5897 37.1272 11.4697C36.9326 11.3497 36.7859 11.179 36.6872 10.9577C36.5912 10.7363 36.5432 10.4763 36.5432 10.1777C36.5432 9.96168 36.5726 9.76435 36.6312 9.58568C36.6926 9.40701 36.7806 9.25235 36.8952 9.12168C37.0126 8.99101 37.1566 8.89101 37.3272 8.82168C37.4979 8.74968 37.6939 8.71368 37.9152 8.71368C38.0619 8.71368 38.2032 8.72835 38.3392 8.75768C38.4752 8.78701 38.5966 8.82835 38.7032 8.88168L38.5592 9.18568C38.4712 9.14568 38.3726 9.10968 38.2632 9.07768C38.1566 9.04568 38.0392 9.02968 37.9112 9.02968ZM39.2186 8.75368H39.5546V10.3217C39.5546 10.3883 39.5532 10.4617 39.5506 10.5417C39.5506 10.619 39.5492 10.6963 39.5466 10.7737C39.5439 10.851 39.5399 10.9203 39.5346 10.9817C39.5319 11.0403 39.5292 11.0857 39.5266 11.1177H39.5426L41.1146 8.75368H41.5146V11.6097H41.1786V10.0577C41.1786 9.98568 41.1799 9.90835 41.1826 9.82568C41.1852 9.74035 41.1879 9.65901 41.1906 9.58168C41.1959 9.50168 41.1999 9.43101 41.2026 9.36968C41.2052 9.30835 41.2079 9.26301 41.2106 9.23368H41.1946L39.6186 11.6097H39.2186V8.75368Z" fill="#232323"/>
<rect x="58.75" y="0.75" width="18.5" height="18.5" fill="#232323" stroke="#232323" stroke-width="0.5"/>
<path d="M66.744 8.75368V11.2897H67.108V12.3617H66.764V11.6097H64.8V12.3617H64.456V11.2897H64.676C64.772 11.1243 64.8627 10.939 64.948 10.7337C65.036 10.5283 65.1134 10.3137 65.18 10.0897C65.2467 9.86301 65.3014 9.63635 65.344 9.40968C65.3867 9.18301 65.4134 8.96435 65.424 8.75368H66.744ZM65.74 9.07768C65.7294 9.23235 65.7027 9.40701 65.66 9.60168C65.62 9.79635 65.568 9.99635 65.504 10.2017C65.4427 10.4043 65.3734 10.6003 65.296 10.7897C65.2214 10.979 65.1414 11.1457 65.056 11.2897H66.388V9.07768H65.74ZM70.0777 10.1777C70.0777 10.399 70.0497 10.6003 69.9937 10.7817C69.9377 10.9603 69.8537 11.115 69.7417 11.2457C69.6323 11.3763 69.495 11.4763 69.3297 11.5457C69.167 11.615 68.9777 11.6497 68.7617 11.6497C68.5377 11.6497 68.343 11.615 68.1777 11.5457C68.0123 11.4737 67.875 11.3737 67.7657 11.2457C67.6563 11.115 67.575 10.959 67.5217 10.7777C67.4683 10.5963 67.4417 10.395 67.4417 10.1737C67.4417 9.88035 67.4897 9.62435 67.5857 9.40568C67.6817 9.18701 67.827 9.01635 68.0217 8.89368C68.219 8.77101 68.467 8.70968 68.7657 8.70968C69.051 8.70968 69.291 8.77101 69.4857 8.89368C69.6803 9.01368 69.827 9.18435 69.9257 9.40568C70.027 9.62435 70.0777 9.88168 70.0777 10.1777ZM67.8217 10.1777C67.8217 10.4177 67.855 10.6243 67.9217 10.7977C67.9883 10.971 68.091 11.1043 68.2297 11.1977C68.371 11.291 68.5483 11.3377 68.7617 11.3377C68.9777 11.3377 69.1537 11.291 69.2897 11.1977C69.4283 11.1043 69.531 10.971 69.5977 10.7977C69.6643 10.6243 69.6977 10.4177 69.6977 10.1777C69.6977 9.81768 69.623 9.53635 69.4737 9.33368C69.3243 9.12835 69.0883 9.02568 68.7657 9.02568C68.5497 9.02568 68.371 9.07235 68.2297 9.16568C68.091 9.25635 67.9883 9.38835 67.9217 9.56168C67.855 9.73235 67.8217 9.93768 67.8217 10.1777ZM71.2947 10.4737L70.8427 10.6257V9.80968L71.2947 9.65768V10.4737ZM71.2947 8.51768V9.22968L70.8427 9.37368V8.66968H70.7227V9.40968L70.4787 9.49368V9.92168L70.7227 9.84168V10.6617L70.4787 10.7377V11.1737L70.7227 11.0897V11.7617H70.8427V11.0577L71.2947 10.9097V11.6097H71.4147V10.8737L71.6547 10.7897V10.3617L71.4147 10.4417V9.62168L71.6547 9.54568V9.10968L71.4147 9.19368V8.51768H71.2947Z" fill="white"/>
<rect x="87.75" y="0.75" width="18.5" height="18.5" fill="white" stroke="#232323" stroke-width="0.5"/>
<path d="M95.9198 8.75368C96.2931 8.75368 96.5651 8.82701 96.7358 8.97368C96.9065 9.12035 96.9918 9.32701 96.9918 9.59368C96.9918 9.71101 96.9718 9.82435 96.9318 9.93368C96.8945 10.0403 96.8318 10.1363 96.7438 10.2217C96.6558 10.307 96.5385 10.375 96.3918 10.4257C96.2451 10.4737 96.0651 10.4977 95.8518 10.4977H95.5238V11.6097H95.1638V8.75368H95.9198ZM95.8878 9.06168H95.5238V10.1897H95.8118C95.9931 10.1897 96.1438 10.171 96.2638 10.1337C96.3838 10.0937 96.4731 10.031 96.5318 9.94568C96.5905 9.86035 96.6198 9.74835 96.6198 9.60968C96.6198 9.42568 96.5611 9.28835 96.4438 9.19768C96.3265 9.10701 96.1411 9.06168 95.8878 9.06168ZM99.1817 11.6097H97.5857V8.75368H99.1817V9.06968H97.9457V9.96168H99.1097V10.2737H97.9457V11.2937H99.1817V11.6097Z" fill="#232323"/>
<rect x="116.75" y="0.75" width="18.5" height="18.5" fill="white" stroke="#232323" stroke-width="0.5"/>
<path d="M124.396 11.6097L123.456 9.10568H123.44C123.446 9.15901 123.45 9.22701 123.452 9.30968C123.458 9.39235 123.462 9.48301 123.464 9.58168C123.467 9.67768 123.468 9.77635 123.468 9.87768V11.6097H123.136V8.75368H123.668L124.548 11.0937H124.564L125.46 8.75368H125.988V11.6097H125.632V9.85368C125.632 9.76035 125.634 9.66835 125.636 9.57768C125.639 9.48435 125.643 9.39768 125.648 9.31768C125.654 9.23501 125.658 9.16568 125.66 9.10968H125.644L124.692 11.6097H124.396ZM126.769 8.75368H127.105V10.3217C127.105 10.3883 127.104 10.4617 127.101 10.5417C127.101 10.619 127.1 10.6963 127.097 10.7737C127.095 10.851 127.091 10.9203 127.085 10.9817C127.083 11.0403 127.08 11.0857 127.077 11.1177H127.093L128.665 8.75368H129.065V11.6097H128.729V10.0577C128.729 9.98568 128.731 9.90835 128.733 9.82568C128.736 9.74035 128.739 9.65901 128.741 9.58168C128.747 9.50168 128.751 9.43101 128.753 9.36968C128.756 9.30835 128.759 9.26301 128.761 9.23368H128.745L127.169 11.6097H126.769V8.75368Z" fill="#232323"/>
<rect x="145.75" y="0.75" width="18.5" height="18.5" fill="#232323" stroke="#232323" stroke-width="0.5"/>
<path d="M153.277 8.71368V9.06568C153.586 9.07101 153.83 9.12168 154.009 9.21768C154.187 9.31368 154.314 9.44168 154.389 9.60168C154.463 9.75901 154.501 9.93501 154.501 10.1297C154.501 10.2577 154.481 10.3857 154.441 10.5137C154.403 10.639 154.338 10.7537 154.245 10.8577C154.151 10.959 154.026 11.0417 153.869 11.1057C153.711 11.1697 153.514 11.2043 153.277 11.2097V11.6497H152.921V11.2097C152.678 11.2043 152.477 11.1697 152.317 11.1057C152.159 11.039 152.035 10.9537 151.945 10.8497C151.854 10.743 151.79 10.627 151.753 10.5017C151.715 10.3763 151.697 10.2523 151.697 10.1297C151.697 9.98835 151.717 9.85501 151.757 9.72968C151.799 9.60168 151.867 9.48968 151.961 9.39368C152.057 9.29501 152.183 9.21635 152.341 9.15768C152.498 9.09901 152.691 9.06835 152.921 9.06568V8.71368H153.277ZM152.921 9.36968C152.707 9.37501 152.537 9.40968 152.409 9.47368C152.283 9.53768 152.194 9.62568 152.141 9.73768C152.087 9.84701 152.061 9.97635 152.061 10.1257C152.061 10.283 152.09 10.4203 152.149 10.5377C152.21 10.6523 152.303 10.7417 152.429 10.8057C152.557 10.8697 152.721 10.9057 152.921 10.9137V9.36968ZM153.277 10.9137C153.482 10.9057 153.647 10.8683 153.773 10.8017C153.901 10.735 153.993 10.6443 154.049 10.5297C154.107 10.4123 154.137 10.2777 154.137 10.1257C154.137 9.97368 154.11 9.84301 154.057 9.73368C154.003 9.62168 153.914 9.53501 153.789 9.47368C153.663 9.40968 153.493 9.37501 153.277 9.36968V10.9137ZM156.887 11.6097L156.543 10.7257H155.411L155.071 11.6097H154.707L155.823 8.74168H156.147L157.259 11.6097H156.887ZM156.115 9.54168C156.107 9.52035 156.094 9.48168 156.075 9.42568C156.057 9.36968 156.038 9.31235 156.019 9.25368C156.003 9.19235 155.99 9.14568 155.979 9.11368C155.966 9.16701 155.951 9.22168 155.935 9.27768C155.922 9.33101 155.907 9.38035 155.891 9.42568C155.878 9.47101 155.866 9.50968 155.855 9.54168L155.531 10.4057H156.435L156.115 9.54168ZM158.234 10.4737L157.782 10.6257V9.80968L158.234 9.65768V10.4737ZM158.234 8.51768V9.22968L157.782 9.37368V8.66968H157.662V9.40968L157.418 9.49368V9.92168L157.662 9.84168V10.6617L157.418 10.7377V11.1737L157.662 11.0897V11.7617H157.782V11.0577L158.234 10.9097V11.6097H158.354V10.8737L158.594 10.7897V10.3617L158.354 10.4417V9.62168L158.594 9.54568V9.10968L158.354 9.19368V8.51768H158.234Z" fill="white"/>
<g clip-path="url(#clip0_14_1644)">
<rect x="174.75" y="0.75" width="18.5" height="18.5" fill="#232323" stroke="#232323" stroke-width="0.5"/>
<path d="M179.542 9.02968C179.39 9.02968 179.253 9.05635 179.13 9.10968C179.007 9.16035 178.903 9.23635 178.818 9.33768C178.733 9.43635 178.667 9.55768 178.622 9.70168C178.577 9.84301 178.554 10.003 178.554 10.1817C178.554 10.4163 178.59 10.6203 178.662 10.7937C178.737 10.967 178.846 11.1003 178.99 11.1937C179.137 11.287 179.319 11.3337 179.538 11.3337C179.663 11.3337 179.782 11.323 179.894 11.3017C180.006 11.2803 180.115 11.2537 180.222 11.2217V11.5337C180.115 11.5737 180.005 11.603 179.89 11.6217C179.778 11.6403 179.643 11.6497 179.486 11.6497C179.195 11.6497 178.953 11.5897 178.758 11.4697C178.563 11.3497 178.417 11.179 178.318 10.9577C178.222 10.7363 178.174 10.4763 178.174 10.1777C178.174 9.96168 178.203 9.76435 178.262 9.58568C178.323 9.40701 178.411 9.25235 178.526 9.12168C178.643 8.99101 178.787 8.89101 178.958 8.82168C179.129 8.74968 179.325 8.71368 179.546 8.71368C179.693 8.71368 179.834 8.72835 179.97 8.75768C180.106 8.78701 180.227 8.82835 180.334 8.88168L180.19 9.18568C180.102 9.14568 180.003 9.10968 179.894 9.07768C179.787 9.04568 179.67 9.02968 179.542 9.02968ZM183.259 10.1777C183.259 10.399 183.231 10.6003 183.175 10.7817C183.119 10.9603 183.035 11.115 182.923 11.2457C182.814 11.3763 182.677 11.4763 182.511 11.5457C182.349 11.615 182.159 11.6497 181.943 11.6497C181.719 11.6497 181.525 11.615 181.359 11.5457C181.194 11.4737 181.057 11.3737 180.947 11.2457C180.838 11.115 180.757 10.959 180.703 10.7777C180.65 10.5963 180.623 10.395 180.623 10.1737C180.623 9.88035 180.671 9.62435 180.767 9.40568C180.863 9.18701 181.009 9.01635 181.203 8.89368C181.401 8.77101 181.649 8.70968 181.947 8.70968C182.233 8.70968 182.473 8.77101 182.667 8.89368C182.862 9.01368 183.009 9.18435 183.107 9.40568C183.209 9.62435 183.259 9.88168 183.259 10.1777ZM181.003 10.1777C181.003 10.4177 181.037 10.6243 181.103 10.7977C181.17 10.971 181.273 11.1043 181.411 11.1977C181.553 11.291 181.73 11.3377 181.943 11.3377C182.159 11.3377 182.335 11.291 182.471 11.1977C182.61 11.1043 182.713 10.971 182.779 10.7977C182.846 10.6243 182.879 10.4177 182.879 10.1777C182.879 9.81768 182.805 9.53635 182.655 9.33368C182.506 9.12835 182.27 9.02568 181.947 9.02568C181.731 9.02568 181.553 9.07235 181.411 9.16568C181.273 9.25635 181.17 9.38835 181.103 9.56168C181.037 9.73235 181.003 9.93768 181.003 10.1777ZM185.87 11.6097H185.51V9.06968H184.606C184.588 9.21635 184.568 9.37101 184.546 9.53368C184.525 9.69368 184.502 9.85235 184.478 10.0097C184.457 10.167 184.436 10.315 184.414 10.4537C184.393 10.5923 184.372 10.7137 184.35 10.8177C184.316 10.9963 184.273 11.1483 184.222 11.2737C184.172 11.399 184.104 11.4937 184.018 11.5577C183.936 11.6217 183.826 11.6537 183.69 11.6537C183.645 11.6537 183.598 11.6483 183.55 11.6377C183.505 11.6297 183.465 11.619 183.43 11.6057V11.3057C183.46 11.319 183.493 11.331 183.53 11.3417C183.568 11.3497 183.608 11.3537 183.65 11.3537C183.73 11.3537 183.793 11.3217 183.838 11.2577C183.886 11.191 183.924 11.1097 183.95 11.0137C183.977 10.915 184 10.8177 184.018 10.7217C184.034 10.6443 184.053 10.5417 184.074 10.4137C184.096 10.283 184.118 10.131 184.142 9.95768C184.169 9.78435 184.196 9.59635 184.222 9.39368C184.252 9.18835 184.28 8.97501 184.306 8.75368H185.87V11.6097ZM186.646 11.6097V8.75368H187.006V9.96168H187.542C187.809 9.96168 188.021 9.99768 188.178 10.0697C188.336 10.1417 188.449 10.239 188.518 10.3617C188.588 10.4843 188.622 10.6217 188.622 10.7737C188.622 10.9417 188.584 11.0883 188.506 11.2137C188.432 11.339 188.318 11.4363 188.166 11.5057C188.014 11.575 187.821 11.6097 187.586 11.6097H186.646ZM187.55 11.3017C187.782 11.3017 187.957 11.259 188.074 11.1737C188.192 11.0857 188.25 10.9523 188.25 10.7737C188.25 10.651 188.221 10.5537 188.162 10.4817C188.106 10.407 188.022 10.3537 187.91 10.3217C187.801 10.2897 187.664 10.2737 187.498 10.2737H187.006V11.3017H187.55ZM189.797 10.4737L189.345 10.6257V9.80968L189.797 9.65768V10.4737ZM189.797 8.51768V9.22968L189.345 9.37368V8.66968H189.225V9.40968L188.981 9.49368V9.92168L189.225 9.84168V10.6617L188.981 10.7377V11.1737L189.225 11.0897V11.7617H189.345V11.0577L189.797 10.9097V11.6097H189.917V10.8737L190.157 10.7897V10.3617L189.917 10.4417V9.62168L190.157 9.54568V9.10968L189.917 9.19368V8.51768H189.797Z" fill="white"/>
</g>
<defs>
<clipPath id="clip0_14_1644">
<rect width="19" height="19" fill="white" transform="translate(174.5 0.5)"/>
</clipPath>
</defs>
</svg>
