<svg width="194" height="20" viewBox="0 0 194 20" fill="none" xmlns="http://www.w3.org/2000/svg">
<rect x="0.75" y="0.75" width="18.5" height="18.5" fill="#232323" stroke="#232323" stroke-width="0.5"/>
<path d="M8.74404 8.75368V11.2897H9.10804V12.3617H8.76404V11.6097H6.80004V12.3617H6.45604V11.2897H6.67604C6.77204 11.1243 6.86271 10.939 6.94804 10.7337C7.03604 10.5283 7.11337 10.3137 7.18004 10.0897C7.24671 9.86301 7.30137 9.63634 7.34404 9.40968C7.38671 9.18301 7.41337 8.96434 7.42404 8.75368H8.74404ZM7.74004 9.07768C7.72937 9.23234 7.70271 9.40701 7.66004 9.60168C7.62004 9.79634 7.56804 9.99634 7.50404 10.2017C7.44271 10.4043 7.37337 10.6003 7.29604 10.7897C7.22137 10.979 7.14137 11.1457 7.05604 11.2897H8.38804V9.07768H7.74004ZM12.0777 10.1777C12.0777 10.399 12.0497 10.6003 11.9937 10.7817C11.9377 10.9603 11.8537 11.115 11.7417 11.2457C11.6323 11.3763 11.495 11.4763 11.3297 11.5457C11.167 11.615 10.9777 11.6497 10.7617 11.6497C10.5377 11.6497 10.343 11.615 10.1777 11.5457C10.0123 11.4737 9.875 11.3737 9.76567 11.2457C9.65633 11.115 9.575 10.959 9.52167 10.7777C9.46833 10.5963 9.44167 10.395 9.44167 10.1737C9.44167 9.88034 9.48967 9.62434 9.58567 9.40568C9.68167 9.18701 9.827 9.01634 10.0217 8.89368C10.219 8.77101 10.467 8.70968 10.7657 8.70968C11.051 8.70968 11.291 8.77101 11.4857 8.89368C11.6803 9.01368 11.827 9.18434 11.9257 9.40568C12.027 9.62434 12.0777 9.88168 12.0777 10.1777ZM9.82167 10.1777C9.82167 10.4177 9.855 10.6243 9.92167 10.7977C9.98833 10.971 10.091 11.1043 10.2297 11.1977C10.371 11.291 10.5483 11.3377 10.7617 11.3377C10.9777 11.3377 11.1537 11.291 11.2897 11.1977C11.4283 11.1043 11.531 10.971 11.5977 10.7977C11.6643 10.6243 11.6977 10.4177 11.6977 10.1777C11.6977 9.81768 11.623 9.53634 11.4737 9.33368C11.3243 9.12834 11.0883 9.02568 10.7657 9.02568C10.5497 9.02568 10.371 9.07234 10.2297 9.16568C10.091 9.25634 9.98833 9.38834 9.92167 9.56168C9.855 9.73234 9.82167 9.93768 9.82167 10.1777ZM13.2947 10.4737L12.8427 10.6257V9.80968L13.2947 9.65768V10.4737ZM13.2947 8.51768V9.22968L12.8427 9.37368V8.66968H12.7227V9.40968L12.4787 9.49368V9.92168L12.7227 9.84168V10.6617L12.4787 10.7377V11.1737L12.7227 11.0897V11.7617H12.8427V11.0577L13.2947 10.9097V11.6097H13.4147V10.8737L13.6547 10.7897V10.3617L13.4147 10.4417V9.62168L13.6547 9.54568V9.10968L13.4147 9.19368V8.51768H13.2947Z" fill="white"/>
<rect x="29.75" y="0.75" width="18.5" height="18.5" fill="#232323" stroke="#232323" stroke-width="0.5"/>
<path d="M37.1991 8.75368C37.5724 8.75368 37.8444 8.82701 38.0151 8.97368C38.1858 9.12034 38.2711 9.32701 38.2711 9.59368C38.2711 9.71101 38.2511 9.82434 38.2111 9.93368C38.1738 10.0403 38.1111 10.1363 38.0231 10.2217C37.9351 10.307 37.8178 10.375 37.6711 10.4257C37.5244 10.4737 37.3444 10.4977 37.1311 10.4977H36.8031V11.6097H36.4431V8.75368H37.1991ZM37.1671 9.06168H36.8031V10.1897H37.0911C37.2724 10.1897 37.4231 10.171 37.5431 10.1337C37.6631 10.0937 37.7524 10.031 37.8111 9.94568C37.8698 9.86034 37.8991 9.74834 37.8991 9.60968C37.8991 9.42568 37.8404 9.28834 37.7231 9.19768C37.6058 9.10701 37.4204 9.06168 37.1671 9.06168ZM40.461 11.6097H38.865V8.75368H40.461V9.06968H39.225V9.96168H40.389V10.2737H39.225V11.2937H40.461V11.6097ZM41.6716 10.4737L41.2196 10.6257V9.80968L41.6716 9.65768V10.4737ZM41.6716 8.51768V9.22968L41.2196 9.37368V8.66968H41.0996V9.40968L40.8556 9.49368V9.92168L41.0996 9.84168V10.6617L40.8556 10.7377V11.1737L41.0996 11.0897V11.7617H41.2196V11.0577L41.6716 10.9097V11.6097H41.7916V10.8737L42.0316 10.7897V10.3617L41.7916 10.4417V9.62168L42.0316 9.54568V9.10968L41.7916 9.19368V8.51768H41.6716Z" fill="white"/>
<rect x="58.75" y="0.75" width="18.5" height="18.5" fill="#232323" stroke="#232323" stroke-width="0.5"/>
<ellipse cx="67.7326" cy="9.89059" rx="5.68159" ry="5.68159" fill="white"/>
<path d="M65.6757 11.6097L64.7357 9.10568H64.7197C64.7251 9.15901 64.7291 9.22701 64.7317 9.30968C64.7371 9.39234 64.7411 9.48301 64.7437 9.58168C64.7464 9.67768 64.7477 9.77634 64.7477 9.87768V11.6097H64.4157V8.75368H64.9477L65.8277 11.0937H65.8437L66.7397 8.75368H67.2677V11.6097H66.9117V9.85368C66.9117 9.76034 66.9131 9.66834 66.9157 9.57768C66.9184 9.48434 66.9224 9.39768 66.9277 9.31768C66.9331 9.23501 66.9371 9.16568 66.9397 9.10968H66.9237L65.9717 11.6097H65.6757ZM68.0487 8.75368H68.3847V10.3217C68.3847 10.3883 68.3833 10.4617 68.3807 10.5417C68.3807 10.619 68.3793 10.6963 68.3767 10.7737C68.374 10.851 68.37 10.9203 68.3647 10.9817C68.362 11.0403 68.3593 11.0857 68.3567 11.1177H68.3727L69.9447 8.75368H70.3447V11.6097H70.0087V10.0577C70.0087 9.98568 70.01 9.90834 70.0127 9.82568C70.0153 9.74034 70.018 9.65901 70.0207 9.58168C70.026 9.50168 70.03 9.43101 70.0327 9.36968C70.0353 9.30834 70.038 9.26301 70.0407 9.23368H70.0247L68.4487 11.6097H68.0487V8.75368ZM71.699 10.4737L71.247 10.6257V9.80968L71.699 9.65768V10.4737ZM71.699 8.51768V9.22968L71.247 9.37368V8.66968H71.127V9.40968L70.883 9.49368V9.92168L71.127 9.84168V10.6617L70.883 10.7377V11.1737L71.127 11.0897V11.7617H71.247V11.0577L71.699 10.9097V11.6097H71.819V10.8737L72.059 10.7897V10.3617L71.819 10.4417V9.62168L72.059 9.54568V9.10968L71.819 9.19368V8.51768H71.699Z" fill="#232323"/>
<rect x="87.75" y="0.75" width="18.5" height="18.5" fill="#232323" stroke="#232323" stroke-width="0.5"/>
<path d="M95.2766 8.71368V9.06568C95.5859 9.07101 95.8299 9.12168 96.0086 9.21768C96.1873 9.31368 96.3139 9.44168 96.3886 9.60168C96.4633 9.75901 96.5006 9.93501 96.5006 10.1297C96.5006 10.2577 96.4806 10.3857 96.4406 10.5137C96.4033 10.639 96.3379 10.7537 96.2446 10.8577C96.1513 10.959 96.0259 11.0417 95.8686 11.1057C95.7113 11.1697 95.5139 11.2043 95.2766 11.2097V11.6497H94.9206V11.2097C94.6779 11.2043 94.4766 11.1697 94.3166 11.1057C94.1593 11.039 94.0353 10.9537 93.9446 10.8497C93.8539 10.743 93.7899 10.627 93.7526 10.5017C93.7153 10.3763 93.6966 10.2523 93.6966 10.1297C93.6966 9.98834 93.7166 9.85501 93.7566 9.72968C93.7993 9.60168 93.8673 9.48968 93.9606 9.39368C94.0566 9.29501 94.1833 9.21634 94.3406 9.15768C94.4979 9.09901 94.6913 9.06834 94.9206 9.06568V8.71368H95.2766ZM94.9206 9.36968C94.7073 9.37501 94.5366 9.40968 94.4086 9.47368C94.2833 9.53768 94.1939 9.62568 94.1406 9.73768C94.0873 9.84701 94.0606 9.97634 94.0606 10.1257C94.0606 10.283 94.0899 10.4203 94.1486 10.5377C94.2099 10.6523 94.3033 10.7417 94.4286 10.8057C94.5566 10.8697 94.7206 10.9057 94.9206 10.9137V9.36968ZM95.2766 10.9137C95.4819 10.9057 95.6473 10.8683 95.7726 10.8017C95.9006 10.735 95.9926 10.6443 96.0486 10.5297C96.1073 10.4123 96.1366 10.2777 96.1366 10.1257C96.1366 9.97368 96.1099 9.84301 96.0566 9.73368C96.0033 9.62168 95.9139 9.53501 95.7886 9.47368C95.6633 9.40968 95.4926 9.37501 95.2766 9.36968V10.9137ZM98.8874 11.6097L98.5434 10.7257H97.4114L97.0714 11.6097H96.7074L97.8234 8.74168H98.1474L99.2594 11.6097H98.8874ZM98.1154 9.54168C98.1074 9.52034 98.0941 9.48168 98.0754 9.42568C98.0568 9.36968 98.0381 9.31234 98.0194 9.25368C98.0034 9.19234 97.9901 9.14568 97.9794 9.11368C97.9661 9.16701 97.9514 9.22168 97.9354 9.27768C97.9221 9.33101 97.9074 9.38034 97.8914 9.42568C97.8781 9.47101 97.8661 9.50968 97.8554 9.54168L97.5314 10.4057H98.4354L98.1154 9.54168ZM100.234 10.4737L99.7821 10.6257V9.80968L100.234 9.65768V10.4737ZM100.234 8.51768V9.22968L99.7821 9.37368V8.66968H99.6621V9.40968L99.4181 9.49368V9.92168L99.6621 9.84168V10.6617L99.4181 10.7377V11.1737L99.6621 11.0897V11.7617H99.7821V11.0577L100.234 10.9097V11.6097H100.354V10.8737L100.594 10.7897V10.3617L100.354 10.4417V9.62168L100.594 9.54568V9.10968L100.354 9.19368V8.51768H100.234Z" fill="white"/>
<rect x="116.75" y="0.75" width="18.5" height="18.5" fill="#232323" stroke="#232323" stroke-width="0.5"/>
<path d="M121.542 9.02968C121.39 9.02968 121.253 9.05634 121.13 9.10968C121.007 9.16034 120.903 9.23634 120.818 9.33768C120.733 9.43634 120.667 9.55768 120.622 9.70168C120.577 9.84301 120.554 10.003 120.554 10.1817C120.554 10.4163 120.59 10.6203 120.662 10.7937C120.737 10.967 120.846 11.1003 120.99 11.1937C121.137 11.287 121.319 11.3337 121.538 11.3337C121.663 11.3337 121.782 11.323 121.894 11.3017C122.006 11.2803 122.115 11.2537 122.222 11.2217V11.5337C122.115 11.5737 122.005 11.603 121.89 11.6217C121.778 11.6403 121.643 11.6497 121.486 11.6497C121.195 11.6497 120.953 11.5897 120.758 11.4697C120.563 11.3497 120.417 11.179 120.318 10.9577C120.222 10.7363 120.174 10.4763 120.174 10.1777C120.174 9.96168 120.203 9.76434 120.262 9.58568C120.323 9.40701 120.411 9.25234 120.526 9.12168C120.643 8.99101 120.787 8.89101 120.958 8.82168C121.129 8.74968 121.325 8.71368 121.546 8.71368C121.693 8.71368 121.834 8.72834 121.97 8.75768C122.106 8.78701 122.227 8.82834 122.334 8.88168L122.19 9.18568C122.102 9.14568 122.003 9.10968 121.894 9.07768C121.787 9.04568 121.67 9.02968 121.542 9.02968ZM125.259 10.1777C125.259 10.399 125.231 10.6003 125.175 10.7817C125.119 10.9603 125.035 11.115 124.923 11.2457C124.814 11.3763 124.677 11.4763 124.511 11.5457C124.349 11.615 124.159 11.6497 123.943 11.6497C123.719 11.6497 123.525 11.615 123.359 11.5457C123.194 11.4737 123.057 11.3737 122.947 11.2457C122.838 11.115 122.757 10.959 122.703 10.7777C122.65 10.5963 122.623 10.395 122.623 10.1737C122.623 9.88034 122.671 9.62434 122.767 9.40568C122.863 9.18701 123.009 9.01634 123.203 8.89368C123.401 8.77101 123.649 8.70968 123.947 8.70968C124.233 8.70968 124.473 8.77101 124.667 8.89368C124.862 9.01368 125.009 9.18434 125.107 9.40568C125.209 9.62434 125.259 9.88168 125.259 10.1777ZM123.003 10.1777C123.003 10.4177 123.037 10.6243 123.103 10.7977C123.17 10.971 123.273 11.1043 123.411 11.1977C123.553 11.291 123.73 11.3377 123.943 11.3377C124.159 11.3377 124.335 11.291 124.471 11.1977C124.61 11.1043 124.713 10.971 124.779 10.7977C124.846 10.6243 124.879 10.4177 124.879 10.1777C124.879 9.81768 124.805 9.53634 124.655 9.33368C124.506 9.12834 124.27 9.02568 123.947 9.02568C123.731 9.02568 123.553 9.07234 123.411 9.16568C123.273 9.25634 123.17 9.38834 123.103 9.56168C123.037 9.73234 123.003 9.93768 123.003 10.1777ZM127.87 11.6097H127.51V9.06968H126.606C126.588 9.21634 126.568 9.37101 126.546 9.53368C126.525 9.69368 126.502 9.85234 126.478 10.0097C126.457 10.167 126.436 10.315 126.414 10.4537C126.393 10.5923 126.372 10.7137 126.35 10.8177C126.316 10.9963 126.273 11.1483 126.222 11.2737C126.172 11.399 126.104 11.4937 126.018 11.5577C125.936 11.6217 125.826 11.6537 125.69 11.6537C125.645 11.6537 125.598 11.6483 125.55 11.6377C125.505 11.6297 125.465 11.619 125.43 11.6057V11.3057C125.46 11.319 125.493 11.331 125.53 11.3417C125.568 11.3497 125.608 11.3537 125.65 11.3537C125.73 11.3537 125.793 11.3217 125.838 11.2577C125.886 11.191 125.924 11.1097 125.95 11.0137C125.977 10.915 126 10.8177 126.018 10.7217C126.034 10.6443 126.053 10.5417 126.074 10.4137C126.096 10.283 126.118 10.131 126.142 9.95768C126.169 9.78434 126.196 9.59634 126.222 9.39368C126.252 9.18834 126.28 8.97501 126.306 8.75368H127.87V11.6097ZM128.646 11.6097V8.75368H129.006V9.96168H129.542C129.809 9.96168 130.021 9.99768 130.178 10.0697C130.336 10.1417 130.449 10.239 130.518 10.3617C130.588 10.4843 130.622 10.6217 130.622 10.7737C130.622 10.9417 130.584 11.0883 130.506 11.2137C130.432 11.339 130.318 11.4363 130.166 11.5057C130.014 11.575 129.821 11.6097 129.586 11.6097H128.646ZM129.55 11.3017C129.782 11.3017 129.957 11.259 130.074 11.1737C130.192 11.0857 130.25 10.9523 130.25 10.7737C130.25 10.651 130.221 10.5537 130.162 10.4817C130.106 10.407 130.022 10.3537 129.91 10.3217C129.801 10.2897 129.664 10.2737 129.498 10.2737H129.006V11.3017H129.55ZM131.797 10.4737L131.345 10.6257V9.80968L131.797 9.65768V10.4737ZM131.797 8.51768V9.22968L131.345 9.37368V8.66968H131.225V9.40968L130.981 9.49368V9.92168L131.225 9.84168V10.6617L130.981 10.7377V11.1737L131.225 11.0897V11.7617H131.345V11.0577L131.797 10.9097V11.6097H131.917V10.8737L132.157 10.7897V10.3617L131.917 10.4417V9.62168L132.157 9.54568V9.10968L131.917 9.19368V8.51768H131.797Z" fill="white"/>
<rect x="145.75" y="0.75" width="18.5" height="18.5" fill="#232323" stroke="#232323" stroke-width="0.5"/>
<path d="M154.128 11.6097H153.768V9.06968H152.864C152.845 9.21634 152.825 9.37101 152.804 9.53368C152.783 9.69368 152.76 9.85234 152.736 10.0097C152.715 10.167 152.693 10.315 152.672 10.4537C152.651 10.5923 152.629 10.7137 152.608 10.8177C152.573 10.9963 152.531 11.1483 152.48 11.2737C152.429 11.399 152.361 11.4937 152.276 11.5577C152.193 11.6217 152.084 11.6537 151.948 11.6537C151.903 11.6537 151.856 11.6483 151.808 11.6377C151.763 11.6297 151.723 11.619 151.688 11.6057V11.3057C151.717 11.319 151.751 11.331 151.788 11.3417C151.825 11.3497 151.865 11.3537 151.908 11.3537C151.988 11.3537 152.051 11.3217 152.096 11.2577C152.144 11.191 152.181 11.1097 152.208 11.0137C152.235 10.915 152.257 10.8177 152.276 10.7217C152.292 10.6443 152.311 10.5417 152.332 10.4137C152.353 10.283 152.376 10.131 152.4 9.95768C152.427 9.78434 152.453 9.59634 152.48 9.39368C152.509 9.18834 152.537 8.97501 152.564 8.75368H154.128V11.6097ZM155.764 10.4257L155.024 11.6097H154.604L155.404 10.3617C155.303 10.327 155.207 10.279 155.116 10.2177C155.028 10.1563 154.956 10.0723 154.9 9.96568C154.844 9.85901 154.816 9.72168 154.816 9.55368C154.816 9.29501 154.905 9.09768 155.084 8.96168C155.263 8.82301 155.529 8.75368 155.884 8.75368H156.684V11.6097H156.324V10.4257H155.764ZM155.892 9.06168C155.74 9.06168 155.612 9.07901 155.508 9.11368C155.404 9.14834 155.324 9.20301 155.268 9.27768C155.215 9.35234 155.188 9.44968 155.188 9.56968C155.188 9.74568 155.247 9.88168 155.364 9.97768C155.481 10.0737 155.663 10.1217 155.908 10.1217H156.324V9.06168H155.892ZM158.043 10.4737L157.591 10.6257V9.80968L158.043 9.65768V10.4737ZM158.043 8.51768V9.22968L157.591 9.37368V8.66968H157.471V9.40968L157.227 9.49368V9.92168L157.471 9.84168V10.6617L157.227 10.7377V11.1737L157.471 11.0897V11.7617H157.591V11.0577L158.043 10.9097V11.6097H158.163V10.8737L158.403 10.7897V10.3617L158.163 10.4417V9.62168L158.403 9.54568V9.10968L158.163 9.19368V8.51768H158.043Z" fill="white"/>
<rect x="174.75" y="0.75" width="18.5" height="18.5" fill="#232323" stroke="#232323" stroke-width="0.5"/>
<ellipse cx="183.733" cy="9.88192" rx="5.68159" ry="5.68159" fill="white"/>
<path d="M182.191 9.02968C182.039 9.02968 181.901 9.05634 181.779 9.10968C181.656 9.16034 181.552 9.23634 181.467 9.33768C181.381 9.43634 181.316 9.55768 181.271 9.70168C181.225 9.84301 181.203 10.003 181.203 10.1817C181.203 10.4163 181.239 10.6203 181.311 10.7937C181.385 10.967 181.495 11.1003 181.639 11.1937C181.785 11.287 181.968 11.3337 182.187 11.3337C182.312 11.3337 182.431 11.323 182.543 11.3017C182.655 11.2803 182.764 11.2537 182.871 11.2217V11.5337C182.764 11.5737 182.653 11.603 182.539 11.6217C182.427 11.6403 182.292 11.6497 182.135 11.6497C181.844 11.6497 181.601 11.5897 181.407 11.4697C181.212 11.3497 181.065 11.179 180.967 10.9577C180.871 10.7363 180.823 10.4763 180.823 10.1777C180.823 9.96168 180.852 9.76434 180.911 9.58568C180.972 9.40701 181.06 9.25234 181.175 9.12168C181.292 8.99101 181.436 8.89101 181.607 8.82168C181.777 8.74968 181.973 8.71368 182.195 8.71368C182.341 8.71368 182.483 8.72834 182.619 8.75768C182.755 8.78701 182.876 8.82834 182.983 8.88168L182.839 9.18568C182.751 9.14568 182.652 9.10968 182.543 9.07768C182.436 9.04568 182.319 9.02968 182.191 9.02968ZM183.498 8.75368H183.834V10.3217C183.834 10.3883 183.833 10.4617 183.83 10.5417C183.83 10.619 183.829 10.6963 183.826 10.7737C183.823 10.851 183.819 10.9203 183.814 10.9817C183.811 11.0403 183.809 11.0857 183.806 11.1177H183.822L185.394 8.75368H185.794V11.6097H185.458V10.0577C185.458 9.98568 185.459 9.90834 185.462 9.82568C185.465 9.74034 185.467 9.65901 185.47 9.58168C185.475 9.50168 185.479 9.43101 185.482 9.36968C185.485 9.30834 185.487 9.26301 185.49 9.23368H185.474L183.898 11.6097H183.498V8.75368ZM187.148 10.4737L186.696 10.6257V9.80968L187.148 9.65768V10.4737ZM187.148 8.51768V9.22968L186.696 9.37368V8.66968H186.576V9.40968L186.332 9.49368V9.92168L186.576 9.84168V10.6617L186.332 10.7377V11.1737L186.576 11.0897V11.7617H186.696V11.0577L187.148 10.9097V11.6097H187.268V10.8737L187.508 10.7897V10.3617L187.268 10.4417V9.62168L187.508 9.54568V9.10968L187.268 9.19368V8.51768H187.148Z" fill="#232323"/>
</svg>
