<svg width="194" height="20" viewBox="0 0 194 20" fill="none" xmlns="http://www.w3.org/2000/svg">
<g clip-path="url(#clip0_14_1524)">
<rect x="0.75" y="0.75" width="18.5" height="18.5" fill="#232323" stroke="#232323" stroke-width="0.5"/>
<path d="M8.27659 8.71368V9.06568C8.58592 9.07101 8.82992 9.12168 9.00859 9.21768C9.18725 9.31368 9.31392 9.44168 9.38859 9.60168C9.46325 9.75901 9.50059 9.93501 9.50059 10.1297C9.50059 10.2577 9.48059 10.3857 9.44059 10.5137C9.40325 10.639 9.33792 10.7537 9.24459 10.8577C9.15125 10.959 9.02592 11.0417 8.86859 11.1057C8.71125 11.1697 8.51392 11.2043 8.27659 11.2097V11.6497H7.92059V11.2097C7.67792 11.2043 7.47659 11.1697 7.31659 11.1057C7.15925 11.039 7.03525 10.9537 6.94459 10.8497C6.85392 10.743 6.78992 10.627 6.75259 10.5017C6.71525 10.3763 6.69659 10.2523 6.69659 10.1297C6.69659 9.98835 6.71659 9.85501 6.75659 9.72968C6.79925 9.60168 6.86725 9.48968 6.96059 9.39368C7.05659 9.29501 7.18325 9.21635 7.34059 9.15768C7.49792 9.09901 7.69125 9.06835 7.92059 9.06568V8.71368H8.27659ZM7.92059 9.36968C7.70725 9.37501 7.53659 9.40968 7.40859 9.47368C7.28325 9.53768 7.19392 9.62568 7.14059 9.73768C7.08725 9.84701 7.06059 9.97635 7.06059 10.1257C7.06059 10.283 7.08992 10.4203 7.14859 10.5377C7.20992 10.6523 7.30325 10.7417 7.42859 10.8057C7.55659 10.8697 7.72059 10.9057 7.92059 10.9137V9.36968ZM8.27659 10.9137C8.48192 10.9057 8.64725 10.8683 8.77259 10.8017C8.90059 10.735 8.99259 10.6443 9.04859 10.5297C9.10725 10.4123 9.13659 10.2777 9.13659 10.1257C9.13659 9.97368 9.10992 9.84301 9.05659 9.73368C9.00325 9.62168 8.91392 9.53501 8.78859 9.47368C8.66325 9.40968 8.49259 9.37501 8.27659 9.36968V10.9137ZM11.8874 11.6097L11.5434 10.7257H10.4114L10.0714 11.6097H9.70743L10.8234 8.74168H11.1474L12.2594 11.6097H11.8874ZM11.1154 9.54168C11.1074 9.52035 11.0941 9.48168 11.0754 9.42568C11.0568 9.36968 11.0381 9.31235 11.0194 9.25368C11.0034 9.19235 10.9901 9.14568 10.9794 9.11368C10.9661 9.16701 10.9514 9.22168 10.9354 9.27768C10.9221 9.33101 10.9074 9.38035 10.8914 9.42568C10.8781 9.47101 10.8661 9.50968 10.8554 9.54168L10.5314 10.4057H11.4354L11.1154 9.54168ZM13.2341 10.4737L12.7821 10.6257V9.80968L13.2341 9.65768V10.4737ZM13.2341 8.51768V9.22968L12.7821 9.37368V8.66968H12.6621V9.40968L12.4181 9.49368V9.92168L12.6621 9.84168V10.6617L12.4181 10.7377V11.1737L12.6621 11.0897V11.7617H12.7821V11.0577L13.2341 10.9097V11.6097H13.3541V10.8737L13.5941 10.7897V10.3617L13.3541 10.4417V9.62168L13.5941 9.54568V9.10968L13.3541 9.19368V8.51768H13.2341Z" fill="white"/>
</g>
<rect x="29.75" y="0.75" width="18.5" height="18.5" fill="#232323" stroke="#232323" stroke-width="0.5"/>
<path d="M34.5421 9.02968C34.3901 9.02968 34.2528 9.05635 34.1301 9.10968C34.0074 9.16035 33.9034 9.23635 33.8181 9.33768C33.7328 9.43635 33.6674 9.55768 33.6221 9.70168C33.5768 9.84301 33.5541 10.003 33.5541 10.1817C33.5541 10.4163 33.5901 10.6203 33.6621 10.7937C33.7368 10.967 33.8461 11.1003 33.9901 11.1937C34.1368 11.287 34.3194 11.3337 34.5381 11.3337C34.6634 11.3337 34.7821 11.323 34.8941 11.3017C35.0061 11.2803 35.1154 11.2537 35.2221 11.2217V11.5337C35.1154 11.5737 35.0048 11.603 34.8901 11.6217C34.7781 11.6403 34.6434 11.6497 34.4861 11.6497C34.1954 11.6497 33.9528 11.5897 33.7581 11.4697C33.5634 11.3497 33.4168 11.179 33.3181 10.9577C33.2221 10.7363 33.1741 10.4763 33.1741 10.1777C33.1741 9.96168 33.2034 9.76435 33.2621 9.58568C33.3234 9.40701 33.4114 9.25235 33.5261 9.12168C33.6434 8.99101 33.7874 8.89101 33.9581 8.82168C34.1288 8.74968 34.3248 8.71368 34.5461 8.71368C34.6928 8.71368 34.8341 8.72835 34.9701 8.75768C35.1061 8.78701 35.2274 8.82835 35.3341 8.88168L35.1901 9.18568C35.1021 9.14568 35.0034 9.10968 34.8941 9.07768C34.7874 9.04568 34.6701 9.02968 34.5421 9.02968ZM38.2593 10.1777C38.2593 10.399 38.2313 10.6003 38.1753 10.7817C38.1193 10.9603 38.0353 11.115 37.9233 11.2457C37.814 11.3763 37.6766 11.4763 37.5113 11.5457C37.3486 11.615 37.1593 11.6497 36.9433 11.6497C36.7193 11.6497 36.5246 11.615 36.3593 11.5457C36.194 11.4737 36.0566 11.3737 35.9473 11.2457C35.838 11.115 35.7566 10.959 35.7033 10.7777C35.65 10.5963 35.6233 10.395 35.6233 10.1737C35.6233 9.88035 35.6713 9.62435 35.7673 9.40568C35.8633 9.18701 36.0086 9.01635 36.2033 8.89368C36.4006 8.77101 36.6486 8.70968 36.9473 8.70968C37.2326 8.70968 37.4726 8.77101 37.6673 8.89368C37.862 9.01368 38.0086 9.18435 38.1073 9.40568C38.2086 9.62435 38.2593 9.88168 38.2593 10.1777ZM36.0033 10.1777C36.0033 10.4177 36.0366 10.6243 36.1033 10.7977C36.17 10.971 36.2726 11.1043 36.4113 11.1977C36.5526 11.291 36.73 11.3377 36.9433 11.3377C37.1593 11.3377 37.3353 11.291 37.4713 11.1977C37.61 11.1043 37.7126 10.971 37.7793 10.7977C37.846 10.6243 37.8793 10.4177 37.8793 10.1777C37.8793 9.81768 37.8046 9.53635 37.6553 9.33368C37.506 9.12835 37.27 9.02568 36.9473 9.02568C36.7313 9.02568 36.5526 9.07235 36.4113 9.16568C36.2726 9.25635 36.17 9.38835 36.1033 9.56168C36.0366 9.73235 36.0033 9.93768 36.0033 10.1777ZM40.8702 11.6097H40.5102V9.06968H39.6062C39.5875 9.21635 39.5675 9.37101 39.5462 9.53368C39.5248 9.69368 39.5022 9.85235 39.4782 10.0097C39.4568 10.167 39.4355 10.315 39.4142 10.4537C39.3928 10.5923 39.3715 10.7137 39.3502 10.8177C39.3155 10.9963 39.2728 11.1483 39.2222 11.2737C39.1715 11.399 39.1035 11.4937 39.0182 11.5577C38.9355 11.6217 38.8262 11.6537 38.6902 11.6537C38.6448 11.6537 38.5982 11.6483 38.5502 11.6377C38.5048 11.6297 38.4648 11.619 38.4302 11.6057V11.3057C38.4595 11.319 38.4928 11.331 38.5302 11.3417C38.5675 11.3497 38.6075 11.3537 38.6502 11.3537C38.7302 11.3537 38.7928 11.3217 38.8382 11.2577C38.8862 11.191 38.9235 11.1097 38.9502 11.0137C38.9768 10.915 38.9995 10.8177 39.0182 10.7217C39.0342 10.6443 39.0528 10.5417 39.0742 10.4137C39.0955 10.283 39.1182 10.131 39.1422 9.95768C39.1688 9.78435 39.1955 9.59635 39.2222 9.39368C39.2515 9.18835 39.2795 8.97501 39.3062 8.75368H40.8702V11.6097ZM41.6462 11.6097V8.75368H42.0062V9.96168H42.5422C42.8089 9.96168 43.0209 9.99768 43.1782 10.0697C43.3355 10.1417 43.4489 10.239 43.5182 10.3617C43.5875 10.4843 43.6222 10.6217 43.6222 10.7737C43.6222 10.9417 43.5835 11.0883 43.5062 11.2137C43.4315 11.339 43.3182 11.4363 43.1662 11.5057C43.0142 11.575 42.8209 11.6097 42.5862 11.6097H41.6462ZM42.5502 11.3017C42.7822 11.3017 42.9569 11.259 43.0742 11.1737C43.1915 11.0857 43.2502 10.9523 43.2502 10.7737C43.2502 10.651 43.2209 10.5537 43.1622 10.4817C43.1062 10.407 43.0222 10.3537 42.9102 10.3217C42.8009 10.2897 42.6635 10.2737 42.4982 10.2737H42.0062V11.3017H42.5502ZM44.7966 10.4737L44.3446 10.6257V9.80968L44.7966 9.65768V10.4737ZM44.7966 8.51768V9.22968L44.3446 9.37368V8.66968H44.2246V9.40968L43.9806 9.49368V9.92168L44.2246 9.84168V10.6617L43.9806 10.7377V11.1737L44.2246 11.0897V11.7617H44.3446V11.0577L44.7966 10.9097V11.6097H44.9166V10.8737L45.1566 10.7897V10.3617L44.9166 10.4417V9.62168L45.1566 9.54568V9.10968L44.9166 9.19368V8.51768H44.7966Z" fill="white"/>
<rect x="58.75" y="0.75" width="18.5" height="18.5" fill="#232323" stroke="#232323" stroke-width="0.5"/>
<path d="M67.128 11.6097H66.768V9.06968H65.864C65.8453 9.21635 65.8253 9.37101 65.804 9.53368C65.7827 9.69368 65.76 9.85235 65.736 10.0097C65.7147 10.167 65.6933 10.315 65.672 10.4537C65.6507 10.5923 65.6293 10.7137 65.608 10.8177C65.5733 10.9963 65.5307 11.1483 65.48 11.2737C65.4293 11.399 65.3613 11.4937 65.276 11.5577C65.1933 11.6217 65.084 11.6537 64.948 11.6537C64.9027 11.6537 64.856 11.6483 64.808 11.6377C64.7627 11.6297 64.7227 11.619 64.688 11.6057V11.3057C64.7173 11.319 64.7507 11.331 64.788 11.3417C64.8253 11.3497 64.8653 11.3537 64.908 11.3537C64.988 11.3537 65.0507 11.3217 65.096 11.2577C65.144 11.191 65.1813 11.1097 65.208 11.0137C65.2347 10.915 65.2573 10.8177 65.276 10.7217C65.292 10.6443 65.3107 10.5417 65.332 10.4137C65.3533 10.283 65.376 10.131 65.4 9.95768C65.4267 9.78435 65.4533 9.59635 65.48 9.39368C65.5093 9.18835 65.5373 8.97501 65.564 8.75368H67.128V11.6097ZM68.764 10.4257L68.024 11.6097H67.604L68.404 10.3617C68.3027 10.327 68.2067 10.279 68.116 10.2177C68.028 10.1563 67.956 10.0723 67.9 9.96568C67.844 9.85901 67.816 9.72168 67.816 9.55368C67.816 9.29501 67.9054 9.09768 68.084 8.96168C68.2627 8.82301 68.5294 8.75368 68.884 8.75368H69.684V11.6097H69.324V10.4257H68.764ZM68.892 9.06168C68.74 9.06168 68.612 9.07901 68.508 9.11368C68.404 9.14835 68.324 9.20301 68.268 9.27768C68.2147 9.35235 68.188 9.44968 68.188 9.56968C68.188 9.74568 68.2467 9.88168 68.364 9.97768C68.4814 10.0737 68.6627 10.1217 68.908 10.1217H69.324V9.06168H68.892ZM71.0427 10.4737L70.5907 10.6257V9.80968L71.0427 9.65768V10.4737ZM71.0427 8.51768V9.22968L70.5907 9.37368V8.66968H70.4707V9.40968L70.2267 9.49368V9.92168L70.4707 9.84168V10.6617L70.2267 10.7377V11.1737L70.4707 11.0897V11.7617H70.5907V11.0577L71.0427 10.9097V11.6097H71.1627V10.8737L71.4027 10.7897V10.3617L71.1627 10.4417V9.62168L71.4027 9.54568V9.10968L71.1627 9.19368V8.51768H71.0427Z" fill="white"/>
<rect x="87.75" y="0.75" width="18.5" height="18.5" fill="white" stroke="#232323" stroke-width="0.5"/>
<path d="M95.9112 9.02968C95.7592 9.02968 95.6219 9.05635 95.4992 9.10968C95.3766 9.16035 95.2726 9.23635 95.1872 9.33768C95.1019 9.43635 95.0366 9.55768 94.9912 9.70168C94.9459 9.84301 94.9232 10.003 94.9232 10.1817C94.9232 10.4163 94.9592 10.6203 95.0312 10.7937C95.1059 10.967 95.2152 11.1003 95.3592 11.1937C95.5059 11.287 95.6886 11.3337 95.9072 11.3337C96.0326 11.3337 96.1512 11.323 96.2632 11.3017C96.3752 11.2803 96.4846 11.2537 96.5912 11.2217V11.5337C96.4846 11.5737 96.3739 11.603 96.2592 11.6217C96.1472 11.6403 96.0126 11.6497 95.8552 11.6497C95.5646 11.6497 95.3219 11.5897 95.1272 11.4697C94.9326 11.3497 94.7859 11.179 94.6872 10.9577C94.5912 10.7363 94.5432 10.4763 94.5432 10.1777C94.5432 9.96168 94.5726 9.76435 94.6312 9.58568C94.6926 9.40701 94.7806 9.25235 94.8952 9.12168C95.0126 8.99101 95.1566 8.89101 95.3272 8.82168C95.4979 8.74968 95.6939 8.71368 95.9152 8.71368C96.0619 8.71368 96.2032 8.72835 96.3392 8.75768C96.4752 8.78701 96.5966 8.82835 96.7032 8.88168L96.5592 9.18568C96.4712 9.14568 96.3726 9.10968 96.2632 9.07768C96.1566 9.04568 96.0392 9.02968 95.9112 9.02968ZM97.2186 8.75368H97.5546V10.3217C97.5546 10.3883 97.5532 10.4617 97.5506 10.5417C97.5506 10.619 97.5492 10.6963 97.5466 10.7737C97.5439 10.851 97.5399 10.9203 97.5346 10.9817C97.5319 11.0403 97.5292 11.0857 97.5266 11.1177H97.5426L99.1146 8.75368H99.5146V11.6097H99.1786V10.0577C99.1786 9.98568 99.1799 9.90835 99.1826 9.82568C99.1852 9.74035 99.1879 9.65901 99.1906 9.58168C99.1959 9.50168 99.1999 9.43101 99.2026 9.36968C99.2052 9.30835 99.2079 9.26301 99.2106 9.23368H99.1946L97.6186 11.6097H97.2186V8.75368Z" fill="#232323"/>
<rect x="116.75" y="0.75" width="18.5" height="18.5" fill="#232323" stroke="#232323" stroke-width="0.5"/>
<path d="M124.744 8.75368V11.2897H125.108V12.3617H124.764V11.6097H122.8V12.3617H122.456V11.2897H122.676C122.772 11.1243 122.863 10.939 122.948 10.7337C123.036 10.5283 123.113 10.3137 123.18 10.0897C123.247 9.86301 123.301 9.63635 123.344 9.40968C123.387 9.18301 123.413 8.96435 123.424 8.75368H124.744ZM123.74 9.07768C123.729 9.23235 123.703 9.40701 123.66 9.60168C123.62 9.79635 123.568 9.99635 123.504 10.2017C123.443 10.4043 123.373 10.6003 123.296 10.7897C123.221 10.979 123.141 11.1457 123.056 11.2897H124.388V9.07768H123.74ZM128.078 10.1777C128.078 10.399 128.05 10.6003 127.994 10.7817C127.938 10.9603 127.854 11.115 127.742 11.2457C127.632 11.3763 127.495 11.4763 127.33 11.5457C127.167 11.615 126.978 11.6497 126.762 11.6497C126.538 11.6497 126.343 11.615 126.178 11.5457C126.012 11.4737 125.875 11.3737 125.766 11.2457C125.656 11.115 125.575 10.959 125.522 10.7777C125.468 10.5963 125.442 10.395 125.442 10.1737C125.442 9.88035 125.49 9.62435 125.586 9.40568C125.682 9.18701 125.827 9.01635 126.022 8.89368C126.219 8.77101 126.467 8.70968 126.766 8.70968C127.051 8.70968 127.291 8.77101 127.486 8.89368C127.68 9.01368 127.827 9.18435 127.926 9.40568C128.027 9.62435 128.078 9.88168 128.078 10.1777ZM125.822 10.1777C125.822 10.4177 125.855 10.6243 125.922 10.7977C125.988 10.971 126.091 11.1043 126.23 11.1977C126.371 11.291 126.548 11.3377 126.762 11.3377C126.978 11.3377 127.154 11.291 127.29 11.1977C127.428 11.1043 127.531 10.971 127.598 10.7977C127.664 10.6243 127.698 10.4177 127.698 10.1777C127.698 9.81768 127.623 9.53635 127.474 9.33368C127.324 9.12835 127.088 9.02568 126.766 9.02568C126.55 9.02568 126.371 9.07235 126.23 9.16568C126.091 9.25635 125.988 9.38835 125.922 9.56168C125.855 9.73235 125.822 9.93768 125.822 10.1777ZM129.295 10.4737L128.843 10.6257V9.80968L129.295 9.65768V10.4737ZM129.295 8.51768V9.22968L128.843 9.37368V8.66968H128.723V9.40968L128.479 9.49368V9.92168L128.723 9.84168V10.6617L128.479 10.7377V11.1737L128.723 11.0897V11.7617H128.843V11.0577L129.295 10.9097V11.6097H129.415V10.8737L129.655 10.7897V10.3617L129.415 10.4417V9.62168L129.655 9.54568V9.10968L129.415 9.19368V8.51768H129.295Z" fill="white"/>
<rect x="145.75" y="0.75" width="18.5" height="18.5" fill="#232323" stroke="#232323" stroke-width="0.5"/>
<path d="M153.199 8.75368C153.572 8.75368 153.844 8.82701 154.015 8.97368C154.186 9.12035 154.271 9.32701 154.271 9.59368C154.271 9.71101 154.251 9.82435 154.211 9.93368C154.174 10.0403 154.111 10.1363 154.023 10.2217C153.935 10.307 153.818 10.375 153.671 10.4257C153.524 10.4737 153.344 10.4977 153.131 10.4977H152.803V11.6097H152.443V8.75368H153.199ZM153.167 9.06168H152.803V10.1897H153.091C153.272 10.1897 153.423 10.171 153.543 10.1337C153.663 10.0937 153.752 10.031 153.811 9.94568C153.87 9.86035 153.899 9.74835 153.899 9.60968C153.899 9.42568 153.84 9.28835 153.723 9.19768C153.606 9.10701 153.42 9.06168 153.167 9.06168ZM156.461 11.6097H154.865V8.75368H156.461V9.06968H155.225V9.96168H156.389V10.2737H155.225V11.2937H156.461V11.6097ZM157.672 10.4737L157.22 10.6257V9.80968L157.672 9.65768V10.4737ZM157.672 8.51768V9.22968L157.22 9.37368V8.66968H157.1V9.40968L156.856 9.49368V9.92168L157.1 9.84168V10.6617L156.856 10.7377V11.1737L157.1 11.0897V11.7617H157.22V11.0577L157.672 10.9097V11.6097H157.792V10.8737L158.032 10.7897V10.3617L157.792 10.4417V9.62168L158.032 9.54568V9.10968L157.792 9.19368V8.51768H157.672Z" fill="white"/>
<rect x="174.75" y="0.75" width="18.5" height="18.5" fill="#232323" stroke="#232323" stroke-width="0.5"/>
<ellipse cx="183.733" cy="9.89059" rx="5.68159" ry="5.68159" fill="white"/>
<path d="M181.676 11.6097L180.736 9.10568H180.72C180.725 9.15901 180.729 9.22701 180.732 9.30968C180.737 9.39235 180.741 9.48301 180.744 9.58168C180.746 9.67768 180.748 9.77635 180.748 9.87768V11.6097H180.416V8.75368H180.948L181.828 11.0937H181.844L182.74 8.75368H183.268V11.6097H182.912V9.85368C182.912 9.76035 182.913 9.66835 182.916 9.57768C182.918 9.48435 182.922 9.39768 182.928 9.31768C182.933 9.23501 182.937 9.16568 182.94 9.10968H182.924L181.972 11.6097H181.676ZM184.049 8.75368H184.385V10.3217C184.385 10.3883 184.383 10.4617 184.381 10.5417C184.381 10.619 184.379 10.6963 184.377 10.7737C184.374 10.851 184.37 10.9203 184.365 10.9817C184.362 11.0403 184.359 11.0857 184.357 11.1177H184.373L185.945 8.75368H186.345V11.6097H186.009V10.0577C186.009 9.98568 186.01 9.90835 186.013 9.82568C186.015 9.74035 186.018 9.65901 186.021 9.58168C186.026 9.50168 186.03 9.43101 186.033 9.36968C186.035 9.30835 186.038 9.26301 186.041 9.23368H186.025L184.449 11.6097H184.049V8.75368ZM187.699 10.4737L187.247 10.6257V9.80968L187.699 9.65768V10.4737ZM187.699 8.51768V9.22968L187.247 9.37368V8.66968H187.127V9.40968L186.883 9.49368V9.92168L187.127 9.84168V10.6617L186.883 10.7377V11.1737L187.127 11.0897V11.7617H187.247V11.0577L187.699 10.9097V11.6097H187.819V10.8737L188.059 10.7897V10.3617L187.819 10.4417V9.62168L188.059 9.54568V9.10968L187.819 9.19368V8.51768H187.699Z" fill="#232323"/>
<defs>
<clipPath id="clip0_14_1524">
<rect width="19" height="19" fill="white" transform="translate(0.5 0.5)"/>
</clipPath>
</defs>
</svg>
