<svg width="194" height="20" viewBox="0 0 194 20" fill="none" xmlns="http://www.w3.org/2000/svg">
<rect x="0.75" y="0.75" width="18.5" height="18.5" fill="white" stroke="#232323" stroke-width="0.5"/>
<path d="M9.46474 8.75368V11.2897H9.82874V12.3617H9.48474V11.6097H7.52074V12.3617H7.17674V11.2897H7.39674C7.49274 11.1243 7.58341 10.939 7.66874 10.7337C7.75674 10.5283 7.83408 10.3137 7.90074 10.0897C7.96741 9.86301 8.02208 9.63635 8.06474 9.40968C8.10741 9.18301 8.13408 8.96435 8.14474 8.75368H9.46474ZM8.46074 9.07768C8.45008 9.23235 8.42341 9.40701 8.38074 9.60168C8.34074 9.79635 8.28874 9.99635 8.22474 10.2017C8.16341 10.4043 8.09408 10.6003 8.01674 10.7897C7.94208 10.979 7.86208 11.1457 7.77674 11.2897H9.10874V9.07768H8.46074ZM12.7984 10.1777C12.7984 10.399 12.7704 10.6003 12.7144 10.7817C12.6584 10.9603 12.5744 11.115 12.4624 11.2457C12.353 11.3763 12.2157 11.4763 12.0504 11.5457C11.8877 11.615 11.6984 11.6497 11.4824 11.6497C11.2584 11.6497 11.0637 11.615 10.8984 11.5457C10.733 11.4737 10.5957 11.3737 10.4864 11.2457C10.377 11.115 10.2957 10.959 10.2424 10.7777C10.189 10.5963 10.1624 10.395 10.1624 10.1737C10.1624 9.88035 10.2104 9.62435 10.3064 9.40568C10.4024 9.18701 10.5477 9.01635 10.7424 8.89368C10.9397 8.77101 11.1877 8.70968 11.4864 8.70968C11.7717 8.70968 12.0117 8.77101 12.2064 8.89368C12.401 9.01368 12.5477 9.18435 12.6464 9.40568C12.7477 9.62435 12.7984 9.88168 12.7984 10.1777ZM10.5424 10.1777C10.5424 10.4177 10.5757 10.6243 10.6424 10.7977C10.709 10.971 10.8117 11.1043 10.9504 11.1977C11.0917 11.291 11.269 11.3377 11.4824 11.3377C11.6984 11.3377 11.8744 11.291 12.0104 11.1977C12.149 11.1043 12.2517 10.971 12.3184 10.7977C12.385 10.6243 12.4184 10.4177 12.4184 10.1777C12.4184 9.81768 12.3437 9.53635 12.1944 9.33368C12.045 9.12835 11.809 9.02568 11.4864 9.02568C11.2704 9.02568 11.0917 9.07235 10.9504 9.16568C10.8117 9.25635 10.709 9.38835 10.6424 9.56168C10.5757 9.73235 10.5424 9.93768 10.5424 10.1777Z" fill="#232323"/>
<rect x="29.75" y="0.75" width="18.5" height="18.5" fill="white" stroke="#232323" stroke-width="0.5"/>
<path d="M37.9198 8.75368C38.2931 8.75368 38.5651 8.82701 38.7358 8.97368C38.9065 9.12035 38.9918 9.32701 38.9918 9.59368C38.9918 9.71101 38.9718 9.82435 38.9318 9.93368C38.8945 10.0403 38.8318 10.1363 38.7438 10.2217C38.6558 10.307 38.5385 10.375 38.3918 10.4257C38.2451 10.4737 38.0651 10.4977 37.8518 10.4977H37.5238V11.6097H37.1638V8.75368H37.9198ZM37.8878 9.06168H37.5238V10.1897H37.8118C37.9931 10.1897 38.1438 10.171 38.2638 10.1337C38.3838 10.0937 38.4731 10.031 38.5318 9.94568C38.5905 9.86035 38.6198 9.74835 38.6198 9.60968C38.6198 9.42568 38.5611 9.28835 38.4438 9.19768C38.3265 9.10701 38.1411 9.06168 37.8878 9.06168ZM41.1817 11.6097H39.5857V8.75368H41.1817V9.06968H39.9457V9.96168H41.1097V10.2737H39.9457V11.2937H41.1817V11.6097Z" fill="#232323"/>
<rect x="58.75" y="0.75" width="18.5" height="18.5" fill="white" stroke="#232323" stroke-width="0.5"/>
<path d="M66.3964 11.6097L65.4564 9.10568H65.4404C65.4458 9.15901 65.4498 9.22701 65.4524 9.30968C65.4578 9.39235 65.4618 9.48301 65.4644 9.58168C65.4671 9.67768 65.4684 9.77635 65.4684 9.87768V11.6097H65.1364V8.75368H65.6684L66.5484 11.0937H66.5644L67.4604 8.75368H67.9884V11.6097H67.6324V9.85368C67.6324 9.76035 67.6338 9.66835 67.6364 9.57768C67.6391 9.48435 67.6431 9.39768 67.6484 9.31768C67.6538 9.23501 67.6578 9.16568 67.6604 9.10968H67.6444L66.6924 11.6097H66.3964ZM68.7694 8.75368H69.1054V10.3217C69.1054 10.3883 69.104 10.4617 69.1014 10.5417C69.1014 10.619 69.1 10.6963 69.0974 10.7737C69.0947 10.851 69.0907 10.9203 69.0854 10.9817C69.0827 11.0403 69.08 11.0857 69.0774 11.1177H69.0934L70.6654 8.75368H71.0654V11.6097H70.7294V10.0577C70.7294 9.98568 70.7307 9.90835 70.7334 9.82568C70.736 9.74035 70.7387 9.65901 70.7414 9.58168C70.7467 9.50168 70.7507 9.43101 70.7534 9.36968C70.756 9.30835 70.7587 9.26301 70.7614 9.23368H70.7454L69.1694 11.6097H68.7694V8.75368Z" fill="#232323"/>
<rect x="87.75" y="0.75" width="18.5" height="18.5" fill="white" stroke="#232323" stroke-width="0.5"/>
<path d="M95.9973 8.71368V9.06568C96.3066 9.07101 96.5506 9.12168 96.7293 9.21768C96.908 9.31368 97.0346 9.44168 97.1093 9.60168C97.184 9.75901 97.2213 9.93501 97.2213 10.1297C97.2213 10.2577 97.2013 10.3857 97.1613 10.5137C97.124 10.639 97.0586 10.7537 96.9653 10.8577C96.872 10.959 96.7466 11.0417 96.5893 11.1057C96.432 11.1697 96.2346 11.2043 95.9973 11.2097V11.6497H95.6413V11.2097C95.3986 11.2043 95.1973 11.1697 95.0373 11.1057C94.88 11.039 94.756 10.9537 94.6653 10.8497C94.5746 10.743 94.5106 10.627 94.4733 10.5017C94.436 10.3763 94.4173 10.2523 94.4173 10.1297C94.4173 9.98835 94.4373 9.85501 94.4773 9.72968C94.52 9.60168 94.588 9.48968 94.6813 9.39368C94.7773 9.29501 94.904 9.21635 95.0613 9.15768C95.2186 9.09901 95.412 9.06835 95.6413 9.06568V8.71368H95.9973ZM95.6413 9.36968C95.428 9.37501 95.2573 9.40968 95.1293 9.47368C95.004 9.53768 94.9146 9.62568 94.8613 9.73768C94.808 9.84701 94.7813 9.97635 94.7813 10.1257C94.7813 10.283 94.8106 10.4203 94.8693 10.5377C94.9306 10.6523 95.024 10.7417 95.1493 10.8057C95.2773 10.8697 95.4413 10.9057 95.6413 10.9137V9.36968ZM95.9973 10.9137C96.2026 10.9057 96.368 10.8683 96.4933 10.8017C96.6213 10.735 96.7133 10.6443 96.7693 10.5297C96.828 10.4123 96.8573 10.2777 96.8573 10.1257C96.8573 9.97368 96.8306 9.84301 96.7773 9.73368C96.724 9.62168 96.6346 9.53501 96.5093 9.47368C96.384 9.40968 96.2133 9.37501 95.9973 9.36968V10.9137ZM99.6081 11.6097L99.2641 10.7257H98.1321L97.7921 11.6097H97.4281L98.5441 8.74168H98.8681L99.9801 11.6097H99.6081ZM98.8361 9.54168C98.8281 9.52035 98.8148 9.48168 98.7961 9.42568C98.7775 9.36968 98.7588 9.31235 98.7401 9.25368C98.7241 9.19235 98.7108 9.14568 98.7001 9.11368C98.6868 9.16701 98.6721 9.22168 98.6561 9.27768C98.6428 9.33101 98.6281 9.38035 98.6121 9.42568C98.5988 9.47101 98.5868 9.50968 98.5761 9.54168L98.2521 10.4057H99.1561L98.8361 9.54168Z" fill="#232323"/>
<rect x="116.75" y="0.75" width="18.5" height="18.5" fill="white" stroke="#232323" stroke-width="0.5"/>
<path d="M122.263 9.02968C122.111 9.02968 121.973 9.05635 121.851 9.10968C121.728 9.16035 121.624 9.23635 121.539 9.33768C121.453 9.43635 121.388 9.55768 121.343 9.70168C121.297 9.84301 121.275 10.003 121.275 10.1817C121.275 10.4163 121.311 10.6203 121.383 10.7937C121.457 10.967 121.567 11.1003 121.711 11.1937C121.857 11.287 122.04 11.3337 122.259 11.3337C122.384 11.3337 122.503 11.323 122.615 11.3017C122.727 11.2803 122.836 11.2537 122.943 11.2217V11.5337C122.836 11.5737 122.725 11.603 122.611 11.6217C122.499 11.6403 122.364 11.6497 122.207 11.6497C121.916 11.6497 121.673 11.5897 121.479 11.4697C121.284 11.3497 121.137 11.179 121.039 10.9577C120.943 10.7363 120.895 10.4763 120.895 10.1777C120.895 9.96168 120.924 9.76435 120.983 9.58568C121.044 9.40701 121.132 9.25235 121.247 9.12168C121.364 8.99101 121.508 8.89101 121.679 8.82168C121.849 8.74968 122.045 8.71368 122.267 8.71368C122.413 8.71368 122.555 8.72835 122.691 8.75768C122.827 8.78701 122.948 8.82835 123.055 8.88168L122.911 9.18568C122.823 9.14568 122.724 9.10968 122.615 9.07768C122.508 9.04568 122.391 9.02968 122.263 9.02968ZM125.98 10.1777C125.98 10.399 125.952 10.6003 125.896 10.7817C125.84 10.9603 125.756 11.115 125.644 11.2457C125.535 11.3763 125.397 11.4763 125.232 11.5457C125.069 11.615 124.88 11.6497 124.664 11.6497C124.44 11.6497 124.245 11.615 124.08 11.5457C123.915 11.4737 123.777 11.3737 123.668 11.2457C123.559 11.115 123.477 10.959 123.424 10.7777C123.371 10.5963 123.344 10.395 123.344 10.1737C123.344 9.88035 123.392 9.62435 123.488 9.40568C123.584 9.18701 123.729 9.01635 123.924 8.89368C124.121 8.77101 124.369 8.70968 124.668 8.70968C124.953 8.70968 125.193 8.77101 125.388 8.89368C125.583 9.01368 125.729 9.18435 125.828 9.40568C125.929 9.62435 125.98 9.88168 125.98 10.1777ZM123.724 10.1777C123.724 10.4177 123.757 10.6243 123.824 10.7977C123.891 10.971 123.993 11.1043 124.132 11.1977C124.273 11.291 124.451 11.3377 124.664 11.3377C124.88 11.3377 125.056 11.291 125.192 11.1977C125.331 11.1043 125.433 10.971 125.5 10.7977C125.567 10.6243 125.6 10.4177 125.6 10.1777C125.6 9.81768 125.525 9.53635 125.376 9.33368C125.227 9.12835 124.991 9.02568 124.668 9.02568C124.452 9.02568 124.273 9.07235 124.132 9.16568C123.993 9.25635 123.891 9.38835 123.824 9.56168C123.757 9.73235 123.724 9.93768 123.724 10.1777ZM128.591 11.6097H128.231V9.06968H127.327C127.308 9.21635 127.288 9.37101 127.267 9.53368C127.246 9.69368 127.223 9.85235 127.199 10.0097C127.178 10.167 127.156 10.315 127.135 10.4537C127.114 10.5923 127.092 10.7137 127.071 10.8177C127.036 10.9963 126.994 11.1483 126.943 11.2737C126.892 11.399 126.824 11.4937 126.739 11.5577C126.656 11.6217 126.547 11.6537 126.411 11.6537C126.366 11.6537 126.319 11.6483 126.271 11.6377C126.226 11.6297 126.186 11.619 126.151 11.6057V11.3057C126.18 11.319 126.214 11.331 126.251 11.3417C126.288 11.3497 126.328 11.3537 126.371 11.3537C126.451 11.3537 126.514 11.3217 126.559 11.2577C126.607 11.191 126.644 11.1097 126.671 11.0137C126.698 10.915 126.72 10.8177 126.739 10.7217C126.755 10.6443 126.774 10.5417 126.795 10.4137C126.816 10.283 126.839 10.131 126.863 9.95768C126.89 9.78435 126.916 9.59635 126.943 9.39368C126.972 9.18835 127 8.97501 127.027 8.75368H128.591V11.6097ZM129.367 11.6097V8.75368H129.727V9.96168H130.263C130.53 9.96168 130.742 9.99768 130.899 10.0697C131.056 10.1417 131.17 10.239 131.239 10.3617C131.308 10.4843 131.343 10.6217 131.343 10.7737C131.343 10.9417 131.304 11.0883 131.227 11.2137C131.152 11.339 131.039 11.4363 130.887 11.5057C130.735 11.575 130.542 11.6097 130.307 11.6097H129.367ZM130.271 11.3017C130.503 11.3017 130.678 11.259 130.795 11.1737C130.912 11.0857 130.971 10.9523 130.971 10.7737C130.971 10.651 130.942 10.5537 130.883 10.4817C130.827 10.407 130.743 10.3537 130.631 10.3217C130.522 10.2897 130.384 10.2737 130.219 10.2737H129.727V11.3017H130.271Z" fill="#232323"/>
<rect x="145.75" y="0.75" width="18.5" height="18.5" fill="white" stroke="#232323" stroke-width="0.5"/>
<path d="M154.849 11.6097H154.489V9.06968H153.585C153.566 9.21635 153.546 9.37101 153.525 9.53368C153.503 9.69368 153.481 9.85235 153.457 10.0097C153.435 10.167 153.414 10.315 153.393 10.4537C153.371 10.5923 153.35 10.7137 153.329 10.8177C153.294 10.9963 153.251 11.1483 153.201 11.2737C153.15 11.399 153.082 11.4937 152.997 11.5577C152.914 11.6217 152.805 11.6537 152.669 11.6537C152.623 11.6537 152.577 11.6483 152.529 11.6377C152.483 11.6297 152.443 11.619 152.409 11.6057V11.3057C152.438 11.319 152.471 11.331 152.509 11.3417C152.546 11.3497 152.586 11.3537 152.629 11.3537C152.709 11.3537 152.771 11.3217 152.817 11.2577C152.865 11.191 152.902 11.1097 152.929 11.0137C152.955 10.915 152.978 10.8177 152.997 10.7217C153.013 10.6443 153.031 10.5417 153.053 10.4137C153.074 10.283 153.097 10.131 153.121 9.95768C153.147 9.78435 153.174 9.59635 153.201 9.39368C153.23 9.18835 153.258 8.97501 153.285 8.75368H154.849V11.6097ZM156.485 10.4257L155.745 11.6097H155.325L156.125 10.3617C156.023 10.327 155.927 10.279 155.837 10.2177C155.749 10.1563 155.677 10.0723 155.621 9.96568C155.565 9.85901 155.537 9.72168 155.537 9.55368C155.537 9.29501 155.626 9.09768 155.805 8.96168C155.983 8.82301 156.25 8.75368 156.605 8.75368H157.405V11.6097H157.045V10.4257H156.485ZM156.613 9.06168C156.461 9.06168 156.333 9.07901 156.229 9.11368C156.125 9.14835 156.045 9.20301 155.989 9.27768C155.935 9.35235 155.909 9.44968 155.909 9.56968C155.909 9.74568 155.967 9.88168 156.085 9.97768C156.202 10.0737 156.383 10.1217 156.629 10.1217H157.045V9.06168H156.613Z" fill="#232323"/>
<g clip-path="url(#clip0_14_1754)">
<rect x="174.75" y="0.75" width="18.5" height="18.5" fill="white" stroke="#232323" stroke-width="0.5"/>
<path d="M182.911 9.02968C182.759 9.02968 182.622 9.05635 182.499 9.10968C182.377 9.16035 182.273 9.23635 182.187 9.33768C182.102 9.43635 182.037 9.55768 181.991 9.70168C181.946 9.84301 181.923 10.003 181.923 10.1817C181.923 10.4163 181.959 10.6203 182.031 10.7937C182.106 10.967 182.215 11.1003 182.359 11.1937C182.506 11.287 182.689 11.3337 182.907 11.3337C183.033 11.3337 183.151 11.323 183.263 11.3017C183.375 11.2803 183.485 11.2537 183.591 11.2217V11.5337C183.485 11.5737 183.374 11.603 183.259 11.6217C183.147 11.6403 183.013 11.6497 182.855 11.6497C182.565 11.6497 182.322 11.5897 182.127 11.4697C181.933 11.3497 181.786 11.179 181.687 10.9577C181.591 10.7363 181.543 10.4763 181.543 10.1777C181.543 9.96168 181.573 9.76435 181.631 9.58568C181.693 9.40701 181.781 9.25235 181.895 9.12168C182.013 8.99101 182.157 8.89101 182.327 8.82168C182.498 8.74968 182.694 8.71368 182.915 8.71368C183.062 8.71368 183.203 8.72835 183.339 8.75768C183.475 8.78701 183.597 8.82835 183.703 8.88168L183.559 9.18568C183.471 9.14568 183.373 9.10968 183.263 9.07768C183.157 9.04568 183.039 9.02968 182.911 9.02968ZM184.219 8.75368H184.555V10.3217C184.555 10.3883 184.553 10.4617 184.551 10.5417C184.551 10.619 184.549 10.6963 184.547 10.7737C184.544 10.851 184.54 10.9203 184.535 10.9817C184.532 11.0403 184.529 11.0857 184.527 11.1177H184.543L186.115 8.75368H186.515V11.6097H186.179V10.0577C186.179 9.98568 186.18 9.90835 186.183 9.82568C186.185 9.74035 186.188 9.65901 186.191 9.58168C186.196 9.50168 186.2 9.43101 186.203 9.36968C186.205 9.30835 186.208 9.26301 186.211 9.23368H186.195L184.619 11.6097H184.219V8.75368Z" fill="#232323"/>
</g>
<defs>
<clipPath id="clip0_14_1754">
<rect width="19" height="19" fill="white" transform="translate(174.5 0.5)"/>
</clipPath>
</defs>
</svg>
