<svg width="194" height="20" viewBox="0 0 194 20" fill="none" xmlns="http://www.w3.org/2000/svg">
<rect x="0.75" y="0.75" width="18.5" height="18.5" fill="#232323" stroke="#232323" stroke-width="0.5"/>
<path d="M7.72262 11.6097L6.78262 9.10568H6.76662C6.77195 9.15901 6.77595 9.22701 6.77862 9.30968C6.78395 9.39235 6.78795 9.48301 6.79062 9.58168C6.79329 9.67768 6.79462 9.77635 6.79462 9.87768V11.6097H6.46262V8.75368H6.99462L7.87462 11.0937H7.89062L8.78662 8.75368H9.31462V11.6097H8.95862V9.85368C8.95862 9.76035 8.95995 9.66835 8.96262 9.57768C8.96529 9.48435 8.96929 9.39768 8.97462 9.31768C8.97995 9.23501 8.98395 9.16568 8.98662 9.10968H8.97062L8.01862 11.6097H7.72262ZM10.0955 8.75368H10.4315V10.3217C10.4315 10.3883 10.4302 10.4617 10.4275 10.5417C10.4275 10.619 10.4262 10.6963 10.4235 10.7737C10.4209 10.851 10.4169 10.9203 10.4115 10.9817C10.4089 11.0403 10.4062 11.0857 10.4035 11.1177H10.4195L11.9915 8.75368H12.3915V11.6097H12.0555V10.0577C12.0555 9.98568 12.0569 9.90835 12.0595 9.82568C12.0622 9.74035 12.0649 9.65901 12.0675 9.58168C12.0729 9.50168 12.0769 9.43101 12.0795 9.36968C12.0822 9.30835 12.0849 9.26301 12.0875 9.23368H12.0715L10.4955 11.6097H10.0955V8.75368ZM12.9098 11.6897C13.4738 11.2577 14.0378 10.8737 14.0378 10.4617C14.0378 10.1737 13.7698 9.95768 13.4898 9.95768C13.2898 9.95768 13.1378 10.0457 13.0338 10.2097L13.0698 8.78968H12.9098V11.6897ZM13.3658 10.1617C13.5218 10.1617 13.6418 10.2897 13.6418 10.4417C13.6418 10.7177 13.3058 11.2177 13.0498 11.4017C13.0338 11.3177 13.0218 11.1457 13.0218 10.8897V10.6777C13.0218 10.4417 13.0898 10.1617 13.3658 10.1617Z" fill="white"/>
<rect x="29.75" y="0.75" width="18.5" height="18.5" fill="white" stroke="#232323" stroke-width="0.5"/>
<path d="M37.9973 8.71368V9.06568C38.3066 9.07101 38.5506 9.12168 38.7293 9.21768C38.908 9.31368 39.0346 9.44168 39.1093 9.60168C39.184 9.75901 39.2213 9.93501 39.2213 10.1297C39.2213 10.2577 39.2013 10.3857 39.1613 10.5137C39.124 10.639 39.0586 10.7537 38.9653 10.8577C38.872 10.959 38.7466 11.0417 38.5893 11.1057C38.432 11.1697 38.2346 11.2043 37.9973 11.2097V11.6497H37.6413V11.2097C37.3986 11.2043 37.1973 11.1697 37.0373 11.1057C36.88 11.039 36.756 10.9537 36.6653 10.8497C36.5746 10.743 36.5106 10.627 36.4733 10.5017C36.436 10.3763 36.4173 10.2523 36.4173 10.1297C36.4173 9.98835 36.4373 9.85501 36.4773 9.72968C36.52 9.60168 36.588 9.48968 36.6813 9.39368C36.7773 9.29501 36.904 9.21635 37.0613 9.15768C37.2186 9.09901 37.412 9.06835 37.6413 9.06568V8.71368H37.9973ZM37.6413 9.36968C37.428 9.37501 37.2573 9.40968 37.1293 9.47368C37.004 9.53768 36.9146 9.62568 36.8613 9.73768C36.808 9.84701 36.7813 9.97635 36.7813 10.1257C36.7813 10.283 36.8106 10.4203 36.8693 10.5377C36.9306 10.6523 37.024 10.7417 37.1493 10.8057C37.2773 10.8697 37.4413 10.9057 37.6413 10.9137V9.36968ZM37.9973 10.9137C38.2026 10.9057 38.368 10.8683 38.4933 10.8017C38.6213 10.735 38.7133 10.6443 38.7693 10.5297C38.828 10.4123 38.8573 10.2777 38.8573 10.1257C38.8573 9.97368 38.8306 9.84301 38.7773 9.73368C38.724 9.62168 38.6346 9.53501 38.5093 9.47368C38.384 9.40968 38.2133 9.37501 37.9973 9.36968V10.9137ZM41.6081 11.6097L41.2641 10.7257H40.1321L39.7921 11.6097H39.4281L40.5441 8.74168H40.8681L41.9801 11.6097H41.6081ZM40.8361 9.54168C40.8281 9.52035 40.8148 9.48168 40.7961 9.42568C40.7775 9.36968 40.7588 9.31235 40.7401 9.25368C40.7241 9.19235 40.7108 9.14568 40.7001 9.11368C40.6868 9.16701 40.6721 9.22168 40.6561 9.27768C40.6428 9.33101 40.6281 9.38035 40.6121 9.42568C40.5988 9.47101 40.5868 9.50968 40.5761 9.54168L40.2521 10.4057H41.1561L40.8361 9.54168Z" fill="#232323"/>
<rect x="58.75" y="0.75" width="18.5" height="18.5" fill="white" stroke="#232323" stroke-width="0.5"/>
<path d="M64.2628 9.02968C64.1108 9.02968 63.9735 9.05635 63.8508 9.10968C63.7281 9.16035 63.6241 9.23635 63.5388 9.33768C63.4535 9.43635 63.3881 9.55768 63.3428 9.70168C63.2975 9.84301 63.2748 10.003 63.2748 10.1817C63.2748 10.4163 63.3108 10.6203 63.3828 10.7937C63.4575 10.967 63.5668 11.1003 63.7108 11.1937C63.8575 11.287 64.0401 11.3337 64.2588 11.3337C64.3841 11.3337 64.5028 11.323 64.6148 11.3017C64.7268 11.2803 64.8361 11.2537 64.9428 11.2217V11.5337C64.8361 11.5737 64.7255 11.603 64.6108 11.6217C64.4988 11.6403 64.3641 11.6497 64.2068 11.6497C63.9161 11.6497 63.6735 11.5897 63.4788 11.4697C63.2841 11.3497 63.1375 11.179 63.0388 10.9577C62.9428 10.7363 62.8948 10.4763 62.8948 10.1777C62.8948 9.96168 62.9241 9.76435 62.9828 9.58568C63.0441 9.40701 63.1321 9.25235 63.2468 9.12168C63.3641 8.99101 63.5081 8.89101 63.6788 8.82168C63.8495 8.74968 64.0455 8.71368 64.2668 8.71368C64.4135 8.71368 64.5548 8.72835 64.6908 8.75768C64.8268 8.78701 64.9481 8.82835 65.0548 8.88168L64.9108 9.18568C64.8228 9.14568 64.7241 9.10968 64.6148 9.07768C64.5081 9.04568 64.3908 9.02968 64.2628 9.02968ZM67.98 10.1777C67.98 10.399 67.952 10.6003 67.896 10.7817C67.84 10.9603 67.756 11.115 67.644 11.2457C67.5347 11.3763 67.3973 11.4763 67.232 11.5457C67.0693 11.615 66.88 11.6497 66.664 11.6497C66.44 11.6497 66.2453 11.615 66.08 11.5457C65.9147 11.4737 65.7773 11.3737 65.668 11.2457C65.5587 11.115 65.4773 10.959 65.424 10.7777C65.3707 10.5963 65.344 10.395 65.344 10.1737C65.344 9.88035 65.392 9.62435 65.488 9.40568C65.584 9.18701 65.7293 9.01635 65.924 8.89368C66.1213 8.77101 66.3693 8.70968 66.668 8.70968C66.9533 8.70968 67.1933 8.77101 67.388 8.89368C67.5827 9.01368 67.7293 9.18435 67.828 9.40568C67.9293 9.62435 67.98 9.88168 67.98 10.1777ZM65.724 10.1777C65.724 10.4177 65.7573 10.6243 65.824 10.7977C65.8907 10.971 65.9933 11.1043 66.132 11.1977C66.2733 11.291 66.4507 11.3377 66.664 11.3377C66.88 11.3377 67.056 11.291 67.192 11.1977C67.3307 11.1043 67.4333 10.971 67.5 10.7977C67.5667 10.6243 67.6 10.4177 67.6 10.1777C67.6 9.81768 67.5253 9.53635 67.376 9.33368C67.2267 9.12835 66.9907 9.02568 66.668 9.02568C66.452 9.02568 66.2733 9.07235 66.132 9.16568C65.9933 9.25635 65.8907 9.38835 65.824 9.56168C65.7573 9.73235 65.724 9.93768 65.724 10.1777ZM70.5909 11.6097H70.2309V9.06968H69.3269C69.3082 9.21635 69.2882 9.37101 69.2669 9.53368C69.2456 9.69368 69.2229 9.85235 69.1989 10.0097C69.1776 10.167 69.1562 10.315 69.1349 10.4537C69.1136 10.5923 69.0922 10.7137 69.0709 10.8177C69.0362 10.9963 68.9936 11.1483 68.9429 11.2737C68.8922 11.399 68.8242 11.4937 68.7389 11.5577C68.6562 11.6217 68.5469 11.6537 68.4109 11.6537C68.3656 11.6537 68.3189 11.6483 68.2709 11.6377C68.2256 11.6297 68.1856 11.619 68.1509 11.6057V11.3057C68.1802 11.319 68.2136 11.331 68.2509 11.3417C68.2882 11.3497 68.3282 11.3537 68.3709 11.3537C68.4509 11.3537 68.5136 11.3217 68.5589 11.2577C68.6069 11.191 68.6442 11.1097 68.6709 11.0137C68.6976 10.915 68.7202 10.8177 68.7389 10.7217C68.7549 10.6443 68.7736 10.5417 68.7949 10.4137C68.8162 10.283 68.8389 10.131 68.8629 9.95768C68.8896 9.78435 68.9162 9.59635 68.9429 9.39368C68.9722 9.18835 69.0002 8.97501 69.0269 8.75368H70.5909V11.6097ZM71.3669 11.6097V8.75368H71.7269V9.96168H72.2629C72.5296 9.96168 72.7416 9.99768 72.8989 10.0697C73.0562 10.1417 73.1696 10.239 73.2389 10.3617C73.3082 10.4843 73.3429 10.6217 73.3429 10.7737C73.3429 10.9417 73.3042 11.0883 73.2269 11.2137C73.1522 11.339 73.0389 11.4363 72.8869 11.5057C72.7349 11.575 72.5416 11.6097 72.3069 11.6097H71.3669ZM72.2709 11.3017C72.5029 11.3017 72.6776 11.259 72.7949 11.1737C72.9122 11.0857 72.9709 10.9523 72.9709 10.7737C72.9709 10.651 72.9416 10.5537 72.8829 10.4817C72.8269 10.407 72.7429 10.3537 72.6309 10.3217C72.5216 10.2897 72.3842 10.2737 72.2189 10.2737H71.7269V11.3017H72.2709Z" fill="#232323"/>
<rect x="87.75" y="0.75" width="18.5" height="18.5" fill="#232323" stroke="#232323" stroke-width="0.5"/>
<path d="M96.1749 11.6097H95.8149V9.06968H94.9109C94.8922 9.21635 94.8722 9.37101 94.8509 9.53368C94.8295 9.69368 94.8069 9.85235 94.7829 10.0097C94.7615 10.167 94.7402 10.315 94.7189 10.4537C94.6975 10.5923 94.6762 10.7137 94.6549 10.8177C94.6202 10.9963 94.5775 11.1483 94.5269 11.2737C94.4762 11.399 94.4082 11.4937 94.3229 11.5577C94.2402 11.6217 94.1309 11.6537 93.9949 11.6537C93.9495 11.6537 93.9029 11.6483 93.8549 11.6377C93.8095 11.6297 93.7695 11.619 93.7349 11.6057V11.3057C93.7642 11.319 93.7975 11.331 93.8349 11.3417C93.8722 11.3497 93.9122 11.3537 93.9549 11.3537C94.0349 11.3537 94.0975 11.3217 94.1429 11.2577C94.1909 11.191 94.2282 11.1097 94.2549 11.0137C94.2815 10.915 94.3042 10.8177 94.3229 10.7217C94.3389 10.6443 94.3575 10.5417 94.3789 10.4137C94.4002 10.283 94.4229 10.131 94.4469 9.95768C94.4735 9.78435 94.5002 9.59635 94.5269 9.39368C94.5562 9.18835 94.5842 8.97501 94.6109 8.75368H96.1749V11.6097ZM97.8109 10.4257L97.0709 11.6097H96.6509L97.4509 10.3617C97.3496 10.327 97.2536 10.279 97.1629 10.2177C97.0749 10.1563 97.0029 10.0723 96.9469 9.96568C96.8909 9.85901 96.8629 9.72168 96.8629 9.55368C96.8629 9.29501 96.9522 9.09768 97.1309 8.96168C97.3096 8.82301 97.5762 8.75368 97.9309 8.75368H98.7309V11.6097H98.3709V10.4257H97.8109ZM97.9389 9.06168C97.7869 9.06168 97.6589 9.07901 97.5549 9.11368C97.4509 9.14835 97.3709 9.20301 97.3149 9.27768C97.2616 9.35235 97.2349 9.44968 97.2349 9.56968C97.2349 9.74568 97.2936 9.88168 97.4109 9.97768C97.5282 10.0737 97.7096 10.1217 97.9549 10.1217H98.3709V9.06168H97.9389ZM99.2536 11.6897C99.8176 11.2577 100.382 10.8737 100.382 10.4617C100.382 10.1737 100.114 9.95768 99.8336 9.95768C99.6336 9.95768 99.4816 10.0457 99.3776 10.2097L99.4136 8.78968H99.2536V11.6897ZM99.7096 10.1617C99.8656 10.1617 99.9856 10.2897 99.9856 10.4417C99.9856 10.7177 99.6496 11.2177 99.3936 11.4017C99.3776 11.3177 99.3656 11.1457 99.3656 10.8897V10.6777C99.3656 10.4417 99.4336 10.1617 99.7096 10.1617Z" fill="white"/>
<rect x="116.75" y="0.75" width="18.5" height="18.5" fill="#232323" stroke="#232323" stroke-width="0.5"/>
<path d="M124.237 9.02968C124.085 9.02968 123.948 9.05635 123.825 9.10968C123.703 9.16035 123.599 9.23635 123.513 9.33768C123.428 9.43635 123.363 9.55768 123.317 9.70168C123.272 9.84301 123.249 10.003 123.249 10.1817C123.249 10.4163 123.285 10.6203 123.357 10.7937C123.432 10.967 123.541 11.1003 123.685 11.1937C123.832 11.287 124.015 11.3337 124.233 11.3337C124.359 11.3337 124.477 11.323 124.589 11.3017C124.701 11.2803 124.811 11.2537 124.917 11.2217V11.5337C124.811 11.5737 124.7 11.603 124.585 11.6217C124.473 11.6403 124.339 11.6497 124.181 11.6497C123.891 11.6497 123.648 11.5897 123.453 11.4697C123.259 11.3497 123.112 11.179 123.013 10.9577C122.917 10.7363 122.869 10.4763 122.869 10.1777C122.869 9.96168 122.899 9.76435 122.957 9.58568C123.019 9.40701 123.107 9.25235 123.221 9.12168C123.339 8.99101 123.483 8.89101 123.653 8.82168C123.824 8.74968 124.02 8.71368 124.241 8.71368C124.388 8.71368 124.529 8.72835 124.665 8.75768C124.801 8.78701 124.923 8.82835 125.029 8.88168L124.885 9.18568C124.797 9.14568 124.699 9.10968 124.589 9.07768C124.483 9.04568 124.365 9.02968 124.237 9.02968ZM125.545 8.75368H125.881V10.3217C125.881 10.3883 125.879 10.4617 125.877 10.5417C125.877 10.619 125.875 10.6963 125.873 10.7737C125.87 10.851 125.866 10.9203 125.861 10.9817C125.858 11.0403 125.855 11.0857 125.853 11.1177H125.869L127.441 8.75368H127.841V11.6097H127.505V10.0577C127.505 9.98568 127.506 9.90835 127.509 9.82568C127.511 9.74035 127.514 9.65901 127.517 9.58168C127.522 9.50168 127.526 9.43101 127.529 9.36968C127.531 9.30835 127.534 9.26301 127.537 9.23368H127.521L125.945 11.6097H125.545V8.75368ZM128.359 11.6897C128.923 11.2577 129.487 10.8737 129.487 10.4617C129.487 10.1737 129.219 9.95768 128.939 9.95768C128.739 9.95768 128.587 10.0457 128.483 10.2097L128.519 8.78968H128.359V11.6897ZM128.815 10.1617C128.971 10.1617 129.091 10.2897 129.091 10.4417C129.091 10.7177 128.755 11.2177 128.499 11.4017C128.483 11.3177 128.471 11.1457 128.471 10.8897V10.6777C128.471 10.4417 128.539 10.1617 128.815 10.1617Z" fill="white"/>
<rect x="145.75" y="0.75" width="18.5" height="18.5" fill="white" stroke="#232323" stroke-width="0.5"/>
<path d="M154.465 8.75368V11.2897H154.829V12.3617H154.485V11.6097H152.521V12.3617H152.177V11.2897H152.397C152.493 11.1243 152.583 10.939 152.669 10.7337C152.757 10.5283 152.834 10.3137 152.901 10.0897C152.967 9.86301 153.022 9.63635 153.065 9.40968C153.107 9.18301 153.134 8.96435 153.145 8.75368H154.465ZM153.461 9.07768C153.45 9.23235 153.423 9.40701 153.381 9.60168C153.341 9.79635 153.289 9.99635 153.225 10.2017C153.163 10.4043 153.094 10.6003 153.017 10.7897C152.942 10.979 152.862 11.1457 152.777 11.2897H154.109V9.07768H153.461ZM157.798 10.1777C157.798 10.399 157.77 10.6003 157.714 10.7817C157.658 10.9603 157.574 11.115 157.462 11.2457C157.353 11.3763 157.216 11.4763 157.05 11.5457C156.888 11.615 156.698 11.6497 156.482 11.6497C156.258 11.6497 156.064 11.615 155.898 11.5457C155.733 11.4737 155.596 11.3737 155.486 11.2457C155.377 11.115 155.296 10.959 155.242 10.7777C155.189 10.5963 155.162 10.395 155.162 10.1737C155.162 9.88035 155.21 9.62435 155.306 9.40568C155.402 9.18701 155.548 9.01635 155.742 8.89368C155.94 8.77101 156.188 8.70968 156.486 8.70968C156.772 8.70968 157.012 8.77101 157.206 8.89368C157.401 9.01368 157.548 9.18435 157.646 9.40568C157.748 9.62435 157.798 9.88168 157.798 10.1777ZM155.542 10.1777C155.542 10.4177 155.576 10.6243 155.642 10.7977C155.709 10.971 155.812 11.1043 155.95 11.1977C156.092 11.291 156.269 11.3377 156.482 11.3377C156.698 11.3377 156.874 11.291 157.01 11.1977C157.149 11.1043 157.252 10.971 157.318 10.7977C157.385 10.6243 157.418 10.4177 157.418 10.1777C157.418 9.81768 157.344 9.53635 157.194 9.33368C157.045 9.12835 156.809 9.02568 156.486 9.02568C156.27 9.02568 156.092 9.07235 155.95 9.16568C155.812 9.25635 155.709 9.38835 155.642 9.56168C155.576 9.73235 155.542 9.93768 155.542 10.1777Z" fill="#232323"/>
<rect x="174.75" y="0.75" width="18.5" height="18.5" fill="white" stroke="#232323" stroke-width="0.5"/>
<path d="M182.92 8.75368C183.293 8.75368 183.565 8.82701 183.736 8.97368C183.906 9.12035 183.992 9.32701 183.992 9.59368C183.992 9.71101 183.972 9.82435 183.932 9.93368C183.894 10.0403 183.832 10.1363 183.744 10.2217C183.656 10.307 183.538 10.375 183.392 10.4257C183.245 10.4737 183.065 10.4977 182.852 10.4977H182.524V11.6097H182.164V8.75368H182.92ZM182.888 9.06168H182.524V10.1897H182.812C182.993 10.1897 183.144 10.171 183.264 10.1337C183.384 10.0937 183.473 10.031 183.532 9.94568C183.59 9.86035 183.62 9.74835 183.62 9.60968C183.62 9.42568 183.561 9.28835 183.444 9.19768C183.326 9.10701 183.141 9.06168 182.888 9.06168ZM186.182 11.6097H184.586V8.75368H186.182V9.06968H184.946V9.96168H186.11V10.2737H184.946V11.2937H186.182V11.6097Z" fill="#232323"/>
</svg>
