<svg width="194" height="20" viewBox="0 0 194 20" fill="none" xmlns="http://www.w3.org/2000/svg">
<rect x="0.75" y="0.75" width="18.5" height="18.5" fill="white" stroke="#232323" stroke-width="0.5"/>
<path d="M8.91979 8.75368C9.29312 8.75368 9.56512 8.82701 9.73579 8.97368C9.90646 9.12034 9.99179 9.32701 9.99179 9.59368C9.99179 9.71101 9.97179 9.82434 9.93179 9.93368C9.89446 10.0403 9.83179 10.1363 9.74379 10.2217C9.65579 10.307 9.53846 10.375 9.39179 10.4257C9.24512 10.4737 9.06512 10.4977 8.85179 10.4977H8.52379V11.6097H8.16379V8.75368H8.91979ZM8.88779 9.06168H8.52379V10.1897H8.81179C8.99312 10.1897 9.14379 10.171 9.26379 10.1337C9.38379 10.0937 9.47312 10.031 9.53179 9.94568C9.59046 9.86034 9.61979 9.74834 9.61979 9.60968C9.61979 9.42568 9.56112 9.28834 9.44379 9.19768C9.32646 9.10701 9.14112 9.06168 8.88779 9.06168ZM12.1817 11.6097H10.5857V8.75368H12.1817V9.06968H10.9457V9.96168H12.1097V10.2737H10.9457V11.2937H12.1817V11.6097Z" fill="#232323"/>
<rect x="29.75" y="0.75" width="18.5" height="18.5" fill="white" stroke="#232323" stroke-width="0.5"/>
<path d="M37.3964 11.6097L36.4564 9.10568H36.4404C36.4458 9.15901 36.4498 9.22701 36.4524 9.30968C36.4578 9.39234 36.4618 9.48301 36.4644 9.58168C36.4671 9.67768 36.4684 9.77634 36.4684 9.87768V11.6097H36.1364V8.75368H36.6684L37.5484 11.0937H37.5644L38.4604 8.75368H38.9884V11.6097H38.6324V9.85368C38.6324 9.76034 38.6338 9.66834 38.6364 9.57768C38.6391 9.48434 38.6431 9.39768 38.6484 9.31768C38.6538 9.23501 38.6578 9.16568 38.6604 9.10968H38.6444L37.6924 11.6097H37.3964ZM39.7694 8.75368H40.1054V10.3217C40.1054 10.3883 40.104 10.4617 40.1014 10.5417C40.1014 10.619 40.1 10.6963 40.0974 10.7737C40.0947 10.851 40.0907 10.9203 40.0854 10.9817C40.0827 11.0403 40.08 11.0857 40.0774 11.1177H40.0934L41.6654 8.75368H42.0654V11.6097H41.7294V10.0577C41.7294 9.98568 41.7307 9.90834 41.7334 9.82568C41.736 9.74034 41.7387 9.65901 41.7414 9.58168C41.7467 9.50168 41.7507 9.43101 41.7534 9.36968C41.756 9.30834 41.7587 9.26301 41.7614 9.23368H41.7454L40.1694 11.6097H39.7694V8.75368Z" fill="#232323"/>
<rect x="58.75" y="0.75" width="18.5" height="18.5" fill="#232323" stroke="#232323" stroke-width="0.5"/>
<path d="M66.2766 8.71368V9.06568C66.5859 9.07101 66.8299 9.12168 67.0086 9.21768C67.1873 9.31368 67.3139 9.44168 67.3886 9.60168C67.4633 9.75901 67.5006 9.93501 67.5006 10.1297C67.5006 10.2577 67.4806 10.3857 67.4406 10.5137C67.4033 10.639 67.3379 10.7537 67.2446 10.8577C67.1513 10.959 67.0259 11.0417 66.8686 11.1057C66.7113 11.1697 66.5139 11.2043 66.2766 11.2097V11.6497H65.9206V11.2097C65.6779 11.2043 65.4766 11.1697 65.3166 11.1057C65.1593 11.039 65.0353 10.9537 64.9446 10.8497C64.8539 10.743 64.7899 10.627 64.7526 10.5017C64.7153 10.3763 64.6966 10.2523 64.6966 10.1297C64.6966 9.98834 64.7166 9.85501 64.7566 9.72968C64.7993 9.60168 64.8673 9.48968 64.9606 9.39368C65.0566 9.29501 65.1833 9.21634 65.3406 9.15768C65.4979 9.09901 65.6913 9.06834 65.9206 9.06568V8.71368H66.2766ZM65.9206 9.36968C65.7073 9.37501 65.5366 9.40968 65.4086 9.47368C65.2833 9.53768 65.1939 9.62568 65.1406 9.73768C65.0873 9.84701 65.0606 9.97634 65.0606 10.1257C65.0606 10.283 65.0899 10.4203 65.1486 10.5377C65.2099 10.6523 65.3033 10.7417 65.4286 10.8057C65.5566 10.8697 65.7206 10.9057 65.9206 10.9137V9.36968ZM66.2766 10.9137C66.4819 10.9057 66.6473 10.8683 66.7726 10.8017C66.9006 10.735 66.9926 10.6443 67.0486 10.5297C67.1073 10.4123 67.1366 10.2777 67.1366 10.1257C67.1366 9.97368 67.1099 9.84301 67.0566 9.73368C67.0033 9.62168 66.9139 9.53501 66.7886 9.47368C66.6633 9.40968 66.4926 9.37501 66.2766 9.36968V10.9137ZM69.8874 11.6097L69.5434 10.7257H68.4114L68.0714 11.6097H67.7074L68.8234 8.74168H69.1474L70.2594 11.6097H69.8874ZM69.1154 9.54168C69.1074 9.52034 69.0941 9.48168 69.0754 9.42568C69.0568 9.36968 69.0381 9.31234 69.0194 9.25368C69.0034 9.19234 68.9901 9.14568 68.9794 9.11368C68.9661 9.16701 68.9514 9.22168 68.9354 9.27768C68.9221 9.33101 68.9074 9.38034 68.8914 9.42568C68.8781 9.47101 68.8661 9.50968 68.8554 9.54168L68.5314 10.4057H69.4354L69.1154 9.54168ZM71.2341 10.4737L70.7821 10.6257V9.80968L71.2341 9.65768V10.4737ZM71.2341 8.51768V9.22968L70.7821 9.37368V8.66968H70.6621V9.40968L70.4181 9.49368V9.92168L70.6621 9.84168V10.6617L70.4181 10.7377V11.1737L70.6621 11.0897V11.7617H70.7821V11.0577L71.2341 10.9097V11.6097H71.3541V10.8737L71.5941 10.7897V10.3617L71.3541 10.4417V9.62168L71.5941 9.54568V9.10968L71.3541 9.19368V8.51768H71.2341Z" fill="white"/>
<rect x="87.75" y="0.75" width="18.5" height="18.5" fill="white" stroke="#232323" stroke-width="0.5"/>
<path d="M93.2628 9.02968C93.1108 9.02968 92.9735 9.05634 92.8508 9.10968C92.7281 9.16034 92.6241 9.23634 92.5388 9.33768C92.4535 9.43634 92.3881 9.55768 92.3428 9.70168C92.2975 9.84301 92.2748 10.003 92.2748 10.1817C92.2748 10.4163 92.3108 10.6203 92.3828 10.7937C92.4575 10.967 92.5668 11.1003 92.7108 11.1937C92.8575 11.287 93.0401 11.3337 93.2588 11.3337C93.3841 11.3337 93.5028 11.323 93.6148 11.3017C93.7268 11.2803 93.8361 11.2537 93.9428 11.2217V11.5337C93.8361 11.5737 93.7255 11.603 93.6108 11.6217C93.4988 11.6403 93.3641 11.6497 93.2068 11.6497C92.9161 11.6497 92.6735 11.5897 92.4788 11.4697C92.2841 11.3497 92.1375 11.179 92.0388 10.9577C91.9428 10.7363 91.8948 10.4763 91.8948 10.1777C91.8948 9.96168 91.9241 9.76434 91.9828 9.58568C92.0441 9.40701 92.1321 9.25234 92.2468 9.12168C92.3641 8.99101 92.5081 8.89101 92.6788 8.82168C92.8495 8.74968 93.0455 8.71368 93.2668 8.71368C93.4135 8.71368 93.5548 8.72834 93.6908 8.75768C93.8268 8.78701 93.9481 8.82834 94.0548 8.88168L93.9108 9.18568C93.8228 9.14568 93.7241 9.10968 93.6148 9.07768C93.5081 9.04568 93.3908 9.02968 93.2628 9.02968ZM96.98 10.1777C96.98 10.399 96.952 10.6003 96.896 10.7817C96.84 10.9603 96.756 11.115 96.644 11.2457C96.5347 11.3763 96.3973 11.4763 96.232 11.5457C96.0693 11.615 95.88 11.6497 95.664 11.6497C95.44 11.6497 95.2453 11.615 95.08 11.5457C94.9147 11.4737 94.7773 11.3737 94.668 11.2457C94.5587 11.115 94.4773 10.959 94.424 10.7777C94.3707 10.5963 94.344 10.395 94.344 10.1737C94.344 9.88034 94.392 9.62434 94.488 9.40568C94.584 9.18701 94.7293 9.01634 94.924 8.89368C95.1213 8.77101 95.3693 8.70968 95.668 8.70968C95.9533 8.70968 96.1933 8.77101 96.388 8.89368C96.5827 9.01368 96.7293 9.18434 96.828 9.40568C96.9293 9.62434 96.98 9.88168 96.98 10.1777ZM94.724 10.1777C94.724 10.4177 94.7573 10.6243 94.824 10.7977C94.8907 10.971 94.9933 11.1043 95.132 11.1977C95.2733 11.291 95.4507 11.3377 95.664 11.3377C95.88 11.3377 96.056 11.291 96.192 11.1977C96.3307 11.1043 96.4333 10.971 96.5 10.7977C96.5667 10.6243 96.6 10.4177 96.6 10.1777C96.6 9.81768 96.5253 9.53634 96.376 9.33368C96.2267 9.12834 95.9907 9.02568 95.668 9.02568C95.452 9.02568 95.2733 9.07234 95.132 9.16568C94.9933 9.25634 94.8907 9.38834 94.824 9.56168C94.7573 9.73234 94.724 9.93768 94.724 10.1777ZM99.5909 11.6097H99.2309V9.06968H98.3269C98.3082 9.21634 98.2882 9.37101 98.2669 9.53368C98.2456 9.69368 98.2229 9.85234 98.1989 10.0097C98.1776 10.167 98.1562 10.315 98.1349 10.4537C98.1136 10.5923 98.0922 10.7137 98.0709 10.8177C98.0362 10.9963 97.9936 11.1483 97.9429 11.2737C97.8922 11.399 97.8242 11.4937 97.7389 11.5577C97.6562 11.6217 97.5469 11.6537 97.4109 11.6537C97.3656 11.6537 97.3189 11.6483 97.2709 11.6377C97.2256 11.6297 97.1856 11.619 97.1509 11.6057V11.3057C97.1802 11.319 97.2136 11.331 97.2509 11.3417C97.2882 11.3497 97.3282 11.3537 97.3709 11.3537C97.4509 11.3537 97.5136 11.3217 97.5589 11.2577C97.6069 11.191 97.6442 11.1097 97.6709 11.0137C97.6976 10.915 97.7202 10.8177 97.7389 10.7217C97.7549 10.6443 97.7736 10.5417 97.7949 10.4137C97.8162 10.283 97.8389 10.131 97.8629 9.95768C97.8896 9.78434 97.9162 9.59634 97.9429 9.39368C97.9722 9.18834 98.0002 8.97501 98.0269 8.75368H99.5909V11.6097ZM100.367 11.6097V8.75368H100.727V9.96168H101.263C101.53 9.96168 101.742 9.99768 101.899 10.0697C102.056 10.1417 102.17 10.239 102.239 10.3617C102.308 10.4843 102.343 10.6217 102.343 10.7737C102.343 10.9417 102.304 11.0883 102.227 11.2137C102.152 11.339 102.039 11.4363 101.887 11.5057C101.735 11.575 101.542 11.6097 101.307 11.6097H100.367ZM101.271 11.3017C101.503 11.3017 101.678 11.259 101.795 11.1737C101.912 11.0857 101.971 10.9523 101.971 10.7737C101.971 10.651 101.942 10.5537 101.883 10.4817C101.827 10.407 101.743 10.3537 101.631 10.3217C101.522 10.2897 101.384 10.2737 101.219 10.2737H100.727V11.3017H101.271Z" fill="#232323"/>
<rect x="116.75" y="0.75" width="18.5" height="18.5" fill="white" stroke="#232323" stroke-width="0.5"/>
<path d="M125.849 11.6097H125.489V9.06968H124.585C124.566 9.21634 124.546 9.37101 124.525 9.53368C124.503 9.69368 124.481 9.85234 124.457 10.0097C124.435 10.167 124.414 10.315 124.393 10.4537C124.371 10.5923 124.35 10.7137 124.329 10.8177C124.294 10.9963 124.251 11.1483 124.201 11.2737C124.15 11.399 124.082 11.4937 123.997 11.5577C123.914 11.6217 123.805 11.6537 123.669 11.6537C123.623 11.6537 123.577 11.6483 123.529 11.6377C123.483 11.6297 123.443 11.619 123.409 11.6057V11.3057C123.438 11.319 123.471 11.331 123.509 11.3417C123.546 11.3497 123.586 11.3537 123.629 11.3537C123.709 11.3537 123.771 11.3217 123.817 11.2577C123.865 11.191 123.902 11.1097 123.929 11.0137C123.955 10.915 123.978 10.8177 123.997 10.7217C124.013 10.6443 124.031 10.5417 124.053 10.4137C124.074 10.283 124.097 10.131 124.121 9.95768C124.147 9.78434 124.174 9.59634 124.201 9.39368C124.23 9.18834 124.258 8.97501 124.285 8.75368H125.849V11.6097ZM127.485 10.4257L126.745 11.6097H126.325L127.125 10.3617C127.023 10.327 126.927 10.279 126.837 10.2177C126.749 10.1563 126.677 10.0723 126.621 9.96568C126.565 9.85901 126.537 9.72168 126.537 9.55368C126.537 9.29501 126.626 9.09768 126.805 8.96168C126.983 8.82301 127.25 8.75368 127.605 8.75368H128.405V11.6097H128.045V10.4257H127.485ZM127.613 9.06168C127.461 9.06168 127.333 9.07901 127.229 9.11368C127.125 9.14834 127.045 9.20301 126.989 9.27768C126.935 9.35234 126.909 9.44968 126.909 9.56968C126.909 9.74568 126.967 9.88168 127.085 9.97768C127.202 10.0737 127.383 10.1217 127.629 10.1217H128.045V9.06168H127.613Z" fill="#232323"/>
<rect x="145.75" y="0.75" width="18.5" height="18.5" fill="white" stroke="#232323" stroke-width="0.5"/>
<path d="M153.911 9.02968C153.759 9.02968 153.622 9.05634 153.499 9.10968C153.377 9.16034 153.273 9.23634 153.187 9.33768C153.102 9.43634 153.037 9.55768 152.991 9.70168C152.946 9.84301 152.923 10.003 152.923 10.1817C152.923 10.4163 152.959 10.6203 153.031 10.7937C153.106 10.967 153.215 11.1003 153.359 11.1937C153.506 11.287 153.689 11.3337 153.907 11.3337C154.033 11.3337 154.151 11.323 154.263 11.3017C154.375 11.2803 154.485 11.2537 154.591 11.2217V11.5337C154.485 11.5737 154.374 11.603 154.259 11.6217C154.147 11.6403 154.013 11.6497 153.855 11.6497C153.565 11.6497 153.322 11.5897 153.127 11.4697C152.933 11.3497 152.786 11.179 152.687 10.9577C152.591 10.7363 152.543 10.4763 152.543 10.1777C152.543 9.96168 152.573 9.76434 152.631 9.58568C152.693 9.40701 152.781 9.25234 152.895 9.12168C153.013 8.99101 153.157 8.89101 153.327 8.82168C153.498 8.74968 153.694 8.71368 153.915 8.71368C154.062 8.71368 154.203 8.72834 154.339 8.75768C154.475 8.78701 154.597 8.82834 154.703 8.88168L154.559 9.18568C154.471 9.14568 154.373 9.10968 154.263 9.07768C154.157 9.04568 154.039 9.02968 153.911 9.02968ZM155.219 8.75368H155.555V10.3217C155.555 10.3883 155.553 10.4617 155.551 10.5417C155.551 10.619 155.549 10.6963 155.547 10.7737C155.544 10.851 155.54 10.9203 155.535 10.9817C155.532 11.0403 155.529 11.0857 155.527 11.1177H155.543L157.115 8.75368H157.515V11.6097H157.179V10.0577C157.179 9.98568 157.18 9.90834 157.183 9.82568C157.185 9.74034 157.188 9.65901 157.191 9.58168C157.196 9.50168 157.2 9.43101 157.203 9.36968C157.205 9.30834 157.208 9.26301 157.211 9.23368H157.195L155.619 11.6097H155.219V8.75368Z" fill="#232323"/>
<rect x="174.75" y="0.75" width="18.5" height="18.5" fill="#232323" stroke="#232323" stroke-width="0.5"/>
<path d="M182.744 8.75368V11.2897H183.108V12.3617H182.764V11.6097H180.8V12.3617H180.456V11.2897H180.676C180.772 11.1243 180.863 10.939 180.948 10.7337C181.036 10.5283 181.113 10.3137 181.18 10.0897C181.247 9.86301 181.301 9.63634 181.344 9.40968C181.387 9.18301 181.413 8.96434 181.424 8.75368H182.744ZM181.74 9.07768C181.729 9.23234 181.703 9.40701 181.66 9.60168C181.62 9.79634 181.568 9.99634 181.504 10.2017C181.443 10.4043 181.373 10.6003 181.296 10.7897C181.221 10.979 181.141 11.1457 181.056 11.2897H182.388V9.07768H181.74ZM186.078 10.1777C186.078 10.399 186.05 10.6003 185.994 10.7817C185.938 10.9603 185.854 11.115 185.742 11.2457C185.632 11.3763 185.495 11.4763 185.33 11.5457C185.167 11.615 184.978 11.6497 184.762 11.6497C184.538 11.6497 184.343 11.615 184.178 11.5457C184.012 11.4737 183.875 11.3737 183.766 11.2457C183.656 11.115 183.575 10.959 183.522 10.7777C183.468 10.5963 183.442 10.395 183.442 10.1737C183.442 9.88034 183.49 9.62434 183.586 9.40568C183.682 9.18701 183.827 9.01634 184.022 8.89368C184.219 8.77101 184.467 8.70968 184.766 8.70968C185.051 8.70968 185.291 8.77101 185.486 8.89368C185.68 9.01368 185.827 9.18434 185.926 9.40568C186.027 9.62434 186.078 9.88168 186.078 10.1777ZM183.822 10.1777C183.822 10.4177 183.855 10.6243 183.922 10.7977C183.988 10.971 184.091 11.1043 184.23 11.1977C184.371 11.291 184.548 11.3377 184.762 11.3377C184.978 11.3377 185.154 11.291 185.29 11.1977C185.428 11.1043 185.531 10.971 185.598 10.7977C185.664 10.6243 185.698 10.4177 185.698 10.1777C185.698 9.81768 185.623 9.53634 185.474 9.33368C185.324 9.12834 185.088 9.02568 184.766 9.02568C184.55 9.02568 184.371 9.07234 184.23 9.16568C184.091 9.25634 183.988 9.38834 183.922 9.56168C183.855 9.73234 183.822 9.93768 183.822 10.1777ZM187.295 10.4737L186.843 10.6257V9.80968L187.295 9.65768V10.4737ZM187.295 8.51768V9.22968L186.843 9.37368V8.66968H186.723V9.40968L186.479 9.49368V9.92168L186.723 9.84168V10.6617L186.479 10.7377V11.1737L186.723 11.0897V11.7617H186.843V11.0577L187.295 10.9097V11.6097H187.415V10.8737L187.655 10.7897V10.3617L187.415 10.4417V9.62168L187.655 9.54568V9.10968L187.415 9.19368V8.51768H187.295Z" fill="white"/>
</svg>
