<svg width="194" height="20" viewBox="0 0 194 20" fill="none" xmlns="http://www.w3.org/2000/svg">
<rect x="0.75" y="0.75" width="18.5" height="18.5" fill="#232323" stroke="#232323" stroke-width="0.5"/>
<ellipse cx="9.73262" cy="10.0573" rx="5.68159" ry="5.68159" fill="white"/>
<path d="M8.79092 8.75368V11.2897H9.15492V12.3617H8.81092V11.6097H6.84692V12.3617H6.50292V11.2897H6.72292C6.81892 11.1243 6.90958 10.939 6.99492 10.7337C7.08292 10.5283 7.16025 10.3137 7.22692 10.0897C7.29358 9.86301 7.34825 9.63635 7.39092 9.40968C7.43358 9.18301 7.46025 8.96435 7.47092 8.75368H8.79092ZM7.78692 9.07768C7.77625 9.23235 7.74958 9.40701 7.70692 9.60168C7.66692 9.79635 7.61492 9.99635 7.55092 10.2017C7.48958 10.4043 7.42025 10.6003 7.34292 10.7897C7.26825 10.979 7.18825 11.1457 7.10292 11.2897H8.43492V9.07768H7.78692ZM12.1245 10.1777C12.1245 10.399 12.0965 10.6003 12.0405 10.7817C11.9845 10.9603 11.9005 11.115 11.7885 11.2457C11.6792 11.3763 11.5419 11.4763 11.3765 11.5457C11.2139 11.615 11.0245 11.6497 10.8085 11.6497C10.5845 11.6497 10.3899 11.615 10.2245 11.5457C10.0592 11.4737 9.92187 11.3737 9.81254 11.2457C9.70321 11.115 9.62187 10.959 9.56854 10.7777C9.51521 10.5963 9.48854 10.395 9.48854 10.1737C9.48854 9.88035 9.53654 9.62435 9.63254 9.40568C9.72854 9.18701 9.87387 9.01635 10.0685 8.89368C10.2659 8.77101 10.5139 8.70968 10.8125 8.70968C11.0979 8.70968 11.3379 8.77101 11.5325 8.89368C11.7272 9.01368 11.8739 9.18435 11.9725 9.40568C12.0739 9.62435 12.1245 9.88168 12.1245 10.1777ZM9.86854 10.1777C9.86854 10.4177 9.90187 10.6243 9.96854 10.7977C10.0352 10.971 10.1379 11.1043 10.2765 11.1977C10.4179 11.291 10.5952 11.3377 10.8085 11.3377C11.0245 11.3377 11.2005 11.291 11.3365 11.1977C11.4752 11.1043 11.5779 10.971 11.6445 10.7977C11.7112 10.6243 11.7445 10.4177 11.7445 10.1777C11.7445 9.81768 11.6699 9.53635 11.5205 9.33368C11.3712 9.12835 11.1352 9.02568 10.8125 9.02568C10.5965 9.02568 10.4179 9.07235 10.2765 9.16568C10.1379 9.25635 10.0352 9.38835 9.96854 9.56168C9.90187 9.73235 9.86854 9.93768 9.86854 10.1777ZM12.5055 11.6897C13.0695 11.2577 13.6335 10.8737 13.6335 10.4617C13.6335 10.1737 13.3655 9.95768 13.0855 9.95768C12.8855 9.95768 12.7335 10.0457 12.6295 10.2097L12.6655 8.78968H12.5055V11.6897ZM12.9615 10.1617C13.1175 10.1617 13.2375 10.2897 13.2375 10.4417C13.2375 10.7177 12.9015 11.2177 12.6455 11.4017C12.6295 11.3177 12.6175 11.1457 12.6175 10.8897V10.6777C12.6175 10.4417 12.6855 10.1617 12.9615 10.1617Z" fill="#232323"/>
<rect x="29.75" y="0.75" width="18.5" height="18.5" fill="#232323" stroke="#232323" stroke-width="0.5"/>
<path d="M37.246 8.75368C37.6193 8.75368 37.8913 8.82701 38.062 8.97368C38.2326 9.12035 38.318 9.32701 38.318 9.59368C38.318 9.71101 38.298 9.82435 38.258 9.93368C38.2206 10.0403 38.158 10.1363 38.07 10.2217C37.982 10.307 37.8646 10.375 37.718 10.4257C37.5713 10.4737 37.3913 10.4977 37.178 10.4977H36.85V11.6097H36.49V8.75368H37.246ZM37.214 9.06168H36.85V10.1897H37.138C37.3193 10.1897 37.47 10.171 37.59 10.1337C37.71 10.0937 37.7993 10.031 37.858 9.94568C37.9166 9.86035 37.946 9.74835 37.946 9.60968C37.946 9.42568 37.8873 9.28835 37.77 9.19768C37.6526 9.10701 37.4673 9.06168 37.214 9.06168ZM40.5078 11.6097H38.9118V8.75368H40.5078V9.06968H39.2718V9.96168H40.4358V10.2737H39.2718V11.2937H40.5078V11.6097ZM40.8825 11.6897C41.4465 11.2577 42.0105 10.8737 42.0105 10.4617C42.0105 10.1737 41.7425 9.95768 41.4625 9.95768C41.2625 9.95768 41.1105 10.0457 41.0065 10.2097L41.0425 8.78968H40.8825V11.6897ZM41.3385 10.1617C41.4945 10.1617 41.6145 10.2897 41.6145 10.4417C41.6145 10.7177 41.2785 11.2177 41.0225 11.4017C41.0065 11.3177 40.9945 11.1457 40.9945 10.8897V10.6777C40.9945 10.4417 41.0625 10.1617 41.3385 10.1617Z" fill="white"/>
<rect x="58.75" y="0.75" width="18.5" height="18.5" fill="#232323" stroke="#232323" stroke-width="0.5"/>
<path d="M65.7226 11.6097L64.7826 9.10568H64.7666C64.772 9.15901 64.776 9.22701 64.7786 9.30968C64.784 9.39235 64.788 9.48301 64.7906 9.58168C64.7933 9.67768 64.7946 9.77635 64.7946 9.87768V11.6097H64.4626V8.75368H64.9946L65.8746 11.0937H65.8906L66.7866 8.75368H67.3146V11.6097H66.9586V9.85368C66.9586 9.76035 66.96 9.66835 66.9626 9.57768C66.9653 9.48435 66.9693 9.39768 66.9746 9.31768C66.98 9.23501 66.984 9.16568 66.9866 9.10968H66.9706L66.0186 11.6097H65.7226ZM68.0955 8.75368H68.4315V10.3217C68.4315 10.3883 68.4302 10.4617 68.4275 10.5417C68.4275 10.619 68.4262 10.6963 68.4235 10.7737C68.4209 10.851 68.4169 10.9203 68.4115 10.9817C68.4089 11.0403 68.4062 11.0857 68.4035 11.1177H68.4195L69.9915 8.75368H70.3915V11.6097H70.0555V10.0577C70.0555 9.98568 70.0569 9.90835 70.0595 9.82568C70.0622 9.74035 70.0649 9.65901 70.0675 9.58168C70.0729 9.50168 70.0769 9.43101 70.0795 9.36968C70.0822 9.30835 70.0849 9.26301 70.0875 9.23368H70.0715L68.4955 11.6097H68.0955V8.75368ZM70.9098 11.6897C71.4738 11.2577 72.0378 10.8737 72.0378 10.4617C72.0378 10.1737 71.7698 9.95768 71.4898 9.95768C71.2898 9.95768 71.1378 10.0457 71.0338 10.2097L71.0698 8.78968H70.9098V11.6897ZM71.3658 10.1617C71.5218 10.1617 71.6418 10.2897 71.6418 10.4417C71.6418 10.7177 71.3058 11.2177 71.0498 11.4017C71.0338 11.3177 71.0218 11.1457 71.0218 10.8897V10.6777C71.0218 10.4417 71.0898 10.1617 71.3658 10.1617Z" fill="white"/>
<rect x="87.75" y="0.75" width="18.5" height="18.5" fill="#232323" stroke="#232323" stroke-width="0.5"/>
<circle cx="96.7326" cy="9.87324" r="5.68159" fill="white"/>
<path d="M95.3235 8.71368V9.06568C95.6328 9.07101 95.8768 9.12168 96.0555 9.21768C96.2341 9.31368 96.3608 9.44168 96.4355 9.60168C96.5101 9.75901 96.5475 9.93501 96.5475 10.1297C96.5475 10.2577 96.5275 10.3857 96.4875 10.5137C96.4501 10.639 96.3848 10.7537 96.2915 10.8577C96.1981 10.959 96.0728 11.0417 95.9155 11.1057C95.7581 11.1697 95.5608 11.2043 95.3235 11.2097V11.6497H94.9675V11.2097C94.7248 11.2043 94.5235 11.1697 94.3635 11.1057C94.2061 11.039 94.0821 10.9537 93.9915 10.8497C93.9008 10.743 93.8368 10.627 93.7995 10.5017C93.7621 10.3763 93.7435 10.2523 93.7435 10.1297C93.7435 9.98835 93.7635 9.85501 93.8035 9.72968C93.8461 9.60168 93.9141 9.48968 94.0075 9.39368C94.1035 9.29501 94.2301 9.21635 94.3875 9.15768C94.5448 9.09901 94.7381 9.06835 94.9675 9.06568V8.71368H95.3235ZM94.9675 9.36968C94.7541 9.37501 94.5835 9.40968 94.4555 9.47368C94.3301 9.53768 94.2408 9.62568 94.1875 9.73768C94.1341 9.84701 94.1075 9.97635 94.1075 10.1257C94.1075 10.283 94.1368 10.4203 94.1955 10.5377C94.2568 10.6523 94.3501 10.7417 94.4755 10.8057C94.6035 10.8697 94.7675 10.9057 94.9675 10.9137V9.36968ZM95.3235 10.9137C95.5288 10.9057 95.6941 10.8683 95.8195 10.8017C95.9475 10.735 96.0395 10.6443 96.0955 10.5297C96.1541 10.4123 96.1835 10.2777 96.1835 10.1257C96.1835 9.97368 96.1568 9.84301 96.1035 9.73368C96.0501 9.62168 95.9608 9.53501 95.8355 9.47368C95.7101 9.40968 95.5395 9.37501 95.3235 9.36968V10.9137ZM98.9343 11.6097L98.5903 10.7257H97.4583L97.1183 11.6097H96.7543L97.8703 8.74168H98.1943L99.3063 11.6097H98.9343ZM98.1623 9.54168C98.1543 9.52035 98.141 9.48168 98.1223 9.42568C98.1036 9.36968 98.085 9.31235 98.0663 9.25368C98.0503 9.19235 98.037 9.14568 98.0263 9.11368C98.013 9.16701 97.9983 9.22168 97.9823 9.27768C97.969 9.33101 97.9543 9.38035 97.9383 9.42568C97.925 9.47101 97.913 9.50968 97.9023 9.54168L97.5783 10.4057H98.4823L98.1623 9.54168ZM99.445 11.6897C100.009 11.2577 100.573 10.8737 100.573 10.4617C100.573 10.1737 100.305 9.95768 100.025 9.95768C99.825 9.95768 99.673 10.0457 99.569 10.2097L99.605 8.78968H99.445V11.6897ZM99.901 10.1617C100.057 10.1617 100.177 10.2897 100.177 10.4417C100.177 10.7177 99.841 11.2177 99.585 11.4017C99.569 11.3177 99.557 11.1457 99.557 10.8897V10.6777C99.557 10.4417 99.625 10.1617 99.901 10.1617Z" fill="#232323"/>
<rect x="116.75" y="0.75" width="18.5" height="18.5" fill="#232323" stroke="#232323" stroke-width="0.5"/>
<path d="M121.589 9.02968C121.437 9.02968 121.3 9.05635 121.177 9.10968C121.054 9.16035 120.95 9.23635 120.865 9.33768C120.78 9.43635 120.714 9.55768 120.669 9.70168C120.624 9.84301 120.601 10.003 120.601 10.1817C120.601 10.4163 120.637 10.6203 120.709 10.7937C120.784 10.967 120.893 11.1003 121.037 11.1937C121.184 11.287 121.366 11.3337 121.585 11.3337C121.71 11.3337 121.829 11.323 121.941 11.3017C122.053 11.2803 122.162 11.2537 122.269 11.2217V11.5337C122.162 11.5737 122.052 11.603 121.937 11.6217C121.825 11.6403 121.69 11.6497 121.533 11.6497C121.242 11.6497 121 11.5897 120.805 11.4697C120.61 11.3497 120.464 11.179 120.365 10.9577C120.269 10.7363 120.221 10.4763 120.221 10.1777C120.221 9.96168 120.25 9.76435 120.309 9.58568C120.37 9.40701 120.458 9.25235 120.573 9.12168C120.69 8.99101 120.834 8.89101 121.005 8.82168C121.176 8.74968 121.372 8.71368 121.593 8.71368C121.74 8.71368 121.881 8.72835 122.017 8.75768C122.153 8.78701 122.274 8.82835 122.381 8.88168L122.237 9.18568C122.149 9.14568 122.05 9.10968 121.941 9.07768C121.834 9.04568 121.717 9.02968 121.589 9.02968ZM125.306 10.1777C125.306 10.399 125.278 10.6003 125.222 10.7817C125.166 10.9603 125.082 11.115 124.97 11.2457C124.861 11.3763 124.724 11.4763 124.558 11.5457C124.396 11.615 124.206 11.6497 123.99 11.6497C123.766 11.6497 123.572 11.615 123.406 11.5457C123.241 11.4737 123.104 11.3737 122.994 11.2457C122.885 11.115 122.804 10.959 122.75 10.7777C122.697 10.5963 122.67 10.395 122.67 10.1737C122.67 9.88035 122.718 9.62435 122.814 9.40568C122.91 9.18701 123.056 9.01635 123.25 8.89368C123.448 8.77101 123.696 8.70968 123.994 8.70968C124.28 8.70968 124.52 8.77101 124.714 8.89368C124.909 9.01368 125.056 9.18435 125.154 9.40568C125.256 9.62435 125.306 9.88168 125.306 10.1777ZM123.05 10.1777C123.05 10.4177 123.084 10.6243 123.15 10.7977C123.217 10.971 123.32 11.1043 123.458 11.1977C123.6 11.291 123.777 11.3377 123.99 11.3377C124.206 11.3377 124.382 11.291 124.518 11.1977C124.657 11.1043 124.76 10.971 124.826 10.7977C124.893 10.6243 124.926 10.4177 124.926 10.1777C124.926 9.81768 124.852 9.53635 124.702 9.33368C124.553 9.12835 124.317 9.02568 123.994 9.02568C123.778 9.02568 123.6 9.07235 123.458 9.16568C123.32 9.25635 123.217 9.38835 123.15 9.56168C123.084 9.73235 123.05 9.93768 123.05 10.1777ZM127.917 11.6097H127.557V9.06968H126.653C126.634 9.21635 126.614 9.37101 126.593 9.53368C126.572 9.69368 126.549 9.85235 126.525 10.0097C126.504 10.167 126.482 10.315 126.461 10.4537C126.44 10.5923 126.418 10.7137 126.397 10.8177C126.362 10.9963 126.32 11.1483 126.269 11.2737C126.218 11.399 126.15 11.4937 126.065 11.5577C125.982 11.6217 125.873 11.6537 125.737 11.6537C125.692 11.6537 125.645 11.6483 125.597 11.6377C125.552 11.6297 125.512 11.619 125.477 11.6057V11.3057C125.506 11.319 125.54 11.331 125.577 11.3417C125.614 11.3497 125.654 11.3537 125.697 11.3537C125.777 11.3537 125.84 11.3217 125.885 11.2577C125.933 11.191 125.97 11.1097 125.997 11.0137C126.024 10.915 126.046 10.8177 126.065 10.7217C126.081 10.6443 126.1 10.5417 126.121 10.4137C126.142 10.283 126.165 10.131 126.189 9.95768C126.216 9.78435 126.242 9.59635 126.269 9.39368C126.298 9.18835 126.326 8.97501 126.353 8.75368H127.917V11.6097ZM128.693 11.6097V8.75368H129.053V9.96168H129.589C129.856 9.96168 130.068 9.99768 130.225 10.0697C130.382 10.1417 130.496 10.239 130.565 10.3617C130.634 10.4843 130.669 10.6217 130.669 10.7737C130.669 10.9417 130.63 11.0883 130.553 11.2137C130.478 11.339 130.365 11.4363 130.213 11.5057C130.061 11.575 129.868 11.6097 129.633 11.6097H128.693ZM129.597 11.3017C129.829 11.3017 130.004 11.259 130.121 11.1737C130.238 11.0857 130.297 10.9523 130.297 10.7737C130.297 10.651 130.268 10.5537 130.209 10.4817C130.153 10.407 130.069 10.3537 129.957 10.3217C129.848 10.2897 129.71 10.2737 129.545 10.2737H129.053V11.3017H129.597ZM131.007 11.6897C131.571 11.2577 132.135 10.8737 132.135 10.4617C132.135 10.1737 131.867 9.95768 131.587 9.95768C131.387 9.95768 131.235 10.0457 131.131 10.2097L131.167 8.78968H131.007V11.6897ZM131.463 10.1617C131.619 10.1617 131.739 10.2897 131.739 10.4417C131.739 10.7177 131.403 11.2177 131.147 11.4017C131.131 11.3177 131.119 11.1457 131.119 10.8897V10.6777C131.119 10.4417 131.187 10.1617 131.463 10.1617Z" fill="white"/>
<rect x="145.75" y="0.75" width="18.5" height="18.5" fill="#232323" stroke="#232323" stroke-width="0.5"/>
<path d="M154.175 11.6097H153.815V9.06968H152.911C152.892 9.21635 152.872 9.37101 152.851 9.53368C152.83 9.69368 152.807 9.85235 152.783 10.0097C152.762 10.167 152.74 10.315 152.719 10.4537C152.698 10.5923 152.676 10.7137 152.655 10.8177C152.62 10.9963 152.578 11.1483 152.527 11.2737C152.476 11.399 152.408 11.4937 152.323 11.5577C152.24 11.6217 152.131 11.6537 151.995 11.6537C151.95 11.6537 151.903 11.6483 151.855 11.6377C151.81 11.6297 151.77 11.619 151.735 11.6057V11.3057C151.764 11.319 151.798 11.331 151.835 11.3417C151.872 11.3497 151.912 11.3537 151.955 11.3537C152.035 11.3537 152.098 11.3217 152.143 11.2577C152.191 11.191 152.228 11.1097 152.255 11.0137C152.282 10.915 152.304 10.8177 152.323 10.7217C152.339 10.6443 152.358 10.5417 152.379 10.4137C152.4 10.283 152.423 10.131 152.447 9.95768C152.474 9.78435 152.5 9.59635 152.527 9.39368C152.556 9.18835 152.584 8.97501 152.611 8.75368H154.175V11.6097ZM155.811 10.4257L155.071 11.6097H154.651L155.451 10.3617C155.35 10.327 155.254 10.279 155.163 10.2177C155.075 10.1563 155.003 10.0723 154.947 9.96568C154.891 9.85901 154.863 9.72168 154.863 9.55368C154.863 9.29501 154.952 9.09768 155.131 8.96168C155.31 8.82301 155.576 8.75368 155.931 8.75368H156.731V11.6097H156.371V10.4257H155.811ZM155.939 9.06168C155.787 9.06168 155.659 9.07901 155.555 9.11368C155.451 9.14835 155.371 9.20301 155.315 9.27768C155.262 9.35235 155.235 9.44968 155.235 9.56968C155.235 9.74568 155.294 9.88168 155.411 9.97768C155.528 10.0737 155.71 10.1217 155.955 10.1217H156.371V9.06168H155.939ZM157.254 11.6897C157.818 11.2577 158.382 10.8737 158.382 10.4617C158.382 10.1737 158.114 9.95768 157.834 9.95768C157.634 9.95768 157.482 10.0457 157.378 10.2097L157.414 8.78968H157.254V11.6897ZM157.71 10.1617C157.866 10.1617 157.986 10.2897 157.986 10.4417C157.986 10.7177 157.65 11.2177 157.394 11.4017C157.378 11.3177 157.366 11.1457 157.366 10.8897V10.6777C157.366 10.4417 157.434 10.1617 157.71 10.1617Z" fill="white"/>
<g clip-path="url(#clip0_14_2193)">
<rect x="174.75" y="0.75" width="18.5" height="18.5" fill="#232323" stroke="#232323" stroke-width="0.5"/>
<path d="M182.237 9.02968C182.085 9.02968 181.948 9.05635 181.825 9.10968C181.703 9.16035 181.599 9.23635 181.513 9.33768C181.428 9.43635 181.363 9.55768 181.317 9.70168C181.272 9.84301 181.249 10.003 181.249 10.1817C181.249 10.4163 181.285 10.6203 181.357 10.7937C181.432 10.967 181.541 11.1003 181.685 11.1937C181.832 11.287 182.015 11.3337 182.233 11.3337C182.359 11.3337 182.477 11.323 182.589 11.3017C182.701 11.2803 182.811 11.2537 182.917 11.2217V11.5337C182.811 11.5737 182.7 11.603 182.585 11.6217C182.473 11.6403 182.339 11.6497 182.181 11.6497C181.891 11.6497 181.648 11.5897 181.453 11.4697C181.259 11.3497 181.112 11.179 181.013 10.9577C180.917 10.7363 180.869 10.4763 180.869 10.1777C180.869 9.96168 180.899 9.76435 180.957 9.58568C181.019 9.40701 181.107 9.25235 181.221 9.12168C181.339 8.99101 181.483 8.89101 181.653 8.82168C181.824 8.74968 182.02 8.71368 182.241 8.71368C182.388 8.71368 182.529 8.72835 182.665 8.75768C182.801 8.78701 182.923 8.82835 183.029 8.88168L182.885 9.18568C182.797 9.14568 182.699 9.10968 182.589 9.07768C182.483 9.04568 182.365 9.02968 182.237 9.02968ZM183.545 8.75368H183.881V10.3217C183.881 10.3883 183.879 10.4617 183.877 10.5417C183.877 10.619 183.875 10.6963 183.873 10.7737C183.87 10.851 183.866 10.9203 183.861 10.9817C183.858 11.0403 183.855 11.0857 183.853 11.1177H183.869L185.441 8.75368H185.841V11.6097H185.505V10.0577C185.505 9.98568 185.506 9.90835 185.509 9.82568C185.511 9.74035 185.514 9.65901 185.517 9.58168C185.522 9.50168 185.526 9.43101 185.529 9.36968C185.531 9.30835 185.534 9.26301 185.537 9.23368H185.521L183.945 11.6097H183.545V8.75368ZM186.359 11.6897C186.923 11.2577 187.487 10.8737 187.487 10.4617C187.487 10.1737 187.219 9.95768 186.939 9.95768C186.739 9.95768 186.587 10.0457 186.483 10.2097L186.519 8.78968H186.359V11.6897ZM186.815 10.1617C186.971 10.1617 187.091 10.2897 187.091 10.4417C187.091 10.7177 186.755 11.2177 186.499 11.4017C186.483 11.3177 186.471 11.1457 186.471 10.8897V10.6777C186.471 10.4417 186.539 10.1617 186.815 10.1617Z" fill="white"/>
</g>
<defs>
<clipPath id="clip0_14_2193">
<rect width="19" height="19" fill="white" transform="translate(174.5 0.5)"/>
</clipPath>
</defs>
</svg>
