<svg width="194" height="20" viewBox="0 0 194 20" fill="none" xmlns="http://www.w3.org/2000/svg">
<rect x="0.75" y="0.75" width="18.5" height="18.5" fill="#232323" stroke="#232323" stroke-width="0.5"/>
<path d="M8.2374 9.02968C8.0854 9.02968 7.94807 9.05635 7.8254 9.10968C7.70273 9.16035 7.59873 9.23635 7.5134 9.33768C7.42807 9.43635 7.36273 9.55768 7.3174 9.70168C7.27207 9.84301 7.2494 10.003 7.2494 10.1817C7.2494 10.4163 7.2854 10.6203 7.3574 10.7937C7.43207 10.967 7.5414 11.1003 7.6854 11.1937C7.83207 11.287 8.01473 11.3337 8.2334 11.3337C8.35873 11.3337 8.4774 11.323 8.5894 11.3017C8.7014 11.2803 8.81073 11.2537 8.9174 11.2217V11.5337C8.81073 11.5737 8.70007 11.603 8.5854 11.6217C8.4734 11.6403 8.33873 11.6497 8.1814 11.6497C7.89073 11.6497 7.64807 11.5897 7.4534 11.4697C7.25873 11.3497 7.11207 11.179 7.0134 10.9577C6.9174 10.7363 6.8694 10.4763 6.8694 10.1777C6.8694 9.96168 6.89873 9.76435 6.9574 9.58568C7.01873 9.40701 7.10673 9.25235 7.2214 9.12168C7.33873 8.99101 7.48273 8.89101 7.6534 8.82168C7.82407 8.74968 8.02007 8.71368 8.2414 8.71368C8.38807 8.71368 8.5294 8.72835 8.6654 8.75768C8.8014 8.78701 8.92273 8.82835 9.0294 8.88168L8.8854 9.18568C8.7974 9.14568 8.69873 9.10968 8.5894 9.07768C8.48273 9.04568 8.3654 9.02968 8.2374 9.02968ZM9.54474 8.75368H9.88074V10.3217C9.88074 10.3883 9.87941 10.4617 9.87674 10.5417C9.87674 10.619 9.87541 10.6963 9.87274 10.7737C9.87008 10.851 9.86608 10.9203 9.86074 10.9817C9.85808 11.0403 9.85541 11.0857 9.85274 11.1177H9.86874L11.4407 8.75368H11.8407V11.6097H11.5047V10.0577C11.5047 9.98568 11.5061 9.90835 11.5087 9.82568C11.5114 9.74035 11.5141 9.65901 11.5167 9.58168C11.5221 9.50168 11.5261 9.43101 11.5287 9.36968C11.5314 9.30835 11.5341 9.26301 11.5367 9.23368H11.5207L9.94474 11.6097H9.54474V8.75368ZM12.3591 11.6897C12.9231 11.2577 13.4871 10.8737 13.4871 10.4617C13.4871 10.1737 13.2191 9.95768 12.9391 9.95768C12.7391 9.95768 12.5871 10.0457 12.4831 10.2097L12.5191 8.78968H12.3591V11.6897ZM12.8151 10.1617C12.9711 10.1617 13.0911 10.2897 13.0911 10.4417C13.0911 10.7177 12.7551 11.2177 12.4991 11.4017C12.4831 11.3177 12.4711 11.1457 12.4711 10.8897V10.6777C12.4711 10.4417 12.5391 10.1617 12.8151 10.1617Z" fill="white"/>
<rect x="29.75" y="0.75" width="18.5" height="18.5" fill="white" stroke="#232323" stroke-width="0.5"/>
<path d="M38.4647 8.75368V11.2897H38.8287V12.3617H38.4847V11.6097H36.5207V12.3617H36.1767V11.2897H36.3967C36.4927 11.1243 36.5834 10.939 36.6687 10.7337C36.7567 10.5283 36.8341 10.3137 36.9007 10.0897C36.9674 9.86301 37.0221 9.63635 37.0647 9.40968C37.1074 9.18301 37.1341 8.96435 37.1447 8.75368H38.4647ZM37.4607 9.07768C37.4501 9.23235 37.4234 9.40701 37.3807 9.60168C37.3407 9.79635 37.2887 9.99635 37.2247 10.2017C37.1634 10.4043 37.0941 10.6003 37.0167 10.7897C36.9421 10.979 36.8621 11.1457 36.7767 11.2897H38.1087V9.07768H37.4607ZM41.7984 10.1777C41.7984 10.399 41.7704 10.6003 41.7144 10.7817C41.6584 10.9603 41.5744 11.115 41.4624 11.2457C41.353 11.3763 41.2157 11.4763 41.0504 11.5457C40.8877 11.615 40.6984 11.6497 40.4824 11.6497C40.2584 11.6497 40.0637 11.615 39.8984 11.5457C39.733 11.4737 39.5957 11.3737 39.4864 11.2457C39.377 11.115 39.2957 10.959 39.2424 10.7777C39.189 10.5963 39.1624 10.395 39.1624 10.1737C39.1624 9.88035 39.2104 9.62435 39.3064 9.40568C39.4024 9.18701 39.5477 9.01635 39.7424 8.89368C39.9397 8.77101 40.1877 8.70968 40.4864 8.70968C40.7717 8.70968 41.0117 8.77101 41.2064 8.89368C41.401 9.01368 41.5477 9.18435 41.6464 9.40568C41.7477 9.62435 41.7984 9.88168 41.7984 10.1777ZM39.5424 10.1777C39.5424 10.4177 39.5757 10.6243 39.6424 10.7977C39.709 10.971 39.8117 11.1043 39.9504 11.1977C40.0917 11.291 40.269 11.3377 40.4824 11.3377C40.6984 11.3377 40.8744 11.291 41.0104 11.1977C41.149 11.1043 41.2517 10.971 41.3184 10.7977C41.385 10.6243 41.4184 10.4177 41.4184 10.1777C41.4184 9.81768 41.3437 9.53635 41.1944 9.33368C41.045 9.12835 40.809 9.02568 40.4864 9.02568C40.2704 9.02568 40.0917 9.07235 39.9504 9.16568C39.8117 9.25635 39.709 9.38835 39.6424 9.56168C39.5757 9.73235 39.5424 9.93768 39.5424 10.1777Z" fill="#232323"/>
<rect x="58.75" y="0.75" width="18.5" height="18.5" fill="white" stroke="#232323" stroke-width="0.5"/>
<path d="M66.9198 8.75368C67.2931 8.75368 67.5651 8.82701 67.7358 8.97368C67.9065 9.12035 67.9918 9.32701 67.9918 9.59368C67.9918 9.71101 67.9718 9.82435 67.9318 9.93368C67.8945 10.0403 67.8318 10.1363 67.7438 10.2217C67.6558 10.307 67.5385 10.375 67.3918 10.4257C67.2451 10.4737 67.0651 10.4977 66.8518 10.4977H66.5238V11.6097H66.1638V8.75368H66.9198ZM66.8878 9.06168H66.5238V10.1897H66.8118C66.9931 10.1897 67.1438 10.171 67.2638 10.1337C67.3838 10.0937 67.4731 10.031 67.5318 9.94568C67.5905 9.86035 67.6198 9.74835 67.6198 9.60968C67.6198 9.42568 67.5611 9.28835 67.4438 9.19768C67.3265 9.10701 67.1411 9.06168 66.8878 9.06168ZM70.1817 11.6097H68.5857V8.75368H70.1817V9.06968H68.9457V9.96168H70.1097V10.2737H68.9457V11.2937H70.1817V11.6097Z" fill="#232323"/>
<rect x="87.75" y="0.75" width="18.5" height="18.5" fill="#232323" stroke="#232323" stroke-width="0.5"/>
<path d="M94.7226 11.6097L93.7826 9.10568H93.7666C93.772 9.15901 93.776 9.22701 93.7786 9.30968C93.784 9.39235 93.788 9.48301 93.7906 9.58168C93.7933 9.67768 93.7946 9.77635 93.7946 9.87768V11.6097H93.4626V8.75368H93.9946L94.8746 11.0937H94.8906L95.7866 8.75368H96.3146V11.6097H95.9586V9.85368C95.9586 9.76035 95.96 9.66835 95.9626 9.57768C95.9653 9.48435 95.9693 9.39768 95.9746 9.31768C95.98 9.23501 95.984 9.16568 95.9866 9.10968H95.9706L95.0186 11.6097H94.7226ZM97.0955 8.75368H97.4315V10.3217C97.4315 10.3883 97.4302 10.4617 97.4275 10.5417C97.4275 10.619 97.4262 10.6963 97.4235 10.7737C97.4209 10.851 97.4169 10.9203 97.4115 10.9817C97.4089 11.0403 97.4062 11.0857 97.4035 11.1177H97.4195L98.9915 8.75368H99.3915V11.6097H99.0555V10.0577C99.0555 9.98568 99.0569 9.90835 99.0595 9.82568C99.0622 9.74035 99.0649 9.65901 99.0675 9.58168C99.0729 9.50168 99.0769 9.43101 99.0795 9.36968C99.0822 9.30835 99.0849 9.26301 99.0875 9.23368H99.0715L97.4955 11.6097H97.0955V8.75368ZM99.9098 11.6897C100.474 11.2577 101.038 10.8737 101.038 10.4617C101.038 10.1737 100.77 9.95768 100.49 9.95768C100.29 9.95768 100.138 10.0457 100.034 10.2097L100.07 8.78968H99.9098V11.6897ZM100.366 10.1617C100.522 10.1617 100.642 10.2897 100.642 10.4417C100.642 10.7177 100.306 11.2177 100.05 11.4017C100.034 11.3177 100.022 11.1457 100.022 10.8897V10.6777C100.022 10.4417 100.09 10.1617 100.366 10.1617Z" fill="white"/>
<rect x="116.75" y="0.75" width="18.5" height="18.5" fill="white" stroke="#232323" stroke-width="0.5"/>
<path d="M124.997 8.71368V9.06568C125.307 9.07101 125.551 9.12168 125.729 9.21768C125.908 9.31368 126.035 9.44168 126.109 9.60168C126.184 9.75901 126.221 9.93501 126.221 10.1297C126.221 10.2577 126.201 10.3857 126.161 10.5137C126.124 10.639 126.059 10.7537 125.965 10.8577C125.872 10.959 125.747 11.0417 125.589 11.1057C125.432 11.1697 125.235 11.2043 124.997 11.2097V11.6497H124.641V11.2097C124.399 11.2043 124.197 11.1697 124.037 11.1057C123.88 11.039 123.756 10.9537 123.665 10.8497C123.575 10.743 123.511 10.627 123.473 10.5017C123.436 10.3763 123.417 10.2523 123.417 10.1297C123.417 9.98835 123.437 9.85501 123.477 9.72968C123.52 9.60168 123.588 9.48968 123.681 9.39368C123.777 9.29501 123.904 9.21635 124.061 9.15768C124.219 9.09901 124.412 9.06835 124.641 9.06568V8.71368H124.997ZM124.641 9.36968C124.428 9.37501 124.257 9.40968 124.129 9.47368C124.004 9.53768 123.915 9.62568 123.861 9.73768C123.808 9.84701 123.781 9.97635 123.781 10.1257C123.781 10.283 123.811 10.4203 123.869 10.5377C123.931 10.6523 124.024 10.7417 124.149 10.8057C124.277 10.8697 124.441 10.9057 124.641 10.9137V9.36968ZM124.997 10.9137C125.203 10.9057 125.368 10.8683 125.493 10.8017C125.621 10.735 125.713 10.6443 125.769 10.5297C125.828 10.4123 125.857 10.2777 125.857 10.1257C125.857 9.97368 125.831 9.84301 125.777 9.73368C125.724 9.62168 125.635 9.53501 125.509 9.47368C125.384 9.40968 125.213 9.37501 124.997 9.36968V10.9137ZM128.608 11.6097L128.264 10.7257H127.132L126.792 11.6097H126.428L127.544 8.74168H127.868L128.98 11.6097H128.608ZM127.836 9.54168C127.828 9.52035 127.815 9.48168 127.796 9.42568C127.777 9.36968 127.759 9.31235 127.74 9.25368C127.724 9.19235 127.711 9.14568 127.7 9.11368C127.687 9.16701 127.672 9.22168 127.656 9.27768C127.643 9.33101 127.628 9.38035 127.612 9.42568C127.599 9.47101 127.587 9.50968 127.576 9.54168L127.252 10.4057H128.156L127.836 9.54168Z" fill="#232323"/>
<rect x="145.75" y="0.75" width="18.5" height="18.5" fill="white" stroke="#232323" stroke-width="0.5"/>
<path d="M151.263 9.02968C151.111 9.02968 150.973 9.05635 150.851 9.10968C150.728 9.16035 150.624 9.23635 150.539 9.33768C150.453 9.43635 150.388 9.55768 150.343 9.70168C150.297 9.84301 150.275 10.003 150.275 10.1817C150.275 10.4163 150.311 10.6203 150.383 10.7937C150.457 10.967 150.567 11.1003 150.711 11.1937C150.857 11.287 151.04 11.3337 151.259 11.3337C151.384 11.3337 151.503 11.323 151.615 11.3017C151.727 11.2803 151.836 11.2537 151.943 11.2217V11.5337C151.836 11.5737 151.725 11.603 151.611 11.6217C151.499 11.6403 151.364 11.6497 151.207 11.6497C150.916 11.6497 150.673 11.5897 150.479 11.4697C150.284 11.3497 150.137 11.179 150.039 10.9577C149.943 10.7363 149.895 10.4763 149.895 10.1777C149.895 9.96168 149.924 9.76435 149.983 9.58568C150.044 9.40701 150.132 9.25235 150.247 9.12168C150.364 8.99101 150.508 8.89101 150.679 8.82168C150.849 8.74968 151.045 8.71368 151.267 8.71368C151.413 8.71368 151.555 8.72835 151.691 8.75768C151.827 8.78701 151.948 8.82835 152.055 8.88168L151.911 9.18568C151.823 9.14568 151.724 9.10968 151.615 9.07768C151.508 9.04568 151.391 9.02968 151.263 9.02968ZM154.98 10.1777C154.98 10.399 154.952 10.6003 154.896 10.7817C154.84 10.9603 154.756 11.115 154.644 11.2457C154.535 11.3763 154.397 11.4763 154.232 11.5457C154.069 11.615 153.88 11.6497 153.664 11.6497C153.44 11.6497 153.245 11.615 153.08 11.5457C152.915 11.4737 152.777 11.3737 152.668 11.2457C152.559 11.115 152.477 10.959 152.424 10.7777C152.371 10.5963 152.344 10.395 152.344 10.1737C152.344 9.88035 152.392 9.62435 152.488 9.40568C152.584 9.18701 152.729 9.01635 152.924 8.89368C153.121 8.77101 153.369 8.70968 153.668 8.70968C153.953 8.70968 154.193 8.77101 154.388 8.89368C154.583 9.01368 154.729 9.18435 154.828 9.40568C154.929 9.62435 154.98 9.88168 154.98 10.1777ZM152.724 10.1777C152.724 10.4177 152.757 10.6243 152.824 10.7977C152.891 10.971 152.993 11.1043 153.132 11.1977C153.273 11.291 153.451 11.3377 153.664 11.3377C153.88 11.3377 154.056 11.291 154.192 11.1977C154.331 11.1043 154.433 10.971 154.5 10.7977C154.567 10.6243 154.6 10.4177 154.6 10.1777C154.6 9.81768 154.525 9.53635 154.376 9.33368C154.227 9.12835 153.991 9.02568 153.668 9.02568C153.452 9.02568 153.273 9.07235 153.132 9.16568C152.993 9.25635 152.891 9.38835 152.824 9.56168C152.757 9.73235 152.724 9.93768 152.724 10.1777ZM157.591 11.6097H157.231V9.06968H156.327C156.308 9.21635 156.288 9.37101 156.267 9.53368C156.246 9.69368 156.223 9.85235 156.199 10.0097C156.178 10.167 156.156 10.315 156.135 10.4537C156.114 10.5923 156.092 10.7137 156.071 10.8177C156.036 10.9963 155.994 11.1483 155.943 11.2737C155.892 11.399 155.824 11.4937 155.739 11.5577C155.656 11.6217 155.547 11.6537 155.411 11.6537C155.366 11.6537 155.319 11.6483 155.271 11.6377C155.226 11.6297 155.186 11.619 155.151 11.6057V11.3057C155.18 11.319 155.214 11.331 155.251 11.3417C155.288 11.3497 155.328 11.3537 155.371 11.3537C155.451 11.3537 155.514 11.3217 155.559 11.2577C155.607 11.191 155.644 11.1097 155.671 11.0137C155.698 10.915 155.72 10.8177 155.739 10.7217C155.755 10.6443 155.774 10.5417 155.795 10.4137C155.816 10.283 155.839 10.131 155.863 9.95768C155.89 9.78435 155.916 9.59635 155.943 9.39368C155.972 9.18835 156 8.97501 156.027 8.75368H157.591V11.6097ZM158.367 11.6097V8.75368H158.727V9.96168H159.263C159.53 9.96168 159.742 9.99768 159.899 10.0697C160.056 10.1417 160.17 10.239 160.239 10.3617C160.308 10.4843 160.343 10.6217 160.343 10.7737C160.343 10.9417 160.304 11.0883 160.227 11.2137C160.152 11.339 160.039 11.4363 159.887 11.5057C159.735 11.575 159.542 11.6097 159.307 11.6097H158.367ZM159.271 11.3017C159.503 11.3017 159.678 11.259 159.795 11.1737C159.912 11.0857 159.971 10.9523 159.971 10.7737C159.971 10.651 159.942 10.5537 159.883 10.4817C159.827 10.407 159.743 10.3537 159.631 10.3217C159.522 10.2897 159.384 10.2737 159.219 10.2737H158.727V11.3017H159.271Z" fill="#232323"/>
<g clip-path="url(#clip0_14_2142)">
<rect x="174.75" y="0.75" width="18.5" height="18.5" fill="white" stroke="#232323" stroke-width="0.5"/>
<path d="M183.849 11.6097H183.489V9.06968H182.585C182.566 9.21635 182.546 9.37101 182.525 9.53368C182.503 9.69368 182.481 9.85235 182.457 10.0097C182.435 10.167 182.414 10.315 182.393 10.4537C182.371 10.5923 182.35 10.7137 182.329 10.8177C182.294 10.9963 182.251 11.1483 182.201 11.2737C182.15 11.399 182.082 11.4937 181.997 11.5577C181.914 11.6217 181.805 11.6537 181.669 11.6537C181.623 11.6537 181.577 11.6483 181.529 11.6377C181.483 11.6297 181.443 11.619 181.409 11.6057V11.3057C181.438 11.319 181.471 11.331 181.509 11.3417C181.546 11.3497 181.586 11.3537 181.629 11.3537C181.709 11.3537 181.771 11.3217 181.817 11.2577C181.865 11.191 181.902 11.1097 181.929 11.0137C181.955 10.915 181.978 10.8177 181.997 10.7217C182.013 10.6443 182.031 10.5417 182.053 10.4137C182.074 10.283 182.097 10.131 182.121 9.95768C182.147 9.78435 182.174 9.59635 182.201 9.39368C182.23 9.18835 182.258 8.97501 182.285 8.75368H183.849V11.6097ZM185.485 10.4257L184.745 11.6097H184.325L185.125 10.3617C185.023 10.327 184.927 10.279 184.837 10.2177C184.749 10.1563 184.677 10.0723 184.621 9.96568C184.565 9.85901 184.537 9.72168 184.537 9.55368C184.537 9.29501 184.626 9.09768 184.805 8.96168C184.983 8.82301 185.25 8.75368 185.605 8.75368H186.405V11.6097H186.045V10.4257H185.485ZM185.613 9.06168C185.461 9.06168 185.333 9.07901 185.229 9.11368C185.125 9.14835 185.045 9.20301 184.989 9.27768C184.935 9.35235 184.909 9.44968 184.909 9.56968C184.909 9.74568 184.967 9.88168 185.085 9.97768C185.202 10.0737 185.383 10.1217 185.629 10.1217H186.045V9.06168H185.613Z" fill="#232323"/>
</g>
<defs>
<clipPath id="clip0_14_2142">
<rect width="19" height="19" fill="white" transform="translate(174.5 0.5)"/>
</clipPath>
</defs>
</svg>
