<svg width="194" height="20" viewBox="0 0 194 20" fill="none" xmlns="http://www.w3.org/2000/svg">
<rect x="0.75" y="0.75" width="18.5" height="18.5" fill="#232323" stroke="#232323" stroke-width="0.5"/>
<path d="M8.24596 8.75368C8.6193 8.75368 8.8913 8.82701 9.06196 8.97368C9.23263 9.12034 9.31796 9.32701 9.31796 9.59368C9.31796 9.71101 9.29796 9.82434 9.25796 9.93368C9.22063 10.0403 9.15796 10.1363 9.06996 10.2217C8.98196 10.307 8.86463 10.375 8.71796 10.4257C8.5713 10.4737 8.3913 10.4977 8.17796 10.4977H7.84996V11.6097H7.48996V8.75368H8.24596ZM8.21396 9.06168H7.84996V10.1897H8.13796C8.3193 10.1897 8.46996 10.171 8.58996 10.1337C8.70996 10.0937 8.7993 10.031 8.85796 9.94568C8.91663 9.86034 8.94596 9.74834 8.94596 9.60968C8.94596 9.42568 8.8873 9.28834 8.76996 9.19768C8.65263 9.10701 8.4673 9.06168 8.21396 9.06168ZM11.5078 11.6097H9.91184V8.75368H11.5078V9.06968H10.2718V9.96168H11.4358V10.2737H10.2718V11.2937H11.5078V11.6097ZM11.8825 11.6897C12.4465 11.2577 13.0105 10.8737 13.0105 10.4617C13.0105 10.1737 12.7425 9.95768 12.4625 9.95768C12.2625 9.95768 12.1105 10.0457 12.0065 10.2097L12.0425 8.78968H11.8825V11.6897ZM12.3385 10.1617C12.4945 10.1617 12.6145 10.2897 12.6145 10.4417C12.6145 10.7177 12.2785 11.2177 12.0225 11.4017C12.0065 11.3177 11.9945 11.1457 11.9945 10.8897V10.6777C11.9945 10.4417 12.0625 10.1617 12.3385 10.1617Z" fill="white"/>
<rect x="29.75" y="0.75" width="18.5" height="18.5" fill="#232323" stroke="#232323" stroke-width="0.5"/>
<path d="M36.7226 11.6097L35.7826 9.10568H35.7666C35.772 9.15901 35.776 9.22701 35.7786 9.30968C35.784 9.39234 35.788 9.48301 35.7906 9.58168C35.7933 9.67768 35.7946 9.77634 35.7946 9.87768V11.6097H35.4626V8.75368H35.9946L36.8746 11.0937H36.8906L37.7866 8.75368H38.3146V11.6097H37.9586V9.85368C37.9586 9.76034 37.96 9.66834 37.9626 9.57768C37.9653 9.48434 37.9693 9.39768 37.9746 9.31768C37.98 9.23501 37.984 9.16568 37.9866 9.10968H37.9706L37.0186 11.6097H36.7226ZM39.0955 8.75368H39.4315V10.3217C39.4315 10.3883 39.4302 10.4617 39.4275 10.5417C39.4275 10.619 39.4262 10.6963 39.4235 10.7737C39.4209 10.851 39.4169 10.9203 39.4115 10.9817C39.4089 11.0403 39.4062 11.0857 39.4035 11.1177H39.4195L40.9915 8.75368H41.3915V11.6097H41.0555V10.0577C41.0555 9.98568 41.0569 9.90834 41.0595 9.82568C41.0622 9.74034 41.0649 9.65901 41.0675 9.58168C41.0729 9.50168 41.0769 9.43101 41.0795 9.36968C41.0822 9.30834 41.0849 9.26301 41.0875 9.23368H41.0715L39.4955 11.6097H39.0955V8.75368ZM41.9098 11.6897C42.4738 11.2577 43.0378 10.8737 43.0378 10.4617C43.0378 10.1737 42.7698 9.95768 42.4898 9.95768C42.2898 9.95768 42.1378 10.0457 42.0338 10.2097L42.0698 8.78968H41.9098V11.6897ZM42.3658 10.1617C42.5218 10.1617 42.6418 10.2897 42.6418 10.4417C42.6418 10.7177 42.3058 11.2177 42.0498 11.4017C42.0338 11.3177 42.0218 11.1457 42.0218 10.8897V10.6777C42.0218 10.4417 42.0898 10.1617 42.3658 10.1617Z" fill="white"/>
<rect x="58.75" y="0.75" width="18.5" height="18.5" fill="white" stroke="#232323" stroke-width="0.5"/>
<path d="M66.9973 8.71368V9.06568C67.3066 9.07101 67.5506 9.12168 67.7293 9.21768C67.908 9.31368 68.0346 9.44168 68.1093 9.60168C68.184 9.75901 68.2213 9.93501 68.2213 10.1297C68.2213 10.2577 68.2013 10.3857 68.1613 10.5137C68.124 10.639 68.0586 10.7537 67.9653 10.8577C67.872 10.959 67.7466 11.0417 67.5893 11.1057C67.432 11.1697 67.2346 11.2043 66.9973 11.2097V11.6497H66.6413V11.2097C66.3986 11.2043 66.1973 11.1697 66.0373 11.1057C65.88 11.039 65.756 10.9537 65.6653 10.8497C65.5746 10.743 65.5106 10.627 65.4733 10.5017C65.436 10.3763 65.4173 10.2523 65.4173 10.1297C65.4173 9.98834 65.4373 9.85501 65.4773 9.72968C65.52 9.60168 65.588 9.48968 65.6813 9.39368C65.7773 9.29501 65.904 9.21634 66.0613 9.15768C66.2186 9.09901 66.412 9.06834 66.6413 9.06568V8.71368H66.9973ZM66.6413 9.36968C66.428 9.37501 66.2573 9.40968 66.1293 9.47368C66.004 9.53768 65.9146 9.62568 65.8613 9.73768C65.808 9.84701 65.7813 9.97634 65.7813 10.1257C65.7813 10.283 65.8106 10.4203 65.8693 10.5377C65.9306 10.6523 66.024 10.7417 66.1493 10.8057C66.2773 10.8697 66.4413 10.9057 66.6413 10.9137V9.36968ZM66.9973 10.9137C67.2026 10.9057 67.368 10.8683 67.4933 10.8017C67.6213 10.735 67.7133 10.6443 67.7693 10.5297C67.828 10.4123 67.8573 10.2777 67.8573 10.1257C67.8573 9.97368 67.8306 9.84301 67.7773 9.73368C67.724 9.62168 67.6346 9.53501 67.5093 9.47368C67.384 9.40968 67.2133 9.37501 66.9973 9.36968V10.9137ZM70.6081 11.6097L70.2641 10.7257H69.1321L68.7921 11.6097H68.4281L69.5441 8.74168H69.8681L70.9801 11.6097H70.6081ZM69.8361 9.54168C69.8281 9.52034 69.8148 9.48168 69.7961 9.42568C69.7775 9.36968 69.7588 9.31234 69.7401 9.25368C69.7241 9.19234 69.7108 9.14568 69.7001 9.11368C69.6868 9.16701 69.6721 9.22168 69.6561 9.27768C69.6428 9.33101 69.6281 9.38034 69.6121 9.42568C69.5988 9.47101 69.5868 9.50968 69.5761 9.54168L69.2521 10.4057H70.1561L69.8361 9.54168Z" fill="#232323"/>
<rect x="87.75" y="0.75" width="18.5" height="18.5" fill="#232323" stroke="#232323" stroke-width="0.5"/>
<path d="M92.589 9.02968C92.437 9.02968 92.2996 9.05634 92.177 9.10968C92.0543 9.16034 91.9503 9.23634 91.865 9.33768C91.7796 9.43634 91.7143 9.55768 91.669 9.70168C91.6236 9.84301 91.601 10.003 91.601 10.1817C91.601 10.4163 91.637 10.6203 91.709 10.7937C91.7836 10.967 91.893 11.1003 92.037 11.1937C92.1836 11.287 92.3663 11.3337 92.585 11.3337C92.7103 11.3337 92.829 11.323 92.941 11.3017C93.053 11.2803 93.1623 11.2537 93.269 11.2217V11.5337C93.1623 11.5737 93.0516 11.603 92.937 11.6217C92.825 11.6403 92.6903 11.6497 92.533 11.6497C92.2423 11.6497 91.9996 11.5897 91.805 11.4697C91.6103 11.3497 91.4636 11.179 91.365 10.9577C91.269 10.7363 91.221 10.4763 91.221 10.1777C91.221 9.96168 91.2503 9.76434 91.309 9.58568C91.3703 9.40701 91.4583 9.25234 91.573 9.12168C91.6903 8.99101 91.8343 8.89101 92.005 8.82168C92.1756 8.74968 92.3716 8.71368 92.593 8.71368C92.7396 8.71368 92.881 8.72834 93.017 8.75768C93.153 8.78701 93.2743 8.82834 93.381 8.88168L93.237 9.18568C93.149 9.14568 93.0503 9.10968 92.941 9.07768C92.8343 9.04568 92.717 9.02968 92.589 9.02968ZM96.3062 10.1777C96.3062 10.399 96.2782 10.6003 96.2222 10.7817C96.1662 10.9603 96.0822 11.115 95.9702 11.2457C95.8608 11.3763 95.7235 11.4763 95.5582 11.5457C95.3955 11.615 95.2062 11.6497 94.9902 11.6497C94.7662 11.6497 94.5715 11.615 94.4062 11.5457C94.2408 11.4737 94.1035 11.3737 93.9942 11.2457C93.8848 11.115 93.8035 10.959 93.7502 10.7777C93.6968 10.5963 93.6702 10.395 93.6702 10.1737C93.6702 9.88034 93.7182 9.62434 93.8142 9.40568C93.9102 9.18701 94.0555 9.01634 94.2502 8.89368C94.4475 8.77101 94.6955 8.70968 94.9942 8.70968C95.2795 8.70968 95.5195 8.77101 95.7142 8.89368C95.9088 9.01368 96.0555 9.18434 96.1542 9.40568C96.2555 9.62434 96.3062 9.88168 96.3062 10.1777ZM94.0502 10.1777C94.0502 10.4177 94.0835 10.6243 94.1502 10.7977C94.2168 10.971 94.3195 11.1043 94.4582 11.1977C94.5995 11.291 94.7768 11.3377 94.9902 11.3377C95.2062 11.3377 95.3822 11.291 95.5182 11.1977C95.6568 11.1043 95.7595 10.971 95.8262 10.7977C95.8928 10.6243 95.9262 10.4177 95.9262 10.1777C95.9262 9.81768 95.8515 9.53634 95.7022 9.33368C95.5528 9.12834 95.3168 9.02568 94.9942 9.02568C94.7782 9.02568 94.5995 9.07234 94.4582 9.16568C94.3195 9.25634 94.2168 9.38834 94.1502 9.56168C94.0835 9.73234 94.0502 9.93768 94.0502 10.1777ZM98.9171 11.6097H98.5571V9.06968H97.6531C97.6344 9.21634 97.6144 9.37101 97.5931 9.53368C97.5717 9.69368 97.5491 9.85234 97.5251 10.0097C97.5037 10.167 97.4824 10.315 97.4611 10.4537C97.4397 10.5923 97.4184 10.7137 97.3971 10.8177C97.3624 10.9963 97.3197 11.1483 97.2691 11.2737C97.2184 11.399 97.1504 11.4937 97.0651 11.5577C96.9824 11.6217 96.8731 11.6537 96.7371 11.6537C96.6917 11.6537 96.6451 11.6483 96.5971 11.6377C96.5517 11.6297 96.5117 11.619 96.4771 11.6057V11.3057C96.5064 11.319 96.5397 11.331 96.5771 11.3417C96.6144 11.3497 96.6544 11.3537 96.6971 11.3537C96.7771 11.3537 96.8397 11.3217 96.8851 11.2577C96.9331 11.191 96.9704 11.1097 96.9971 11.0137C97.0237 10.915 97.0464 10.8177 97.0651 10.7217C97.0811 10.6443 97.0997 10.5417 97.1211 10.4137C97.1424 10.283 97.1651 10.131 97.1891 9.95768C97.2157 9.78434 97.2424 9.59634 97.2691 9.39368C97.2984 9.18834 97.3264 8.97501 97.3531 8.75368H98.9171V11.6097ZM99.6931 11.6097V8.75368H100.053V9.96168H100.589C100.856 9.96168 101.068 9.99768 101.225 10.0697C101.382 10.1417 101.496 10.239 101.565 10.3617C101.634 10.4843 101.669 10.6217 101.669 10.7737C101.669 10.9417 101.63 11.0883 101.553 11.2137C101.478 11.339 101.365 11.4363 101.213 11.5057C101.061 11.575 100.868 11.6097 100.633 11.6097H99.6931ZM100.597 11.3017C100.829 11.3017 101.004 11.259 101.121 11.1737C101.238 11.0857 101.297 10.9523 101.297 10.7737C101.297 10.651 101.268 10.5537 101.209 10.4817C101.153 10.407 101.069 10.3537 100.957 10.3217C100.848 10.2897 100.71 10.2737 100.545 10.2737H100.053V11.3017H100.597ZM102.007 11.6897C102.571 11.2577 103.135 10.8737 103.135 10.4617C103.135 10.1737 102.867 9.95768 102.587 9.95768C102.387 9.95768 102.235 10.0457 102.131 10.2097L102.167 8.78968H102.007V11.6897ZM102.463 10.1617C102.619 10.1617 102.739 10.2897 102.739 10.4417C102.739 10.7177 102.403 11.2177 102.147 11.4017C102.131 11.3177 102.119 11.1457 102.119 10.8897V10.6777C102.119 10.4417 102.187 10.1617 102.463 10.1617Z" fill="white"/>
<rect x="116.75" y="0.75" width="18.5" height="18.5" fill="#232323" stroke="#232323" stroke-width="0.5"/>
<path d="M125.175 11.6097H124.815V9.06968H123.911C123.892 9.21634 123.872 9.37101 123.851 9.53368C123.83 9.69368 123.807 9.85234 123.783 10.0097C123.762 10.167 123.74 10.315 123.719 10.4537C123.698 10.5923 123.676 10.7137 123.655 10.8177C123.62 10.9963 123.578 11.1483 123.527 11.2737C123.476 11.399 123.408 11.4937 123.323 11.5577C123.24 11.6217 123.131 11.6537 122.995 11.6537C122.95 11.6537 122.903 11.6483 122.855 11.6377C122.81 11.6297 122.77 11.619 122.735 11.6057V11.3057C122.764 11.319 122.798 11.331 122.835 11.3417C122.872 11.3497 122.912 11.3537 122.955 11.3537C123.035 11.3537 123.098 11.3217 123.143 11.2577C123.191 11.191 123.228 11.1097 123.255 11.0137C123.282 10.915 123.304 10.8177 123.323 10.7217C123.339 10.6443 123.358 10.5417 123.379 10.4137C123.4 10.283 123.423 10.131 123.447 9.95768C123.474 9.78434 123.5 9.59634 123.527 9.39368C123.556 9.18834 123.584 8.97501 123.611 8.75368H125.175V11.6097ZM126.811 10.4257L126.071 11.6097H125.651L126.451 10.3617C126.35 10.327 126.254 10.279 126.163 10.2177C126.075 10.1563 126.003 10.0723 125.947 9.96568C125.891 9.85901 125.863 9.72168 125.863 9.55368C125.863 9.29501 125.952 9.09768 126.131 8.96168C126.31 8.82301 126.576 8.75368 126.931 8.75368H127.731V11.6097H127.371V10.4257H126.811ZM126.939 9.06168C126.787 9.06168 126.659 9.07901 126.555 9.11368C126.451 9.14834 126.371 9.20301 126.315 9.27768C126.262 9.35234 126.235 9.44968 126.235 9.56968C126.235 9.74568 126.294 9.88168 126.411 9.97768C126.528 10.0737 126.71 10.1217 126.955 10.1217H127.371V9.06168H126.939ZM128.254 11.6897C128.818 11.2577 129.382 10.8737 129.382 10.4617C129.382 10.1737 129.114 9.95768 128.834 9.95768C128.634 9.95768 128.482 10.0457 128.378 10.2097L128.414 8.78968H128.254V11.6897ZM128.71 10.1617C128.866 10.1617 128.986 10.2897 128.986 10.4417C128.986 10.7177 128.65 11.2177 128.394 11.4017C128.378 11.3177 128.366 11.1457 128.366 10.8897V10.6777C128.366 10.4417 128.434 10.1617 128.71 10.1617Z" fill="white"/>
<rect x="145.75" y="0.75" width="18.5" height="18.5" fill="#232323" stroke="#232323" stroke-width="0.5"/>
<path d="M153.237 9.02968C153.085 9.02968 152.948 9.05634 152.825 9.10968C152.703 9.16034 152.599 9.23634 152.513 9.33768C152.428 9.43634 152.363 9.55768 152.317 9.70168C152.272 9.84301 152.249 10.003 152.249 10.1817C152.249 10.4163 152.285 10.6203 152.357 10.7937C152.432 10.967 152.541 11.1003 152.685 11.1937C152.832 11.287 153.015 11.3337 153.233 11.3337C153.359 11.3337 153.477 11.323 153.589 11.3017C153.701 11.2803 153.811 11.2537 153.917 11.2217V11.5337C153.811 11.5737 153.7 11.603 153.585 11.6217C153.473 11.6403 153.339 11.6497 153.181 11.6497C152.891 11.6497 152.648 11.5897 152.453 11.4697C152.259 11.3497 152.112 11.179 152.013 10.9577C151.917 10.7363 151.869 10.4763 151.869 10.1777C151.869 9.96168 151.899 9.76434 151.957 9.58568C152.019 9.40701 152.107 9.25234 152.221 9.12168C152.339 8.99101 152.483 8.89101 152.653 8.82168C152.824 8.74968 153.02 8.71368 153.241 8.71368C153.388 8.71368 153.529 8.72834 153.665 8.75768C153.801 8.78701 153.923 8.82834 154.029 8.88168L153.885 9.18568C153.797 9.14568 153.699 9.10968 153.589 9.07768C153.483 9.04568 153.365 9.02968 153.237 9.02968ZM154.545 8.75368H154.881V10.3217C154.881 10.3883 154.879 10.4617 154.877 10.5417C154.877 10.619 154.875 10.6963 154.873 10.7737C154.87 10.851 154.866 10.9203 154.861 10.9817C154.858 11.0403 154.855 11.0857 154.853 11.1177H154.869L156.441 8.75368H156.841V11.6097H156.505V10.0577C156.505 9.98568 156.506 9.90834 156.509 9.82568C156.511 9.74034 156.514 9.65901 156.517 9.58168C156.522 9.50168 156.526 9.43101 156.529 9.36968C156.531 9.30834 156.534 9.26301 156.537 9.23368H156.521L154.945 11.6097H154.545V8.75368ZM157.359 11.6897C157.923 11.2577 158.487 10.8737 158.487 10.4617C158.487 10.1737 158.219 9.95768 157.939 9.95768C157.739 9.95768 157.587 10.0457 157.483 10.2097L157.519 8.78968H157.359V11.6897ZM157.815 10.1617C157.971 10.1617 158.091 10.2897 158.091 10.4417C158.091 10.7177 157.755 11.2177 157.499 11.4017C157.483 11.3177 157.471 11.1457 157.471 10.8897V10.6777C157.471 10.4417 157.539 10.1617 157.815 10.1617Z" fill="white"/>
<rect x="174.75" y="0.75" width="18.5" height="18.5" fill="white" stroke="#232323" stroke-width="0.5"/>
<path d="M183.465 8.75368V11.2897H183.829V12.3617H183.485V11.6097H181.521V12.3617H181.177V11.2897H181.397C181.493 11.1243 181.583 10.939 181.669 10.7337C181.757 10.5283 181.834 10.3137 181.901 10.0897C181.967 9.86301 182.022 9.63634 182.065 9.40968C182.107 9.18301 182.134 8.96434 182.145 8.75368H183.465ZM182.461 9.07768C182.45 9.23234 182.423 9.40701 182.381 9.60168C182.341 9.79634 182.289 9.99634 182.225 10.2017C182.163 10.4043 182.094 10.6003 182.017 10.7897C181.942 10.979 181.862 11.1457 181.777 11.2897H183.109V9.07768H182.461ZM186.798 10.1777C186.798 10.399 186.77 10.6003 186.714 10.7817C186.658 10.9603 186.574 11.115 186.462 11.2457C186.353 11.3763 186.216 11.4763 186.05 11.5457C185.888 11.615 185.698 11.6497 185.482 11.6497C185.258 11.6497 185.064 11.615 184.898 11.5457C184.733 11.4737 184.596 11.3737 184.486 11.2457C184.377 11.115 184.296 10.959 184.242 10.7777C184.189 10.5963 184.162 10.395 184.162 10.1737C184.162 9.88034 184.21 9.62434 184.306 9.40568C184.402 9.18701 184.548 9.01634 184.742 8.89368C184.94 8.77101 185.188 8.70968 185.486 8.70968C185.772 8.70968 186.012 8.77101 186.206 8.89368C186.401 9.01368 186.548 9.18434 186.646 9.40568C186.748 9.62434 186.798 9.88168 186.798 10.1777ZM184.542 10.1777C184.542 10.4177 184.576 10.6243 184.642 10.7977C184.709 10.971 184.812 11.1043 184.95 11.1977C185.092 11.291 185.269 11.3377 185.482 11.3377C185.698 11.3377 185.874 11.291 186.01 11.1977C186.149 11.1043 186.252 10.971 186.318 10.7977C186.385 10.6243 186.418 10.4177 186.418 10.1777C186.418 9.81768 186.344 9.53634 186.194 9.33368C186.045 9.12834 185.809 9.02568 185.486 9.02568C185.27 9.02568 185.092 9.07234 184.95 9.16568C184.812 9.25634 184.709 9.38834 184.642 9.56168C184.576 9.73234 184.542 9.93768 184.542 10.1777Z" fill="#232323"/>
</svg>
