<svg width="194" height="20" viewBox="0 0 194 20" fill="none" xmlns="http://www.w3.org/2000/svg">
<g clip-path="url(#clip0_14_1584)">
<rect x="0.75" y="0.75" width="18.5" height="18.5" fill="white" stroke="#232323" stroke-width="0.5"/>
<path d="M6.26279 9.02968C6.11079 9.02968 5.97346 9.05635 5.85079 9.10968C5.72812 9.16035 5.62412 9.23635 5.53879 9.33768C5.45346 9.43635 5.38812 9.55768 5.34279 9.70168C5.29746 9.84301 5.27479 10.003 5.27479 10.1817C5.27479 10.4163 5.31079 10.6203 5.38279 10.7937C5.45746 10.967 5.56679 11.1003 5.71079 11.1937C5.85746 11.287 6.04012 11.3337 6.25879 11.3337C6.38412 11.3337 6.50279 11.323 6.61479 11.3017C6.72679 11.2803 6.83612 11.2537 6.94279 11.2217V11.5337C6.83612 11.5737 6.72546 11.603 6.61079 11.6217C6.49879 11.6403 6.36412 11.6497 6.20679 11.6497C5.91612 11.6497 5.67346 11.5897 5.47879 11.4697C5.28412 11.3497 5.13746 11.179 5.03879 10.9577C4.94279 10.7363 4.89479 10.4763 4.89479 10.1777C4.89479 9.96168 4.92412 9.76435 4.98279 9.58568C5.04412 9.40701 5.13212 9.25235 5.24679 9.12168C5.36412 8.99101 5.50812 8.89101 5.67879 8.82168C5.84946 8.74968 6.04546 8.71368 6.26679 8.71368C6.41346 8.71368 6.55479 8.72835 6.69079 8.75768C6.82679 8.78701 6.94812 8.82835 7.05479 8.88168L6.91079 9.18568C6.82279 9.14568 6.72412 9.10968 6.61479 9.07768C6.50812 9.04568 6.39079 9.02968 6.26279 9.02968ZM9.98001 10.1777C9.98001 10.399 9.95201 10.6003 9.89601 10.7817C9.84001 10.9603 9.75601 11.115 9.64401 11.2457C9.53468 11.3763 9.39734 11.4763 9.23201 11.5457C9.06934 11.615 8.88001 11.6497 8.66401 11.6497C8.44001 11.6497 8.24534 11.615 8.08001 11.5457C7.91468 11.4737 7.77734 11.3737 7.66801 11.2457C7.55868 11.115 7.47734 10.959 7.42401 10.7777C7.37068 10.5963 7.34401 10.395 7.34401 10.1737C7.34401 9.88035 7.39201 9.62435 7.48801 9.40568C7.58401 9.18701 7.72934 9.01635 7.92401 8.89368C8.12134 8.77101 8.36934 8.70968 8.66801 8.70968C8.95334 8.70968 9.19334 8.77101 9.38801 8.89368C9.58268 9.01368 9.72934 9.18435 9.82801 9.40568C9.92934 9.62435 9.98001 9.88168 9.98001 10.1777ZM7.72401 10.1777C7.72401 10.4177 7.75734 10.6243 7.82401 10.7977C7.89068 10.971 7.99334 11.1043 8.13201 11.1977C8.27334 11.291 8.45068 11.3377 8.66401 11.3377C8.88001 11.3377 9.05601 11.291 9.19201 11.1977C9.33068 11.1043 9.43334 10.971 9.50001 10.7977C9.56668 10.6243 9.60001 10.4177 9.60001 10.1777C9.60001 9.81768 9.52534 9.53635 9.37601 9.33368C9.22668 9.12835 8.99068 9.02568 8.66801 9.02568C8.45201 9.02568 8.27334 9.07235 8.13201 9.16568C7.99334 9.25635 7.89068 9.38835 7.82401 9.56168C7.75734 9.73235 7.72401 9.93768 7.72401 10.1777ZM12.5909 11.6097H12.2309V9.06968H11.3269C11.3082 9.21635 11.2882 9.37101 11.2669 9.53368C11.2456 9.69368 11.2229 9.85235 11.1989 10.0097C11.1776 10.167 11.1562 10.315 11.1349 10.4537C11.1136 10.5923 11.0922 10.7137 11.0709 10.8177C11.0362 10.9963 10.9936 11.1483 10.9429 11.2737C10.8922 11.399 10.8242 11.4937 10.7389 11.5577C10.6562 11.6217 10.5469 11.6537 10.4109 11.6537C10.3656 11.6537 10.3189 11.6483 10.2709 11.6377C10.2256 11.6297 10.1856 11.619 10.1509 11.6057V11.3057C10.1802 11.319 10.2136 11.331 10.2509 11.3417C10.2882 11.3497 10.3282 11.3537 10.3709 11.3537C10.4509 11.3537 10.5136 11.3217 10.5589 11.2577C10.6069 11.191 10.6442 11.1097 10.6709 11.0137C10.6976 10.915 10.7202 10.8177 10.7389 10.7217C10.7549 10.6443 10.7736 10.5417 10.7949 10.4137C10.8162 10.283 10.8389 10.131 10.8629 9.95768C10.8896 9.78435 10.9162 9.59635 10.9429 9.39368C10.9722 9.18835 11.0002 8.97501 11.0269 8.75368H12.5909V11.6097ZM13.3669 11.6097V8.75368H13.7269V9.96168H14.2629C14.5296 9.96168 14.7416 9.99768 14.8989 10.0697C15.0562 10.1417 15.1696 10.239 15.2389 10.3617C15.3082 10.4843 15.3429 10.6217 15.3429 10.7737C15.3429 10.9417 15.3042 11.0883 15.2269 11.2137C15.1522 11.339 15.0389 11.4363 14.8869 11.5057C14.7349 11.575 14.5416 11.6097 14.3069 11.6097H13.3669ZM14.2709 11.3017C14.5029 11.3017 14.6776 11.259 14.7949 11.1737C14.9122 11.0857 14.9709 10.9523 14.9709 10.7737C14.9709 10.651 14.9416 10.5537 14.8829 10.4817C14.8269 10.407 14.7429 10.3537 14.6309 10.3217C14.5216 10.2897 14.3842 10.2737 14.2189 10.2737H13.7269V11.3017H14.2709Z" fill="#232323"/>
</g>
<rect x="29.75" y="0.75" width="18.5" height="18.5" fill="white" stroke="#232323" stroke-width="0.5"/>
<path d="M38.8487 11.6097H38.4887V9.06968H37.5847C37.566 9.21635 37.546 9.37101 37.5247 9.53368C37.5034 9.69368 37.4807 9.85235 37.4567 10.0097C37.4354 10.167 37.414 10.315 37.3927 10.4537C37.3714 10.5923 37.35 10.7137 37.3287 10.8177C37.294 10.9963 37.2514 11.1483 37.2007 11.2737C37.15 11.399 37.082 11.4937 36.9967 11.5577C36.914 11.6217 36.8047 11.6537 36.6687 11.6537C36.6234 11.6537 36.5767 11.6483 36.5287 11.6377C36.4834 11.6297 36.4434 11.619 36.4087 11.6057V11.3057C36.438 11.319 36.4714 11.331 36.5087 11.3417C36.546 11.3497 36.586 11.3537 36.6287 11.3537C36.7087 11.3537 36.7714 11.3217 36.8167 11.2577C36.8647 11.191 36.902 11.1097 36.9287 11.0137C36.9554 10.915 36.978 10.8177 36.9967 10.7217C37.0127 10.6443 37.0314 10.5417 37.0527 10.4137C37.074 10.283 37.0967 10.131 37.1207 9.95768C37.1474 9.78435 37.174 9.59635 37.2007 9.39368C37.23 9.18835 37.258 8.97501 37.2847 8.75368H38.8487V11.6097ZM40.4847 10.4257L39.7447 11.6097H39.3247L40.1247 10.3617C40.0234 10.327 39.9274 10.279 39.8367 10.2177C39.7487 10.1563 39.6767 10.0723 39.6207 9.96568C39.5647 9.85901 39.5367 9.72168 39.5367 9.55368C39.5367 9.29501 39.6261 9.09768 39.8047 8.96168C39.9834 8.82301 40.2501 8.75368 40.6047 8.75368H41.4047V11.6097H41.0447V10.4257H40.4847ZM40.6127 9.06168C40.4607 9.06168 40.3327 9.07901 40.2287 9.11368C40.1247 9.14835 40.0447 9.20301 39.9887 9.27768C39.9354 9.35235 39.9087 9.44968 39.9087 9.56968C39.9087 9.74568 39.9674 9.88168 40.0847 9.97768C40.2021 10.0737 40.3834 10.1217 40.6287 10.1217H41.0447V9.06168H40.6127Z" fill="#232323"/>
<rect x="58.75" y="0.75" width="18.5" height="18.5" fill="white" stroke="#232323" stroke-width="0.5"/>
<path d="M66.9112 9.02968C66.7592 9.02968 66.6219 9.05635 66.4992 9.10968C66.3766 9.16035 66.2726 9.23635 66.1872 9.33768C66.1019 9.43635 66.0366 9.55768 65.9912 9.70168C65.9459 9.84301 65.9232 10.003 65.9232 10.1817C65.9232 10.4163 65.9592 10.6203 66.0312 10.7937C66.1059 10.967 66.2152 11.1003 66.3592 11.1937C66.5059 11.287 66.6886 11.3337 66.9072 11.3337C67.0326 11.3337 67.1512 11.323 67.2632 11.3017C67.3752 11.2803 67.4846 11.2537 67.5912 11.2217V11.5337C67.4846 11.5737 67.3739 11.603 67.2592 11.6217C67.1472 11.6403 67.0126 11.6497 66.8552 11.6497C66.5646 11.6497 66.3219 11.5897 66.1272 11.4697C65.9326 11.3497 65.7859 11.179 65.6872 10.9577C65.5912 10.7363 65.5432 10.4763 65.5432 10.1777C65.5432 9.96168 65.5726 9.76435 65.6312 9.58568C65.6926 9.40701 65.7806 9.25235 65.8952 9.12168C66.0126 8.99101 66.1566 8.89101 66.3272 8.82168C66.4979 8.74968 66.6939 8.71368 66.9152 8.71368C67.0619 8.71368 67.2032 8.72835 67.3392 8.75768C67.4752 8.78701 67.5966 8.82835 67.7032 8.88168L67.5592 9.18568C67.4712 9.14568 67.3726 9.10968 67.2632 9.07768C67.1566 9.04568 67.0392 9.02968 66.9112 9.02968ZM68.2186 8.75368H68.5546V10.3217C68.5546 10.3883 68.5532 10.4617 68.5506 10.5417C68.5506 10.619 68.5492 10.6963 68.5466 10.7737C68.5439 10.851 68.5399 10.9203 68.5346 10.9817C68.5319 11.0403 68.5292 11.0857 68.5266 11.1177H68.5426L70.1146 8.75368H70.5146V11.6097H70.1786V10.0577C70.1786 9.98568 70.1799 9.90835 70.1826 9.82568C70.1852 9.74035 70.1879 9.65901 70.1906 9.58168C70.1959 9.50168 70.1999 9.43101 70.2026 9.36968C70.2052 9.30835 70.2079 9.26301 70.2106 9.23368H70.1946L68.6186 11.6097H68.2186V8.75368Z" fill="#232323"/>
<rect x="87.75" y="0.75" width="18.5" height="18.5" fill="white" stroke="#232323" stroke-width="0.5"/>
<path d="M96.4647 8.75368V11.2897H96.8287V12.3617H96.4847V11.6097H94.5207V12.3617H94.1767V11.2897H94.3967C94.4927 11.1243 94.5834 10.939 94.6687 10.7337C94.7567 10.5283 94.8341 10.3137 94.9007 10.0897C94.9674 9.86301 95.0221 9.63635 95.0647 9.40968C95.1074 9.18301 95.1341 8.96435 95.1447 8.75368H96.4647ZM95.4607 9.07768C95.4501 9.23235 95.4234 9.40701 95.3807 9.60168C95.3407 9.79635 95.2887 9.99635 95.2247 10.2017C95.1634 10.4043 95.0941 10.6003 95.0167 10.7897C94.9421 10.979 94.8621 11.1457 94.7767 11.2897H96.1087V9.07768H95.4607ZM99.7984 10.1777C99.7984 10.399 99.7704 10.6003 99.7144 10.7817C99.6584 10.9603 99.5744 11.115 99.4624 11.2457C99.353 11.3763 99.2157 11.4763 99.0504 11.5457C98.8877 11.615 98.6984 11.6497 98.4824 11.6497C98.2584 11.6497 98.0637 11.615 97.8984 11.5457C97.733 11.4737 97.5957 11.3737 97.4864 11.2457C97.377 11.115 97.2957 10.959 97.2424 10.7777C97.189 10.5963 97.1624 10.395 97.1624 10.1737C97.1624 9.88035 97.2104 9.62435 97.3064 9.40568C97.4024 9.18701 97.5477 9.01635 97.7424 8.89368C97.9397 8.77101 98.1877 8.70968 98.4864 8.70968C98.7717 8.70968 99.0117 8.77101 99.2064 8.89368C99.401 9.01368 99.5477 9.18435 99.6464 9.40568C99.7477 9.62435 99.7984 9.88168 99.7984 10.1777ZM97.5424 10.1777C97.5424 10.4177 97.5757 10.6243 97.6424 10.7977C97.709 10.971 97.8117 11.1043 97.9504 11.1977C98.0917 11.291 98.269 11.3377 98.4824 11.3377C98.6984 11.3377 98.8744 11.291 99.0104 11.1977C99.149 11.1043 99.2517 10.971 99.3184 10.7977C99.385 10.6243 99.4184 10.4177 99.4184 10.1777C99.4184 9.81768 99.3437 9.53635 99.1944 9.33368C99.045 9.12835 98.809 9.02568 98.4864 9.02568C98.2704 9.02568 98.0917 9.07235 97.9504 9.16568C97.8117 9.25635 97.709 9.38835 97.6424 9.56168C97.5757 9.73235 97.5424 9.93768 97.5424 10.1777Z" fill="#232323"/>
<rect x="116.75" y="0.75" width="18.5" height="18.5" fill="white" stroke="#232323" stroke-width="0.5"/>
<path d="M124.92 8.75368C125.293 8.75368 125.565 8.82701 125.736 8.97368C125.906 9.12035 125.992 9.32701 125.992 9.59368C125.992 9.71101 125.972 9.82435 125.932 9.93368C125.894 10.0403 125.832 10.1363 125.744 10.2217C125.656 10.307 125.538 10.375 125.392 10.4257C125.245 10.4737 125.065 10.4977 124.852 10.4977H124.524V11.6097H124.164V8.75368H124.92ZM124.888 9.06168H124.524V10.1897H124.812C124.993 10.1897 125.144 10.171 125.264 10.1337C125.384 10.0937 125.473 10.031 125.532 9.94568C125.59 9.86035 125.62 9.74835 125.62 9.60968C125.62 9.42568 125.561 9.28835 125.444 9.19768C125.326 9.10701 125.141 9.06168 124.888 9.06168ZM128.182 11.6097H126.586V8.75368H128.182V9.06968H126.946V9.96168H128.11V10.2737H126.946V11.2937H128.182V11.6097Z" fill="#232323"/>
<rect x="145.75" y="0.75" width="18.5" height="18.5" fill="white" stroke="#232323" stroke-width="0.5"/>
<path d="M153.396 11.6097L152.456 9.10568H152.44C152.446 9.15901 152.45 9.22701 152.452 9.30968C152.458 9.39235 152.462 9.48301 152.464 9.58168C152.467 9.67768 152.468 9.77635 152.468 9.87768V11.6097H152.136V8.75368H152.668L153.548 11.0937H153.564L154.46 8.75368H154.988V11.6097H154.632V9.85368C154.632 9.76035 154.634 9.66835 154.636 9.57768C154.639 9.48435 154.643 9.39768 154.648 9.31768C154.654 9.23501 154.658 9.16568 154.66 9.10968H154.644L153.692 11.6097H153.396ZM155.769 8.75368H156.105V10.3217C156.105 10.3883 156.104 10.4617 156.101 10.5417C156.101 10.619 156.1 10.6963 156.097 10.7737C156.095 10.851 156.091 10.9203 156.085 10.9817C156.083 11.0403 156.08 11.0857 156.077 11.1177H156.093L157.665 8.75368H158.065V11.6097H157.729V10.0577C157.729 9.98568 157.731 9.90835 157.733 9.82568C157.736 9.74035 157.739 9.65901 157.741 9.58168C157.747 9.50168 157.751 9.43101 157.753 9.36968C157.756 9.30835 157.759 9.26301 157.761 9.23368H157.745L156.169 11.6097H155.769V8.75368Z" fill="#232323"/>
<rect x="174.75" y="0.75" width="18.5" height="18.5" fill="#232323" stroke="#232323" stroke-width="0.5"/>
<path d="M182.277 8.71368V9.06568C182.586 9.07101 182.83 9.12168 183.009 9.21768C183.187 9.31368 183.314 9.44168 183.389 9.60168C183.463 9.75901 183.501 9.93501 183.501 10.1297C183.501 10.2577 183.481 10.3857 183.441 10.5137C183.403 10.639 183.338 10.7537 183.245 10.8577C183.151 10.959 183.026 11.0417 182.869 11.1057C182.711 11.1697 182.514 11.2043 182.277 11.2097V11.6497H181.921V11.2097C181.678 11.2043 181.477 11.1697 181.317 11.1057C181.159 11.039 181.035 10.9537 180.945 10.8497C180.854 10.743 180.79 10.627 180.753 10.5017C180.715 10.3763 180.697 10.2523 180.697 10.1297C180.697 9.98835 180.717 9.85501 180.757 9.72968C180.799 9.60168 180.867 9.48968 180.961 9.39368C181.057 9.29501 181.183 9.21635 181.341 9.15768C181.498 9.09901 181.691 9.06835 181.921 9.06568V8.71368H182.277ZM181.921 9.36968C181.707 9.37501 181.537 9.40968 181.409 9.47368C181.283 9.53768 181.194 9.62568 181.141 9.73768C181.087 9.84701 181.061 9.97635 181.061 10.1257C181.061 10.283 181.09 10.4203 181.149 10.5377C181.21 10.6523 181.303 10.7417 181.429 10.8057C181.557 10.8697 181.721 10.9057 181.921 10.9137V9.36968ZM182.277 10.9137C182.482 10.9057 182.647 10.8683 182.773 10.8017C182.901 10.735 182.993 10.6443 183.049 10.5297C183.107 10.4123 183.137 10.2777 183.137 10.1257C183.137 9.97368 183.11 9.84301 183.057 9.73368C183.003 9.62168 182.914 9.53501 182.789 9.47368C182.663 9.40968 182.493 9.37501 182.277 9.36968V10.9137ZM185.887 11.6097L185.543 10.7257H184.411L184.071 11.6097H183.707L184.823 8.74168H185.147L186.259 11.6097H185.887ZM185.115 9.54168C185.107 9.52035 185.094 9.48168 185.075 9.42568C185.057 9.36968 185.038 9.31235 185.019 9.25368C185.003 9.19235 184.99 9.14568 184.979 9.11368C184.966 9.16701 184.951 9.22168 184.935 9.27768C184.922 9.33101 184.907 9.38035 184.891 9.42568C184.878 9.47101 184.866 9.50968 184.855 9.54168L184.531 10.4057H185.435L185.115 9.54168ZM187.234 10.4737L186.782 10.6257V9.80968L187.234 9.65768V10.4737ZM187.234 8.51768V9.22968L186.782 9.37368V8.66968H186.662V9.40968L186.418 9.49368V9.92168L186.662 9.84168V10.6617L186.418 10.7377V11.1737L186.662 11.0897V11.7617H186.782V11.0577L187.234 10.9097V11.6097H187.354V10.8737L187.594 10.7897V10.3617L187.354 10.4417V9.62168L187.594 9.54568V9.10968L187.354 9.19368V8.51768H187.234Z" fill="white"/>
<defs>
<clipPath id="clip0_14_1584">
<rect width="19" height="19" fill="white" transform="translate(0.5 0.5)"/>
</clipPath>
</defs>
</svg>
