<svg width="76" height="57" viewBox="0 0 76 57" fill="none" xmlns="http://www.w3.org/2000/svg">
<path fill-rule="evenodd" clip-rule="evenodd" d="M73.5569 19.0343H3V18.6514H73.5569V19.0343Z" fill="black"/>
<path fill-rule="evenodd" clip-rule="evenodd" d="M73.5569 27.8524H3V27.469H73.5569V27.8524Z" fill="black"/>
<path fill-rule="evenodd" clip-rule="evenodd" d="M73.5569 36.67H3V36.2866H73.5569V36.67Z" fill="black"/>
<path fill-rule="evenodd" clip-rule="evenodd" d="M73.5569 45.1043H3V44.7209H73.5569V45.1043Z" fill="black"/>
<path fill-rule="evenodd" clip-rule="evenodd" d="M73.5569 53.9217H3V53.5383H73.5569V53.9217Z" fill="black"/>
<path d="M7 21.8311H8.01299L7.92857 40.0648L7 42.2441V21.8311Z" fill="black"/>
<path d="M11.5584 35.8133C11.8961 34.9383 11.9805 34.7467 12.0649 34.1558C12.1494 33.5649 11.7273 33.0584 11.7273 33.0584C11.7273 33.0584 10.7987 31.961 9.61688 32.2987C8.43506 32.6363 7.75974 33.8181 7.75974 33.8181V32.5519C7.75974 32.5519 8.18182 31.5389 9.78571 30.948C10.3766 30.7792 11.1364 30.6948 12.3182 31.0324C12.9935 31.2857 12.9935 31.2013 13.8377 31.8766C14.1753 32.2143 14.5974 32.8052 14.7662 33.8181C14.7662 34.7467 14.7662 34.9156 14.3866 35.8133C12.9935 38.8831 7 42.2597 7 42.2597L7.88656 39.9496C7.88656 39.9496 11.2208 36.6883 11.5584 35.8133Z" fill="black"/>
</svg>
