<svg width="76" height="57" viewBox="0 0 76 57" fill="none" xmlns="http://www.w3.org/2000/svg">
<path fill-rule="evenodd" clip-rule="evenodd" d="M73.5569 19.0343H3V18.6514H73.5569V19.0343Z" fill="black"/>
<path fill-rule="evenodd" clip-rule="evenodd" d="M73.5569 27.8524H3V27.469H73.5569V27.8524Z" fill="black"/>
<path fill-rule="evenodd" clip-rule="evenodd" d="M73.5569 36.67H3V36.2866H73.5569V36.67Z" fill="black"/>
<path fill-rule="evenodd" clip-rule="evenodd" d="M73.5569 45.1043H3V44.7209H73.5569V45.1043Z" fill="black"/>
<path fill-rule="evenodd" clip-rule="evenodd" d="M73.5569 53.9217H3V53.5383H73.5569V53.9217Z" fill="black"/>
<path d="M7 21.8311H8.01299L7.92857 40.0648L7 42.2441V21.8311Z" fill="black"/>
<path d="M11.5584 35.8133C11.8961 34.9383 11.9805 34.7467 12.0649 34.1558C12.1494 33.5649 11.7273 33.0584 11.7273 33.0584C11.7273 33.0584 10.7987 31.961 9.61688 32.2987C8.43506 32.6363 7.75974 33.8181 7.75974 33.8181V32.5519C7.75974 32.5519 8.18182 31.5389 9.78571 30.948C10.3766 30.7792 11.1364 30.6948 12.3182 31.0324C12.9935 31.2857 12.9935 31.2013 13.8377 31.8766C14.1753 32.2143 14.5974 32.8052 14.7662 33.8181C14.7662 34.7467 14.7662 34.9156 14.3866 35.8133C12.9935 38.8831 7 42.2597 7 42.2597L7.88656 39.9496C7.88656 39.9496 11.2208 36.6883 11.5584 35.8133Z" fill="black"/>
<path d="M16.6234 9H17.6364L17.552 27.2338L16.6234 29.413V9Z" fill="black"/>
<path d="M21.1819 22.9822C21.5195 22.1072 21.6039 21.9157 21.6883 21.3247C21.7728 20.7338 21.3507 20.2273 21.3507 20.2273C21.3507 20.2273 20.4221 19.1299 19.2403 19.4676C18.0585 19.8053 17.3832 20.9871 17.3832 20.9871V19.7209C17.3832 19.7209 17.8052 18.7079 19.4091 18.117C20 17.9481 20.7598 17.8637 21.9416 18.2014C22.6169 18.4546 22.6169 18.3702 23.4611 19.0455C23.7987 19.3832 24.2208 19.9741 24.3896 20.9871C24.3896 21.9157 24.3896 22.0845 24.01 22.9822C22.6169 26.052 16.6234 29.4287 16.6234 29.4287L17.51 27.1186C17.51 27.1186 20.8442 23.8572 21.1819 22.9822Z" fill="black"/>
<path d="M26.2467 26.052H27.2597L27.1753 44.2858L26.2467 46.465V26.052Z" fill="black"/>
<path d="M30.8051 40.0342C31.1428 39.1592 31.2272 38.9677 31.3116 38.3768C31.3961 37.7858 30.974 37.2793 30.974 37.2793C30.974 37.2793 30.0454 36.1819 28.8636 36.5196C27.6818 36.8573 27.0064 38.0391 27.0064 38.0391V36.7729C27.0064 36.7729 27.4285 35.7599 29.0324 35.169C29.6233 35.0001 30.3831 34.9157 31.5649 35.2534C32.2402 35.5066 32.2402 35.4222 33.0844 36.0975C33.422 36.4352 33.8441 37.0261 34.0129 38.0391C34.0129 38.9677 34.0129 39.1365 33.6333 40.0342C32.2402 43.104 26.2467 46.4807 26.2467 46.4807L27.1333 44.1706C27.1333 44.1706 30.4675 40.9092 30.8051 40.0342Z" fill="black"/>
<path d="M35.7013 13.3896H36.7143L36.6299 31.6234L35.7013 33.8027V13.3896Z" fill="black"/>
<path d="M40.2597 27.3719C40.5974 26.4969 40.6818 26.3053 40.7662 25.7144C40.8506 25.1235 40.4286 24.617 40.4286 24.617C40.4286 24.617 39.5 23.5196 38.3182 23.8573C37.1364 24.1949 36.461 25.3767 36.461 25.3767V24.1105C36.461 24.1105 36.8831 23.0975 38.487 22.5066C39.0779 22.3378 39.8377 22.2534 41.0195 22.591C41.6948 22.8443 41.6948 22.7599 42.539 23.4352C42.8766 23.7729 43.2987 24.3638 43.4675 25.3767C43.4675 26.3053 43.4675 26.4741 43.0879 27.3719C41.6948 30.4417 35.7013 33.8183 35.7013 33.8183L36.5879 31.5082C36.5879 31.5082 39.9221 28.2469 40.2597 27.3719Z" fill="black"/>
</svg>
