<svg width="76" height="57" viewBox="0 0 76 57" fill="none" xmlns="http://www.w3.org/2000/svg">
<path fill-rule="evenodd" clip-rule="evenodd" d="M73.5569 19.0343H3V18.6514H73.5569V19.0343Z" fill="black"/>
<path fill-rule="evenodd" clip-rule="evenodd" d="M73.5569 27.8524H3V27.469H73.5569V27.8524Z" fill="black"/>
<path fill-rule="evenodd" clip-rule="evenodd" d="M73.5569 36.67H3V36.2866H73.5569V36.67Z" fill="black"/>
<path fill-rule="evenodd" clip-rule="evenodd" d="M73.5569 45.1043H3V44.7209H73.5569V45.1043Z" fill="black"/>
<path fill-rule="evenodd" clip-rule="evenodd" d="M73.5569 53.9217H3V53.5383H73.5569V53.9217Z" fill="black"/>
<path fill-rule="evenodd" clip-rule="evenodd" d="M7.44645 30.8274L7.60612 8.15316L8.40442 8.15967L8.24475 30.8339L7.44645 30.8274Z" fill="black"/>
<path d="M5.89604 23.4082L13.8636 20.6928L13.8636 23.8158L5.89604 26.5642L5.89604 23.4082Z" fill="black"/>
<path fill-rule="evenodd" clip-rule="evenodd" d="M11.2785 29.625L11.4381 6.95077L12.2365 6.95728L12.0768 29.6315L11.2785 29.625Z" fill="black"/>
<path d="M5.84453 14.3589L13.8121 11.6435L13.8121 14.7665L5.84453 17.5149L5.84453 14.3589Z" fill="black"/>
<path fill-rule="evenodd" clip-rule="evenodd" d="M17.0779 44.0542L17.2376 21.38L18.0359 21.3865L17.8762 44.0607L17.0779 44.0542Z" fill="black"/>
<path d="M15.5275 36.635L23.4951 33.9196L23.4951 37.0426L15.5275 39.791L15.5275 36.635Z" fill="black"/>
<path fill-rule="evenodd" clip-rule="evenodd" d="M20.91 42.852L21.0696 20.1778L21.8679 20.1843L21.7083 42.8585L20.91 42.852Z" fill="black"/>
<path d="M15.476 27.5857L23.4436 24.8703L23.4436 27.9933L15.476 30.7417L15.476 27.5857Z" fill="black"/>
</svg>
