<svg width="76" height="57" viewBox="0 0 76 57" fill="none" xmlns="http://www.w3.org/2000/svg">
<path fill-rule="evenodd" clip-rule="evenodd" d="M73.5569 19.0343H3V18.6514H73.5569V19.0343Z" fill="black"/>
<path fill-rule="evenodd" clip-rule="evenodd" d="M73.5569 27.8524H3V27.469H73.5569V27.8524Z" fill="black"/>
<path fill-rule="evenodd" clip-rule="evenodd" d="M73.5569 36.67H3V36.2866H73.5569V36.67Z" fill="black"/>
<path fill-rule="evenodd" clip-rule="evenodd" d="M73.5569 45.1043H3V44.7209H73.5569V45.1043Z" fill="black"/>
<path fill-rule="evenodd" clip-rule="evenodd" d="M73.5569 53.9217H3V53.5383H73.5569V53.9217Z" fill="black"/>
<path fill-rule="evenodd" clip-rule="evenodd" d="M7.44645 30.8274L7.60612 8.15316L8.40442 8.15967L8.24475 30.8339L7.44645 30.8274Z" fill="black"/>
<path d="M5.89604 23.4082L13.8636 20.6928L13.8636 23.8158L5.89604 26.5642L5.89604 23.4082Z" fill="black"/>
<path fill-rule="evenodd" clip-rule="evenodd" d="M11.2785 29.625L11.4381 6.95077L12.2365 6.95728L12.0768 29.6315L11.2785 29.625Z" fill="black"/>
<path d="M5.84453 14.3589L13.8121 11.6435L13.8121 14.7665L5.84453 17.5149L5.84453 14.3589Z" fill="black"/>
<path fill-rule="evenodd" clip-rule="evenodd" d="M17.0779 44.0539L17.2376 21.3797L18.0359 21.3862L17.8762 44.0605L17.0779 44.0539Z" fill="black"/>
<path d="M15.5275 36.6348L23.4951 33.9194L23.4951 37.0424L15.5275 39.7908L15.5275 36.6348Z" fill="black"/>
<path fill-rule="evenodd" clip-rule="evenodd" d="M20.91 42.8518L21.0696 20.1776L21.8679 20.1841L21.7083 42.8583L20.91 42.8518Z" fill="black"/>
<path d="M15.476 27.5855L23.4436 24.8701L23.4436 27.9931L15.476 30.7415L15.476 27.5855Z" fill="black"/>
<path fill-rule="evenodd" clip-rule="evenodd" d="M26.6581 26.8767L26.8178 4.20246L27.8584 4.21094L27.6987 26.8852L26.6581 26.8767Z" fill="black"/>
<path d="M25.1076 19.4573L33.0752 16.7419L33.0752 19.8649L25.1076 22.6133L25.1076 19.4573Z" fill="black"/>
<path fill-rule="evenodd" clip-rule="evenodd" d="M30.49 25.6743L30.6497 3.00006L31.6903 3.00854L31.5306 25.6828L30.49 25.6743Z" fill="black"/>
<path d="M25.0561 10.4082L33.0237 7.69281L33.0237 10.8158L25.0561 13.5642L25.0561 10.4082Z" fill="black"/>
<path fill-rule="evenodd" clip-rule="evenodd" d="M36.2381 39.5879L36.3977 16.9136L37.4384 16.9221L37.2787 39.5964L36.2381 39.5879Z" fill="black"/>
<path d="M34.6875 32.1687L42.6551 29.4533L42.6551 32.5763L34.6875 35.3247L34.6875 32.1687Z" fill="black"/>
<path fill-rule="evenodd" clip-rule="evenodd" d="M40.07 38.3855L40.2296 15.7112L41.2703 15.7197L41.1106 38.394L40.07 38.3855Z" fill="black"/>
<path d="M34.6359 23.1194L42.6035 20.404L42.6035 23.527L34.6359 26.2754L34.6359 23.1194Z" fill="black"/>
<path fill-rule="evenodd" clip-rule="evenodd" d="M45.8178 52.6429L45.9774 29.9686L47.0181 29.9771L46.8584 52.6513L45.8178 52.6429Z" fill="black"/>
<path d="M44.2673 45.2234L52.2349 42.508L52.2349 45.631L44.2673 48.3794L44.2673 45.2234Z" fill="black"/>
<path fill-rule="evenodd" clip-rule="evenodd" d="M49.6497 51.4405L49.8093 28.7662L50.85 28.7747L50.6903 51.4489L49.6497 51.4405Z" fill="black"/>
<path d="M44.2157 36.1743L52.1833 33.4589L52.1833 36.5819L44.2157 39.3303L44.2157 36.1743Z" fill="black"/>
<path fill-rule="evenodd" clip-rule="evenodd" d="M55.3976 35.4654L55.5573 12.7911L56.5979 12.7996L56.4382 35.4738L55.3976 35.4654Z" fill="black"/>
<path d="M53.8472 28.0462L61.8148 25.3308L61.8148 28.4538L53.8472 31.2021L53.8472 28.0462Z" fill="black"/>
<path fill-rule="evenodd" clip-rule="evenodd" d="M59.2295 34.263L59.3892 11.5887L60.4298 11.5972L60.2701 34.2715L59.2295 34.263Z" fill="black"/>
<path d="M53.7956 18.9968L61.7632 16.2814L61.7632 19.4044L53.7956 22.1528L53.7956 18.9968Z" fill="black"/>
<path fill-rule="evenodd" clip-rule="evenodd" d="M64.9773 48.3484L65.137 25.6741L66.1776 25.6826L66.0179 48.3569L64.9773 48.3484Z" fill="black"/>
<path d="M63.427 40.9292L71.3947 38.2138L71.3947 41.3368L63.427 44.0852L63.427 40.9292Z" fill="black"/>
<path fill-rule="evenodd" clip-rule="evenodd" d="M68.8095 47.146L68.9691 24.4717L70.0098 24.4802L69.8501 47.1545L68.8095 47.146Z" fill="black"/>
<path d="M63.3754 31.8799L71.343 29.1645L71.343 32.2875L63.3754 35.0359L63.3754 31.8799Z" fill="black"/>
</svg>
