<svg width="800" height="800" viewBox="0 0 800 800" fill="none" xmlns="http://www.w3.org/2000/svg">
<g clip-path="url(#clip0_412_2)">
<path d="M735.665 401.457L711.7 346.943C710.282 343.715 708.706 340.513 707.018 337.433C697.023 319.155 680.62 305.396 660.833 298.687C641.109 292 619.728 292.892 600.62 301.202L591.385 305.218L579.584 278.373C579.582 278.37 579.581 278.365 579.579 278.362L570.885 258.585C563.455 241.686 549.868 228.72 532.626 222.08C515.469 215.472 496.805 215.952 480.057 223.428L449.415 236.703C443.747 228.639 436.862 222.486 428.835 218.331C412.069 209.654 391.898 210.384 368.881 220.504L346.955 230.142L318.572 165.578C307.018 139.294 285.575 121.259 259.742 116.096C235.457 111.241 210.73 118.112 193.59 134.47C167.871 159.015 160.481 195.869 174.751 228.327L282.266 474.438C273.264 472.617 263.777 471.783 254.15 472.018C229.144 472.634 206.66 480.586 191.605 493.994C190.617 494.634 189.688 495.393 188.837 496.269C173.707 511.85 166.249 530.698 167.264 550.773C168.534 575.861 182.865 600.602 208.708 622.323C208.838 622.433 208.971 622.542 209.106 622.647L430.112 796.586C432.971 798.838 436.453 800 439.97 800C442.14 800 444.324 799.557 446.381 798.652L762.99 659.469C768.448 657.071 772.11 651.825 772.481 645.874L774.204 618.285C778.825 544.3 765.5 469.321 735.665 401.457ZM742.395 616.3L741.277 634.198L442.311 765.627L229.028 597.764C210.523 582.153 199.896 564.899 199.1 549.162C198.583 538.959 202.08 529.458 209.5 520.878C210.035 520.453 210.548 519.989 211.036 519.487C230.113 499.839 277.688 498.481 302.532 516.701L357.428 569.425C360.518 572.392 364.494 573.868 368.465 573.868C372.652 573.868 376.832 572.228 379.962 568.97C386.059 562.623 385.855 552.534 379.508 546.437L326.096 495.136L203.947 215.531C193.243 191.181 202.948 169.602 215.602 157.527C225.088 148.472 239.611 144.572 253.501 147.35C269.23 150.494 281.979 161.522 289.401 178.403L381.927 388.876C384.551 394.848 390.394 398.403 396.524 398.403C398.666 398.403 400.843 397.97 402.929 397.052C410.986 393.509 414.647 384.107 411.104 376.049L359.788 259.318L381.716 249.678C395.479 243.63 406.406 242.606 414.193 246.636C419.704 249.488 424.349 255.143 427.998 263.442L482.564 387.566C485.189 393.538 491.031 397.093 497.162 397.093C499.304 397.093 501.481 396.66 503.567 395.742C511.624 392.199 515.285 382.797 511.742 374.739L463.624 265.281L492.819 252.633C492.881 252.606 492.942 252.58 493.002 252.551C501.967 248.534 511.973 248.272 521.179 251.818C530.437 255.383 537.729 262.339 541.715 271.407L606.555 418.921C609.179 424.892 615.022 428.448 621.152 428.448C623.294 428.448 625.471 428.014 627.557 427.096C635.614 423.555 639.275 414.151 635.732 406.094L604.212 334.394L613.331 330.429C637.979 319.708 666.239 329.292 679.058 352.73C680.306 355.01 681.471 357.377 682.521 359.767L706.488 414.282C734.282 477.511 746.7 547.367 742.395 616.3Z" fill="white"/>
<path d="M679.778 612.072L664.057 618.967C655.997 622.502 652.33 631.901 655.865 639.962C658.486 645.939 664.331 649.501 670.467 649.501C672.604 649.501 674.778 649.069 676.859 648.155L692.58 641.259C700.641 637.724 704.308 628.325 700.773 620.265C697.24 612.204 687.841 608.535 679.778 612.072Z" fill="white"/>
<path d="M616.367 640.241L448.473 713.879C440.413 717.414 436.746 726.813 440.281 734.873C442.902 740.851 448.747 744.413 454.883 744.413C457.02 744.413 459.194 743.981 461.275 743.068L629.168 669.428C637.229 665.893 640.896 656.494 637.361 648.433C633.828 640.374 624.43 636.706 616.367 640.241Z" fill="white"/>
<path d="M202.417 72.0271C203.973 79.5601 210.607 84.7442 218.008 84.7442C219.075 84.7442 220.161 84.6358 221.246 84.4127C229.866 82.6326 235.41 74.2024 233.63 65.5824L222.714 12.7155C220.935 4.09718 212.502 -1.44385 203.885 0.331447C195.265 2.10993 189.721 10.5402 191.501 19.1601L202.417 72.0271Z" fill="white"/>
<path d="M65.3944 74.7617C70.0302 67.278 67.7195 57.4565 60.2374 52.8223L49.2302 46.0063C41.7466 41.3705 31.9251 43.6796 27.2908 51.1633C22.6549 58.647 24.9657 68.4685 32.4478 73.1027L43.4549 79.9187C46.0685 81.5378 48.9673 82.3091 51.831 82.3091C57.1649 82.3091 62.3792 79.6302 65.3944 74.7617Z" fill="white"/>
<path d="M96.3408 115.131L130.336 137.492C133.036 139.267 136.073 140.115 139.079 140.115C144.263 140.115 149.346 137.589 152.409 132.934C157.246 125.581 155.205 115.699 147.852 110.862L113.855 88.502C106.5 83.6653 96.6197 85.7068 91.7831 93.0598C86.9464 100.413 88.9878 110.295 96.3408 115.131Z" fill="white"/>
<path d="M138.043 215.922C136.263 207.304 127.836 201.761 119.213 203.538L66.346 214.454C57.7261 216.233 52.1818 224.663 53.9619 233.283C55.5173 240.816 62.1516 246 69.5524 246C70.6201 246 71.7053 245.892 72.7922 245.669L125.659 234.752C134.279 232.972 139.823 224.542 138.043 215.922Z" fill="white"/>
<path d="M178.127 297.979C170.773 293.141 160.891 295.184 156.056 302.537L126.392 347.638C121.555 354.991 123.597 364.873 130.95 369.71C133.649 371.485 136.687 372.333 139.692 372.333C144.876 372.333 149.96 369.807 153.021 365.152L182.685 320.051C187.522 312.698 185.48 302.816 178.127 297.979Z" fill="white"/>
<path d="M352.757 167.618C354.312 175.149 360.946 180.333 368.347 180.333C369.415 180.333 370.499 180.225 371.587 180.002L406.832 172.724C415.452 170.943 420.996 162.513 419.216 153.893C417.436 145.273 409.007 139.729 400.386 141.509L365.141 148.787C356.521 150.567 350.977 158.998 352.757 167.618Z" fill="white"/>
<path d="M467.474 159.865C468.542 159.865 469.627 159.756 470.714 159.533L481.729 157.259C490.349 155.479 495.893 147.049 494.113 138.429C492.333 129.81 483.908 124.266 475.283 126.045L464.268 128.319C455.648 130.099 450.104 138.529 451.884 147.149C453.439 154.68 460.073 159.865 467.474 159.865Z" fill="white"/>
<path d="M304.234 98.7761C306.934 100.551 309.971 101.399 312.977 101.399C318.161 101.399 323.246 98.8733 326.306 94.2183L355.97 49.1171C360.806 41.7641 358.765 31.8821 351.412 27.0454C344.057 22.2072 334.175 24.2502 329.34 31.6032L299.677 76.7044C294.84 84.0574 296.881 93.9394 304.234 98.7761Z" fill="white"/>
</g>
<defs>
<clipPath id="clip0_412_2">
<rect width="800" height="800" fill="white"/>
</clipPath>
</defs>
</svg>
