<svg width="618" height="303" viewBox="0 0 618 303" fill="none" xmlns="http://www.w3.org/2000/svg">
<line x1="396" y1="25" x2="589" y2="25" stroke="white" stroke-opacity="0.4" stroke-dasharray="8 8"/>
<line x1="396" y1="43" x2="589" y2="43" stroke="white" stroke-opacity="0.4" stroke-dasharray="8 8"/>
<path d="M396 61.5H589" stroke="white"/>
<path d="M396 79.5H589" stroke="white"/>
<path d="M396 97.5H589" stroke="white"/>
<path d="M396 115.5H589" stroke="white"/>
<path d="M396 133.5H589" stroke="white"/>
<line x1="396" y1="151" x2="589" y2="151" stroke="white" stroke-opacity="0.4" stroke-dasharray="8 8"/>
<path d="M396 169.5H589" stroke="white"/>
<path d="M396 187.5H589" stroke="white"/>
<path d="M396 205.5H589" stroke="white"/>
<path d="M396 223.5H589" stroke="white"/>
<path d="M396 241.5H589" stroke="white"/>
<line x1="396" y1="259" x2="589" y2="259" stroke="white" stroke-opacity="0.4" stroke-dasharray="8 8"/>
<line x1="396" y1="277" x2="589" y2="277" stroke="white" stroke-opacity="0.4" stroke-dasharray="8 8"/>
<line y1="25" x2="382" y2="25" stroke="white" stroke-opacity="0.4" stroke-dasharray="8 8"/>
<line y1="43" x2="382" y2="43" stroke="white" stroke-opacity="0.4" stroke-dasharray="8 8"/>
<path d="M0 61.5H382" stroke="white"/>
<path d="M0 79.5H382" stroke="white"/>
<path d="M0 97.5H382" stroke="white"/>
<path d="M0 115.5H382" stroke="white"/>
<path d="M0 133.5H382" stroke="white"/>
<line x1="4.2447e-08" y1="151" x2="382" y2="151" stroke="white" stroke-opacity="0.4" stroke-dasharray="8 8"/>
<path d="M0 169.5H382" stroke="white"/>
<path d="M0 187.5H382" stroke="white"/>
<path d="M0 205.5H382" stroke="white"/>
<path d="M0 223.5H382" stroke="white"/>
<path d="M0 241.5H382" stroke="white"/>
<line x1="4.2447e-08" y1="259" x2="382" y2="259" stroke="white" stroke-opacity="0.4" stroke-dasharray="8 8"/>
<line x1="4.2447e-08" y1="277" x2="382" y2="277" stroke="white" stroke-opacity="0.4" stroke-dasharray="8 8"/>
<path d="M28.6631 96.9376C26.8783 97.5422 25.4034 98.5625 24.2381 99.9993C23.0727 101.435 22.3626 103.004 22.1077 104.705C21.8527 106.406 22.0622 108.088 22.7359 109.751C23.4096 111.414 24.6751 112.756 26.5323 113.777C26.9693 113.777 27.2423 113.966 27.3519 114.344C27.4608 114.721 27.2968 114.91 26.8604 114.91C25.0757 114.533 23.5097 113.758 22.1623 112.586C19.6495 110.431 18.2657 107.654 18.0108 104.252C17.8651 102.551 18.0199 100.907 18.4751 99.3188C18.9303 97.7311 19.5585 96.2758 20.3597 94.9528C21.3429 93.5547 22.5082 92.3448 23.8557 91.3245C23.9285 91.2487 24.1379 91.0791 24.4839 90.8144C24.8298 90.5496 25.1667 90.3042 25.4945 90.0774C25.8222 89.8506 26.3138 89.4914 26.9693 88.9998L24.9482 78.9077C23.1637 80.4574 21.3976 82.1675 19.6496 84.0385C17.9015 85.9096 16.3174 87.8851 14.8971 89.9636C13.4769 92.0429 12.3388 94.2445 11.483 96.5691C10.6272 98.8938 10.1993 101.341 10.1993 103.912C10.1993 106.293 10.6818 108.532 11.6469 110.63C12.6119 112.728 13.8957 114.552 15.498 116.101C17.1003 117.651 18.9485 118.87 21.0425 119.759C23.1364 120.647 25.2577 121.091 27.4064 121.091C27.4794 121.091 27.8159 121.053 28.417 120.977C29.0181 120.902 29.655 120.808 30.3285 120.694C31.0027 120.581 31.6218 120.458 32.1864 120.325C32.7502 120.193 33.0329 120.051 33.0329 119.9L32.7048 118.313C31.2847 110.866 29.937 103.741 28.6631 96.9376V96.9376ZM30.5746 96.7108L35.0541 119.22C37.6398 118.199 39.3873 116.451 40.298 113.975C41.2086 111.5 41.4175 108.986 40.926 106.435C40.4345 103.883 39.2784 101.624 37.4572 99.6587C35.6366 97.6932 33.3424 96.7108 30.5746 96.7108V96.7108ZM24.8389 66.3778C25.9677 65.7725 27.0148 64.8659 27.9799 63.656C28.945 62.4468 29.837 61.1517 30.6567 59.7722C31.4756 58.3928 32.1864 56.9846 32.7868 55.5479C33.3879 54.1119 33.8704 52.8082 34.2344 51.6363C34.6349 50.3891 34.9079 48.9903 35.0541 47.4405C35.1995 45.8908 34.9631 44.5871 34.344 43.5282C33.907 42.5837 33.3334 42.0356 32.6234 41.8839C31.9127 41.733 31.2026 41.7895 30.4926 42.0542C29.7826 42.319 29.1091 42.744 28.4714 43.33C27.8345 43.916 27.3698 44.4354 27.0789 44.8891C26.2772 46.363 25.5761 48.0072 24.9755 49.8217C24.3746 51.6363 23.9649 53.5166 23.7465 55.4635C23.5279 57.4096 23.5006 59.2807 23.6645 61.0766C23.8284 62.8718 24.2198 64.6391 24.8389 66.3778V66.3778ZM23.2002 68.135C22.5811 65.6408 22.0349 63.1931 21.5614 60.7925C21.088 58.3928 20.8513 55.9264 20.8513 53.3935C20.8513 51.5418 20.9788 49.5098 21.2337 47.2989C21.4885 45.088 21.9529 42.9329 22.6266 40.835C23.3003 38.7372 24.2289 36.8568 25.4125 35.194C26.5964 33.5304 28.1709 32.3212 30.1376 31.565C30.3196 31.4898 30.5016 31.4519 30.6836 31.4519C30.9386 31.4519 31.2392 31.6029 31.5852 31.9055C31.9313 32.2075 32.2953 32.6518 32.6779 33.2378C33.0598 33.8238 33.3969 34.4284 33.6885 35.0523C33.9794 35.6755 34.1979 36.1012 34.344 36.3281C35.3271 38.2556 36.046 40.3063 36.5017 42.4792C36.9567 44.6529 37.2207 46.8166 37.2938 48.971C37.4392 52.2223 37.2662 55.4349 36.7747 58.6103C36.2832 61.785 35.2905 64.8845 33.7974 67.9082C33.2879 68.8155 32.7689 69.732 32.2408 70.6579C31.7128 71.5845 31.0848 72.4817 30.3561 73.3511C30.2107 73.5027 29.9466 73.7768 29.5641 74.1732C29.1815 74.5703 28.7899 74.9767 28.3894 75.3924C27.9889 75.8081 27.6339 76.1959 27.3243 76.5544C27.0148 76.9136 26.8604 77.1311 26.8604 77.2069L29.0994 88.5462C29.1139 88.6206 30.2196 88.5462 30.2196 88.5462C32.3566 88.5741 34.6191 88.9333 36.5837 89.7368C38.4774 90.6441 40.107 91.8912 41.4726 93.4789C42.8383 95.0666 43.9302 96.8525 44.7498 98.8366C45.5695 100.821 45.9789 102.834 45.9789 104.875C45.9789 106.916 45.6874 108.995 45.1048 111.112C43.6117 115.119 41.2265 118.086 37.9494 120.013C37.5847 120.24 37.0656 120.496 36.3921 120.779C35.7186 121.062 35.4546 121.507 35.6 122.111C36.4741 126.23 37.0656 129.063 37.3758 130.616C37.6853 132.168 37.9128 134.172 38.0583 136.626C38.2037 138.973 37.8122 141.083 36.8836 142.972C35.9551 144.868 34.708 146.407 33.1418 147.595C31.5763 148.789 30.1466 149.483 28.854 149.698C27.5608 149.906 26.6777 150.006 26.2048 150.006C24.5658 150.006 22.9635 149.684 21.3976 149.04C19.4674 148.289 17.8469 147.137 16.5359 145.584C15.2249 144.031 14.5694 142.142 14.5694 139.917C14.5694 138.515 14.9609 137.077 15.7438 135.603C16.5268 134.129 17.5556 133.07 18.8301 132.433C20.2504 131.675 21.5341 131.467 22.6813 131.803C23.8284 132.147 24.7752 132.791 25.5218 133.735C26.2683 134.68 26.7873 135.825 27.0789 137.163C27.3698 138.508 27.3519 139.76 27.0238 140.933C26.6963 142.107 26.0318 143.101 25.0302 143.91C24.0287 144.725 22.6357 145.09 20.8513 145.019C21.5796 146.378 22.5993 147.237 23.9103 147.595C25.2213 147.959 26.5688 147.981 27.9523 147.68C29.3366 147.38 30.6381 146.822 31.8582 146.006C33.0784 145.198 34.0345 144.318 34.7259 143.373C35.163 142.693 35.4911 141.806 35.7096 140.711C35.9282 139.61 36.0557 138.472 36.0915 137.277C36.1281 136.089 36.0915 135.159 35.9826 134.501C35.873 133.835 35.691 132.805 35.436 131.41C34.344 126.838 33.6519 123.961 33.3603 122.788C33.2149 122.414 32.8233 122.291 32.1864 122.423C31.5487 122.556 31.0117 122.679 30.5746 122.788C27.4429 123.21 24.8207 123.017 22.7086 122.225C19.431 121.318 16.545 119.701 14.0504 117.377C11.5559 115.053 9.55294 112.237 8.0416 108.929C6.53033 105.622 5.77466 103.108 5.77466 101.388C5.77466 99.6687 5.77466 98.5819 5.77466 98.1282C5.77466 95.0666 6.2845 92.1938 7.3042 89.51C9.23425 85.3143 11.5195 81.4591 14.1597 77.9439C16.7999 74.4286 19.8134 71.1588 23.2002 68.135V68.135Z" fill="white"/>
<path d="M49.0027 194.808C49.0027 197.22 47.3915 199.175 45.4038 199.175C43.4162 199.175 41.8049 197.22 41.8049 194.808C41.8049 192.396 43.4162 190.441 45.4038 190.441C47.3915 190.441 49.0027 192.396 49.0027 194.808ZM48.7543 180.042C48.7543 182.454 47.143 184.409 45.1553 184.409C43.1677 184.409 41.5564 182.454 41.5564 180.042C41.5564 177.63 43.1677 175.675 45.1553 175.675C47.143 175.675 48.7543 177.63 48.7543 180.042ZM6.36816 225.885C6.36816 225.261 8.96001 222.695 12.1278 220.182C18.9386 214.778 23.8572 208.867 26.7181 202.646C33.2787 188.379 31.2005 173.504 22.4568 172.146C17.6208 171.394 11.498 175.482 11.498 179.461C11.498 180.938 11.8241 181.057 15.3695 180.873C19.7073 180.649 22.6421 185.54 20.2946 189.082C16.5854 194.678 7.65063 191.463 7.65063 184.532C7.65063 178.458 10.8419 173.623 16.4586 171.189C28.4786 165.98 39.9203 175.583 38.9184 190.04C38.0973 201.89 29.1905 212.956 11.8995 223.611C7.79678 226.139 6.36816 226.726 6.36816 225.885V225.885Z" fill="white"/>
<g clip-path="url(#clip0_115_2487)">
<path d="M211.396 30.1209C209.333 26.8443 211.544 22.1342 216.26 19.6085C220.977 17.0828 226.504 17.5606 228.568 20.8372C230.631 24.1138 228.42 28.8239 223.704 31.4179C218.987 33.9436 213.46 33.3975 211.396 30.1209Z" fill="white"/>
<path d="M235.116 21.1209C233.052 17.8443 235.263 13.1342 239.98 10.6085C244.696 8.08276 250.223 8.56061 252.287 11.8372C254.35 15.1138 252.14 19.8239 247.423 22.4179C242.706 24.9436 237.179 24.3975 235.116 21.1209V21.1209Z" fill="white"/>
<path d="M258.835 12.1209C256.772 8.84432 258.983 4.1342 263.699 1.60848C268.416 -0.917236 273.943 -0.439393 276.006 2.83721C278.07 6.11381 275.859 10.8239 271.142 13.4179C266.426 15.9436 260.899 15.3975 258.835 12.1209V12.1209Z" fill="white"/>
<path d="M211.396 93.1209C209.333 89.8443 211.544 85.1342 216.26 82.6085C220.977 80.0828 226.504 80.5606 228.568 83.8372C230.631 87.1138 228.42 91.8239 223.704 94.4179C218.987 96.9436 213.46 96.3975 211.396 93.1209Z" fill="white"/>
<path d="M235.116 84.1209C233.052 80.8443 235.263 76.1342 239.98 73.6085C244.696 71.0828 250.223 71.5606 252.287 74.8372C254.35 78.1138 252.14 82.8239 247.423 85.4179C242.706 87.9436 237.179 87.3975 235.116 84.1209V84.1209Z" fill="white"/>
<path d="M258.835 75.1209C256.772 71.8443 258.983 67.1342 263.699 64.6085C268.416 62.0828 273.943 62.5606 276.006 65.8372C278.07 69.1138 275.859 73.8239 271.142 76.4179C266.426 78.9436 260.899 78.3975 258.835 75.1209V75.1209Z" fill="white"/>
<path d="M282.555 66.1209C280.491 62.8443 282.702 58.1342 287.419 55.6085C292.135 53.0828 297.662 53.5606 299.726 56.8372C301.789 60.1138 299.579 64.8239 294.862 67.4179C290.145 69.9436 284.618 69.3975 282.555 66.1209V66.1209Z" fill="white"/>
<path d="M306.274 57.1209C304.211 53.8443 306.421 49.1342 311.138 46.6085C315.855 44.0828 321.382 44.5606 323.445 47.8372C325.509 51.1138 323.298 55.8239 318.581 58.4179C313.865 60.9436 308.338 60.3975 306.274 57.1209V57.1209Z" fill="white"/>
<path d="M329.994 48.1209C327.93 44.8443 330.141 40.1342 334.858 37.6085C339.574 35.0828 345.101 35.5606 347.165 38.8372C349.228 42.1138 347.018 46.8239 342.301 49.4179C337.584 51.9436 332.057 51.3975 329.994 48.1209V48.1209Z" fill="white"/>
<path d="M353.713 39.1209C351.65 35.8443 353.86 31.1342 358.577 28.6085C363.294 26.0828 368.821 26.5606 370.884 29.8372C372.948 33.1138 370.737 37.8239 366.02 40.4179C361.304 42.9436 355.777 42.3975 353.713 39.1209V39.1209Z" fill="white"/>
<path d="M211.396 156.121C209.333 152.844 211.544 148.134 216.26 145.608C220.977 143.083 226.504 143.561 228.568 146.837C230.631 150.114 228.42 154.824 223.704 157.418C218.987 159.944 213.46 159.398 211.396 156.121Z" fill="white"/>
<path d="M235.116 147.121C233.052 143.844 235.263 139.134 239.98 136.608C244.696 134.083 250.223 134.561 252.287 137.837C254.35 141.114 252.14 145.824 247.423 148.418C242.706 150.944 237.179 150.398 235.116 147.121V147.121Z" fill="white"/>
<path d="M258.835 138.121C256.772 134.844 258.983 130.134 263.699 127.608C268.416 125.083 273.943 125.561 276.006 128.837C278.07 132.114 275.859 136.824 271.142 139.418C266.426 141.944 260.899 141.398 258.835 138.121V138.121Z" fill="white"/>
<path d="M282.555 129.121C280.491 125.844 282.702 121.134 287.419 118.608C292.135 116.083 297.662 116.561 299.726 119.837C301.789 123.114 299.579 127.824 294.862 130.418C290.145 132.944 284.618 132.398 282.555 129.121V129.121Z" fill="white"/>
<path d="M306.274 120.121C304.211 116.844 306.421 112.134 311.138 109.608C315.855 107.083 321.382 107.561 323.445 110.837C325.509 114.114 323.298 118.824 318.581 121.418C313.865 123.944 308.338 123.398 306.274 120.121V120.121Z" fill="white"/>
<path d="M329.994 111.121C327.93 107.844 330.141 103.134 334.858 100.608C339.574 98.0828 345.101 98.5606 347.165 101.837C349.228 105.114 347.018 109.824 342.301 112.418C337.584 114.944 332.057 114.398 329.994 111.121V111.121Z" fill="white"/>
<path d="M353.713 102.121C351.65 98.8443 353.86 94.1342 358.577 91.6085C363.294 89.0828 368.821 89.5606 370.884 92.8372C372.948 96.1138 370.737 100.824 366.02 103.418C361.304 105.944 355.777 105.398 353.713 102.121V102.121Z" fill="white"/>
<path d="M211.396 219.121C209.333 215.844 211.544 211.134 216.26 208.608C220.977 206.083 226.504 206.561 228.568 209.837C230.631 213.114 228.42 217.824 223.704 220.418C218.987 222.944 213.46 222.398 211.396 219.121Z" fill="white"/>
<path d="M235.116 210.121C233.052 206.844 235.263 202.134 239.98 199.608C244.696 197.083 250.223 197.561 252.287 200.837C254.35 204.114 252.14 208.824 247.423 211.418C242.706 213.944 237.179 213.398 235.116 210.121V210.121Z" fill="white"/>
<path d="M258.835 201.121C256.772 197.844 258.983 193.134 263.699 190.608C268.416 188.083 273.943 188.561 276.006 191.837C278.07 195.114 275.859 199.824 271.142 202.418C266.426 204.944 260.899 204.398 258.835 201.121V201.121Z" fill="white"/>
<path d="M282.555 192.121C280.491 188.844 282.702 184.134 287.419 181.608C292.135 179.083 297.662 179.561 299.726 182.837C301.789 186.114 299.579 190.824 294.862 193.418C290.145 195.944 284.618 195.398 282.555 192.121V192.121Z" fill="white"/>
<path d="M306.274 183.121C304.211 179.844 306.421 175.134 311.138 172.608C315.855 170.083 321.382 170.561 323.445 173.837C325.509 177.114 323.298 181.824 318.581 184.418C313.865 186.944 308.338 186.398 306.274 183.121V183.121Z" fill="white"/>
<path d="M329.994 174.121C327.93 170.844 330.141 166.134 334.858 163.608C339.574 161.083 345.101 161.561 347.165 164.837C349.228 168.114 347.018 172.824 342.301 175.418C337.584 177.944 332.057 177.398 329.994 174.121V174.121Z" fill="white"/>
<path d="M353.713 165.121C351.65 161.844 353.86 157.134 358.577 154.608C363.294 152.083 368.821 152.561 370.884 155.837C372.948 159.114 370.737 163.824 366.02 166.418C361.304 168.944 355.777 168.398 353.713 165.121V165.121Z" fill="white"/>
<path d="M211.396 282.121C209.333 278.844 211.544 274.134 216.26 271.608C220.977 269.083 226.504 269.561 228.568 272.837C230.631 276.114 228.42 280.824 223.704 283.418C218.987 285.944 213.46 285.398 211.396 282.121Z" fill="white"/>
<path d="M235.116 273.121C233.052 269.844 235.263 265.134 239.98 262.608C244.696 260.083 250.223 260.561 252.287 263.837C254.35 267.114 252.14 271.824 247.423 274.418C242.706 276.944 237.179 276.398 235.116 273.121V273.121Z" fill="white"/>
<path d="M258.835 264.121C256.772 260.844 258.983 256.134 263.699 253.608C268.416 251.083 273.943 251.561 276.006 254.837C278.07 258.114 275.859 262.824 271.142 265.418C266.426 267.944 260.899 267.398 258.835 264.121V264.121Z" fill="white"/>
<path d="M282.555 255.121C280.491 251.844 282.702 247.134 287.419 244.608C292.135 242.083 297.662 242.561 299.726 245.837C301.789 249.114 299.579 253.824 294.862 256.418C290.145 258.944 284.618 258.398 282.555 255.121V255.121Z" fill="white"/>
<path d="M306.274 246.121C304.211 242.844 306.421 238.134 311.138 235.608C315.855 233.083 321.382 233.561 323.445 236.837C325.509 240.114 323.298 244.824 318.581 247.418C313.865 249.944 308.338 249.398 306.274 246.121V246.121Z" fill="white"/>
<path d="M329.994 237.121C327.93 233.844 330.141 229.134 334.858 226.608C339.574 224.083 345.101 224.561 347.165 227.837C349.228 231.114 347.018 235.824 342.301 238.418C337.584 240.944 332.057 240.398 329.994 237.121V237.121Z" fill="white"/>
<path d="M353.713 228.121C351.65 224.844 353.86 220.134 358.577 217.608C363.294 215.083 368.821 215.561 370.884 218.837C372.948 222.114 370.737 226.824 366.02 229.418C361.304 231.944 355.777 231.398 353.713 228.121V228.121Z" fill="white"/>
<path d="M329.991 300.121C327.928 296.844 330.139 292.134 334.855 289.608C339.572 287.083 345.099 287.561 347.163 290.837C349.226 294.114 347.015 298.824 342.299 301.418C337.582 303.944 332.055 303.398 329.991 300.121V300.121Z" fill="white"/>
<path d="M353.711 291.121C351.647 287.844 353.858 283.134 358.575 280.608C363.292 278.083 368.819 278.561 370.882 281.837C372.946 285.114 370.735 289.824 366.018 292.418C361.302 294.944 355.774 294.398 353.711 291.121V291.121Z" fill="white"/>
</g>
<path d="M411.774 281.121C409.711 277.844 411.921 273.134 416.638 270.608C421.355 268.083 426.882 268.561 428.945 271.837C431.009 275.114 428.798 279.824 424.081 282.418C419.365 284.944 413.838 284.398 411.774 281.121Z" fill="white"/>
<path d="M435.494 272.121C433.43 268.844 435.641 264.134 440.358 261.608C445.074 259.083 450.601 259.561 452.665 262.837C454.728 266.114 452.518 270.824 447.801 273.418C443.084 275.944 437.557 275.398 435.494 272.121V272.121Z" fill="white"/>
<path d="M459.213 263.121C457.15 259.844 459.36 255.134 464.077 252.608C468.794 250.083 474.321 250.561 476.384 253.837C478.448 257.114 476.237 261.824 471.52 264.418C466.804 266.944 461.277 266.398 459.213 263.121V263.121Z" fill="white"/>
<path d="M482.933 254.121C480.869 250.844 483.08 246.134 487.797 243.608C492.513 241.083 498.04 241.561 500.104 244.837C502.167 248.114 499.956 252.824 495.24 255.418C490.523 257.944 484.996 257.398 482.933 254.121V254.121Z" fill="white"/>
<path d="M506.652 245.121C504.589 241.844 506.799 237.134 511.516 234.608C516.233 232.083 521.76 232.561 523.823 235.837C525.887 239.114 523.676 243.824 518.959 246.418C514.243 248.944 508.716 248.398 506.652 245.121V245.121Z" fill="white"/>
<path d="M530.371 236.121C528.308 232.844 530.519 228.134 535.235 225.608C539.952 223.083 545.479 223.561 547.543 226.837C549.606 230.114 547.395 234.824 542.679 237.418C537.962 239.944 532.435 239.398 530.371 236.121V236.121Z" fill="white"/>
<path d="M554.091 227.121C552.027 223.844 554.238 219.134 558.955 216.608C563.672 214.083 569.199 214.561 571.262 217.837C573.326 221.114 571.115 225.824 566.398 228.418C561.682 230.944 556.154 230.398 554.091 227.121V227.121Z" fill="white"/>
<path d="M411.774 219.121C409.711 215.844 411.921 211.134 416.638 208.608C421.355 206.083 426.882 206.561 428.945 209.837C431.009 213.114 428.798 217.824 424.081 220.418C419.365 222.944 413.838 222.398 411.774 219.121Z" fill="white"/>
<path d="M435.494 210.121C433.43 206.844 435.641 202.134 440.358 199.608C445.074 197.083 450.601 197.561 452.665 200.837C454.728 204.114 452.518 208.824 447.801 211.418C443.084 213.944 437.557 213.398 435.494 210.121V210.121Z" fill="white"/>
<path d="M459.213 201.121C457.15 197.844 459.36 193.134 464.077 190.608C468.794 188.083 474.321 188.561 476.384 191.837C478.448 195.114 476.237 199.824 471.52 202.418C466.804 204.944 461.277 204.398 459.213 201.121V201.121Z" fill="white"/>
<path d="M482.933 192.121C480.869 188.844 483.08 184.134 487.797 181.608C492.513 179.083 498.04 179.561 500.104 182.837C502.167 186.114 499.956 190.824 495.24 193.418C490.523 195.944 484.996 195.398 482.933 192.121V192.121Z" fill="white"/>
<path d="M506.652 183.121C504.589 179.844 506.799 175.134 511.516 172.608C516.233 170.083 521.76 170.561 523.823 173.837C525.887 177.114 523.676 181.824 518.959 184.418C514.243 186.944 508.716 186.398 506.652 183.121V183.121Z" fill="white"/>
<path d="M530.371 174.121C528.308 170.844 530.519 166.134 535.235 163.608C539.952 161.083 545.479 161.561 547.543 164.837C549.606 168.114 547.395 172.824 542.679 175.418C537.962 177.944 532.435 177.398 530.371 174.121V174.121Z" fill="white"/>
<path d="M554.091 165.121C552.027 161.844 554.238 157.134 558.955 154.608C563.672 152.083 569.199 152.561 571.262 155.837C573.326 159.114 571.115 163.824 566.398 166.418C561.682 168.944 556.154 168.398 554.091 165.121V165.121Z" fill="white"/>
<path d="M411.774 156.121C409.711 152.844 411.921 148.134 416.638 145.608C421.355 143.083 426.882 143.561 428.945 146.837C431.009 150.114 428.798 154.824 424.081 157.418C419.365 159.944 413.838 159.398 411.774 156.121Z" fill="white"/>
<path d="M435.494 147.121C433.43 143.844 435.641 139.134 440.358 136.608C445.074 134.083 450.601 134.561 452.665 137.837C454.728 141.114 452.518 145.824 447.801 148.418C443.084 150.944 437.557 150.398 435.494 147.121V147.121Z" fill="white"/>
<path d="M459.213 138.121C457.15 134.844 459.36 130.134 464.077 127.608C468.794 125.083 474.321 125.561 476.384 128.837C478.448 132.114 476.237 136.824 471.52 139.418C466.804 141.944 461.277 141.398 459.213 138.121V138.121Z" fill="white"/>
<path d="M482.933 129.121C480.869 125.844 483.08 121.134 487.797 118.608C492.513 116.083 498.04 116.561 500.104 119.837C502.167 123.114 499.956 127.824 495.24 130.418C490.523 132.944 484.996 132.398 482.933 129.121V129.121Z" fill="white"/>
<path d="M506.652 120.121C504.589 116.844 506.799 112.134 511.516 109.608C516.233 107.083 521.76 107.561 523.823 110.837C525.887 114.114 523.676 118.824 518.959 121.418C514.243 123.944 508.716 123.398 506.652 120.121V120.121Z" fill="white"/>
<path d="M530.371 111.121C528.308 107.844 530.519 103.134 535.235 100.608C539.952 98.0828 545.479 98.5606 547.543 101.837C549.606 105.114 547.395 109.824 542.679 112.418C537.962 114.944 532.435 114.398 530.371 111.121V111.121Z" fill="white"/>
<path d="M554.091 102.121C552.027 98.8443 554.238 94.1342 558.955 91.6085C563.672 89.0828 569.199 89.5606 571.262 92.8372C573.326 96.1138 571.115 100.824 566.398 103.418C561.682 105.944 556.154 105.398 554.091 102.121V102.121Z" fill="white"/>
<path d="M411.774 93.1209C409.711 89.8443 411.921 85.1342 416.638 82.6085C421.355 80.0828 426.882 80.5606 428.945 83.8372C431.009 87.1138 428.798 91.8239 424.081 94.4179C419.365 96.9436 413.838 96.3975 411.774 93.1209Z" fill="white"/>
<path d="M435.494 84.1209C433.43 80.8443 435.641 76.1342 440.358 73.6085C445.074 71.0828 450.601 71.5606 452.665 74.8372C454.728 78.1138 452.518 82.8239 447.801 85.4179C443.084 87.9436 437.557 87.3975 435.494 84.1209V84.1209Z" fill="white"/>
<path d="M459.213 75.1209C457.15 71.8443 459.36 67.1342 464.077 64.6085C468.794 62.0828 474.321 62.5606 476.384 65.8372C478.448 69.1138 476.237 73.8239 471.52 76.4179C466.804 78.9436 461.277 78.3975 459.213 75.1209V75.1209Z" fill="white"/>
<path d="M482.933 66.1209C480.869 62.8443 483.08 58.1342 487.797 55.6085C492.513 53.0828 498.04 53.5606 500.104 56.8372C502.167 60.1138 499.956 64.8239 495.24 67.4179C490.523 69.9436 484.996 69.3975 482.933 66.1209V66.1209Z" fill="white"/>
<path d="M506.652 57.1209C504.589 53.8443 506.799 49.1342 511.516 46.6085C516.233 44.0828 521.76 44.5606 523.823 47.8372C525.887 51.1138 523.676 55.8239 518.959 58.4179C514.243 60.9436 508.716 60.3975 506.652 57.1209V57.1209Z" fill="white"/>
<path d="M530.371 48.1209C528.308 44.8443 530.519 40.1342 535.235 37.6085C539.952 35.0828 545.479 35.5606 547.543 38.8372C549.606 42.1138 547.395 46.8239 542.679 49.4179C537.962 51.9436 532.435 51.3975 530.371 48.1209V48.1209Z" fill="white"/>
<path d="M554.091 39.1209C552.027 35.8443 554.238 31.1342 558.955 28.6085C563.672 26.0828 569.199 26.5606 571.262 29.8372C573.326 33.1138 571.115 37.8239 566.398 40.4179C561.682 42.9436 556.154 42.3975 554.091 39.1209V39.1209Z" fill="white"/>
<defs>
<clipPath id="clip0_115_2487">
<rect width="174" height="284" fill="white" transform="translate(208 10)"/>
</clipPath>
</defs>
</svg>
