<svg width="411" height="303" viewBox="0 0 411 303" fill="none" xmlns="http://www.w3.org/2000/svg">
<line y1="25" x2="387" y2="25" stroke="white" stroke-opacity="0.4" stroke-dasharray="8 8"/>
<line y1="43" x2="387" y2="43" stroke="white" stroke-opacity="0.4" stroke-dasharray="8 8"/>
<path d="M0 61.5H387" stroke="white"/>
<path d="M0 79.5H387" stroke="white"/>
<path d="M0 97.5H387" stroke="white"/>
<path d="M0 115.5H387" stroke="white"/>
<path d="M0 133.5H387" stroke="white"/>
<line x1="4.2447e-08" y1="151" x2="387" y2="151" stroke="white" stroke-opacity="0.4" stroke-dasharray="8 8"/>
<path d="M0 169.5H387" stroke="white"/>
<path d="M0 187.5H387" stroke="white"/>
<path d="M0 205.5H387" stroke="white"/>
<path d="M0 223.5H387" stroke="white"/>
<path d="M0 241.5H387" stroke="white"/>
<line x1="4.2447e-08" y1="259" x2="387" y2="259" stroke="white" stroke-opacity="0.4" stroke-dasharray="8 8"/>
<line x1="4.2447e-08" y1="277" x2="387" y2="277" stroke="white" stroke-opacity="0.4" stroke-dasharray="8 8"/>
<path d="M28.6631 96.9376C26.8783 97.5422 25.4034 98.5625 24.2381 99.9993C23.0727 101.435 22.3626 103.004 22.1077 104.705C21.8527 106.406 22.0622 108.088 22.7359 109.751C23.4096 111.414 24.6751 112.756 26.5323 113.777C26.9693 113.777 27.2423 113.966 27.3519 114.344C27.4608 114.721 27.2968 114.91 26.8604 114.91C25.0757 114.533 23.5097 113.758 22.1623 112.586C19.6495 110.431 18.2657 107.654 18.0108 104.252C17.8651 102.551 18.0199 100.907 18.4751 99.3188C18.9303 97.7311 19.5585 96.2758 20.3597 94.9528C21.3429 93.5547 22.5083 92.3448 23.8557 91.3245C23.9285 91.2487 24.138 91.0791 24.4839 90.8144C24.8299 90.5496 25.1667 90.3042 25.4945 90.0774C25.8223 89.8506 26.3138 89.4914 26.9693 88.9998L24.9482 78.9077C23.1638 80.4574 21.3976 82.1675 19.6496 84.0385C17.9015 85.9096 16.3174 87.8851 14.8971 89.9636C13.4769 92.0429 12.3388 94.2445 11.483 96.5692C10.6272 98.8938 10.1994 101.341 10.1994 103.912C10.1994 106.293 10.6818 108.532 11.6469 110.63C12.612 112.728 13.8957 114.552 15.498 116.101C17.1003 117.651 18.9485 118.87 21.0425 119.759C23.1365 120.647 25.2577 121.091 27.4064 121.091C27.4795 121.091 27.8159 121.053 28.417 120.977C29.0181 120.902 29.6551 120.808 30.3286 120.694C31.0027 120.581 31.6218 120.458 32.1864 120.325C32.7503 120.193 33.0329 120.051 33.0329 119.9L32.7048 118.313C31.2847 110.866 29.937 103.741 28.6631 96.9376ZM30.5747 96.7108L35.0541 119.22C37.6399 118.199 39.3874 116.451 40.298 113.975C41.2086 111.5 41.4175 108.986 40.926 106.435C40.4345 103.883 39.2784 101.624 37.4572 99.6587C35.6366 97.6932 33.3424 96.7108 30.5747 96.7108ZM24.839 66.3778C25.9677 65.7725 27.0148 64.8659 27.9799 63.656C28.945 62.4468 29.8371 61.1517 30.6567 59.7722C31.4756 58.3928 32.1864 56.9846 32.7868 55.5479C33.3879 54.1119 33.8705 52.8082 34.2344 51.6363C34.635 50.3891 34.9079 48.9903 35.0541 47.4405C35.1995 45.8908 34.9631 44.5871 34.344 43.5282C33.907 42.5837 33.3335 42.0356 32.6234 41.8839C31.9127 41.733 31.2027 41.7895 30.4926 42.0542C29.7826 42.319 29.1091 42.744 28.4714 43.33C27.8345 43.916 27.3699 44.4354 27.0789 44.8891C26.2772 46.363 25.5762 48.0072 24.9755 49.8217C24.3746 51.6363 23.9649 53.5166 23.7465 55.4635C23.5279 57.4096 23.5007 59.2807 23.6645 61.0766C23.8284 62.8718 24.2199 64.6391 24.839 66.3778ZM23.2002 68.135C22.5811 65.6408 22.0349 63.1931 21.5614 60.7925C21.088 58.3928 20.8513 55.9264 20.8513 53.3935C20.8513 51.5418 20.9788 49.5098 21.2337 47.2989C21.4886 45.088 21.9529 42.9329 22.6266 40.835C23.3003 38.7372 24.229 36.8568 25.4125 35.194C26.5964 33.5304 28.1709 32.3212 30.1376 31.565C30.3196 31.4898 30.5016 31.4519 30.6836 31.4519C30.9386 31.4519 31.2392 31.6029 31.5853 31.9055C31.9313 32.2075 32.2953 32.6518 32.6779 33.2378C33.0598 33.8238 33.3969 34.4284 33.6885 35.0523C33.9794 35.6755 34.1979 36.1012 34.344 36.3281C35.3271 38.2556 36.0461 40.3063 36.5017 42.4792C36.9567 44.6529 37.2207 46.8166 37.2938 48.971C37.4392 52.2223 37.2662 55.4349 36.7747 58.6103C36.2832 61.785 35.2905 64.8845 33.7974 67.9082C33.288 68.8155 32.7689 69.732 32.2408 70.6579C31.7128 71.5845 31.0848 72.4817 30.3561 73.3511C30.2107 73.5028 29.9467 73.7768 29.5641 74.1732C29.1815 74.5703 28.7899 74.9767 28.3894 75.3924C27.9889 75.8081 27.6339 76.1959 27.3244 76.5544C27.0148 76.9136 26.8604 77.1311 26.8604 77.2069L29.0994 88.5462C29.1139 88.6206 30.2196 88.5462 30.2196 88.5462C32.3566 88.5741 34.6191 88.9333 36.5838 89.7368C38.4774 90.6441 40.107 91.8912 41.4727 93.4789C42.8383 95.0666 43.9302 96.8525 44.7498 98.8366C45.5695 100.821 45.979 102.834 45.979 104.875C45.979 106.916 45.6874 108.995 45.1049 111.112C43.6117 115.119 41.2266 118.086 37.9494 120.013C37.5847 120.24 37.0656 120.496 36.3921 120.779C35.7186 121.062 35.4546 121.507 35.6001 122.111C36.4742 126.23 37.0656 129.063 37.3758 130.616C37.6853 132.168 37.9128 134.172 38.0583 136.626C38.2037 138.973 37.8122 141.083 36.8836 142.972C35.9551 144.868 34.708 146.407 33.1418 147.595C31.5763 148.789 30.1466 149.483 28.854 149.698C27.5608 149.906 26.6777 150.006 26.2048 150.006C24.5658 150.006 22.9635 149.684 21.3976 149.04C19.4674 148.289 17.8469 147.137 16.5359 145.584C15.2249 144.031 14.5694 142.142 14.5694 139.917C14.5694 138.515 14.9609 137.077 15.7438 135.603C16.5268 134.129 17.5556 133.07 18.8301 132.433C20.2504 131.675 21.5341 131.467 22.6813 131.803C23.8284 132.147 24.7752 132.791 25.5218 133.735C26.2683 134.68 26.7874 135.825 27.0789 137.163C27.3699 138.508 27.3519 139.76 27.0238 140.933C26.6964 142.107 26.0318 143.101 25.0302 143.91C24.0287 144.725 22.6357 145.09 20.8513 145.019C21.5796 146.378 22.5993 147.237 23.9103 147.595C25.2213 147.959 26.5688 147.981 27.9524 147.68C29.3366 147.38 30.6381 146.822 31.8582 146.006C33.0784 145.198 34.0345 144.318 34.726 143.373C35.163 142.693 35.4911 141.806 35.7097 140.711C35.9282 139.61 36.0557 138.472 36.0916 137.277C36.1281 136.089 36.0916 135.159 35.9826 134.501C35.873 133.835 35.691 132.805 35.436 131.41C34.344 126.838 33.6519 123.961 33.3603 122.788C33.2149 122.414 32.8233 122.291 32.1864 122.423C31.5487 122.556 31.0117 122.679 30.5747 122.788C27.4429 123.21 24.8208 123.017 22.7086 122.225C19.431 121.318 16.545 119.701 14.0504 117.377C11.5559 115.053 9.55295 112.237 8.04161 108.929C6.53034 105.622 5.77467 103.108 5.77467 101.388C5.77467 99.6687 5.77467 98.5819 5.77467 98.1282C5.77467 95.0666 6.28452 92.1938 7.30421 89.51C9.23426 85.3143 11.5195 81.4591 14.1597 77.9439C16.7999 74.4286 19.8134 71.1588 23.2002 68.135Z" fill="white"/>
<path d="M49.0027 194.808C49.0027 197.22 47.3914 199.175 45.4038 199.175C43.4162 199.175 41.8049 197.22 41.8049 194.808C41.8049 192.396 43.4162 190.441 45.4038 190.441C47.3914 190.441 49.0027 192.396 49.0027 194.808ZM48.7543 180.042C48.7543 182.454 47.143 184.409 45.1553 184.409C43.1677 184.409 41.5564 182.454 41.5564 180.042C41.5564 177.63 43.1677 175.675 45.1553 175.675C47.143 175.675 48.7543 177.63 48.7543 180.042ZM6.36815 225.885C6.36815 225.261 8.95999 222.695 12.1278 220.182C18.9386 214.778 23.8572 208.867 26.7181 202.646C33.2787 188.379 31.2004 173.504 22.4568 172.146C17.6208 171.394 11.498 175.482 11.498 179.461C11.498 180.938 11.8241 181.057 15.3694 180.873C19.7073 180.649 22.6421 185.54 20.2946 189.082C16.5853 194.678 7.65062 191.463 7.65062 184.532C7.65062 178.458 10.8419 173.623 16.4586 171.189C28.4786 165.98 39.9203 175.583 38.9184 190.04C38.0973 201.89 29.1904 212.956 11.8995 223.611C7.79676 226.139 6.36815 226.726 6.36815 225.885Z" fill="white"/>
<g clip-path="url(#clip0_24_1680)">
<path d="M211.396 30.1209C209.333 26.8443 211.544 22.1342 216.26 19.6085C220.977 17.0828 226.504 17.5606 228.568 20.8372C230.631 24.1138 228.42 28.8239 223.704 31.4179C218.987 33.9436 213.46 33.3975 211.396 30.1209Z" fill="white"/>
<path d="M235.116 21.1209C233.052 17.8443 235.263 13.1342 239.98 10.6085C244.696 8.08276 250.223 8.56061 252.287 11.8372C254.35 15.1138 252.14 19.8239 247.423 22.4179C242.706 24.9436 237.179 24.3975 235.116 21.1209Z" fill="white"/>
<path d="M258.835 12.1209C256.772 8.84432 258.983 4.1342 263.699 1.60848C268.416 -0.917236 273.943 -0.439393 276.006 2.83721C278.07 6.11381 275.859 10.8239 271.142 13.4179C266.426 15.9436 260.899 15.3975 258.835 12.1209Z" fill="white"/>
<path d="M211.396 93.1209C209.333 89.8443 211.544 85.1342 216.26 82.6085C220.977 80.0828 226.504 80.5606 228.568 83.8372C230.631 87.1138 228.42 91.8239 223.704 94.4179C218.987 96.9436 213.46 96.3975 211.396 93.1209Z" fill="white"/>
<path d="M235.116 84.1209C233.052 80.8443 235.263 76.1342 239.98 73.6085C244.696 71.0828 250.223 71.5606 252.287 74.8372C254.35 78.1138 252.14 82.8239 247.423 85.4179C242.706 87.9436 237.179 87.3975 235.116 84.1209Z" fill="white"/>
<path d="M258.835 75.1209C256.772 71.8443 258.983 67.1342 263.699 64.6085C268.416 62.0828 273.943 62.5606 276.006 65.8372C278.07 69.1138 275.859 73.8239 271.142 76.4179C266.426 78.9436 260.899 78.3975 258.835 75.1209Z" fill="white"/>
<path d="M282.555 66.1209C280.491 62.8443 282.702 58.1342 287.419 55.6085C292.135 53.0828 297.662 53.5606 299.726 56.8372C301.789 60.1138 299.579 64.8239 294.862 67.4179C290.145 69.9436 284.618 69.3975 282.555 66.1209Z" fill="white"/>
<path d="M306.274 57.1209C304.211 53.8443 306.421 49.1342 311.138 46.6085C315.855 44.0828 321.382 44.5606 323.445 47.8372C325.509 51.1138 323.298 55.8239 318.581 58.4179C313.865 60.9436 308.338 60.3975 306.274 57.1209Z" fill="white"/>
<path d="M329.994 48.1209C327.93 44.8443 330.141 40.1342 334.858 37.6085C339.574 35.0828 345.101 35.5606 347.165 38.8372C349.228 42.1138 347.018 46.8239 342.301 49.4179C337.584 51.9436 332.057 51.3975 329.994 48.1209Z" fill="white"/>
<path d="M353.713 39.1209C351.65 35.8443 353.86 31.1342 358.577 28.6085C363.294 26.0828 368.821 26.5606 370.884 29.8372C372.948 33.1138 370.737 37.8239 366.02 40.4179C361.304 42.9436 355.777 42.3975 353.713 39.1209Z" fill="white"/>
<path d="M211.396 156.121C209.333 152.844 211.544 148.134 216.26 145.608C220.977 143.083 226.504 143.561 228.568 146.837C230.631 150.114 228.42 154.824 223.704 157.418C218.987 159.944 213.46 159.398 211.396 156.121Z" fill="white"/>
<path d="M235.116 147.121C233.052 143.844 235.263 139.134 239.98 136.608C244.696 134.083 250.223 134.561 252.287 137.837C254.35 141.114 252.14 145.824 247.423 148.418C242.706 150.944 237.179 150.398 235.116 147.121Z" fill="white"/>
<path d="M258.835 138.121C256.772 134.844 258.983 130.134 263.699 127.608C268.416 125.083 273.943 125.561 276.006 128.837C278.07 132.114 275.859 136.824 271.142 139.418C266.426 141.944 260.899 141.398 258.835 138.121Z" fill="white"/>
<path d="M282.555 129.121C280.491 125.844 282.702 121.134 287.419 118.608C292.135 116.083 297.662 116.561 299.726 119.837C301.789 123.114 299.579 127.824 294.862 130.418C290.145 132.944 284.618 132.398 282.555 129.121Z" fill="white"/>
<path d="M306.274 120.121C304.211 116.844 306.421 112.134 311.138 109.608C315.855 107.083 321.382 107.561 323.445 110.837C325.509 114.114 323.298 118.824 318.581 121.418C313.865 123.944 308.338 123.398 306.274 120.121Z" fill="white"/>
<path d="M329.994 111.121C327.93 107.844 330.141 103.134 334.858 100.608C339.574 98.0828 345.101 98.5606 347.165 101.837C349.228 105.114 347.018 109.824 342.301 112.418C337.584 114.944 332.057 114.398 329.994 111.121Z" fill="white"/>
<path d="M353.713 102.121C351.65 98.8443 353.86 94.1342 358.577 91.6085C363.294 89.0828 368.821 89.5606 370.884 92.8372C372.948 96.1138 370.737 100.824 366.02 103.418C361.304 105.944 355.777 105.398 353.713 102.121Z" fill="white"/>
<path d="M211.396 219.121C209.333 215.844 211.544 211.134 216.26 208.608C220.977 206.083 226.504 206.561 228.568 209.837C230.631 213.114 228.42 217.824 223.704 220.418C218.987 222.944 213.46 222.398 211.396 219.121Z" fill="white"/>
<path d="M235.116 210.121C233.052 206.844 235.263 202.134 239.98 199.608C244.696 197.083 250.223 197.561 252.287 200.837C254.35 204.114 252.14 208.824 247.423 211.418C242.706 213.944 237.179 213.398 235.116 210.121Z" fill="white"/>
<path d="M258.835 201.121C256.772 197.844 258.983 193.134 263.699 190.608C268.416 188.083 273.943 188.561 276.006 191.837C278.07 195.114 275.859 199.824 271.142 202.418C266.426 204.944 260.899 204.398 258.835 201.121Z" fill="white"/>
<path d="M282.555 192.121C280.491 188.844 282.702 184.134 287.419 181.608C292.135 179.083 297.662 179.561 299.726 182.837C301.789 186.114 299.579 190.824 294.862 193.418C290.145 195.944 284.618 195.398 282.555 192.121Z" fill="white"/>
<path d="M306.274 183.121C304.211 179.844 306.421 175.134 311.138 172.608C315.855 170.083 321.382 170.561 323.445 173.837C325.509 177.114 323.298 181.824 318.581 184.418C313.865 186.944 308.338 186.398 306.274 183.121Z" fill="white"/>
<path d="M329.994 174.121C327.93 170.844 330.141 166.134 334.858 163.608C339.574 161.083 345.101 161.561 347.165 164.837C349.228 168.114 347.018 172.824 342.301 175.418C337.584 177.944 332.057 177.398 329.994 174.121Z" fill="white"/>
<path d="M353.713 165.121C351.65 161.844 353.86 157.134 358.577 154.608C363.294 152.083 368.821 152.561 370.884 155.837C372.948 159.114 370.737 163.824 366.02 166.418C361.304 168.944 355.777 168.398 353.713 165.121Z" fill="white"/>
<path d="M211.396 282.121C209.333 278.844 211.544 274.134 216.26 271.608C220.977 269.083 226.504 269.561 228.568 272.837C230.631 276.114 228.42 280.824 223.704 283.418C218.987 285.944 213.46 285.398 211.396 282.121Z" fill="white"/>
<path d="M235.116 273.121C233.052 269.844 235.263 265.134 239.98 262.608C244.696 260.083 250.223 260.561 252.287 263.837C254.35 267.114 252.14 271.824 247.423 274.418C242.706 276.944 237.179 276.398 235.116 273.121Z" fill="white"/>
<path d="M258.835 264.121C256.772 260.844 258.983 256.134 263.699 253.608C268.416 251.083 273.943 251.561 276.006 254.837C278.07 258.114 275.859 262.824 271.142 265.418C266.426 267.944 260.899 267.398 258.835 264.121Z" fill="white"/>
<path d="M282.555 255.121C280.491 251.844 282.702 247.134 287.419 244.608C292.135 242.083 297.662 242.561 299.726 245.837C301.789 249.114 299.579 253.824 294.862 256.418C290.145 258.944 284.618 258.398 282.555 255.121Z" fill="white"/>
<path d="M306.274 246.121C304.211 242.844 306.421 238.134 311.138 235.608C315.855 233.083 321.382 233.561 323.445 236.837C325.509 240.114 323.298 244.824 318.581 247.418C313.865 249.944 308.338 249.398 306.274 246.121Z" fill="white"/>
<path d="M329.994 237.121C327.93 233.844 330.141 229.134 334.858 226.608C339.574 224.083 345.101 224.561 347.165 227.837C349.228 231.114 347.018 235.824 342.301 238.418C337.584 240.944 332.057 240.398 329.994 237.121Z" fill="white"/>
<path d="M353.713 228.121C351.65 224.844 353.86 220.134 358.577 217.608C363.294 215.083 368.821 215.561 370.884 218.837C372.948 222.114 370.737 226.824 366.02 229.418C361.304 231.944 355.777 231.398 353.713 228.121Z" fill="white"/>
<path d="M329.991 300.121C327.928 296.844 330.139 292.134 334.855 289.608C339.572 287.083 345.099 287.561 347.163 290.837C349.226 294.114 347.015 298.824 342.299 301.418C337.582 303.944 332.055 303.398 329.991 300.121Z" fill="white"/>
<path d="M353.711 291.121C351.647 287.844 353.858 283.134 358.575 280.608C363.292 278.083 368.819 278.561 370.882 281.837C372.946 285.114 370.735 289.824 366.018 292.418C361.302 294.944 355.774 294.398 353.711 291.121Z" fill="white"/>
</g>
<defs>
<clipPath id="clip0_24_1680">
<rect width="174" height="284" fill="white" transform="translate(208 10)"/>
</clipPath>
</defs>
</svg>
