<svg width="514" height="303" viewBox="0 0 514 303" fill="none" xmlns="http://www.w3.org/2000/svg">
<line y1="24.9999" x2="514" y2="24.9999" stroke="white" stroke-opacity="0.4" stroke-dasharray="8 8"/>
<line y1="42.9999" x2="514" y2="42.9999" stroke="white" stroke-opacity="0.4" stroke-dasharray="8 8"/>
<path d="M0 61.4999H514" stroke="white"/>
<path d="M0 79.4999H514" stroke="white"/>
<path d="M0 97.4999H514" stroke="white"/>
<path d="M0 115.5H514" stroke="white"/>
<path d="M0 133.5H514" stroke="white"/>
<line x1="4.2447e-08" y1="151" x2="514" y2="151" stroke="white" stroke-opacity="0.4" stroke-dasharray="8 8"/>
<path d="M0 169.5H514" stroke="white"/>
<path d="M0 187.5H514" stroke="white"/>
<path d="M0 205.5H514" stroke="white"/>
<path d="M0 223.5H514" stroke="white"/>
<path d="M0 241.5H514" stroke="white"/>
<line x1="4.2447e-08" y1="259" x2="514" y2="259" stroke="white" stroke-opacity="0.4" stroke-dasharray="8 8"/>
<line x1="4.2447e-08" y1="277" x2="514" y2="277" stroke="white" stroke-opacity="0.4" stroke-dasharray="8 8"/>
<path d="M28.6631 96.9376C26.8783 97.5422 25.4034 98.5625 24.2381 99.9993C23.0727 101.435 22.3626 103.004 22.1077 104.705C21.8527 106.406 22.0622 108.088 22.7359 109.751C23.4096 111.414 24.6751 112.756 26.5323 113.777C26.9693 113.777 27.2423 113.966 27.3519 114.344C27.4608 114.721 27.2968 114.91 26.8604 114.91C25.0757 114.533 23.5097 113.758 22.1623 112.586C19.6495 110.431 18.2657 107.654 18.0108 104.252C17.8651 102.551 18.0199 100.907 18.4751 99.3188C18.9303 97.7311 19.5585 96.2758 20.3597 94.9528C21.3429 93.5547 22.5083 92.3448 23.8557 91.3245C23.9285 91.2487 24.138 91.0791 24.4839 90.8144C24.8299 90.5496 25.1667 90.3042 25.4945 90.0774C25.8223 89.8506 26.3138 89.4914 26.9693 88.9998L24.9482 78.9077C23.1638 80.4574 21.3976 82.1675 19.6496 84.0385C17.9015 85.9096 16.3174 87.8851 14.8971 89.9636C13.4769 92.0429 12.3388 94.2445 11.483 96.5692C10.6272 98.8938 10.1994 101.341 10.1994 103.912C10.1994 106.293 10.6818 108.532 11.6469 110.63C12.612 112.728 13.8957 114.552 15.498 116.101C17.1003 117.651 18.9485 118.87 21.0425 119.759C23.1365 120.647 25.2577 121.091 27.4064 121.091C27.4795 121.091 27.8159 121.053 28.417 120.977C29.0181 120.902 29.6551 120.808 30.3286 120.694C31.0027 120.581 31.6218 120.458 32.1864 120.325C32.7503 120.193 33.0329 120.051 33.0329 119.9L32.7048 118.313C31.2847 110.866 29.937 103.741 28.6631 96.9376ZM30.5747 96.7108L35.0541 119.22C37.6399 118.199 39.3874 116.451 40.298 113.975C41.2086 111.5 41.4175 108.986 40.926 106.435C40.4345 103.883 39.2784 101.624 37.4572 99.6587C35.6366 97.6932 33.3424 96.7108 30.5747 96.7108ZM24.839 66.3778C25.9677 65.7725 27.0148 64.8659 27.9799 63.656C28.945 62.4468 29.8371 61.1517 30.6567 59.7722C31.4756 58.3928 32.1864 56.9846 32.7868 55.5479C33.3879 54.1119 33.8705 52.8082 34.2344 51.6363C34.635 50.3891 34.9079 48.9903 35.0541 47.4405C35.1995 45.8908 34.9631 44.5871 34.344 43.5282C33.907 42.5837 33.3335 42.0356 32.6234 41.8839C31.9127 41.733 31.2027 41.7895 30.4926 42.0542C29.7826 42.319 29.1091 42.744 28.4714 43.33C27.8345 43.916 27.3699 44.4354 27.0789 44.8891C26.2772 46.363 25.5762 48.0072 24.9755 49.8217C24.3746 51.6363 23.9649 53.5166 23.7465 55.4635C23.5279 57.4096 23.5007 59.2807 23.6645 61.0766C23.8284 62.8718 24.2199 64.6391 24.839 66.3778ZM23.2002 68.135C22.5811 65.6408 22.0349 63.1931 21.5614 60.7925C21.088 58.3928 20.8513 55.9264 20.8513 53.3935C20.8513 51.5418 20.9788 49.5098 21.2337 47.2989C21.4886 45.088 21.9529 42.9329 22.6266 40.835C23.3003 38.7372 24.229 36.8568 25.4125 35.194C26.5964 33.5304 28.1709 32.3212 30.1376 31.565C30.3196 31.4898 30.5016 31.4519 30.6836 31.4519C30.9386 31.4519 31.2392 31.6029 31.5853 31.9055C31.9313 32.2075 32.2953 32.6518 32.6779 33.2378C33.0598 33.8238 33.3969 34.4284 33.6885 35.0523C33.9794 35.6755 34.1979 36.1012 34.344 36.3281C35.3271 38.2556 36.0461 40.3063 36.5017 42.4792C36.9567 44.6529 37.2207 46.8166 37.2938 48.971C37.4392 52.2223 37.2662 55.4349 36.7747 58.6103C36.2832 61.785 35.2905 64.8845 33.7974 67.9082C33.288 68.8155 32.7689 69.732 32.2408 70.6579C31.7128 71.5845 31.0848 72.4817 30.3561 73.3511C30.2107 73.5028 29.9467 73.7768 29.5641 74.1732C29.1815 74.5703 28.7899 74.9767 28.3894 75.3924C27.9889 75.8081 27.6339 76.1959 27.3244 76.5544C27.0148 76.9136 26.8604 77.1311 26.8604 77.2069L29.0994 88.5462C29.1139 88.6206 30.2196 88.5462 30.2196 88.5462C32.3566 88.5741 34.6191 88.9333 36.5838 89.7368C38.4774 90.6441 40.107 91.8912 41.4727 93.4789C42.8383 95.0666 43.9302 96.8525 44.7498 98.8366C45.5695 100.821 45.979 102.834 45.979 104.875C45.979 106.916 45.6874 108.995 45.1049 111.112C43.6117 115.119 41.2266 118.086 37.9494 120.013C37.5847 120.24 37.0656 120.496 36.3921 120.779C35.7186 121.062 35.4546 121.507 35.6001 122.111C36.4742 126.23 37.0656 129.063 37.3758 130.616C37.6853 132.168 37.9128 134.172 38.0583 136.626C38.2037 138.973 37.8122 141.083 36.8836 142.972C35.9551 144.868 34.708 146.407 33.1418 147.595C31.5763 148.789 30.1466 149.483 28.854 149.698C27.5608 149.906 26.6777 150.006 26.2048 150.006C24.5658 150.006 22.9635 149.684 21.3976 149.04C19.4674 148.289 17.8469 147.137 16.5359 145.584C15.2249 144.031 14.5694 142.142 14.5694 139.917C14.5694 138.515 14.9609 137.077 15.7438 135.603C16.5268 134.129 17.5556 133.07 18.8301 132.433C20.2504 131.675 21.5341 131.467 22.6813 131.803C23.8284 132.147 24.7752 132.791 25.5218 133.735C26.2683 134.68 26.7874 135.825 27.0789 137.163C27.3699 138.508 27.3519 139.76 27.0238 140.933C26.6964 142.107 26.0318 143.101 25.0302 143.91C24.0287 144.725 22.6357 145.09 20.8513 145.019C21.5796 146.378 22.5993 147.237 23.9103 147.595C25.2213 147.959 26.5688 147.981 27.9524 147.68C29.3366 147.38 30.6381 146.822 31.8582 146.006C33.0784 145.198 34.0345 144.318 34.726 143.373C35.163 142.693 35.4911 141.806 35.7097 140.711C35.9282 139.61 36.0557 138.472 36.0916 137.277C36.1281 136.089 36.0916 135.159 35.9826 134.501C35.873 133.835 35.691 132.805 35.436 131.41C34.344 126.838 33.6519 123.961 33.3603 122.788C33.2149 122.414 32.8233 122.291 32.1864 122.423C31.5487 122.556 31.0117 122.679 30.5747 122.788C27.4429 123.21 24.8208 123.017 22.7086 122.225C19.431 121.318 16.545 119.701 14.0504 117.377C11.5559 115.053 9.55295 112.237 8.04161 108.929C6.53034 105.622 5.77467 103.108 5.77467 101.388C5.77467 99.6687 5.77467 98.5819 5.77467 98.1282C5.77467 95.0666 6.28452 92.1938 7.30421 89.51C9.23426 85.3143 11.5195 81.4591 14.1597 77.9439C16.7999 74.4286 19.8134 71.1588 23.2002 68.135Z" fill="white"/>
<path d="M49.0027 194.808C49.0027 197.22 47.3914 199.175 45.4038 199.175C43.4162 199.175 41.8049 197.22 41.8049 194.808C41.8049 192.396 43.4162 190.441 45.4038 190.441C47.3914 190.441 49.0027 192.396 49.0027 194.808ZM48.7543 180.042C48.7543 182.454 47.143 184.409 45.1553 184.409C43.1677 184.409 41.5564 182.454 41.5564 180.042C41.5564 177.63 43.1677 175.675 45.1553 175.675C47.143 175.675 48.7543 177.63 48.7543 180.042ZM6.36815 225.885C6.36815 225.261 8.95999 222.695 12.1278 220.182C18.9386 214.778 23.8572 208.867 26.7181 202.646C33.2787 188.379 31.2004 173.504 22.4568 172.146C17.6208 171.394 11.498 175.482 11.498 179.461C11.498 180.938 11.8241 181.057 15.3694 180.873C19.7073 180.649 22.6421 185.54 20.2946 189.082C16.5853 194.678 7.65062 191.463 7.65062 184.532C7.65062 178.458 10.8419 173.623 16.4586 171.189C28.4786 165.98 39.9203 175.583 38.9184 190.04C38.0973 201.89 29.1904 212.956 11.8995 223.611C7.79676 226.139 6.36815 226.726 6.36815 225.885Z" fill="white"/>
<g clip-path="url(#clip0_24_1680)">
<path d="M269.396 30.1209C267.333 26.8443 269.544 22.1342 274.26 19.6085C278.977 17.0828 284.504 17.5606 286.568 20.8372C288.631 24.1138 286.42 28.8239 281.704 31.4179C276.987 33.9436 271.46 33.3975 269.396 30.1209Z" fill="white"/>
<path d="M293.116 21.1209C291.052 17.8443 293.263 13.1342 297.98 10.6085C302.696 8.08276 308.223 8.56061 310.287 11.8372C312.35 15.1138 310.14 19.8239 305.423 22.4179C300.706 24.9436 295.179 24.3975 293.116 21.1209Z" fill="white"/>
<path d="M316.835 12.1209C314.772 8.84432 316.983 4.1342 321.699 1.60848C326.416 -0.917236 331.943 -0.439393 334.006 2.83721C336.07 6.11381 333.859 10.8239 329.142 13.4179C324.426 15.9436 318.899 15.3975 316.835 12.1209Z" fill="white"/>
<path d="M269.396 93.1209C267.333 89.8443 269.544 85.1342 274.26 82.6085C278.977 80.0828 284.504 80.5606 286.568 83.8372C288.631 87.1138 286.42 91.8239 281.704 94.4179C276.987 96.9436 271.46 96.3975 269.396 93.1209Z" fill="white"/>
<path d="M293.116 84.1209C291.052 80.8443 293.263 76.1342 297.98 73.6085C302.696 71.0828 308.223 71.5606 310.287 74.8372C312.35 78.1138 310.14 82.8239 305.423 85.4179C300.706 87.9436 295.179 87.3975 293.116 84.1209Z" fill="white"/>
<path d="M316.835 75.1209C314.772 71.8443 316.983 67.1342 321.699 64.6085C326.416 62.0828 331.943 62.5606 334.006 65.8372C336.07 69.1138 333.859 73.8239 329.142 76.4179C324.426 78.9436 318.899 78.3975 316.835 75.1209Z" fill="white"/>
<path d="M340.555 66.1209C338.491 62.8443 340.702 58.1342 345.419 55.6085C350.135 53.0828 355.662 53.5606 357.726 56.8372C359.789 60.1138 357.579 64.8239 352.862 67.4179C348.145 69.9436 342.618 69.3975 340.555 66.1209Z" fill="white"/>
<path d="M364.274 57.1209C362.211 53.8443 364.421 49.1342 369.138 46.6085C373.855 44.0828 379.382 44.5606 381.445 47.8372C383.509 51.1138 381.298 55.8239 376.581 58.4179C371.865 60.9436 366.338 60.3975 364.274 57.1209Z" fill="white"/>
<path d="M387.994 48.1209C385.93 44.8443 388.141 40.1342 392.858 37.6085C397.574 35.0828 403.101 35.5606 405.165 38.8372C407.228 42.1138 405.018 46.8239 400.301 49.4179C395.584 51.9436 390.057 51.3975 387.994 48.1209Z" fill="white"/>
<path d="M411.713 39.1209C409.65 35.8443 411.86 31.1342 416.577 28.6085C421.294 26.0828 426.821 26.5606 428.884 29.8372C430.948 33.1138 428.737 37.8239 424.02 40.4179C419.304 42.9436 413.777 42.3975 411.713 39.1209Z" fill="white"/>
<path d="M269.396 156.121C267.333 152.844 269.544 148.134 274.26 145.608C278.977 143.083 284.504 143.561 286.568 146.837C288.631 150.114 286.42 154.824 281.704 157.418C276.987 159.944 271.46 159.398 269.396 156.121Z" fill="white"/>
<path d="M293.116 147.121C291.052 143.844 293.263 139.134 297.98 136.608C302.696 134.083 308.223 134.561 310.287 137.837C312.35 141.114 310.14 145.824 305.423 148.418C300.706 150.944 295.179 150.398 293.116 147.121Z" fill="white"/>
<path d="M316.835 138.121C314.772 134.844 316.983 130.134 321.699 127.608C326.416 125.083 331.943 125.561 334.006 128.837C336.07 132.114 333.859 136.824 329.142 139.418C324.426 141.944 318.899 141.398 316.835 138.121Z" fill="white"/>
<path d="M340.555 129.121C338.491 125.844 340.702 121.134 345.419 118.608C350.135 116.083 355.662 116.561 357.726 119.837C359.789 123.114 357.579 127.824 352.862 130.418C348.145 132.944 342.618 132.398 340.555 129.121Z" fill="white"/>
<path d="M364.274 120.121C362.211 116.844 364.421 112.134 369.138 109.608C373.855 107.083 379.382 107.561 381.445 110.837C383.509 114.114 381.298 118.824 376.581 121.418C371.865 123.944 366.338 123.398 364.274 120.121Z" fill="white"/>
<path d="M387.994 111.121C385.93 107.844 388.141 103.134 392.858 100.608C397.574 98.0828 403.101 98.5606 405.165 101.837C407.228 105.114 405.018 109.824 400.301 112.418C395.584 114.944 390.057 114.398 387.994 111.121Z" fill="white"/>
<path d="M411.713 102.121C409.65 98.8443 411.86 94.1342 416.577 91.6085C421.294 89.0828 426.821 89.5606 428.884 92.8372C430.948 96.1138 428.737 100.824 424.02 103.418C419.304 105.944 413.777 105.398 411.713 102.121Z" fill="white"/>
<path d="M269.396 219.121C267.333 215.844 269.544 211.134 274.26 208.608C278.977 206.083 284.504 206.561 286.568 209.837C288.631 213.114 286.42 217.824 281.704 220.418C276.987 222.944 271.46 222.398 269.396 219.121Z" fill="white"/>
<path d="M293.116 210.121C291.052 206.844 293.263 202.134 297.98 199.608C302.696 197.083 308.223 197.561 310.287 200.837C312.35 204.114 310.14 208.824 305.423 211.418C300.706 213.944 295.179 213.398 293.116 210.121Z" fill="white"/>
<path d="M316.835 201.121C314.772 197.844 316.983 193.134 321.699 190.608C326.416 188.083 331.943 188.561 334.006 191.837C336.07 195.114 333.859 199.824 329.142 202.418C324.426 204.944 318.899 204.398 316.835 201.121Z" fill="white"/>
<path d="M340.555 192.121C338.491 188.844 340.702 184.134 345.419 181.608C350.135 179.083 355.662 179.561 357.726 182.837C359.789 186.114 357.579 190.824 352.862 193.418C348.145 195.944 342.618 195.398 340.555 192.121Z" fill="white"/>
<path d="M364.274 183.121C362.211 179.844 364.421 175.134 369.138 172.608C373.855 170.083 379.382 170.561 381.445 173.837C383.509 177.114 381.298 181.824 376.581 184.418C371.865 186.944 366.338 186.398 364.274 183.121Z" fill="white"/>
<path d="M387.994 174.121C385.93 170.844 388.141 166.134 392.858 163.608C397.574 161.083 403.101 161.561 405.165 164.837C407.228 168.114 405.018 172.824 400.301 175.418C395.584 177.944 390.057 177.398 387.994 174.121Z" fill="white"/>
<path d="M411.713 165.121C409.65 161.844 411.86 157.134 416.577 154.608C421.294 152.083 426.821 152.561 428.884 155.837C430.948 159.114 428.737 163.824 424.02 166.418C419.304 168.944 413.777 168.398 411.713 165.121Z" fill="white"/>
<path d="M269.396 282.121C267.333 278.844 269.544 274.134 274.26 271.608C278.977 269.083 284.504 269.561 286.568 272.837C288.631 276.114 286.42 280.824 281.704 283.418C276.987 285.944 271.46 285.398 269.396 282.121Z" fill="white"/>
<path d="M293.116 273.121C291.052 269.844 293.263 265.134 297.98 262.608C302.696 260.083 308.223 260.561 310.287 263.837C312.35 267.114 310.14 271.824 305.423 274.418C300.706 276.944 295.179 276.398 293.116 273.121Z" fill="white"/>
<path d="M316.835 264.121C314.772 260.844 316.983 256.134 321.699 253.608C326.416 251.083 331.943 251.561 334.006 254.837C336.07 258.114 333.859 262.824 329.142 265.418C324.426 267.944 318.899 267.398 316.835 264.121Z" fill="white"/>
<path d="M340.555 255.121C338.491 251.844 340.702 247.134 345.419 244.608C350.135 242.083 355.662 242.561 357.726 245.837C359.789 249.114 357.579 253.824 352.862 256.418C348.145 258.944 342.618 258.398 340.555 255.121Z" fill="white"/>
<path d="M364.274 246.121C362.211 242.844 364.421 238.134 369.138 235.608C373.855 233.083 379.382 233.561 381.445 236.837C383.509 240.114 381.298 244.824 376.581 247.418C371.865 249.944 366.338 249.398 364.274 246.121Z" fill="white"/>
<path d="M387.994 237.121C385.93 233.844 388.141 229.134 392.858 226.608C397.574 224.083 403.101 224.561 405.165 227.837C407.228 231.114 405.018 235.824 400.301 238.418C395.584 240.944 390.057 240.398 387.994 237.121Z" fill="white"/>
<path d="M411.713 228.121C409.65 224.844 411.86 220.134 416.577 217.608C421.294 215.083 426.821 215.561 428.884 218.837C430.948 222.114 428.737 226.824 424.02 229.418C419.304 231.944 413.777 231.398 411.713 228.121Z" fill="white"/>
<path d="M387.994 300.121C385.93 296.844 388.141 292.134 392.858 289.608C397.574 287.083 403.101 287.561 405.165 290.837C407.228 294.114 405.018 298.824 400.301 301.418C395.584 303.944 390.057 303.398 387.994 300.121Z" fill="white"/>
<path d="M411.713 291.121C409.65 287.844 411.86 283.134 416.577 280.608C421.294 278.083 426.821 278.561 428.884 281.837C430.948 285.114 428.737 289.824 424.02 292.418C419.304 294.944 413.777 294.398 411.713 291.121Z" fill="white"/>
</g>
<defs>
<clipPath id="clip0_24_1680">
<rect width="306" height="284" fill="white" transform="translate(208 10)"/>
</clipPath>
</defs>
</svg>
