<svg width="514" height="303" viewBox="0 0 514 303" fill="none" xmlns="http://www.w3.org/2000/svg">
<line y1="24.9999" x2="514" y2="24.9999" stroke="white" stroke-opacity="0.4" stroke-dasharray="8 8"/>
<line y1="42.9999" x2="514" y2="42.9999" stroke="white" stroke-opacity="0.4" stroke-dasharray="8 8"/>
<path d="M0 61.4999H514" stroke="white"/>
<path d="M0 79.4999H514" stroke="white"/>
<path d="M0 97.4999H514" stroke="white"/>
<path d="M0 115.5H514" stroke="white"/>
<path d="M0 133.5H514" stroke="white"/>
<line x1="4.2447e-08" y1="151" x2="514" y2="151" stroke="white" stroke-opacity="0.4" stroke-dasharray="8 8"/>
<path d="M0 169.5H514" stroke="white"/>
<path d="M0 187.5H514" stroke="white"/>
<path d="M0 205.5H514" stroke="white"/>
<path d="M0 223.5H514" stroke="white"/>
<path d="M0 241.5H514" stroke="white"/>
<line x1="4.2447e-08" y1="259" x2="514" y2="259" stroke="white" stroke-opacity="0.4" stroke-dasharray="8 8"/>
<line x1="4.2447e-08" y1="277" x2="514" y2="277" stroke="white" stroke-opacity="0.4" stroke-dasharray="8 8"/>
<path d="M28.6631 96.9377C26.8783 97.5423 25.4034 98.5626 24.2381 99.9993C23.0727 101.435 22.3626 103.004 22.1077 104.705C21.8527 106.406 22.0622 108.088 22.7359 109.751C23.4096 111.414 24.6751 112.756 26.5323 113.777C26.9693 113.777 27.2423 113.966 27.3519 114.344C27.4608 114.722 27.2968 114.91 26.8604 114.91C25.0757 114.533 23.5097 113.758 22.1623 112.586C19.6495 110.431 18.2657 107.654 18.0108 104.252C17.8651 102.551 18.0199 100.907 18.4751 99.3189C18.9303 97.7312 19.5585 96.2758 20.3597 94.9529C21.3429 93.5548 22.5083 92.3449 23.8557 91.3246C23.9285 91.2487 24.138 91.0792 24.4839 90.8144C24.8299 90.5497 25.1667 90.3043 25.4945 90.0774C25.8223 89.8506 26.3138 89.4915 26.9693 88.9999L24.9482 78.9077C23.1638 80.4575 21.3976 82.1676 19.6496 84.0386C17.9015 85.9096 16.3174 87.8851 14.8971 89.9637C13.4769 92.0429 12.3388 94.2445 11.483 96.5692C10.6272 98.8939 10.1994 101.341 10.1994 103.912C10.1994 106.293 10.6818 108.532 11.6469 110.63C12.612 112.728 13.8957 114.552 15.498 116.101C17.1003 117.651 18.9485 118.87 21.0425 119.759C23.1365 120.647 25.2577 121.091 27.4064 121.091C27.4795 121.091 27.8159 121.053 28.417 120.977C29.0181 120.902 29.6551 120.808 30.3286 120.694C31.0027 120.581 31.6218 120.458 32.1864 120.325C32.7503 120.193 33.0329 120.051 33.0329 119.9L32.7048 118.313C31.2847 110.866 29.937 103.741 28.6631 96.9377ZM30.5747 96.7109L35.0541 119.22C37.6399 118.199 39.3874 116.451 40.298 113.975C41.2086 111.5 41.4175 108.986 40.926 106.435C40.4345 103.883 39.2784 101.624 37.4572 99.6588C35.6366 97.6933 33.3424 96.7109 30.5747 96.7109ZM24.839 66.3778C25.9677 65.7725 27.0148 64.866 27.9799 63.6561C28.945 62.4469 29.8371 61.1518 30.6567 59.7723C31.4756 58.3928 32.1864 56.9847 32.7868 55.548C33.3879 54.112 33.8705 52.8083 34.2344 51.6363C34.635 50.3892 34.9079 48.9904 35.0541 47.4406C35.1995 45.8908 34.9631 44.5872 34.344 43.5282C33.907 42.5838 33.3335 42.0357 32.6234 41.884C31.9127 41.733 31.2027 41.7896 30.4926 42.0543C29.7826 42.319 29.1091 42.744 28.4714 43.33C27.8345 43.916 27.3699 44.4355 27.0789 44.8891C26.2772 46.3631 25.5762 48.0073 24.9755 49.8218C24.3746 51.6363 23.9649 53.5167 23.7465 55.4635C23.5279 57.4097 23.5007 59.2808 23.6645 61.0767C23.8284 62.8719 24.2199 64.6392 24.839 66.3778ZM23.2002 68.1351C22.5811 65.6409 22.0349 63.1931 21.5614 60.7926C21.088 58.3928 20.8513 55.9265 20.8513 53.3936C20.8513 51.5419 20.9788 49.5098 21.2337 47.2989C21.4886 45.088 21.9529 42.9329 22.6266 40.8351C23.3003 38.7372 24.229 36.8569 25.4125 35.194C26.5964 33.5305 28.1709 32.3213 30.1376 31.565C30.3196 31.4899 30.5016 31.452 30.6836 31.452C30.9386 31.452 31.2392 31.6029 31.5853 31.9056C31.9313 32.2075 32.2953 32.6519 32.6779 33.2379C33.0598 33.8239 33.3969 34.4285 33.6885 35.0524C33.9794 35.6756 34.1979 36.1013 34.344 36.3281C35.3271 38.2557 36.0461 40.3063 36.5017 42.4793C36.9567 44.653 37.2207 46.8167 37.2938 48.9711C37.4392 52.2223 37.2662 55.4349 36.7747 58.6103C36.2832 61.785 35.2905 64.8846 33.7974 67.9083C33.288 68.8155 32.7689 69.7321 32.2408 70.658C31.7128 71.5845 31.0848 72.4818 30.3561 73.3511C30.2107 73.5028 29.9467 73.7768 29.5641 74.1732C29.1815 74.5703 28.7899 74.9767 28.3894 75.3925C27.9889 75.8082 27.6339 76.196 27.3244 76.5544C27.0148 76.9136 26.8604 77.1311 26.8604 77.207L29.0994 88.5463C29.1139 88.6207 30.2196 88.5463 30.2196 88.5463C32.3566 88.5742 34.6191 88.9334 36.5838 89.7369C38.4774 90.6441 40.107 91.8913 41.4727 93.479C42.8383 95.0667 43.9302 96.8525 44.7498 98.8366C45.5695 100.821 45.979 102.834 45.979 104.875C45.979 106.916 45.6874 108.995 45.1049 111.112C43.6117 115.119 41.2266 118.086 37.9494 120.013C37.5847 120.24 37.0656 120.496 36.3921 120.779C35.7186 121.062 35.4546 121.507 35.6001 122.111C36.4742 126.23 37.0656 129.063 37.3758 130.616C37.6853 132.168 37.9128 134.172 38.0583 136.626C38.2037 138.973 37.8122 141.084 36.8836 142.972C35.9551 144.869 34.708 146.407 33.1418 147.595C31.5763 148.79 30.1466 149.484 28.854 149.698C27.5608 149.906 26.6777 150.006 26.2048 150.006C24.5658 150.006 22.9635 149.684 21.3976 149.04C19.4674 148.289 17.8469 147.137 16.5359 145.584C15.2249 144.031 14.5694 142.142 14.5694 139.917C14.5694 138.515 14.9609 137.077 15.7438 135.603C16.5268 134.129 17.5556 133.07 18.8301 132.433C20.2504 131.675 21.5341 131.467 22.6813 131.803C23.8284 132.147 24.7752 132.791 25.5218 133.735C26.2683 134.68 26.7874 135.825 27.0789 137.163C27.3699 138.508 27.3519 139.76 27.0238 140.933C26.6964 142.107 26.0318 143.101 25.0302 143.91C24.0287 144.725 22.6357 145.09 20.8513 145.019C21.5796 146.378 22.5993 147.237 23.9103 147.595C25.2213 147.96 26.5688 147.981 27.9524 147.68C29.3366 147.38 30.6381 146.822 31.8582 146.006C33.0784 145.198 34.0345 144.318 34.726 143.373C35.163 142.693 35.4911 141.806 35.7097 140.711C35.9282 139.61 36.0557 138.472 36.0916 137.277C36.1281 136.089 36.0916 135.159 35.9826 134.501C35.873 133.835 35.691 132.805 35.436 131.41C34.344 126.838 33.6519 123.962 33.3603 122.788C33.2149 122.414 32.8233 122.291 32.1864 122.423C31.5487 122.556 31.0117 122.679 30.5747 122.788C27.4429 123.21 24.8208 123.017 22.7086 122.225C19.431 121.318 16.545 119.701 14.0504 117.377C11.5559 115.053 9.55295 112.237 8.04161 108.929C6.53034 105.622 5.77467 103.108 5.77467 101.388C5.77467 99.6688 5.77467 98.5819 5.77467 98.1283C5.77467 95.0667 6.28452 92.1939 7.30421 89.5101C9.23426 85.3143 11.5195 81.4592 14.1597 77.9439C16.7999 74.4287 19.8134 71.1588 23.2002 68.1351Z" fill="white"/>
<path d="M49.0027 194.808C49.0027 197.22 47.3914 199.175 45.4038 199.175C43.4162 199.175 41.8049 197.22 41.8049 194.808C41.8049 192.396 43.4162 190.441 45.4038 190.441C47.3914 190.441 49.0027 192.396 49.0027 194.808ZM48.7543 180.042C48.7543 182.454 47.143 184.409 45.1553 184.409C43.1677 184.409 41.5564 182.454 41.5564 180.042C41.5564 177.63 43.1677 175.675 45.1553 175.675C47.143 175.675 48.7543 177.63 48.7543 180.042ZM6.36815 225.885C6.36815 225.261 8.95999 222.695 12.1278 220.182C18.9386 214.778 23.8572 208.867 26.7181 202.646C33.2787 188.379 31.2004 173.504 22.4568 172.146C17.6208 171.394 11.498 175.482 11.498 179.461C11.498 180.938 11.8241 181.057 15.3694 180.873C19.7073 180.649 22.6421 185.54 20.2946 189.082C16.5853 194.678 7.65062 191.463 7.65062 184.532C7.65062 178.458 10.8419 173.623 16.4586 171.189C28.4786 165.98 39.9203 175.583 38.9184 190.04C38.0973 201.89 29.1904 212.956 11.8995 223.611C7.79676 226.139 6.36815 226.726 6.36815 225.885Z" fill="white"/>
<path d="M58 194.649H60.1039L59.9286 232.519L58 237.045V194.649Z" fill="white"/>
<path d="M67.4675 223.689C68.1688 221.872 68.3442 221.474 68.5195 220.247C68.6948 219.019 67.8182 217.967 67.8182 217.967C67.8182 217.967 65.8896 215.688 63.4351 216.389C60.9805 217.091 59.5779 219.545 59.5779 219.545V216.915C59.5779 216.915 60.4545 214.812 63.7857 213.584C65.013 213.234 66.5909 213.058 69.0454 213.76C70.448 214.286 70.448 214.11 72.2013 215.513C72.9026 216.214 73.7792 217.441 74.1299 219.545C74.1299 221.474 74.1299 221.825 73.3413 223.689C70.448 230.065 58 237.078 58 237.078L59.8413 232.28C59.8413 232.28 66.7662 225.506 67.4675 223.689Z" fill="white"/>
<path d="M77.9868 168H80.0907L79.9154 205.87L77.9868 210.396V168Z" fill="white"/>
<path d="M87.4543 197.04C88.1556 195.222 88.331 194.825 88.5063 193.597C88.6816 192.37 87.805 191.318 87.805 191.318C87.805 191.318 85.8764 189.039 83.4219 189.74C80.9673 190.441 79.5647 192.896 79.5647 192.896V190.266C79.5647 190.266 80.4414 188.162 83.7725 186.935C84.9998 186.584 86.5777 186.409 89.0323 187.11C90.4349 187.636 90.4349 187.461 92.1881 188.864C92.8894 189.565 93.766 190.792 94.1167 192.896C94.1167 194.825 94.1167 195.175 93.3281 197.04C90.4349 203.416 77.9868 210.428 77.9868 210.428L79.8281 205.631C79.8281 205.631 86.753 198.857 87.4543 197.04Z" fill="white"/>
<path d="M97.9742 203.416H100.078L99.9027 241.286L97.9742 245.812V203.416Z" fill="white"/>
<path d="M107.442 232.455C108.143 230.638 108.318 230.24 108.494 229.013C108.669 227.786 107.792 226.734 107.792 226.734C107.792 226.734 105.864 224.455 103.409 225.156C100.955 225.857 99.5521 228.312 99.5521 228.312V225.682C99.5521 225.682 100.429 223.578 103.76 222.351C104.987 222 106.565 221.825 109.02 222.526C110.422 223.052 110.422 222.877 112.175 224.279C112.877 224.981 113.753 226.208 114.104 228.312C114.104 230.24 114.104 230.591 113.316 232.455C110.422 238.831 97.9742 245.844 97.9742 245.844L99.8155 241.046C99.8155 241.046 106.74 234.273 107.442 232.455Z" fill="white"/>
<path d="M117.611 177.117H119.714L119.539 214.987L117.611 219.513V177.117Z" fill="white"/>
<path d="M127.078 206.157C127.779 204.34 127.955 203.942 128.13 202.714C128.305 201.487 127.429 200.435 127.429 200.435C127.429 200.435 125.5 198.156 123.046 198.857C120.591 199.559 119.189 202.013 119.189 202.013V199.383C119.189 199.383 120.065 197.279 123.396 196.052C124.624 195.702 126.202 195.526 128.656 196.227C130.059 196.753 130.059 196.578 131.812 197.981C132.513 198.682 133.39 199.909 133.74 202.013C133.74 203.942 133.74 204.292 132.952 206.157C130.059 212.533 117.611 219.546 117.611 219.546L119.452 214.748C119.452 214.748 126.377 207.974 127.078 206.157Z" fill="white"/>
<path d="M137.247 212.532H139.35L139.175 250.402L137.247 254.928V212.532Z" fill="white"/>
<path d="M146.714 241.572C147.415 239.755 147.591 239.357 147.766 238.13C147.941 236.903 147.065 235.851 147.065 235.851C147.065 235.851 145.136 233.571 142.682 234.273C140.227 234.974 138.824 237.428 138.824 237.428V234.799C138.824 234.799 139.701 232.695 143.032 231.467C144.259 231.117 145.837 230.941 148.292 231.643C149.695 232.169 149.695 231.993 151.448 233.396C152.149 234.097 153.026 235.325 153.376 237.428C153.376 239.357 153.376 239.708 152.588 241.572C149.695 247.948 137.246 254.961 137.246 254.961L139.088 250.163C139.088 250.163 146.013 243.39 146.714 241.572Z" fill="white"/>
<path d="M157.234 185.532H159.338L159.162 223.403L157.234 227.929V185.532Z" fill="white"/>
<path d="M166.701 214.572C167.403 212.755 167.578 212.357 167.753 211.13C167.929 209.903 167.052 208.851 167.052 208.851C167.052 208.851 165.123 206.571 162.669 207.273C160.214 207.974 158.812 210.428 158.812 210.428V207.799C158.812 207.799 159.688 205.695 163.02 204.467C164.247 204.117 165.825 203.941 168.279 204.643C169.682 205.169 169.682 204.993 171.435 206.396C172.136 207.097 173.013 208.325 173.364 210.428C173.364 212.357 173.364 212.708 172.575 214.572C169.682 220.948 157.234 227.961 157.234 227.961L159.075 223.163C159.075 223.163 166 216.39 166.701 214.572Z" fill="white"/>
<path d="M176.87 220.948H178.974L178.799 258.818L176.87 263.344V220.948Z" fill="white"/>
<path d="M186.338 249.988C187.039 248.171 187.214 247.773 187.39 246.545C187.565 245.318 186.688 244.266 186.688 244.266C186.688 244.266 184.76 241.987 182.305 242.688C179.851 243.39 178.448 245.844 178.448 245.844V243.214C178.448 243.214 179.325 241.11 182.656 239.883C183.883 239.532 185.461 239.357 187.916 240.058C189.318 240.584 189.318 240.409 191.072 241.812C191.773 242.513 192.649 243.74 193 245.844C193 247.773 193 248.123 192.212 249.988C189.318 256.364 176.87 263.377 176.87 263.377L178.712 258.579C178.712 258.579 185.636 251.805 186.338 249.988Z" fill="white"/>
<path d="M58 67.6492H60.1039L59.9286 105.519L58 110.045V67.6492Z" fill="white"/>
<path d="M67.4675 96.6891C68.1688 94.8718 68.3442 94.4739 68.5195 93.2466C68.6948 92.0193 67.8182 90.9674 67.8182 90.9674C67.8182 90.9674 65.8896 88.6882 63.4351 89.3895C60.9805 90.0908 59.5779 92.5453 59.5779 92.5453V89.9154C59.5779 89.9154 60.4545 87.8116 63.7857 86.5843C65.013 86.2336 66.5909 86.0583 69.0454 86.7596C70.448 87.2856 70.448 87.1103 72.2013 88.5129C72.9026 89.2142 73.7792 90.4414 74.1299 92.5453C74.1299 94.4739 74.1299 94.8245 73.3413 96.6891C70.448 103.065 58 110.078 58 110.078L59.8413 105.28C59.8413 105.28 66.7662 98.5063 67.4675 96.6891Z" fill="white"/>
<path d="M77.9868 41H80.0907L79.9154 78.8701L77.9868 83.3962V41Z" fill="white"/>
<path d="M87.4543 70.0398C88.1556 68.2225 88.331 67.8246 88.5063 66.5974C88.6816 65.3701 87.805 64.3182 87.805 64.3182C87.805 64.3182 85.8764 62.0389 83.4219 62.7402C80.9673 63.4415 79.5647 65.8961 79.5647 65.8961V63.2662C79.5647 63.2662 80.4414 61.1624 83.7725 59.9351C84.9998 59.5844 86.5777 59.4091 89.0323 60.1104C90.4349 60.6363 90.4349 60.461 92.1881 61.8636C92.8894 62.5649 93.766 63.7922 94.1167 65.8961C94.1167 67.8247 94.1167 68.1753 93.3281 70.0398C90.4349 76.4156 77.9868 83.4285 77.9868 83.4285L79.8281 78.6307C79.8281 78.6307 86.753 71.8571 87.4543 70.0398Z" fill="white"/>
<path d="M97.9742 76.4156H100.078L99.9027 114.286L97.9742 118.812V76.4156Z" fill="white"/>
<path d="M107.442 105.455C108.143 103.638 108.318 103.24 108.494 102.013C108.669 100.786 107.792 99.7337 107.792 99.7337C107.792 99.7337 105.864 97.4545 103.409 98.1558C100.955 98.8571 99.5521 101.312 99.5521 101.312V98.6818C99.5521 98.6818 100.429 96.5779 103.76 95.3507C104.987 95 106.565 94.8246 109.02 95.5259C110.422 96.0519 110.422 95.8766 112.175 97.2792C112.877 97.9805 113.753 99.2078 114.104 101.312C114.104 103.24 114.104 103.591 113.316 105.455C110.422 111.831 97.9742 118.844 97.9742 118.844L99.8155 114.046C99.8155 114.046 106.74 107.273 107.442 105.455Z" fill="white"/>
<path d="M117.611 50.1171H119.714L119.539 87.9872L117.611 92.5133V50.1171Z" fill="white"/>
<path d="M127.078 79.157C127.779 77.3397 127.955 76.9418 128.13 75.7146C128.305 74.4873 127.429 73.4353 127.429 73.4353C127.429 73.4353 125.5 71.1561 123.046 71.8574C120.591 72.5587 119.189 75.0133 119.189 75.0133V72.3834C119.189 72.3834 120.065 70.2795 123.396 69.0523C124.624 68.7016 126.202 68.5262 128.656 69.2275C130.059 69.7535 130.059 69.5782 131.812 70.9808C132.513 71.6821 133.39 72.9094 133.74 75.0133C133.74 76.9418 133.74 77.2925 132.952 79.157C130.059 85.5328 117.611 92.5457 117.611 92.5457L119.452 87.7479C119.452 87.7479 126.377 80.9743 127.078 79.157Z" fill="white"/>
<path d="M137.247 85.5322H139.35L139.175 123.402L137.247 127.928V85.5322Z" fill="white"/>
<path d="M146.714 114.572C147.415 112.755 147.591 112.357 147.766 111.13C147.941 109.903 147.065 108.851 147.065 108.851C147.065 108.851 145.136 106.571 142.682 107.273C140.227 107.974 138.824 110.428 138.824 110.428V107.799C138.824 107.799 139.701 105.695 143.032 104.467C144.259 104.117 145.837 103.941 148.292 104.643C149.695 105.169 149.695 104.993 151.448 106.396C152.149 107.097 153.026 108.325 153.376 110.428C153.376 112.357 153.376 112.708 152.588 114.572C149.695 120.948 137.246 127.961 137.246 127.961L139.088 123.163C139.088 123.163 146.013 116.39 146.714 114.572Z" fill="white"/>
<path d="M157.234 58.5325H159.338L159.162 96.4026L157.234 100.929V58.5325Z" fill="white"/>
<path d="M166.701 87.5722C167.403 85.755 167.578 85.3571 167.753 84.1298C167.929 82.9025 167.052 81.8506 167.052 81.8506C167.052 81.8506 165.123 79.5713 162.669 80.2726C160.214 80.9739 158.812 83.4285 158.812 83.4285V80.7986C158.812 80.7986 159.688 78.6948 163.02 77.4675C164.247 77.1168 165.825 76.9415 168.279 77.6428C169.682 78.1688 169.682 77.9934 171.435 79.396C172.136 80.0973 173.013 81.3246 173.364 83.4285C173.364 85.3571 173.364 85.7077 172.575 87.5722C169.682 93.948 157.234 100.961 157.234 100.961L159.075 96.1631C159.075 96.1631 166 89.3895 166.701 87.5722Z" fill="white"/>
<path d="M176.87 93.9482H178.974L178.799 131.818L176.87 136.344V93.9482Z" fill="white"/>
<path d="M186.338 122.988C187.039 121.171 187.214 120.773 187.39 119.545C187.565 118.318 186.688 117.266 186.688 117.266C186.688 117.266 184.76 114.987 182.305 115.688C179.851 116.39 178.448 118.844 178.448 118.844V116.214C178.448 116.214 179.325 114.11 182.656 112.883C183.883 112.532 185.461 112.357 187.916 113.058C189.318 113.584 189.318 113.409 191.072 114.812C191.773 115.513 192.649 116.74 193 118.844C193 120.773 193 121.123 192.212 122.988C189.318 129.364 176.87 136.377 176.87 136.377L178.712 131.579C178.712 131.579 185.636 124.805 186.338 122.988Z" fill="white"/>
<g clip-path="url(#clip0_25_4811)">
<path d="M269.396 30.1209C267.333 26.8443 269.544 22.1342 274.26 19.6085C278.977 17.0828 284.504 17.5606 286.568 20.8372C288.631 24.1138 286.42 28.8239 281.704 31.4179C276.987 33.9436 271.46 33.3975 269.396 30.1209Z" fill="url(#paint0_radial_25_4811)"/>
<path d="M293.116 21.1209C291.052 17.8443 293.263 13.1342 297.98 10.6085C302.696 8.08276 308.223 8.56061 310.287 11.8372C312.35 15.1138 310.14 19.8239 305.423 22.4179C300.706 24.9436 295.179 24.3975 293.116 21.1209Z" fill="#232323"/>
<path d="M316.835 12.1209C314.772 8.84432 316.983 4.1342 321.699 1.60848C326.416 -0.917236 331.943 -0.439393 334.006 2.83721C336.07 6.11381 333.859 10.8239 329.142 13.4179C324.426 15.9436 318.899 15.3975 316.835 12.1209Z" fill="#232323"/>
<path d="M269.396 93.1209C267.333 89.8443 269.544 85.1342 274.26 82.6085C278.977 80.0828 284.504 80.5606 286.568 83.8372C288.631 87.1138 286.42 91.8239 281.704 94.4179C276.987 96.9436 271.46 96.3975 269.396 93.1209Z" fill="url(#paint1_radial_25_4811)"/>
<path d="M293.116 84.1209C291.052 80.8443 293.263 76.1342 297.98 73.6085C302.696 71.0828 308.223 71.5606 310.287 74.8372C312.35 78.1138 310.14 82.8239 305.423 85.4179C300.706 87.9436 295.179 87.3975 293.116 84.1209Z" fill="#232323"/>
<path d="M316.835 75.1209C314.772 71.8443 316.983 67.1342 321.699 64.6085C326.416 62.0828 331.943 62.5606 334.006 65.8372C336.07 69.1138 333.859 73.8239 329.142 76.4179C324.426 78.9436 318.899 78.3975 316.835 75.1209Z" fill="#232323"/>
<path d="M340.555 66.1209C338.491 62.8443 340.702 58.1342 345.419 55.6085C350.135 53.0828 355.662 53.5606 357.726 56.8372C359.789 60.1138 357.579 64.8239 352.862 67.4179C348.145 69.9436 342.618 69.3975 340.555 66.1209Z" fill="url(#paint2_radial_25_4811)"/>
<path d="M364.274 57.1209C362.211 53.8443 364.421 49.1342 369.138 46.6085C373.855 44.0828 379.382 44.5606 381.445 47.8372C383.509 51.1138 381.298 55.8239 376.581 58.4179C371.865 60.9436 366.338 60.3975 364.274 57.1209Z" fill="#232323"/>
<path d="M387.994 48.1209C385.93 44.8443 388.141 40.1342 392.858 37.6085C397.574 35.0828 403.101 35.5606 405.165 38.8372C407.228 42.1138 405.018 46.8239 400.301 49.4179C395.584 51.9436 390.057 51.3975 387.994 48.1209Z" fill="#232323"/>
<path d="M411.713 39.1209C409.65 35.8443 411.86 31.1342 416.577 28.6085C421.294 26.0828 426.821 26.5606 428.884 29.8372C430.948 33.1138 428.737 37.8239 424.02 40.4179C419.304 42.9436 413.777 42.3975 411.713 39.1209Z" fill="#232323"/>
<path d="M269.396 156.121C267.333 152.844 269.544 148.134 274.26 145.608C278.977 143.083 284.504 143.561 286.568 146.837C288.631 150.114 286.42 154.824 281.704 157.418C276.987 159.944 271.46 159.398 269.396 156.121Z" fill="url(#paint3_radial_25_4811)"/>
<path d="M293.116 147.121C291.052 143.844 293.263 139.134 297.98 136.608C302.696 134.083 308.223 134.561 310.287 137.837C312.35 141.114 310.14 145.824 305.423 148.418C300.706 150.944 295.179 150.398 293.116 147.121Z" fill="#232323"/>
<path d="M316.835 138.121C314.772 134.844 316.983 130.134 321.699 127.608C326.416 125.083 331.943 125.561 334.006 128.837C336.07 132.114 333.859 136.824 329.142 139.418C324.426 141.944 318.899 141.398 316.835 138.121Z" fill="#232323"/>
<path d="M340.555 129.121C338.491 125.844 340.702 121.134 345.419 118.608C350.135 116.083 355.662 116.561 357.726 119.837C359.789 123.114 357.579 127.824 352.862 130.418C348.145 132.944 342.618 132.398 340.555 129.121Z" fill="url(#paint4_radial_25_4811)"/>
<path d="M364.274 120.121C362.211 116.844 364.421 112.134 369.138 109.608C373.855 107.083 379.382 107.561 381.445 110.837C383.509 114.114 381.298 118.824 376.581 121.418C371.865 123.944 366.338 123.398 364.274 120.121Z" fill="#232323"/>
<path d="M387.994 111.121C385.93 107.844 388.141 103.134 392.858 100.608C397.574 98.0828 403.101 98.5606 405.165 101.837C407.228 105.114 405.018 109.824 400.301 112.418C395.584 114.944 390.057 114.398 387.994 111.121Z" fill="#232323"/>
<path d="M411.713 102.121C409.65 98.8443 411.86 94.1342 416.577 91.6085C421.294 89.0828 426.821 89.5606 428.884 92.8372C430.948 96.1138 428.737 100.824 424.02 103.418C419.304 105.944 413.777 105.398 411.713 102.121Z" fill="#232323"/>
<path d="M269.396 219.121C267.333 215.844 269.544 211.134 274.26 208.608C278.977 206.083 284.504 206.561 286.568 209.837C288.631 213.114 286.42 217.824 281.704 220.418C276.987 222.944 271.46 222.398 269.396 219.121Z" fill="url(#paint5_radial_25_4811)"/>
<path d="M293.116 210.121C291.052 206.844 293.263 202.134 297.98 199.608C302.696 197.083 308.223 197.561 310.287 200.837C312.35 204.114 310.14 208.824 305.423 211.418C300.706 213.944 295.179 213.398 293.116 210.121Z" fill="#232323"/>
<path d="M316.835 201.121C314.772 197.844 316.983 193.134 321.699 190.608C326.416 188.083 331.943 188.561 334.006 191.837C336.07 195.114 333.859 199.824 329.142 202.418C324.426 204.944 318.899 204.398 316.835 201.121Z" fill="#232323"/>
<path d="M340.555 192.121C338.491 188.844 340.702 184.134 345.419 181.608C350.135 179.083 355.662 179.561 357.726 182.837C359.789 186.114 357.579 190.824 352.862 193.418C348.145 195.944 342.618 195.398 340.555 192.121Z" fill="url(#paint6_radial_25_4811)"/>
<path d="M364.274 183.121C362.211 179.844 364.421 175.134 369.138 172.608C373.855 170.083 379.382 170.561 381.445 173.837C383.509 177.114 381.298 181.824 376.581 184.418C371.865 186.944 366.338 186.398 364.274 183.121Z" fill="#232323"/>
<path d="M387.994 174.121C385.93 170.844 388.141 166.134 392.858 163.608C397.574 161.083 403.101 161.561 405.165 164.837C407.228 168.114 405.018 172.824 400.301 175.418C395.584 177.944 390.057 177.398 387.994 174.121Z" fill="#232323"/>
<path d="M411.713 165.121C409.65 161.844 411.86 157.134 416.577 154.608C421.294 152.083 426.821 152.561 428.884 155.837C430.948 159.114 428.737 163.824 424.02 166.418C419.304 168.944 413.777 168.398 411.713 165.121Z" fill="#232323"/>
<path d="M269.396 282.121C267.333 278.844 269.544 274.134 274.26 271.608C278.977 269.083 284.504 269.561 286.568 272.837C288.631 276.114 286.42 280.824 281.704 283.418C276.987 285.944 271.46 285.398 269.396 282.121Z" fill="url(#paint7_radial_25_4811)"/>
<path d="M293.116 273.121C291.052 269.844 293.263 265.134 297.98 262.608C302.696 260.083 308.223 260.561 310.287 263.837C312.35 267.114 310.14 271.824 305.423 274.418C300.706 276.944 295.179 276.398 293.116 273.121Z" fill="#232323"/>
<path d="M316.835 264.121C314.772 260.844 316.983 256.134 321.699 253.608C326.416 251.083 331.943 251.561 334.006 254.837C336.07 258.114 333.859 262.824 329.142 265.418C324.426 267.944 318.899 267.398 316.835 264.121Z" fill="#232323"/>
<path d="M340.555 255.121C338.491 251.844 340.702 247.134 345.419 244.608C350.135 242.083 355.662 242.561 357.726 245.837C359.789 249.114 357.579 253.824 352.862 256.418C348.145 258.944 342.618 258.398 340.555 255.121Z" fill="url(#paint8_radial_25_4811)"/>
<path d="M364.274 246.121C362.211 242.844 364.421 238.134 369.138 235.608C373.855 233.083 379.382 233.561 381.445 236.837C383.509 240.114 381.298 244.824 376.581 247.418C371.865 249.944 366.338 249.398 364.274 246.121Z" fill="#232323"/>
<path d="M387.994 237.121C385.93 233.844 388.141 229.134 392.858 226.608C397.574 224.083 403.101 224.561 405.165 227.837C407.228 231.114 405.018 235.824 400.301 238.418C395.584 240.944 390.057 240.398 387.994 237.121Z" fill="#232323"/>
<path d="M411.713 228.121C409.65 224.844 411.86 220.134 416.577 217.608C421.294 215.083 426.821 215.561 428.884 218.837C430.948 222.114 428.737 226.824 424.02 229.418C419.304 231.944 413.777 231.398 411.713 228.121Z" fill="#232323"/>
<path d="M387.994 300.121C385.93 296.844 388.141 292.134 392.858 289.608C397.574 287.083 403.101 287.561 405.165 290.837C407.228 294.114 405.018 298.824 400.301 301.418C395.584 303.944 390.057 303.398 387.994 300.121Z" fill="#232323"/>
<path d="M411.713 291.121C409.65 287.844 411.86 283.134 416.577 280.608C421.294 278.083 426.821 278.561 428.884 281.837C430.948 285.114 428.737 289.824 424.02 292.418C419.304 294.944 413.777 294.398 411.713 291.121Z" fill="#232323"/>
</g>
<defs>
<radialGradient id="paint0_radial_25_4811" cx="0" cy="0" r="1" gradientUnits="userSpaceOnUse" gradientTransform="translate(277.982 25.5) rotate(90) scale(7.5 9.35976)">
<stop offset="0.510417" stop-color="white"/>
<stop offset="0.546875" stop-color="#232323"/>
</radialGradient>
<radialGradient id="paint1_radial_25_4811" cx="0" cy="0" r="1" gradientUnits="userSpaceOnUse" gradientTransform="translate(277.982 88.5) rotate(90) scale(7.5 9.35976)">
<stop offset="0.510417" stop-color="white"/>
<stop offset="0.546875" stop-color="#232323"/>
</radialGradient>
<radialGradient id="paint2_radial_25_4811" cx="0" cy="0" r="1" gradientUnits="userSpaceOnUse" gradientTransform="translate(349.14 61.5) rotate(90) scale(7.5 9.35976)">
<stop offset="0.510417" stop-color="white"/>
<stop offset="0.546875" stop-color="#232323"/>
</radialGradient>
<radialGradient id="paint3_radial_25_4811" cx="0" cy="0" r="1" gradientUnits="userSpaceOnUse" gradientTransform="translate(277.982 151.5) rotate(90) scale(7.5 9.35976)">
<stop offset="0.510417" stop-color="white"/>
<stop offset="0.546875" stop-color="#232323"/>
</radialGradient>
<radialGradient id="paint4_radial_25_4811" cx="0" cy="0" r="1" gradientUnits="userSpaceOnUse" gradientTransform="translate(349.14 124.5) rotate(90) scale(7.5 9.35976)">
<stop offset="0.510417" stop-color="white"/>
<stop offset="0.546875" stop-color="#232323"/>
</radialGradient>
<radialGradient id="paint5_radial_25_4811" cx="0" cy="0" r="1" gradientUnits="userSpaceOnUse" gradientTransform="translate(277.982 214.5) rotate(90) scale(7.5 9.35976)">
<stop offset="0.510417" stop-color="white"/>
<stop offset="0.546875" stop-color="#232323"/>
</radialGradient>
<radialGradient id="paint6_radial_25_4811" cx="0" cy="0" r="1" gradientUnits="userSpaceOnUse" gradientTransform="translate(349.14 187.5) rotate(90) scale(7.5 9.35976)">
<stop offset="0.510417" stop-color="white"/>
<stop offset="0.546875" stop-color="#232323"/>
</radialGradient>
<radialGradient id="paint7_radial_25_4811" cx="0" cy="0" r="1" gradientUnits="userSpaceOnUse" gradientTransform="translate(277.982 277.5) rotate(90) scale(7.5 9.35976)">
<stop offset="0.510417" stop-color="white"/>
<stop offset="0.546875" stop-color="#232323"/>
</radialGradient>
<radialGradient id="paint8_radial_25_4811" cx="0" cy="0" r="1" gradientUnits="userSpaceOnUse" gradientTransform="translate(349.14 250.5) rotate(90) scale(7.5 9.35976)">
<stop offset="0.510417" stop-color="white"/>
<stop offset="0.546875" stop-color="#232323"/>
</radialGradient>
<clipPath id="clip0_25_4811">
<rect width="306" height="284" fill="white" transform="translate(208 10)"/>
</clipPath>
</defs>
</svg>
