<svg width="618" height="303" viewBox="0 0 618 303" fill="none" xmlns="http://www.w3.org/2000/svg">
<line x1="396" y1="25" x2="589" y2="25" stroke="white" stroke-opacity="0.4" stroke-dasharray="8 8"/>
<line x1="396" y1="43" x2="589" y2="43" stroke="white" stroke-opacity="0.4" stroke-dasharray="8 8"/>
<path d="M396 61.5H589" stroke="white"/>
<path d="M396 79.5H589" stroke="white"/>
<path d="M396 97.5H589" stroke="white"/>
<path d="M396 115.5H589" stroke="white"/>
<path d="M396 133.5H589" stroke="white"/>
<line x1="396" y1="151" x2="589" y2="151" stroke="white" stroke-opacity="0.4" stroke-dasharray="8 8"/>
<path d="M396 169.5H589" stroke="white"/>
<path d="M396 187.5H589" stroke="white"/>
<path d="M396 205.5H589" stroke="white"/>
<path d="M396 223.5H589" stroke="white"/>
<path d="M396 241.5H589" stroke="white"/>
<line x1="396" y1="259" x2="589" y2="259" stroke="white" stroke-opacity="0.4" stroke-dasharray="8 8"/>
<line x1="396" y1="277" x2="589" y2="277" stroke="white" stroke-opacity="0.4" stroke-dasharray="8 8"/>
<line y1="25" x2="382" y2="25" stroke="white" stroke-opacity="0.4" stroke-dasharray="8 8"/>
<line y1="43" x2="382" y2="43" stroke="white" stroke-opacity="0.4" stroke-dasharray="8 8"/>
<path d="M0 61.5H382" stroke="white"/>
<path d="M0 79.5H382" stroke="white"/>
<path d="M0 97.5H382" stroke="white"/>
<path d="M0 115.5H382" stroke="white"/>
<path d="M0 133.5H382" stroke="white"/>
<line x1="4.2447e-08" y1="151" x2="382" y2="151" stroke="white" stroke-opacity="0.4" stroke-dasharray="8 8"/>
<path d="M0 169.5H382" stroke="white"/>
<path d="M0 187.5H382" stroke="white"/>
<path d="M0 205.5H382" stroke="white"/>
<path d="M0 223.5H382" stroke="white"/>
<path d="M0 241.5H382" stroke="white"/>
<line x1="4.2447e-08" y1="259" x2="382" y2="259" stroke="white" stroke-opacity="0.4" stroke-dasharray="8 8"/>
<line x1="4.2447e-08" y1="277" x2="382" y2="277" stroke="white" stroke-opacity="0.4" stroke-dasharray="8 8"/>
<path d="M28.6631 96.9376C26.8783 97.5422 25.4034 98.5625 24.2381 99.9993C23.0727 101.435 22.3626 103.004 22.1077 104.705C21.8527 106.406 22.0622 108.088 22.7359 109.751C23.4096 111.414 24.6751 112.756 26.5323 113.777C26.9693 113.777 27.2423 113.966 27.3519 114.344C27.4608 114.721 27.2968 114.91 26.8604 114.91C25.0757 114.533 23.5097 113.758 22.1623 112.586C19.6495 110.431 18.2657 107.654 18.0108 104.252C17.8651 102.551 18.0199 100.907 18.4751 99.3188C18.9303 97.7311 19.5585 96.2758 20.3597 94.9528C21.3429 93.5547 22.5082 92.3448 23.8557 91.3245C23.9285 91.2487 24.1379 91.0791 24.4839 90.8144C24.8298 90.5496 25.1667 90.3042 25.4945 90.0774C25.8222 89.8506 26.3138 89.4914 26.9693 88.9998L24.9482 78.9077C23.1637 80.4574 21.3976 82.1675 19.6496 84.0385C17.9015 85.9096 16.3174 87.8851 14.8971 89.9636C13.4769 92.0429 12.3388 94.2445 11.483 96.5691C10.6272 98.8938 10.1993 101.341 10.1993 103.912C10.1993 106.293 10.6818 108.532 11.6469 110.63C12.6119 112.728 13.8957 114.552 15.498 116.101C17.1003 117.651 18.9485 118.87 21.0425 119.759C23.1364 120.647 25.2577 121.091 27.4064 121.091C27.4794 121.091 27.8159 121.053 28.417 120.977C29.0181 120.902 29.655 120.808 30.3285 120.694C31.0027 120.581 31.6218 120.458 32.1864 120.325C32.7502 120.193 33.0329 120.051 33.0329 119.9L32.7048 118.313C31.2847 110.866 29.937 103.741 28.6631 96.9376V96.9376ZM30.5746 96.7108L35.0541 119.22C37.6398 118.199 39.3873 116.451 40.298 113.975C41.2086 111.5 41.4175 108.986 40.926 106.435C40.4345 103.883 39.2784 101.624 37.4572 99.6587C35.6366 97.6932 33.3424 96.7108 30.5746 96.7108V96.7108ZM24.8389 66.3778C25.9677 65.7725 27.0148 64.8659 27.9799 63.656C28.945 62.4468 29.837 61.1517 30.6567 59.7722C31.4756 58.3928 32.1864 56.9846 32.7868 55.5479C33.3879 54.1119 33.8704 52.8082 34.2344 51.6363C34.6349 50.3891 34.9079 48.9903 35.0541 47.4405C35.1995 45.8908 34.9631 44.5871 34.344 43.5282C33.907 42.5837 33.3334 42.0356 32.6234 41.8839C31.9127 41.733 31.2026 41.7895 30.4926 42.0542C29.7826 42.319 29.1091 42.744 28.4714 43.33C27.8345 43.916 27.3698 44.4354 27.0789 44.8891C26.2772 46.363 25.5761 48.0072 24.9755 49.8217C24.3746 51.6363 23.9649 53.5166 23.7465 55.4635C23.5279 57.4096 23.5006 59.2807 23.6645 61.0766C23.8284 62.8718 24.2198 64.6391 24.8389 66.3778V66.3778ZM23.2002 68.135C22.5811 65.6408 22.0349 63.1931 21.5614 60.7925C21.088 58.3928 20.8513 55.9264 20.8513 53.3935C20.8513 51.5418 20.9788 49.5098 21.2337 47.2989C21.4885 45.088 21.9529 42.9329 22.6266 40.835C23.3003 38.7372 24.2289 36.8568 25.4125 35.194C26.5964 33.5304 28.1709 32.3212 30.1376 31.565C30.3196 31.4898 30.5016 31.4519 30.6836 31.4519C30.9386 31.4519 31.2392 31.6029 31.5852 31.9055C31.9313 32.2075 32.2953 32.6518 32.6779 33.2378C33.0598 33.8238 33.3969 34.4284 33.6885 35.0523C33.9794 35.6755 34.1979 36.1012 34.344 36.3281C35.3271 38.2556 36.046 40.3063 36.5017 42.4792C36.9567 44.6529 37.2207 46.8166 37.2938 48.971C37.4392 52.2223 37.2662 55.4349 36.7747 58.6103C36.2832 61.785 35.2905 64.8845 33.7974 67.9082C33.2879 68.8155 32.7689 69.732 32.2408 70.6579C31.7128 71.5845 31.0848 72.4817 30.3561 73.3511C30.2107 73.5027 29.9466 73.7768 29.5641 74.1732C29.1815 74.5703 28.7899 74.9767 28.3894 75.3924C27.9889 75.8081 27.6339 76.1959 27.3243 76.5544C27.0148 76.9136 26.8604 77.1311 26.8604 77.2069L29.0994 88.5462C29.1139 88.6206 30.2196 88.5462 30.2196 88.5462C32.3566 88.5741 34.6191 88.9333 36.5837 89.7368C38.4774 90.6441 40.107 91.8912 41.4726 93.4789C42.8383 95.0666 43.9302 96.8525 44.7498 98.8366C45.5695 100.821 45.9789 102.834 45.9789 104.875C45.9789 106.916 45.6874 108.995 45.1048 111.112C43.6117 115.119 41.2265 118.086 37.9494 120.013C37.5847 120.24 37.0656 120.496 36.3921 120.779C35.7186 121.062 35.4546 121.507 35.6 122.111C36.4741 126.23 37.0656 129.063 37.3758 130.616C37.6853 132.168 37.9128 134.172 38.0583 136.626C38.2037 138.973 37.8122 141.083 36.8836 142.972C35.9551 144.868 34.708 146.407 33.1418 147.595C31.5763 148.789 30.1466 149.483 28.854 149.698C27.5608 149.906 26.6777 150.006 26.2048 150.006C24.5658 150.006 22.9635 149.684 21.3976 149.04C19.4674 148.289 17.8469 147.137 16.5359 145.584C15.2249 144.031 14.5694 142.142 14.5694 139.917C14.5694 138.515 14.9609 137.077 15.7438 135.603C16.5268 134.129 17.5556 133.07 18.8301 132.433C20.2504 131.675 21.5341 131.467 22.6813 131.803C23.8284 132.147 24.7752 132.791 25.5218 133.735C26.2683 134.68 26.7873 135.825 27.0789 137.163C27.3698 138.508 27.3519 139.76 27.0238 140.933C26.6963 142.107 26.0318 143.101 25.0302 143.91C24.0287 144.725 22.6357 145.09 20.8513 145.019C21.5796 146.378 22.5993 147.237 23.9103 147.595C25.2213 147.959 26.5688 147.981 27.9523 147.68C29.3366 147.38 30.6381 146.822 31.8582 146.006C33.0784 145.198 34.0345 144.318 34.7259 143.373C35.163 142.693 35.4911 141.806 35.7096 140.711C35.9282 139.61 36.0557 138.472 36.0915 137.277C36.1281 136.089 36.0915 135.159 35.9826 134.501C35.873 133.835 35.691 132.805 35.436 131.41C34.344 126.838 33.6519 123.961 33.3603 122.788C33.2149 122.414 32.8233 122.291 32.1864 122.423C31.5487 122.556 31.0117 122.679 30.5746 122.788C27.4429 123.21 24.8207 123.017 22.7086 122.225C19.431 121.318 16.545 119.701 14.0504 117.377C11.5559 115.053 9.55294 112.237 8.0416 108.929C6.53033 105.622 5.77466 103.108 5.77466 101.388C5.77466 99.6687 5.77466 98.5819 5.77466 98.1282C5.77466 95.0666 6.2845 92.1938 7.3042 89.51C9.23425 85.3143 11.5195 81.4591 14.1597 77.9439C16.7999 74.4286 19.8134 71.1588 23.2002 68.135V68.135Z" fill="white"/>
<path d="M49.0027 194.808C49.0027 197.22 47.3915 199.175 45.4038 199.175C43.4162 199.175 41.8049 197.22 41.8049 194.808C41.8049 192.396 43.4162 190.441 45.4038 190.441C47.3915 190.441 49.0027 192.396 49.0027 194.808ZM48.7543 180.042C48.7543 182.454 47.143 184.409 45.1553 184.409C43.1677 184.409 41.5564 182.454 41.5564 180.042C41.5564 177.63 43.1677 175.675 45.1553 175.675C47.143 175.675 48.7543 177.63 48.7543 180.042ZM6.36816 225.885C6.36816 225.261 8.96001 222.695 12.1278 220.182C18.9386 214.778 23.8572 208.867 26.7181 202.646C33.2787 188.379 31.2005 173.504 22.4568 172.146C17.6208 171.394 11.498 175.482 11.498 179.461C11.498 180.938 11.8241 181.057 15.3695 180.873C19.7073 180.649 22.6421 185.54 20.2946 189.082C16.5854 194.678 7.65063 191.463 7.65063 184.532C7.65063 178.458 10.8419 173.623 16.4586 171.189C28.4786 165.98 39.9203 175.583 38.9184 190.04C38.0973 201.89 29.1905 212.956 11.8995 223.611C7.79678 226.139 6.36816 226.726 6.36816 225.885V225.885Z" fill="white"/>
<path fill-rule="evenodd" clip-rule="evenodd" d="M62.9121 85.8707L63.2327 40.3463L64.8354 40.3594L64.5149 85.8837L62.9121 85.8707Z" fill="white"/>
<path d="M59.7994 70.9746L75.7964 65.5227L75.7964 71.793L59.7994 77.3111L59.7994 70.9746Z" fill="white"/>
<path fill-rule="evenodd" clip-rule="evenodd" d="M70.6056 83.4565L70.9261 37.9321L72.5289 37.9452L72.2084 83.4696L70.6056 83.4565Z" fill="white"/>
<path d="M59.6956 52.8058L75.6926 47.3539L75.6926 53.6241L59.6956 59.1422L59.6956 52.8058Z" fill="white"/>
<path fill-rule="evenodd" clip-rule="evenodd" d="M82.2494 112.426L82.57 66.9021L84.1728 66.9152L83.8522 112.44L82.2494 112.426Z" fill="white"/>
<path d="M79.1364 97.5306L95.1334 92.0787L95.1334 98.349L79.1364 103.867L79.1364 97.5306Z" fill="white"/>
<path fill-rule="evenodd" clip-rule="evenodd" d="M89.9431 110.013L90.2637 64.4884L91.8665 64.5015L91.5459 110.026L89.9431 110.013Z" fill="white"/>
<path d="M79.0331 79.3621L95.0302 73.9102L95.0302 80.1804L79.0331 85.6985L79.0331 79.3621Z" fill="white"/>
<path fill-rule="evenodd" clip-rule="evenodd" d="M62.9121 210.871L63.2327 165.346L64.8354 165.359L64.5149 210.884L62.9121 210.871Z" fill="white"/>
<path d="M59.7994 195.975L75.7964 190.523L75.7964 196.793L59.7994 202.311L59.7994 195.975Z" fill="white"/>
<path fill-rule="evenodd" clip-rule="evenodd" d="M70.6056 208.457L70.9261 162.932L72.5289 162.945L72.2084 208.47L70.6056 208.457Z" fill="white"/>
<path d="M59.6956 177.806L75.6926 172.354L75.6926 178.624L59.6956 184.142L59.6956 177.806Z" fill="white"/>
<path fill-rule="evenodd" clip-rule="evenodd" d="M82.2494 237.426L82.57 191.902L84.1728 191.915L83.8522 237.44L82.2494 237.426Z" fill="white"/>
<path d="M79.1364 222.531L95.1334 217.079L95.1334 223.349L79.1364 228.867L79.1364 222.531Z" fill="white"/>
<path fill-rule="evenodd" clip-rule="evenodd" d="M89.9431 235.013L90.2637 189.488L91.8665 189.501L91.5459 235.026L89.9431 235.013Z" fill="white"/>
<path d="M79.0331 204.362L95.0302 198.91L95.0302 205.18L79.0331 210.699L79.0331 204.362Z" fill="white"/>
<g clip-path="url(#clip0_115_4468)">
<path d="M211.396 84.1579C209.333 80.9233 211.544 76.2736 216.26 73.7802C220.977 71.2869 226.504 71.7586 228.568 74.9932C230.631 78.2278 228.42 82.8775 223.704 85.4383C218.987 87.9316 213.46 87.3925 211.396 84.1579Z" fill="white"/>
<path d="M235.116 75.2733C233.052 72.0387 235.263 67.3889 239.98 64.8956C244.696 62.4023 250.223 62.874 252.287 66.1086C254.35 69.3432 252.14 73.9929 247.423 76.5536C242.706 79.047 237.179 78.5079 235.116 75.2733V75.2733Z" fill="white"/>
<path d="M258.835 66.3886C256.772 63.154 258.983 58.5043 263.699 56.011C268.416 53.5176 273.943 53.9893 276.006 57.2239C278.07 60.4585 275.859 65.1083 271.142 67.669C266.426 70.1623 260.899 69.6232 258.835 66.3886V66.3886Z" fill="#232323"/>
<path d="M282.555 57.504C280.491 54.2694 282.702 49.6196 287.419 47.1263C292.135 44.633 297.662 45.1047 299.726 48.3393C301.789 51.5739 299.579 56.2236 294.862 58.7843C290.145 61.2777 284.618 60.7386 282.555 57.504V57.504Z" fill="white"/>
<path d="M306.274 48.6195C304.211 45.3849 306.421 40.7351 311.138 38.2418C315.855 35.7485 321.382 36.2202 323.445 39.4548C325.509 42.6894 323.298 47.3391 318.581 49.8998C313.865 52.3932 308.338 51.8541 306.274 48.6195V48.6195Z" fill="white"/>
<path d="M329.994 39.7348C327.93 36.5002 330.141 31.8505 334.858 29.3571C339.574 26.8638 345.101 27.3355 347.165 30.5701C349.228 33.8047 347.018 38.4544 342.301 41.0152C337.584 43.5085 332.057 42.9694 329.994 39.7348V39.7348Z" fill="white"/>
<path d="M353.713 30.8502C351.65 27.6156 353.86 22.9658 358.577 20.4725C363.294 17.9792 368.821 18.4509 370.884 21.6855C372.948 24.9201 370.737 29.5698 366.02 32.1305C361.304 34.6239 355.777 34.0848 353.713 30.8502V30.8502Z" fill="#232323"/>
<path d="M211.396 147.163C209.333 143.934 211.544 139.292 216.26 136.803C220.977 134.313 226.504 134.784 228.568 138.013C230.631 141.243 228.42 145.884 223.704 148.441C218.987 150.93 213.46 150.392 211.396 147.163Z" fill="white"/>
<path d="M235.116 138.293C233.052 135.064 235.263 130.422 239.98 127.933C244.696 125.444 250.223 125.915 252.287 129.144C254.35 132.373 252.14 137.015 247.423 139.571C242.706 142.06 237.179 141.522 235.116 138.293V138.293Z" fill="white"/>
<path d="M258.835 129.424C256.772 126.194 258.983 121.553 263.699 119.063C268.416 116.574 273.943 117.045 276.006 120.274C278.07 123.503 275.859 128.145 271.142 130.702C266.426 133.191 260.899 132.653 258.835 129.424V129.424Z" fill="#232323"/>
<path d="M282.555 120.554C280.491 117.325 282.702 112.683 287.419 110.194C292.135 107.705 297.662 108.176 299.726 111.405C301.789 114.634 299.579 119.276 294.862 121.832C290.145 124.321 284.618 123.783 282.555 120.554V120.554Z" fill="white"/>
<path d="M306.274 111.684C304.211 108.455 306.421 103.813 311.138 101.324C315.855 98.8352 321.382 99.3061 323.445 102.535C325.509 105.764 323.298 110.406 318.581 112.963C313.865 115.452 308.338 114.914 306.274 111.684V111.684Z" fill="white"/>
<path d="M329.994 102.815C327.93 99.5856 330.141 94.9438 334.858 92.4547C339.574 89.9656 345.101 90.4365 347.165 93.6656C349.228 96.8947 347.018 101.537 342.301 104.093C337.584 106.582 332.057 106.044 329.994 102.815V102.815Z" fill="white"/>
<path d="M353.713 93.9453C351.65 90.7161 353.86 86.0743 358.577 83.5852C363.294 81.0961 368.821 81.567 370.884 84.7961C372.948 88.0252 370.737 92.6671 366.02 95.2234C361.304 97.7126 355.777 97.1744 353.713 93.9453V93.9453Z" fill="#232323"/>
<path d="M211.396 210.163C209.333 206.934 211.544 202.292 216.26 199.803C220.977 197.313 226.504 197.784 228.568 201.013C230.631 204.243 228.42 208.884 223.704 211.441C218.987 213.93 213.46 213.392 211.396 210.163Z" fill="white"/>
<path d="M235.116 201.293C233.052 198.064 235.263 193.422 239.98 190.933C244.696 188.444 250.223 188.915 252.287 192.144C254.35 195.373 252.14 200.015 247.423 202.571C242.706 205.06 237.179 204.522 235.116 201.293V201.293Z" fill="white"/>
<path d="M258.835 192.424C256.772 189.194 258.983 184.553 263.699 182.063C268.416 179.574 273.943 180.045 276.006 183.274C278.07 186.503 275.859 191.145 271.142 193.702C266.426 196.191 260.899 195.653 258.835 192.424V192.424Z" fill="#232323"/>
<path d="M282.555 183.554C280.491 180.325 282.702 175.683 287.419 173.194C292.135 170.705 297.662 171.176 299.726 174.405C301.789 177.634 299.579 182.276 294.862 184.832C290.145 187.321 284.618 186.783 282.555 183.554V183.554Z" fill="white"/>
<path d="M306.274 174.684C304.211 171.455 306.421 166.813 311.138 164.324C315.855 161.835 321.382 162.306 323.445 165.535C325.509 168.764 323.298 173.406 318.581 175.963C313.865 178.452 308.338 177.914 306.274 174.684V174.684Z" fill="white"/>
<path d="M329.994 165.815C327.93 162.586 330.141 157.944 334.858 155.455C339.574 152.966 345.101 153.436 347.165 156.666C349.228 159.895 347.018 164.537 342.301 167.093C337.584 169.582 332.057 169.044 329.994 165.815V165.815Z" fill="white"/>
<path d="M353.713 156.945C351.65 153.716 353.86 149.074 358.577 146.585C363.294 144.096 368.821 144.567 370.884 147.796C372.948 151.025 370.737 155.667 366.02 158.223C361.304 160.713 355.777 160.174 353.713 156.945V156.945Z" fill="#232323"/>
<path d="M211.396 273.163C209.333 269.934 211.544 265.292 216.26 262.803C220.977 260.313 226.504 260.784 228.568 264.013C230.631 267.243 228.42 271.884 223.704 274.441C218.987 276.93 213.46 276.392 211.396 273.163Z" fill="white"/>
<path d="M235.116 264.293C233.052 261.064 235.263 256.422 239.98 253.933C244.696 251.444 250.223 251.915 252.287 255.144C254.35 258.373 252.14 263.015 247.423 265.571C242.706 268.06 237.179 267.522 235.116 264.293V264.293Z" fill="white"/>
<path d="M258.835 255.424C256.772 252.194 258.983 247.553 263.699 245.063C268.416 242.574 273.943 243.045 276.006 246.274C278.07 249.503 275.859 254.145 271.142 256.702C266.426 259.191 260.899 258.653 258.835 255.424V255.424Z" fill="#232323"/>
<path d="M282.555 246.554C280.491 243.325 282.702 238.683 287.419 236.194C292.135 233.705 297.662 234.176 299.726 237.405C301.789 240.634 299.579 245.276 294.862 247.832C290.145 250.321 284.618 249.783 282.555 246.554V246.554Z" fill="white"/>
<path d="M306.274 237.684C304.211 234.455 306.421 229.813 311.138 227.324C315.855 224.835 321.382 225.306 323.445 228.535C325.509 231.764 323.298 236.406 318.581 238.963C313.865 241.452 308.338 240.914 306.274 237.684V237.684Z" fill="white"/>
<path d="M329.994 228.815C327.93 225.586 330.141 220.944 334.858 218.455C339.574 215.966 345.101 216.436 347.165 219.666C349.228 222.895 347.018 227.537 342.301 230.093C337.584 232.582 332.057 232.044 329.994 228.815V228.815Z" fill="white"/>
<path d="M353.713 219.945C351.65 216.716 353.86 212.074 358.577 209.585C363.294 207.096 368.821 207.567 370.884 210.796C372.948 214.025 370.737 218.667 366.02 221.223C361.304 223.713 355.777 223.174 353.713 219.945V219.945Z" fill="#232323"/>
<path d="M306.274 300.684C304.211 297.455 306.421 292.813 311.138 290.324C315.855 287.835 321.382 288.306 323.445 291.535C325.509 294.764 323.298 299.406 318.581 301.963C313.865 304.452 308.338 303.914 306.274 300.684V300.684Z" fill="white"/>
<path d="M329.994 291.815C327.93 288.586 330.141 283.944 334.858 281.455C339.574 278.966 345.101 279.436 347.165 282.666C349.228 285.895 347.018 290.537 342.301 293.093C337.584 295.582 332.057 295.044 329.994 291.815V291.815Z" fill="white"/>
<path d="M353.713 282.945C351.65 279.716 353.86 275.074 358.577 272.585C363.294 270.096 368.821 270.567 370.884 273.796C372.948 277.025 370.737 281.667 366.02 284.223C361.304 286.713 355.777 286.174 353.713 282.945V282.945Z" fill="#232323"/>
</g>
<path d="M411.774 281.121C409.711 277.844 411.921 273.134 416.638 270.608C421.355 268.083 426.882 268.561 428.945 271.837C431.009 275.114 428.798 279.824 424.081 282.418C419.365 284.944 413.838 284.398 411.774 281.121Z" fill="#232323"/>
<path d="M435.494 272.121C433.43 268.844 435.641 264.134 440.358 261.608C445.074 259.083 450.601 259.561 452.665 262.837C454.728 266.114 452.518 270.824 447.801 273.418C443.084 275.944 437.557 275.398 435.494 272.121V272.121Z" fill="white"/>
<path d="M459.213 263.121C457.15 259.844 459.36 255.134 464.077 252.608C468.794 250.083 474.321 250.561 476.384 253.837C478.448 257.114 476.237 261.824 471.52 264.418C466.804 266.944 461.277 266.398 459.213 263.121V263.121Z" fill="white"/>
<path d="M482.933 254.121C480.869 250.844 483.08 246.134 487.797 243.608C492.513 241.083 498.04 241.561 500.104 244.837C502.167 248.114 499.956 252.824 495.24 255.418C490.523 257.944 484.996 257.398 482.933 254.121V254.121Z" fill="#232323"/>
<path d="M506.652 245.121C504.589 241.844 506.799 237.134 511.516 234.608C516.233 232.083 521.76 232.561 523.823 235.837C525.887 239.114 523.676 243.824 518.959 246.418C514.243 248.944 508.716 248.398 506.652 245.121V245.121Z" fill="white"/>
<path d="M530.371 236.121C528.308 232.844 530.519 228.134 535.235 225.608C539.952 223.083 545.479 223.561 547.543 226.837C549.606 230.114 547.395 234.824 542.679 237.418C537.962 239.944 532.435 239.398 530.371 236.121V236.121Z" fill="white"/>
<path d="M554.091 227.121C552.027 223.844 554.238 219.134 558.955 216.608C563.672 214.083 569.199 214.561 571.262 217.837C573.326 221.114 571.115 225.824 566.398 228.418C561.682 230.944 556.154 230.398 554.091 227.121V227.121Z" fill="white"/>
<path d="M411.774 219.121C409.711 215.844 411.921 211.134 416.638 208.608C421.355 206.083 426.882 206.561 428.945 209.837C431.009 213.114 428.798 217.824 424.081 220.418C419.365 222.944 413.838 222.398 411.774 219.121Z" fill="#232323"/>
<path d="M435.494 210.121C433.43 206.844 435.641 202.134 440.358 199.608C445.074 197.083 450.601 197.561 452.665 200.837C454.728 204.114 452.518 208.824 447.801 211.418C443.084 213.944 437.557 213.398 435.494 210.121V210.121Z" fill="white"/>
<path d="M459.213 201.121C457.15 197.844 459.36 193.134 464.077 190.608C468.794 188.083 474.321 188.561 476.384 191.837C478.448 195.114 476.237 199.824 471.52 202.418C466.804 204.944 461.277 204.398 459.213 201.121V201.121Z" fill="white"/>
<path d="M482.933 192.121C480.869 188.844 483.08 184.134 487.797 181.608C492.513 179.083 498.04 179.561 500.104 182.837C502.167 186.114 499.956 190.824 495.24 193.418C490.523 195.944 484.996 195.398 482.933 192.121V192.121Z" fill="#232323"/>
<path d="M506.652 183.121C504.589 179.844 506.799 175.134 511.516 172.608C516.233 170.083 521.76 170.561 523.823 173.837C525.887 177.114 523.676 181.824 518.959 184.418C514.243 186.944 508.716 186.398 506.652 183.121V183.121Z" fill="white"/>
<path d="M530.371 174.121C528.308 170.844 530.519 166.134 535.235 163.608C539.952 161.083 545.479 161.561 547.543 164.837C549.606 168.114 547.395 172.824 542.679 175.418C537.962 177.944 532.435 177.398 530.371 174.121V174.121Z" fill="white"/>
<path d="M554.091 165.121C552.027 161.844 554.238 157.134 558.955 154.608C563.672 152.083 569.199 152.561 571.262 155.837C573.326 159.114 571.115 163.824 566.398 166.418C561.682 168.944 556.154 168.398 554.091 165.121V165.121Z" fill="white"/>
<path d="M411.774 156.121C409.711 152.844 411.921 148.134 416.638 145.608C421.355 143.083 426.882 143.561 428.945 146.837C431.009 150.114 428.798 154.824 424.081 157.418C419.365 159.944 413.838 159.398 411.774 156.121Z" fill="#232323"/>
<path d="M435.494 147.121C433.43 143.844 435.641 139.134 440.358 136.608C445.074 134.083 450.601 134.561 452.665 137.837C454.728 141.114 452.518 145.824 447.801 148.418C443.084 150.944 437.557 150.398 435.494 147.121V147.121Z" fill="white"/>
<path d="M459.213 138.121C457.15 134.844 459.36 130.134 464.077 127.608C468.794 125.083 474.321 125.561 476.384 128.837C478.448 132.114 476.237 136.824 471.52 139.418C466.804 141.944 461.277 141.398 459.213 138.121V138.121Z" fill="white"/>
<path d="M482.933 129.121C480.869 125.844 483.08 121.134 487.797 118.608C492.513 116.083 498.04 116.561 500.104 119.837C502.167 123.114 499.956 127.824 495.24 130.418C490.523 132.944 484.996 132.398 482.933 129.121V129.121Z" fill="#232323"/>
<path d="M506.652 120.121C504.589 116.844 506.799 112.134 511.516 109.608C516.233 107.083 521.76 107.561 523.823 110.837C525.887 114.114 523.676 118.824 518.959 121.418C514.243 123.944 508.716 123.398 506.652 120.121V120.121Z" fill="white"/>
<path d="M530.371 111.121C528.308 107.844 530.519 103.134 535.235 100.608C539.952 98.0828 545.479 98.5606 547.543 101.837C549.606 105.114 547.395 109.824 542.679 112.418C537.962 114.944 532.435 114.398 530.371 111.121V111.121Z" fill="white"/>
<path d="M554.091 102.121C552.027 98.8443 554.238 94.1342 558.955 91.6085C563.672 89.0828 569.199 89.5606 571.262 92.8372C573.326 96.1138 571.115 100.824 566.398 103.418C561.682 105.944 556.154 105.398 554.091 102.121V102.121Z" fill="white"/>
<path d="M411.774 93.1209C409.711 89.8443 411.921 85.1342 416.638 82.6085C421.355 80.0828 426.882 80.5606 428.945 83.8372C431.009 87.1138 428.798 91.8239 424.081 94.4179C419.365 96.9436 413.838 96.3975 411.774 93.1209Z" fill="#232323"/>
<path d="M435.494 84.1209C433.43 80.8443 435.641 76.1342 440.358 73.6085C445.074 71.0828 450.601 71.5606 452.665 74.8372C454.728 78.1138 452.518 82.8239 447.801 85.4179C443.084 87.9436 437.557 87.3975 435.494 84.1209V84.1209Z" fill="white"/>
<path d="M459.213 75.1209C457.15 71.8443 459.36 67.1342 464.077 64.6085C468.794 62.0828 474.321 62.5606 476.384 65.8372C478.448 69.1138 476.237 73.8239 471.52 76.4179C466.804 78.9436 461.277 78.3975 459.213 75.1209V75.1209Z" fill="white"/>
<path d="M482.933 66.1209C480.869 62.8443 483.08 58.1342 487.797 55.6085C492.513 53.0828 498.04 53.5606 500.104 56.8372C502.167 60.1138 499.956 64.8239 495.24 67.4179C490.523 69.9436 484.996 69.3975 482.933 66.1209V66.1209Z" fill="#232323"/>
<path d="M506.652 57.1209C504.589 53.8443 506.799 49.1342 511.516 46.6085C516.233 44.0828 521.76 44.5606 523.823 47.8372C525.887 51.1138 523.676 55.8239 518.959 58.4179C514.243 60.9436 508.716 60.3975 506.652 57.1209V57.1209Z" fill="white"/>
<path d="M530.371 48.1209C528.308 44.8443 530.519 40.1342 535.235 37.6085C539.952 35.0828 545.479 35.5606 547.543 38.8372C549.606 42.1138 547.395 46.8239 542.679 49.4179C537.962 51.9436 532.435 51.3975 530.371 48.1209V48.1209Z" fill="white"/>
<path d="M554.091 39.1209C552.027 35.8443 554.238 31.1342 558.955 28.6085C563.672 26.0828 569.199 26.5606 571.262 29.8372C573.326 33.1138 571.115 37.8239 566.398 40.4179C561.682 42.9436 556.154 42.3975 554.091 39.1209V39.1209Z" fill="white"/>
<defs>
<clipPath id="clip0_115_4468">
<rect width="174" height="284" fill="white" transform="translate(208 10)"/>
</clipPath>
</defs>
</svg>
