<svg width="411" height="303" viewBox="0 0 411 303" fill="none" xmlns="http://www.w3.org/2000/svg">
<line y1="24.9999" x2="387" y2="24.9999" stroke="white" stroke-opacity="0.4" stroke-dasharray="8 8"/>
<line y1="42.9999" x2="387" y2="42.9999" stroke="white" stroke-opacity="0.4" stroke-dasharray="8 8"/>
<path d="M0 61.4999H387" stroke="white"/>
<path d="M0 79.4999H387" stroke="white"/>
<path d="M0 97.4999H387" stroke="white"/>
<path d="M0 115.5H387" stroke="white"/>
<path d="M0 133.5H387" stroke="white"/>
<line x1="4.2447e-08" y1="151" x2="387" y2="151" stroke="white" stroke-opacity="0.4" stroke-dasharray="8 8"/>
<path d="M0 169.5H387" stroke="white"/>
<path d="M0 187.5H387" stroke="white"/>
<path d="M0 205.5H387" stroke="white"/>
<path d="M0 223.5H387" stroke="white"/>
<path d="M0 241.5H387" stroke="white"/>
<line x1="4.2447e-08" y1="259" x2="387" y2="259" stroke="white" stroke-opacity="0.4" stroke-dasharray="8 8"/>
<line x1="4.2447e-08" y1="277" x2="387" y2="277" stroke="white" stroke-opacity="0.4" stroke-dasharray="8 8"/>
<path d="M28.6631 96.9377C26.8783 97.5423 25.4034 98.5626 24.2381 99.9993C23.0727 101.435 22.3626 103.004 22.1077 104.705C21.8527 106.406 22.0622 108.088 22.7359 109.751C23.4096 111.414 24.6751 112.756 26.5323 113.777C26.9693 113.777 27.2423 113.966 27.3519 114.344C27.4608 114.722 27.2968 114.91 26.8604 114.91C25.0757 114.533 23.5097 113.758 22.1623 112.586C19.6495 110.431 18.2657 107.654 18.0108 104.252C17.8651 102.551 18.0199 100.907 18.4751 99.3189C18.9303 97.7312 19.5585 96.2758 20.3597 94.9529C21.3429 93.5548 22.5083 92.3449 23.8557 91.3246C23.9285 91.2487 24.138 91.0792 24.4839 90.8144C24.8299 90.5497 25.1667 90.3043 25.4945 90.0774C25.8223 89.8506 26.3138 89.4915 26.9693 88.9999L24.9482 78.9077C23.1638 80.4575 21.3976 82.1676 19.6496 84.0386C17.9015 85.9096 16.3174 87.8851 14.8971 89.9637C13.4769 92.0429 12.3388 94.2445 11.483 96.5692C10.6272 98.8939 10.1994 101.341 10.1994 103.912C10.1994 106.293 10.6818 108.532 11.6469 110.63C12.612 112.728 13.8957 114.552 15.498 116.101C17.1003 117.651 18.9485 118.87 21.0425 119.759C23.1365 120.647 25.2577 121.091 27.4064 121.091C27.4795 121.091 27.8159 121.053 28.417 120.977C29.0181 120.902 29.6551 120.808 30.3286 120.694C31.0027 120.581 31.6218 120.458 32.1864 120.325C32.7503 120.193 33.0329 120.051 33.0329 119.9L32.7048 118.313C31.2847 110.866 29.937 103.741 28.6631 96.9377ZM30.5747 96.7109L35.0541 119.22C37.6399 118.199 39.3874 116.451 40.298 113.975C41.2086 111.5 41.4175 108.986 40.926 106.435C40.4345 103.883 39.2784 101.624 37.4572 99.6588C35.6366 97.6933 33.3424 96.7109 30.5747 96.7109ZM24.839 66.3778C25.9677 65.7725 27.0148 64.866 27.9799 63.6561C28.945 62.4469 29.8371 61.1518 30.6567 59.7723C31.4756 58.3928 32.1864 56.9847 32.7868 55.548C33.3879 54.112 33.8705 52.8083 34.2344 51.6363C34.635 50.3892 34.9079 48.9904 35.0541 47.4406C35.1995 45.8908 34.9631 44.5872 34.344 43.5282C33.907 42.5838 33.3335 42.0357 32.6234 41.884C31.9127 41.733 31.2027 41.7896 30.4926 42.0543C29.7826 42.319 29.1091 42.744 28.4714 43.33C27.8345 43.916 27.3699 44.4355 27.0789 44.8891C26.2772 46.3631 25.5762 48.0073 24.9755 49.8218C24.3746 51.6363 23.9649 53.5167 23.7465 55.4635C23.5279 57.4097 23.5007 59.2808 23.6645 61.0767C23.8284 62.8719 24.2199 64.6392 24.839 66.3778ZM23.2002 68.1351C22.5811 65.6409 22.0349 63.1931 21.5614 60.7926C21.088 58.3928 20.8513 55.9265 20.8513 53.3936C20.8513 51.5419 20.9788 49.5098 21.2337 47.2989C21.4886 45.088 21.9529 42.9329 22.6266 40.8351C23.3003 38.7372 24.229 36.8569 25.4125 35.194C26.5964 33.5305 28.1709 32.3213 30.1376 31.565C30.3196 31.4899 30.5016 31.452 30.6836 31.452C30.9386 31.452 31.2392 31.6029 31.5853 31.9056C31.9313 32.2075 32.2953 32.6519 32.6779 33.2379C33.0598 33.8239 33.3969 34.4285 33.6885 35.0524C33.9794 35.6756 34.1979 36.1013 34.344 36.3281C35.3271 38.2557 36.0461 40.3063 36.5017 42.4793C36.9567 44.653 37.2207 46.8167 37.2938 48.9711C37.4392 52.2223 37.2662 55.4349 36.7747 58.6103C36.2832 61.785 35.2905 64.8846 33.7974 67.9083C33.288 68.8155 32.7689 69.7321 32.2408 70.658C31.7128 71.5845 31.0848 72.4818 30.3561 73.3511C30.2107 73.5028 29.9467 73.7768 29.5641 74.1732C29.1815 74.5703 28.7899 74.9767 28.3894 75.3925C27.9889 75.8082 27.6339 76.196 27.3244 76.5544C27.0148 76.9136 26.8604 77.1311 26.8604 77.207L29.0994 88.5463C29.1139 88.6207 30.2196 88.5463 30.2196 88.5463C32.3566 88.5742 34.6191 88.9334 36.5838 89.7369C38.4774 90.6441 40.107 91.8913 41.4727 93.479C42.8383 95.0667 43.9302 96.8525 44.7498 98.8366C45.5695 100.821 45.979 102.834 45.979 104.875C45.979 106.916 45.6874 108.995 45.1049 111.112C43.6117 115.119 41.2266 118.086 37.9494 120.013C37.5847 120.24 37.0656 120.496 36.3921 120.779C35.7186 121.062 35.4546 121.507 35.6001 122.111C36.4742 126.23 37.0656 129.063 37.3758 130.616C37.6853 132.168 37.9128 134.172 38.0583 136.626C38.2037 138.973 37.8122 141.084 36.8836 142.972C35.9551 144.869 34.708 146.407 33.1418 147.595C31.5763 148.79 30.1466 149.484 28.854 149.698C27.5608 149.906 26.6777 150.006 26.2048 150.006C24.5658 150.006 22.9635 149.684 21.3976 149.04C19.4674 148.289 17.8469 147.137 16.5359 145.584C15.2249 144.031 14.5694 142.142 14.5694 139.917C14.5694 138.515 14.9609 137.077 15.7438 135.603C16.5268 134.129 17.5556 133.07 18.8301 132.433C20.2504 131.675 21.5341 131.467 22.6813 131.803C23.8284 132.147 24.7752 132.791 25.5218 133.735C26.2683 134.68 26.7874 135.825 27.0789 137.163C27.3699 138.508 27.3519 139.76 27.0238 140.933C26.6964 142.107 26.0318 143.101 25.0302 143.91C24.0287 144.725 22.6357 145.09 20.8513 145.019C21.5796 146.378 22.5993 147.237 23.9103 147.595C25.2213 147.96 26.5688 147.981 27.9524 147.68C29.3366 147.38 30.6381 146.822 31.8582 146.006C33.0784 145.198 34.0345 144.318 34.726 143.373C35.163 142.693 35.4911 141.806 35.7097 140.711C35.9282 139.61 36.0557 138.472 36.0916 137.277C36.1281 136.089 36.0916 135.159 35.9826 134.501C35.873 133.835 35.691 132.805 35.436 131.41C34.344 126.838 33.6519 123.962 33.3603 122.788C33.2149 122.414 32.8233 122.291 32.1864 122.423C31.5487 122.556 31.0117 122.679 30.5747 122.788C27.4429 123.21 24.8208 123.017 22.7086 122.225C19.431 121.318 16.545 119.701 14.0504 117.377C11.5559 115.053 9.55295 112.237 8.04161 108.929C6.53034 105.622 5.77467 103.108 5.77467 101.388C5.77467 99.6688 5.77467 98.5819 5.77467 98.1283C5.77467 95.0667 6.28452 92.1939 7.30421 89.5101C9.23426 85.3143 11.5195 81.4592 14.1597 77.9439C16.7999 74.4287 19.8134 71.1588 23.2002 68.1351Z" fill="white"/>
<path d="M49.0027 194.808C49.0027 197.22 47.3914 199.175 45.4038 199.175C43.4162 199.175 41.8049 197.22 41.8049 194.808C41.8049 192.396 43.4162 190.441 45.4038 190.441C47.3914 190.441 49.0027 192.396 49.0027 194.808ZM48.7543 180.042C48.7543 182.454 47.143 184.409 45.1553 184.409C43.1677 184.409 41.5564 182.454 41.5564 180.042C41.5564 177.63 43.1677 175.675 45.1553 175.675C47.143 175.675 48.7543 177.63 48.7543 180.042ZM6.36815 225.885C6.36815 225.261 8.95999 222.695 12.1278 220.182C18.9386 214.778 23.8572 208.866 26.7181 202.645C33.2787 188.379 31.2004 173.504 22.4568 172.146C17.6208 171.394 11.498 175.482 11.498 179.461C11.498 180.938 11.8241 181.057 15.3694 180.873C19.7073 180.649 22.6421 185.54 20.2946 189.081C16.5853 194.678 7.65062 191.463 7.65062 184.532C7.65062 178.458 10.8419 173.623 16.4586 171.189C28.4786 165.98 39.9203 175.583 38.9184 190.04C38.0973 201.89 29.1904 212.956 11.8995 223.611C7.79676 226.139 6.36815 226.726 6.36815 225.885Z" fill="white"/>
<path d="M58 194.649H60.1039L59.9286 232.519L58 237.045V194.649Z" fill="white"/>
<path d="M67.4675 223.689C68.1688 221.872 68.3442 221.474 68.5195 220.247C68.6948 219.019 67.8182 217.967 67.8182 217.967C67.8182 217.967 65.8896 215.688 63.4351 216.389C60.9805 217.091 59.5779 219.545 59.5779 219.545V216.915C59.5779 216.915 60.4545 214.812 63.7857 213.584C65.013 213.234 66.5909 213.058 69.0454 213.76C70.448 214.286 70.448 214.11 72.2013 215.513C72.9026 216.214 73.7792 217.441 74.1299 219.545C74.1299 221.474 74.1299 221.825 73.3413 223.689C70.448 230.065 58 237.078 58 237.078L59.8413 232.28C59.8413 232.28 66.7662 225.506 67.4675 223.689Z" fill="white"/>
<path d="M58 67.6492H60.1039L59.9286 105.519L58 110.045V67.6492Z" fill="white"/>
<path d="M67.4675 96.6891C68.1688 94.8718 68.3442 94.4739 68.5195 93.2466C68.6948 92.0193 67.8182 90.9674 67.8182 90.9674C67.8182 90.9674 65.8896 88.6882 63.4351 89.3895C60.9805 90.0908 59.5779 92.5453 59.5779 92.5453V89.9154C59.5779 89.9154 60.4545 87.8116 63.7857 86.5843C65.013 86.2336 66.5909 86.0583 69.0454 86.7596C70.448 87.2856 70.448 87.1103 72.2013 88.5129C72.9026 89.2142 73.7792 90.4414 74.1299 92.5453C74.1299 94.4739 74.1299 94.8245 73.3413 96.6891C70.448 103.065 58 110.078 58 110.078L59.8413 105.28C59.8413 105.28 66.7662 98.5063 67.4675 96.6891Z" fill="white"/>
<g clip-path="url(#clip0_25_3599)">
<path d="M211.396 66.1209C209.333 62.8443 211.544 58.1342 216.26 55.6085C220.977 53.0828 226.504 53.5606 228.568 56.8372C230.631 60.1138 228.42 64.8239 223.704 67.4179C218.987 69.9436 213.46 69.3975 211.396 66.1209Z" fill="white"/>
<path d="M235.116 57.1209C233.052 53.8443 235.263 49.1342 239.98 46.6085C244.696 44.0828 250.223 44.5606 252.287 47.8372C254.35 51.1138 252.14 55.8239 247.423 58.4179C242.706 60.9436 237.179 60.3975 235.116 57.1209Z" fill="white"/>
<path d="M258.835 48.1209C256.772 44.8443 258.983 40.1342 263.699 37.6085C268.416 35.0828 273.943 35.5606 276.006 38.8372C278.07 42.1138 275.859 46.8239 271.142 49.4179C266.426 51.9436 260.899 51.3975 258.835 48.1209Z" fill="white"/>
<path d="M282.555 39.1209C280.491 35.8443 282.702 31.1342 287.419 28.6085C292.135 26.0828 297.662 26.5606 299.726 29.8372C301.789 33.1138 299.579 37.8239 294.862 40.4179C290.145 42.9436 284.618 42.3975 282.555 39.1209Z" fill="#232323"/>
<path d="M306.274 30.1209C304.211 26.8443 306.421 22.1342 311.138 19.6085C315.855 17.0828 321.382 17.5606 323.445 20.8372C325.509 24.1138 323.298 28.8239 318.581 31.4179C313.865 33.9436 308.338 33.3975 306.274 30.1209Z" fill="white"/>
<path d="M329.994 21.1209C327.93 17.8443 330.141 13.1342 334.858 10.6085C339.574 8.08276 345.101 8.56061 347.165 11.8372C349.228 15.1138 347.018 19.8239 342.301 22.4179C337.584 24.9436 332.057 24.3975 329.994 21.1209Z" fill="white"/>
<path d="M353.713 12.1209C351.65 8.84432 353.86 4.1342 358.577 1.60848C363.294 -0.917236 368.821 -0.439393 370.884 2.83721C372.948 6.11381 370.737 10.8239 366.02 13.4179C361.304 15.9436 355.777 15.3975 353.713 12.1209Z" fill="white"/>
<path d="M211.396 129.121C209.333 125.844 211.544 121.134 216.26 118.608C220.977 116.083 226.504 116.561 228.568 119.837C230.631 123.114 228.42 127.824 223.704 130.418C218.987 132.944 213.46 132.398 211.396 129.121Z" fill="white"/>
<path d="M235.116 120.121C233.052 116.844 235.263 112.134 239.98 109.608C244.696 107.083 250.223 107.561 252.287 110.837C254.35 114.114 252.14 118.824 247.423 121.418C242.706 123.944 237.179 123.398 235.116 120.121Z" fill="white"/>
<path d="M258.835 111.121C256.772 107.844 258.983 103.134 263.699 100.608C268.416 98.0828 273.943 98.5606 276.006 101.837C278.07 105.114 275.859 109.824 271.142 112.418C266.426 114.944 260.899 114.398 258.835 111.121Z" fill="white"/>
<path d="M282.555 102.121C280.491 98.8443 282.702 94.1342 287.419 91.6085C292.135 89.0828 297.662 89.5606 299.726 92.8372C301.789 96.1138 299.579 100.824 294.862 103.418C290.145 105.944 284.618 105.398 282.555 102.121Z" fill="#232323"/>
<path d="M306.274 93.1209C304.211 89.8443 306.421 85.1342 311.138 82.6085C315.855 80.0828 321.382 80.5606 323.445 83.8372C325.509 87.1138 323.298 91.8239 318.581 94.4179C313.865 96.9436 308.338 96.3975 306.274 93.1209Z" fill="white"/>
<path d="M329.994 84.1209C327.93 80.8443 330.141 76.1342 334.858 73.6085C339.574 71.0828 345.101 71.5606 347.165 74.8372C349.228 78.1138 347.018 82.8239 342.301 85.4179C337.584 87.9436 332.057 87.3975 329.994 84.1209Z" fill="white"/>
<path d="M353.713 75.1209C351.65 71.8443 353.86 67.1342 358.577 64.6085C363.294 62.0828 368.821 62.5606 370.884 65.8372C372.948 69.1138 370.737 73.8239 366.02 76.4179C361.304 78.9436 355.777 78.3975 353.713 75.1209Z" fill="white"/>
<path d="M211.396 192.121C209.333 188.844 211.544 184.134 216.26 181.608C220.977 179.083 226.504 179.561 228.568 182.837C230.631 186.114 228.42 190.824 223.704 193.418C218.987 195.944 213.46 195.398 211.396 192.121Z" fill="white"/>
<path d="M235.116 183.121C233.052 179.844 235.263 175.134 239.98 172.608C244.696 170.083 250.223 170.561 252.287 173.837C254.35 177.114 252.14 181.824 247.423 184.418C242.706 186.944 237.179 186.398 235.116 183.121Z" fill="white"/>
<path d="M258.835 174.121C256.772 170.844 258.983 166.134 263.699 163.608C268.416 161.083 273.943 161.561 276.006 164.837C278.07 168.114 275.859 172.824 271.142 175.418C266.426 177.944 260.899 177.398 258.835 174.121Z" fill="white"/>
<path d="M282.555 165.121C280.491 161.844 282.702 157.134 287.419 154.608C292.135 152.083 297.662 152.561 299.726 155.837C301.789 159.114 299.579 163.824 294.862 166.418C290.145 168.944 284.618 168.398 282.555 165.121Z" fill="#232323"/>
<path d="M306.274 156.121C304.211 152.844 306.421 148.134 311.138 145.608C315.855 143.083 321.382 143.561 323.445 146.837C325.509 150.114 323.298 154.824 318.581 157.418C313.865 159.944 308.338 159.398 306.274 156.121Z" fill="white"/>
<path d="M329.994 147.121C327.93 143.844 330.141 139.134 334.858 136.608C339.574 134.083 345.101 134.561 347.165 137.837C349.228 141.114 347.018 145.824 342.301 148.418C337.584 150.944 332.057 150.398 329.994 147.121Z" fill="white"/>
<path d="M353.713 138.121C351.65 134.844 353.86 130.134 358.577 127.608C363.294 125.083 368.821 125.561 370.884 128.837C372.948 132.114 370.737 136.824 366.02 139.418C361.304 141.944 355.777 141.398 353.713 138.121Z" fill="white"/>
<path d="M211.396 255.121C209.333 251.844 211.544 247.134 216.26 244.608C220.977 242.083 226.504 242.561 228.568 245.837C230.631 249.114 228.42 253.824 223.704 256.418C218.987 258.944 213.46 258.398 211.396 255.121Z" fill="white"/>
<path d="M235.116 246.121C233.052 242.844 235.263 238.134 239.98 235.608C244.696 233.083 250.223 233.561 252.287 236.837C254.35 240.114 252.14 244.824 247.423 247.418C242.706 249.944 237.179 249.398 235.116 246.121Z" fill="white"/>
<path d="M258.835 237.121C256.772 233.844 258.983 229.134 263.699 226.608C268.416 224.083 273.943 224.561 276.006 227.837C278.07 231.114 275.859 235.824 271.142 238.418C266.426 240.944 260.899 240.398 258.835 237.121Z" fill="white"/>
<path d="M282.555 228.121C280.491 224.844 282.702 220.134 287.419 217.608C292.135 215.083 297.662 215.561 299.726 218.837C301.789 222.114 299.579 226.824 294.862 229.418C290.145 231.944 284.618 231.398 282.555 228.121Z" fill="#232323"/>
<path d="M306.274 219.121C304.211 215.844 306.421 211.134 311.138 208.608C315.855 206.083 321.382 206.561 323.445 209.837C325.509 213.114 323.298 217.824 318.581 220.418C313.865 222.944 308.338 222.398 306.274 219.121Z" fill="white"/>
<path d="M329.994 210.121C327.93 206.844 330.141 202.134 334.858 199.608C339.574 197.083 345.101 197.561 347.165 200.837C349.228 204.114 347.018 208.824 342.301 211.418C337.584 213.944 332.057 213.398 329.994 210.121Z" fill="white"/>
<path d="M353.713 201.121C351.65 197.844 353.86 193.134 358.577 190.608C363.294 188.083 368.821 188.561 370.884 191.837C372.948 195.114 370.737 199.824 366.02 202.418C361.304 204.944 355.777 204.398 353.713 201.121Z" fill="white"/>
<path d="M258.835 300.121C256.772 296.844 258.983 292.134 263.699 289.608C268.416 287.083 273.943 287.561 276.006 290.837C278.07 294.114 275.859 298.824 271.142 301.418C266.426 303.944 260.899 303.398 258.835 300.121Z" fill="white"/>
<path d="M282.555 291.121C280.491 287.844 282.702 283.134 287.419 280.608C292.135 278.083 297.662 278.561 299.726 281.837C301.789 285.114 299.579 289.824 294.862 292.418C290.145 294.944 284.618 294.398 282.555 291.121Z" fill="#232323"/>
<path d="M306.274 282.121C304.211 278.844 306.421 274.134 311.138 271.608C315.855 269.083 321.382 269.561 323.445 272.837C325.509 276.114 323.298 280.824 318.581 283.418C313.865 285.944 308.338 285.398 306.274 282.121Z" fill="white"/>
<path d="M329.994 273.121C327.93 269.844 330.141 265.134 334.858 262.608C339.574 260.083 345.101 260.561 347.165 263.837C349.228 267.114 347.018 271.824 342.301 274.418C337.584 276.944 332.057 276.398 329.994 273.121Z" fill="white"/>
<path d="M353.713 264.121C351.65 260.844 353.86 256.134 358.577 253.608C363.294 251.083 368.821 251.561 370.884 254.837C372.948 258.114 370.737 262.824 366.02 265.418C361.304 267.944 355.777 267.398 353.713 264.121Z" fill="white"/>
</g>
<defs>
<clipPath id="clip0_25_3599">
<rect width="174" height="284" fill="white" transform="translate(208 10)"/>
</clipPath>
</defs>
</svg>
