<svg width="411" height="303" viewBox="0 0 411 303" fill="none" xmlns="http://www.w3.org/2000/svg">
<line y1="25" x2="387" y2="25" stroke="white" stroke-opacity="0.4" stroke-dasharray="8 8"/>
<line y1="43" x2="387" y2="43" stroke="white" stroke-opacity="0.4" stroke-dasharray="8 8"/>
<path d="M0 61.5H387" stroke="white"/>
<path d="M0 79.5H387" stroke="white"/>
<path d="M0 97.5H387" stroke="white"/>
<path d="M0 115.5H387" stroke="white"/>
<path d="M0 133.5H387" stroke="white"/>
<line x1="4.2447e-08" y1="151" x2="387" y2="151" stroke="white" stroke-opacity="0.4" stroke-dasharray="8 8"/>
<path d="M0 169.5H387" stroke="white"/>
<path d="M0 187.5H387" stroke="white"/>
<path d="M0 205.5H387" stroke="white"/>
<path d="M0 223.5H387" stroke="white"/>
<path d="M0 241.5H387" stroke="white"/>
<line x1="4.2447e-08" y1="259" x2="387" y2="259" stroke="white" stroke-opacity="0.4" stroke-dasharray="8 8"/>
<line x1="4.2447e-08" y1="277" x2="387" y2="277" stroke="white" stroke-opacity="0.4" stroke-dasharray="8 8"/>
<path d="M28.6631 96.9376C26.8783 97.5422 25.4034 98.5625 24.2381 99.9993C23.0727 101.435 22.3626 103.004 22.1077 104.705C21.8527 106.406 22.0622 108.088 22.7359 109.751C23.4096 111.414 24.6751 112.756 26.5323 113.777C26.9693 113.777 27.2423 113.966 27.3519 114.344C27.4608 114.721 27.2968 114.91 26.8604 114.91C25.0757 114.533 23.5097 113.758 22.1623 112.586C19.6495 110.431 18.2657 107.654 18.0108 104.252C17.8651 102.551 18.0199 100.907 18.4751 99.3188C18.9303 97.7311 19.5585 96.2758 20.3597 94.9528C21.3429 93.5547 22.5083 92.3448 23.8557 91.3245C23.9285 91.2487 24.138 91.0791 24.4839 90.8144C24.8299 90.5496 25.1667 90.3042 25.4945 90.0774C25.8223 89.8506 26.3138 89.4914 26.9693 88.9998L24.9482 78.9077C23.1638 80.4574 21.3976 82.1675 19.6496 84.0385C17.9015 85.9096 16.3174 87.8851 14.8971 89.9636C13.4769 92.0429 12.3388 94.2445 11.483 96.5692C10.6272 98.8938 10.1994 101.341 10.1994 103.912C10.1994 106.293 10.6818 108.532 11.6469 110.63C12.612 112.728 13.8957 114.552 15.498 116.101C17.1003 117.651 18.9485 118.87 21.0425 119.759C23.1365 120.647 25.2577 121.091 27.4064 121.091C27.4795 121.091 27.8159 121.053 28.417 120.977C29.0181 120.902 29.6551 120.808 30.3286 120.694C31.0027 120.581 31.6218 120.458 32.1864 120.325C32.7503 120.193 33.0329 120.051 33.0329 119.9L32.7048 118.313C31.2847 110.866 29.937 103.741 28.6631 96.9376ZM30.5747 96.7108L35.0541 119.22C37.6399 118.199 39.3874 116.451 40.298 113.975C41.2086 111.5 41.4175 108.986 40.926 106.435C40.4345 103.883 39.2784 101.624 37.4572 99.6587C35.6366 97.6932 33.3424 96.7108 30.5747 96.7108ZM24.839 66.3778C25.9677 65.7725 27.0148 64.8659 27.9799 63.656C28.945 62.4468 29.8371 61.1517 30.6567 59.7722C31.4756 58.3928 32.1864 56.9846 32.7868 55.5479C33.3879 54.1119 33.8705 52.8082 34.2344 51.6363C34.635 50.3891 34.9079 48.9903 35.0541 47.4405C35.1995 45.8908 34.9631 44.5871 34.344 43.5282C33.907 42.5837 33.3335 42.0356 32.6234 41.8839C31.9127 41.733 31.2027 41.7895 30.4926 42.0542C29.7826 42.319 29.1091 42.744 28.4714 43.33C27.8345 43.916 27.3699 44.4354 27.0789 44.8891C26.2772 46.363 25.5762 48.0072 24.9755 49.8217C24.3746 51.6363 23.9649 53.5166 23.7465 55.4635C23.5279 57.4096 23.5007 59.2807 23.6645 61.0766C23.8284 62.8718 24.2199 64.6391 24.839 66.3778ZM23.2002 68.135C22.5811 65.6408 22.0349 63.1931 21.5614 60.7925C21.088 58.3928 20.8513 55.9264 20.8513 53.3935C20.8513 51.5418 20.9788 49.5098 21.2337 47.2989C21.4886 45.088 21.9529 42.9329 22.6266 40.835C23.3003 38.7372 24.229 36.8568 25.4125 35.194C26.5964 33.5304 28.1709 32.3212 30.1376 31.565C30.3196 31.4898 30.5016 31.4519 30.6836 31.4519C30.9386 31.4519 31.2392 31.6029 31.5853 31.9055C31.9313 32.2075 32.2953 32.6518 32.6779 33.2378C33.0598 33.8238 33.3969 34.4284 33.6885 35.0523C33.9794 35.6755 34.1979 36.1012 34.344 36.3281C35.3271 38.2556 36.0461 40.3063 36.5017 42.4792C36.9567 44.6529 37.2207 46.8166 37.2938 48.971C37.4392 52.2223 37.2662 55.4349 36.7747 58.6103C36.2832 61.785 35.2905 64.8845 33.7974 67.9082C33.288 68.8155 32.7689 69.732 32.2408 70.6579C31.7128 71.5845 31.0848 72.4817 30.3561 73.3511C30.2107 73.5028 29.9467 73.7768 29.5641 74.1732C29.1815 74.5703 28.7899 74.9767 28.3894 75.3924C27.9889 75.8081 27.6339 76.1959 27.3244 76.5544C27.0148 76.9136 26.8604 77.1311 26.8604 77.2069L29.0994 88.5462C29.1139 88.6206 30.2196 88.5462 30.2196 88.5462C32.3566 88.5741 34.6191 88.9333 36.5838 89.7368C38.4774 90.6441 40.107 91.8912 41.4727 93.4789C42.8383 95.0666 43.9302 96.8525 44.7498 98.8366C45.5695 100.821 45.979 102.834 45.979 104.875C45.979 106.916 45.6874 108.995 45.1049 111.112C43.6117 115.119 41.2266 118.086 37.9494 120.013C37.5847 120.24 37.0656 120.496 36.3921 120.779C35.7186 121.062 35.4546 121.507 35.6001 122.111C36.4742 126.23 37.0656 129.063 37.3758 130.616C37.6853 132.168 37.9128 134.172 38.0583 136.626C38.2037 138.973 37.8122 141.083 36.8836 142.972C35.9551 144.868 34.708 146.407 33.1418 147.595C31.5763 148.789 30.1466 149.483 28.854 149.698C27.5608 149.906 26.6777 150.006 26.2048 150.006C24.5658 150.006 22.9635 149.684 21.3976 149.04C19.4674 148.289 17.8469 147.137 16.5359 145.584C15.2249 144.031 14.5694 142.142 14.5694 139.917C14.5694 138.515 14.9609 137.077 15.7438 135.603C16.5268 134.129 17.5556 133.07 18.8301 132.433C20.2504 131.675 21.5341 131.467 22.6813 131.803C23.8284 132.147 24.7752 132.791 25.5218 133.735C26.2683 134.68 26.7874 135.825 27.0789 137.163C27.3699 138.508 27.3519 139.76 27.0238 140.933C26.6964 142.107 26.0318 143.101 25.0302 143.91C24.0287 144.725 22.6357 145.09 20.8513 145.019C21.5796 146.378 22.5993 147.237 23.9103 147.595C25.2213 147.959 26.5688 147.981 27.9524 147.68C29.3366 147.38 30.6381 146.822 31.8582 146.006C33.0784 145.198 34.0345 144.318 34.726 143.373C35.163 142.693 35.4911 141.806 35.7097 140.711C35.9282 139.61 36.0557 138.472 36.0916 137.277C36.1281 136.089 36.0916 135.159 35.9826 134.501C35.873 133.835 35.691 132.805 35.436 131.41C34.344 126.838 33.6519 123.961 33.3603 122.788C33.2149 122.414 32.8233 122.291 32.1864 122.423C31.5487 122.556 31.0117 122.679 30.5747 122.788C27.4429 123.21 24.8208 123.017 22.7086 122.225C19.431 121.318 16.545 119.701 14.0504 117.377C11.5559 115.053 9.55295 112.237 8.04161 108.929C6.53034 105.622 5.77467 103.108 5.77467 101.388C5.77467 99.6687 5.77467 98.5819 5.77467 98.1282C5.77467 95.0666 6.28452 92.1938 7.30421 89.51C9.23426 85.3143 11.5195 81.4591 14.1597 77.9439C16.7999 74.4286 19.8134 71.1588 23.2002 68.135Z" fill="white"/>
<path d="M49.0027 194.808C49.0027 197.22 47.3914 199.175 45.4038 199.175C43.4162 199.175 41.8049 197.22 41.8049 194.808C41.8049 192.396 43.4162 190.441 45.4038 190.441C47.3914 190.441 49.0027 192.396 49.0027 194.808ZM48.7543 180.042C48.7543 182.454 47.143 184.409 45.1553 184.409C43.1677 184.409 41.5564 182.454 41.5564 180.042C41.5564 177.63 43.1677 175.675 45.1553 175.675C47.143 175.675 48.7543 177.63 48.7543 180.042ZM6.36815 225.885C6.36815 225.261 8.95999 222.695 12.1278 220.182C18.9386 214.778 23.8572 208.867 26.7181 202.646C33.2787 188.379 31.2004 173.504 22.4568 172.146C17.6208 171.394 11.498 175.482 11.498 179.461C11.498 180.938 11.8241 181.057 15.3694 180.873C19.7073 180.649 22.6421 185.54 20.2946 189.082C16.5853 194.678 7.65062 191.463 7.65062 184.532C7.65062 178.458 10.8419 173.623 16.4586 171.189C28.4786 165.98 39.9203 175.583 38.9184 190.04C38.0973 201.89 29.1904 212.956 11.8995 223.611C7.79676 226.139 6.36815 226.726 6.36815 225.885Z" fill="white"/>
<path fill-rule="evenodd" clip-rule="evenodd" d="M62.9121 85.8707L63.2327 40.3463L64.8355 40.3594L64.5149 85.8837L62.9121 85.8707Z" fill="white"/>
<path d="M59.7994 70.9746L75.7964 65.5227L75.7964 71.793L59.7994 77.3111L59.7994 70.9746Z" fill="white"/>
<path fill-rule="evenodd" clip-rule="evenodd" d="M70.6056 83.4565L70.9261 37.9321L72.5289 37.9452L72.2084 83.4696L70.6056 83.4565Z" fill="white"/>
<path d="M59.6956 52.8058L75.6926 47.3539L75.6926 53.6241L59.6956 59.1422L59.6956 52.8058Z" fill="white"/>
<path fill-rule="evenodd" clip-rule="evenodd" d="M62.9121 210.871L63.2327 165.346L64.8355 165.359L64.5149 210.884L62.9121 210.871Z" fill="white"/>
<path d="M59.7994 195.975L75.7964 190.523L75.7964 196.793L59.7994 202.311L59.7994 195.975Z" fill="white"/>
<path fill-rule="evenodd" clip-rule="evenodd" d="M70.6056 208.456L70.9261 162.932L72.5289 162.945L72.2084 208.47L70.6056 208.456Z" fill="white"/>
<path d="M59.6956 177.806L75.6926 172.354L75.6926 178.624L59.6956 184.142L59.6956 177.806Z" fill="white"/>
<g clip-path="url(#clip0_25_9021)">
<path d="M211.396 57.1209C209.333 53.8443 211.544 49.1342 216.26 46.6085C220.977 44.0828 226.504 44.5606 228.568 47.8372C230.631 51.1138 228.42 55.8239 223.704 58.4179C218.987 60.9436 213.46 60.3975 211.396 57.1209Z" fill="white"/>
<path d="M235.116 48.1209C233.052 44.8443 235.263 40.1342 239.98 37.6085C244.696 35.0828 250.223 35.5606 252.287 38.8372C254.35 42.1138 252.14 46.8239 247.423 49.4179C242.706 51.9436 237.179 51.3975 235.116 48.1209Z" fill="white"/>
<path d="M258.835 39.1209C256.772 35.8443 258.983 31.1342 263.699 28.6085C268.416 26.0828 273.943 26.5606 276.006 29.8372C278.07 33.1138 275.859 37.8239 271.142 40.4179C266.426 42.9436 260.899 42.3975 258.835 39.1209Z" fill="white"/>
<path d="M282.555 30.1209C280.491 26.8443 282.702 22.1342 287.419 19.6085C292.135 17.0828 297.662 17.5606 299.726 20.8372C301.789 24.1138 299.579 28.8239 294.862 31.4179C290.145 33.9436 284.618 33.3975 282.555 30.1209Z" fill="white"/>
<path d="M306.274 21.1209C304.211 17.8443 306.421 13.1342 311.138 10.6085C315.855 8.08276 321.382 8.56061 323.445 11.8372C325.509 15.1138 323.298 19.8239 318.581 22.4179C313.865 24.9436 308.338 24.3975 306.274 21.1209Z" fill="white"/>
<path d="M329.994 12.1209C327.93 8.84432 330.141 4.1342 334.858 1.60848C339.574 -0.917236 345.101 -0.439393 347.165 2.83721C349.228 6.11381 347.018 10.8239 342.301 13.4179C337.584 15.9436 332.057 15.3975 329.994 12.1209Z" fill="white"/>
<path d="M211.396 120.121C209.333 116.844 211.544 112.134 216.26 109.608C220.977 107.083 226.504 107.561 228.568 110.837C230.631 114.114 228.42 118.824 223.704 121.418C218.987 123.944 213.46 123.398 211.396 120.121Z" fill="white"/>
<path d="M235.116 111.121C233.052 107.844 235.263 103.134 239.98 100.608C244.696 98.0828 250.223 98.5606 252.287 101.837C254.35 105.114 252.14 109.824 247.423 112.418C242.706 114.944 237.179 114.398 235.116 111.121Z" fill="white"/>
<path d="M258.835 102.121C256.772 98.8443 258.983 94.1342 263.699 91.6085C268.416 89.0828 273.943 89.5606 276.006 92.8372C278.07 96.1138 275.859 100.824 271.142 103.418C266.426 105.944 260.899 105.398 258.835 102.121Z" fill="white"/>
<path d="M282.555 93.1209C280.491 89.8443 282.702 85.1342 287.419 82.6085C292.135 80.0828 297.662 80.5606 299.726 83.8372C301.789 87.1138 299.579 91.8239 294.862 94.4179C290.145 96.9436 284.618 96.3975 282.555 93.1209Z" fill="white"/>
<path d="M306.274 84.1209C304.211 80.8443 306.421 76.1342 311.138 73.6085C315.855 71.0828 321.382 71.5606 323.445 74.8372C325.509 78.1138 323.298 82.8239 318.581 85.4179C313.865 87.9436 308.338 87.3975 306.274 84.1209Z" fill="white"/>
<path d="M329.994 75.1209C327.93 71.8443 330.141 67.1342 334.858 64.6085C339.574 62.0828 345.101 62.5606 347.165 65.8372C349.228 69.1138 347.018 73.8239 342.301 76.4179C337.584 78.9436 332.057 78.3975 329.994 75.1209Z" fill="white"/>
<path d="M353.713 66.1209C351.65 62.8443 353.86 58.1342 358.577 55.6085C363.294 53.0828 368.821 53.5606 370.884 56.8372C372.948 60.1138 370.737 64.8239 366.02 67.4179C361.304 69.9436 355.777 69.3975 353.713 66.1209Z" fill="#232323"/>
<path d="M211.396 183.121C209.333 179.844 211.544 175.134 216.26 172.608C220.977 170.083 226.504 170.561 228.568 173.837C230.631 177.114 228.42 181.824 223.704 184.418C218.987 186.944 213.46 186.398 211.396 183.121Z" fill="white"/>
<path d="M235.116 174.121C233.052 170.844 235.263 166.134 239.98 163.608C244.696 161.083 250.223 161.561 252.287 164.837C254.35 168.114 252.14 172.824 247.423 175.418C242.706 177.944 237.179 177.398 235.116 174.121Z" fill="white"/>
<path d="M258.835 165.121C256.772 161.844 258.983 157.134 263.699 154.608C268.416 152.083 273.943 152.561 276.006 155.837C278.07 159.114 275.859 163.824 271.142 166.418C266.426 168.944 260.899 168.398 258.835 165.121Z" fill="white"/>
<path d="M282.555 156.121C280.491 152.844 282.702 148.134 287.419 145.608C292.135 143.083 297.662 143.561 299.726 146.837C301.789 150.114 299.579 154.824 294.862 157.418C290.145 159.944 284.618 159.398 282.555 156.121Z" fill="white"/>
<path d="M306.274 147.121C304.211 143.844 306.421 139.134 311.138 136.608C315.855 134.083 321.382 134.561 323.445 137.837C325.509 141.114 323.298 145.824 318.581 148.418C313.865 150.944 308.338 150.398 306.274 147.121Z" fill="white"/>
<path d="M329.994 138.121C327.93 134.844 330.141 130.134 334.858 127.608C339.574 125.083 345.101 125.561 347.165 128.837C349.228 132.114 347.018 136.824 342.301 139.418C337.584 141.944 332.057 141.398 329.994 138.121Z" fill="white"/>
<path d="M353.713 129.121C351.65 125.844 353.86 121.134 358.577 118.608C363.294 116.083 368.821 116.561 370.884 119.837C372.948 123.114 370.737 127.824 366.02 130.418C361.304 132.944 355.777 132.398 353.713 129.121Z" fill="#232323"/>
<path d="M211.396 246.121C209.333 242.844 211.544 238.134 216.26 235.608C220.977 233.083 226.504 233.561 228.568 236.837C230.631 240.114 228.42 244.824 223.704 247.418C218.987 249.944 213.46 249.398 211.396 246.121Z" fill="white"/>
<path d="M235.116 237.121C233.052 233.844 235.263 229.134 239.98 226.608C244.696 224.083 250.223 224.561 252.287 227.837C254.35 231.114 252.14 235.824 247.423 238.418C242.706 240.944 237.179 240.398 235.116 237.121Z" fill="white"/>
<path d="M258.835 228.121C256.772 224.844 258.983 220.134 263.699 217.608C268.416 215.083 273.943 215.561 276.006 218.837C278.07 222.114 275.859 226.824 271.142 229.418C266.426 231.944 260.899 231.398 258.835 228.121Z" fill="white"/>
<path d="M282.555 219.121C280.491 215.844 282.702 211.134 287.419 208.608C292.135 206.083 297.662 206.561 299.726 209.837C301.789 213.114 299.579 217.824 294.862 220.418C290.145 222.944 284.618 222.398 282.555 219.121Z" fill="white"/>
<path d="M306.274 210.121C304.211 206.844 306.421 202.134 311.138 199.608C315.855 197.083 321.382 197.561 323.445 200.837C325.509 204.114 323.298 208.824 318.581 211.418C313.865 213.944 308.338 213.398 306.274 210.121Z" fill="white"/>
<path d="M329.994 201.121C327.93 197.844 330.141 193.134 334.858 190.608C339.574 188.083 345.101 188.561 347.165 191.837C349.228 195.114 347.018 199.824 342.301 202.418C337.584 204.944 332.057 204.398 329.994 201.121Z" fill="white"/>
<path d="M353.713 192.121C351.65 188.844 353.86 184.134 358.577 181.608C363.294 179.083 368.821 179.561 370.884 182.837C372.948 186.114 370.737 190.824 366.02 193.418C361.304 195.944 355.777 195.398 353.713 192.121Z" fill="#232323"/>
<path d="M235.116 300.121C233.052 296.844 235.263 292.134 239.98 289.608C244.696 287.083 250.223 287.561 252.287 290.837C254.35 294.114 252.14 298.824 247.423 301.418C242.706 303.944 237.179 303.398 235.116 300.121Z" fill="white"/>
<path d="M258.835 291.121C256.772 287.844 258.983 283.134 263.699 280.608C268.416 278.083 273.943 278.561 276.006 281.837C278.07 285.114 275.859 289.824 271.142 292.418C266.426 294.944 260.899 294.398 258.835 291.121Z" fill="white"/>
<path d="M282.555 282.121C280.491 278.844 282.702 274.134 287.419 271.608C292.135 269.083 297.662 269.561 299.726 272.837C301.789 276.114 299.579 280.824 294.862 283.418C290.145 285.944 284.618 285.398 282.555 282.121Z" fill="white"/>
<path d="M306.274 273.121C304.211 269.844 306.421 265.134 311.138 262.608C315.855 260.083 321.382 260.561 323.445 263.837C325.509 267.114 323.298 271.824 318.581 274.418C313.865 276.944 308.338 276.398 306.274 273.121Z" fill="white"/>
<path d="M329.994 264.121C327.93 260.844 330.141 256.134 334.858 253.608C339.574 251.083 345.101 251.561 347.165 254.837C349.228 258.114 347.018 262.824 342.301 265.418C337.584 267.944 332.057 267.398 329.994 264.121Z" fill="white"/>
<path d="M353.713 255.121C351.65 251.844 353.86 247.134 358.577 244.608C363.294 242.083 368.821 242.561 370.884 245.837C372.948 249.114 370.737 253.824 366.02 256.418C361.304 258.944 355.777 258.398 353.713 255.121Z" fill="#232323"/>
</g>
<defs>
<clipPath id="clip0_25_9021">
<rect width="174" height="284" fill="white" transform="translate(208 10)"/>
</clipPath>
</defs>
</svg>
