<svg width="514" height="303" viewBox="0 0 514 303" fill="none" xmlns="http://www.w3.org/2000/svg">
<line y1="25" x2="514" y2="25" stroke="white" stroke-opacity="0.4" stroke-dasharray="8 8"/>
<line y1="43" x2="514" y2="43" stroke="white" stroke-opacity="0.4" stroke-dasharray="8 8"/>
<path d="M0 61.5H514" stroke="white"/>
<path d="M0 79.5H514" stroke="white"/>
<path d="M0 97.5H514" stroke="white"/>
<path d="M0 115.5H514" stroke="white"/>
<path d="M0 133.5H514" stroke="white"/>
<line x1="4.2447e-08" y1="151" x2="514" y2="151" stroke="white" stroke-opacity="0.4" stroke-dasharray="8 8"/>
<path d="M0 169.5H514" stroke="white"/>
<path d="M0 187.5H514" stroke="white"/>
<path d="M0 205.5H514" stroke="white"/>
<path d="M0 223.5H514" stroke="white"/>
<path d="M0 241.5H514" stroke="white"/>
<line x1="4.2447e-08" y1="259" x2="514" y2="259" stroke="white" stroke-opacity="0.4" stroke-dasharray="8 8"/>
<line x1="4.2447e-08" y1="277" x2="514" y2="277" stroke="white" stroke-opacity="0.4" stroke-dasharray="8 8"/>
<path d="M28.6631 96.9376C26.8783 97.5422 25.4034 98.5625 24.2381 99.9993C23.0727 101.435 22.3626 103.004 22.1077 104.705C21.8527 106.406 22.0622 108.088 22.7359 109.751C23.4096 111.414 24.6751 112.756 26.5323 113.777C26.9693 113.777 27.2423 113.966 27.3519 114.344C27.4608 114.721 27.2968 114.91 26.8604 114.91C25.0757 114.533 23.5097 113.758 22.1623 112.586C19.6495 110.431 18.2657 107.654 18.0108 104.252C17.8651 102.551 18.0199 100.907 18.4751 99.3188C18.9303 97.7311 19.5585 96.2758 20.3597 94.9528C21.3429 93.5547 22.5083 92.3448 23.8557 91.3245C23.9285 91.2487 24.138 91.0791 24.4839 90.8144C24.8299 90.5496 25.1667 90.3042 25.4945 90.0774C25.8223 89.8506 26.3138 89.4914 26.9693 88.9998L24.9482 78.9077C23.1638 80.4574 21.3976 82.1675 19.6496 84.0385C17.9015 85.9096 16.3174 87.8851 14.8971 89.9636C13.4769 92.0429 12.3388 94.2445 11.483 96.5692C10.6272 98.8938 10.1994 101.341 10.1994 103.912C10.1994 106.293 10.6818 108.532 11.6469 110.63C12.612 112.728 13.8957 114.552 15.498 116.101C17.1003 117.651 18.9485 118.87 21.0425 119.759C23.1365 120.647 25.2577 121.091 27.4064 121.091C27.4795 121.091 27.8159 121.053 28.417 120.977C29.0181 120.902 29.6551 120.808 30.3286 120.694C31.0027 120.581 31.6218 120.458 32.1864 120.325C32.7503 120.193 33.0329 120.051 33.0329 119.9L32.7048 118.313C31.2847 110.866 29.937 103.741 28.6631 96.9376ZM30.5747 96.7108L35.0541 119.22C37.6399 118.199 39.3874 116.451 40.298 113.975C41.2086 111.5 41.4175 108.986 40.926 106.435C40.4345 103.883 39.2784 101.624 37.4572 99.6587C35.6366 97.6932 33.3424 96.7108 30.5747 96.7108ZM24.839 66.3778C25.9677 65.7725 27.0148 64.8659 27.9799 63.656C28.945 62.4468 29.8371 61.1517 30.6567 59.7722C31.4756 58.3928 32.1864 56.9846 32.7868 55.5479C33.3879 54.1119 33.8705 52.8082 34.2344 51.6363C34.635 50.3891 34.9079 48.9903 35.0541 47.4405C35.1995 45.8908 34.9631 44.5871 34.344 43.5282C33.907 42.5837 33.3335 42.0356 32.6234 41.8839C31.9127 41.733 31.2027 41.7895 30.4926 42.0542C29.7826 42.319 29.1091 42.744 28.4714 43.33C27.8345 43.916 27.3699 44.4354 27.0789 44.8891C26.2772 46.363 25.5762 48.0072 24.9755 49.8217C24.3746 51.6363 23.9649 53.5166 23.7465 55.4635C23.5279 57.4096 23.5007 59.2807 23.6645 61.0766C23.8284 62.8718 24.2199 64.6391 24.839 66.3778ZM23.2002 68.135C22.5811 65.6408 22.0349 63.1931 21.5614 60.7925C21.088 58.3928 20.8513 55.9264 20.8513 53.3935C20.8513 51.5418 20.9788 49.5098 21.2337 47.2989C21.4886 45.088 21.9529 42.9329 22.6266 40.835C23.3003 38.7372 24.229 36.8568 25.4125 35.194C26.5964 33.5304 28.1709 32.3212 30.1376 31.565C30.3196 31.4898 30.5016 31.4519 30.6836 31.4519C30.9386 31.4519 31.2392 31.6029 31.5853 31.9055C31.9313 32.2075 32.2953 32.6518 32.6779 33.2378C33.0598 33.8238 33.3969 34.4284 33.6885 35.0523C33.9794 35.6755 34.1979 36.1012 34.344 36.3281C35.3271 38.2556 36.0461 40.3063 36.5017 42.4792C36.9567 44.6529 37.2207 46.8166 37.2938 48.971C37.4392 52.2223 37.2662 55.4349 36.7747 58.6103C36.2832 61.785 35.2905 64.8845 33.7974 67.9082C33.288 68.8155 32.7689 69.732 32.2408 70.6579C31.7128 71.5845 31.0848 72.4817 30.3561 73.3511C30.2107 73.5028 29.9467 73.7768 29.5641 74.1732C29.1815 74.5703 28.7899 74.9767 28.3894 75.3924C27.9889 75.8081 27.6339 76.1959 27.3244 76.5544C27.0148 76.9136 26.8604 77.1311 26.8604 77.2069L29.0994 88.5462C29.1139 88.6206 30.2196 88.5462 30.2196 88.5462C32.3566 88.5741 34.6191 88.9333 36.5838 89.7368C38.4774 90.6441 40.107 91.8912 41.4727 93.4789C42.8383 95.0666 43.9302 96.8525 44.7498 98.8366C45.5695 100.821 45.979 102.834 45.979 104.875C45.979 106.916 45.6874 108.995 45.1049 111.112C43.6117 115.119 41.2266 118.086 37.9494 120.013C37.5847 120.24 37.0656 120.496 36.3921 120.779C35.7186 121.062 35.4546 121.507 35.6001 122.111C36.4742 126.23 37.0656 129.063 37.3758 130.616C37.6853 132.168 37.9128 134.172 38.0583 136.626C38.2037 138.973 37.8122 141.083 36.8836 142.972C35.9551 144.868 34.708 146.407 33.1418 147.595C31.5763 148.789 30.1466 149.483 28.854 149.698C27.5608 149.906 26.6777 150.006 26.2048 150.006C24.5658 150.006 22.9635 149.684 21.3976 149.04C19.4674 148.289 17.8469 147.137 16.5359 145.584C15.2249 144.031 14.5694 142.142 14.5694 139.917C14.5694 138.515 14.9609 137.077 15.7438 135.603C16.5268 134.129 17.5556 133.07 18.8301 132.433C20.2504 131.675 21.5341 131.467 22.6813 131.803C23.8284 132.147 24.7752 132.791 25.5218 133.735C26.2683 134.68 26.7874 135.825 27.0789 137.163C27.3699 138.508 27.3519 139.76 27.0238 140.933C26.6964 142.107 26.0318 143.101 25.0302 143.91C24.0287 144.725 22.6357 145.09 20.8513 145.019C21.5796 146.378 22.5993 147.237 23.9103 147.595C25.2213 147.959 26.5688 147.981 27.9524 147.68C29.3366 147.38 30.6381 146.822 31.8582 146.006C33.0784 145.198 34.0345 144.318 34.726 143.373C35.163 142.693 35.4911 141.806 35.7097 140.711C35.9282 139.61 36.0557 138.472 36.0916 137.277C36.1281 136.089 36.0916 135.159 35.9826 134.501C35.873 133.835 35.691 132.805 35.436 131.41C34.344 126.838 33.6519 123.961 33.3603 122.788C33.2149 122.414 32.8233 122.291 32.1864 122.423C31.5487 122.556 31.0117 122.679 30.5747 122.788C27.4429 123.21 24.8208 123.017 22.7086 122.225C19.431 121.318 16.545 119.701 14.0504 117.377C11.5559 115.053 9.55295 112.237 8.04161 108.929C6.53034 105.622 5.77467 103.108 5.77467 101.388C5.77467 99.6687 5.77467 98.5819 5.77467 98.1282C5.77467 95.0666 6.28452 92.1938 7.30421 89.51C9.23426 85.3143 11.5195 81.4591 14.1597 77.9439C16.7999 74.4286 19.8134 71.1588 23.2002 68.135Z" fill="white"/>
<path d="M49.0027 194.808C49.0027 197.22 47.3914 199.175 45.4038 199.175C43.4162 199.175 41.8049 197.22 41.8049 194.808C41.8049 192.396 43.4162 190.441 45.4038 190.441C47.3914 190.441 49.0027 192.396 49.0027 194.808ZM48.7543 180.042C48.7543 182.454 47.143 184.409 45.1553 184.409C43.1677 184.409 41.5564 182.454 41.5564 180.042C41.5564 177.63 43.1677 175.675 45.1553 175.675C47.143 175.675 48.7543 177.63 48.7543 180.042ZM6.36815 225.885C6.36815 225.261 8.95999 222.695 12.1278 220.182C18.9386 214.778 23.8572 208.867 26.7181 202.646C33.2787 188.379 31.2004 173.504 22.4568 172.146C17.6208 171.394 11.498 175.482 11.498 179.461C11.498 180.938 11.8241 181.057 15.3694 180.873C19.7073 180.649 22.6421 185.54 20.2946 189.082C16.5853 194.678 7.65062 191.463 7.65062 184.532C7.65062 178.458 10.8419 173.623 16.4586 171.189C28.4786 165.98 39.9203 175.583 38.9184 190.04C38.0973 201.89 29.1904 212.956 11.8995 223.611C7.79676 226.139 6.36815 226.726 6.36815 225.885Z" fill="white"/>
<path fill-rule="evenodd" clip-rule="evenodd" d="M62.9121 85.8707L63.2327 40.3463L64.8355 40.3594L64.5149 85.8837L62.9121 85.8707Z" fill="white"/>
<path d="M59.7994 70.9746L75.7964 65.5227L75.7964 71.793L59.7994 77.3111L59.7994 70.9746Z" fill="white"/>
<path fill-rule="evenodd" clip-rule="evenodd" d="M70.6056 83.4566L70.9261 37.9322L72.5289 37.9453L72.2084 83.4697L70.6056 83.4566Z" fill="white"/>
<path d="M59.6956 52.8059L75.6926 47.354L75.6926 53.6243L59.6956 59.1424L59.6956 52.8059Z" fill="white"/>
<path fill-rule="evenodd" clip-rule="evenodd" d="M82.2494 112.427L82.57 66.9022L84.1728 66.9153L83.8522 112.44L82.2494 112.427Z" fill="white"/>
<path d="M79.1364 97.5308L95.1335 92.0789L95.1335 98.3491L79.1364 103.867L79.1364 97.5308Z" fill="white"/>
<path fill-rule="evenodd" clip-rule="evenodd" d="M89.9431 110.013L90.2637 64.4886L91.8665 64.5017L91.5459 110.026L89.9431 110.013Z" fill="white"/>
<path d="M79.0332 79.3621L95.0302 73.9102L95.0302 80.1804L79.0332 85.6985L79.0332 79.3621Z" fill="white"/>
<path fill-rule="evenodd" clip-rule="evenodd" d="M101.484 77.9389L101.805 32.4144L103.894 32.4314L103.573 77.9559L101.484 77.9389Z" fill="white"/>
<path d="M98.3708 63.0425L114.368 57.5906L114.368 63.8608L98.3708 69.3789L98.3708 63.0425Z" fill="white"/>
<path fill-rule="evenodd" clip-rule="evenodd" d="M109.178 75.5246L109.498 30.0001L111.588 30.0171L111.267 75.5416L109.178 75.5246Z" fill="white"/>
<path d="M98.2675 44.874L114.265 39.4221L114.265 45.6924L98.2675 51.2105L98.2675 44.874Z" fill="white"/>
<path fill-rule="evenodd" clip-rule="evenodd" d="M120.718 103.46L121.039 57.9359L123.128 57.9529L122.807 103.477L120.718 103.46Z" fill="white"/>
<path d="M117.605 88.564L133.602 83.1121L133.602 89.3823L117.605 94.9004L117.605 88.564Z" fill="white"/>
<path fill-rule="evenodd" clip-rule="evenodd" d="M128.412 101.046L128.732 55.5218L130.821 55.5388L130.501 101.063L128.412 101.046Z" fill="white"/>
<path d="M117.501 70.3955L133.498 64.9436L133.498 71.2139L117.501 76.732L117.501 70.3955Z" fill="white"/>
<path fill-rule="evenodd" clip-rule="evenodd" d="M139.952 129.671L140.272 84.1461L142.362 84.1631L142.041 129.688L139.952 129.671Z" fill="white"/>
<path d="M136.839 114.774L152.836 109.323L152.836 115.593L136.839 121.111L136.839 114.774Z" fill="white"/>
<path fill-rule="evenodd" clip-rule="evenodd" d="M147.646 127.256L147.966 81.732L150.056 81.749L149.735 127.274L147.646 127.256Z" fill="white"/>
<path d="M136.735 96.6057L152.732 91.1538L152.732 97.4241L136.735 102.942L136.735 96.6057Z" fill="white"/>
<path fill-rule="evenodd" clip-rule="evenodd" d="M159.186 95.1828L159.507 49.6583L161.596 49.6753L161.276 95.1998L159.186 95.1828Z" fill="white"/>
<path d="M156.074 80.2864L172.071 74.8345L172.071 81.1047L156.074 86.6228L156.074 80.2864Z" fill="white"/>
<path fill-rule="evenodd" clip-rule="evenodd" d="M166.88 92.7687L167.201 47.2442L169.29 47.2612L168.969 92.7857L166.88 92.7687Z" fill="white"/>
<path d="M155.97 62.1179L171.967 56.666L171.967 62.9363L155.97 68.4544L155.97 62.1179Z" fill="white"/>
<path fill-rule="evenodd" clip-rule="evenodd" d="M178.42 121.049L178.741 75.5242L180.83 75.5413L180.51 121.066L178.42 121.049Z" fill="white"/>
<path d="M175.308 106.152L191.305 100.7L191.305 106.971L175.308 112.489L175.308 106.152Z" fill="white"/>
<path fill-rule="evenodd" clip-rule="evenodd" d="M186.114 118.635L186.435 73.1102L188.524 73.1272L188.203 118.652L186.114 118.635Z" fill="white"/>
<path d="M175.204 87.9839L191.201 82.532L191.201 88.8022L175.204 94.3203L175.204 87.9839Z" fill="white"/>
<path fill-rule="evenodd" clip-rule="evenodd" d="M62.9121 210.871L63.2327 165.346L64.8355 165.359L64.5149 210.884L62.9121 210.871Z" fill="white"/>
<path d="M59.7994 195.975L75.7964 190.523L75.7964 196.793L59.7994 202.311L59.7994 195.975Z" fill="white"/>
<path fill-rule="evenodd" clip-rule="evenodd" d="M70.6056 208.457L70.9261 162.932L72.5289 162.945L72.2084 208.47L70.6056 208.457Z" fill="white"/>
<path d="M59.6956 177.806L75.6926 172.354L75.6926 178.624L59.6956 184.142L59.6956 177.806Z" fill="white"/>
<path fill-rule="evenodd" clip-rule="evenodd" d="M82.2494 237.427L82.57 191.902L84.1728 191.915L83.8522 237.44L82.2494 237.427Z" fill="white"/>
<path d="M79.1364 222.531L95.1335 217.079L95.1335 223.349L79.1364 228.867L79.1364 222.531Z" fill="white"/>
<path fill-rule="evenodd" clip-rule="evenodd" d="M89.9431 235.013L90.2637 189.489L91.8665 189.502L91.5459 235.026L89.9431 235.013Z" fill="white"/>
<path d="M79.0332 204.362L95.0302 198.91L95.0302 205.18L79.0332 210.699L79.0332 204.362Z" fill="white"/>
<path fill-rule="evenodd" clip-rule="evenodd" d="M101.484 202.939L101.805 157.414L103.894 157.431L103.573 202.956L101.484 202.939Z" fill="white"/>
<path d="M98.3708 188.042L114.368 182.591L114.368 188.861L98.3708 194.379L98.3708 188.042Z" fill="white"/>
<path fill-rule="evenodd" clip-rule="evenodd" d="M109.178 200.525L109.498 155L111.588 155.017L111.267 200.542L109.178 200.525Z" fill="white"/>
<path d="M98.2675 169.874L114.265 164.422L114.265 170.692L98.2675 176.21L98.2675 169.874Z" fill="white"/>
<path fill-rule="evenodd" clip-rule="evenodd" d="M120.718 228.46L121.039 182.936L123.128 182.953L122.807 228.477L120.718 228.46Z" fill="white"/>
<path d="M117.605 213.564L133.602 208.112L133.602 214.382L117.605 219.9L117.605 213.564Z" fill="white"/>
<path fill-rule="evenodd" clip-rule="evenodd" d="M128.412 226.046L128.732 180.522L130.821 180.539L130.501 226.063L128.412 226.046Z" fill="white"/>
<path d="M117.501 195.396L133.498 189.944L133.498 196.214L117.501 201.732L117.501 195.396Z" fill="white"/>
<path fill-rule="evenodd" clip-rule="evenodd" d="M139.952 254.671L140.272 209.146L142.362 209.163L142.041 254.688L139.952 254.671Z" fill="white"/>
<path d="M136.839 239.774L152.836 234.323L152.836 240.593L136.839 246.111L136.839 239.774Z" fill="white"/>
<path fill-rule="evenodd" clip-rule="evenodd" d="M147.646 252.256L147.966 206.732L150.056 206.749L149.735 252.274L147.646 252.256Z" fill="white"/>
<path d="M136.735 221.606L152.732 216.154L152.732 222.424L136.735 227.942L136.735 221.606Z" fill="white"/>
<path fill-rule="evenodd" clip-rule="evenodd" d="M159.186 220.183L159.507 174.658L161.596 174.675L161.276 220.2L159.186 220.183Z" fill="white"/>
<path d="M156.074 205.286L172.071 199.834L172.071 206.105L156.074 211.623L156.074 205.286Z" fill="white"/>
<path fill-rule="evenodd" clip-rule="evenodd" d="M166.88 217.769L167.201 172.244L169.29 172.261L168.969 217.786L166.88 217.769Z" fill="white"/>
<path d="M155.97 187.118L171.967 181.666L171.967 187.936L155.97 193.454L155.97 187.118Z" fill="white"/>
<path fill-rule="evenodd" clip-rule="evenodd" d="M178.42 246.049L178.741 200.524L180.83 200.541L180.51 246.066L178.42 246.049Z" fill="white"/>
<path d="M175.308 231.152L191.305 225.7L191.305 231.971L175.308 237.489L175.308 231.152Z" fill="white"/>
<path fill-rule="evenodd" clip-rule="evenodd" d="M186.114 243.635L186.435 198.11L188.524 198.127L188.203 243.652L186.114 243.635Z" fill="white"/>
<path d="M175.204 212.984L191.201 207.532L191.201 213.802L175.204 219.32L175.204 212.984Z" fill="white"/>
<g clip-path="url(#clip0_25_10169)">
<path d="M269.396 30.1579C267.333 26.9233 269.544 22.2736 274.26 19.7802C278.977 17.2869 284.504 17.7586 286.568 20.9932C288.631 24.2278 286.42 28.8775 281.704 31.4383C276.987 33.9316 271.46 33.3925 269.396 30.1579Z" fill="#232323"/>
<path d="M293.116 21.2734C291.052 18.0388 293.263 13.3891 297.98 10.8957C302.696 8.40238 308.223 8.8741 310.287 12.1087C312.35 15.3433 310.14 19.993 305.423 22.5537C300.706 25.0471 295.179 24.508 293.116 21.2734Z" fill="#232323"/>
<path d="M269.396 93.1625C267.333 89.9334 269.544 85.2916 274.26 82.8025C278.977 80.3133 284.504 80.7843 286.568 84.0134C288.631 87.2425 286.42 91.8843 281.704 94.4407C276.987 96.9298 271.46 96.3917 269.396 93.1625Z" fill="#232323"/>
<path d="M293.116 84.2932C291.052 81.064 293.263 76.4222 297.98 73.9331C302.696 71.444 308.223 71.9149 310.287 75.144C312.35 78.3731 310.14 83.015 305.423 85.5713C300.706 88.0605 295.179 87.5223 293.116 84.2932Z" fill="#232323"/>
<path d="M316.835 75.4235C314.772 72.1944 316.983 67.5526 321.699 65.0634C326.416 62.5743 331.943 63.0452 334.006 66.2744C336.07 69.5035 333.859 74.1453 329.142 76.7017C324.426 79.1908 318.899 78.6526 316.835 75.4235Z" fill="url(#paint0_radial_25_10169)"/>
<path d="M340.555 66.5539C338.491 63.3248 340.702 58.6829 345.419 56.1938C350.135 53.7047 355.662 54.1756 357.726 57.4047C359.789 60.6338 357.579 65.2757 352.862 67.8321C348.145 70.3212 342.618 69.783 340.555 66.5539Z" fill="#232323"/>
<path d="M364.274 57.6843C362.211 54.4552 364.421 49.8133 369.138 47.3242C373.855 44.8351 379.382 45.306 381.445 48.5351C383.509 51.7642 381.298 56.4061 376.581 58.9625C371.865 61.4516 366.338 60.9134 364.274 57.6843Z" fill="#232323"/>
<path d="M387.994 48.8149C385.93 45.5858 388.141 40.9439 392.858 38.4548C397.574 35.9657 403.101 36.4366 405.165 39.6657C407.228 42.8948 405.018 47.5367 400.301 50.0931C395.584 52.5822 390.057 52.044 387.994 48.8149Z" fill="#232323"/>
<path d="M411.713 39.9453C409.65 36.7161 411.86 32.0743 416.577 29.5852C421.294 27.0961 426.821 27.567 428.884 30.7961C430.948 34.0252 428.737 38.6671 424.02 41.2234C419.304 43.7126 413.777 43.1744 411.713 39.9453Z" fill="url(#paint1_radial_25_10169)"/>
<path d="M269.396 156.163C267.333 152.933 269.544 148.292 274.26 145.802C278.977 143.313 284.504 143.784 286.568 147.013C288.631 150.242 286.42 154.884 281.704 157.441C276.987 159.93 271.46 159.392 269.396 156.163Z" fill="#232323"/>
<path d="M293.116 147.293C291.052 144.064 293.263 139.422 297.98 136.933C302.696 134.444 308.223 134.915 310.287 138.144C312.35 141.373 310.14 146.015 305.423 148.571C300.706 151.06 295.179 150.522 293.116 147.293Z" fill="#232323"/>
<path d="M316.835 138.424C314.772 135.194 316.983 130.553 321.699 128.063C326.416 125.574 331.943 126.045 334.006 129.274C336.07 132.503 333.859 137.145 329.142 139.702C324.426 142.191 318.899 141.653 316.835 138.424Z" fill="url(#paint2_radial_25_10169)"/>
<path d="M340.555 129.554C338.491 126.325 340.702 121.683 345.419 119.194C350.135 116.705 355.662 117.176 357.726 120.405C359.789 123.634 357.579 128.276 352.862 130.832C348.145 133.321 342.618 132.783 340.555 129.554Z" fill="#232323"/>
<path d="M364.274 120.684C362.211 117.455 364.421 112.813 369.138 110.324C373.855 107.835 379.382 108.306 381.445 111.535C383.509 114.764 381.298 119.406 376.581 121.962C371.865 124.452 366.338 123.913 364.274 120.684Z" fill="#232323"/>
<path d="M387.994 111.815C385.93 108.586 388.141 103.944 392.858 101.455C397.574 98.9657 403.101 99.4366 405.165 102.666C407.228 105.895 405.018 110.537 400.301 113.093C395.584 115.582 390.057 115.044 387.994 111.815Z" fill="#232323"/>
<path d="M411.713 102.945C409.65 99.7161 411.86 95.0743 416.577 92.5852C421.294 90.0961 426.821 90.567 428.884 93.7961C430.948 97.0252 428.737 101.667 424.02 104.223C419.304 106.713 413.777 106.174 411.713 102.945Z" fill="url(#paint3_radial_25_10169)"/>
<path d="M269.396 219.163C267.333 215.933 269.544 211.292 274.26 208.802C278.977 206.313 284.504 206.784 286.568 210.013C288.631 213.242 286.42 217.884 281.704 220.441C276.987 222.93 271.46 222.392 269.396 219.163Z" fill="#232323"/>
<path d="M293.116 210.293C291.052 207.064 293.263 202.422 297.98 199.933C302.696 197.444 308.223 197.915 310.287 201.144C312.35 204.373 310.14 209.015 305.423 211.571C300.706 214.06 295.179 213.522 293.116 210.293Z" fill="#232323"/>
<path d="M316.835 201.424C314.772 198.194 316.983 193.553 321.699 191.063C326.416 188.574 331.943 189.045 334.006 192.274C336.07 195.503 333.859 200.145 329.142 202.702C324.426 205.191 318.899 204.653 316.835 201.424Z" fill="url(#paint4_radial_25_10169)"/>
<path d="M340.555 192.554C338.491 189.325 340.702 184.683 345.419 182.194C350.135 179.705 355.662 180.176 357.726 183.405C359.789 186.634 357.579 191.276 352.862 193.832C348.145 196.321 342.618 195.783 340.555 192.554Z" fill="#232323"/>
<path d="M364.274 183.684C362.211 180.455 364.421 175.813 369.138 173.324C373.855 170.835 379.382 171.306 381.445 174.535C383.509 177.764 381.298 182.406 376.581 184.962C371.865 187.452 366.338 186.913 364.274 183.684Z" fill="#232323"/>
<path d="M387.994 174.815C385.93 171.586 388.141 166.944 392.858 164.455C397.574 161.966 403.101 162.437 405.165 165.666C407.228 168.895 405.018 173.537 400.301 176.093C395.584 178.582 390.057 178.044 387.994 174.815Z" fill="#232323"/>
<path d="M411.713 165.945C409.65 162.716 411.86 158.074 416.577 155.585C421.294 153.096 426.821 153.567 428.884 156.796C430.948 160.025 428.737 164.667 424.02 167.223C419.304 169.713 413.777 169.174 411.713 165.945Z" fill="url(#paint5_radial_25_10169)"/>
<path d="M269.396 282.163C267.333 278.933 269.544 274.292 274.26 271.802C278.977 269.313 284.504 269.784 286.568 273.013C288.631 276.242 286.42 280.884 281.704 283.441C276.987 285.93 271.46 285.392 269.396 282.163Z" fill="#232323"/>
<path d="M293.116 273.293C291.052 270.064 293.263 265.422 297.98 262.933C302.696 260.444 308.223 260.915 310.287 264.144C312.35 267.373 310.14 272.015 305.423 274.571C300.706 277.06 295.179 276.522 293.116 273.293Z" fill="#232323"/>
<path d="M316.835 264.424C314.772 261.194 316.983 256.553 321.699 254.063C326.416 251.574 331.943 252.045 334.006 255.274C336.07 258.503 333.859 263.145 329.142 265.702C324.426 268.191 318.899 267.653 316.835 264.424Z" fill="url(#paint6_radial_25_10169)"/>
<path d="M340.555 255.554C338.491 252.325 340.702 247.683 345.419 245.194C350.135 242.705 355.662 243.176 357.726 246.405C359.789 249.634 357.579 254.276 352.862 256.832C348.145 259.321 342.618 258.783 340.555 255.554Z" fill="#232323"/>
<path d="M364.274 246.684C362.211 243.455 364.421 238.813 369.138 236.324C373.855 233.835 379.382 234.306 381.445 237.535C383.509 240.764 381.298 245.406 376.581 247.962C371.865 250.452 366.338 249.913 364.274 246.684Z" fill="#232323"/>
<path d="M387.994 237.815C385.93 234.586 388.141 229.944 392.858 227.455C397.574 224.966 403.101 225.437 405.165 228.666C407.228 231.895 405.018 236.537 400.301 239.093C395.584 241.582 390.057 241.044 387.994 237.815Z" fill="#232323"/>
<path d="M411.713 228.945C409.65 225.716 411.86 221.074 416.577 218.585C421.294 216.096 426.821 216.567 428.884 219.796C430.948 223.025 428.737 227.667 424.02 230.223C419.304 232.713 413.777 232.174 411.713 228.945Z" fill="url(#paint7_radial_25_10169)"/>
<path d="M364.274 309.684C362.211 306.455 364.421 301.813 369.138 299.324C373.855 296.835 379.382 297.306 381.445 300.535C383.509 303.764 381.298 308.406 376.581 310.962C371.865 313.452 366.338 312.913 364.274 309.684Z" fill="#232323"/>
<path d="M387.994 300.815C385.93 297.586 388.141 292.944 392.858 290.455C397.574 287.966 403.101 288.437 405.165 291.666C407.228 294.895 405.018 299.537 400.301 302.093C395.584 304.582 390.057 304.044 387.994 300.815Z" fill="#232323"/>
<path d="M411.713 291.945C409.65 288.716 411.86 284.074 416.577 281.585C421.294 279.096 426.821 279.567 428.884 282.796C430.948 286.025 428.737 290.667 424.02 293.223C419.304 295.713 413.777 295.174 411.713 291.945Z" fill="url(#paint8_radial_25_10169)"/>
</g>
<defs>
<radialGradient id="paint0_radial_25_10169" cx="0" cy="0" r="1" gradientUnits="userSpaceOnUse" gradientTransform="translate(325.421 70.8696) rotate(90) scale(7.3913 9.35976)">
<stop offset="0.510417" stop-color="white"/>
<stop offset="0.546875" stop-color="#232323"/>
</radialGradient>
<radialGradient id="paint1_radial_25_10169" cx="0" cy="0" r="1" gradientUnits="userSpaceOnUse" gradientTransform="translate(420.299 35.3913) rotate(90) scale(7.3913 9.35976)">
<stop offset="0.510417" stop-color="white"/>
<stop offset="0.546875" stop-color="#232323"/>
</radialGradient>
<radialGradient id="paint2_radial_25_10169" cx="0" cy="0" r="1" gradientUnits="userSpaceOnUse" gradientTransform="translate(325.421 133.87) rotate(90) scale(7.3913 9.35976)">
<stop offset="0.510417" stop-color="white"/>
<stop offset="0.546875" stop-color="#232323"/>
</radialGradient>
<radialGradient id="paint3_radial_25_10169" cx="0" cy="0" r="1" gradientUnits="userSpaceOnUse" gradientTransform="translate(420.299 98.3913) rotate(90) scale(7.3913 9.35976)">
<stop offset="0.510417" stop-color="white"/>
<stop offset="0.546875" stop-color="#232323"/>
</radialGradient>
<radialGradient id="paint4_radial_25_10169" cx="0" cy="0" r="1" gradientUnits="userSpaceOnUse" gradientTransform="translate(325.421 196.87) rotate(90) scale(7.3913 9.35976)">
<stop offset="0.510417" stop-color="white"/>
<stop offset="0.546875" stop-color="#232323"/>
</radialGradient>
<radialGradient id="paint5_radial_25_10169" cx="0" cy="0" r="1" gradientUnits="userSpaceOnUse" gradientTransform="translate(420.299 161.391) rotate(90) scale(7.3913 9.35976)">
<stop offset="0.510417" stop-color="white"/>
<stop offset="0.546875" stop-color="#232323"/>
</radialGradient>
<radialGradient id="paint6_radial_25_10169" cx="0" cy="0" r="1" gradientUnits="userSpaceOnUse" gradientTransform="translate(325.421 259.87) rotate(90) scale(7.3913 9.35976)">
<stop offset="0.510417" stop-color="white"/>
<stop offset="0.546875" stop-color="#232323"/>
</radialGradient>
<radialGradient id="paint7_radial_25_10169" cx="0" cy="0" r="1" gradientUnits="userSpaceOnUse" gradientTransform="translate(420.299 224.391) rotate(90) scale(7.3913 9.35976)">
<stop offset="0.510417" stop-color="white"/>
<stop offset="0.546875" stop-color="#232323"/>
</radialGradient>
<radialGradient id="paint8_radial_25_10169" cx="0" cy="0" r="1" gradientUnits="userSpaceOnUse" gradientTransform="translate(420.299 287.391) rotate(90) scale(7.3913 9.35976)">
<stop offset="0.510417" stop-color="white"/>
<stop offset="0.546875" stop-color="#232323"/>
</radialGradient>
<clipPath id="clip0_25_10169">
<rect width="306" height="284" fill="white" transform="translate(208 19)"/>
</clipPath>
</defs>
</svg>
