<svg width="514" height="303" viewBox="0 0 514 303" fill="none" xmlns="http://www.w3.org/2000/svg">
<line y1="24.9999" x2="514" y2="24.9999" stroke="white" stroke-opacity="0.4" stroke-dasharray="8 8"/>
<line y1="42.9999" x2="514" y2="42.9999" stroke="white" stroke-opacity="0.4" stroke-dasharray="8 8"/>
<path d="M0 61.4999H514" stroke="white"/>
<path d="M0 79.4999H514" stroke="white"/>
<path d="M0 97.4999H514" stroke="white"/>
<path d="M0 115.5H514" stroke="white"/>
<path d="M0 133.5H514" stroke="white"/>
<line x1="4.2447e-08" y1="151" x2="514" y2="151" stroke="white" stroke-opacity="0.4" stroke-dasharray="8 8"/>
<path d="M0 169.5H514" stroke="white"/>
<path d="M0 187.5H514" stroke="white"/>
<path d="M0 205.5H514" stroke="white"/>
<path d="M0 223.5H514" stroke="white"/>
<path d="M0 241.5H514" stroke="white"/>
<line x1="4.2447e-08" y1="259" x2="514" y2="259" stroke="white" stroke-opacity="0.4" stroke-dasharray="8 8"/>
<line x1="4.2447e-08" y1="277" x2="514" y2="277" stroke="white" stroke-opacity="0.4" stroke-dasharray="8 8"/>
<path d="M28.6631 96.9376C26.8783 97.5422 25.4034 98.5625 24.2381 99.9993C23.0727 101.435 22.3626 103.004 22.1077 104.705C21.8527 106.406 22.0622 108.088 22.7359 109.751C23.4096 111.414 24.6751 112.756 26.5323 113.777C26.9693 113.777 27.2423 113.966 27.3519 114.344C27.4608 114.721 27.2968 114.91 26.8604 114.91C25.0757 114.533 23.5097 113.758 22.1623 112.586C19.6495 110.431 18.2657 107.654 18.0108 104.252C17.8651 102.551 18.0199 100.907 18.4751 99.3188C18.9303 97.7311 19.5585 96.2758 20.3597 94.9528C21.3429 93.5547 22.5083 92.3448 23.8557 91.3245C23.9285 91.2487 24.138 91.0791 24.4839 90.8144C24.8299 90.5496 25.1667 90.3042 25.4945 90.0774C25.8223 89.8506 26.3138 89.4914 26.9693 88.9998L24.9482 78.9077C23.1638 80.4574 21.3976 82.1675 19.6496 84.0385C17.9015 85.9096 16.3174 87.8851 14.8971 89.9636C13.4769 92.0429 12.3388 94.2445 11.483 96.5692C10.6272 98.8938 10.1994 101.341 10.1994 103.912C10.1994 106.293 10.6818 108.532 11.6469 110.63C12.612 112.728 13.8957 114.552 15.498 116.101C17.1003 117.651 18.9485 118.87 21.0425 119.759C23.1365 120.647 25.2577 121.091 27.4064 121.091C27.4795 121.091 27.8159 121.053 28.417 120.977C29.0181 120.902 29.6551 120.808 30.3286 120.694C31.0027 120.581 31.6218 120.458 32.1864 120.325C32.7503 120.193 33.0329 120.051 33.0329 119.9L32.7048 118.313C31.2847 110.866 29.937 103.741 28.6631 96.9376ZM30.5747 96.7108L35.0541 119.22C37.6399 118.199 39.3874 116.451 40.298 113.975C41.2086 111.5 41.4175 108.986 40.926 106.435C40.4345 103.883 39.2784 101.624 37.4572 99.6587C35.6366 97.6932 33.3424 96.7108 30.5747 96.7108ZM24.839 66.3778C25.9677 65.7725 27.0148 64.8659 27.9799 63.656C28.945 62.4468 29.8371 61.1517 30.6567 59.7722C31.4756 58.3928 32.1864 56.9846 32.7868 55.5479C33.3879 54.1119 33.8705 52.8082 34.2344 51.6363C34.635 50.3891 34.9079 48.9903 35.0541 47.4405C35.1995 45.8908 34.9631 44.5871 34.344 43.5282C33.907 42.5837 33.3335 42.0356 32.6234 41.8839C31.9127 41.733 31.2027 41.7895 30.4926 42.0542C29.7826 42.319 29.1091 42.744 28.4714 43.33C27.8345 43.916 27.3699 44.4354 27.0789 44.8891C26.2772 46.363 25.5762 48.0072 24.9755 49.8217C24.3746 51.6363 23.9649 53.5166 23.7465 55.4635C23.5279 57.4096 23.5007 59.2807 23.6645 61.0766C23.8284 62.8718 24.2199 64.6391 24.839 66.3778ZM23.2002 68.135C22.5811 65.6408 22.0349 63.1931 21.5614 60.7925C21.088 58.3928 20.8513 55.9264 20.8513 53.3935C20.8513 51.5418 20.9788 49.5098 21.2337 47.2989C21.4886 45.088 21.9529 42.9329 22.6266 40.835C23.3003 38.7372 24.229 36.8568 25.4125 35.194C26.5964 33.5304 28.1709 32.3212 30.1376 31.565C30.3196 31.4898 30.5016 31.4519 30.6836 31.4519C30.9386 31.4519 31.2392 31.6029 31.5853 31.9055C31.9313 32.2075 32.2953 32.6518 32.6779 33.2378C33.0598 33.8238 33.3969 34.4284 33.6885 35.0523C33.9794 35.6755 34.1979 36.1012 34.344 36.3281C35.3271 38.2556 36.0461 40.3063 36.5017 42.4792C36.9567 44.6529 37.2207 46.8166 37.2938 48.971C37.4392 52.2223 37.2662 55.4349 36.7747 58.6103C36.2832 61.785 35.2905 64.8845 33.7974 67.9082C33.288 68.8155 32.7689 69.732 32.2408 70.6579C31.7128 71.5845 31.0848 72.4817 30.3561 73.3511C30.2107 73.5028 29.9467 73.7768 29.5641 74.1732C29.1815 74.5703 28.7899 74.9767 28.3894 75.3924C27.9889 75.8081 27.6339 76.1959 27.3244 76.5544C27.0148 76.9136 26.8604 77.1311 26.8604 77.2069L29.0994 88.5462C29.1139 88.6206 30.2196 88.5462 30.2196 88.5462C32.3566 88.5741 34.6191 88.9333 36.5838 89.7368C38.4774 90.6441 40.107 91.8912 41.4727 93.4789C42.8383 95.0666 43.9302 96.8525 44.7498 98.8366C45.5695 100.821 45.979 102.834 45.979 104.875C45.979 106.916 45.6874 108.995 45.1049 111.112C43.6117 115.119 41.2266 118.086 37.9494 120.013C37.5847 120.24 37.0656 120.496 36.3921 120.779C35.7186 121.062 35.4546 121.507 35.6001 122.111C36.4742 126.23 37.0656 129.063 37.3758 130.616C37.6853 132.168 37.9128 134.172 38.0583 136.626C38.2037 138.973 37.8122 141.083 36.8836 142.972C35.9551 144.868 34.708 146.407 33.1418 147.595C31.5763 148.789 30.1466 149.483 28.854 149.698C27.5608 149.906 26.6777 150.006 26.2048 150.006C24.5658 150.006 22.9635 149.684 21.3976 149.04C19.4674 148.289 17.8469 147.137 16.5359 145.584C15.2249 144.031 14.5694 142.142 14.5694 139.917C14.5694 138.515 14.9609 137.077 15.7438 135.603C16.5268 134.129 17.5556 133.07 18.8301 132.433C20.2504 131.675 21.5341 131.467 22.6813 131.803C23.8284 132.147 24.7752 132.791 25.5218 133.735C26.2683 134.68 26.7874 135.825 27.0789 137.163C27.3699 138.508 27.3519 139.76 27.0238 140.933C26.6964 142.107 26.0318 143.101 25.0302 143.91C24.0287 144.725 22.6357 145.09 20.8513 145.019C21.5796 146.378 22.5993 147.237 23.9103 147.595C25.2213 147.959 26.5688 147.981 27.9524 147.68C29.3366 147.38 30.6381 146.822 31.8582 146.006C33.0784 145.198 34.0345 144.318 34.726 143.373C35.163 142.693 35.4911 141.806 35.7097 140.711C35.9282 139.61 36.0557 138.472 36.0916 137.277C36.1281 136.089 36.0916 135.159 35.9826 134.501C35.873 133.835 35.691 132.805 35.436 131.41C34.344 126.838 33.6519 123.961 33.3603 122.788C33.2149 122.414 32.8233 122.291 32.1864 122.423C31.5487 122.556 31.0117 122.679 30.5747 122.788C27.4429 123.21 24.8208 123.017 22.7086 122.225C19.431 121.318 16.545 119.701 14.0504 117.377C11.5559 115.053 9.55295 112.237 8.04161 108.929C6.53034 105.622 5.77467 103.108 5.77467 101.388C5.77467 99.6687 5.77467 98.5819 5.77467 98.1282C5.77467 95.0666 6.28452 92.1938 7.30421 89.51C9.23426 85.3143 11.5195 81.4591 14.1597 77.9439C16.7999 74.4286 19.8134 71.1588 23.2002 68.135Z" fill="white"/>
<path d="M49.0027 194.808C49.0027 197.22 47.3914 199.175 45.4038 199.175C43.4162 199.175 41.8049 197.22 41.8049 194.808C41.8049 192.396 43.4162 190.441 45.4038 190.441C47.3914 190.441 49.0027 192.396 49.0027 194.808ZM48.7543 180.042C48.7543 182.454 47.143 184.409 45.1553 184.409C43.1677 184.409 41.5564 182.454 41.5564 180.042C41.5564 177.63 43.1677 175.675 45.1553 175.675C47.143 175.675 48.7543 177.63 48.7543 180.042ZM6.36815 225.885C6.36815 225.261 8.95999 222.695 12.1278 220.182C18.9386 214.778 23.8572 208.867 26.7181 202.646C33.2787 188.379 31.2004 173.504 22.4568 172.146C17.6208 171.394 11.498 175.482 11.498 179.461C11.498 180.938 11.8241 181.057 15.3694 180.873C19.7073 180.649 22.6421 185.54 20.2946 189.082C16.5853 194.678 7.65062 191.463 7.65062 184.532C7.65062 178.458 10.8419 173.623 16.4586 171.189C28.4786 165.98 39.9203 175.583 38.9184 190.04C38.0973 201.89 29.1904 212.956 11.8995 223.611C7.79676 226.139 6.36815 226.726 6.36815 225.885Z" fill="white"/>
<path fill-rule="evenodd" clip-rule="evenodd" d="M62.9121 85.8707L63.2327 40.3463L64.8355 40.3594L64.5149 85.8837L62.9121 85.8707Z" fill="white"/>
<path d="M59.7994 70.9746L75.7964 65.5227L75.7964 71.793L59.7994 77.3111L59.7994 70.9746Z" fill="white"/>
<path fill-rule="evenodd" clip-rule="evenodd" d="M70.6056 83.4565L70.9261 37.9321L72.5289 37.9452L72.2084 83.4696L70.6056 83.4565Z" fill="white"/>
<path d="M59.6956 52.8058L75.6926 47.3539L75.6926 53.6241L59.6956 59.1422L59.6956 52.8058Z" fill="white"/>
<path fill-rule="evenodd" clip-rule="evenodd" d="M82.2494 112.426L82.57 66.9021L84.1728 66.9152L83.8522 112.44L82.2494 112.426Z" fill="white"/>
<path d="M79.1364 97.5306L95.1335 92.0787L95.1335 98.349L79.1364 103.867L79.1364 97.5306Z" fill="white"/>
<path fill-rule="evenodd" clip-rule="evenodd" d="M89.9431 110.013L90.2637 64.4884L91.8665 64.5015L91.5459 110.026L89.9431 110.013Z" fill="white"/>
<path d="M79.0332 79.3621L95.0302 73.9102L95.0302 80.1804L79.0332 85.6985L79.0332 79.3621Z" fill="white"/>
<path fill-rule="evenodd" clip-rule="evenodd" d="M62.9121 210.871L63.2327 165.346L64.8355 165.359L64.5149 210.884L62.9121 210.871Z" fill="white"/>
<path d="M59.7994 195.975L75.7964 190.523L75.7964 196.793L59.7994 202.311L59.7994 195.975Z" fill="white"/>
<path fill-rule="evenodd" clip-rule="evenodd" d="M70.6056 208.456L70.9261 162.932L72.5289 162.945L72.2084 208.47L70.6056 208.456Z" fill="white"/>
<path d="M59.6956 177.806L75.6926 172.354L75.6926 178.624L59.6956 184.142L59.6956 177.806Z" fill="white"/>
<path fill-rule="evenodd" clip-rule="evenodd" d="M82.2494 237.426L82.57 191.902L84.1728 191.915L83.8522 237.44L82.2494 237.426Z" fill="white"/>
<path d="M79.1364 222.531L95.1335 217.079L95.1335 223.349L79.1364 228.867L79.1364 222.531Z" fill="white"/>
<path fill-rule="evenodd" clip-rule="evenodd" d="M89.9431 235.013L90.2637 189.488L91.8665 189.501L91.5459 235.026L89.9431 235.013Z" fill="white"/>
<path d="M79.0332 204.362L95.0302 198.91L95.0302 205.18L79.0332 210.699L79.0332 204.362Z" fill="white"/>
<g clip-path="url(#clip0_25_9213)">
<path d="M269.396 84.1579C267.333 80.9233 269.544 76.2736 274.26 73.7802C278.977 71.2869 284.504 71.7586 286.568 74.9932C288.631 78.2278 286.42 82.8775 281.704 85.4383C276.987 87.9316 271.46 87.3925 269.396 84.1579Z" fill="white"/>
<path d="M293.116 75.2733C291.052 72.0387 293.263 67.3889 297.98 64.8956C302.696 62.4023 308.223 62.874 310.287 66.1086C312.35 69.3432 310.14 73.9929 305.423 76.5536C300.706 79.047 295.179 78.5079 293.116 75.2733Z" fill="white"/>
<path d="M316.835 66.3886C314.772 63.154 316.983 58.5043 321.699 56.011C326.416 53.5176 331.943 53.9893 334.006 57.2239C336.07 60.4585 333.859 65.1083 329.142 67.669C324.426 70.1623 318.899 69.6232 316.835 66.3886Z" fill="#232323"/>
<path d="M340.555 57.504C338.491 54.2694 340.702 49.6196 345.419 47.1263C350.135 44.633 355.662 45.1047 357.726 48.3393C359.789 51.5739 357.579 56.2236 352.862 58.7843C348.145 61.2777 342.618 60.7386 340.555 57.504Z" fill="white"/>
<path d="M364.274 48.6195C362.211 45.3849 364.421 40.7351 369.138 38.2418C373.855 35.7485 379.382 36.2202 381.445 39.4548C383.509 42.6894 381.298 47.3391 376.581 49.8998C371.865 52.3932 366.338 51.8541 364.274 48.6195Z" fill="white"/>
<path d="M387.994 39.7348C385.93 36.5002 388.141 31.8505 392.858 29.3571C397.574 26.8638 403.101 27.3355 405.165 30.5701C407.228 33.8047 405.018 38.4544 400.301 41.0152C395.584 43.5085 390.057 42.9694 387.994 39.7348Z" fill="white"/>
<path d="M411.713 30.8502C409.65 27.6156 411.86 22.9658 416.577 20.4725C421.294 17.9792 426.821 18.4509 428.884 21.6855C430.948 24.9201 428.737 29.5698 424.02 32.1305C419.304 34.6239 413.777 34.0848 411.713 30.8502Z" fill="#232323"/>
<path d="M269.396 147.163C267.333 143.934 269.544 139.292 274.26 136.803C278.977 134.313 284.504 134.784 286.568 138.013C288.631 141.243 286.42 145.884 281.704 148.441C276.987 150.93 271.46 150.392 269.396 147.163Z" fill="white"/>
<path d="M293.116 138.293C291.052 135.064 293.263 130.422 297.98 127.933C302.696 125.444 308.223 125.915 310.287 129.144C312.35 132.373 310.14 137.015 305.423 139.571C300.706 142.06 295.179 141.522 293.116 138.293Z" fill="white"/>
<path d="M316.835 129.424C314.772 126.194 316.983 121.553 321.699 119.063C326.416 116.574 331.943 117.045 334.006 120.274C336.07 123.503 333.859 128.145 329.142 130.702C324.426 133.191 318.899 132.653 316.835 129.424Z" fill="#232323"/>
<path d="M340.555 120.554C338.491 117.325 340.702 112.683 345.419 110.194C350.135 107.705 355.662 108.176 357.726 111.405C359.789 114.634 357.579 119.276 352.862 121.832C348.145 124.321 342.618 123.783 340.555 120.554Z" fill="white"/>
<path d="M364.274 111.684C362.211 108.455 364.421 103.813 369.138 101.324C373.855 98.8352 379.382 99.3061 381.445 102.535C383.509 105.764 381.298 110.406 376.581 112.963C371.865 115.452 366.338 114.914 364.274 111.684Z" fill="white"/>
<path d="M387.994 102.815C385.93 99.5856 388.141 94.9438 392.858 92.4547C397.574 89.9656 403.101 90.4365 405.165 93.6656C407.228 96.8947 405.018 101.537 400.301 104.093C395.584 106.582 390.057 106.044 387.994 102.815Z" fill="white"/>
<path d="M411.713 93.9453C409.65 90.7161 411.86 86.0743 416.577 83.5852C421.294 81.0961 426.821 81.567 428.884 84.7961C430.948 88.0252 428.737 92.6671 424.02 95.2234C419.304 97.7126 413.777 97.1744 411.713 93.9453Z" fill="#232323"/>
<path d="M269.396 210.163C267.333 206.934 269.544 202.292 274.26 199.803C278.977 197.313 284.504 197.784 286.568 201.013C288.631 204.243 286.42 208.884 281.704 211.441C276.987 213.93 271.46 213.392 269.396 210.163Z" fill="white"/>
<path d="M293.116 201.293C291.052 198.064 293.263 193.422 297.98 190.933C302.696 188.444 308.223 188.915 310.287 192.144C312.35 195.373 310.14 200.015 305.423 202.571C300.706 205.06 295.179 204.522 293.116 201.293Z" fill="white"/>
<path d="M316.835 192.424C314.772 189.194 316.983 184.553 321.699 182.063C326.416 179.574 331.943 180.045 334.006 183.274C336.07 186.503 333.859 191.145 329.142 193.702C324.426 196.191 318.899 195.653 316.835 192.424Z" fill="#232323"/>
<path d="M340.555 183.554C338.491 180.325 340.702 175.683 345.419 173.194C350.135 170.705 355.662 171.176 357.726 174.405C359.789 177.634 357.579 182.276 352.862 184.832C348.145 187.321 342.618 186.783 340.555 183.554Z" fill="white"/>
<path d="M364.274 174.684C362.211 171.455 364.421 166.813 369.138 164.324C373.855 161.835 379.382 162.306 381.445 165.535C383.509 168.764 381.298 173.406 376.581 175.963C371.865 178.452 366.338 177.914 364.274 174.684Z" fill="white"/>
<path d="M387.994 165.815C385.93 162.586 388.141 157.944 392.858 155.455C397.574 152.966 403.101 153.436 405.165 156.666C407.228 159.895 405.018 164.537 400.301 167.093C395.584 169.582 390.057 169.044 387.994 165.815Z" fill="white"/>
<path d="M411.713 156.945C409.65 153.716 411.86 149.074 416.577 146.585C421.294 144.096 426.821 144.567 428.884 147.796C430.948 151.025 428.737 155.667 424.02 158.223C419.304 160.713 413.777 160.174 411.713 156.945Z" fill="#232323"/>
<path d="M269.396 273.163C267.333 269.934 269.544 265.292 274.26 262.803C278.977 260.313 284.504 260.784 286.568 264.013C288.631 267.243 286.42 271.884 281.704 274.441C276.987 276.93 271.46 276.392 269.396 273.163Z" fill="white"/>
<path d="M293.116 264.293C291.052 261.064 293.263 256.422 297.98 253.933C302.696 251.444 308.223 251.915 310.287 255.144C312.35 258.373 310.14 263.015 305.423 265.571C300.706 268.06 295.179 267.522 293.116 264.293Z" fill="white"/>
<path d="M316.835 255.424C314.772 252.194 316.983 247.553 321.699 245.063C326.416 242.574 331.943 243.045 334.006 246.274C336.07 249.503 333.859 254.145 329.142 256.702C324.426 259.191 318.899 258.653 316.835 255.424Z" fill="#232323"/>
<path d="M340.555 246.554C338.491 243.325 340.702 238.683 345.419 236.194C350.135 233.705 355.662 234.176 357.726 237.405C359.789 240.634 357.579 245.276 352.862 247.832C348.145 250.321 342.618 249.783 340.555 246.554Z" fill="white"/>
<path d="M364.274 237.684C362.211 234.455 364.421 229.813 369.138 227.324C373.855 224.835 379.382 225.306 381.445 228.535C383.509 231.764 381.298 236.406 376.581 238.963C371.865 241.452 366.338 240.914 364.274 237.684Z" fill="white"/>
<path d="M387.994 228.815C385.93 225.586 388.141 220.944 392.858 218.455C397.574 215.966 403.101 216.436 405.165 219.666C407.228 222.895 405.018 227.537 400.301 230.093C395.584 232.582 390.057 232.044 387.994 228.815Z" fill="white"/>
<path d="M411.713 219.945C409.65 216.716 411.86 212.074 416.577 209.585C421.294 207.096 426.821 207.567 428.884 210.796C430.948 214.025 428.737 218.667 424.02 221.223C419.304 223.713 413.777 223.174 411.713 219.945Z" fill="#232323"/>
<path d="M364.274 300.684C362.211 297.455 364.421 292.813 369.138 290.324C373.855 287.835 379.382 288.306 381.445 291.535C383.509 294.764 381.298 299.406 376.581 301.963C371.865 304.452 366.338 303.914 364.274 300.684Z" fill="white"/>
<path d="M387.994 291.815C385.93 288.586 388.141 283.944 392.858 281.455C397.574 278.966 403.101 279.436 405.165 282.666C407.228 285.895 405.018 290.537 400.301 293.093C395.584 295.582 390.057 295.044 387.994 291.815Z" fill="white"/>
<path d="M411.713 282.945C409.65 279.716 411.86 275.074 416.577 272.585C421.294 270.096 426.821 270.567 428.884 273.796C430.948 277.025 428.737 281.667 424.02 284.223C419.304 286.713 413.777 286.174 411.713 282.945Z" fill="#232323"/>
</g>
<defs>
<clipPath id="clip0_25_9213">
<rect width="306" height="284" fill="white" transform="translate(208 10)"/>
</clipPath>
</defs>
</svg>
