<svg width="33" height="33" viewBox="0 0 33 33" fill="none" xmlns="http://www.w3.org/2000/svg">
<path fill-rule="evenodd" clip-rule="evenodd" d="M32.7017 19.6187C32.0847 22.8236 30.5311 25.7735 28.2374 28.0953C25.9437 30.4171 23.0129 32.0065 19.8158 32.6625C16.6187 33.3184 13.2988 33.0115 10.2762 31.7805C7.25352 30.5494 4.66385 28.4496 2.83473 25.7466C1.0056 23.0436 0.0191965 19.8589 0.000277342 16.5952C-0.0186418 13.3316 0.930776 10.1356 2.72844 7.41158C4.52611 4.68756 7.09126 2.55787 10.0994 1.29188C13.1076 0.0258938 16.4237 -0.319516 19.6282 0.299344C21.7551 0.709444 23.7805 1.53446 25.5886 2.7273C27.3967 3.92013 28.9521 5.45742 30.1661 7.25139C31.3801 9.04536 32.2289 11.0609 32.6639 13.1829C33.0989 15.3048 33.1118 17.4917 32.7017 19.6187ZM19.3995 12.0799C19.3995 12.6561 19.2286 13.2194 18.9085 13.6985C18.5883 14.1776 18.1333 14.551 17.601 14.7715C17.0686 14.992 16.4828 15.0497 15.9177 14.9373C15.3525 14.8249 14.8334 14.5474 14.4259 14.14C14.0185 13.7325 13.741 13.2134 13.6286 12.6483C13.5162 12.0831 13.5739 11.4973 13.7944 10.9649C14.0149 10.4326 14.3883 9.97757 14.8674 9.65744C15.3465 9.33731 15.9098 9.16644 16.486 9.16644C16.8688 9.16579 17.248 9.24071 17.6017 9.38689C17.9555 9.53307 18.2769 9.74765 18.5476 10.0183C18.8183 10.289 19.0328 10.6104 19.179 10.9642C19.3252 11.3179 19.4001 11.6971 19.3995 12.0799ZM18.8236 22.6075C19.1437 22.1284 19.3146 21.5651 19.3146 20.9889C19.3146 20.2162 19.0077 19.4752 18.4613 18.9288C17.9149 18.3824 17.1739 18.0755 16.4012 18.0755C15.825 18.0755 15.2617 18.2464 14.7826 18.5665C14.3035 18.8866 13.93 19.3416 13.7095 19.874C13.489 20.4063 13.4313 20.9921 13.5437 21.5573C13.6562 22.1224 13.9336 22.6416 14.3411 23.049C14.7485 23.4565 15.2677 23.7339 15.8328 23.8464C16.398 23.9588 16.9837 23.9011 17.5161 23.6806C18.0485 23.4601 18.5035 23.0866 18.8236 22.6075Z" fill="url(#paint0_radial_502_187)" fill-opacity="0.04"/>
<defs>
<radialGradient id="paint0_radial_502_187" cx="0" cy="0" r="1" gradientUnits="userSpaceOnUse" gradientTransform="translate(18.4878 14.8255) rotate(10.99) scale(18.009)">
<stop offset="0.83" stop-color="#B0C52C"/>
<stop offset="0.91" stop-color="#B0C52C"/>
<stop offset="0.96" stop-color="#B0C52C"/>
<stop offset="1" stop-color="#B0C52C"/>
</radialGradient>
</defs>
</svg>
