<svg width="118" height="144" viewBox="0 0 118 144" fill="none" xmlns="http://www.w3.org/2000/svg">
<path d="M117.622 63.8651C117.622 70.0117 113.176 74.9945 107.693 74.9945C102.209 74.9945 97.764 70.0117 97.764 63.8651C97.764 57.7185 102.209 52.7357 107.693 52.7357C113.176 52.7357 117.622 57.7185 117.622 63.8651ZM116.936 26.2361C116.936 32.3826 112.491 37.3655 107.007 37.3655C101.524 37.3655 97.0784 32.3826 97.0784 26.2361C97.0784 20.0895 101.524 15.1067 107.007 15.1067C112.491 15.1067 116.936 20.0895 116.936 26.2361ZM0 143.062C0 141.472 7.15046 134.932 15.8899 128.527C34.6797 114.757 48.2494 99.6921 56.142 83.8385C74.2417 47.4823 68.5081 9.57478 44.3859 6.11295C31.044 4.19822 14.1525 14.6145 14.1525 24.7565C14.1525 28.5191 15.052 28.8221 24.833 28.3546C36.8006 27.7827 44.8971 40.2467 38.4207 49.2721C28.1875 63.5331 3.53811 55.3404 3.53811 37.6782C3.53811 22.1985 12.3422 9.87888 27.8379 3.67557C60.9989 -9.59963 92.5646 14.8733 89.8007 51.7154C87.5353 81.9123 62.9629 110.114 15.26 137.266C3.9413 143.709 0 145.206 0 143.062V143.062Z" fill="white"/>
</svg>
