<svg width="126" height="338" viewBox="0 0 126 338" fill="none" xmlns="http://www.w3.org/2000/svg">
<path d="M71.7091 187.045C66.1288 188.765 61.5171 191.667 57.8737 195.754C54.2298 199.838 52.0095 204.302 51.2125 209.139C50.4154 213.977 51.0702 218.762 53.1767 223.492C55.2831 228.223 59.24 232.039 65.0468 234.944C66.4133 234.944 67.2668 235.481 67.6096 236.556C67.9501 237.63 67.4371 238.167 66.0728 238.167C60.4925 237.093 55.5963 234.889 51.3834 231.557C43.5266 225.427 39.1998 217.526 38.4028 207.849C37.9473 203.011 38.4312 198.334 39.8547 193.818C41.2779 189.302 43.2421 185.162 45.747 181.399C48.8213 177.423 52.465 173.981 56.6781 171.079C56.9057 170.863 57.5605 170.381 58.6421 169.628C59.7239 168.875 60.777 168.177 61.8019 167.531C62.8267 166.886 64.3635 165.865 66.4133 164.466L60.0939 135.76C54.5145 140.168 48.9922 145.032 43.5268 150.354C38.0612 155.676 33.1081 161.296 28.6673 167.208C24.2268 173.122 20.6685 179.384 17.9926 185.997C15.3169 192.609 13.979 199.57 13.979 206.882C13.979 213.655 15.4876 220.026 18.5051 225.993C21.5224 231.96 25.5362 237.148 30.5462 241.554C35.5562 245.962 41.3348 249.43 47.882 251.958C54.4292 254.484 61.0617 255.748 67.7798 255.748C68.0083 255.748 69.0601 255.64 70.9396 255.424C72.8191 255.21 74.8107 254.942 76.9165 254.618C79.0245 254.296 80.96 253.946 82.7253 253.57C84.4884 253.193 85.3721 252.79 85.3721 252.361L84.3461 247.845C79.906 226.664 75.6923 206.398 71.7091 187.045V187.045ZM77.686 186.4L91.6917 250.425C99.7765 247.521 105.24 242.549 108.088 235.507C110.935 228.466 111.588 221.316 110.051 214.058C108.514 206.801 104.9 200.376 99.2054 194.785C93.513 189.194 86.3399 186.4 77.686 186.4V186.4ZM59.7523 100.119C63.2815 98.3974 66.5556 95.8188 69.5731 92.3772C72.5906 88.9377 75.3797 85.254 77.9425 81.3301C80.5031 77.4062 82.7253 73.4009 84.6026 69.3142C86.4821 65.2296 87.9909 61.5214 89.1289 58.1877C90.3812 54.6404 91.2347 50.6615 91.6917 46.2533C92.1465 41.845 91.4072 38.1369 89.4716 35.1247C88.1051 32.4383 86.3118 30.8793 84.0918 30.4478C81.8696 30.0184 79.6495 30.1792 77.4295 30.9322C75.2094 31.6852 73.1036 32.8941 71.1099 34.561C69.1183 36.2278 67.6656 37.7054 66.756 38.9957C64.2493 43.1882 62.0573 47.8652 60.1793 53.0264C58.3004 58.1877 57.0195 63.5363 56.3365 69.0741C55.6532 74.6098 55.5678 79.9319 56.0802 85.0403C56.5925 90.1466 57.8166 95.1736 59.7523 100.119V100.119ZM54.6285 105.118C52.6928 98.0229 50.9848 91.0604 49.5045 84.2323C48.0242 77.4062 47.2843 70.3908 47.2843 63.1862C47.2843 57.9191 47.6828 52.1391 48.4799 45.8503C49.2767 39.5615 50.7286 33.4314 52.835 27.4642C54.9415 21.497 57.845 16.1484 61.5456 11.4186C65.2473 6.68676 70.1702 3.24725 76.3195 1.09604C76.8885 0.882341 77.4575 0.774475 78.0265 0.774475C78.824 0.774475 79.7638 1.2039 80.8458 2.0648C81.9278 2.92366 83.0658 4.18752 84.2621 5.85436C85.4561 7.52119 86.5101 9.24095 87.4219 11.0156C88.3314 12.7883 89.0147 13.9993 89.4716 14.6444C92.5452 20.1273 94.7933 25.9602 96.218 32.1411C97.6405 38.3241 98.4661 44.4786 98.6945 50.6066C99.1493 59.8546 98.6083 68.9927 97.0715 78.0249C95.5347 87.0551 92.431 95.8717 87.7624 104.472C86.1696 107.053 84.5466 109.66 82.8955 112.294C81.2445 114.929 79.281 117.482 77.0027 119.954C76.5479 120.386 75.7224 121.165 74.5262 122.293C73.3299 123.422 72.1057 124.578 70.8534 125.761C69.6011 126.943 68.4911 128.046 67.5233 129.066C66.5556 130.088 66.0728 130.706 66.0728 130.922L73.0735 163.176C73.1187 163.388 76.576 163.176 76.576 163.176C83.2577 163.255 90.3316 164.277 96.4745 166.563C102.395 169.143 107.491 172.691 111.76 177.207C116.03 181.723 119.444 186.803 122.007 192.446C124.57 198.092 125.85 203.817 125.85 209.624C125.85 215.428 124.939 221.342 123.117 227.362C118.449 238.76 110.991 247.2 100.744 252.683C99.6041 253.328 97.9811 254.054 95.8753 254.86C93.7695 255.666 92.944 256.93 93.3987 258.65C96.1318 270.364 97.9811 278.424 98.951 282.84C99.9188 287.257 100.63 292.955 101.085 299.936C101.54 306.611 100.315 312.615 97.4121 317.988C94.5088 323.382 90.6097 327.757 85.7126 331.136C80.8178 334.535 76.3475 336.509 72.3061 337.119C68.2626 337.71 65.5016 337.994 64.023 337.994C58.8983 337.994 53.8884 337.079 48.9922 335.247C42.9573 333.11 37.8904 329.833 33.7913 325.417C29.6922 321 27.6427 315.627 27.6427 309.298C27.6427 305.309 28.8667 301.218 31.3148 297.026C33.7629 292.833 36.9796 289.821 40.9647 288.01C45.4054 285.852 49.4192 285.262 53.0059 286.219C56.5925 287.196 59.5529 289.027 61.8872 291.714C64.2213 294.4 65.8443 297.657 66.756 301.462C67.6656 305.289 67.6096 308.85 66.5836 312.188C65.5598 315.526 63.482 318.355 60.3502 320.654C57.2189 322.975 52.8635 324.013 47.2843 323.809C49.5614 327.676 52.7497 330.118 56.8488 331.136C60.9479 332.174 65.161 332.235 69.4869 331.38C73.8149 330.525 77.8843 328.938 81.6993 326.618C85.5143 324.318 88.5039 321.815 90.6657 319.128C92.0322 317.195 93.0582 314.671 93.7415 311.557C94.4247 308.423 94.8234 305.187 94.9355 301.788C95.0498 298.41 94.9355 295.764 94.595 293.891C94.2523 291.999 93.6833 289.068 92.8858 285.099C89.4716 272.094 87.3076 263.913 86.3959 260.575C85.9411 259.511 84.7169 259.161 82.7253 259.537C80.7315 259.914 79.0525 260.264 77.686 260.575C67.8941 261.776 59.6954 261.226 53.0913 258.973C42.8435 256.393 33.8198 251.795 26.0201 245.183C18.2204 238.572 11.9579 230.562 7.23246 221.153C2.5072 211.746 0.14447 204.597 0.14447 199.704C0.14447 194.813 0.14447 191.722 0.14447 190.432C0.14447 181.723 1.73859 173.552 4.92684 165.917C10.9615 153.983 18.1066 143.017 26.3617 133.018C34.6168 123.019 44.0391 113.718 54.6285 105.118V105.118Z" fill="white"/>
</svg>
