<svg width="232" height="275" viewBox="0 0 232 275" fill="none" xmlns="http://www.w3.org/2000/svg">
<path fill-rule="evenodd" clip-rule="evenodd" d="M232 165H0V167H232V165ZM232 189H0V191H232V189ZM0 213H232V215H0V213ZM232 237H0V239H232V237ZM0 261H232V263H0V261Z" fill="black"/>
<path d="M117.323 127.393C113.796 122.151 117.575 114.615 125.638 110.574C133.701 106.532 143.149 107.297 146.677 112.54C150.204 117.782 146.425 125.318 138.362 129.469C130.299 133.51 120.851 132.636 117.323 127.393V127.393Z" fill="black"/>
<path fill-rule="evenodd" clip-rule="evenodd" d="M232 22H0V24H232V22ZM232 46H0V48H232V46ZM0 70H232V72H0V70ZM232 94H0V96H232V94ZM0 118H232V120H0V118Z" fill="black"/>
<path d="M69.8809 202.406C69.8809 205.526 67.4667 208.055 64.4885 208.055C61.5104 208.055 59.0961 205.526 59.0961 202.406C59.0961 199.286 61.5104 196.757 64.4885 196.757C67.4667 196.757 69.8809 199.286 69.8809 202.406ZM69.5086 183.306C69.5086 186.426 67.0944 188.955 64.1162 188.955C61.1381 188.955 58.7238 186.426 58.7238 183.306C58.7238 180.186 61.1381 177.657 64.1162 177.657C67.0944 177.657 69.5086 180.186 69.5086 183.306ZM6 242.606C6 241.799 9.88345 238.479 14.6299 235.228C24.8347 228.239 32.2045 220.592 36.491 212.544C46.3211 194.09 43.2071 174.849 30.1062 173.092C22.8602 172.12 13.6863 177.407 13.6863 182.555C13.6863 184.465 14.1748 184.619 19.487 184.381C25.9866 184.091 30.3838 190.418 26.8665 194.999C21.3088 202.238 7.92157 198.079 7.92157 189.114C7.92157 181.256 12.7031 175.003 21.1189 171.854C39.1288 165.116 56.2723 177.538 54.7712 196.239C53.5409 211.567 40.1955 225.882 14.2878 239.664C8.14054 242.934 6 243.694 6 242.606V242.606Z" fill="black"/>
<path d="M37.0344 80.0938C34.7705 80.8333 32.8995 82.0812 31.4213 83.8384C29.9429 85.5947 29.0421 87.5139 28.7188 89.594C28.3954 91.6741 28.661 93.7315 29.5157 95.7653C30.3703 97.7999 31.9756 99.4408 34.3315 100.69C34.8859 100.69 35.2322 100.921 35.3712 101.383C35.5094 101.845 35.3013 102.076 34.7477 102.076C32.4837 101.614 30.4973 100.666 28.7881 99.2334C25.6005 96.5975 23.8451 93.2003 23.5218 89.0392C23.337 86.959 23.5333 84.948 24.1108 83.0062C24.6882 81.0643 25.4851 79.2843 26.5014 77.6662C27.7486 75.9563 29.2269 74.4764 30.9362 73.2285C31.0286 73.1358 31.2942 72.9284 31.733 72.6046C32.1719 72.2808 32.5992 71.9806 33.015 71.7032C33.4308 71.4258 34.0543 70.9865 34.8859 70.3853L32.3221 58.0418C30.0584 59.9373 27.818 62.0288 25.6006 64.3173C23.3832 66.6057 21.3736 69.0219 19.572 71.5641C17.7704 74.1071 16.3268 76.7999 15.2411 79.6431C14.1556 82.4863 13.6128 85.4792 13.6128 88.6235C13.6128 91.5359 14.2248 94.275 15.4491 96.8408C16.6732 99.4066 18.3017 101.637 20.3343 103.532C22.3669 105.427 24.7113 106.919 27.3675 108.005C30.0238 109.092 32.7147 109.635 35.4403 109.635C35.533 109.635 35.9597 109.589 36.7223 109.496C37.4848 109.404 38.2928 109.288 39.1471 109.149C40.0024 109.011 40.7876 108.86 41.5038 108.699C42.2191 108.537 42.5776 108.363 42.5776 108.179L42.1614 106.237C40.36 97.1296 38.6504 88.4152 37.0344 80.0938V80.0938ZM39.4593 79.8164L45.1416 107.347C48.4217 106.098 50.6384 103.96 51.7936 100.932C52.9487 97.9041 53.2137 94.8298 52.5902 91.7092C51.9667 88.5885 50.5002 85.8258 48.1899 83.4218C45.8805 81.0179 42.9703 79.8164 39.4593 79.8164V79.8164ZM32.1835 42.7169C33.6153 41.9765 34.9436 40.8677 36.1678 39.3879C37.3921 37.909 38.5236 36.325 39.5634 34.6378C40.6022 32.9506 41.5038 31.2284 42.2655 29.4712C43.028 27.7148 43.6401 26.1204 44.1018 24.6869C44.6099 23.1616 44.9562 21.4508 45.1416 19.5553C45.3261 17.6598 45.0261 16.0653 44.2409 14.7701C43.6865 13.615 42.9589 12.9447 42.0582 12.7591C41.1566 12.5745 40.2559 12.6436 39.3553 12.9674C38.4546 13.2912 37.6002 13.811 36.7913 14.5277C35.9833 15.2445 35.3939 15.8798 35.0249 16.4346C34.0079 18.2373 33.1186 20.2484 32.3567 22.4676C31.5944 24.6869 31.0747 26.9867 30.7976 29.3679C30.5204 31.7482 30.4858 34.0366 30.6936 36.2332C30.9015 38.4288 31.3981 40.5903 32.1835 42.7169V42.7169ZM30.1047 44.8661C29.3193 41.8155 28.6264 38.8217 28.0258 35.8857C27.4253 32.9506 27.1251 29.9341 27.1251 26.8362C27.1251 24.5714 27.2867 22.0861 27.6101 19.382C27.9334 16.6779 28.5224 14.0421 29.3771 11.4762C30.2317 8.91039 31.4096 6.6106 32.911 4.57684C34.4128 2.5422 36.4101 1.06326 38.9049 0.138268C39.1358 0.046381 39.3666 0 39.5975 0C39.921 0 40.3023 0.184649 40.7413 0.554821C41.1803 0.924119 41.642 1.46756 42.1273 2.18428C42.6117 2.901 43.0394 3.64047 43.4092 4.40357C43.7783 5.16579 44.0555 5.68648 44.2409 5.96389C45.4878 8.32144 46.3999 10.8295 46.9779 13.4872C47.5551 16.1458 47.89 18.7922 47.9827 21.4271C48.1672 25.4036 47.9477 29.3329 47.3242 33.2166C46.7007 37.0995 45.4415 40.8905 43.5474 44.5887C42.9012 45.6984 42.2427 46.8194 41.5729 47.9518C40.903 49.0851 40.1064 50.1824 39.1821 51.2457C38.9976 51.4312 38.6627 51.7664 38.1774 52.2512C37.692 52.7369 37.1953 53.234 36.6873 53.7424C36.1792 54.2508 35.7289 54.7252 35.3362 55.1636C34.9436 55.6029 34.7477 55.8689 34.7477 55.9617L37.588 69.8305C37.6063 69.9215 39.009 69.8305 39.009 69.8305C41.7198 69.8646 44.5898 70.3039 47.082 71.2867C49.4841 72.3963 51.5513 73.9216 53.2837 75.8635C55.016 77.8054 56.4011 79.9897 57.4408 82.4163C58.4806 84.8439 59 87.3056 59 89.8023C59 92.2981 58.6301 94.8412 57.8912 97.4298C55.9971 102.33 52.9715 105.959 48.8143 108.317C48.3517 108.594 47.6932 108.907 46.8389 109.253C45.9845 109.6 45.6496 110.143 45.8341 110.883C46.9429 115.92 47.6932 119.385 48.0867 121.284C48.4794 123.183 48.7679 125.634 48.9525 128.635C49.137 131.506 48.6403 134.087 47.4624 136.398C46.2845 138.717 44.7026 140.598 42.7158 142.051C40.7299 143.512 38.9163 144.361 37.2767 144.624C35.6362 144.877 34.516 145 33.9161 145C31.837 145 29.8044 144.606 27.818 143.819C25.3696 142.9 23.3139 141.491 21.6508 139.592C19.9878 137.693 19.1563 135.383 19.1563 132.661C19.1563 130.946 19.6529 129.187 20.6461 127.384C21.6393 125.581 22.9443 124.286 24.5611 123.507C26.3628 122.58 27.9912 122.326 29.4464 122.737C30.9015 123.157 32.1026 123.945 33.0496 125.1C33.9966 126.255 34.655 127.655 35.0249 129.292C35.3939 130.937 35.3712 132.468 34.955 133.904C34.5396 135.339 33.6966 136.555 32.426 137.544C31.1556 138.542 29.3886 138.988 27.1251 138.9C28.0489 140.563 29.3424 141.613 31.0055 142.051C32.6685 142.497 34.3778 142.523 36.1329 142.156C37.8888 141.788 39.5398 141.106 41.0876 140.108C42.6354 139.119 43.8482 138.043 44.7253 136.888C45.2797 136.056 45.696 134.971 45.9732 133.632C46.2504 132.285 46.4121 130.893 46.4576 129.432C46.504 127.979 46.4576 126.841 46.3195 126.036C46.1804 125.222 45.9496 123.962 45.626 122.256C44.2409 116.664 43.3629 113.146 42.993 111.711C42.8085 111.253 42.3118 111.103 41.5038 111.264C40.6949 111.426 40.0137 111.577 39.4593 111.711C35.4866 112.227 32.1604 111.991 29.481 111.022C25.3234 109.912 21.6624 107.935 18.498 105.092C15.3336 102.25 12.7928 98.8054 10.8757 94.7598C8.95858 90.715 8 87.6408 8 85.537C8 83.4341 8 82.1048 8 81.55C8 77.8054 8.64675 74.2918 9.94025 71.0092C12.3886 65.8776 15.2874 61.1625 18.6366 56.8631C21.9858 52.5636 25.8085 48.5644 30.1047 44.8661V44.8661Z" fill="black"/>
</svg>
