<svg width="33" height="33" viewBox="0 0 33 33" fill="none" xmlns="http://www.w3.org/2000/svg">
<path d="M25.3416 29.5666C22.3182 31.6103 18.6798 32.5426 15.0461 32.2046C11.4125 31.8666 8.00846 30.2792 5.41392 27.7129C2.81939 25.1465 1.19487 21.7601 0.817125 18.1303C0.439383 14.5006 1.33179 10.8522 3.3423 7.80664C5.35282 4.76109 8.35707 2.5068 11.8432 1.42782C15.3294 0.34885 19.0818 0.511941 22.4613 1.88931C25.8407 3.26668 28.638 5.77312 30.3767 8.98163C32.1154 12.1901 32.6879 15.9022 31.9967 19.4855C31.6084 21.5222 30.8204 23.4618 29.6781 25.1921C28.5358 26.9225 27.0619 28.4093 25.3416 29.5666V29.5666ZM25.4205 29.6751C28.4637 27.6069 30.6958 24.5478 31.7369 21.0187C32.7779 17.4896 32.5633 13.7088 31.1298 10.3201C29.6963 6.93137 27.1324 4.14438 23.8748 2.43372C20.6172 0.723066 16.8674 0.194537 13.2638 0.938143C9.66033 1.68175 6.426 3.65151 4.11168 6.51196C1.79736 9.37241 0.546161 12.9467 0.571168 16.626C0.596176 20.3054 1.89584 23.8623 4.24883 26.691C6.60182 29.5198 9.86262 31.4454 13.4759 32.1399C15.5309 32.5402 17.6449 32.5284 19.6954 32.1053C21.7458 31.6822 23.6918 30.8561 25.4205 29.6751Z" fill="url(#paint0_linear_313_89)"/>
<path fill-rule="evenodd" clip-rule="evenodd" d="M32.7017 19.6187C32.0847 22.8236 30.5311 25.7735 28.2374 28.0953C25.9437 30.4171 23.0129 32.0065 19.8158 32.6625C16.6187 33.3184 13.2988 33.0115 10.2762 31.7805C7.25352 30.5494 4.66385 28.4496 2.83473 25.7466C1.0056 23.0436 0.0191965 19.8589 0.000277342 16.5952C-0.0186418 13.3316 0.930776 10.1356 2.72844 7.41158C4.52611 4.68756 7.09126 2.55787 10.0994 1.29188C13.1076 0.0258938 16.4237 -0.319516 19.6282 0.299344C21.7551 0.709444 23.7805 1.53446 25.5886 2.7273C27.3967 3.92013 28.9521 5.45742 30.1661 7.25139C31.3801 9.04536 32.2289 11.0609 32.6639 13.1829C33.0989 15.3048 33.1118 17.4917 32.7017 19.6187ZM19.3995 12.0799C19.3995 12.6561 19.2286 13.2194 18.9085 13.6985C18.5883 14.1776 18.1333 14.551 17.601 14.7715C17.0686 14.992 16.4828 15.0497 15.9177 14.9373C15.3525 14.8249 14.8334 14.5474 14.4259 14.14C14.0185 13.7325 13.741 13.2134 13.6286 12.6483C13.5162 12.0831 13.5739 11.4973 13.7944 10.9649C14.0149 10.4326 14.3883 9.97757 14.8674 9.65744C15.3465 9.33731 15.9098 9.16644 16.486 9.16644C16.8688 9.16579 17.248 9.24071 17.6017 9.38689C17.9555 9.53307 18.2769 9.74765 18.5476 10.0183C18.8183 10.289 19.0328 10.6104 19.179 10.9642C19.3252 11.3179 19.4001 11.6971 19.3995 12.0799ZM18.8236 22.6075C19.1437 22.1284 19.3146 21.5651 19.3146 20.9889C19.3146 20.2162 19.0077 19.4752 18.4613 18.9288C17.9149 18.3824 17.1739 18.0755 16.4012 18.0755C15.825 18.0755 15.2617 18.2464 14.7826 18.5665C14.3035 18.8866 13.93 19.3416 13.7095 19.874C13.489 20.4063 13.4313 20.9921 13.5437 21.5573C13.6562 22.1224 13.9336 22.6416 14.3411 23.049C14.7485 23.4565 15.2677 23.7339 15.8328 23.8464C16.398 23.9588 16.9837 23.9011 17.5161 23.6806C18.0485 23.4601 18.5035 23.0866 18.8236 22.6075Z" fill="url(#paint1_radial_313_89)"/>
<path fill-rule="evenodd" clip-rule="evenodd" d="M16.5028 30.8435C24.4255 30.8435 30.8481 24.4208 30.8481 16.4981C30.8481 8.57545 24.4255 2.15283 16.5028 2.15283C8.58009 2.15283 2.15747 8.57545 2.15747 16.4981C2.15747 24.4208 8.58009 30.8435 16.5028 30.8435ZM19.445 12.077C19.445 12.6532 19.2741 13.2165 18.954 13.6956C18.6338 14.1747 18.1788 14.5481 17.6464 14.7687C17.1141 14.9892 16.5283 15.0469 15.9631 14.9344C15.398 14.822 14.8789 14.5445 14.4714 14.1371C14.064 13.7296 13.7865 13.2105 13.6741 12.6454C13.5617 12.0802 13.6194 11.4944 13.8399 10.9621C14.0604 10.4297 14.4338 9.9747 14.9129 9.65456C15.392 9.33443 15.9553 9.16356 16.5315 9.16356C16.9143 9.16291 17.2934 9.23783 17.6472 9.38401C18.001 9.5302 18.3224 9.74477 18.5931 10.0154C18.8638 10.2861 19.0783 10.6075 19.2245 10.9613C19.3707 11.3151 19.4456 11.6942 19.445 12.077ZM18.8691 22.6046C19.1892 22.1255 19.3601 21.5623 19.3601 20.986C19.3601 20.2133 19.0531 19.4723 18.5068 18.9259C17.9604 18.3796 17.2194 18.0726 16.4467 18.0726C15.8704 18.0726 15.3072 18.2435 14.828 18.5636C14.3489 18.8837 13.9755 19.3388 13.755 19.8711C13.5345 20.4035 13.4768 20.9893 13.5892 21.5544C13.7016 22.1196 13.9791 22.6387 14.3866 23.0461C14.794 23.4536 15.3131 23.7311 15.8783 23.8435C16.4434 23.9559 17.0292 23.8982 17.5616 23.6777C18.0939 23.4572 18.549 23.0838 18.8691 22.6046Z" fill="url(#paint2_radial_313_89)"/>
<path opacity="0.16" d="M16.5126 3.15357C13.8722 3.15747 11.2922 3.944 9.09864 5.41378C6.90511 6.88355 5.1965 8.97059 4.18876 11.4111C3.18102 13.8517 2.91936 16.5362 3.43687 19.1254C3.95438 21.7146 5.22782 24.0923 7.09626 25.958C8.96469 27.8237 11.3443 29.0936 13.9342 29.6073C16.5242 30.121 19.2083 29.8554 21.6474 28.844C24.0864 27.8327 26.171 26.121 27.6375 23.9253C29.104 21.7296 29.8868 19.1484 29.8868 16.508C29.8855 14.753 29.5385 13.0154 28.8657 11.3945C28.1929 9.77353 27.2074 8.30099 25.9655 7.06091C24.7236 5.82084 23.2496 4.83752 21.6276 4.16709C20.0057 3.49667 18.2676 3.15227 16.5126 3.15357V3.15357ZM16.5126 28.9357C14.0544 28.9367 11.6512 28.2086 9.60681 26.8437C7.56244 25.4787 5.96878 23.5381 5.02741 21.2673C4.08603 18.9965 3.83922 16.4976 4.31818 14.0865C4.79715 11.6755 5.98038 9.46061 7.71823 7.72207C9.45607 5.98354 11.6705 4.79942 14.0813 4.3195C16.4922 3.83958 18.9912 4.0854 21.2624 5.02587C23.5335 5.96635 25.4748 7.55923 26.8406 9.60306C28.2063 11.6469 28.9353 14.0498 28.9353 16.508C28.934 19.8028 27.625 22.9623 25.2957 25.2925C22.9664 27.6227 19.8074 28.9331 16.5126 28.9357Z" fill="black" fill-opacity="0.53"/>
<path d="M8.08289 25.6428C10.0076 27.2494 12.3434 28.2854 14.8262 28.6339C17.309 28.9823 19.8398 28.6293 22.1324 27.6147C19.868 28.7539 17.3099 29.1754 14.7997 28.8231C12.2894 28.4708 9.94626 27.3614 8.08289 25.6428V25.6428Z" fill="url(#paint3_linear_313_89)"/>
<defs>
<linearGradient id="paint0_linear_313_89" x1="0.584847" y1="16.4981" x2="32.4206" y2="16.4981" gradientUnits="userSpaceOnUse">
<stop offset="0.01" stop-color="#38A79E"/>
<stop offset="0.5" stop-color="white"/>
<stop offset="1" stop-color="#38A79E"/>
</linearGradient>
<radialGradient id="paint1_radial_313_89" cx="0" cy="0" r="1" gradientUnits="userSpaceOnUse" gradientTransform="translate(18.4878 14.8255) rotate(10.99) scale(18.009)">
<stop offset="0.83" stop-color="#38A79E"/>
<stop offset="0.91" stop-color="#38A79E"/>
<stop offset="0.96" stop-color="#38A79E"/>
<stop offset="1" stop-color="#38A79E"/>
</radialGradient>
<radialGradient id="paint2_radial_313_89" cx="0" cy="0" r="1" gradientUnits="userSpaceOnUse" gradientTransform="translate(18.5057 14.8058) scale(15.4805)">
<stop offset="0.83" stop-color="#38A79E"/>
<stop offset="0.93" stop-color="#38A79E"/>
<stop offset="1" stop-color="#38A79E"/>
</radialGradient>
<linearGradient id="paint3_linear_313_89" x1="8.08289" y1="27.2943" x2="22.1324" y2="27.2943" gradientUnits="userSpaceOnUse">
<stop offset="0.01" stop-color="#38A79E"/>
<stop offset="0.5" stop-color="white"/>
<stop offset="1" stop-color="#38A79E"/>
</linearGradient>
</defs>
</svg>
