<svg xmlns="http://www.w3.org/2000/svg" xmlns:xlink="http://www.w3.org/1999/xlink" width="256" height="256" viewBox="0 0 100 100" >
<path d="M33.7321 87.2923C31.1278 88.0949 28.9755 89.4493 27.2751 91.3566C25.5745 93.2629 24.5383 95.3459 24.1664 97.6036C23.7944 99.8613 24.1 102.094 25.083 104.302C26.0661 106.51 27.9128 108.291 30.6228 109.646C31.2606 109.646 31.6589 109.897 31.8188 110.399C31.9778 110.9 31.7384 111.151 31.1016 111.151C28.4973 110.65 26.2123 109.621 24.2461 108.066C20.5794 105.205 18.5601 101.518 18.1881 97.0014C17.9755 94.7437 18.2014 92.561 18.8657 90.4533C19.5299 88.3456 20.4466 86.4137 21.6157 84.6574C23.0504 82.8015 24.7509 81.1953 26.7171 79.8409C26.8234 79.7402 27.129 79.5151 27.6337 79.1636C28.1386 78.8122 28.6301 78.4864 29.1084 78.1853C29.5867 77.8842 30.3039 77.4074 31.2606 76.7549L28.3113 63.3575C25.7074 65.4148 23.1302 67.6849 20.5795 70.1687C18.0287 72.6525 15.7171 75.275 13.6446 78.0343C11.5722 80.7945 9.91153 83.7171 8.66269 86.8031C7.41394 89.8891 6.78957 93.1375 6.78957 96.5502C6.78957 99.7113 7.49361 102.684 8.90189 105.469C10.3101 108.254 12.1833 110.675 14.5214 112.732C16.8596 114.789 19.5564 116.407 22.612 117.587C25.6676 118.766 28.763 119.356 31.8983 119.356C32.0049 119.356 32.4958 119.305 33.373 119.205C34.2501 119.105 35.1796 118.98 36.1624 118.828C37.1462 118.678 38.0495 118.515 38.8733 118.339C39.6962 118.164 40.1086 117.976 40.1086 117.775L39.6298 115.667C37.5576 105.783 35.591 96.3242 33.7321 87.2923ZM36.5215 86.9912L43.0579 116.872C46.8311 115.516 49.3811 113.196 50.7099 109.91C52.0387 106.623 52.3435 103.286 51.6263 99.8993C50.9091 96.5122 49.2222 93.5136 46.5646 90.9045C43.9079 88.2953 40.5602 86.9912 36.5215 86.9912ZM28.1519 46.7241C29.799 45.9206 31.327 44.7171 32.7352 43.111C34.1435 41.5057 35.4452 39.7866 36.6412 37.9553C37.8362 36.124 38.8733 34.2548 39.7495 32.3475C40.6266 30.4412 41.3308 28.7106 41.8619 27.1548C42.4463 25.4992 42.8447 23.6423 43.0579 21.585C43.2702 19.5277 42.9252 17.7971 42.0218 16.3913C41.3841 15.1375 40.5472 14.41 39.5111 14.2086C38.474 14.0082 37.4379 14.0832 36.4018 14.4347C35.3657 14.7861 34.3829 15.3503 33.4525 16.1282C32.523 16.9061 31.845 17.5957 31.4205 18.1979C30.2506 20.1545 29.2276 22.3373 28.3512 24.746C27.4743 27.1548 26.8765 29.6509 26.5577 32.2354C26.2388 34.819 26.199 37.3028 26.4381 39.6868C26.6772 42.07 27.2485 44.416 28.1519 46.7241ZM25.7606 49.0569C24.8572 45.7458 24.0601 42.4964 23.3693 39.3097C22.6784 36.124 22.3331 32.85 22.3331 29.4876C22.3331 27.0294 22.5191 24.3319 22.8911 21.3969C23.2629 18.462 23.9405 15.6011 24.9236 12.8162C25.9067 10.0313 27.2618 7.53512 28.9888 5.32771C30.7164 3.11936 33.0139 1.51415 35.8838 0.51018C36.1493 0.410448 36.4149 0.360107 36.6804 0.360107C37.0526 0.360107 37.4912 0.560521 37.9962 0.962299C38.5011 1.36313 39.0323 1.95297 39.5905 2.73088C40.1478 3.50879 40.6397 4.3114 41.0652 5.13965C41.4897 5.96695 41.8086 6.5321 42.0218 6.83319C43.4563 9.39203 44.5054 12.1142 45.1704 14.9989C45.8343 17.8845 46.2195 20.7567 46.3262 23.6167C46.5384 27.9327 46.2859 32.1974 45.5687 36.4128C44.8515 40.6272 43.403 44.7418 41.2242 48.7558C40.4808 49.9602 39.7233 51.1769 38.9528 52.406C38.1823 53.636 37.2659 54.8271 36.2026 55.9811C35.9904 56.1825 35.6051 56.5463 35.0468 57.0725C34.4885 57.5997 33.9172 58.1392 33.3327 58.691C32.7483 59.2429 32.2303 59.7577 31.7786 60.2335C31.327 60.7103 31.1016 60.9991 31.1016 61.0998L34.3688 76.1527C34.39 76.2514 36.0035 76.1527 36.0035 76.1527C39.1218 76.1897 42.4232 76.6665 45.2901 77.7332C48.0533 78.9376 50.4313 80.5931 52.424 82.7008C54.4167 84.8085 56.0101 87.1792 57.2061 89.8131C58.4022 92.4479 58.9997 95.1198 58.9997 97.8297C58.9997 100.539 58.5742 103.299 57.7242 106.108C55.5454 111.427 52.0649 115.366 47.2828 117.925C46.7506 118.226 45.9932 118.565 45.0104 118.942C44.0276 119.318 43.6424 119.907 43.8546 120.71C45.1301 126.177 45.9932 129.939 46.4459 132C46.8975 134.061 47.2295 136.72 47.4417 139.978C47.654 143.094 47.0826 145.896 45.7276 148.403C44.3727 150.92 42.553 152.962 40.2675 154.539C37.9831 156.125 35.8968 157.047 34.0107 157.332C32.1236 157.607 30.8351 157.74 30.145 157.74C27.7533 157.74 25.4152 157.313 23.1302 156.458C20.3137 155.461 17.949 153.931 16.0359 151.87C14.1229 149.809 13.1664 147.302 13.1664 144.348C13.1664 142.486 13.7376 140.577 14.8801 138.62C16.0227 136.663 17.5239 135.258 19.3837 134.412C21.4562 133.406 23.3294 133.13 25.0034 133.576C26.6772 134.032 28.0588 134.887 29.1482 136.141C30.2376 137.395 30.995 138.915 31.4205 140.691C31.845 142.476 31.8188 144.139 31.34 145.696C30.8622 147.254 29.8925 148.574 28.4309 149.648C26.9695 150.73 24.9369 151.215 22.3331 151.12C23.3958 152.924 24.8838 154.064 26.7968 154.539C28.7099 155.024 30.6761 155.052 32.695 154.653C34.7149 154.254 36.614 153.513 38.3945 152.431C40.175 151.357 41.5702 150.189 42.5791 148.935C43.2169 148.033 43.6957 146.855 44.0146 145.402C44.3334 143.939 44.5195 142.429 44.5718 140.843C44.6252 139.266 44.5718 138.031 44.4129 137.157C44.253 136.274 43.9874 134.906 43.6152 133.054C42.0218 126.985 41.0119 123.166 40.5864 121.609C40.3742 121.112 39.8028 120.949 38.8733 121.124C37.9429 121.3 37.1593 121.463 36.5215 121.609C31.9516 122.169 28.1253 121.913 25.0432 120.861C20.2606 119.657 16.0492 117.511 12.4091 114.425C8.76901 111.34 5.84633 107.602 3.64096 103.21C1.43569 98.8203 0.333008 95.4836 0.333008 93.2002C0.333008 90.9178 0.333008 89.475 0.333008 88.8728C0.333008 84.8085 1.07698 80.9949 2.56493 77.4321C5.38129 71.8623 8.7159 66.7446 12.5686 62.0781C16.4212 57.4116 20.8186 53.0709 25.7606 49.0569Z" fill="black"/>
</svg>
