<svg width="24" height="224" viewBox="0 0 24 224" fill="none" xmlns="http://www.w3.org/2000/svg">
<path d="M13.0607 1.43935C12.4749 0.853546 11.5251 0.853546 10.9393 1.43935L1.3934 10.9853C0.807613 11.5711 0.807613 12.5208 1.3934 13.1066C1.97919 13.6924 2.92893 13.6924 3.51472 13.1066L12 4.62132L20.4853 13.1066C21.0711 13.6924 22.0208 13.6924 22.6066 13.1066C23.1924 12.5208 23.1924 11.5711 22.6066 10.9853L13.0607 1.43935ZM13.5 156.5L13.5 2.5L10.5 2.5L10.5 156.5L13.5 156.5Z" fill="white"/>
<path d="M8 177.498H15.2727V182.324H14.005V179.036H12.5845V180.218C12.5845 180.794 12.491 181.29 12.304 181.706C12.1193 182.125 11.8577 182.449 11.5192 182.676C11.1806 182.903 10.7817 183.017 10.3224 183.017C9.86553 183.017 9.46188 182.903 9.11151 182.676C8.76349 182.449 8.49124 182.125 8.29474 181.706C8.09825 181.29 8 180.794 8 180.218V177.498ZM9.2358 179.036V180.218C9.2358 180.493 9.28551 180.725 9.38494 180.915C9.48674 181.104 9.6205 181.247 9.78622 181.344C9.95431 181.444 10.1378 181.493 10.3366 181.493C10.6255 181.493 10.8693 181.383 11.0682 181.163C11.2694 180.945 11.37 180.63 11.37 180.218V179.036H9.2358ZM8 184.012H15.2727V188.913H14.005V185.55H12.272L12.272 188.66H11.0043L11.0043 185.55H9.26776V188.927H8V184.012ZM15.2727 190.135V192.031L10.3864 194.034V194.119L15.2727 196.122V198.019H8V196.527H12.7337V196.467L8.03551 194.585V193.569L12.7514 191.687V191.627H8L8 190.135H15.2727ZM11.6364 205.969C10.8433 205.969 10.1686 205.818 9.61222 205.518C9.05587 205.219 8.63092 204.812 8.33736 204.296C8.04616 203.782 7.90057 203.205 7.90057 202.563C7.90057 201.917 8.04735 201.337 8.34091 200.823C8.63447 200.309 9.05942 199.903 9.61577 199.605C10.1721 199.307 10.8456 199.158 11.6364 199.158C12.4295 199.158 13.1042 199.307 13.6605 199.605C14.2169 199.903 14.6406 200.309 14.9318 200.823C15.2254 201.337 15.3722 201.917 15.3722 202.563C15.3722 203.205 15.2254 203.782 14.9318 204.296C14.6406 204.812 14.2169 205.219 13.6605 205.518C13.1042 205.818 12.4295 205.969 11.6364 205.969ZM11.6364 204.41C12.1501 204.41 12.5833 204.333 12.9361 204.179C13.2888 204.027 13.5563 203.813 13.7386 203.536C13.9209 203.259 14.0121 202.935 14.0121 202.563C14.0121 202.191 13.9209 201.867 13.7386 201.59C13.5563 201.313 13.2888 201.098 12.9361 200.944C12.5833 200.792 12.1501 200.717 11.6364 200.717C11.1226 200.717 10.6894 200.792 10.3366 200.944C9.9839 201.098 9.71638 201.313 9.53409 201.59C9.3518 201.867 9.26065 202.191 9.26065 202.563C9.26065 202.935 9.3518 203.259 9.53409 203.536C9.71638 203.813 9.9839 204.027 10.3366 204.179C10.6894 204.333 11.1226 204.41 11.6364 204.41ZM8 206.714H9.2358L9.25355 206.919C9.27486 207.185 9.37547 207.399 9.5554 207.562C9.73769 207.726 10.0277 207.848 10.4254 207.928C10.8255 208.011 11.3629 208.064 12.0376 208.088L15.2727 208.209L15.2727 213.145H8V211.65H14.0405V209.636L11.5085 209.522C10.6941 209.485 10.0289 209.388 9.51278 209.231C8.99669 209.077 8.61553 208.831 8.36932 208.493C8.12311 208.156 8 207.696 8 207.111V206.714ZM15.2727 214.412V215.946H10.6989V216.007L15.2727 219.15V220.495H8L8 218.958H12.5774V218.905L8 215.744V214.412H15.2727Z" fill="white"/>
</svg>
