<svg width="24" height="224" viewBox="0 0 24 224" fill="none" xmlns="http://www.w3.org/2000/svg">
<path d="M17.7543 43.2045H14.7749V42.7108C14.6541 42.5428 14.4837 42.3889 14.2635 42.2492C14.041 42.1095 13.7344 41.99 13.3438 41.8905C12.9508 41.7911 12.437 41.7201 11.8026 41.6775L8.72727 41.4715V36.6597H14.7749V35.8643H17.7472V37.3415H16V41.7272H17.7543V43.2045ZM14.7749 40.9353V38.137H9.99503V40.0866L11.8026 40.2002C12.2831 40.231 12.7093 40.2819 13.081 40.3529C13.4527 40.4215 13.7782 40.5056 14.0575 40.605C14.3345 40.7021 14.5736 40.8122 14.7749 40.9353ZM8.72727 34.9294V33.3953H13.3011V33.335L8.72727 30.1922V28.8463H16V30.384H11.4226V30.4372L16 33.5977V34.9294H8.72727ZM16 27.5759H8.72727L8.72727 22.6753H9.99503L9.99503 26.0383H11.728V22.9275H12.9957V26.0383H14.7322V22.6611H16V27.5759ZM16.0994 18.8073C16.0994 19.3376 16.0083 19.8099 15.826 20.2242C15.6413 20.6361 15.388 20.9616 15.0661 21.2007C14.7417 21.4375 14.3677 21.5594 13.9439 21.5665V20.0182C14.1214 20.0087 14.2777 19.9507 14.4126 19.8442C14.5452 19.7353 14.6482 19.5909 14.7216 19.411C14.795 19.231 14.8317 19.0286 14.8317 18.8037C14.8317 18.5693 14.7902 18.3622 14.7074 18.1823C14.6245 18.0023 14.5097 17.8615 14.3629 17.7597C14.2161 17.6579 14.0469 17.607 13.8551 17.607C13.661 17.607 13.4893 17.6614 13.3402 17.7703C13.1887 17.8769 13.0703 18.0307 12.9851 18.232C12.8999 18.4308 12.8572 18.6676 12.8572 18.9422V19.6205H11.728V18.9422C11.728 18.7102 11.6877 18.5054 11.6072 18.3279C11.5268 18.1479 11.4155 18.0083 11.2734 17.9088C11.129 17.8094 10.9609 17.7597 10.7692 17.7597C10.5869 17.7597 10.4271 17.8035 10.2898 17.8911C10.1501 17.9763 10.0412 18.097 9.96307 18.2533C9.88494 18.4072 9.84588 18.5871 9.84588 18.7931C9.84588 19.0014 9.88376 19.192 9.95952 19.3648C10.0329 19.5376 10.1383 19.6761 10.2756 19.7803C10.4129 19.8844 10.5739 19.9401 10.7585 19.9472V21.4209C10.3395 21.4138 9.97017 21.2942 9.65057 21.0622C9.33097 20.8302 9.0812 20.5177 8.90128 20.1247C8.71899 19.7294 8.62784 19.2831 8.62784 18.786C8.62784 18.2841 8.71899 17.8449 8.90128 17.4685C9.08357 17.0921 9.32978 16.7997 9.63991 16.5914C9.94768 16.3807 10.2933 16.2765 10.6768 16.2789C11.084 16.2765 11.4238 16.4031 11.696 16.6588C11.9683 16.9121 12.1411 17.2424 12.2145 17.6496H12.2713C12.34 17.1146 12.5258 16.7074 12.8288 16.428C13.1295 16.1463 13.5059 16.0066 13.9581 16.009C14.3724 16.0066 14.7405 16.1262 15.0625 16.3676C15.3845 16.6067 15.6378 16.937 15.8224 17.3584C16.0071 17.7798 16.0994 18.2628 16.0994 18.8073ZM11.4155 13.849V12.116C11.4155 11.5384 11.509 11.0412 11.696 10.6246C11.8807 10.2055 12.1423 9.88237 12.4808 9.6551C12.8194 9.42782 13.2183 9.31537 13.6776 9.31774C14.1345 9.31537 14.5381 9.42782 14.8885 9.6551C15.2365 9.88237 15.5088 10.2055 15.7053 10.6246C15.9018 11.0412 16 11.5384 16 12.116V14.8327H8.72727V13.2986H14.7642V12.116C14.7642 11.839 14.7145 11.6059 14.6151 11.4165C14.5133 11.2271 14.3795 11.0838 14.2138 10.9868C14.0457 10.8873 13.8622 10.8388 13.6634 10.8412C13.3745 10.8388 13.1307 10.9477 12.9318 11.1679C12.7306 11.3857 12.63 11.7017 12.63 12.116V13.849H11.4155ZM8.72727 7.19061H16V8.7247H8.72727V7.19061Z" fill="white"/>
<path d="M10.9393 218.561C11.5251 219.146 12.4749 219.146 13.0607 218.561L22.6066 209.015C23.1924 208.429 23.1924 207.479 22.6066 206.893C22.0208 206.308 21.0711 206.308 20.4853 206.893L12 215.379L3.51472 206.893C2.92893 206.308 1.97919 206.308 1.3934 206.893C0.807613 207.479 0.807613 208.429 1.3934 209.015L10.9393 218.561ZM10.5 63.5L10.5 217.5L13.5 217.5L13.5 63.5L10.5 63.5Z" fill="white"/>
</svg>
