<svg width="411" height="303" viewBox="0 0 411 303" fill="none" xmlns="http://www.w3.org/2000/svg">
<line y1="25" x2="387" y2="25" stroke="white" stroke-opacity="0.4" stroke-dasharray="8 8"/>
<line y1="43" x2="387" y2="43" stroke="white" stroke-opacity="0.4" stroke-dasharray="8 8"/>
<path d="M0 61.5H387" stroke="white"/>
<path d="M0 79.5H387" stroke="white"/>
<path d="M0 97.5H387" stroke="white"/>
<path d="M0 115.5H387" stroke="white"/>
<path d="M0 133.5H387" stroke="white"/>
<line x1="4.2447e-08" y1="151" x2="387" y2="151" stroke="white" stroke-opacity="0.4" stroke-dasharray="8 8"/>
<path d="M0 169.5H387" stroke="white"/>
<path d="M0 187.5H387" stroke="white"/>
<path d="M0 205.5H387" stroke="white"/>
<path d="M0 223.5H387" stroke="white"/>
<path d="M0 241.5H387" stroke="white"/>
<line x1="4.2447e-08" y1="259" x2="387" y2="259" stroke="white" stroke-opacity="0.4" stroke-dasharray="8 8"/>
<line x1="4.2447e-08" y1="277" x2="387" y2="277" stroke="white" stroke-opacity="0.4" stroke-dasharray="8 8"/>
<path d="M28.6631 96.9376C26.8783 97.5422 25.4034 98.5625 24.2381 99.9993C23.0727 101.435 22.3626 103.004 22.1077 104.705C21.8527 106.406 22.0622 108.088 22.7359 109.751C23.4096 111.414 24.6751 112.756 26.5323 113.777C26.9693 113.777 27.2423 113.966 27.3519 114.344C27.4608 114.721 27.2968 114.91 26.8604 114.91C25.0757 114.533 23.5097 113.758 22.1623 112.586C19.6495 110.431 18.2657 107.654 18.0108 104.252C17.8651 102.551 18.0199 100.907 18.4751 99.3188C18.9303 97.7311 19.5585 96.2758 20.3597 94.9528C21.3429 93.5547 22.5083 92.3448 23.8557 91.3245C23.9285 91.2487 24.138 91.0791 24.4839 90.8144C24.8299 90.5496 25.1667 90.3042 25.4945 90.0774C25.8223 89.8506 26.3138 89.4914 26.9693 88.9998L24.9482 78.9077C23.1638 80.4574 21.3976 82.1675 19.6496 84.0385C17.9015 85.9096 16.3174 87.8851 14.8971 89.9636C13.4769 92.0429 12.3388 94.2445 11.483 96.5692C10.6272 98.8938 10.1994 101.341 10.1994 103.912C10.1994 106.293 10.6818 108.532 11.6469 110.63C12.612 112.728 13.8957 114.552 15.498 116.101C17.1003 117.651 18.9485 118.87 21.0425 119.759C23.1365 120.647 25.2577 121.091 27.4064 121.091C27.4795 121.091 27.8159 121.053 28.417 120.977C29.0181 120.902 29.6551 120.808 30.3286 120.694C31.0027 120.581 31.6218 120.458 32.1864 120.325C32.7503 120.193 33.0329 120.051 33.0329 119.9L32.7048 118.313C31.2847 110.866 29.937 103.741 28.6631 96.9376ZM30.5747 96.7108L35.0541 119.22C37.6399 118.199 39.3874 116.451 40.298 113.975C41.2086 111.5 41.4175 108.986 40.926 106.435C40.4345 103.883 39.2784 101.624 37.4572 99.6587C35.6366 97.6932 33.3424 96.7108 30.5747 96.7108ZM24.839 66.3778C25.9677 65.7725 27.0148 64.8659 27.9799 63.656C28.945 62.4468 29.8371 61.1517 30.6567 59.7722C31.4756 58.3928 32.1864 56.9846 32.7868 55.5479C33.3879 54.1119 33.8705 52.8082 34.2344 51.6363C34.635 50.3891 34.9079 48.9903 35.0541 47.4405C35.1995 45.8908 34.9631 44.5871 34.344 43.5282C33.907 42.5837 33.3335 42.0356 32.6234 41.8839C31.9127 41.733 31.2027 41.7895 30.4926 42.0542C29.7826 42.319 29.1091 42.744 28.4714 43.33C27.8345 43.916 27.3699 44.4354 27.0789 44.8891C26.2772 46.363 25.5762 48.0072 24.9755 49.8217C24.3746 51.6363 23.9649 53.5166 23.7465 55.4635C23.5279 57.4096 23.5007 59.2807 23.6645 61.0766C23.8284 62.8718 24.2199 64.6391 24.839 66.3778ZM23.2002 68.135C22.5811 65.6408 22.0349 63.1931 21.5614 60.7925C21.088 58.3928 20.8513 55.9264 20.8513 53.3935C20.8513 51.5418 20.9788 49.5098 21.2337 47.2989C21.4886 45.088 21.9529 42.9329 22.6266 40.835C23.3003 38.7372 24.229 36.8568 25.4125 35.194C26.5964 33.5304 28.1709 32.3212 30.1376 31.565C30.3196 31.4898 30.5016 31.4519 30.6836 31.4519C30.9386 31.4519 31.2392 31.6029 31.5853 31.9055C31.9313 32.2075 32.2953 32.6518 32.6779 33.2378C33.0598 33.8238 33.3969 34.4284 33.6885 35.0523C33.9794 35.6755 34.1979 36.1012 34.344 36.3281C35.3271 38.2556 36.0461 40.3063 36.5017 42.4792C36.9567 44.6529 37.2207 46.8166 37.2938 48.971C37.4392 52.2223 37.2662 55.4349 36.7747 58.6103C36.2832 61.785 35.2905 64.8845 33.7974 67.9082C33.288 68.8155 32.7689 69.732 32.2408 70.6579C31.7128 71.5845 31.0848 72.4817 30.3561 73.3511C30.2107 73.5028 29.9467 73.7768 29.5641 74.1732C29.1815 74.5703 28.7899 74.9767 28.3894 75.3924C27.9889 75.8081 27.6339 76.1959 27.3244 76.5544C27.0148 76.9136 26.8604 77.1311 26.8604 77.2069L29.0994 88.5462C29.1139 88.6206 30.2196 88.5462 30.2196 88.5462C32.3566 88.5741 34.6191 88.9333 36.5838 89.7368C38.4774 90.6441 40.107 91.8912 41.4727 93.4789C42.8383 95.0666 43.9302 96.8525 44.7498 98.8366C45.5695 100.821 45.979 102.834 45.979 104.875C45.979 106.916 45.6874 108.995 45.1049 111.112C43.6117 115.119 41.2266 118.086 37.9494 120.013C37.5847 120.24 37.0656 120.496 36.3921 120.779C35.7186 121.062 35.4546 121.507 35.6001 122.111C36.4742 126.23 37.0656 129.063 37.3758 130.616C37.6853 132.168 37.9128 134.172 38.0583 136.626C38.2037 138.973 37.8122 141.083 36.8836 142.972C35.9551 144.868 34.708 146.407 33.1418 147.595C31.5763 148.789 30.1466 149.483 28.854 149.698C27.5608 149.906 26.6777 150.006 26.2048 150.006C24.5658 150.006 22.9635 149.684 21.3976 149.04C19.4674 148.289 17.8469 147.137 16.5359 145.584C15.2249 144.031 14.5694 142.142 14.5694 139.917C14.5694 138.515 14.9609 137.077 15.7438 135.603C16.5268 134.129 17.5556 133.07 18.8301 132.433C20.2504 131.675 21.5341 131.467 22.6813 131.803C23.8284 132.147 24.7752 132.791 25.5218 133.735C26.2683 134.68 26.7874 135.825 27.0789 137.163C27.3699 138.508 27.3519 139.76 27.0238 140.933C26.6964 142.107 26.0318 143.101 25.0302 143.91C24.0287 144.725 22.6357 145.09 20.8513 145.019C21.5796 146.378 22.5993 147.237 23.9103 147.595C25.2213 147.959 26.5688 147.981 27.9524 147.68C29.3366 147.38 30.6381 146.822 31.8582 146.006C33.0784 145.198 34.0345 144.318 34.726 143.373C35.163 142.693 35.4911 141.806 35.7097 140.711C35.9282 139.61 36.0557 138.472 36.0916 137.277C36.1281 136.089 36.0916 135.159 35.9826 134.501C35.873 133.835 35.691 132.805 35.436 131.41C34.344 126.838 33.6519 123.961 33.3603 122.788C33.2149 122.414 32.8233 122.291 32.1864 122.423C31.5487 122.556 31.0117 122.679 30.5747 122.788C27.4429 123.21 24.8208 123.017 22.7086 122.225C19.431 121.318 16.545 119.701 14.0504 117.377C11.5559 115.053 9.55295 112.237 8.04161 108.929C6.53034 105.622 5.77467 103.108 5.77467 101.388C5.77467 99.6687 5.77467 98.5819 5.77467 98.1282C5.77467 95.0666 6.28452 92.1938 7.30421 89.51C9.23426 85.3143 11.5195 81.4591 14.1597 77.9439C16.7999 74.4286 19.8134 71.1588 23.2002 68.135Z" fill="white"/>
<path d="M49.0027 194.808C49.0027 197.22 47.3914 199.175 45.4038 199.175C43.4162 199.175 41.8049 197.22 41.8049 194.808C41.8049 192.396 43.4162 190.441 45.4038 190.441C47.3914 190.441 49.0027 192.396 49.0027 194.808ZM48.7543 180.042C48.7543 182.454 47.143 184.409 45.1553 184.409C43.1677 184.409 41.5564 182.454 41.5564 180.042C41.5564 177.63 43.1677 175.675 45.1553 175.675C47.143 175.675 48.7543 177.63 48.7543 180.042ZM6.36815 225.885C6.36815 225.261 8.95999 222.695 12.1278 220.182C18.9386 214.778 23.8572 208.867 26.7181 202.646C33.2787 188.379 31.2004 173.504 22.4568 172.146C17.6208 171.394 11.498 175.482 11.498 179.461C11.498 180.938 11.8241 181.057 15.3694 180.873C19.7073 180.649 22.6421 185.54 20.2946 189.082C16.5853 194.678 7.65062 191.463 7.65062 184.532C7.65062 178.458 10.8419 173.623 16.4586 171.189C28.4786 165.98 39.9203 175.583 38.9184 190.04C38.0973 201.89 29.1904 212.956 11.8995 223.611C7.79676 226.139 6.36815 226.726 6.36815 225.885Z" fill="white"/>
<path fill-rule="evenodd" clip-rule="evenodd" d="M62.9121 85.8707L63.2327 40.3463L64.8355 40.3594L64.5149 85.8837L62.9121 85.8707Z" fill="white"/>
<path d="M59.7994 70.9746L75.7964 65.5227L75.7964 71.793L59.7994 77.3111L59.7994 70.9746Z" fill="white"/>
<path fill-rule="evenodd" clip-rule="evenodd" d="M70.6056 83.4566L70.9261 37.9322L72.5289 37.9453L72.2084 83.4697L70.6056 83.4566Z" fill="white"/>
<path d="M59.6956 52.8059L75.6926 47.354L75.6926 53.6243L59.6956 59.1424L59.6956 52.8059Z" fill="white"/>
<path fill-rule="evenodd" clip-rule="evenodd" d="M82.2494 112.427L82.57 66.9022L84.1728 66.9153L83.8522 112.44L82.2494 112.427Z" fill="white"/>
<path d="M79.1364 97.5308L95.1335 92.0789L95.1335 98.3491L79.1364 103.867L79.1364 97.5308Z" fill="white"/>
<path fill-rule="evenodd" clip-rule="evenodd" d="M89.9431 110.013L90.2637 64.4886L91.8665 64.5017L91.5459 110.026L89.9431 110.013Z" fill="white"/>
<path d="M79.0332 79.3621L95.0302 73.9102L95.0302 80.1804L79.0332 85.6985L79.0332 79.3621Z" fill="white"/>
<path fill-rule="evenodd" clip-rule="evenodd" d="M101.484 77.9389L101.805 32.4144L103.894 32.4314L103.573 77.9559L101.484 77.9389Z" fill="white"/>
<path d="M98.3708 63.0425L114.368 57.5906L114.368 63.8608L98.3708 69.3789L98.3708 63.0425Z" fill="white"/>
<path fill-rule="evenodd" clip-rule="evenodd" d="M109.178 75.5246L109.498 30.0001L111.588 30.0171L111.267 75.5416L109.178 75.5246Z" fill="white"/>
<path d="M98.2675 44.874L114.265 39.4221L114.265 45.6924L98.2675 51.2105L98.2675 44.874Z" fill="white"/>
<path fill-rule="evenodd" clip-rule="evenodd" d="M120.718 103.46L121.039 57.9359L123.128 57.9529L122.807 103.477L120.718 103.46Z" fill="white"/>
<path d="M117.605 88.564L133.602 83.1121L133.602 89.3823L117.605 94.9004L117.605 88.564Z" fill="white"/>
<path fill-rule="evenodd" clip-rule="evenodd" d="M128.412 101.046L128.732 55.5218L130.821 55.5388L130.501 101.063L128.412 101.046Z" fill="white"/>
<path d="M117.501 70.3955L133.498 64.9436L133.498 71.2139L117.501 76.732L117.501 70.3955Z" fill="white"/>
<path fill-rule="evenodd" clip-rule="evenodd" d="M62.9121 210.871L63.2327 165.346L64.8355 165.359L64.5149 210.884L62.9121 210.871Z" fill="white"/>
<path d="M59.7994 195.975L75.7964 190.523L75.7964 196.793L59.7994 202.311L59.7994 195.975Z" fill="white"/>
<path fill-rule="evenodd" clip-rule="evenodd" d="M70.6056 208.457L70.9261 162.932L72.5289 162.945L72.2084 208.47L70.6056 208.457Z" fill="white"/>
<path d="M59.6956 177.806L75.6926 172.354L75.6926 178.624L59.6956 184.142L59.6956 177.806Z" fill="white"/>
<path fill-rule="evenodd" clip-rule="evenodd" d="M82.2494 237.427L82.57 191.902L84.1728 191.915L83.8522 237.44L82.2494 237.427Z" fill="white"/>
<path d="M79.1364 222.531L95.1335 217.079L95.1335 223.349L79.1364 228.867L79.1364 222.531Z" fill="white"/>
<path fill-rule="evenodd" clip-rule="evenodd" d="M89.9431 235.013L90.2637 189.489L91.8665 189.502L91.5459 235.026L89.9431 235.013Z" fill="white"/>
<path d="M79.0332 204.362L95.0302 198.91L95.0302 205.18L79.0332 210.699L79.0332 204.362Z" fill="white"/>
<path fill-rule="evenodd" clip-rule="evenodd" d="M101.484 202.939L101.805 157.414L103.894 157.431L103.573 202.956L101.484 202.939Z" fill="white"/>
<path d="M98.3708 188.042L114.368 182.591L114.368 188.861L98.3708 194.379L98.3708 188.042Z" fill="white"/>
<path fill-rule="evenodd" clip-rule="evenodd" d="M109.178 200.525L109.498 155L111.588 155.017L111.267 200.542L109.178 200.525Z" fill="white"/>
<path d="M98.2675 169.874L114.265 164.422L114.265 170.692L98.2675 176.21L98.2675 169.874Z" fill="white"/>
<path fill-rule="evenodd" clip-rule="evenodd" d="M120.718 228.46L121.039 182.936L123.128 182.953L122.807 228.477L120.718 228.46Z" fill="white"/>
<path d="M117.605 213.564L133.602 208.112L133.602 214.382L117.605 219.9L117.605 213.564Z" fill="white"/>
<path fill-rule="evenodd" clip-rule="evenodd" d="M128.412 226.046L128.732 180.522L130.821 180.539L130.501 226.063L128.412 226.046Z" fill="white"/>
<path d="M117.501 195.396L133.498 189.944L133.498 196.214L117.501 201.732L117.501 195.396Z" fill="white"/>
<g clip-path="url(#clip0_25_9596)">
<path d="M211.396 75.1579C209.333 71.9233 211.544 67.2736 216.26 64.7802C220.977 62.2869 226.504 62.7586 228.568 65.9932C230.631 69.2278 228.42 73.8775 223.704 76.4383C218.987 78.9316 213.46 78.3925 211.396 75.1579Z" fill="white"/>
<path d="M235.116 66.2734C233.052 63.0388 235.263 58.3891 239.98 55.8957C244.696 53.4024 250.223 53.8741 252.287 57.1087C254.35 60.3433 252.14 64.993 247.423 67.5537C242.706 70.0471 237.179 69.508 235.116 66.2734Z" fill="#232323"/>
<path d="M258.835 57.3889C256.772 54.1543 258.983 49.5045 263.699 47.0112C268.416 44.5179 273.943 44.9896 276.006 48.2242C278.07 51.4588 275.859 56.1085 271.142 58.6692C266.426 61.1626 260.899 60.6235 258.835 57.3889Z" fill="#232323"/>
<path d="M282.555 48.5041C280.491 45.2695 282.702 40.6198 287.419 38.1264C292.135 35.6331 297.662 36.1048 299.726 39.3394C301.789 42.574 299.579 47.2237 294.862 49.7845C290.145 52.2778 284.618 51.7387 282.555 48.5041Z" fill="white"/>
<path d="M306.274 39.6196C304.211 36.385 306.421 31.7352 311.138 29.2419C315.855 26.7486 321.382 27.2203 323.445 30.4549C325.509 33.6895 323.298 38.3392 318.581 40.8999C313.865 43.3933 308.338 42.8542 306.274 39.6196Z" fill="white"/>
<path d="M329.994 30.7348C327.93 27.5002 330.141 22.8505 334.858 20.3571C339.574 17.8638 345.101 18.3355 347.165 21.5701C349.228 24.8047 347.018 29.4544 342.301 32.0152C337.584 34.5085 332.057 33.9694 329.994 30.7348Z" fill="#232323"/>
<path d="M353.713 21.8503C351.65 18.6157 353.86 13.966 358.577 11.4726C363.294 8.97929 368.821 9.45101 370.884 12.6856C372.948 15.9202 370.737 20.5699 366.02 23.1306C361.304 25.624 355.777 25.0849 353.713 21.8503Z" fill="#232323"/>
<path d="M211.396 138.163C209.333 134.933 211.544 130.292 216.26 127.802C220.977 125.313 226.504 125.784 228.568 129.013C230.631 132.242 228.42 136.884 223.704 139.441C218.987 141.93 213.46 141.392 211.396 138.163Z" fill="white"/>
<path d="M235.116 129.293C233.052 126.064 235.263 121.422 239.98 118.933C244.696 116.444 250.223 116.915 252.287 120.144C254.35 123.373 252.14 128.015 247.423 130.571C242.706 133.06 237.179 132.522 235.116 129.293Z" fill="#232323"/>
<path d="M258.835 120.424C256.772 117.194 258.983 112.553 263.699 110.063C268.416 107.574 273.943 108.045 276.006 111.274C278.07 114.503 275.859 119.145 271.142 121.702C266.426 124.191 260.899 123.653 258.835 120.424Z" fill="#232323"/>
<path d="M282.555 111.554C280.491 108.325 282.702 103.683 287.419 101.194C292.135 98.7047 297.662 99.1756 299.726 102.405C301.789 105.634 299.579 110.276 294.862 112.832C290.145 115.321 284.618 114.783 282.555 111.554Z" fill="white"/>
<path d="M306.274 102.684C304.211 99.4552 306.421 94.8133 311.138 92.3242C315.855 89.8351 321.382 90.306 323.445 93.5351C325.509 96.7642 323.298 101.406 318.581 103.962C313.865 106.452 308.338 105.913 306.274 102.684Z" fill="white"/>
<path d="M329.994 93.8149C327.93 90.5858 330.141 85.9439 334.858 83.4548C339.574 80.9657 345.101 81.4366 347.165 84.6657C349.228 87.8948 347.018 92.5367 342.301 95.0931C337.584 97.5822 332.057 97.044 329.994 93.8149Z" fill="#232323"/>
<path d="M353.713 84.9453C351.65 81.7161 353.86 77.0743 358.577 74.5852C363.294 72.0961 368.821 72.567 370.884 75.7961C372.948 79.0252 370.737 83.6671 366.02 86.2234C361.304 88.7126 355.777 88.1744 353.713 84.9453Z" fill="#232323"/>
<path d="M211.396 201.163C209.333 197.933 211.544 193.292 216.26 190.802C220.977 188.313 226.504 188.784 228.568 192.013C230.631 195.242 228.42 199.884 223.704 202.441C218.987 204.93 213.46 204.392 211.396 201.163Z" fill="white"/>
<path d="M235.116 192.293C233.052 189.064 235.263 184.422 239.98 181.933C244.696 179.444 250.223 179.915 252.287 183.144C254.35 186.373 252.14 191.015 247.423 193.571C242.706 196.06 237.179 195.522 235.116 192.293Z" fill="#232323"/>
<path d="M258.835 183.424C256.772 180.194 258.983 175.553 263.699 173.063C268.416 170.574 273.943 171.045 276.006 174.274C278.07 177.503 275.859 182.145 271.142 184.702C266.426 187.191 260.899 186.653 258.835 183.424Z" fill="#232323"/>
<path d="M282.555 174.554C280.491 171.325 282.702 166.683 287.419 164.194C292.135 161.705 297.662 162.176 299.726 165.405C301.789 168.634 299.579 173.276 294.862 175.832C290.145 178.321 284.618 177.783 282.555 174.554Z" fill="white"/>
<path d="M306.274 165.684C304.211 162.455 306.421 157.813 311.138 155.324C315.855 152.835 321.382 153.306 323.445 156.535C325.509 159.764 323.298 164.406 318.581 166.962C313.865 169.452 308.338 168.913 306.274 165.684Z" fill="white"/>
<path d="M329.994 156.815C327.93 153.586 330.141 148.944 334.858 146.455C339.574 143.966 345.101 144.437 347.165 147.666C349.228 150.895 347.018 155.537 342.301 158.093C337.584 160.582 332.057 160.044 329.994 156.815Z" fill="#232323"/>
<path d="M353.713 147.945C351.65 144.716 353.86 140.074 358.577 137.585C363.294 135.096 368.821 135.567 370.884 138.796C372.948 142.025 370.737 146.667 366.02 149.223C361.304 151.713 355.777 151.174 353.713 147.945Z" fill="#232323"/>
<path d="M211.396 264.163C209.333 260.933 211.544 256.292 216.26 253.802C220.977 251.313 226.504 251.784 228.568 255.013C230.631 258.242 228.42 262.884 223.704 265.441C218.987 267.93 213.46 267.392 211.396 264.163Z" fill="white"/>
<path d="M235.116 255.293C233.052 252.064 235.263 247.422 239.98 244.933C244.696 242.444 250.223 242.915 252.287 246.144C254.35 249.373 252.14 254.015 247.423 256.571C242.706 259.06 237.179 258.522 235.116 255.293Z" fill="#232323"/>
<path d="M258.835 246.424C256.772 243.194 258.983 238.553 263.699 236.063C268.416 233.574 273.943 234.045 276.006 237.274C278.07 240.503 275.859 245.145 271.142 247.702C266.426 250.191 260.899 249.653 258.835 246.424Z" fill="#232323"/>
<path d="M282.555 237.554C280.491 234.325 282.702 229.683 287.419 227.194C292.135 224.705 297.662 225.176 299.726 228.405C301.789 231.634 299.579 236.276 294.862 238.832C290.145 241.321 284.618 240.783 282.555 237.554Z" fill="white"/>
<path d="M306.274 228.684C304.211 225.455 306.421 220.813 311.138 218.324C315.855 215.835 321.382 216.306 323.445 219.535C325.509 222.764 323.298 227.406 318.581 229.962C313.865 232.452 308.338 231.913 306.274 228.684Z" fill="white"/>
<path d="M329.994 219.815C327.93 216.586 330.141 211.944 334.858 209.455C339.574 206.966 345.101 207.437 347.165 210.666C349.228 213.895 347.018 218.537 342.301 221.093C337.584 223.582 332.057 223.044 329.994 219.815Z" fill="#232323"/>
<path d="M353.713 210.945C351.65 207.716 353.86 203.074 358.577 200.585C363.294 198.096 368.821 198.567 370.884 201.796C372.948 205.025 370.737 209.667 366.02 212.223C361.304 214.713 355.777 214.174 353.713 210.945Z" fill="#232323"/>
<path d="M282.555 300.554C280.491 297.325 282.702 292.683 287.419 290.194C292.135 287.705 297.662 288.176 299.726 291.405C301.789 294.634 299.579 299.276 294.862 301.832C290.145 304.321 284.618 303.783 282.555 300.554Z" fill="white"/>
<path d="M306.274 291.684C304.211 288.455 306.421 283.813 311.138 281.324C315.855 278.835 321.382 279.306 323.445 282.535C325.509 285.764 323.298 290.406 318.581 292.962C313.865 295.452 308.338 294.913 306.274 291.684Z" fill="white"/>
<path d="M329.994 282.815C327.93 279.586 330.141 274.944 334.858 272.455C339.574 269.966 345.101 270.437 347.165 273.666C349.228 276.895 347.018 281.537 342.301 284.093C337.584 286.582 332.057 286.044 329.994 282.815Z" fill="#232323"/>
<path d="M353.713 273.945C351.65 270.716 353.86 266.074 358.577 263.585C363.294 261.096 368.821 261.567 370.884 264.796C372.948 268.025 370.737 272.667 366.02 275.223C361.304 277.713 355.777 277.174 353.713 273.945Z" fill="#232323"/>
</g>
<defs>
<clipPath id="clip0_25_9596">
<rect width="174" height="284" fill="white" transform="translate(208 10)"/>
</clipPath>
</defs>
</svg>
