<svg width="411" height="303" viewBox="0 0 411 303" fill="none" xmlns="http://www.w3.org/2000/svg">
<line y1="25" x2="387" y2="25" stroke="white" stroke-opacity="0.4" stroke-dasharray="8 8"/>
<line y1="43" x2="387" y2="43" stroke="white" stroke-opacity="0.4" stroke-dasharray="8 8"/>
<path d="M0 61.5H387" stroke="white"/>
<path d="M0 79.5H387" stroke="white"/>
<path d="M0 97.5H387" stroke="white"/>
<path d="M0 115.5H387" stroke="white"/>
<path d="M0 133.5H387" stroke="white"/>
<line x1="4.2447e-08" y1="151" x2="387" y2="151" stroke="white" stroke-opacity="0.4" stroke-dasharray="8 8"/>
<path d="M0 169.5H387" stroke="white"/>
<path d="M0 187.5H387" stroke="white"/>
<path d="M0 205.5H387" stroke="white"/>
<path d="M0 223.5H387" stroke="white"/>
<path d="M0 241.5H387" stroke="white"/>
<line x1="4.2447e-08" y1="259" x2="387" y2="259" stroke="white" stroke-opacity="0.4" stroke-dasharray="8 8"/>
<line x1="4.2447e-08" y1="277" x2="387" y2="277" stroke="white" stroke-opacity="0.4" stroke-dasharray="8 8"/>
<path d="M28.6631 96.9376C26.8783 97.5422 25.4034 98.5625 24.2381 99.9993C23.0727 101.435 22.3626 103.004 22.1077 104.705C21.8527 106.406 22.0622 108.088 22.7359 109.751C23.4096 111.414 24.6751 112.756 26.5323 113.777C26.9693 113.777 27.2423 113.966 27.3519 114.344C27.4608 114.721 27.2968 114.91 26.8604 114.91C25.0757 114.533 23.5097 113.758 22.1623 112.586C19.6495 110.431 18.2657 107.654 18.0108 104.252C17.8651 102.551 18.0199 100.907 18.4751 99.3188C18.9303 97.7311 19.5585 96.2758 20.3597 94.9528C21.3429 93.5547 22.5083 92.3448 23.8557 91.3245C23.9285 91.2487 24.138 91.0791 24.4839 90.8144C24.8299 90.5496 25.1667 90.3042 25.4945 90.0774C25.8223 89.8506 26.3138 89.4914 26.9693 88.9998L24.9482 78.9077C23.1638 80.4574 21.3976 82.1675 19.6496 84.0385C17.9015 85.9096 16.3174 87.8851 14.8971 89.9636C13.4769 92.0429 12.3388 94.2445 11.483 96.5692C10.6272 98.8938 10.1994 101.341 10.1994 103.912C10.1994 106.293 10.6818 108.532 11.6469 110.63C12.612 112.728 13.8957 114.552 15.498 116.101C17.1003 117.651 18.9485 118.87 21.0425 119.759C23.1365 120.647 25.2577 121.091 27.4064 121.091C27.4795 121.091 27.8159 121.053 28.417 120.977C29.0181 120.902 29.6551 120.808 30.3286 120.694C31.0027 120.581 31.6218 120.458 32.1864 120.325C32.7503 120.193 33.0329 120.051 33.0329 119.9L32.7048 118.313C31.2847 110.866 29.937 103.741 28.6631 96.9376ZM30.5747 96.7108L35.0541 119.22C37.6399 118.199 39.3874 116.451 40.298 113.975C41.2086 111.5 41.4175 108.986 40.926 106.435C40.4345 103.883 39.2784 101.624 37.4572 99.6587C35.6366 97.6932 33.3424 96.7108 30.5747 96.7108ZM24.839 66.3778C25.9677 65.7725 27.0148 64.8659 27.9799 63.656C28.945 62.4468 29.8371 61.1517 30.6567 59.7722C31.4756 58.3928 32.1864 56.9846 32.7868 55.5479C33.3879 54.1119 33.8705 52.8082 34.2344 51.6363C34.635 50.3891 34.9079 48.9903 35.0541 47.4405C35.1995 45.8908 34.9631 44.5871 34.344 43.5282C33.907 42.5837 33.3335 42.0356 32.6234 41.8839C31.9127 41.733 31.2027 41.7895 30.4926 42.0542C29.7826 42.319 29.1091 42.744 28.4714 43.33C27.8345 43.916 27.3699 44.4354 27.0789 44.8891C26.2772 46.363 25.5762 48.0072 24.9755 49.8217C24.3746 51.6363 23.9649 53.5166 23.7465 55.4635C23.5279 57.4096 23.5007 59.2807 23.6645 61.0766C23.8284 62.8718 24.2199 64.6391 24.839 66.3778ZM23.2002 68.135C22.5811 65.6408 22.0349 63.1931 21.5614 60.7925C21.088 58.3928 20.8513 55.9264 20.8513 53.3935C20.8513 51.5418 20.9788 49.5098 21.2337 47.2989C21.4886 45.088 21.9529 42.9329 22.6266 40.835C23.3003 38.7372 24.229 36.8568 25.4125 35.194C26.5964 33.5304 28.1709 32.3212 30.1376 31.565C30.3196 31.4898 30.5016 31.4519 30.6836 31.4519C30.9386 31.4519 31.2392 31.6029 31.5853 31.9055C31.9313 32.2075 32.2953 32.6518 32.6779 33.2378C33.0598 33.8238 33.3969 34.4284 33.6885 35.0523C33.9794 35.6755 34.1979 36.1012 34.344 36.3281C35.3271 38.2556 36.0461 40.3063 36.5017 42.4792C36.9567 44.6529 37.2207 46.8166 37.2938 48.971C37.4392 52.2223 37.2662 55.4349 36.7747 58.6103C36.2832 61.785 35.2905 64.8845 33.7974 67.9082C33.288 68.8155 32.7689 69.732 32.2408 70.6579C31.7128 71.5845 31.0848 72.4817 30.3561 73.3511C30.2107 73.5028 29.9467 73.7768 29.5641 74.1732C29.1815 74.5703 28.7899 74.9767 28.3894 75.3924C27.9889 75.8081 27.6339 76.1959 27.3244 76.5544C27.0148 76.9136 26.8604 77.1311 26.8604 77.2069L29.0994 88.5462C29.1139 88.6206 30.2196 88.5462 30.2196 88.5462C32.3566 88.5741 34.6191 88.9333 36.5838 89.7368C38.4774 90.6441 40.107 91.8912 41.4727 93.4789C42.8383 95.0666 43.9302 96.8525 44.7498 98.8366C45.5695 100.821 45.979 102.834 45.979 104.875C45.979 106.916 45.6874 108.995 45.1049 111.112C43.6117 115.119 41.2266 118.086 37.9494 120.013C37.5847 120.24 37.0656 120.496 36.3921 120.779C35.7186 121.062 35.4546 121.507 35.6001 122.111C36.4742 126.23 37.0656 129.063 37.3758 130.616C37.6853 132.168 37.9128 134.172 38.0583 136.626C38.2037 138.973 37.8122 141.083 36.8836 142.972C35.9551 144.868 34.708 146.407 33.1418 147.595C31.5763 148.789 30.1466 149.483 28.854 149.698C27.5608 149.906 26.6777 150.006 26.2048 150.006C24.5658 150.006 22.9635 149.684 21.3976 149.04C19.4674 148.289 17.8469 147.137 16.5359 145.584C15.2249 144.031 14.5694 142.142 14.5694 139.917C14.5694 138.515 14.9609 137.077 15.7438 135.603C16.5268 134.129 17.5556 133.07 18.8301 132.433C20.2504 131.675 21.5341 131.467 22.6813 131.803C23.8284 132.147 24.7752 132.791 25.5218 133.735C26.2683 134.68 26.7874 135.825 27.0789 137.163C27.3699 138.508 27.3519 139.76 27.0238 140.933C26.6964 142.107 26.0318 143.101 25.0302 143.91C24.0287 144.725 22.6357 145.09 20.8513 145.019C21.5796 146.378 22.5993 147.237 23.9103 147.595C25.2213 147.959 26.5688 147.981 27.9524 147.68C29.3366 147.38 30.6381 146.822 31.8582 146.006C33.0784 145.198 34.0345 144.318 34.726 143.373C35.163 142.693 35.4911 141.806 35.7097 140.711C35.9282 139.61 36.0557 138.472 36.0916 137.277C36.1281 136.089 36.0916 135.159 35.9826 134.501C35.873 133.835 35.691 132.805 35.436 131.41C34.344 126.838 33.6519 123.961 33.3603 122.788C33.2149 122.414 32.8233 122.291 32.1864 122.423C31.5487 122.556 31.0117 122.679 30.5747 122.788C27.4429 123.21 24.8208 123.017 22.7086 122.225C19.431 121.318 16.545 119.701 14.0504 117.377C11.5559 115.053 9.55295 112.237 8.04161 108.929C6.53034 105.622 5.77467 103.108 5.77467 101.388C5.77467 99.6687 5.77467 98.5819 5.77467 98.1282C5.77467 95.0666 6.28452 92.1938 7.30421 89.51C9.23426 85.3143 11.5195 81.4591 14.1597 77.9439C16.7999 74.4286 19.8134 71.1588 23.2002 68.135Z" fill="white"/>
<path d="M49.0027 194.808C49.0027 197.22 47.3914 199.175 45.4038 199.175C43.4162 199.175 41.8049 197.22 41.8049 194.808C41.8049 192.396 43.4162 190.441 45.4038 190.441C47.3914 190.441 49.0027 192.396 49.0027 194.808ZM48.7543 180.042C48.7543 182.454 47.143 184.409 45.1553 184.409C43.1677 184.409 41.5564 182.454 41.5564 180.042C41.5564 177.63 43.1677 175.675 45.1553 175.675C47.143 175.675 48.7543 177.63 48.7543 180.042ZM6.36815 225.885C6.36815 225.261 8.95999 222.695 12.1278 220.182C18.9386 214.778 23.8572 208.867 26.7181 202.646C33.2787 188.379 31.2004 173.504 22.4568 172.146C17.6208 171.394 11.498 175.482 11.498 179.461C11.498 180.938 11.8241 181.057 15.3694 180.873C19.7073 180.649 22.6421 185.54 20.2946 189.082C16.5853 194.678 7.65062 191.463 7.65062 184.532C7.65062 178.458 10.8419 173.623 16.4586 171.189C28.4786 165.98 39.9203 175.583 38.9184 190.04C38.0973 201.89 29.1904 212.956 11.8995 223.611C7.79676 226.139 6.36815 226.726 6.36815 225.885Z" fill="white"/>
<path fill-rule="evenodd" clip-rule="evenodd" d="M62.9121 85.8707L63.2327 40.3463L64.8355 40.3594L64.5149 85.8837L62.9121 85.8707Z" fill="white"/>
<path d="M59.7994 70.9746L75.7964 65.5227L75.7964 71.793L59.7994 77.3111L59.7994 70.9746Z" fill="white"/>
<path fill-rule="evenodd" clip-rule="evenodd" d="M70.6056 83.4566L70.9261 37.9322L72.5289 37.9453L72.2084 83.4697L70.6056 83.4566Z" fill="white"/>
<path d="M59.6956 52.8059L75.6926 47.354L75.6926 53.6243L59.6956 59.1424L59.6956 52.8059Z" fill="white"/>
<path fill-rule="evenodd" clip-rule="evenodd" d="M82.2494 112.427L82.57 66.9022L84.1728 66.9153L83.8522 112.44L82.2494 112.427Z" fill="white"/>
<path d="M79.1364 97.5308L95.1335 92.0789L95.1335 98.3491L79.1364 103.867L79.1364 97.5308Z" fill="white"/>
<path fill-rule="evenodd" clip-rule="evenodd" d="M89.9431 110.013L90.2637 64.4886L91.8665 64.5017L91.5459 110.026L89.9431 110.013Z" fill="white"/>
<path d="M79.0332 79.3621L95.0302 73.9102L95.0302 80.1804L79.0332 85.6985L79.0332 79.3621Z" fill="white"/>
<path fill-rule="evenodd" clip-rule="evenodd" d="M101.484 77.9389L101.805 32.4144L103.894 32.4314L103.573 77.9559L101.484 77.9389Z" fill="white"/>
<path d="M98.3708 63.0425L114.368 57.5906L114.368 63.8608L98.3708 69.3789L98.3708 63.0425Z" fill="white"/>
<path fill-rule="evenodd" clip-rule="evenodd" d="M109.178 75.5246L109.498 30.0001L111.588 30.0171L111.267 75.5416L109.178 75.5246Z" fill="white"/>
<path d="M98.2675 44.874L114.265 39.4221L114.265 45.6924L98.2675 51.2105L98.2675 44.874Z" fill="white"/>
<path fill-rule="evenodd" clip-rule="evenodd" d="M120.718 103.46L121.039 57.9359L123.128 57.9529L122.807 103.477L120.718 103.46Z" fill="white"/>
<path d="M117.605 88.564L133.602 83.1121L133.602 89.3823L117.605 94.9004L117.605 88.564Z" fill="white"/>
<path fill-rule="evenodd" clip-rule="evenodd" d="M128.412 101.046L128.732 55.5218L130.821 55.5388L130.501 101.063L128.412 101.046Z" fill="white"/>
<path d="M117.501 70.3955L133.498 64.9436L133.498 71.2139L117.501 76.732L117.501 70.3955Z" fill="white"/>
<path fill-rule="evenodd" clip-rule="evenodd" d="M139.952 129.671L140.272 84.1461L142.362 84.1631L142.041 129.688L139.952 129.671Z" fill="white"/>
<path d="M136.839 114.774L152.836 109.323L152.836 115.593L136.839 121.111L136.839 114.774Z" fill="white"/>
<path fill-rule="evenodd" clip-rule="evenodd" d="M147.646 127.256L147.966 81.732L150.056 81.749L149.735 127.274L147.646 127.256Z" fill="white"/>
<path d="M136.735 96.6057L152.732 91.1538L152.732 97.4241L136.735 102.942L136.735 96.6057Z" fill="white"/>
<path fill-rule="evenodd" clip-rule="evenodd" d="M159.186 95.1828L159.507 49.6583L161.596 49.6753L161.276 95.1998L159.186 95.1828Z" fill="white"/>
<path d="M156.074 80.2864L172.071 74.8345L172.071 81.1047L156.074 86.6228L156.074 80.2864Z" fill="white"/>
<path fill-rule="evenodd" clip-rule="evenodd" d="M166.88 92.7687L167.201 47.2442L169.29 47.2612L168.969 92.7857L166.88 92.7687Z" fill="white"/>
<path d="M155.97 62.1179L171.967 56.666L171.967 62.9363L155.97 68.4544L155.97 62.1179Z" fill="white"/>
<path fill-rule="evenodd" clip-rule="evenodd" d="M62.9121 210.871L63.2327 165.346L64.8355 165.359L64.5149 210.884L62.9121 210.871Z" fill="white"/>
<path d="M59.7994 195.975L75.7964 190.523L75.7964 196.793L59.7994 202.311L59.7994 195.975Z" fill="white"/>
<path fill-rule="evenodd" clip-rule="evenodd" d="M70.6056 208.457L70.9261 162.932L72.5289 162.945L72.2084 208.47L70.6056 208.457Z" fill="white"/>
<path d="M59.6956 177.806L75.6926 172.354L75.6926 178.624L59.6956 184.142L59.6956 177.806Z" fill="white"/>
<path fill-rule="evenodd" clip-rule="evenodd" d="M82.2494 237.427L82.57 191.902L84.1728 191.915L83.8522 237.44L82.2494 237.427Z" fill="white"/>
<path d="M79.1364 222.531L95.1335 217.079L95.1335 223.349L79.1364 228.867L79.1364 222.531Z" fill="white"/>
<path fill-rule="evenodd" clip-rule="evenodd" d="M89.9431 235.013L90.2637 189.489L91.8665 189.502L91.5459 235.026L89.9431 235.013Z" fill="white"/>
<path d="M79.0332 204.362L95.0302 198.91L95.0302 205.18L79.0332 210.699L79.0332 204.362Z" fill="white"/>
<path fill-rule="evenodd" clip-rule="evenodd" d="M101.484 202.939L101.805 157.414L103.894 157.431L103.573 202.956L101.484 202.939Z" fill="white"/>
<path d="M98.3708 188.042L114.368 182.591L114.368 188.861L98.3708 194.379L98.3708 188.042Z" fill="white"/>
<path fill-rule="evenodd" clip-rule="evenodd" d="M109.178 200.525L109.498 155L111.588 155.017L111.267 200.542L109.178 200.525Z" fill="white"/>
<path d="M98.2675 169.874L114.265 164.422L114.265 170.692L98.2675 176.21L98.2675 169.874Z" fill="white"/>
<path fill-rule="evenodd" clip-rule="evenodd" d="M120.718 228.46L121.039 182.936L123.128 182.953L122.807 228.477L120.718 228.46Z" fill="white"/>
<path d="M117.605 213.564L133.602 208.112L133.602 214.382L117.605 219.9L117.605 213.564Z" fill="white"/>
<path fill-rule="evenodd" clip-rule="evenodd" d="M128.412 226.046L128.732 180.522L130.821 180.539L130.501 226.063L128.412 226.046Z" fill="white"/>
<path d="M117.501 195.396L133.498 189.944L133.498 196.214L117.501 201.732L117.501 195.396Z" fill="white"/>
<path fill-rule="evenodd" clip-rule="evenodd" d="M139.952 254.671L140.272 209.146L142.362 209.163L142.041 254.688L139.952 254.671Z" fill="white"/>
<path d="M136.839 239.774L152.836 234.323L152.836 240.593L136.839 246.111L136.839 239.774Z" fill="white"/>
<path fill-rule="evenodd" clip-rule="evenodd" d="M147.646 252.256L147.966 206.732L150.056 206.749L149.735 252.274L147.646 252.256Z" fill="white"/>
<path d="M136.735 221.606L152.732 216.154L152.732 222.424L136.735 227.942L136.735 221.606Z" fill="white"/>
<path fill-rule="evenodd" clip-rule="evenodd" d="M159.186 220.183L159.507 174.658L161.596 174.675L161.276 220.2L159.186 220.183Z" fill="white"/>
<path d="M156.074 205.286L172.071 199.834L172.071 206.105L156.074 211.623L156.074 205.286Z" fill="white"/>
<path fill-rule="evenodd" clip-rule="evenodd" d="M166.88 217.769L167.201 172.244L169.29 172.261L168.969 217.786L166.88 217.769Z" fill="white"/>
<path d="M155.97 187.118L171.967 181.666L171.967 187.936L155.97 193.454L155.97 187.118Z" fill="white"/>
<g clip-path="url(#clip0_25_9978)">
<path d="M211.396 66.1579C209.333 62.9233 211.544 58.2736 216.26 55.7802C220.977 53.2869 226.504 53.7586 228.568 56.9932C230.631 60.2278 228.42 64.8775 223.704 67.4383C218.987 69.9316 213.46 69.3925 211.396 66.1579Z" fill="#232323"/>
<path d="M235.116 57.2734C233.052 54.0388 235.263 49.3891 239.98 46.8957C244.696 44.4024 250.223 44.8741 252.287 48.1087C254.35 51.3433 252.14 55.993 247.423 58.5537C242.706 61.0471 237.179 60.508 235.116 57.2734Z" fill="#232323"/>
<path d="M258.835 48.3889C256.772 45.1543 258.983 40.5045 263.699 38.0112C268.416 35.5179 273.943 35.9896 276.006 39.2242C278.07 42.4588 275.859 47.1085 271.142 49.6692C266.426 52.1626 260.899 51.6235 258.835 48.3889Z" fill="#232323"/>
<path d="M282.555 39.5041C280.491 36.2695 282.702 31.6198 287.419 29.1264C292.135 26.6331 297.662 27.1048 299.726 30.3394C301.789 33.574 299.579 38.2237 294.862 40.7845C290.145 43.2778 284.618 42.7387 282.555 39.5041Z" fill="white"/>
<path d="M306.274 30.6196C304.211 27.385 306.421 22.7352 311.138 20.2419C315.855 17.7486 321.382 18.2203 323.445 21.4549C325.509 24.6895 323.298 29.3392 318.581 31.8999C313.865 34.3933 308.338 33.8542 306.274 30.6196Z" fill="#232323"/>
<path d="M329.994 21.7348C327.93 18.5002 330.141 13.8505 334.858 11.3571C339.574 8.86381 345.101 9.33553 347.165 12.5701C349.228 15.8047 347.018 20.4544 342.301 23.0152C337.584 25.5085 332.057 24.9694 329.994 21.7348Z" fill="#232323"/>
<path d="M353.713 12.8503C351.65 9.61569 353.86 4.96596 358.577 2.47263C363.294 -0.0207109 368.821 0.451006 370.884 3.6856C372.948 6.92019 370.737 11.5699 366.02 14.1306C361.304 16.624 355.777 16.0849 353.713 12.8503Z" fill="white"/>
<path d="M211.396 129.163C209.333 125.933 211.544 121.292 216.26 118.802C220.977 116.313 226.504 116.784 228.568 120.013C230.631 123.242 228.42 127.884 223.704 130.441C218.987 132.93 213.46 132.392 211.396 129.163Z" fill="#232323"/>
<path d="M235.116 120.293C233.052 117.064 235.263 112.422 239.98 109.933C244.696 107.444 250.223 107.915 252.287 111.144C254.35 114.373 252.14 119.015 247.423 121.571C242.706 124.06 237.179 123.522 235.116 120.293Z" fill="#232323"/>
<path d="M258.835 111.424C256.772 108.194 258.983 103.553 263.699 101.063C268.416 98.5743 273.943 99.0452 276.006 102.274C278.07 105.503 275.859 110.145 271.142 112.702C266.426 115.191 260.899 114.653 258.835 111.424Z" fill="#232323"/>
<path d="M282.555 102.554C280.491 99.3248 282.702 94.6829 287.419 92.1938C292.135 89.7047 297.662 90.1756 299.726 93.4047C301.789 96.6338 299.579 101.276 294.862 103.832C290.145 106.321 284.618 105.783 282.555 102.554Z" fill="white"/>
<path d="M306.274 93.6843C304.211 90.4552 306.421 85.8133 311.138 83.3242C315.855 80.8351 321.382 81.306 323.445 84.5351C325.509 87.7642 323.298 92.4061 318.581 94.9625C313.865 97.4516 308.338 96.9134 306.274 93.6843Z" fill="#232323"/>
<path d="M329.994 84.8149C327.93 81.5858 330.141 76.9439 334.858 74.4548C339.574 71.9657 345.101 72.4366 347.165 75.6657C349.228 78.8948 347.018 83.5367 342.301 86.0931C337.584 88.5822 332.057 88.044 329.994 84.8149Z" fill="#232323"/>
<path d="M353.713 75.9453C351.65 72.7161 353.86 68.0743 358.577 65.5852C363.294 63.0961 368.821 63.567 370.884 66.7961C372.948 70.0252 370.737 74.6671 366.02 77.2234C361.304 79.7126 355.777 79.1744 353.713 75.9453Z" fill="url(#paint0_radial_25_9978)"/>
<path d="M211.396 192.163C209.333 188.933 211.544 184.292 216.26 181.802C220.977 179.313 226.504 179.784 228.568 183.013C230.631 186.242 228.42 190.884 223.704 193.441C218.987 195.93 213.46 195.392 211.396 192.163Z" fill="#232323"/>
<path d="M235.116 183.293C233.052 180.064 235.263 175.422 239.98 172.933C244.696 170.444 250.223 170.915 252.287 174.144C254.35 177.373 252.14 182.015 247.423 184.571C242.706 187.06 237.179 186.522 235.116 183.293Z" fill="#232323"/>
<path d="M258.835 174.424C256.772 171.194 258.983 166.553 263.699 164.063C268.416 161.574 273.943 162.045 276.006 165.274C278.07 168.503 275.859 173.145 271.142 175.702C266.426 178.191 260.899 177.653 258.835 174.424Z" fill="#232323"/>
<path d="M282.555 165.554C280.491 162.325 282.702 157.683 287.419 155.194C292.135 152.705 297.662 153.176 299.726 156.405C301.789 159.634 299.579 164.276 294.862 166.832C290.145 169.321 284.618 168.783 282.555 165.554Z" fill="white"/>
<path d="M306.274 156.684C304.211 153.455 306.421 148.813 311.138 146.324C315.855 143.835 321.382 144.306 323.445 147.535C325.509 150.764 323.298 155.406 318.581 157.962C313.865 160.452 308.338 159.913 306.274 156.684Z" fill="#232323"/>
<path d="M329.994 147.815C327.93 144.586 330.141 139.944 334.858 137.455C339.574 134.966 345.101 135.437 347.165 138.666C349.228 141.895 347.018 146.537 342.301 149.093C337.584 151.582 332.057 151.044 329.994 147.815Z" fill="#232323"/>
<path d="M353.713 138.945C351.65 135.716 353.86 131.074 358.577 128.585C363.294 126.096 368.821 126.567 370.884 129.796C372.948 133.025 370.737 137.667 366.02 140.223C361.304 142.713 355.777 142.174 353.713 138.945Z" fill="url(#paint1_radial_25_9978)"/>
<path d="M211.396 255.163C209.333 251.933 211.544 247.292 216.26 244.802C220.977 242.313 226.504 242.784 228.568 246.013C230.631 249.242 228.42 253.884 223.704 256.441C218.987 258.93 213.46 258.392 211.396 255.163Z" fill="#232323"/>
<path d="M235.116 246.293C233.052 243.064 235.263 238.422 239.98 235.933C244.696 233.444 250.223 233.915 252.287 237.144C254.35 240.373 252.14 245.015 247.423 247.571C242.706 250.06 237.179 249.522 235.116 246.293Z" fill="#232323"/>
<path d="M258.835 237.424C256.772 234.194 258.983 229.553 263.699 227.063C268.416 224.574 273.943 225.045 276.006 228.274C278.07 231.503 275.859 236.145 271.142 238.702C266.426 241.191 260.899 240.653 258.835 237.424Z" fill="#232323"/>
<path d="M282.555 228.554C280.491 225.325 282.702 220.683 287.419 218.194C292.135 215.705 297.662 216.176 299.726 219.405C301.789 222.634 299.579 227.276 294.862 229.832C290.145 232.321 284.618 231.783 282.555 228.554Z" fill="white"/>
<path d="M306.274 219.684C304.211 216.455 306.421 211.813 311.138 209.324C315.855 206.835 321.382 207.306 323.445 210.535C325.509 213.764 323.298 218.406 318.581 220.962C313.865 223.452 308.338 222.913 306.274 219.684Z" fill="#232323"/>
<path d="M329.994 210.815C327.93 207.586 330.141 202.944 334.858 200.455C339.574 197.966 345.101 198.437 347.165 201.666C349.228 204.895 347.018 209.537 342.301 212.093C337.584 214.582 332.057 214.044 329.994 210.815Z" fill="#232323"/>
<path d="M353.713 201.945C351.65 198.716 353.86 194.074 358.577 191.585C363.294 189.096 368.821 189.567 370.884 192.796C372.948 196.025 370.737 200.667 366.02 203.223C361.304 205.713 355.777 205.174 353.713 201.945Z" fill="url(#paint2_radial_25_9978)"/>
<path d="M235.116 309.293C233.052 306.064 235.263 301.422 239.98 298.933C244.696 296.444 250.223 296.915 252.287 300.144C254.35 303.373 252.14 308.015 247.423 310.571C242.706 313.06 237.179 312.522 235.116 309.293Z" fill="#232323"/>
<path d="M258.835 300.424C256.772 297.194 258.983 292.553 263.699 290.063C268.416 287.574 273.943 288.045 276.006 291.274C278.07 294.503 275.859 299.145 271.142 301.702C266.426 304.191 260.899 303.653 258.835 300.424Z" fill="#232323"/>
<path d="M282.555 291.554C280.491 288.325 282.702 283.683 287.419 281.194C292.135 278.705 297.662 279.176 299.726 282.405C301.789 285.634 299.579 290.276 294.862 292.832C290.145 295.321 284.618 294.783 282.555 291.554Z" fill="white"/>
<path d="M306.274 282.684C304.211 279.455 306.421 274.813 311.138 272.324C315.855 269.835 321.382 270.306 323.445 273.535C325.509 276.764 323.298 281.406 318.581 283.962C313.865 286.452 308.338 285.913 306.274 282.684Z" fill="#232323"/>
<path d="M329.994 273.815C327.93 270.586 330.141 265.944 334.858 263.455C339.574 260.966 345.101 261.437 347.165 264.666C349.228 267.895 347.018 272.537 342.301 275.093C337.584 277.582 332.057 277.044 329.994 273.815Z" fill="#232323"/>
<path d="M353.713 264.945C351.65 261.716 353.86 257.074 358.577 254.585C363.294 252.096 368.821 252.567 370.884 255.796C372.948 259.025 370.737 263.667 366.02 266.223C361.304 268.713 355.777 268.174 353.713 264.945Z" fill="url(#paint3_radial_25_9978)"/>
</g>
<defs>
<radialGradient id="paint0_radial_25_9978" cx="0" cy="0" r="1" gradientUnits="userSpaceOnUse" gradientTransform="translate(362.299 71.3913) rotate(90) scale(7.3913 9.35976)">
<stop offset="0.510417" stop-color="white"/>
<stop offset="0.546875" stop-color="#232323"/>
</radialGradient>
<radialGradient id="paint1_radial_25_9978" cx="0" cy="0" r="1" gradientUnits="userSpaceOnUse" gradientTransform="translate(362.299 134.391) rotate(90) scale(7.3913 9.35976)">
<stop offset="0.510417" stop-color="white"/>
<stop offset="0.546875" stop-color="#232323"/>
</radialGradient>
<radialGradient id="paint2_radial_25_9978" cx="0" cy="0" r="1" gradientUnits="userSpaceOnUse" gradientTransform="translate(362.299 197.391) rotate(90) scale(7.3913 9.35976)">
<stop offset="0.510417" stop-color="white"/>
<stop offset="0.546875" stop-color="#232323"/>
</radialGradient>
<radialGradient id="paint3_radial_25_9978" cx="0" cy="0" r="1" gradientUnits="userSpaceOnUse" gradientTransform="translate(362.299 260.391) rotate(90) scale(7.3913 9.35976)">
<stop offset="0.510417" stop-color="white"/>
<stop offset="0.546875" stop-color="#232323"/>
</radialGradient>
<clipPath id="clip0_25_9978">
<rect width="174" height="284" fill="white" transform="translate(208 16)"/>
</clipPath>
</defs>
</svg>
