<svg width="547" height="50" viewBox="0 0 547 50" fill="none" xmlns="http://www.w3.org/2000/svg">
<rect x="71.5" y="0.5" width="49" height="49" fill="black" stroke="black"/>
<rect x="142.5" y="0.5" width="49" height="49" fill="black" stroke="black"/>
<rect x="284.5" y="0.5" width="49" height="49" fill="black" stroke="black"/>
<rect x="355.5" y="0.5" width="49" height="49" fill="black" stroke="black"/>
<rect x="213.5" y="0.5" width="49" height="49" fill="white" stroke="black"/>
<rect x="426.5" y="0.5" width="49" height="49" fill="white" stroke="black"/>
<rect x="497.5" y="0.5" width="49" height="49" fill="white" stroke="black"/>
<path d="M11.8295 34H9.61364L16.0227 16.5455H18.2045L24.6136 34H22.3977L17.1818 19.3068H17.0455L11.8295 34ZM12.6477 27.1818H21.5795V29.0568H12.6477V27.1818ZM27.3324 34V16.5455H29.3438V22.9886H29.5142C29.6619 22.7614 29.8665 22.4716 30.1278 22.1193C30.3949 21.7614 30.7756 21.4432 31.2699 21.1648C31.7699 20.8807 32.446 20.7386 33.2983 20.7386C34.4006 20.7386 35.3722 21.0142 36.2131 21.5653C37.054 22.1165 37.7102 22.8977 38.1818 23.9091C38.6534 24.9205 38.8892 26.1136 38.8892 27.4886C38.8892 28.875 38.6534 30.0767 38.1818 31.0938C37.7102 32.1051 37.0568 32.8892 36.2216 33.446C35.3864 33.9972 34.4233 34.2727 33.3324 34.2727C32.4915 34.2727 31.8182 34.1335 31.3125 33.8551C30.8068 33.571 30.4176 33.25 30.1449 32.892C29.8722 32.5284 29.6619 32.2273 29.5142 31.9886H29.2756V34H27.3324ZM29.3097 27.4545C29.3097 28.4432 29.4545 29.3153 29.7443 30.071C30.0341 30.821 30.4574 31.4091 31.0142 31.8352C31.571 32.2557 32.2528 32.4659 33.0597 32.4659C33.9006 32.4659 34.6023 32.2443 35.1648 31.8011C35.733 31.3523 36.1591 30.75 36.4432 29.9943C36.733 29.233 36.8778 28.3864 36.8778 27.4545C36.8778 26.5341 36.7358 25.7045 36.4517 24.9659C36.1733 24.2216 35.75 23.6335 35.1818 23.2017C34.6193 22.7642 33.9119 22.5455 33.0597 22.5455C32.2415 22.5455 31.554 22.7528 30.9972 23.1676C30.4403 23.5767 30.0199 24.1506 29.7358 24.8892C29.4517 25.6222 29.3097 26.4773 29.3097 27.4545Z" fill="black"/>
</svg>
