<svg width="547" height="50" viewBox="0 0 547 50" fill="none" xmlns="http://www.w3.org/2000/svg">
<rect x="71.5" y="0.5" width="49" height="49" fill="black" stroke="black"/>
<rect x="284.5" y="0.5" width="49" height="49" fill="black" stroke="black"/>
<rect x="142.5" y="0.5" width="49" height="49" fill="white" stroke="black"/>
<rect x="213.5" y="0.5" width="49" height="49" fill="white" stroke="black"/>
<rect x="355.5" y="0.5" width="49" height="49" fill="white" stroke="black"/>
<rect x="426.5" y="0.5" width="49" height="49" fill="white" stroke="black"/>
<rect x="497.5" y="0.5" width="49" height="49" fill="white" stroke="black"/>
<path d="M12.1136 34V16.5455H18.2159C19.4318 16.5455 20.4347 16.7557 21.2244 17.1761C22.0142 17.5909 22.6023 18.1506 22.9886 18.8551C23.375 19.554 23.5682 20.3295 23.5682 21.1818C23.5682 21.9318 23.4347 22.5511 23.1676 23.0398C22.9063 23.5284 22.5597 23.9148 22.1278 24.1989C21.7017 24.483 21.2386 24.6932 20.7386 24.8295V25C21.2727 25.0341 21.8097 25.2216 22.3494 25.5625C22.8892 25.9034 23.3409 26.392 23.7045 27.0284C24.0682 27.6648 24.25 28.4432 24.25 29.3636C24.25 30.2386 24.0511 31.0256 23.6534 31.7244C23.2557 32.4233 22.6278 32.9773 21.7699 33.3864C20.9119 33.7955 19.7955 34 18.4205 34H12.1136ZM14.2273 32.125H18.4205C19.8011 32.125 20.7813 31.858 21.3608 31.3239C21.946 30.7841 22.2386 30.1307 22.2386 29.3636C22.2386 28.7727 22.0881 28.2273 21.7869 27.7273C21.4858 27.2216 21.0568 26.8182 20.5 26.517C19.9432 26.2102 19.2841 26.0568 18.5227 26.0568H14.2273V32.125ZM14.2273 24.2159H18.1477C18.7841 24.2159 19.358 24.0909 19.8693 23.8409C20.3864 23.5909 20.7955 23.2386 21.0966 22.7841C21.4034 22.3295 21.5568 21.7955 21.5568 21.1818C21.5568 20.4148 21.2898 19.7642 20.7557 19.2301C20.2216 18.6903 19.375 18.4205 18.2159 18.4205H14.2273V24.2159ZM27.723 34V16.5455H29.7344V22.9886H29.9048C30.0526 22.7614 30.2571 22.4716 30.5185 22.1193C30.7855 21.7614 31.1662 21.4432 31.6605 21.1648C32.1605 20.8807 32.8366 20.7386 33.6889 20.7386C34.7912 20.7386 35.7628 21.0142 36.6037 21.5653C37.4446 22.1165 38.1009 22.8977 38.5724 23.9091C39.044 24.9205 39.2798 26.1136 39.2798 27.4886C39.2798 28.875 39.044 30.0767 38.5724 31.0938C38.1009 32.1051 37.4474 32.8892 36.6122 33.446C35.777 33.9972 34.8139 34.2727 33.723 34.2727C32.8821 34.2727 32.2088 34.1335 31.7031 33.8551C31.1974 33.571 30.8082 33.25 30.5355 32.892C30.2628 32.5284 30.0526 32.2273 29.9048 31.9886H29.6662V34H27.723ZM29.7003 27.4545C29.7003 28.4432 29.8452 29.3153 30.1349 30.071C30.4247 30.821 30.848 31.4091 31.4048 31.8352C31.9616 32.2557 32.6435 32.4659 33.4503 32.4659C34.2912 32.4659 34.9929 32.2443 35.5554 31.8011C36.1236 31.3523 36.5497 30.75 36.8338 29.9943C37.1236 29.233 37.2685 28.3864 37.2685 27.4545C37.2685 26.5341 37.1264 25.7045 36.8423 24.9659C36.5639 24.2216 36.1406 23.6335 35.5724 23.2017C35.0099 22.7642 34.3026 22.5455 33.4503 22.5455C32.6321 22.5455 31.9446 22.7528 31.3878 23.1676C30.831 23.5767 30.4105 24.1506 30.1264 24.8892C29.8423 25.6222 29.7003 26.4773 29.7003 27.4545Z" fill="black"/>
</svg>
