<svg width="547" height="50" viewBox="0 0 547 50" fill="none" xmlns="http://www.w3.org/2000/svg">
<rect x="71.5" y="0.5" width="49" height="49" fill="white" stroke="black"/>
<rect x="142.5" y="0.5" width="49" height="49" fill="white" stroke="black"/>
<rect x="284.5" y="0.5" width="49" height="49" fill="white" stroke="black"/>
<rect x="355.5" y="0.5" width="49" height="49" fill="white" stroke="black"/>
<rect x="426.5" y="0.5" width="49" height="49" fill="white" stroke="black"/>
<rect x="213.5" y="0.5" width="49" height="49" fill="white" stroke="black"/>
<rect x="497.5" y="0.5" width="49" height="49" fill="white" stroke="black"/>
<path d="M32.1591 22H30.0455C29.9205 21.392 29.7017 20.858 29.3892 20.3977C29.0824 19.9375 28.7074 19.5511 28.2642 19.2386C27.8267 18.9205 27.3409 18.6818 26.8068 18.5227C26.2727 18.3636 25.7159 18.2841 25.1364 18.2841C24.0795 18.2841 23.1222 18.5511 22.2642 19.0852C21.4119 19.6193 20.733 20.4062 20.2273 21.446C19.7273 22.4858 19.4773 23.7614 19.4773 25.2727C19.4773 26.7841 19.7273 28.0597 20.2273 29.0994C20.733 30.1392 21.4119 30.9261 22.2642 31.4602C23.1222 31.9943 24.0795 32.2614 25.1364 32.2614C25.7159 32.2614 26.2727 32.1818 26.8068 32.0227C27.3409 31.8636 27.8267 31.6278 28.2642 31.3153C28.7074 30.9972 29.0824 30.608 29.3892 30.1477C29.7017 29.6818 29.9205 29.1477 30.0455 28.5455H32.1591C32 29.4375 31.7102 30.2358 31.2898 30.9403C30.8693 31.6449 30.3466 32.2443 29.7216 32.7386C29.0966 33.2273 28.3949 33.5994 27.6165 33.8551C26.8438 34.1108 26.017 34.2386 25.1364 34.2386C23.6477 34.2386 22.3239 33.875 21.1648 33.1477C20.0057 32.4205 19.0938 31.3864 18.429 30.0455C17.7642 28.7045 17.4318 27.1136 17.4318 25.2727C17.4318 23.4318 17.7642 21.8409 18.429 20.5C19.0938 19.1591 20.0057 18.125 21.1648 17.3977C22.3239 16.6705 23.6477 16.3068 25.1364 16.3068C26.017 16.3068 26.8438 16.4347 27.6165 16.6903C28.3949 16.946 29.0966 17.321 29.7216 17.8153C30.3466 18.304 30.8693 18.9006 31.2898 19.6051C31.7102 20.304 32 21.1023 32.1591 22Z" fill="black"/>
</svg>
