<svg width="547" height="50" viewBox="0 0 547 50" fill="none" xmlns="http://www.w3.org/2000/svg">
<rect x="71.5" y="0.5" width="49" height="49" fill="black" stroke="black"/>
<rect x="142.5" y="0.5" width="49" height="49" fill="black" stroke="black"/>
<rect x="213.5" y="0.5" width="49" height="49" fill="black" stroke="black"/>
<rect x="284.5" y="0.5" width="49" height="49" fill="black" stroke="black"/>
<rect x="355.5" y="0.5" width="49" height="49" fill="black" stroke="black"/>
<rect x="426.5" y="0.5" width="49" height="49" fill="black" stroke="black"/>
<rect x="497.5" y="0.5" width="49" height="49" fill="white" stroke="black"/>
<path d="M23.0455 22C22.858 21.4261 22.6108 20.9119 22.304 20.4574C22.0028 19.9972 21.642 19.6051 21.2216 19.2812C20.8068 18.9574 20.3352 18.7102 19.8068 18.5398C19.2784 18.3693 18.6989 18.2841 18.0682 18.2841C17.0341 18.2841 16.0938 18.5511 15.2472 19.0852C14.4006 19.6193 13.7273 20.4062 13.2273 21.446C12.7273 22.4858 12.4773 23.7614 12.4773 25.2727C12.4773 26.7841 12.7301 28.0597 13.2358 29.0994C13.7415 30.1392 14.4261 30.9261 15.2898 31.4602C16.1534 31.9943 17.125 32.2614 18.2045 32.2614C19.2045 32.2614 20.0852 32.0483 20.8466 31.6222C21.6136 31.1903 22.2102 30.5824 22.6364 29.7983C23.0682 29.0085 23.2841 28.0795 23.2841 27.0114L23.9318 27.1477H18.6818V25.2727H25.3295V27.1477C25.3295 28.5852 25.0227 29.8352 24.4091 30.8977C23.8011 31.9602 22.9602 32.7841 21.8864 33.3693C20.8182 33.9489 19.5909 34.2386 18.2045 34.2386C16.6591 34.2386 15.3011 33.875 14.1307 33.1477C12.9659 32.4205 12.0568 31.3864 11.4034 30.0455C10.7557 28.7045 10.4318 27.1136 10.4318 25.2727C10.4318 23.892 10.6165 22.6506 10.9858 21.5483C11.3608 20.4403 11.8892 19.4972 12.571 18.7188C13.2528 17.9403 14.0597 17.3438 14.9915 16.929C15.9233 16.5142 16.9489 16.3068 18.0682 16.3068C18.9886 16.3068 19.8466 16.446 20.642 16.7244C21.4432 16.9972 22.1562 17.3864 22.7812 17.892C23.4119 18.392 23.9375 18.9915 24.358 19.6903C24.7784 20.3835 25.0682 21.1534 25.2273 22H23.0455ZM28.9496 34V16.5455H30.9609V22.9886H31.1314C31.2791 22.7614 31.4837 22.4716 31.745 22.1193C32.0121 21.7614 32.3928 21.4432 32.8871 21.1648C33.3871 20.8807 34.0632 20.7386 34.9155 20.7386C36.0178 20.7386 36.9893 21.0142 37.8303 21.5653C38.6712 22.1165 39.3274 22.8977 39.799 23.9091C40.2706 24.9205 40.5064 26.1136 40.5064 27.4886C40.5064 28.875 40.2706 30.0767 39.799 31.0938C39.3274 32.1051 38.674 32.8892 37.8388 33.446C37.0036 33.9972 36.0405 34.2727 34.9496 34.2727C34.1087 34.2727 33.4354 34.1335 32.9297 33.8551C32.424 33.571 32.0348 33.25 31.7621 32.892C31.4893 32.5284 31.2791 32.2273 31.1314 31.9886H30.8928V34H28.9496ZM30.9268 27.4545C30.9268 28.4432 31.0717 29.3153 31.3615 30.071C31.6513 30.821 32.0746 31.4091 32.6314 31.8352C33.1882 32.2557 33.87 32.4659 34.6768 32.4659C35.5178 32.4659 36.2195 32.2443 36.782 31.8011C37.3501 31.3523 37.7763 30.75 38.0604 29.9943C38.3501 29.233 38.495 28.3864 38.495 27.4545C38.495 26.5341 38.353 25.7045 38.0689 24.9659C37.7905 24.2216 37.3672 23.6335 36.799 23.2017C36.2365 22.7642 35.5291 22.5455 34.6768 22.5455C33.8587 22.5455 33.1712 22.7528 32.6143 23.1676C32.0575 23.5767 31.6371 24.1506 31.353 24.8892C31.0689 25.6222 30.9268 26.4773 30.9268 27.4545Z" fill="black"/>
</svg>
