<svg width="51" height="51" viewBox="0 0 51 51" fill="none" xmlns="http://www.w3.org/2000/svg">
<path fill-rule="evenodd" clip-rule="evenodd" d="M25.5 51C39.5833 51 51 39.5833 51 25.5C51 11.4167 39.5833 0 25.5 0C11.4167 0 0 11.4167 0 25.5C0 39.5833 11.4167 51 25.5 51ZM24.6633 36.8999C23.2722 38.293 21.56 39 19.58 39C16.4592 39 13.7607 37.1863 13.5665 37.0559C13.5635 37.0538 13.561 37.0522 13.5592 37.051C13.3738 36.9221 13.2251 36.7471 13.1276 36.5432C13.0301 36.3393 12.9873 36.1135 13.0033 35.888C13.0193 35.6626 13.0936 35.4451 13.2188 35.2571C13.3441 35.0691 13.5161 34.9169 13.7178 34.8155C15.772 33.787 15.7343 33.2831 15.6303 31.9408C15.603 31.5867 15.5757 31.2156 15.5757 30.8211C15.5757 27.699 18.0381 25.9388 20.5251 25.7188L32.0752 14.1522C33.6067 12.6159 36.2797 12.6159 37.8112 14.1522C38.5719 14.9143 38.9995 15.9476 39 17.0251C39.0005 18.1026 38.5738 19.1363 37.8138 19.899L26.6798 31.049C26.8826 33.1842 26.1233 35.4379 24.6633 36.8999ZM34.945 15.5773C34.5606 15.5768 34.1909 15.7254 33.9135 15.9919L23.9392 25.9805L26.0011 28.0454L35.9754 18.0568C36.1107 17.9214 36.2179 17.7606 36.2911 17.5837C36.3643 17.4068 36.402 17.2171 36.402 17.0256C36.402 16.8341 36.3643 16.6445 36.2911 16.4676C36.2179 16.2907 36.1107 16.1299 35.9754 15.9945C35.6987 15.7273 35.3294 15.5778 34.945 15.5773ZM18.2233 31.7305L18.224 31.739C18.3397 33.2506 18.289 34.5734 16.8823 35.8402C17.6558 36.1409 18.6036 36.3961 19.5787 36.3961H19.58C20.8645 36.3961 21.9253 35.9586 22.8237 35.059C23.7845 34.0968 24.2967 32.4329 24.0666 31.0138C23.9405 30.2287 23.531 29.1637 22.3024 28.5453C21.9578 28.3722 21.5119 28.2771 21.0491 28.2771C20.0545 28.2771 18.1759 28.8083 18.1759 30.8198C18.1759 31.1396 18.2001 31.4415 18.2233 31.7305Z" fill="#F4D6B1"/>
</svg>
