<svg width="51" height="51" viewBox="0 0 51 51" fill="none" xmlns="http://www.w3.org/2000/svg">
<path fill-rule="evenodd" clip-rule="evenodd" d="M25.5 51C39.5833 51 51 39.5833 51 25.5C51 11.4167 39.5833 0 25.5 0C11.4167 0 0 11.4167 0 25.5C0 39.5833 11.4167 51 25.5 51ZM29.9874 34.6883C30.7735 34.2532 31.4943 33.7072 32.128 33.0667C32.4435 32.7489 32.7359 32.4085 33.003 32.0482L35.503 33.9446C34.427 35.3904 33.0586 36.588 31.4889 37.4578L29.9874 34.6883ZM34.2858 29.6829C34.7568 28.4091 34.9497 27.0475 34.8514 25.6913L37.967 25.4671C38.0975 27.2755 37.8401 29.0911 37.2123 30.7898L34.2858 29.6829ZM34.3373 17.438C35.6034 18.7186 36.5841 20.2577 37.2139 21.9523L34.2873 23.0592C33.8133 21.7878 33.0773 20.6328 32.128 19.6707L34.3373 17.438ZM24.3916 35.7708C24.4324 35.7776 24.4732 35.7844 24.514 35.7888C25.5079 35.8928 26.5118 35.8385 27.489 35.6278L28.1515 38.7147C26.8524 38.9978 25.517 39.0709 24.1953 38.931C24.1324 38.9245 24.0695 38.9143 24.0066 38.9041C23.9617 38.8968 23.9167 38.8895 23.8718 38.8836C23.5515 38.841 23.2328 38.7952 22.9187 38.7289L22.8359 38.7147L22.8375 38.7068C21.6706 38.4541 20.5464 38.0312 19.5 37.4515L19.4984 37.4531L19.4547 37.4231C19.0109 37.1752 18.5859 36.8909 18.1719 36.5878C17.6368 36.198 17.1322 35.7673 16.6625 35.2993C16.275 34.9093 15.9282 34.4893 15.5985 34.0599C15.5821 34.0377 15.5629 34.0168 15.5438 33.9959C15.5246 33.975 15.5055 33.9541 15.4891 33.932L15.5 33.9241C14.783 32.9619 14.2068 31.9005 13.7891 30.7724L13.7766 30.7772C13.7486 30.701 13.7253 30.6236 13.702 30.5461C13.6877 30.4983 13.6734 30.4505 13.6579 30.403C13.6524 30.3865 13.6469 30.37 13.6414 30.3535C13.5889 30.196 13.5359 30.0372 13.4907 29.8772C13.4282 29.6561 13.3766 29.4335 13.3266 29.2093C13.3147 29.1548 13.3021 29.101 13.2896 29.0473C13.2662 28.9467 13.2428 28.8464 13.2235 28.7435C13.1735 28.4735 13.1376 28.2003 13.1047 27.9287C13.0987 27.8768 13.0913 27.8257 13.0839 27.7748C13.074 27.7067 13.0641 27.639 13.0579 27.5703C13.0219 27.1771 13.0001 26.7808 13.0001 26.3813V26.3671C12.9951 24.7079 13.3163 23.0641 13.945 21.5313C14.5738 19.9985 15.4974 18.6072 16.6625 17.438C18.6201 15.4498 21.1824 14.1846 23.9374 13.8459V9L31.7499 15.3159L23.9374 21.6318V17.0354C22.0174 17.3558 20.2455 18.2776 18.8719 19.6707C17.1 21.4597 16.125 23.8376 16.125 26.3687V26.3718C16.1288 26.8881 16.1722 27.4034 16.2547 27.9129C16.2595 27.9424 16.2633 27.9724 16.2672 28.0025C16.2722 28.0418 16.2773 28.0813 16.2844 28.1198C16.3767 28.6038 16.5057 29.08 16.6703 29.544C16.9966 30.4729 17.4665 31.3437 18.0625 32.124C18.311 32.4554 18.5803 32.7703 18.8687 33.0667C19.155 33.3526 19.4592 33.6195 19.7797 33.8656C20.8908 34.7392 22.1846 35.3452 23.5624 35.6372C23.8047 35.6854 24.0486 35.7249 24.2937 35.7557C24.3263 35.7599 24.3589 35.7653 24.3916 35.7708Z" fill="#F4D6B1"/>
</svg>
