<svg width="232" height="275" viewBox="0 0 232 275" fill="none" xmlns="http://www.w3.org/2000/svg">
<path d="M143.5 7.5H194.5V264C194.5 265.933 192.933 267.5 191 267.5H147C145.067 267.5 143.5 265.933 143.5 264V7.5Z" fill="white" stroke="black"/>
<path d="M90.5 7.5H142.5V264C142.5 265.933 140.933 267.5 139 267.5H94C92.067 267.5 90.5 265.933 90.5 264V7.5Z" fill="white"/>
<path d="M90.5 7.5H142.5V264C142.5 265.933 140.933 267.5 139 267.5H94C92.067 267.5 90.5 265.933 90.5 264V7.5Z" fill="url(#paint0_linear_101:127)" fill-opacity="0.61"/>
<path d="M90.5 7.5H142.5V264C142.5 265.933 140.933 267.5 139 267.5H94C92.067 267.5 90.5 265.933 90.5 264V7.5Z" stroke="black"/>
<path d="M38.5 7.5H89.5V264C89.5 265.933 87.933 267.5 86 267.5H42C40.067 267.5 38.5 265.933 38.5 264V7.5Z" fill="white" stroke="black"/>
<path d="M125.5 7.5H160.5V159C160.5 160.933 158.933 162.5 157 162.5H129C127.067 162.5 125.5 160.933 125.5 159V7.5Z" fill="black" stroke="black"/>
<path d="M73.5 7.5H109.5V159C109.5 160.933 107.933 162.5 106 162.5H77C75.067 162.5 73.5 160.933 73.5 159V7.5Z" fill="black" stroke="black"/>
<defs>
<linearGradient id="paint0_linear_101:127" x1="116.5" y1="7" x2="116.5" y2="268" gradientUnits="userSpaceOnUse">
<stop stop-color="#14CC27" stop-opacity="0.51"/>
<stop offset="0.765625" stop-color="#00CE15"/>
</linearGradient>
</defs>
</svg>
