<svg width="485" height="388" viewBox="0 0 485 388" fill="none" xmlns="http://www.w3.org/2000/svg">
<line x1="21" y1="95.0332" x2="464" y2="95.0332" stroke="black" stroke-width="3"/>
<line x1="21" y1="145.566" x2="464" y2="145.566" stroke="black" stroke-width="3"/>
<line x1="21" y1="196.1" x2="464" y2="196.1" stroke="black" stroke-width="3"/>
<line x1="21" y1="246.633" x2="464" y2="246.633" stroke="black" stroke-width="3"/>
<line x1="21" y1="297.167" x2="464" y2="297.167" stroke="black" stroke-width="3"/>
<path d="M69 164.61V256H65.0606V221.749L44 227.511V135H47.7879V170.692L69 164.61H69ZM47.7879 186.057V211.185L65.0606 206.384V181.255L47.7879 186.057V186.057Z" fill="black"/>
<path d="M136 85.6098V177H132.061V142.749L111 148.511V56H114.788V91.6918L136 85.6098H136ZM114.788 107.057V132.185L132.061 127.384V102.255L114.788 107.057V107.057Z" fill="black"/>
<path d="M197 188.61V280H193.061V245.749L172 251.511V159H175.788V194.692L197 188.61H197ZM175.788 210.057V235.185L193.061 230.384V205.255L175.788 210.057V210.057Z" fill="black"/>
<path d="M256 113.61V205H252.061V170.749L231 176.511V84H234.788V119.692L256 113.61H256ZM234.788 135.057V160.185L252.061 155.384V130.255L234.788 135.057V135.057Z" fill="black"/>
<path d="M315 215.61V307H311.061V272.749L290 278.511V186H293.788V221.692L315 215.61H315ZM293.788 237.057V262.185L311.061 257.384V232.255L293.788 237.057V237.057Z" fill="black"/>
<path d="M374 137.61V229H370.061V194.749L349 200.511V108H352.788V143.692L374 137.61H374ZM352.788 159.057V184.185L370.061 179.384V154.255L352.788 159.057V159.057Z" fill="black"/>
<path d="M436 238.61V330H432.061V295.749L411 301.511V209H414.788V244.692L436 238.61H436ZM414.788 260.057V285.185L432.061 280.384V255.255L414.788 260.057V260.057Z" fill="black"/>
</svg>
