<svg width="485" height="409" viewBox="0 0 485 409" fill="none" xmlns="http://www.w3.org/2000/svg">
<line x1="21" y1="116.033" x2="464" y2="116.033" stroke="black" stroke-width="3"/>
<line x1="21" y1="166.566" x2="464" y2="166.566" stroke="black" stroke-width="3"/>
<line x1="21" y1="217.1" x2="464" y2="217.1" stroke="black" stroke-width="3"/>
<line x1="21" y1="267.633" x2="464" y2="267.633" stroke="black" stroke-width="3"/>
<line x1="21" y1="318.167" x2="464" y2="318.167" stroke="black" stroke-width="3"/>
<path d="M74 84.6098V176H70.0606V141.749L49 147.511V55H52.7879V90.6918L74 84.6098H74ZM52.7879 106.057V131.185L70.0606 126.384V101.255L52.7879 106.057V106.057Z" fill="black"/>
<path d="M136 159.61V251H132.061V216.749L111 222.511V130H114.788V165.692L136 159.61H136ZM114.788 181.057V206.185L132.061 201.384V176.255L114.788 181.057V181.057Z" fill="black"/>
<path d="M197 62.6098V154H193.061V119.749L172 125.511V33H175.788V68.6918L197 62.6098H197ZM175.788 84.0569V109.185L193.061 104.384V79.2553L175.788 84.0569V84.0569Z" fill="black"/>
<path d="M256 134.61V226H252.061V191.749L231 197.511V105H234.788V140.692L256 134.61H256ZM234.788 156.057V181.185L252.061 176.384V151.255L234.788 156.057V156.057Z" fill="black"/>
<path d="M315 209.61V301H311.061V266.749L290 272.511V180H293.788V215.692L315 209.61H315ZM293.788 231.057V256.185L311.061 251.384V226.255L293.788 231.057V231.057Z" fill="black"/>
<path d="M374 108.61V200H370.061V165.749L349 171.511V79H352.788V114.692L374 108.61H374ZM352.788 130.057V155.185L370.061 150.384V125.255L352.788 130.057V130.057Z" fill="black"/>
<path d="M436 185.61V277H432.061V242.749L411 248.511V156H414.788V191.692L436 185.61H436ZM414.788 207.057V232.185L432.061 227.384V202.255L414.788 207.057V207.057Z" fill="black"/>
</svg>
