<svg width="443" height="299" viewBox="0 0 443 299" fill="none" xmlns="http://www.w3.org/2000/svg">
<line y1="95.0332" x2="443" y2="95.0332" stroke="black" stroke-width="3"/>
<line y1="145.566" x2="443" y2="145.566" stroke="black" stroke-width="3"/>
<line y1="196.1" x2="443" y2="196.1" stroke="black" stroke-width="3"/>
<line y1="246.633" x2="443" y2="246.633" stroke="black" stroke-width="3"/>
<line y1="297.167" x2="443" y2="297.167" stroke="black" stroke-width="3"/>
<path d="M22 112H28L27.5 220L22 232.908V112Z" fill="black"/>
<path d="M49 194.817C51 189.635 51.5 188.5 52 185C52.5 181.5 50 178.5 50 178.5C50 178.5 44.5 172 37.5 174C30.5 176 26.5 183 26.5 183V175.5C26.5 175.5 29 169.5 38.5 166C42 165 46.5 164.5 53.5 166.5C57.5 168 57.5 167.5 62.5 171.5C64.5 173.5 67 177 68 183C68 188.5 68 189.5 65.7512 194.817C57.5 213 22 233 22 233L27.2512 219.317C27.2512 219.317 47 200 49 194.817Z" fill="black"/>
</svg>
