<svg width="443" height="299" viewBox="0 0 443 299" fill="none" xmlns="http://www.w3.org/2000/svg">
<line y1="95.0332" x2="443" y2="95.0332" stroke="black" stroke-width="3"/>
<line y1="145.566" x2="443" y2="145.566" stroke="black" stroke-width="3"/>
<line y1="196.1" x2="443" y2="196.1" stroke="black" stroke-width="3"/>
<line y1="246.633" x2="443" y2="246.633" stroke="black" stroke-width="3"/>
<line y1="297.167" x2="443" y2="297.167" stroke="black" stroke-width="3"/>
<path d="M79 36H85L84.5 144L79 156.908V36Z" fill="black"/>
<path d="M106 118.817C108 113.635 108.5 112.5 109 109C109.5 105.5 107 102.5 107 102.5C107 102.5 101.5 96 94.5 98C87.5 100 83.5 107 83.5 107V99.5C83.5 99.5 86 93.5001 95.5 90.0001C99 89 103.5 88.4999 110.5 90.4999C114.5 92 114.5 91.5 119.5 95.5C121.5 97.5 124 101 125 107C125 112.5 125 113.5 122.751 118.817C114.5 137 79 157 79 157L84.2512 143.317C84.2512 143.317 104 124 106 118.817Z" fill="black"/>
<path d="M22 112H28L27.5 220L22 232.908V112Z" fill="black"/>
<path d="M49 194.817C51 189.635 51.5 188.5 52 185C52.5 181.5 50 178.5 50 178.5C50 178.5 44.5 172 37.5 174C30.5 176 26.5 183 26.5 183V175.5C26.5 175.5 29 169.5 38.5 166C42 165 46.5 164.5 53.5 166.5C57.5 168 57.5 167.5 62.5 171.5C64.5 173.5 67 177 68 183C68 188.5 68 189.5 65.7512 194.817C57.5 213 22 233 22 233L27.2512 219.317C27.2512 219.317 47 200 49 194.817Z" fill="black"/>
<path d="M192 62H198L197.5 170L192 182.908V62Z" fill="black"/>
<path d="M219 144.817C221 139.635 221.5 138.5 222 135C222.5 131.5 220 128.5 220 128.5C220 128.5 214.5 122 207.5 124C200.5 126 196.5 133 196.5 133V125.5C196.5 125.5 199 119.5 208.5 116C212 115 216.5 114.5 223.5 116.5C227.5 118 227.5 117.5 232.5 121.5C234.5 123.5 237 127 238 133C238 138.5 238 139.5 235.751 144.817C227.5 163 192 183 192 183L197.251 169.317C197.251 169.317 217 150 219 144.817Z" fill="black"/>
<path d="M136 137H142L141.5 245L136 257.908V137Z" fill="black"/>
<path d="M163 219.817C165 214.635 165.5 213.5 166 210C166.5 206.5 164 203.5 164 203.5C164 203.5 158.5 197 151.5 199C144.5 201 140.5 208 140.5 208V200.5C140.5 200.5 143 194.5 152.5 191C156 190 160.5 189.5 167.5 191.5C171.5 193 171.5 192.5 176.5 196.5C178.5 198.5 181 202 182 208C182 213.5 182 214.5 179.751 219.817C171.5 238 136 258 136 258L141.251 244.317C141.251 244.317 161 225 163 219.817Z" fill="black"/>
</svg>
