<svg width="443" height="299" viewBox="0 0 443 299" fill="none" xmlns="http://www.w3.org/2000/svg">
<line y1="95.0332" x2="443" y2="95.0332" stroke="black" stroke-width="3"/>
<line y1="145.566" x2="443" y2="145.566" stroke="black" stroke-width="3"/>
<line y1="196.1" x2="443" y2="196.1" stroke="black" stroke-width="3"/>
<line y1="246.633" x2="443" y2="246.633" stroke="black" stroke-width="3"/>
<line y1="297.167" x2="443" y2="297.167" stroke="black" stroke-width="3"/>
<line x1="30.4999" y1="33.0189" x2="29.4999" y2="165.019" stroke="black" stroke-width="5"/>
<path d="M17.2894 121.808L67.1914 106L67.1914 124.181L17.2894 140.181L17.2894 121.808Z" fill="black"/>
<line x1="54.4999" y1="26.0189" x2="53.4999" y2="158.019" stroke="black" stroke-width="5"/>
<path d="M16.9663 69.1272L66.8683 53.3191L66.8683 71.5L16.9663 87.5L16.9663 69.1272Z" fill="black"/>
<line x1="90.823" y1="108.019" x2="89.823" y2="240.019" stroke="black" stroke-width="5"/>
<path d="M77.6125 196.808L127.514 181L127.514 199.181L77.6125 215.181L77.6125 196.808Z" fill="black"/>
<line x1="114.823" y1="101.019" x2="113.823" y2="233.019" stroke="black" stroke-width="5"/>
<path d="M77.2894 144.127L127.191 128.319L127.191 146.5L77.2894 162.5L77.2894 144.127Z" fill="black"/>
<line x1="150.823" y1="7.01894" x2="149.823" y2="139.019" stroke="black" stroke-width="5"/>
<path d="M137.612 95.8078L187.514 79.9998L187.514 98.1807L137.612 114.181L137.612 95.8078Z" fill="black"/>
<line x1="174.823" y1="0.0189388" x2="173.823" y2="132.019" stroke="black" stroke-width="5"/>
<path d="M137.289 43.1272L187.191 27.3191L187.191 45.5L137.289 61.5L137.289 43.1272Z" fill="black"/>
<line x1="210.823" y1="80.0189" x2="209.823" y2="212.019" stroke="black" stroke-width="5"/>
<path d="M197.612 168.808L247.514 153L247.514 171.181L197.612 187.181L197.612 168.808Z" fill="black"/>
<line x1="234.823" y1="73.0189" x2="233.823" y2="205.019" stroke="black" stroke-width="5"/>
<path d="M197.289 116.127L247.191 100.319L247.191 118.5L197.289 134.5L197.289 116.127Z" fill="black"/>
</svg>
