<svg width="443" height="299" viewBox="0 0 443 299" fill="none" xmlns="http://www.w3.org/2000/svg">
<line y1="95.0332" x2="443" y2="95.0332" stroke="black" stroke-width="3"/>
<line y1="145.566" x2="443" y2="145.566" stroke="black" stroke-width="3"/>
<line y1="196.1" x2="443" y2="196.1" stroke="black" stroke-width="3"/>
<line y1="246.633" x2="443" y2="246.633" stroke="black" stroke-width="3"/>
<line y1="297.167" x2="443" y2="297.167" stroke="black" stroke-width="3"/>
<path d="M79 36H85L84.5 144L79 156.908V36Z" fill="black"/>
<path d="M106 118.817C108 113.635 108.5 112.5 109 109C109.5 105.5 107 102.5 107 102.5C107 102.5 101.5 96 94.5 98C87.5 100 83.5 107 83.5 107V99.5C83.5 99.5 86 93.5001 95.5 90.0001C99 89 103.5 88.4999 110.5 90.4999C114.5 92 114.5 91.5 119.5 95.5C121.5 97.5 124 101 125 107C125 112.5 125 113.5 122.751 118.817C114.5 137 79 157 79 157L84.2512 143.317C84.2512 143.317 104 124 106 118.817Z" fill="black"/>
<path d="M22 112H28L27.5 220L22 232.908V112Z" fill="black"/>
<path d="M49 194.817C51 189.635 51.5 188.5 52 185C52.5 181.5 50 178.5 50 178.5C50 178.5 44.5 172 37.5 174C30.5 176 26.5 183 26.5 183V175.5C26.5 175.5 29 169.5 38.5 166C42 165 46.5 164.5 53.5 166.5C57.5 168 57.5 167.5 62.5 171.5C64.5 173.5 67 177 68 183C68 188.5 68 189.5 65.7512 194.817C57.5 213 22 233 22 233L27.2512 219.317C27.2512 219.317 47 200 49 194.817Z" fill="black"/>
<path d="M192 62H198L197.5 170L192 182.908V62Z" fill="black"/>
<path d="M219 144.817C221 139.635 221.5 138.5 222 135C222.5 131.5 220 128.5 220 128.5C220 128.5 214.5 122 207.5 124C200.5 126 196.5 133 196.5 133V125.5C196.5 125.5 199 119.5 208.5 116C212 115 216.5 114.5 223.5 116.5C227.5 118 227.5 117.5 232.5 121.5C234.5 123.5 237 127 238 133C238 138.5 238 139.5 235.751 144.817C227.5 163 192 183 192 183L197.251 169.317C197.251 169.317 217 150 219 144.817Z" fill="black"/>
<path d="M136 137H142L141.5 245L136 257.908V137Z" fill="black"/>
<path d="M163 219.817C165 214.635 165.5 213.5 166 210C166.5 206.5 164 203.5 164 203.5C164 203.5 158.5 197 151.5 199C144.5 201 140.5 208 140.5 208V200.5C140.5 200.5 143 194.5 152.5 191C156 190 160.5 189.5 167.5 191.5C171.5 193 171.5 192.5 176.5 196.5C178.5 198.5 181 202 182 208C182 213.5 182 214.5 179.751 219.817C171.5 238 136 258 136 258L141.251 244.317C141.251 244.317 161 225 163 219.817Z" fill="black"/>
<path d="M248 163H254L253.5 271L248 283.908V163Z" fill="black"/>
<path d="M275 245.817C277 240.635 277.5 239.5 278 236C278.5 232.5 276 229.5 276 229.5C276 229.5 270.5 223 263.5 225C256.5 227 252.5 234 252.5 234V226.5C252.5 226.5 255 220.5 264.5 217C268 216 272.5 215.5 279.5 217.5C283.5 219 283.5 218.5 288.5 222.5C290.5 224.5 293 228 294 234C294 239.5 294 240.5 291.751 245.817C283.5 264 248 284 248 284L253.251 270.317C253.251 270.317 273 251 275 245.817Z" fill="black"/>
<path d="M305 86H311L310.5 194L305 206.908V86Z" fill="black"/>
<path d="M332 168.817C334 163.635 334.5 162.5 335 159C335.5 155.5 333 152.5 333 152.5C333 152.5 327.5 146 320.5 148C313.5 150 309.5 157 309.5 157V149.5C309.5 149.5 312 143.5 321.5 140C325 139 329.5 138.5 336.5 140.5C340.5 142 340.5 141.5 345.5 145.5C347.5 147.5 350 151 351 157C351 162.5 351 163.5 348.751 168.817C340.5 187 305 207 305 207L310.251 193.317C310.251 193.317 330 174 332 168.817Z" fill="black"/>
</svg>
